G04 Layer_Physical_Order=1*
G04 Layer_Color=255*
%FSLAX25Y25*%
%MOIN*%
G70*
G01*
G75*
%ADD10R,0.02480X0.01417*%
%ADD11R,0.02126X0.03111*%
%ADD12C,0.05906*%
%ADD13P,0.06392X8X202.5*%
%ADD14C,0.01969*%
G36*
X5118Y373368D02*
X5118D01*
Y373425D01*
X15748D01*
Y370669D01*
X5118Y370727D01*
X4805Y370634D01*
X4163Y370747D01*
X3639Y371137D01*
X3347Y371721D01*
Y372047D01*
Y372374D01*
X3639Y372957D01*
X4163Y373347D01*
X4805Y373461D01*
X5118Y373368D01*
D02*
G37*
G36*
X1649016Y407480D02*
X1683071D01*
Y336614D01*
X1612205D01*
Y407480D01*
X1646260D01*
Y411417D01*
X1649016D01*
Y407480D01*
D02*
G37*
G36*
X1542717D02*
X1576772D01*
Y336614D01*
X1505906D01*
Y407480D01*
X1539961D01*
Y411417D01*
X1542717D01*
Y407480D01*
D02*
G37*
G36*
X111417Y373368D02*
X111417D01*
Y373425D01*
X122047D01*
Y370669D01*
X111417Y370727D01*
X111105Y370634D01*
X110462Y370747D01*
X109938Y371137D01*
X109646Y371721D01*
Y372047D01*
Y372374D01*
X109938Y372957D01*
X110462Y373347D01*
X111105Y373461D01*
X111417Y373368D01*
D02*
G37*
G36*
X430315D02*
X430315D01*
Y373425D01*
X440945D01*
Y370669D01*
X430315Y370727D01*
X430002Y370634D01*
X429359Y370747D01*
X428836Y371137D01*
X428543Y371721D01*
Y372047D01*
Y372374D01*
X428836Y372957D01*
X429359Y373347D01*
X430002Y373461D01*
X430315Y373368D01*
D02*
G37*
G36*
X324016D02*
X324016D01*
Y373425D01*
X334646D01*
Y370669D01*
X324016Y370727D01*
X323703Y370634D01*
X323060Y370747D01*
X322537Y371137D01*
X322244Y371721D01*
Y372047D01*
Y372374D01*
X322537Y372957D01*
X323060Y373347D01*
X323703Y373461D01*
X324016Y373368D01*
D02*
G37*
G36*
X217717D02*
X217717D01*
Y373425D01*
X228346D01*
Y370669D01*
X217717Y370727D01*
X217404Y370634D01*
X216761Y370747D01*
X216238Y371137D01*
X215945Y371721D01*
Y372047D01*
Y372374D01*
X216238Y372957D01*
X216761Y373347D01*
X217404Y373461D01*
X217717Y373368D01*
D02*
G37*
G36*
X1436417Y407480D02*
X1470472D01*
Y336614D01*
X1399606D01*
Y407480D01*
X1433661D01*
Y411417D01*
X1436417D01*
Y407480D01*
D02*
G37*
G36*
X904921D02*
X938976D01*
Y336614D01*
X868110D01*
Y407480D01*
X902165D01*
Y411417D01*
X904921D01*
Y407480D01*
D02*
G37*
G36*
X798622D02*
X832677D01*
Y336614D01*
X761811D01*
Y407480D01*
X795866D01*
Y411417D01*
X798622D01*
Y407480D01*
D02*
G37*
G36*
X692323D02*
X726378D01*
Y336614D01*
X655512D01*
Y407480D01*
X689567D01*
Y411417D01*
X692323D01*
Y407480D01*
D02*
G37*
G36*
X1011220D02*
X1045276D01*
Y336614D01*
X974409D01*
Y407480D01*
X1008465D01*
Y411417D01*
X1011220D01*
Y407480D01*
D02*
G37*
G36*
X1330118D02*
X1364173D01*
Y336614D01*
X1293307D01*
Y407480D01*
X1327362D01*
Y411417D01*
X1330118D01*
Y407480D01*
D02*
G37*
G36*
X1223819D02*
X1257874D01*
Y336614D01*
X1187008D01*
Y407480D01*
X1221063D01*
Y411417D01*
X1223819D01*
Y407480D01*
D02*
G37*
G36*
X1117520D02*
X1151575D01*
Y336614D01*
X1080709D01*
Y407480D01*
X1114764D01*
Y411417D01*
X1117520D01*
Y407480D01*
D02*
G37*
G36*
X1599606Y373368D02*
X1599606D01*
Y373425D01*
X1610236D01*
Y370669D01*
X1599606Y370727D01*
X1599294Y370634D01*
X1598651Y370747D01*
X1598127Y371137D01*
X1597835Y371721D01*
Y372047D01*
Y372374D01*
X1598127Y372957D01*
X1598651Y373347D01*
X1599294Y373461D01*
X1599606Y373368D01*
D02*
G37*
G36*
X1493307D02*
X1493307D01*
Y373425D01*
X1503937D01*
Y370669D01*
X1493307Y370727D01*
X1492994Y370634D01*
X1492352Y370747D01*
X1491828Y371137D01*
X1491535Y371721D01*
Y372047D01*
Y372374D01*
X1491828Y372957D01*
X1492352Y373347D01*
X1492994Y373461D01*
X1493307Y373368D01*
D02*
G37*
G36*
X1387008D02*
X1387008D01*
Y373425D01*
X1397638D01*
Y370669D01*
X1387008Y370727D01*
X1386695Y370634D01*
X1386052Y370747D01*
X1385529Y371137D01*
X1385236Y371721D01*
Y372047D01*
Y372374D01*
X1385529Y372957D01*
X1386052Y373347D01*
X1386695Y373461D01*
X1387008Y373368D01*
D02*
G37*
G36*
X53930Y422034D02*
X54318Y421647D01*
X54528Y421140D01*
Y420866D01*
Y412992D01*
X51772D01*
Y420866D01*
X51772Y421140D01*
X51981Y421647D01*
X52369Y422034D01*
X52876Y422244D01*
X53150Y422244D01*
X53424Y422244D01*
X53930Y422034D01*
D02*
G37*
G36*
X372828D02*
X373215Y421647D01*
X373425Y421140D01*
Y420866D01*
Y412992D01*
X370669D01*
Y420866D01*
X370669Y421140D01*
X370879Y421647D01*
X371267Y422034D01*
X371773Y422244D01*
X372047Y422244D01*
X372321Y422244D01*
X372828Y422034D01*
D02*
G37*
G36*
X266529D02*
X266916Y421647D01*
X267126Y421140D01*
Y420866D01*
Y412992D01*
X264370D01*
Y420866D01*
X264370Y421140D01*
X264580Y421647D01*
X264967Y422034D01*
X265474Y422244D01*
X265748Y422244D01*
X266022Y422244D01*
X266529Y422034D01*
D02*
G37*
G36*
X160229D02*
X160617Y421647D01*
X160827Y421140D01*
Y420866D01*
Y412992D01*
X158071D01*
Y420866D01*
X158071Y421140D01*
X158281Y421647D01*
X158668Y422034D01*
X159175Y422244D01*
X159449Y422244D01*
X159723Y422244D01*
X160229Y422034D01*
D02*
G37*
G36*
X1280709Y373368D02*
X1280709D01*
Y373425D01*
X1291339D01*
Y370669D01*
X1280709Y370727D01*
X1280396Y370634D01*
X1279753Y370747D01*
X1279230Y371137D01*
X1278937Y371721D01*
Y372047D01*
Y372374D01*
X1279230Y372957D01*
X1279753Y373347D01*
X1280396Y373461D01*
X1280709Y373368D01*
D02*
G37*
G36*
X749213D02*
X749213D01*
Y373425D01*
X759842D01*
Y370669D01*
X749213Y370727D01*
X748900Y370634D01*
X748257Y370747D01*
X747734Y371137D01*
X747441Y371721D01*
Y372047D01*
Y372374D01*
X747734Y372957D01*
X748257Y373347D01*
X748900Y373461D01*
X749213Y373368D01*
D02*
G37*
G36*
X642913D02*
X642913D01*
Y373425D01*
X653543D01*
Y370669D01*
X642913Y370727D01*
X642601Y370634D01*
X641958Y370747D01*
X641434Y371137D01*
X641142Y371721D01*
Y372047D01*
Y372374D01*
X641434Y372957D01*
X641958Y373347D01*
X642601Y373461D01*
X642913Y373368D01*
D02*
G37*
G36*
X536614D02*
X536614D01*
Y373425D01*
X547244D01*
Y370669D01*
X536614Y370727D01*
X536301Y370634D01*
X535659Y370747D01*
X535135Y371137D01*
X534842Y371721D01*
Y372047D01*
Y372374D01*
X535135Y372957D01*
X535659Y373347D01*
X536301Y373461D01*
X536614Y373368D01*
D02*
G37*
G36*
X855512D02*
X855512D01*
Y373425D01*
X866142D01*
Y370669D01*
X855512Y370727D01*
X855199Y370634D01*
X854556Y370747D01*
X854033Y371137D01*
X853740Y371721D01*
Y372047D01*
Y372374D01*
X854033Y372957D01*
X854556Y373347D01*
X855199Y373461D01*
X855512Y373368D01*
D02*
G37*
G36*
X1174409D02*
X1174409D01*
Y373425D01*
X1185039D01*
Y370669D01*
X1174409Y370727D01*
X1174097Y370634D01*
X1173454Y370747D01*
X1172931Y371137D01*
X1172638Y371721D01*
Y372047D01*
Y372374D01*
X1172931Y372957D01*
X1173454Y373347D01*
X1174097Y373461D01*
X1174409Y373368D01*
D02*
G37*
G36*
X1068110D02*
X1068110D01*
Y373425D01*
X1078740D01*
Y370669D01*
X1068110Y370727D01*
X1067797Y370634D01*
X1067155Y370747D01*
X1066631Y371137D01*
X1066339Y371721D01*
Y372047D01*
Y372374D01*
X1066631Y372957D01*
X1067155Y373347D01*
X1067797Y373461D01*
X1068110Y373368D01*
D02*
G37*
G36*
X961811D02*
X961811D01*
Y373425D01*
X972441D01*
Y370669D01*
X961811Y370727D01*
X961498Y370634D01*
X960855Y370747D01*
X960332Y371137D01*
X960039Y371721D01*
Y372047D01*
Y372374D01*
X960332Y372957D01*
X960855Y373347D01*
X961498Y373461D01*
X961811Y373368D01*
D02*
G37*
G36*
X266529Y315735D02*
X266916Y315348D01*
X267126Y314841D01*
Y314567D01*
Y306693D01*
X264370D01*
Y314567D01*
X264370Y314841D01*
X264580Y315348D01*
X264967Y315735D01*
X265474Y315945D01*
X265748Y315945D01*
X266022Y315945D01*
X266529Y315735D01*
D02*
G37*
G36*
X160229D02*
X160617Y315348D01*
X160827Y314841D01*
Y314567D01*
Y306693D01*
X158071D01*
Y314567D01*
X158071Y314841D01*
X158281Y315348D01*
X158668Y315735D01*
X159175Y315945D01*
X159449Y315945D01*
X159723Y315945D01*
X160229Y315735D01*
D02*
G37*
G36*
X53930D02*
X54318Y315348D01*
X54528Y314841D01*
Y314567D01*
Y306693D01*
X51772D01*
Y314567D01*
X51772Y314841D01*
X51981Y315348D01*
X52369Y315735D01*
X52876Y315945D01*
X53150Y315945D01*
X53424Y315945D01*
X53930Y315735D01*
D02*
G37*
G36*
X372828D02*
X373215Y315348D01*
X373425Y314841D01*
Y314567D01*
Y306693D01*
X370669D01*
Y314567D01*
X370669Y314841D01*
X370879Y315348D01*
X371267Y315735D01*
X371773Y315945D01*
X372047Y315945D01*
X372321Y315945D01*
X372828Y315735D01*
D02*
G37*
G36*
X691725D02*
X692113Y315348D01*
X692323Y314841D01*
Y314567D01*
Y306693D01*
X689567D01*
Y314567D01*
X689567Y314841D01*
X689777Y315348D01*
X690164Y315735D01*
X690671Y315945D01*
X690945Y315945D01*
X691219Y315945D01*
X691725Y315735D01*
D02*
G37*
G36*
X585426D02*
X585814Y315348D01*
X586024Y314841D01*
Y314567D01*
Y306693D01*
X583268D01*
Y314567D01*
X583268Y314841D01*
X583477Y315348D01*
X583865Y315735D01*
X584372Y315945D01*
X584646Y315945D01*
X584920Y315945D01*
X585426Y315735D01*
D02*
G37*
G36*
X479127D02*
X479515Y315348D01*
X479724Y314841D01*
Y314567D01*
Y306693D01*
X476968D01*
Y314567D01*
X476968Y314841D01*
X477178Y315348D01*
X477566Y315735D01*
X478072Y315945D01*
X478346Y315945D01*
X478621Y315945D01*
X479127Y315735D01*
D02*
G37*
G36*
X1599606Y267069D02*
X1599606D01*
Y267126D01*
X1610236D01*
Y264370D01*
X1599606Y264427D01*
X1599294Y264334D01*
X1598651Y264448D01*
X1598127Y264838D01*
X1597835Y265422D01*
Y265748D01*
Y266074D01*
X1598127Y266658D01*
X1598651Y267048D01*
X1599294Y267162D01*
X1599606Y267069D01*
D02*
G37*
G36*
X1068110D02*
X1068110D01*
Y267126D01*
X1078740D01*
Y264370D01*
X1068110Y264427D01*
X1067797Y264334D01*
X1067155Y264448D01*
X1066631Y264838D01*
X1066339Y265422D01*
Y265748D01*
Y266074D01*
X1066631Y266658D01*
X1067155Y267048D01*
X1067797Y267162D01*
X1068110Y267069D01*
D02*
G37*
G36*
X961811D02*
X961811D01*
Y267126D01*
X972441D01*
Y264370D01*
X961811Y264427D01*
X961498Y264334D01*
X960855Y264448D01*
X960332Y264838D01*
X960039Y265422D01*
Y265748D01*
Y266074D01*
X960332Y266658D01*
X960855Y267048D01*
X961498Y267162D01*
X961811Y267069D01*
D02*
G37*
G36*
X855512D02*
X855512D01*
Y267126D01*
X866142D01*
Y264370D01*
X855512Y264427D01*
X855199Y264334D01*
X854556Y264448D01*
X854033Y264838D01*
X853740Y265422D01*
Y265748D01*
Y266074D01*
X854033Y266658D01*
X854556Y267048D01*
X855199Y267162D01*
X855512Y267069D01*
D02*
G37*
G36*
X1174409D02*
X1174409D01*
Y267126D01*
X1185039D01*
Y264370D01*
X1174409Y264427D01*
X1174097Y264334D01*
X1173454Y264448D01*
X1172931Y264838D01*
X1172638Y265422D01*
Y265748D01*
Y266074D01*
X1172931Y266658D01*
X1173454Y267048D01*
X1174097Y267162D01*
X1174409Y267069D01*
D02*
G37*
G36*
X1493307D02*
X1493307D01*
Y267126D01*
X1503937D01*
Y264370D01*
X1493307Y264427D01*
X1492994Y264334D01*
X1492352Y264448D01*
X1491828Y264838D01*
X1491535Y265422D01*
Y265748D01*
Y266074D01*
X1491828Y266658D01*
X1492352Y267048D01*
X1492994Y267162D01*
X1493307Y267069D01*
D02*
G37*
G36*
X1387008D02*
X1387008D01*
Y267126D01*
X1397638D01*
Y264370D01*
X1387008Y264427D01*
X1386695Y264334D01*
X1386052Y264448D01*
X1385529Y264838D01*
X1385236Y265422D01*
Y265748D01*
Y266074D01*
X1385529Y266658D01*
X1386052Y267048D01*
X1386695Y267162D01*
X1387008Y267069D01*
D02*
G37*
G36*
X1280709D02*
X1280709D01*
Y267126D01*
X1291339D01*
Y264370D01*
X1280709Y264427D01*
X1280396Y264334D01*
X1279753Y264448D01*
X1279230Y264838D01*
X1278937Y265422D01*
Y265748D01*
Y266074D01*
X1279230Y266658D01*
X1279753Y267048D01*
X1280396Y267162D01*
X1280709Y267069D01*
D02*
G37*
G36*
X160827Y407480D02*
X194882D01*
Y336614D01*
X124016D01*
Y407480D01*
X158071D01*
Y411417D01*
X160827D01*
Y407480D01*
D02*
G37*
G36*
X54528D02*
X88583D01*
Y336614D01*
X17717D01*
Y407480D01*
X51772D01*
Y411417D01*
X54528D01*
Y407480D01*
D02*
G37*
G36*
X1648418Y315735D02*
X1648806Y315348D01*
X1649016Y314841D01*
Y314567D01*
Y306693D01*
X1646260D01*
Y314567D01*
X1646260Y314841D01*
X1646470Y315348D01*
X1646857Y315735D01*
X1647364Y315945D01*
X1647638Y315945D01*
X1647912Y315945D01*
X1648418Y315735D01*
D02*
G37*
G36*
X267126Y407480D02*
X301181D01*
Y336614D01*
X230315D01*
Y407480D01*
X264370D01*
Y411417D01*
X267126D01*
Y407480D01*
D02*
G37*
G36*
X586024D02*
X620079D01*
Y336614D01*
X549213D01*
Y407480D01*
X583268D01*
Y411417D01*
X586024D01*
Y407480D01*
D02*
G37*
G36*
X479724D02*
X513779D01*
Y336614D01*
X442913D01*
Y407480D01*
X476968D01*
Y411417D01*
X479724D01*
Y407480D01*
D02*
G37*
G36*
X373425D02*
X407480D01*
Y336614D01*
X336614D01*
Y407480D01*
X370669D01*
Y411417D01*
X373425D01*
Y407480D01*
D02*
G37*
G36*
X1542119Y315735D02*
X1542507Y315348D01*
X1542717Y314841D01*
Y314567D01*
Y306693D01*
X1539961D01*
Y314567D01*
X1539961Y314841D01*
X1540170Y315348D01*
X1540558Y315735D01*
X1541064Y315945D01*
X1541339Y315945D01*
X1541613Y315945D01*
X1542119Y315735D01*
D02*
G37*
G36*
X1010623D02*
X1011011Y315348D01*
X1011220Y314841D01*
Y314567D01*
Y306693D01*
X1008465D01*
Y314567D01*
X1008465Y314841D01*
X1008674Y315348D01*
X1009062Y315735D01*
X1009568Y315945D01*
X1009842Y315945D01*
X1010117Y315945D01*
X1010623Y315735D01*
D02*
G37*
G36*
X904324D02*
X904712Y315348D01*
X904921Y314841D01*
Y314567D01*
Y306693D01*
X902165D01*
Y314567D01*
X902165Y314841D01*
X902375Y315348D01*
X902763Y315735D01*
X903269Y315945D01*
X903543Y315945D01*
X903817Y315945D01*
X904324Y315735D01*
D02*
G37*
G36*
X798025D02*
X798412Y315348D01*
X798622Y314841D01*
Y314567D01*
Y306693D01*
X795866D01*
Y314567D01*
X795866Y314841D01*
X796076Y315348D01*
X796464Y315735D01*
X796970Y315945D01*
X797244Y315945D01*
X797518Y315945D01*
X798025Y315735D01*
D02*
G37*
G36*
X1116922D02*
X1117310Y315348D01*
X1117520Y314841D01*
Y314567D01*
Y306693D01*
X1114764D01*
Y314567D01*
X1114764Y314841D01*
X1114974Y315348D01*
X1115361Y315735D01*
X1115868Y315945D01*
X1116142Y315945D01*
X1116416Y315945D01*
X1116922Y315735D01*
D02*
G37*
G36*
X1435820D02*
X1436207Y315348D01*
X1436417Y314841D01*
Y314567D01*
Y306693D01*
X1433661D01*
Y314567D01*
X1433661Y314841D01*
X1433871Y315348D01*
X1434259Y315735D01*
X1434765Y315945D01*
X1435039Y315945D01*
X1435314Y315945D01*
X1435820Y315735D01*
D02*
G37*
G36*
X1329521D02*
X1329908Y315348D01*
X1330118Y314841D01*
Y314567D01*
Y306693D01*
X1327362D01*
Y314567D01*
X1327362Y314841D01*
X1327572Y315348D01*
X1327960Y315735D01*
X1328466Y315945D01*
X1328740Y315945D01*
X1329014Y315945D01*
X1329521Y315735D01*
D02*
G37*
G36*
X1223221D02*
X1223609Y315348D01*
X1223819Y314841D01*
Y314567D01*
Y306693D01*
X1221063D01*
Y314567D01*
X1221063Y314841D01*
X1221273Y315348D01*
X1221660Y315735D01*
X1222167Y315945D01*
X1222441Y315945D01*
X1222715Y315945D01*
X1223221Y315735D01*
D02*
G37*
G36*
X1280709Y479667D02*
X1280709D01*
Y479724D01*
X1291339D01*
Y476968D01*
X1280709Y477026D01*
X1280396Y476933D01*
X1279753Y477047D01*
X1279230Y477437D01*
X1278937Y478020D01*
Y478346D01*
Y478673D01*
X1279230Y479256D01*
X1279753Y479646D01*
X1280396Y479760D01*
X1280709Y479667D01*
D02*
G37*
G36*
X1174409D02*
X1174409D01*
Y479724D01*
X1185039D01*
Y476968D01*
X1174409Y477026D01*
X1174097Y476933D01*
X1173454Y477047D01*
X1172931Y477437D01*
X1172638Y478020D01*
Y478346D01*
Y478673D01*
X1172931Y479256D01*
X1173454Y479646D01*
X1174097Y479760D01*
X1174409Y479667D01*
D02*
G37*
G36*
X1068110D02*
X1068110D01*
Y479724D01*
X1078740D01*
Y476968D01*
X1068110Y477026D01*
X1067797Y476933D01*
X1067155Y477047D01*
X1066631Y477437D01*
X1066339Y478020D01*
Y478346D01*
Y478673D01*
X1066631Y479256D01*
X1067155Y479646D01*
X1067797Y479760D01*
X1068110Y479667D01*
D02*
G37*
G36*
X1387008D02*
X1387008D01*
Y479724D01*
X1397638D01*
Y476968D01*
X1387008Y477026D01*
X1386695Y476933D01*
X1386052Y477047D01*
X1385529Y477437D01*
X1385236Y478020D01*
Y478346D01*
Y478673D01*
X1385529Y479256D01*
X1386052Y479646D01*
X1386695Y479760D01*
X1387008Y479667D01*
D02*
G37*
G36*
X53930Y528334D02*
X54318Y527946D01*
X54528Y527439D01*
Y527165D01*
Y519291D01*
X51772D01*
Y527165D01*
X51772Y527439D01*
X51981Y527946D01*
X52369Y528334D01*
X52876Y528543D01*
X53150Y528543D01*
X53424Y528543D01*
X53930Y528334D01*
D02*
G37*
G36*
X1599606Y479667D02*
X1599606D01*
Y479724D01*
X1610236D01*
Y476968D01*
X1599606Y477026D01*
X1599294Y476933D01*
X1598651Y477047D01*
X1598127Y477437D01*
X1597835Y478020D01*
Y478346D01*
Y478673D01*
X1598127Y479256D01*
X1598651Y479646D01*
X1599294Y479760D01*
X1599606Y479667D01*
D02*
G37*
G36*
X1493307D02*
X1493307D01*
Y479724D01*
X1503937D01*
Y476968D01*
X1493307Y477026D01*
X1492994Y476933D01*
X1492352Y477047D01*
X1491828Y477437D01*
X1491535Y478020D01*
Y478346D01*
Y478673D01*
X1491828Y479256D01*
X1492352Y479646D01*
X1492994Y479760D01*
X1493307Y479667D01*
D02*
G37*
G36*
X961811D02*
X961811D01*
Y479724D01*
X972441D01*
Y476968D01*
X961811Y477026D01*
X961498Y476933D01*
X960855Y477047D01*
X960332Y477437D01*
X960039Y478020D01*
Y478346D01*
Y478673D01*
X960332Y479256D01*
X960855Y479646D01*
X961498Y479760D01*
X961811Y479667D01*
D02*
G37*
G36*
X430315D02*
X430315D01*
Y479724D01*
X440945D01*
Y476968D01*
X430315Y477026D01*
X430002Y476933D01*
X429359Y477047D01*
X428836Y477437D01*
X428543Y478020D01*
Y478346D01*
Y478673D01*
X428836Y479256D01*
X429359Y479646D01*
X430002Y479760D01*
X430315Y479667D01*
D02*
G37*
G36*
X324016D02*
X324016D01*
Y479724D01*
X334646D01*
Y476968D01*
X324016Y477026D01*
X323703Y476933D01*
X323060Y477047D01*
X322537Y477437D01*
X322244Y478020D01*
Y478346D01*
Y478673D01*
X322537Y479256D01*
X323060Y479646D01*
X323703Y479760D01*
X324016Y479667D01*
D02*
G37*
G36*
X217717D02*
X217717D01*
Y479724D01*
X228346D01*
Y476968D01*
X217717Y477026D01*
X217404Y476933D01*
X216761Y477047D01*
X216238Y477437D01*
X215945Y478020D01*
Y478346D01*
Y478673D01*
X216238Y479256D01*
X216761Y479646D01*
X217404Y479760D01*
X217717Y479667D01*
D02*
G37*
G36*
X536614D02*
X536614D01*
Y479724D01*
X547244D01*
Y476968D01*
X536614Y477026D01*
X536301Y476933D01*
X535659Y477047D01*
X535135Y477437D01*
X534842Y478020D01*
Y478346D01*
Y478673D01*
X535135Y479256D01*
X535659Y479646D01*
X536301Y479760D01*
X536614Y479667D01*
D02*
G37*
G36*
X855512D02*
X855512D01*
Y479724D01*
X866142D01*
Y476968D01*
X855512Y477026D01*
X855199Y476933D01*
X854556Y477047D01*
X854033Y477437D01*
X853740Y478020D01*
Y478346D01*
Y478673D01*
X854033Y479256D01*
X854556Y479646D01*
X855199Y479760D01*
X855512Y479667D01*
D02*
G37*
G36*
X749213D02*
X749213D01*
Y479724D01*
X759842D01*
Y476968D01*
X749213Y477026D01*
X748900Y476933D01*
X748257Y477047D01*
X747734Y477437D01*
X747441Y478020D01*
Y478346D01*
Y478673D01*
X747734Y479256D01*
X748257Y479646D01*
X748900Y479760D01*
X749213Y479667D01*
D02*
G37*
G36*
X642913D02*
X642913D01*
Y479724D01*
X653543D01*
Y476968D01*
X642913Y477026D01*
X642601Y476933D01*
X641958Y477047D01*
X641434Y477437D01*
X641142Y478020D01*
Y478346D01*
Y478673D01*
X641434Y479256D01*
X641958Y479646D01*
X642601Y479760D01*
X642913Y479667D01*
D02*
G37*
G36*
X1223221Y528334D02*
X1223609Y527946D01*
X1223819Y527439D01*
Y527165D01*
Y519291D01*
X1221063D01*
Y527165D01*
X1221063Y527439D01*
X1221273Y527946D01*
X1221660Y528334D01*
X1222167Y528543D01*
X1222441Y528543D01*
X1222715Y528543D01*
X1223221Y528334D01*
D02*
G37*
G36*
X1116922D02*
X1117310Y527946D01*
X1117520Y527439D01*
Y527165D01*
Y519291D01*
X1114764D01*
Y527165D01*
X1114764Y527439D01*
X1114974Y527946D01*
X1115361Y528334D01*
X1115868Y528543D01*
X1116142Y528543D01*
X1116416Y528543D01*
X1116922Y528334D01*
D02*
G37*
G36*
X1010623D02*
X1011011Y527946D01*
X1011220Y527439D01*
Y527165D01*
Y519291D01*
X1008465D01*
Y527165D01*
X1008465Y527439D01*
X1008674Y527946D01*
X1009062Y528334D01*
X1009568Y528543D01*
X1009842Y528543D01*
X1010117Y528543D01*
X1010623Y528334D01*
D02*
G37*
G36*
X1329521D02*
X1329908Y527946D01*
X1330118Y527439D01*
Y527165D01*
Y519291D01*
X1327362D01*
Y527165D01*
X1327362Y527439D01*
X1327572Y527946D01*
X1327960Y528334D01*
X1328466Y528543D01*
X1328740Y528543D01*
X1329014Y528543D01*
X1329521Y528334D01*
D02*
G37*
G36*
X1648418D02*
X1648806Y527946D01*
X1649016Y527439D01*
Y527165D01*
Y519291D01*
X1646260D01*
Y527165D01*
X1646260Y527439D01*
X1646470Y527946D01*
X1646857Y528334D01*
X1647364Y528543D01*
X1647638Y528543D01*
X1647912Y528543D01*
X1648418Y528334D01*
D02*
G37*
G36*
X1542119D02*
X1542507Y527946D01*
X1542717Y527439D01*
Y527165D01*
Y519291D01*
X1539961D01*
Y527165D01*
X1539961Y527439D01*
X1540170Y527946D01*
X1540558Y528334D01*
X1541064Y528543D01*
X1541339Y528543D01*
X1541613Y528543D01*
X1542119Y528334D01*
D02*
G37*
G36*
X1435820D02*
X1436207Y527946D01*
X1436417Y527439D01*
Y527165D01*
Y519291D01*
X1433661D01*
Y527165D01*
X1433661Y527439D01*
X1433871Y527946D01*
X1434259Y528334D01*
X1434765Y528543D01*
X1435039Y528543D01*
X1435314Y528543D01*
X1435820Y528334D01*
D02*
G37*
G36*
X904324D02*
X904712Y527946D01*
X904921Y527439D01*
Y527165D01*
Y519291D01*
X902165D01*
Y527165D01*
X902165Y527439D01*
X902375Y527946D01*
X902763Y528334D01*
X903269Y528543D01*
X903543Y528543D01*
X903817Y528543D01*
X904324Y528334D01*
D02*
G37*
G36*
X372828D02*
X373215Y527946D01*
X373425Y527439D01*
Y527165D01*
Y519291D01*
X370669D01*
Y527165D01*
X370669Y527439D01*
X370879Y527946D01*
X371267Y528334D01*
X371773Y528543D01*
X372047Y528543D01*
X372321Y528543D01*
X372828Y528334D01*
D02*
G37*
G36*
X266529D02*
X266916Y527946D01*
X267126Y527439D01*
Y527165D01*
Y519291D01*
X264370D01*
Y527165D01*
X264370Y527439D01*
X264580Y527946D01*
X264967Y528334D01*
X265474Y528543D01*
X265748Y528543D01*
X266022Y528543D01*
X266529Y528334D01*
D02*
G37*
G36*
X160229D02*
X160617Y527946D01*
X160827Y527439D01*
Y527165D01*
Y519291D01*
X158071D01*
Y527165D01*
X158071Y527439D01*
X158281Y527946D01*
X158668Y528334D01*
X159175Y528543D01*
X159449Y528543D01*
X159723Y528543D01*
X160229Y528334D01*
D02*
G37*
G36*
X479127D02*
X479515Y527946D01*
X479724Y527439D01*
Y527165D01*
Y519291D01*
X476968D01*
Y527165D01*
X476968Y527439D01*
X477178Y527946D01*
X477566Y528334D01*
X478072Y528543D01*
X478346Y528543D01*
X478621Y528543D01*
X479127Y528334D01*
D02*
G37*
G36*
X798025D02*
X798412Y527946D01*
X798622Y527439D01*
Y527165D01*
Y519291D01*
X795866D01*
Y527165D01*
X795866Y527439D01*
X796076Y527946D01*
X796464Y528334D01*
X796970Y528543D01*
X797244Y528543D01*
X797518Y528543D01*
X798025Y528334D01*
D02*
G37*
G36*
X691725D02*
X692113Y527946D01*
X692323Y527439D01*
Y527165D01*
Y519291D01*
X689567D01*
Y527165D01*
X689567Y527439D01*
X689777Y527946D01*
X690164Y528334D01*
X690671Y528543D01*
X690945Y528543D01*
X691219Y528543D01*
X691725Y528334D01*
D02*
G37*
G36*
X585426D02*
X585814Y527946D01*
X586024Y527439D01*
Y527165D01*
Y519291D01*
X583268D01*
Y527165D01*
X583268Y527439D01*
X583477Y527946D01*
X583865Y528334D01*
X584372Y528543D01*
X584646Y528543D01*
X584920Y528543D01*
X585426Y528334D01*
D02*
G37*
G36*
X1542119Y422034D02*
X1542507Y421647D01*
X1542717Y421140D01*
Y420866D01*
Y412992D01*
X1539961D01*
Y420866D01*
X1539961Y421140D01*
X1540170Y421647D01*
X1540558Y422034D01*
X1541064Y422244D01*
X1541339Y422244D01*
X1541613Y422244D01*
X1542119Y422034D01*
D02*
G37*
G36*
X1435820D02*
X1436207Y421647D01*
X1436417Y421140D01*
Y420866D01*
Y412992D01*
X1433661D01*
Y420866D01*
X1433661Y421140D01*
X1433871Y421647D01*
X1434259Y422034D01*
X1434765Y422244D01*
X1435039Y422244D01*
X1435314Y422244D01*
X1435820Y422034D01*
D02*
G37*
G36*
X1329521D02*
X1329908Y421647D01*
X1330118Y421140D01*
Y420866D01*
Y412992D01*
X1327362D01*
Y420866D01*
X1327362Y421140D01*
X1327572Y421647D01*
X1327960Y422034D01*
X1328466Y422244D01*
X1328740Y422244D01*
X1329014Y422244D01*
X1329521Y422034D01*
D02*
G37*
G36*
X1648418D02*
X1648806Y421647D01*
X1649016Y421140D01*
Y420866D01*
Y412992D01*
X1646260D01*
Y420866D01*
X1646260Y421140D01*
X1646470Y421647D01*
X1646857Y422034D01*
X1647364Y422244D01*
X1647638Y422244D01*
X1647912Y422244D01*
X1648418Y422034D01*
D02*
G37*
G36*
X267126Y513779D02*
X301181D01*
Y442913D01*
X230315D01*
Y513779D01*
X264370D01*
Y517717D01*
X267126D01*
Y513779D01*
D02*
G37*
G36*
X160827D02*
X194882D01*
Y442913D01*
X124016D01*
Y513779D01*
X158071D01*
Y517717D01*
X160827D01*
Y513779D01*
D02*
G37*
G36*
X54528D02*
X88583D01*
Y442913D01*
X17717D01*
Y513779D01*
X51772D01*
Y517717D01*
X54528D01*
Y513779D01*
D02*
G37*
G36*
X1223221Y422034D02*
X1223609Y421647D01*
X1223819Y421140D01*
Y420866D01*
Y412992D01*
X1221063D01*
Y420866D01*
X1221063Y421140D01*
X1221273Y421647D01*
X1221660Y422034D01*
X1222167Y422244D01*
X1222441Y422244D01*
X1222715Y422244D01*
X1223221Y422034D01*
D02*
G37*
G36*
X691725D02*
X692113Y421647D01*
X692323Y421140D01*
Y420866D01*
Y412992D01*
X689567D01*
Y420866D01*
X689567Y421140D01*
X689777Y421647D01*
X690164Y422034D01*
X690671Y422244D01*
X690945Y422244D01*
X691219Y422244D01*
X691725Y422034D01*
D02*
G37*
G36*
X585426D02*
X585814Y421647D01*
X586024Y421140D01*
Y420866D01*
Y412992D01*
X583268D01*
Y420866D01*
X583268Y421140D01*
X583477Y421647D01*
X583865Y422034D01*
X584372Y422244D01*
X584646Y422244D01*
X584920Y422244D01*
X585426Y422034D01*
D02*
G37*
G36*
X479127D02*
X479515Y421647D01*
X479724Y421140D01*
Y420866D01*
Y412992D01*
X476968D01*
Y420866D01*
X476968Y421140D01*
X477178Y421647D01*
X477566Y422034D01*
X478072Y422244D01*
X478346Y422244D01*
X478621Y422244D01*
X479127Y422034D01*
D02*
G37*
G36*
X798025D02*
X798412Y421647D01*
X798622Y421140D01*
Y420866D01*
Y412992D01*
X795866D01*
Y420866D01*
X795866Y421140D01*
X796076Y421647D01*
X796464Y422034D01*
X796970Y422244D01*
X797244Y422244D01*
X797518Y422244D01*
X798025Y422034D01*
D02*
G37*
G36*
X1116922D02*
X1117310Y421647D01*
X1117520Y421140D01*
Y420866D01*
Y412992D01*
X1114764D01*
Y420866D01*
X1114764Y421140D01*
X1114974Y421647D01*
X1115361Y422034D01*
X1115868Y422244D01*
X1116142Y422244D01*
X1116416Y422244D01*
X1116922Y422034D01*
D02*
G37*
G36*
X1010623D02*
X1011011Y421647D01*
X1011220Y421140D01*
Y420866D01*
Y412992D01*
X1008465D01*
Y420866D01*
X1008465Y421140D01*
X1008674Y421647D01*
X1009062Y422034D01*
X1009568Y422244D01*
X1009842Y422244D01*
X1010117Y422244D01*
X1010623Y422034D01*
D02*
G37*
G36*
X904324D02*
X904712Y421647D01*
X904921Y421140D01*
Y420866D01*
Y412992D01*
X902165D01*
Y420866D01*
X902165Y421140D01*
X902375Y421647D01*
X902763Y422034D01*
X903269Y422244D01*
X903543Y422244D01*
X903817Y422244D01*
X904324Y422034D01*
D02*
G37*
G36*
X1436417Y513779D02*
X1470472D01*
Y442913D01*
X1399606D01*
Y513779D01*
X1433661D01*
Y517717D01*
X1436417D01*
Y513779D01*
D02*
G37*
G36*
X1330118D02*
X1364173D01*
Y442913D01*
X1293307D01*
Y513779D01*
X1327362D01*
Y517717D01*
X1330118D01*
Y513779D01*
D02*
G37*
G36*
X1223819D02*
X1257874D01*
Y442913D01*
X1187008D01*
Y513779D01*
X1221063D01*
Y517717D01*
X1223819D01*
Y513779D01*
D02*
G37*
G36*
X1542717D02*
X1576772D01*
Y442913D01*
X1505906D01*
Y513779D01*
X1539961D01*
Y517717D01*
X1542717D01*
Y513779D01*
D02*
G37*
G36*
X111417Y479667D02*
X111417D01*
Y479724D01*
X122047D01*
Y476968D01*
X111417Y477026D01*
X111105Y476933D01*
X110462Y477047D01*
X109938Y477437D01*
X109646Y478020D01*
Y478346D01*
Y478673D01*
X109938Y479256D01*
X110462Y479646D01*
X111105Y479760D01*
X111417Y479667D01*
D02*
G37*
G36*
X5118D02*
X5118D01*
Y479724D01*
X15748D01*
Y476968D01*
X5118Y477026D01*
X4805Y476933D01*
X4163Y477047D01*
X3639Y477437D01*
X3347Y478020D01*
Y478346D01*
Y478673D01*
X3639Y479256D01*
X4163Y479646D01*
X4805Y479760D01*
X5118Y479667D01*
D02*
G37*
G36*
X1649016Y513779D02*
X1683071D01*
Y442913D01*
X1612205D01*
Y513779D01*
X1646260D01*
Y517717D01*
X1649016D01*
Y513779D01*
D02*
G37*
G36*
X1117520D02*
X1151575D01*
Y442913D01*
X1080709D01*
Y513779D01*
X1114764D01*
Y517717D01*
X1117520D01*
Y513779D01*
D02*
G37*
G36*
X586024D02*
X620079D01*
Y442913D01*
X549213D01*
Y513779D01*
X583268D01*
Y517717D01*
X586024D01*
Y513779D01*
D02*
G37*
G36*
X479724D02*
X513779D01*
Y442913D01*
X442913D01*
Y513779D01*
X476968D01*
Y517717D01*
X479724D01*
Y513779D01*
D02*
G37*
G36*
X373425D02*
X407480D01*
Y442913D01*
X336614D01*
Y513779D01*
X370669D01*
Y517717D01*
X373425D01*
Y513779D01*
D02*
G37*
G36*
X692323D02*
X726378D01*
Y442913D01*
X655512D01*
Y513779D01*
X689567D01*
Y517717D01*
X692323D01*
Y513779D01*
D02*
G37*
G36*
X1011220D02*
X1045276D01*
Y442913D01*
X974409D01*
Y513779D01*
X1008465D01*
Y517717D01*
X1011220D01*
Y513779D01*
D02*
G37*
G36*
X904921D02*
X938976D01*
Y442913D01*
X868110D01*
Y513779D01*
X902165D01*
Y517717D01*
X904921D01*
Y513779D01*
D02*
G37*
G36*
X798622D02*
X832677D01*
Y442913D01*
X761811D01*
Y513779D01*
X795866D01*
Y517717D01*
X798622D01*
Y513779D01*
D02*
G37*
G36*
X904324Y103137D02*
X904712Y102749D01*
X904921Y102243D01*
Y101969D01*
Y94095D01*
X902165D01*
Y101969D01*
X902165Y102243D01*
X902375Y102749D01*
X902763Y103137D01*
X903269Y103347D01*
X903543Y103346D01*
X903817Y103347D01*
X904324Y103137D01*
D02*
G37*
G36*
X798025D02*
X798412Y102749D01*
X798622Y102243D01*
Y101969D01*
Y94095D01*
X795866D01*
Y101969D01*
X795866Y102243D01*
X796076Y102749D01*
X796464Y103137D01*
X796970Y103347D01*
X797244Y103346D01*
X797518Y103347D01*
X798025Y103137D01*
D02*
G37*
G36*
X691725D02*
X692113Y102749D01*
X692323Y102243D01*
Y101969D01*
Y94095D01*
X689567D01*
Y101969D01*
X689567Y102243D01*
X689777Y102749D01*
X690164Y103137D01*
X690671Y103347D01*
X690945Y103346D01*
X691219Y103347D01*
X691725Y103137D01*
D02*
G37*
G36*
X1010623D02*
X1011011Y102749D01*
X1011220Y102243D01*
Y101969D01*
Y94095D01*
X1008465D01*
Y101969D01*
X1008465Y102243D01*
X1008674Y102749D01*
X1009062Y103137D01*
X1009568Y103347D01*
X1009842Y103346D01*
X1010117Y103347D01*
X1010623Y103137D01*
D02*
G37*
G36*
X1329521D02*
X1329908Y102749D01*
X1330118Y102243D01*
Y101969D01*
Y94095D01*
X1327362D01*
Y101969D01*
X1327362Y102243D01*
X1327572Y102749D01*
X1327960Y103137D01*
X1328466Y103347D01*
X1328740Y103346D01*
X1329014Y103347D01*
X1329521Y103137D01*
D02*
G37*
G36*
X1223221D02*
X1223609Y102749D01*
X1223819Y102243D01*
Y101969D01*
Y94095D01*
X1221063D01*
Y101969D01*
X1221063Y102243D01*
X1221273Y102749D01*
X1221660Y103137D01*
X1222167Y103347D01*
X1222441Y103346D01*
X1222715Y103347D01*
X1223221Y103137D01*
D02*
G37*
G36*
X1116922D02*
X1117310Y102749D01*
X1117520Y102243D01*
Y101969D01*
Y94095D01*
X1114764D01*
Y101969D01*
X1114764Y102243D01*
X1114974Y102749D01*
X1115361Y103137D01*
X1115868Y103347D01*
X1116142Y103346D01*
X1116416Y103347D01*
X1116922Y103137D01*
D02*
G37*
G36*
X585426D02*
X585814Y102749D01*
X586024Y102243D01*
Y101969D01*
Y94095D01*
X583268D01*
Y101969D01*
X583268Y102243D01*
X583477Y102749D01*
X583865Y103137D01*
X584372Y103347D01*
X584646Y103346D01*
X584920Y103347D01*
X585426Y103137D01*
D02*
G37*
G36*
X53930D02*
X54318Y102749D01*
X54528Y102243D01*
Y101969D01*
Y94095D01*
X51772D01*
Y101969D01*
X51772Y102243D01*
X51981Y102749D01*
X52369Y103137D01*
X52876Y103347D01*
X53150Y103346D01*
X53424Y103347D01*
X53930Y103137D01*
D02*
G37*
G36*
X1599606Y54470D02*
X1599606D01*
Y54528D01*
X1610236D01*
Y51772D01*
X1599606Y51829D01*
X1599294Y51736D01*
X1598651Y51850D01*
X1598127Y52240D01*
X1597835Y52823D01*
Y53150D01*
Y53476D01*
X1598127Y54059D01*
X1598651Y54449D01*
X1599294Y54563D01*
X1599606Y54470D01*
D02*
G37*
G36*
X1493307D02*
X1493307D01*
Y54528D01*
X1503937D01*
Y51772D01*
X1493307Y51829D01*
X1492994Y51736D01*
X1492352Y51850D01*
X1491828Y52240D01*
X1491535Y52823D01*
Y53150D01*
Y53476D01*
X1491828Y54059D01*
X1492352Y54449D01*
X1492994Y54563D01*
X1493307Y54470D01*
D02*
G37*
G36*
X160229Y103137D02*
X160617Y102749D01*
X160827Y102243D01*
Y101969D01*
Y94095D01*
X158071D01*
Y101969D01*
X158071Y102243D01*
X158281Y102749D01*
X158668Y103137D01*
X159175Y103347D01*
X159449Y103346D01*
X159723Y103347D01*
X160229Y103137D01*
D02*
G37*
G36*
X479127D02*
X479515Y102749D01*
X479724Y102243D01*
Y101969D01*
Y94095D01*
X476968D01*
Y101969D01*
X476968Y102243D01*
X477178Y102749D01*
X477566Y103137D01*
X478072Y103347D01*
X478346Y103346D01*
X478621Y103347D01*
X479127Y103137D01*
D02*
G37*
G36*
X372828D02*
X373215Y102749D01*
X373425Y102243D01*
Y101969D01*
Y94095D01*
X370669D01*
Y101969D01*
X370669Y102243D01*
X370879Y102749D01*
X371267Y103137D01*
X371773Y103347D01*
X372047Y103346D01*
X372321Y103347D01*
X372828Y103137D01*
D02*
G37*
G36*
X266529D02*
X266916Y102749D01*
X267126Y102243D01*
Y101969D01*
Y94095D01*
X264370D01*
Y101969D01*
X264370Y102243D01*
X264580Y102749D01*
X264967Y103137D01*
X265474Y103347D01*
X265748Y103346D01*
X266022Y103347D01*
X266529Y103137D01*
D02*
G37*
G36*
X798622Y194882D02*
X832677D01*
Y124016D01*
X761811D01*
Y194882D01*
X795866D01*
Y198819D01*
X798622D01*
Y194882D01*
D02*
G37*
G36*
X692323D02*
X726378D01*
Y124016D01*
X655512D01*
Y194882D01*
X689567D01*
Y198819D01*
X692323D01*
Y194882D01*
D02*
G37*
G36*
X586024D02*
X620079D01*
Y124016D01*
X549213D01*
Y194882D01*
X583268D01*
Y198819D01*
X586024D01*
Y194882D01*
D02*
G37*
G36*
X904921D02*
X938976D01*
Y124016D01*
X868110D01*
Y194882D01*
X902165D01*
Y198819D01*
X904921D01*
Y194882D01*
D02*
G37*
G36*
X1223819D02*
X1257874D01*
Y124016D01*
X1187008D01*
Y194882D01*
X1221063D01*
Y198819D01*
X1223819D01*
Y194882D01*
D02*
G37*
G36*
X1117520D02*
X1151575D01*
Y124016D01*
X1080709D01*
Y194882D01*
X1114764D01*
Y198819D01*
X1117520D01*
Y194882D01*
D02*
G37*
G36*
X1011220D02*
X1045276D01*
Y124016D01*
X974409D01*
Y194882D01*
X1008465D01*
Y198819D01*
X1011220D01*
Y194882D01*
D02*
G37*
G36*
X479724D02*
X513779D01*
Y124016D01*
X442913D01*
Y194882D01*
X476968D01*
Y198819D01*
X479724D01*
Y194882D01*
D02*
G37*
G36*
X1648418Y103137D02*
X1648806Y102749D01*
X1649016Y102243D01*
Y101969D01*
Y94095D01*
X1646260D01*
Y101969D01*
X1646260Y102243D01*
X1646470Y102749D01*
X1646857Y103137D01*
X1647364Y103347D01*
X1647638Y103346D01*
X1647912Y103347D01*
X1648418Y103137D01*
D02*
G37*
G36*
X1542119D02*
X1542507Y102749D01*
X1542717Y102243D01*
Y101969D01*
Y94095D01*
X1539961D01*
Y101969D01*
X1539961Y102243D01*
X1540170Y102749D01*
X1540558Y103137D01*
X1541064Y103347D01*
X1541339Y103346D01*
X1541613Y103347D01*
X1542119Y103137D01*
D02*
G37*
G36*
X1435820D02*
X1436207Y102749D01*
X1436417Y102243D01*
Y101969D01*
Y94095D01*
X1433661D01*
Y101969D01*
X1433661Y102243D01*
X1433871Y102749D01*
X1434259Y103137D01*
X1434765Y103347D01*
X1435039Y103346D01*
X1435314Y103347D01*
X1435820Y103137D01*
D02*
G37*
G36*
X54528Y194882D02*
X88583D01*
Y124016D01*
X17717D01*
Y194882D01*
X51772D01*
Y198819D01*
X54528D01*
Y194882D01*
D02*
G37*
G36*
X373425D02*
X407480D01*
Y124016D01*
X336614D01*
Y194882D01*
X370669D01*
Y198819D01*
X373425D01*
Y194882D01*
D02*
G37*
G36*
X267126D02*
X301181D01*
Y124016D01*
X230315D01*
Y194882D01*
X264370D01*
Y198819D01*
X267126D01*
Y194882D01*
D02*
G37*
G36*
X160827D02*
X194882D01*
Y124016D01*
X124016D01*
Y194882D01*
X158071D01*
Y198819D01*
X160827D01*
Y194882D01*
D02*
G37*
G36*
X1117520Y88583D02*
X1151575D01*
Y17717D01*
X1080709D01*
Y88583D01*
X1114764D01*
Y92520D01*
X1117520D01*
Y88583D01*
D02*
G37*
G36*
X1011220D02*
X1045276D01*
Y17717D01*
X974409D01*
Y88583D01*
X1008465D01*
Y92520D01*
X1011220D01*
Y88583D01*
D02*
G37*
G36*
X904921D02*
X938976D01*
Y17717D01*
X868110D01*
Y88583D01*
X902165D01*
Y92520D01*
X904921D01*
Y88583D01*
D02*
G37*
G36*
X1223819D02*
X1257874D01*
Y17717D01*
X1187008D01*
Y88583D01*
X1221063D01*
Y92520D01*
X1223819D01*
Y88583D01*
D02*
G37*
G36*
X1542717D02*
X1576772D01*
Y17717D01*
X1505906D01*
Y88583D01*
X1539961D01*
Y92520D01*
X1542717D01*
Y88583D01*
D02*
G37*
G36*
X1436417D02*
X1470472D01*
Y17717D01*
X1399606D01*
Y88583D01*
X1433661D01*
Y92520D01*
X1436417D01*
Y88583D01*
D02*
G37*
G36*
X1330118D02*
X1364173D01*
Y17717D01*
X1293307D01*
Y88583D01*
X1327362D01*
Y92520D01*
X1330118D01*
Y88583D01*
D02*
G37*
G36*
X798622D02*
X832677D01*
Y17717D01*
X761811D01*
Y88583D01*
X795866D01*
Y92520D01*
X798622D01*
Y88583D01*
D02*
G37*
G36*
X267126D02*
X301181D01*
Y17717D01*
X230315D01*
Y88583D01*
X264370D01*
Y92520D01*
X267126D01*
Y88583D01*
D02*
G37*
G36*
X160827D02*
X194882D01*
Y17717D01*
X124016D01*
Y88583D01*
X158071D01*
Y92520D01*
X160827D01*
Y88583D01*
D02*
G37*
G36*
X54528D02*
X88583D01*
Y17717D01*
X17717D01*
Y88583D01*
X51772D01*
Y92520D01*
X54528D01*
Y88583D01*
D02*
G37*
G36*
X373425D02*
X407480D01*
Y17717D01*
X336614D01*
Y88583D01*
X370669D01*
Y92520D01*
X373425D01*
Y88583D01*
D02*
G37*
G36*
X692323D02*
X726378D01*
Y17717D01*
X655512D01*
Y88583D01*
X689567D01*
Y92520D01*
X692323D01*
Y88583D01*
D02*
G37*
G36*
X586024D02*
X620079D01*
Y17717D01*
X549213D01*
Y88583D01*
X583268D01*
Y92520D01*
X586024D01*
Y88583D01*
D02*
G37*
G36*
X479724D02*
X513779D01*
Y17717D01*
X442913D01*
Y88583D01*
X476968D01*
Y92520D01*
X479724D01*
Y88583D01*
D02*
G37*
G36*
X961811Y54470D02*
X961811D01*
Y54528D01*
X972441D01*
Y51772D01*
X961811Y51829D01*
X961498Y51736D01*
X960855Y51850D01*
X960332Y52240D01*
X960039Y52823D01*
Y53150D01*
Y53476D01*
X960332Y54059D01*
X960855Y54449D01*
X961498Y54563D01*
X961811Y54470D01*
D02*
G37*
G36*
X855512D02*
X855512D01*
Y54528D01*
X866142D01*
Y51772D01*
X855512Y51829D01*
X855199Y51736D01*
X854556Y51850D01*
X854033Y52240D01*
X853740Y52823D01*
Y53150D01*
Y53476D01*
X854033Y54059D01*
X854556Y54449D01*
X855199Y54563D01*
X855512Y54470D01*
D02*
G37*
G36*
X749213D02*
X749213D01*
Y54528D01*
X759842D01*
Y51772D01*
X749213Y51829D01*
X748900Y51736D01*
X748257Y51850D01*
X747734Y52240D01*
X747441Y52823D01*
Y53150D01*
Y53476D01*
X747734Y54059D01*
X748257Y54449D01*
X748900Y54563D01*
X749213Y54470D01*
D02*
G37*
G36*
X1068110D02*
X1068110D01*
Y54528D01*
X1078740D01*
Y51772D01*
X1068110Y51829D01*
X1067797Y51736D01*
X1067155Y51850D01*
X1066631Y52240D01*
X1066339Y52823D01*
Y53150D01*
Y53476D01*
X1066631Y54059D01*
X1067155Y54449D01*
X1067797Y54563D01*
X1068110Y54470D01*
D02*
G37*
G36*
X1387008D02*
X1387008D01*
Y54528D01*
X1397638D01*
Y51772D01*
X1387008Y51829D01*
X1386695Y51736D01*
X1386052Y51850D01*
X1385529Y52240D01*
X1385236Y52823D01*
Y53150D01*
Y53476D01*
X1385529Y54059D01*
X1386052Y54449D01*
X1386695Y54563D01*
X1387008Y54470D01*
D02*
G37*
G36*
X1280709D02*
X1280709D01*
Y54528D01*
X1291339D01*
Y51772D01*
X1280709Y51829D01*
X1280396Y51736D01*
X1279753Y51850D01*
X1279230Y52240D01*
X1278937Y52823D01*
Y53150D01*
Y53476D01*
X1279230Y54059D01*
X1279753Y54449D01*
X1280396Y54563D01*
X1280709Y54470D01*
D02*
G37*
G36*
X1174409D02*
X1174409D01*
Y54528D01*
X1185039D01*
Y51772D01*
X1174409Y51829D01*
X1174097Y51736D01*
X1173454Y51850D01*
X1172931Y52240D01*
X1172638Y52823D01*
Y53150D01*
Y53476D01*
X1172931Y54059D01*
X1173454Y54449D01*
X1174097Y54563D01*
X1174409Y54470D01*
D02*
G37*
G36*
X642913D02*
X642913D01*
Y54528D01*
X653543D01*
Y51772D01*
X642913Y51829D01*
X642601Y51736D01*
X641958Y51850D01*
X641434Y52240D01*
X641142Y52823D01*
Y53150D01*
Y53476D01*
X641434Y54059D01*
X641958Y54449D01*
X642601Y54563D01*
X642913Y54470D01*
D02*
G37*
G36*
X111417D02*
X111417D01*
Y54528D01*
X122047D01*
Y51772D01*
X111417Y51829D01*
X111105Y51736D01*
X110462Y51850D01*
X109938Y52240D01*
X109646Y52823D01*
Y53150D01*
Y53476D01*
X109938Y54059D01*
X110462Y54449D01*
X111105Y54563D01*
X111417Y54470D01*
D02*
G37*
G36*
X5118D02*
X5118D01*
Y54528D01*
X15748D01*
Y51772D01*
X5118Y51829D01*
X4805Y51736D01*
X4163Y51850D01*
X3639Y52240D01*
X3347Y52823D01*
Y53150D01*
Y53476D01*
X3639Y54059D01*
X4163Y54449D01*
X4805Y54563D01*
X5118Y54470D01*
D02*
G37*
G36*
X1649016Y88583D02*
X1683071D01*
Y17717D01*
X1612205D01*
Y88583D01*
X1646260D01*
Y92520D01*
X1649016D01*
Y88583D01*
D02*
G37*
G36*
X217717Y54470D02*
X217717D01*
Y54528D01*
X228346D01*
Y51772D01*
X217717Y51829D01*
X217404Y51736D01*
X216761Y51850D01*
X216238Y52240D01*
X215945Y52823D01*
Y53150D01*
Y53476D01*
X216238Y54059D01*
X216761Y54449D01*
X217404Y54563D01*
X217717Y54470D01*
D02*
G37*
G36*
X536614D02*
X536614D01*
Y54528D01*
X547244D01*
Y51772D01*
X536614Y51829D01*
X536301Y51736D01*
X535659Y51850D01*
X535135Y52240D01*
X534842Y52823D01*
Y53150D01*
Y53476D01*
X535135Y54059D01*
X535659Y54449D01*
X536301Y54563D01*
X536614Y54470D01*
D02*
G37*
G36*
X430315D02*
X430315D01*
Y54528D01*
X440945D01*
Y51772D01*
X430315Y51829D01*
X430002Y51736D01*
X429359Y51850D01*
X428836Y52240D01*
X428543Y52823D01*
Y53150D01*
Y53476D01*
X428836Y54059D01*
X429359Y54449D01*
X430002Y54563D01*
X430315Y54470D01*
D02*
G37*
G36*
X324016D02*
X324016D01*
Y54528D01*
X334646D01*
Y51772D01*
X324016Y51829D01*
X323703Y51736D01*
X323060Y51850D01*
X322537Y52240D01*
X322244Y52823D01*
Y53150D01*
Y53476D01*
X322537Y54059D01*
X323060Y54449D01*
X323703Y54563D01*
X324016Y54470D01*
D02*
G37*
G36*
X479724Y301181D02*
X513779D01*
Y230315D01*
X442913D01*
Y301181D01*
X476968D01*
Y305118D01*
X479724D01*
Y301181D01*
D02*
G37*
G36*
X373425D02*
X407480D01*
Y230315D01*
X336614D01*
Y301181D01*
X370669D01*
Y305118D01*
X373425D01*
Y301181D01*
D02*
G37*
G36*
X267126D02*
X301181D01*
Y230315D01*
X230315D01*
Y301181D01*
X264370D01*
Y305118D01*
X267126D01*
Y301181D01*
D02*
G37*
G36*
X586024D02*
X620079D01*
Y230315D01*
X549213D01*
Y301181D01*
X583268D01*
Y305118D01*
X586024D01*
Y301181D01*
D02*
G37*
G36*
X904921D02*
X938976D01*
Y230315D01*
X868110D01*
Y301181D01*
X902165D01*
Y305118D01*
X904921D01*
Y301181D01*
D02*
G37*
G36*
X798622D02*
X832677D01*
Y230315D01*
X761811D01*
Y301181D01*
X795866D01*
Y305118D01*
X798622D01*
Y301181D01*
D02*
G37*
G36*
X692323D02*
X726378D01*
Y230315D01*
X655512D01*
Y301181D01*
X689567D01*
Y305118D01*
X692323D01*
Y301181D01*
D02*
G37*
G36*
X160827D02*
X194882D01*
Y230315D01*
X124016D01*
Y301181D01*
X158071D01*
Y305118D01*
X160827D01*
Y301181D01*
D02*
G37*
G36*
X1329521Y209436D02*
X1329908Y209048D01*
X1330118Y208542D01*
Y208268D01*
Y200394D01*
X1327362D01*
Y208268D01*
X1327362Y208542D01*
X1327572Y209048D01*
X1327960Y209436D01*
X1328466Y209646D01*
X1328740Y209646D01*
X1329014Y209646D01*
X1329521Y209436D01*
D02*
G37*
G36*
X1223221D02*
X1223609Y209048D01*
X1223819Y208542D01*
Y208268D01*
Y200394D01*
X1221063D01*
Y208268D01*
X1221063Y208542D01*
X1221273Y209048D01*
X1221660Y209436D01*
X1222167Y209646D01*
X1222441Y209646D01*
X1222715Y209646D01*
X1223221Y209436D01*
D02*
G37*
G36*
X1116922D02*
X1117310Y209048D01*
X1117520Y208542D01*
Y208268D01*
Y200394D01*
X1114764D01*
Y208268D01*
X1114764Y208542D01*
X1114974Y209048D01*
X1115361Y209436D01*
X1115868Y209646D01*
X1116142Y209646D01*
X1116416Y209646D01*
X1116922Y209436D01*
D02*
G37*
G36*
X1435820D02*
X1436207Y209048D01*
X1436417Y208542D01*
Y208268D01*
Y200394D01*
X1433661D01*
Y208268D01*
X1433661Y208542D01*
X1433871Y209048D01*
X1434259Y209436D01*
X1434765Y209646D01*
X1435039Y209646D01*
X1435314Y209646D01*
X1435820Y209436D01*
D02*
G37*
G36*
X54528Y301181D02*
X88583D01*
Y230315D01*
X17717D01*
Y301181D01*
X51772D01*
Y305118D01*
X54528D01*
Y301181D01*
D02*
G37*
G36*
X1648418Y209436D02*
X1648806Y209048D01*
X1649016Y208542D01*
Y208268D01*
Y200394D01*
X1646260D01*
Y208268D01*
X1646260Y208542D01*
X1646470Y209048D01*
X1646857Y209436D01*
X1647364Y209646D01*
X1647638Y209646D01*
X1647912Y209646D01*
X1648418Y209436D01*
D02*
G37*
G36*
X1542119D02*
X1542507Y209048D01*
X1542717Y208542D01*
Y208268D01*
Y200394D01*
X1539961D01*
Y208268D01*
X1539961Y208542D01*
X1540170Y209048D01*
X1540558Y209436D01*
X1541064Y209646D01*
X1541339Y209646D01*
X1541613Y209646D01*
X1542119Y209436D01*
D02*
G37*
G36*
X324016Y267069D02*
X324016D01*
Y267126D01*
X334646D01*
Y264370D01*
X324016Y264427D01*
X323703Y264334D01*
X323060Y264448D01*
X322537Y264838D01*
X322244Y265422D01*
Y265748D01*
Y266074D01*
X322537Y266658D01*
X323060Y267048D01*
X323703Y267162D01*
X324016Y267069D01*
D02*
G37*
G36*
X217717D02*
X217717D01*
Y267126D01*
X228346D01*
Y264370D01*
X217717Y264427D01*
X217404Y264334D01*
X216761Y264448D01*
X216238Y264838D01*
X215945Y265422D01*
Y265748D01*
Y266074D01*
X216238Y266658D01*
X216761Y267048D01*
X217404Y267162D01*
X217717Y267069D01*
D02*
G37*
G36*
X111417D02*
X111417D01*
Y267126D01*
X122047D01*
Y264370D01*
X111417Y264427D01*
X111105Y264334D01*
X110462Y264448D01*
X109938Y264838D01*
X109646Y265422D01*
Y265748D01*
Y266074D01*
X109938Y266658D01*
X110462Y267048D01*
X111105Y267162D01*
X111417Y267069D01*
D02*
G37*
G36*
X430315D02*
X430315D01*
Y267126D01*
X440945D01*
Y264370D01*
X430315Y264427D01*
X430002Y264334D01*
X429359Y264448D01*
X428836Y264838D01*
X428543Y265422D01*
Y265748D01*
Y266074D01*
X428836Y266658D01*
X429359Y267048D01*
X430002Y267162D01*
X430315Y267069D01*
D02*
G37*
G36*
X749213D02*
X749213D01*
Y267126D01*
X759842D01*
Y264370D01*
X749213Y264427D01*
X748900Y264334D01*
X748257Y264448D01*
X747734Y264838D01*
X747441Y265422D01*
Y265748D01*
Y266074D01*
X747734Y266658D01*
X748257Y267048D01*
X748900Y267162D01*
X749213Y267069D01*
D02*
G37*
G36*
X642913D02*
X642913D01*
Y267126D01*
X653543D01*
Y264370D01*
X642913Y264427D01*
X642601Y264334D01*
X641958Y264448D01*
X641434Y264838D01*
X641142Y265422D01*
Y265748D01*
Y266074D01*
X641434Y266658D01*
X641958Y267048D01*
X642601Y267162D01*
X642913Y267069D01*
D02*
G37*
G36*
X536614D02*
X536614D01*
Y267126D01*
X547244D01*
Y264370D01*
X536614Y264427D01*
X536301Y264334D01*
X535659Y264448D01*
X535135Y264838D01*
X534842Y265422D01*
Y265748D01*
Y266074D01*
X535135Y266658D01*
X535659Y267048D01*
X536301Y267162D01*
X536614Y267069D01*
D02*
G37*
G36*
X5118D02*
X5118D01*
Y267126D01*
X15748D01*
Y264370D01*
X5118Y264427D01*
X4805Y264334D01*
X4163Y264448D01*
X3639Y264838D01*
X3347Y265422D01*
Y265748D01*
Y266074D01*
X3639Y266658D01*
X4163Y267048D01*
X4805Y267162D01*
X5118Y267069D01*
D02*
G37*
G36*
X1223819Y301181D02*
X1257874D01*
Y230315D01*
X1187008D01*
Y301181D01*
X1221063D01*
Y305118D01*
X1223819D01*
Y301181D01*
D02*
G37*
G36*
X1117520D02*
X1151575D01*
Y230315D01*
X1080709D01*
Y301181D01*
X1114764D01*
Y305118D01*
X1117520D01*
Y301181D01*
D02*
G37*
G36*
X1011220D02*
X1045276D01*
Y230315D01*
X974409D01*
Y301181D01*
X1008465D01*
Y305118D01*
X1011220D01*
Y301181D01*
D02*
G37*
G36*
X1330118D02*
X1364173D01*
Y230315D01*
X1293307D01*
Y301181D01*
X1327362D01*
Y305118D01*
X1330118D01*
Y301181D01*
D02*
G37*
G36*
X1649016D02*
X1683071D01*
Y230315D01*
X1612205D01*
Y301181D01*
X1646260D01*
Y305118D01*
X1649016D01*
Y301181D01*
D02*
G37*
G36*
X1542717D02*
X1576772D01*
Y230315D01*
X1505906D01*
Y301181D01*
X1539961D01*
Y305118D01*
X1542717D01*
Y301181D01*
D02*
G37*
G36*
X1436417D02*
X1470472D01*
Y230315D01*
X1399606D01*
Y301181D01*
X1433661D01*
Y305118D01*
X1436417D01*
Y301181D01*
D02*
G37*
G36*
X642913Y160769D02*
X642913D01*
Y160827D01*
X653543D01*
Y158071D01*
X642913Y158128D01*
X642601Y158035D01*
X641958Y158149D01*
X641434Y158539D01*
X641142Y159122D01*
Y159449D01*
Y159775D01*
X641434Y160359D01*
X641958Y160749D01*
X642601Y160863D01*
X642913Y160769D01*
D02*
G37*
G36*
X536614D02*
X536614D01*
Y160827D01*
X547244D01*
Y158071D01*
X536614Y158128D01*
X536301Y158035D01*
X535659Y158149D01*
X535135Y158539D01*
X534842Y159122D01*
Y159449D01*
Y159775D01*
X535135Y160359D01*
X535659Y160749D01*
X536301Y160863D01*
X536614Y160769D01*
D02*
G37*
G36*
X430315D02*
X430315D01*
Y160827D01*
X440945D01*
Y158071D01*
X430315Y158128D01*
X430002Y158035D01*
X429359Y158149D01*
X428836Y158539D01*
X428543Y159122D01*
Y159449D01*
Y159775D01*
X428836Y160359D01*
X429359Y160749D01*
X430002Y160863D01*
X430315Y160769D01*
D02*
G37*
G36*
X749213D02*
X749213D01*
Y160827D01*
X759842D01*
Y158071D01*
X749213Y158128D01*
X748900Y158035D01*
X748257Y158149D01*
X747734Y158539D01*
X747441Y159122D01*
Y159449D01*
Y159775D01*
X747734Y160359D01*
X748257Y160749D01*
X748900Y160863D01*
X749213Y160769D01*
D02*
G37*
G36*
X1068110D02*
X1068110D01*
Y160827D01*
X1078740D01*
Y158071D01*
X1068110Y158128D01*
X1067797Y158035D01*
X1067155Y158149D01*
X1066631Y158539D01*
X1066339Y159122D01*
Y159449D01*
Y159775D01*
X1066631Y160359D01*
X1067155Y160749D01*
X1067797Y160863D01*
X1068110Y160769D01*
D02*
G37*
G36*
X961811D02*
X961811D01*
Y160827D01*
X972441D01*
Y158071D01*
X961811Y158128D01*
X961498Y158035D01*
X960855Y158149D01*
X960332Y158539D01*
X960039Y159122D01*
Y159449D01*
Y159775D01*
X960332Y160359D01*
X960855Y160749D01*
X961498Y160863D01*
X961811Y160769D01*
D02*
G37*
G36*
X855512D02*
X855512D01*
Y160827D01*
X866142D01*
Y158071D01*
X855512Y158128D01*
X855199Y158035D01*
X854556Y158149D01*
X854033Y158539D01*
X853740Y159122D01*
Y159449D01*
Y159775D01*
X854033Y160359D01*
X854556Y160749D01*
X855199Y160863D01*
X855512Y160769D01*
D02*
G37*
G36*
X324016D02*
X324016D01*
Y160827D01*
X334646D01*
Y158071D01*
X324016Y158128D01*
X323703Y158035D01*
X323060Y158149D01*
X322537Y158539D01*
X322244Y159122D01*
Y159449D01*
Y159775D01*
X322537Y160359D01*
X323060Y160749D01*
X323703Y160863D01*
X324016Y160769D01*
D02*
G37*
G36*
X1542717Y194882D02*
X1576772D01*
Y124016D01*
X1505906D01*
Y194882D01*
X1539961D01*
Y198819D01*
X1542717D01*
Y194882D01*
D02*
G37*
G36*
X1436417D02*
X1470472D01*
Y124016D01*
X1399606D01*
Y194882D01*
X1433661D01*
Y198819D01*
X1436417D01*
Y194882D01*
D02*
G37*
G36*
X1330118D02*
X1364173D01*
Y124016D01*
X1293307D01*
Y194882D01*
X1327362D01*
Y198819D01*
X1330118D01*
Y194882D01*
D02*
G37*
G36*
X1649016D02*
X1683071D01*
Y124016D01*
X1612205D01*
Y194882D01*
X1646260D01*
Y198819D01*
X1649016D01*
Y194882D01*
D02*
G37*
G36*
X217717Y160769D02*
X217717D01*
Y160827D01*
X228346D01*
Y158071D01*
X217717Y158128D01*
X217404Y158035D01*
X216761Y158149D01*
X216238Y158539D01*
X215945Y159122D01*
Y159449D01*
Y159775D01*
X216238Y160359D01*
X216761Y160749D01*
X217404Y160863D01*
X217717Y160769D01*
D02*
G37*
G36*
X111417D02*
X111417D01*
Y160827D01*
X122047D01*
Y158071D01*
X111417Y158128D01*
X111105Y158035D01*
X110462Y158149D01*
X109938Y158539D01*
X109646Y159122D01*
Y159449D01*
Y159775D01*
X109938Y160359D01*
X110462Y160749D01*
X111105Y160863D01*
X111417Y160769D01*
D02*
G37*
G36*
X5118D02*
X5118D01*
Y160827D01*
X15748D01*
Y158071D01*
X5118Y158128D01*
X4805Y158035D01*
X4163Y158149D01*
X3639Y158539D01*
X3347Y159122D01*
Y159449D01*
Y159775D01*
X3639Y160359D01*
X4163Y160749D01*
X4805Y160863D01*
X5118Y160769D01*
D02*
G37*
G36*
X585426Y209436D02*
X585814Y209048D01*
X586024Y208542D01*
Y208268D01*
Y200394D01*
X583268D01*
Y208268D01*
X583268Y208542D01*
X583477Y209048D01*
X583865Y209436D01*
X584372Y209646D01*
X584646Y209646D01*
X584920Y209646D01*
X585426Y209436D01*
D02*
G37*
G36*
X479127D02*
X479515Y209048D01*
X479724Y208542D01*
Y208268D01*
Y200394D01*
X476968D01*
Y208268D01*
X476968Y208542D01*
X477178Y209048D01*
X477566Y209436D01*
X478072Y209646D01*
X478346Y209646D01*
X478621Y209646D01*
X479127Y209436D01*
D02*
G37*
G36*
X372828D02*
X373215Y209048D01*
X373425Y208542D01*
Y208268D01*
Y200394D01*
X370669D01*
Y208268D01*
X370669Y208542D01*
X370879Y209048D01*
X371267Y209436D01*
X371773Y209646D01*
X372047Y209646D01*
X372321Y209646D01*
X372828Y209436D01*
D02*
G37*
G36*
X691725D02*
X692113Y209048D01*
X692323Y208542D01*
Y208268D01*
Y200394D01*
X689567D01*
Y208268D01*
X689567Y208542D01*
X689777Y209048D01*
X690164Y209436D01*
X690671Y209646D01*
X690945Y209646D01*
X691219Y209646D01*
X691725Y209436D01*
D02*
G37*
G36*
X1010623D02*
X1011011Y209048D01*
X1011220Y208542D01*
Y208268D01*
Y200394D01*
X1008465D01*
Y208268D01*
X1008465Y208542D01*
X1008674Y209048D01*
X1009062Y209436D01*
X1009568Y209646D01*
X1009842Y209646D01*
X1010117Y209646D01*
X1010623Y209436D01*
D02*
G37*
G36*
X904324D02*
X904712Y209048D01*
X904921Y208542D01*
Y208268D01*
Y200394D01*
X902165D01*
Y208268D01*
X902165Y208542D01*
X902375Y209048D01*
X902763Y209436D01*
X903269Y209646D01*
X903543Y209646D01*
X903817Y209646D01*
X904324Y209436D01*
D02*
G37*
G36*
X798025D02*
X798412Y209048D01*
X798622Y208542D01*
Y208268D01*
Y200394D01*
X795866D01*
Y208268D01*
X795866Y208542D01*
X796076Y209048D01*
X796464Y209436D01*
X796970Y209646D01*
X797244Y209646D01*
X797518Y209646D01*
X798025Y209436D01*
D02*
G37*
G36*
X266529D02*
X266916Y209048D01*
X267126Y208542D01*
Y208268D01*
Y200394D01*
X264370D01*
Y208268D01*
X264370Y208542D01*
X264580Y209048D01*
X264967Y209436D01*
X265474Y209646D01*
X265748Y209646D01*
X266022Y209646D01*
X266529Y209436D01*
D02*
G37*
G36*
X1387008Y160769D02*
X1387008D01*
Y160827D01*
X1397638D01*
Y158071D01*
X1387008Y158128D01*
X1386695Y158035D01*
X1386052Y158149D01*
X1385529Y158539D01*
X1385236Y159122D01*
Y159449D01*
Y159775D01*
X1385529Y160359D01*
X1386052Y160749D01*
X1386695Y160863D01*
X1387008Y160769D01*
D02*
G37*
G36*
X1280709D02*
X1280709D01*
Y160827D01*
X1291339D01*
Y158071D01*
X1280709Y158128D01*
X1280396Y158035D01*
X1279753Y158149D01*
X1279230Y158539D01*
X1278937Y159122D01*
Y159449D01*
Y159775D01*
X1279230Y160359D01*
X1279753Y160749D01*
X1280396Y160863D01*
X1280709Y160769D01*
D02*
G37*
G36*
X1174409D02*
X1174409D01*
Y160827D01*
X1185039D01*
Y158071D01*
X1174409Y158128D01*
X1174097Y158035D01*
X1173454Y158149D01*
X1172931Y158539D01*
X1172638Y159122D01*
Y159449D01*
Y159775D01*
X1172931Y160359D01*
X1173454Y160749D01*
X1174097Y160863D01*
X1174409Y160769D01*
D02*
G37*
G36*
X1493307D02*
X1493307D01*
Y160827D01*
X1503937D01*
Y158071D01*
X1493307Y158128D01*
X1492994Y158035D01*
X1492352Y158149D01*
X1491828Y158539D01*
X1491535Y159122D01*
Y159449D01*
Y159775D01*
X1491828Y160359D01*
X1492352Y160749D01*
X1492994Y160863D01*
X1493307Y160769D01*
D02*
G37*
G36*
X160229Y209436D02*
X160617Y209048D01*
X160827Y208542D01*
Y208268D01*
Y200394D01*
X158071D01*
Y208268D01*
X158071Y208542D01*
X158281Y209048D01*
X158668Y209436D01*
X159175Y209646D01*
X159449Y209646D01*
X159723Y209646D01*
X160229Y209436D01*
D02*
G37*
G36*
X53930D02*
X54318Y209048D01*
X54528Y208542D01*
Y208268D01*
Y200394D01*
X51772D01*
Y208268D01*
X51772Y208542D01*
X51981Y209048D01*
X52369Y209436D01*
X52876Y209646D01*
X53150Y209646D01*
X53424Y209646D01*
X53930Y209436D01*
D02*
G37*
G36*
X1599606Y160769D02*
X1599606D01*
Y160827D01*
X1610236D01*
Y158071D01*
X1599606Y158128D01*
X1599294Y158035D01*
X1598651Y158149D01*
X1598127Y158539D01*
X1597835Y159122D01*
Y159449D01*
Y159775D01*
X1598127Y160359D01*
X1598651Y160749D01*
X1599294Y160863D01*
X1599606Y160769D01*
D02*
G37*
G36*
X5118Y904864D02*
X5118D01*
Y904921D01*
X15748D01*
Y902165D01*
X5118Y902223D01*
X4805Y902129D01*
X4163Y902243D01*
X3639Y902633D01*
X3347Y903217D01*
Y903543D01*
Y903870D01*
X3639Y904453D01*
X4163Y904843D01*
X4805Y904957D01*
X5118Y904864D01*
D02*
G37*
G36*
X1649016Y938976D02*
X1683071D01*
Y868110D01*
X1612205D01*
Y938976D01*
X1646260D01*
Y942913D01*
X1649016D01*
Y938976D01*
D02*
G37*
G36*
X1542717D02*
X1576772D01*
Y868110D01*
X1505906D01*
Y938976D01*
X1539961D01*
Y942913D01*
X1542717D01*
Y938976D01*
D02*
G37*
G36*
X111417Y904864D02*
X111417D01*
Y904921D01*
X122047D01*
Y902165D01*
X111417Y902223D01*
X111105Y902129D01*
X110462Y902243D01*
X109938Y902633D01*
X109646Y903217D01*
Y903543D01*
Y903870D01*
X109938Y904453D01*
X110462Y904843D01*
X111105Y904957D01*
X111417Y904864D01*
D02*
G37*
G36*
X430315D02*
X430315D01*
Y904921D01*
X440945D01*
Y902165D01*
X430315Y902223D01*
X430002Y902129D01*
X429359Y902243D01*
X428836Y902633D01*
X428543Y903217D01*
Y903543D01*
Y903870D01*
X428836Y904453D01*
X429359Y904843D01*
X430002Y904957D01*
X430315Y904864D01*
D02*
G37*
G36*
X324016D02*
X324016D01*
Y904921D01*
X334646D01*
Y902165D01*
X324016Y902223D01*
X323703Y902129D01*
X323060Y902243D01*
X322537Y902633D01*
X322244Y903217D01*
Y903543D01*
Y903870D01*
X322537Y904453D01*
X323060Y904843D01*
X323703Y904957D01*
X324016Y904864D01*
D02*
G37*
G36*
X217717D02*
X217717D01*
Y904921D01*
X228346D01*
Y902165D01*
X217717Y902223D01*
X217404Y902129D01*
X216761Y902243D01*
X216238Y902633D01*
X215945Y903217D01*
Y903543D01*
Y903870D01*
X216238Y904453D01*
X216761Y904843D01*
X217404Y904957D01*
X217717Y904864D01*
D02*
G37*
G36*
X1436417Y938976D02*
X1470472D01*
Y868110D01*
X1399606D01*
Y938976D01*
X1433661D01*
Y942913D01*
X1436417D01*
Y938976D01*
D02*
G37*
G36*
X904921D02*
X938976D01*
Y868110D01*
X868110D01*
Y938976D01*
X902165D01*
Y942913D01*
X904921D01*
Y938976D01*
D02*
G37*
G36*
X798622D02*
X832677D01*
Y868110D01*
X761811D01*
Y938976D01*
X795866D01*
Y942913D01*
X798622D01*
Y938976D01*
D02*
G37*
G36*
X692323D02*
X726378D01*
Y868110D01*
X655512D01*
Y938976D01*
X689567D01*
Y942913D01*
X692323D01*
Y938976D01*
D02*
G37*
G36*
X1011220D02*
X1045276D01*
Y868110D01*
X974409D01*
Y938976D01*
X1008465D01*
Y942913D01*
X1011220D01*
Y938976D01*
D02*
G37*
G36*
X1330118D02*
X1364173D01*
Y868110D01*
X1293307D01*
Y938976D01*
X1327362D01*
Y942913D01*
X1330118D01*
Y938976D01*
D02*
G37*
G36*
X1223819D02*
X1257874D01*
Y868110D01*
X1187008D01*
Y938976D01*
X1221063D01*
Y942913D01*
X1223819D01*
Y938976D01*
D02*
G37*
G36*
X1117520D02*
X1151575D01*
Y868110D01*
X1080709D01*
Y938976D01*
X1114764D01*
Y942913D01*
X1117520D01*
Y938976D01*
D02*
G37*
G36*
X1599606Y904864D02*
X1599606D01*
Y904921D01*
X1610236D01*
Y902165D01*
X1599606Y902223D01*
X1599294Y902129D01*
X1598651Y902243D01*
X1598127Y902633D01*
X1597835Y903217D01*
Y903543D01*
Y903870D01*
X1598127Y904453D01*
X1598651Y904843D01*
X1599294Y904957D01*
X1599606Y904864D01*
D02*
G37*
G36*
X1493307D02*
X1493307D01*
Y904921D01*
X1503937D01*
Y902165D01*
X1493307Y902223D01*
X1492994Y902129D01*
X1492352Y902243D01*
X1491828Y902633D01*
X1491535Y903217D01*
Y903543D01*
Y903870D01*
X1491828Y904453D01*
X1492352Y904843D01*
X1492994Y904957D01*
X1493307Y904864D01*
D02*
G37*
G36*
X1387008D02*
X1387008D01*
Y904921D01*
X1397638D01*
Y902165D01*
X1387008Y902223D01*
X1386695Y902129D01*
X1386052Y902243D01*
X1385529Y902633D01*
X1385236Y903217D01*
Y903543D01*
Y903870D01*
X1385529Y904453D01*
X1386052Y904843D01*
X1386695Y904957D01*
X1387008Y904864D01*
D02*
G37*
G36*
X53930Y953530D02*
X54318Y953143D01*
X54528Y952636D01*
Y952362D01*
Y944488D01*
X51772D01*
Y952362D01*
X51772Y952636D01*
X51981Y953143D01*
X52369Y953530D01*
X52876Y953740D01*
X53150Y953740D01*
X53424Y953740D01*
X53930Y953530D01*
D02*
G37*
G36*
X372828D02*
X373215Y953143D01*
X373425Y952636D01*
Y952362D01*
Y944488D01*
X370669D01*
Y952362D01*
X370669Y952636D01*
X370879Y953143D01*
X371267Y953530D01*
X371773Y953740D01*
X372047Y953740D01*
X372321Y953740D01*
X372828Y953530D01*
D02*
G37*
G36*
X266529D02*
X266916Y953143D01*
X267126Y952636D01*
Y952362D01*
Y944488D01*
X264370D01*
Y952362D01*
X264370Y952636D01*
X264580Y953143D01*
X264967Y953530D01*
X265474Y953740D01*
X265748Y953740D01*
X266022Y953740D01*
X266529Y953530D01*
D02*
G37*
G36*
X160229D02*
X160617Y953143D01*
X160827Y952636D01*
Y952362D01*
Y944488D01*
X158071D01*
Y952362D01*
X158071Y952636D01*
X158281Y953143D01*
X158668Y953530D01*
X159175Y953740D01*
X159449Y953740D01*
X159723Y953740D01*
X160229Y953530D01*
D02*
G37*
G36*
X1280709Y904864D02*
X1280709D01*
Y904921D01*
X1291339D01*
Y902165D01*
X1280709Y902223D01*
X1280396Y902129D01*
X1279753Y902243D01*
X1279230Y902633D01*
X1278937Y903217D01*
Y903543D01*
Y903870D01*
X1279230Y904453D01*
X1279753Y904843D01*
X1280396Y904957D01*
X1280709Y904864D01*
D02*
G37*
G36*
X749213D02*
X749213D01*
Y904921D01*
X759842D01*
Y902165D01*
X749213Y902223D01*
X748900Y902129D01*
X748257Y902243D01*
X747734Y902633D01*
X747441Y903217D01*
Y903543D01*
Y903870D01*
X747734Y904453D01*
X748257Y904843D01*
X748900Y904957D01*
X749213Y904864D01*
D02*
G37*
G36*
X642913D02*
X642913D01*
Y904921D01*
X653543D01*
Y902165D01*
X642913Y902223D01*
X642601Y902129D01*
X641958Y902243D01*
X641434Y902633D01*
X641142Y903217D01*
Y903543D01*
Y903870D01*
X641434Y904453D01*
X641958Y904843D01*
X642601Y904957D01*
X642913Y904864D01*
D02*
G37*
G36*
X536614D02*
X536614D01*
Y904921D01*
X547244D01*
Y902165D01*
X536614Y902223D01*
X536301Y902129D01*
X535659Y902243D01*
X535135Y902633D01*
X534842Y903217D01*
Y903543D01*
Y903870D01*
X535135Y904453D01*
X535659Y904843D01*
X536301Y904957D01*
X536614Y904864D01*
D02*
G37*
G36*
X855512D02*
X855512D01*
Y904921D01*
X866142D01*
Y902165D01*
X855512Y902223D01*
X855199Y902129D01*
X854556Y902243D01*
X854033Y902633D01*
X853740Y903217D01*
Y903543D01*
Y903870D01*
X854033Y904453D01*
X854556Y904843D01*
X855199Y904957D01*
X855512Y904864D01*
D02*
G37*
G36*
X1174409D02*
X1174409D01*
Y904921D01*
X1185039D01*
Y902165D01*
X1174409Y902223D01*
X1174097Y902129D01*
X1173454Y902243D01*
X1172931Y902633D01*
X1172638Y903217D01*
Y903543D01*
Y903870D01*
X1172931Y904453D01*
X1173454Y904843D01*
X1174097Y904957D01*
X1174409Y904864D01*
D02*
G37*
G36*
X1068110D02*
X1068110D01*
Y904921D01*
X1078740D01*
Y902165D01*
X1068110Y902223D01*
X1067797Y902129D01*
X1067155Y902243D01*
X1066631Y902633D01*
X1066339Y903217D01*
Y903543D01*
Y903870D01*
X1066631Y904453D01*
X1067155Y904843D01*
X1067797Y904957D01*
X1068110Y904864D01*
D02*
G37*
G36*
X961811D02*
X961811D01*
Y904921D01*
X972441D01*
Y902165D01*
X961811Y902223D01*
X961498Y902129D01*
X960855Y902243D01*
X960332Y902633D01*
X960039Y903217D01*
Y903543D01*
Y903870D01*
X960332Y904453D01*
X960855Y904843D01*
X961498Y904957D01*
X961811Y904864D01*
D02*
G37*
G36*
X266529Y847231D02*
X266916Y846844D01*
X267126Y846337D01*
Y846063D01*
Y838189D01*
X264370D01*
Y846063D01*
X264370Y846337D01*
X264580Y846844D01*
X264967Y847231D01*
X265474Y847441D01*
X265748Y847441D01*
X266022Y847441D01*
X266529Y847231D01*
D02*
G37*
G36*
X160229D02*
X160617Y846844D01*
X160827Y846337D01*
Y846063D01*
Y838189D01*
X158071D01*
Y846063D01*
X158071Y846337D01*
X158281Y846844D01*
X158668Y847231D01*
X159175Y847441D01*
X159449Y847441D01*
X159723Y847441D01*
X160229Y847231D01*
D02*
G37*
G36*
X53930D02*
X54318Y846844D01*
X54528Y846337D01*
Y846063D01*
Y838189D01*
X51772D01*
Y846063D01*
X51772Y846337D01*
X51981Y846844D01*
X52369Y847231D01*
X52876Y847441D01*
X53150Y847441D01*
X53424Y847441D01*
X53930Y847231D01*
D02*
G37*
G36*
X372828D02*
X373215Y846844D01*
X373425Y846337D01*
Y846063D01*
Y838189D01*
X370669D01*
Y846063D01*
X370669Y846337D01*
X370879Y846844D01*
X371267Y847231D01*
X371773Y847441D01*
X372047Y847441D01*
X372321Y847441D01*
X372828Y847231D01*
D02*
G37*
G36*
X691725D02*
X692113Y846844D01*
X692323Y846337D01*
Y846063D01*
Y838189D01*
X689567D01*
Y846063D01*
X689567Y846337D01*
X689777Y846844D01*
X690164Y847231D01*
X690671Y847441D01*
X690945Y847441D01*
X691219Y847441D01*
X691725Y847231D01*
D02*
G37*
G36*
X585426D02*
X585814Y846844D01*
X586024Y846337D01*
Y846063D01*
Y838189D01*
X583268D01*
Y846063D01*
X583268Y846337D01*
X583477Y846844D01*
X583865Y847231D01*
X584372Y847441D01*
X584646Y847441D01*
X584920Y847441D01*
X585426Y847231D01*
D02*
G37*
G36*
X479127D02*
X479515Y846844D01*
X479724Y846337D01*
Y846063D01*
Y838189D01*
X476968D01*
Y846063D01*
X476968Y846337D01*
X477178Y846844D01*
X477566Y847231D01*
X478072Y847441D01*
X478346Y847441D01*
X478621Y847441D01*
X479127Y847231D01*
D02*
G37*
G36*
X1599606Y798565D02*
X1599606D01*
Y798622D01*
X1610236D01*
Y795866D01*
X1599606Y795924D01*
X1599294Y795830D01*
X1598651Y795944D01*
X1598127Y796334D01*
X1597835Y796918D01*
Y797244D01*
Y797571D01*
X1598127Y798154D01*
X1598651Y798544D01*
X1599294Y798658D01*
X1599606Y798565D01*
D02*
G37*
G36*
X1068110D02*
X1068110D01*
Y798622D01*
X1078740D01*
Y795866D01*
X1068110Y795924D01*
X1067797Y795830D01*
X1067155Y795944D01*
X1066631Y796334D01*
X1066339Y796918D01*
Y797244D01*
Y797571D01*
X1066631Y798154D01*
X1067155Y798544D01*
X1067797Y798658D01*
X1068110Y798565D01*
D02*
G37*
G36*
X961811D02*
X961811D01*
Y798622D01*
X972441D01*
Y795866D01*
X961811Y795924D01*
X961498Y795830D01*
X960855Y795944D01*
X960332Y796334D01*
X960039Y796918D01*
Y797244D01*
Y797571D01*
X960332Y798154D01*
X960855Y798544D01*
X961498Y798658D01*
X961811Y798565D01*
D02*
G37*
G36*
X855512D02*
X855512D01*
Y798622D01*
X866142D01*
Y795866D01*
X855512Y795924D01*
X855199Y795830D01*
X854556Y795944D01*
X854033Y796334D01*
X853740Y796918D01*
Y797244D01*
Y797571D01*
X854033Y798154D01*
X854556Y798544D01*
X855199Y798658D01*
X855512Y798565D01*
D02*
G37*
G36*
X1174409D02*
X1174409D01*
Y798622D01*
X1185039D01*
Y795866D01*
X1174409Y795924D01*
X1174097Y795830D01*
X1173454Y795944D01*
X1172931Y796334D01*
X1172638Y796918D01*
Y797244D01*
Y797571D01*
X1172931Y798154D01*
X1173454Y798544D01*
X1174097Y798658D01*
X1174409Y798565D01*
D02*
G37*
G36*
X1493307D02*
X1493307D01*
Y798622D01*
X1503937D01*
Y795866D01*
X1493307Y795924D01*
X1492994Y795830D01*
X1492352Y795944D01*
X1491828Y796334D01*
X1491535Y796918D01*
Y797244D01*
Y797571D01*
X1491828Y798154D01*
X1492352Y798544D01*
X1492994Y798658D01*
X1493307Y798565D01*
D02*
G37*
G36*
X1387008D02*
X1387008D01*
Y798622D01*
X1397638D01*
Y795866D01*
X1387008Y795924D01*
X1386695Y795830D01*
X1386052Y795944D01*
X1385529Y796334D01*
X1385236Y796918D01*
Y797244D01*
Y797571D01*
X1385529Y798154D01*
X1386052Y798544D01*
X1386695Y798658D01*
X1387008Y798565D01*
D02*
G37*
G36*
X1280709D02*
X1280709D01*
Y798622D01*
X1291339D01*
Y795866D01*
X1280709Y795924D01*
X1280396Y795830D01*
X1279753Y795944D01*
X1279230Y796334D01*
X1278937Y796918D01*
Y797244D01*
Y797571D01*
X1279230Y798154D01*
X1279753Y798544D01*
X1280396Y798658D01*
X1280709Y798565D01*
D02*
G37*
G36*
X160827Y938976D02*
X194882D01*
Y868110D01*
X124016D01*
Y938976D01*
X158071D01*
Y942913D01*
X160827D01*
Y938976D01*
D02*
G37*
G36*
X54528D02*
X88583D01*
Y868110D01*
X17717D01*
Y938976D01*
X51772D01*
Y942913D01*
X54528D01*
Y938976D01*
D02*
G37*
G36*
X1648418Y847231D02*
X1648806Y846844D01*
X1649016Y846337D01*
Y846063D01*
Y838189D01*
X1646260D01*
Y846063D01*
X1646260Y846337D01*
X1646470Y846844D01*
X1646857Y847231D01*
X1647364Y847441D01*
X1647638Y847441D01*
X1647912Y847441D01*
X1648418Y847231D01*
D02*
G37*
G36*
X267126Y938976D02*
X301181D01*
Y868110D01*
X230315D01*
Y938976D01*
X264370D01*
Y942913D01*
X267126D01*
Y938976D01*
D02*
G37*
G36*
X586024D02*
X620079D01*
Y868110D01*
X549213D01*
Y938976D01*
X583268D01*
Y942913D01*
X586024D01*
Y938976D01*
D02*
G37*
G36*
X479724D02*
X513779D01*
Y868110D01*
X442913D01*
Y938976D01*
X476968D01*
Y942913D01*
X479724D01*
Y938976D01*
D02*
G37*
G36*
X373425D02*
X407480D01*
Y868110D01*
X336614D01*
Y938976D01*
X370669D01*
Y942913D01*
X373425D01*
Y938976D01*
D02*
G37*
G36*
X1542119Y847231D02*
X1542507Y846844D01*
X1542717Y846337D01*
Y846063D01*
Y838189D01*
X1539961D01*
Y846063D01*
X1539961Y846337D01*
X1540170Y846844D01*
X1540558Y847231D01*
X1541064Y847441D01*
X1541339Y847441D01*
X1541613Y847441D01*
X1542119Y847231D01*
D02*
G37*
G36*
X1010623D02*
X1011011Y846844D01*
X1011220Y846337D01*
Y846063D01*
Y838189D01*
X1008465D01*
Y846063D01*
X1008465Y846337D01*
X1008674Y846844D01*
X1009062Y847231D01*
X1009568Y847441D01*
X1009842Y847441D01*
X1010117Y847441D01*
X1010623Y847231D01*
D02*
G37*
G36*
X904324D02*
X904712Y846844D01*
X904921Y846337D01*
Y846063D01*
Y838189D01*
X902165D01*
Y846063D01*
X902165Y846337D01*
X902375Y846844D01*
X902763Y847231D01*
X903269Y847441D01*
X903543Y847441D01*
X903817Y847441D01*
X904324Y847231D01*
D02*
G37*
G36*
X798025D02*
X798412Y846844D01*
X798622Y846337D01*
Y846063D01*
Y838189D01*
X795866D01*
Y846063D01*
X795866Y846337D01*
X796076Y846844D01*
X796464Y847231D01*
X796970Y847441D01*
X797244Y847441D01*
X797518Y847441D01*
X798025Y847231D01*
D02*
G37*
G36*
X1116922D02*
X1117310Y846844D01*
X1117520Y846337D01*
Y846063D01*
Y838189D01*
X1114764D01*
Y846063D01*
X1114764Y846337D01*
X1114974Y846844D01*
X1115361Y847231D01*
X1115868Y847441D01*
X1116142Y847441D01*
X1116416Y847441D01*
X1116922Y847231D01*
D02*
G37*
G36*
X1435820D02*
X1436207Y846844D01*
X1436417Y846337D01*
Y846063D01*
Y838189D01*
X1433661D01*
Y846063D01*
X1433661Y846337D01*
X1433871Y846844D01*
X1434259Y847231D01*
X1434765Y847441D01*
X1435039Y847441D01*
X1435314Y847441D01*
X1435820Y847231D01*
D02*
G37*
G36*
X1329521D02*
X1329908Y846844D01*
X1330118Y846337D01*
Y846063D01*
Y838189D01*
X1327362D01*
Y846063D01*
X1327362Y846337D01*
X1327572Y846844D01*
X1327960Y847231D01*
X1328466Y847441D01*
X1328740Y847441D01*
X1329014Y847441D01*
X1329521Y847231D01*
D02*
G37*
G36*
X1223221D02*
X1223609Y846844D01*
X1223819Y846337D01*
Y846063D01*
Y838189D01*
X1221063D01*
Y846063D01*
X1221063Y846337D01*
X1221273Y846844D01*
X1221660Y847231D01*
X1222167Y847441D01*
X1222441Y847441D01*
X1222715Y847441D01*
X1223221Y847231D01*
D02*
G37*
G36*
X1280709Y1011163D02*
X1280709D01*
Y1011220D01*
X1291339D01*
Y1008465D01*
X1280709Y1008522D01*
X1280396Y1008429D01*
X1279753Y1008543D01*
X1279230Y1008933D01*
X1278937Y1009516D01*
Y1009842D01*
Y1010169D01*
X1279230Y1010752D01*
X1279753Y1011142D01*
X1280396Y1011256D01*
X1280709Y1011163D01*
D02*
G37*
G36*
X1174409D02*
X1174409D01*
Y1011220D01*
X1185039D01*
Y1008465D01*
X1174409Y1008522D01*
X1174097Y1008429D01*
X1173454Y1008543D01*
X1172931Y1008933D01*
X1172638Y1009516D01*
Y1009842D01*
Y1010169D01*
X1172931Y1010752D01*
X1173454Y1011142D01*
X1174097Y1011256D01*
X1174409Y1011163D01*
D02*
G37*
G36*
X1068110D02*
X1068110D01*
Y1011220D01*
X1078740D01*
Y1008465D01*
X1068110Y1008522D01*
X1067797Y1008429D01*
X1067155Y1008543D01*
X1066631Y1008933D01*
X1066339Y1009516D01*
Y1009842D01*
Y1010169D01*
X1066631Y1010752D01*
X1067155Y1011142D01*
X1067797Y1011256D01*
X1068110Y1011163D01*
D02*
G37*
G36*
X1387008D02*
X1387008D01*
Y1011220D01*
X1397638D01*
Y1008465D01*
X1387008Y1008522D01*
X1386695Y1008429D01*
X1386052Y1008543D01*
X1385529Y1008933D01*
X1385236Y1009516D01*
Y1009842D01*
Y1010169D01*
X1385529Y1010752D01*
X1386052Y1011142D01*
X1386695Y1011256D01*
X1387008Y1011163D01*
D02*
G37*
G36*
X53930Y1059830D02*
X54318Y1059442D01*
X54528Y1058936D01*
Y1058661D01*
Y1050787D01*
X51772D01*
Y1058661D01*
X51772Y1058936D01*
X51981Y1059442D01*
X52369Y1059830D01*
X52876Y1060039D01*
X53150Y1060039D01*
X53424Y1060039D01*
X53930Y1059830D01*
D02*
G37*
G36*
X1599606Y1011163D02*
X1599606D01*
Y1011220D01*
X1610236D01*
Y1008465D01*
X1599606Y1008522D01*
X1599294Y1008429D01*
X1598651Y1008543D01*
X1598127Y1008933D01*
X1597835Y1009516D01*
Y1009842D01*
Y1010169D01*
X1598127Y1010752D01*
X1598651Y1011142D01*
X1599294Y1011256D01*
X1599606Y1011163D01*
D02*
G37*
G36*
X1493307D02*
X1493307D01*
Y1011220D01*
X1503937D01*
Y1008465D01*
X1493307Y1008522D01*
X1492994Y1008429D01*
X1492352Y1008543D01*
X1491828Y1008933D01*
X1491535Y1009516D01*
Y1009842D01*
Y1010169D01*
X1491828Y1010752D01*
X1492352Y1011142D01*
X1492994Y1011256D01*
X1493307Y1011163D01*
D02*
G37*
G36*
X961811D02*
X961811D01*
Y1011220D01*
X972441D01*
Y1008465D01*
X961811Y1008522D01*
X961498Y1008429D01*
X960855Y1008543D01*
X960332Y1008933D01*
X960039Y1009516D01*
Y1009842D01*
Y1010169D01*
X960332Y1010752D01*
X960855Y1011142D01*
X961498Y1011256D01*
X961811Y1011163D01*
D02*
G37*
G36*
X430315D02*
X430315D01*
Y1011220D01*
X440945D01*
Y1008465D01*
X430315Y1008522D01*
X430002Y1008429D01*
X429359Y1008543D01*
X428836Y1008933D01*
X428543Y1009516D01*
Y1009842D01*
Y1010169D01*
X428836Y1010752D01*
X429359Y1011142D01*
X430002Y1011256D01*
X430315Y1011163D01*
D02*
G37*
G36*
X324016D02*
X324016D01*
Y1011220D01*
X334646D01*
Y1008465D01*
X324016Y1008522D01*
X323703Y1008429D01*
X323060Y1008543D01*
X322537Y1008933D01*
X322244Y1009516D01*
Y1009842D01*
Y1010169D01*
X322537Y1010752D01*
X323060Y1011142D01*
X323703Y1011256D01*
X324016Y1011163D01*
D02*
G37*
G36*
X217717D02*
X217717D01*
Y1011220D01*
X228346D01*
Y1008465D01*
X217717Y1008522D01*
X217404Y1008429D01*
X216761Y1008543D01*
X216238Y1008933D01*
X215945Y1009516D01*
Y1009842D01*
Y1010169D01*
X216238Y1010752D01*
X216761Y1011142D01*
X217404Y1011256D01*
X217717Y1011163D01*
D02*
G37*
G36*
X536614D02*
X536614D01*
Y1011220D01*
X547244D01*
Y1008465D01*
X536614Y1008522D01*
X536301Y1008429D01*
X535659Y1008543D01*
X535135Y1008933D01*
X534842Y1009516D01*
Y1009842D01*
Y1010169D01*
X535135Y1010752D01*
X535659Y1011142D01*
X536301Y1011256D01*
X536614Y1011163D01*
D02*
G37*
G36*
X855512D02*
X855512D01*
Y1011220D01*
X866142D01*
Y1008465D01*
X855512Y1008522D01*
X855199Y1008429D01*
X854556Y1008543D01*
X854033Y1008933D01*
X853740Y1009516D01*
Y1009842D01*
Y1010169D01*
X854033Y1010752D01*
X854556Y1011142D01*
X855199Y1011256D01*
X855512Y1011163D01*
D02*
G37*
G36*
X749213D02*
X749213D01*
Y1011220D01*
X759842D01*
Y1008465D01*
X749213Y1008522D01*
X748900Y1008429D01*
X748257Y1008543D01*
X747734Y1008933D01*
X747441Y1009516D01*
Y1009842D01*
Y1010169D01*
X747734Y1010752D01*
X748257Y1011142D01*
X748900Y1011256D01*
X749213Y1011163D01*
D02*
G37*
G36*
X642913D02*
X642913D01*
Y1011220D01*
X653543D01*
Y1008465D01*
X642913Y1008522D01*
X642601Y1008429D01*
X641958Y1008543D01*
X641434Y1008933D01*
X641142Y1009516D01*
Y1009842D01*
Y1010169D01*
X641434Y1010752D01*
X641958Y1011142D01*
X642601Y1011256D01*
X642913Y1011163D01*
D02*
G37*
G36*
X1223221Y1059830D02*
X1223609Y1059442D01*
X1223819Y1058936D01*
Y1058661D01*
Y1050787D01*
X1221063D01*
Y1058661D01*
X1221063Y1058936D01*
X1221273Y1059442D01*
X1221660Y1059830D01*
X1222167Y1060039D01*
X1222441Y1060039D01*
X1222715Y1060039D01*
X1223221Y1059830D01*
D02*
G37*
G36*
X1116922D02*
X1117310Y1059442D01*
X1117520Y1058936D01*
Y1058661D01*
Y1050787D01*
X1114764D01*
Y1058661D01*
X1114764Y1058936D01*
X1114974Y1059442D01*
X1115361Y1059830D01*
X1115868Y1060039D01*
X1116142Y1060039D01*
X1116416Y1060039D01*
X1116922Y1059830D01*
D02*
G37*
G36*
X1010623D02*
X1011011Y1059442D01*
X1011220Y1058936D01*
Y1058661D01*
Y1050787D01*
X1008465D01*
Y1058661D01*
X1008465Y1058936D01*
X1008674Y1059442D01*
X1009062Y1059830D01*
X1009568Y1060039D01*
X1009842Y1060039D01*
X1010117Y1060039D01*
X1010623Y1059830D01*
D02*
G37*
G36*
X1329521D02*
X1329908Y1059442D01*
X1330118Y1058936D01*
Y1058661D01*
Y1050787D01*
X1327362D01*
Y1058661D01*
X1327362Y1058936D01*
X1327572Y1059442D01*
X1327960Y1059830D01*
X1328466Y1060039D01*
X1328740Y1060039D01*
X1329014Y1060039D01*
X1329521Y1059830D01*
D02*
G37*
G36*
X1648418D02*
X1648806Y1059442D01*
X1649016Y1058936D01*
Y1058661D01*
Y1050787D01*
X1646260D01*
Y1058661D01*
X1646260Y1058936D01*
X1646470Y1059442D01*
X1646857Y1059830D01*
X1647364Y1060039D01*
X1647638Y1060039D01*
X1647912Y1060039D01*
X1648418Y1059830D01*
D02*
G37*
G36*
X1542119D02*
X1542507Y1059442D01*
X1542717Y1058936D01*
Y1058661D01*
Y1050787D01*
X1539961D01*
Y1058661D01*
X1539961Y1058936D01*
X1540170Y1059442D01*
X1540558Y1059830D01*
X1541064Y1060039D01*
X1541339Y1060039D01*
X1541613Y1060039D01*
X1542119Y1059830D01*
D02*
G37*
G36*
X1435820D02*
X1436207Y1059442D01*
X1436417Y1058936D01*
Y1058661D01*
Y1050787D01*
X1433661D01*
Y1058661D01*
X1433661Y1058936D01*
X1433871Y1059442D01*
X1434259Y1059830D01*
X1434765Y1060039D01*
X1435039Y1060039D01*
X1435314Y1060039D01*
X1435820Y1059830D01*
D02*
G37*
G36*
X904324D02*
X904712Y1059442D01*
X904921Y1058936D01*
Y1058661D01*
Y1050787D01*
X902165D01*
Y1058661D01*
X902165Y1058936D01*
X902375Y1059442D01*
X902763Y1059830D01*
X903269Y1060039D01*
X903543Y1060039D01*
X903817Y1060039D01*
X904324Y1059830D01*
D02*
G37*
G36*
X372828D02*
X373215Y1059442D01*
X373425Y1058936D01*
Y1058661D01*
Y1050787D01*
X370669D01*
Y1058661D01*
X370669Y1058936D01*
X370879Y1059442D01*
X371267Y1059830D01*
X371773Y1060039D01*
X372047Y1060039D01*
X372321Y1060039D01*
X372828Y1059830D01*
D02*
G37*
G36*
X266529D02*
X266916Y1059442D01*
X267126Y1058936D01*
Y1058661D01*
Y1050787D01*
X264370D01*
Y1058661D01*
X264370Y1058936D01*
X264580Y1059442D01*
X264967Y1059830D01*
X265474Y1060039D01*
X265748Y1060039D01*
X266022Y1060039D01*
X266529Y1059830D01*
D02*
G37*
G36*
X160229D02*
X160617Y1059442D01*
X160827Y1058936D01*
Y1058661D01*
Y1050787D01*
X158071D01*
Y1058661D01*
X158071Y1058936D01*
X158281Y1059442D01*
X158668Y1059830D01*
X159175Y1060039D01*
X159449Y1060039D01*
X159723Y1060039D01*
X160229Y1059830D01*
D02*
G37*
G36*
X479127D02*
X479515Y1059442D01*
X479724Y1058936D01*
Y1058661D01*
Y1050787D01*
X476968D01*
Y1058661D01*
X476968Y1058936D01*
X477178Y1059442D01*
X477566Y1059830D01*
X478072Y1060039D01*
X478346Y1060039D01*
X478621Y1060039D01*
X479127Y1059830D01*
D02*
G37*
G36*
X798025D02*
X798412Y1059442D01*
X798622Y1058936D01*
Y1058661D01*
Y1050787D01*
X795866D01*
Y1058661D01*
X795866Y1058936D01*
X796076Y1059442D01*
X796464Y1059830D01*
X796970Y1060039D01*
X797244Y1060039D01*
X797518Y1060039D01*
X798025Y1059830D01*
D02*
G37*
G36*
X691725D02*
X692113Y1059442D01*
X692323Y1058936D01*
Y1058661D01*
Y1050787D01*
X689567D01*
Y1058661D01*
X689567Y1058936D01*
X689777Y1059442D01*
X690164Y1059830D01*
X690671Y1060039D01*
X690945Y1060039D01*
X691219Y1060039D01*
X691725Y1059830D01*
D02*
G37*
G36*
X585426D02*
X585814Y1059442D01*
X586024Y1058936D01*
Y1058661D01*
Y1050787D01*
X583268D01*
Y1058661D01*
X583268Y1058936D01*
X583477Y1059442D01*
X583865Y1059830D01*
X584372Y1060039D01*
X584646Y1060039D01*
X584920Y1060039D01*
X585426Y1059830D01*
D02*
G37*
G36*
X1542119Y953530D02*
X1542507Y953143D01*
X1542717Y952636D01*
Y952362D01*
Y944488D01*
X1539961D01*
Y952362D01*
X1539961Y952636D01*
X1540170Y953143D01*
X1540558Y953530D01*
X1541064Y953740D01*
X1541339Y953740D01*
X1541613Y953740D01*
X1542119Y953530D01*
D02*
G37*
G36*
X1435820D02*
X1436207Y953143D01*
X1436417Y952636D01*
Y952362D01*
Y944488D01*
X1433661D01*
Y952362D01*
X1433661Y952636D01*
X1433871Y953143D01*
X1434259Y953530D01*
X1434765Y953740D01*
X1435039Y953740D01*
X1435314Y953740D01*
X1435820Y953530D01*
D02*
G37*
G36*
X1329521D02*
X1329908Y953143D01*
X1330118Y952636D01*
Y952362D01*
Y944488D01*
X1327362D01*
Y952362D01*
X1327362Y952636D01*
X1327572Y953143D01*
X1327960Y953530D01*
X1328466Y953740D01*
X1328740Y953740D01*
X1329014Y953740D01*
X1329521Y953530D01*
D02*
G37*
G36*
X1648418D02*
X1648806Y953143D01*
X1649016Y952636D01*
Y952362D01*
Y944488D01*
X1646260D01*
Y952362D01*
X1646260Y952636D01*
X1646470Y953143D01*
X1646857Y953530D01*
X1647364Y953740D01*
X1647638Y953740D01*
X1647912Y953740D01*
X1648418Y953530D01*
D02*
G37*
G36*
X267126Y1045276D02*
X301181D01*
Y974409D01*
X230315D01*
Y1045276D01*
X264370D01*
Y1049213D01*
X267126D01*
Y1045276D01*
D02*
G37*
G36*
X160827D02*
X194882D01*
Y974409D01*
X124016D01*
Y1045276D01*
X158071D01*
Y1049213D01*
X160827D01*
Y1045276D01*
D02*
G37*
G36*
X54528D02*
X88583D01*
Y974409D01*
X17717D01*
Y1045276D01*
X51772D01*
Y1049213D01*
X54528D01*
Y1045276D01*
D02*
G37*
G36*
X1223221Y953530D02*
X1223609Y953143D01*
X1223819Y952636D01*
Y952362D01*
Y944488D01*
X1221063D01*
Y952362D01*
X1221063Y952636D01*
X1221273Y953143D01*
X1221660Y953530D01*
X1222167Y953740D01*
X1222441Y953740D01*
X1222715Y953740D01*
X1223221Y953530D01*
D02*
G37*
G36*
X691725D02*
X692113Y953143D01*
X692323Y952636D01*
Y952362D01*
Y944488D01*
X689567D01*
Y952362D01*
X689567Y952636D01*
X689777Y953143D01*
X690164Y953530D01*
X690671Y953740D01*
X690945Y953740D01*
X691219Y953740D01*
X691725Y953530D01*
D02*
G37*
G36*
X585426D02*
X585814Y953143D01*
X586024Y952636D01*
Y952362D01*
Y944488D01*
X583268D01*
Y952362D01*
X583268Y952636D01*
X583477Y953143D01*
X583865Y953530D01*
X584372Y953740D01*
X584646Y953740D01*
X584920Y953740D01*
X585426Y953530D01*
D02*
G37*
G36*
X479127D02*
X479515Y953143D01*
X479724Y952636D01*
Y952362D01*
Y944488D01*
X476968D01*
Y952362D01*
X476968Y952636D01*
X477178Y953143D01*
X477566Y953530D01*
X478072Y953740D01*
X478346Y953740D01*
X478621Y953740D01*
X479127Y953530D01*
D02*
G37*
G36*
X798025D02*
X798412Y953143D01*
X798622Y952636D01*
Y952362D01*
Y944488D01*
X795866D01*
Y952362D01*
X795866Y952636D01*
X796076Y953143D01*
X796464Y953530D01*
X796970Y953740D01*
X797244Y953740D01*
X797518Y953740D01*
X798025Y953530D01*
D02*
G37*
G36*
X1116922D02*
X1117310Y953143D01*
X1117520Y952636D01*
Y952362D01*
Y944488D01*
X1114764D01*
Y952362D01*
X1114764Y952636D01*
X1114974Y953143D01*
X1115361Y953530D01*
X1115868Y953740D01*
X1116142Y953740D01*
X1116416Y953740D01*
X1116922Y953530D01*
D02*
G37*
G36*
X1010623D02*
X1011011Y953143D01*
X1011220Y952636D01*
Y952362D01*
Y944488D01*
X1008465D01*
Y952362D01*
X1008465Y952636D01*
X1008674Y953143D01*
X1009062Y953530D01*
X1009568Y953740D01*
X1009842Y953740D01*
X1010117Y953740D01*
X1010623Y953530D01*
D02*
G37*
G36*
X904324D02*
X904712Y953143D01*
X904921Y952636D01*
Y952362D01*
Y944488D01*
X902165D01*
Y952362D01*
X902165Y952636D01*
X902375Y953143D01*
X902763Y953530D01*
X903269Y953740D01*
X903543Y953740D01*
X903817Y953740D01*
X904324Y953530D01*
D02*
G37*
G36*
X1436417Y1045276D02*
X1470472D01*
Y974409D01*
X1399606D01*
Y1045276D01*
X1433661D01*
Y1049213D01*
X1436417D01*
Y1045276D01*
D02*
G37*
G36*
X1330118D02*
X1364173D01*
Y974409D01*
X1293307D01*
Y1045276D01*
X1327362D01*
Y1049213D01*
X1330118D01*
Y1045276D01*
D02*
G37*
G36*
X1223819D02*
X1257874D01*
Y974409D01*
X1187008D01*
Y1045276D01*
X1221063D01*
Y1049213D01*
X1223819D01*
Y1045276D01*
D02*
G37*
G36*
X1542717D02*
X1576772D01*
Y974409D01*
X1505906D01*
Y1045276D01*
X1539961D01*
Y1049213D01*
X1542717D01*
Y1045276D01*
D02*
G37*
G36*
X111417Y1011163D02*
X111417D01*
Y1011220D01*
X122047D01*
Y1008465D01*
X111417Y1008522D01*
X111105Y1008429D01*
X110462Y1008543D01*
X109938Y1008933D01*
X109646Y1009516D01*
Y1009842D01*
Y1010169D01*
X109938Y1010752D01*
X110462Y1011142D01*
X111105Y1011256D01*
X111417Y1011163D01*
D02*
G37*
G36*
X5118D02*
X5118D01*
Y1011220D01*
X15748D01*
Y1008465D01*
X5118Y1008522D01*
X4805Y1008429D01*
X4163Y1008543D01*
X3639Y1008933D01*
X3347Y1009516D01*
Y1009842D01*
Y1010169D01*
X3639Y1010752D01*
X4163Y1011142D01*
X4805Y1011256D01*
X5118Y1011163D01*
D02*
G37*
G36*
X1649016Y1045276D02*
X1683071D01*
Y974409D01*
X1612205D01*
Y1045276D01*
X1646260D01*
Y1049213D01*
X1649016D01*
Y1045276D01*
D02*
G37*
G36*
X1117520D02*
X1151575D01*
Y974409D01*
X1080709D01*
Y1045276D01*
X1114764D01*
Y1049213D01*
X1117520D01*
Y1045276D01*
D02*
G37*
G36*
X586024D02*
X620079D01*
Y974409D01*
X549213D01*
Y1045276D01*
X583268D01*
Y1049213D01*
X586024D01*
Y1045276D01*
D02*
G37*
G36*
X479724D02*
X513779D01*
Y974409D01*
X442913D01*
Y1045276D01*
X476968D01*
Y1049213D01*
X479724D01*
Y1045276D01*
D02*
G37*
G36*
X373425D02*
X407480D01*
Y974409D01*
X336614D01*
Y1045276D01*
X370669D01*
Y1049213D01*
X373425D01*
Y1045276D01*
D02*
G37*
G36*
X692323D02*
X726378D01*
Y974409D01*
X655512D01*
Y1045276D01*
X689567D01*
Y1049213D01*
X692323D01*
Y1045276D01*
D02*
G37*
G36*
X1011220D02*
X1045276D01*
Y974409D01*
X974409D01*
Y1045276D01*
X1008465D01*
Y1049213D01*
X1011220D01*
Y1045276D01*
D02*
G37*
G36*
X904921D02*
X938976D01*
Y974409D01*
X868110D01*
Y1045276D01*
X902165D01*
Y1049213D01*
X904921D01*
Y1045276D01*
D02*
G37*
G36*
X798622D02*
X832677D01*
Y974409D01*
X761811D01*
Y1045276D01*
X795866D01*
Y1049213D01*
X798622D01*
Y1045276D01*
D02*
G37*
G36*
X904324Y634633D02*
X904712Y634245D01*
X904921Y633739D01*
Y633465D01*
Y625591D01*
X902165D01*
Y633465D01*
X902165Y633739D01*
X902375Y634245D01*
X902763Y634633D01*
X903269Y634842D01*
X903543Y634842D01*
X903817Y634842D01*
X904324Y634633D01*
D02*
G37*
G36*
X798025D02*
X798412Y634245D01*
X798622Y633739D01*
Y633465D01*
Y625591D01*
X795866D01*
Y633465D01*
X795866Y633739D01*
X796076Y634245D01*
X796464Y634633D01*
X796970Y634842D01*
X797244Y634842D01*
X797518Y634842D01*
X798025Y634633D01*
D02*
G37*
G36*
X691725D02*
X692113Y634245D01*
X692323Y633739D01*
Y633465D01*
Y625591D01*
X689567D01*
Y633465D01*
X689567Y633739D01*
X689777Y634245D01*
X690164Y634633D01*
X690671Y634842D01*
X690945Y634842D01*
X691219Y634842D01*
X691725Y634633D01*
D02*
G37*
G36*
X1010623D02*
X1011011Y634245D01*
X1011220Y633739D01*
Y633465D01*
Y625591D01*
X1008465D01*
Y633465D01*
X1008465Y633739D01*
X1008674Y634245D01*
X1009062Y634633D01*
X1009568Y634842D01*
X1009842Y634842D01*
X1010117Y634842D01*
X1010623Y634633D01*
D02*
G37*
G36*
X1329521D02*
X1329908Y634245D01*
X1330118Y633739D01*
Y633465D01*
Y625591D01*
X1327362D01*
Y633465D01*
X1327362Y633739D01*
X1327572Y634245D01*
X1327960Y634633D01*
X1328466Y634842D01*
X1328740Y634842D01*
X1329014Y634842D01*
X1329521Y634633D01*
D02*
G37*
G36*
X1223221D02*
X1223609Y634245D01*
X1223819Y633739D01*
Y633465D01*
Y625591D01*
X1221063D01*
Y633465D01*
X1221063Y633739D01*
X1221273Y634245D01*
X1221660Y634633D01*
X1222167Y634842D01*
X1222441Y634842D01*
X1222715Y634842D01*
X1223221Y634633D01*
D02*
G37*
G36*
X1116922D02*
X1117310Y634245D01*
X1117520Y633739D01*
Y633465D01*
Y625591D01*
X1114764D01*
Y633465D01*
X1114764Y633739D01*
X1114974Y634245D01*
X1115361Y634633D01*
X1115868Y634842D01*
X1116142Y634842D01*
X1116416Y634842D01*
X1116922Y634633D01*
D02*
G37*
G36*
X585426D02*
X585814Y634245D01*
X586024Y633739D01*
Y633465D01*
Y625591D01*
X583268D01*
Y633465D01*
X583268Y633739D01*
X583477Y634245D01*
X583865Y634633D01*
X584372Y634842D01*
X584646Y634842D01*
X584920Y634842D01*
X585426Y634633D01*
D02*
G37*
G36*
X53930D02*
X54318Y634245D01*
X54528Y633739D01*
Y633465D01*
Y625591D01*
X51772D01*
Y633465D01*
X51772Y633739D01*
X51981Y634245D01*
X52369Y634633D01*
X52876Y634842D01*
X53150Y634842D01*
X53424Y634842D01*
X53930Y634633D01*
D02*
G37*
G36*
X1599606Y585966D02*
X1599606D01*
Y586024D01*
X1610236D01*
Y583268D01*
X1599606Y583325D01*
X1599294Y583232D01*
X1598651Y583346D01*
X1598127Y583736D01*
X1597835Y584319D01*
Y584646D01*
Y584972D01*
X1598127Y585555D01*
X1598651Y585946D01*
X1599294Y586059D01*
X1599606Y585966D01*
D02*
G37*
G36*
X1493307D02*
X1493307D01*
Y586024D01*
X1503937D01*
Y583268D01*
X1493307Y583325D01*
X1492994Y583232D01*
X1492352Y583346D01*
X1491828Y583736D01*
X1491535Y584319D01*
Y584646D01*
Y584972D01*
X1491828Y585555D01*
X1492352Y585946D01*
X1492994Y586059D01*
X1493307Y585966D01*
D02*
G37*
G36*
X160229Y634633D02*
X160617Y634245D01*
X160827Y633739D01*
Y633465D01*
Y625591D01*
X158071D01*
Y633465D01*
X158071Y633739D01*
X158281Y634245D01*
X158668Y634633D01*
X159175Y634842D01*
X159449Y634842D01*
X159723Y634842D01*
X160229Y634633D01*
D02*
G37*
G36*
X479127D02*
X479515Y634245D01*
X479724Y633739D01*
Y633465D01*
Y625591D01*
X476968D01*
Y633465D01*
X476968Y633739D01*
X477178Y634245D01*
X477566Y634633D01*
X478072Y634842D01*
X478346Y634842D01*
X478621Y634842D01*
X479127Y634633D01*
D02*
G37*
G36*
X372828D02*
X373215Y634245D01*
X373425Y633739D01*
Y633465D01*
Y625591D01*
X370669D01*
Y633465D01*
X370669Y633739D01*
X370879Y634245D01*
X371267Y634633D01*
X371773Y634842D01*
X372047Y634842D01*
X372321Y634842D01*
X372828Y634633D01*
D02*
G37*
G36*
X266529D02*
X266916Y634245D01*
X267126Y633739D01*
Y633465D01*
Y625591D01*
X264370D01*
Y633465D01*
X264370Y633739D01*
X264580Y634245D01*
X264967Y634633D01*
X265474Y634842D01*
X265748Y634842D01*
X266022Y634842D01*
X266529Y634633D01*
D02*
G37*
G36*
X798622Y726378D02*
X832677D01*
Y655512D01*
X761811D01*
Y726378D01*
X795866D01*
Y730315D01*
X798622D01*
Y726378D01*
D02*
G37*
G36*
X692323D02*
X726378D01*
Y655512D01*
X655512D01*
Y726378D01*
X689567D01*
Y730315D01*
X692323D01*
Y726378D01*
D02*
G37*
G36*
X586024D02*
X620079D01*
Y655512D01*
X549213D01*
Y726378D01*
X583268D01*
Y730315D01*
X586024D01*
Y726378D01*
D02*
G37*
G36*
X904921D02*
X938976D01*
Y655512D01*
X868110D01*
Y726378D01*
X902165D01*
Y730315D01*
X904921D01*
Y726378D01*
D02*
G37*
G36*
X1223819D02*
X1257874D01*
Y655512D01*
X1187008D01*
Y726378D01*
X1221063D01*
Y730315D01*
X1223819D01*
Y726378D01*
D02*
G37*
G36*
X1117520D02*
X1151575D01*
Y655512D01*
X1080709D01*
Y726378D01*
X1114764D01*
Y730315D01*
X1117520D01*
Y726378D01*
D02*
G37*
G36*
X1011220D02*
X1045276D01*
Y655512D01*
X974409D01*
Y726378D01*
X1008465D01*
Y730315D01*
X1011220D01*
Y726378D01*
D02*
G37*
G36*
X479724D02*
X513779D01*
Y655512D01*
X442913D01*
Y726378D01*
X476968D01*
Y730315D01*
X479724D01*
Y726378D01*
D02*
G37*
G36*
X1648418Y634633D02*
X1648806Y634245D01*
X1649016Y633739D01*
Y633465D01*
Y625591D01*
X1646260D01*
Y633465D01*
X1646260Y633739D01*
X1646470Y634245D01*
X1646857Y634633D01*
X1647364Y634842D01*
X1647638Y634842D01*
X1647912Y634842D01*
X1648418Y634633D01*
D02*
G37*
G36*
X1542119D02*
X1542507Y634245D01*
X1542717Y633739D01*
Y633465D01*
Y625591D01*
X1539961D01*
Y633465D01*
X1539961Y633739D01*
X1540170Y634245D01*
X1540558Y634633D01*
X1541064Y634842D01*
X1541339Y634842D01*
X1541613Y634842D01*
X1542119Y634633D01*
D02*
G37*
G36*
X1435820D02*
X1436207Y634245D01*
X1436417Y633739D01*
Y633465D01*
Y625591D01*
X1433661D01*
Y633465D01*
X1433661Y633739D01*
X1433871Y634245D01*
X1434259Y634633D01*
X1434765Y634842D01*
X1435039Y634842D01*
X1435314Y634842D01*
X1435820Y634633D01*
D02*
G37*
G36*
X54528Y726378D02*
X88583D01*
Y655512D01*
X17717D01*
Y726378D01*
X51772D01*
Y730315D01*
X54528D01*
Y726378D01*
D02*
G37*
G36*
X373425D02*
X407480D01*
Y655512D01*
X336614D01*
Y726378D01*
X370669D01*
Y730315D01*
X373425D01*
Y726378D01*
D02*
G37*
G36*
X267126D02*
X301181D01*
Y655512D01*
X230315D01*
Y726378D01*
X264370D01*
Y730315D01*
X267126D01*
Y726378D01*
D02*
G37*
G36*
X160827D02*
X194882D01*
Y655512D01*
X124016D01*
Y726378D01*
X158071D01*
Y730315D01*
X160827D01*
Y726378D01*
D02*
G37*
G36*
X1117520Y620079D02*
X1151575D01*
Y549213D01*
X1080709D01*
Y620079D01*
X1114764D01*
Y624016D01*
X1117520D01*
Y620079D01*
D02*
G37*
G36*
X1011220D02*
X1045276D01*
Y549213D01*
X974409D01*
Y620079D01*
X1008465D01*
Y624016D01*
X1011220D01*
Y620079D01*
D02*
G37*
G36*
X904921D02*
X938976D01*
Y549213D01*
X868110D01*
Y620079D01*
X902165D01*
Y624016D01*
X904921D01*
Y620079D01*
D02*
G37*
G36*
X1223819D02*
X1257874D01*
Y549213D01*
X1187008D01*
Y620079D01*
X1221063D01*
Y624016D01*
X1223819D01*
Y620079D01*
D02*
G37*
G36*
X1542717D02*
X1576772D01*
Y549213D01*
X1505906D01*
Y620079D01*
X1539961D01*
Y624016D01*
X1542717D01*
Y620079D01*
D02*
G37*
G36*
X1436417D02*
X1470472D01*
Y549213D01*
X1399606D01*
Y620079D01*
X1433661D01*
Y624016D01*
X1436417D01*
Y620079D01*
D02*
G37*
G36*
X1330118D02*
X1364173D01*
Y549213D01*
X1293307D01*
Y620079D01*
X1327362D01*
Y624016D01*
X1330118D01*
Y620079D01*
D02*
G37*
G36*
X798622D02*
X832677D01*
Y549213D01*
X761811D01*
Y620079D01*
X795866D01*
Y624016D01*
X798622D01*
Y620079D01*
D02*
G37*
G36*
X267126D02*
X301181D01*
Y549213D01*
X230315D01*
Y620079D01*
X264370D01*
Y624016D01*
X267126D01*
Y620079D01*
D02*
G37*
G36*
X160827D02*
X194882D01*
Y549213D01*
X124016D01*
Y620079D01*
X158071D01*
Y624016D01*
X160827D01*
Y620079D01*
D02*
G37*
G36*
X54528D02*
X88583D01*
Y549213D01*
X17717D01*
Y620079D01*
X51772D01*
Y624016D01*
X54528D01*
Y620079D01*
D02*
G37*
G36*
X373425D02*
X407480D01*
Y549213D01*
X336614D01*
Y620079D01*
X370669D01*
Y624016D01*
X373425D01*
Y620079D01*
D02*
G37*
G36*
X692323D02*
X726378D01*
Y549213D01*
X655512D01*
Y620079D01*
X689567D01*
Y624016D01*
X692323D01*
Y620079D01*
D02*
G37*
G36*
X586024D02*
X620079D01*
Y549213D01*
X549213D01*
Y620079D01*
X583268D01*
Y624016D01*
X586024D01*
Y620079D01*
D02*
G37*
G36*
X479724D02*
X513779D01*
Y549213D01*
X442913D01*
Y620079D01*
X476968D01*
Y624016D01*
X479724D01*
Y620079D01*
D02*
G37*
G36*
X961811Y585966D02*
X961811D01*
Y586024D01*
X972441D01*
Y583268D01*
X961811Y583325D01*
X961498Y583232D01*
X960855Y583346D01*
X960332Y583736D01*
X960039Y584319D01*
Y584646D01*
Y584972D01*
X960332Y585555D01*
X960855Y585946D01*
X961498Y586059D01*
X961811Y585966D01*
D02*
G37*
G36*
X855512D02*
X855512D01*
Y586024D01*
X866142D01*
Y583268D01*
X855512Y583325D01*
X855199Y583232D01*
X854556Y583346D01*
X854033Y583736D01*
X853740Y584319D01*
Y584646D01*
Y584972D01*
X854033Y585555D01*
X854556Y585946D01*
X855199Y586059D01*
X855512Y585966D01*
D02*
G37*
G36*
X749213D02*
X749213D01*
Y586024D01*
X759842D01*
Y583268D01*
X749213Y583325D01*
X748900Y583232D01*
X748257Y583346D01*
X747734Y583736D01*
X747441Y584319D01*
Y584646D01*
Y584972D01*
X747734Y585555D01*
X748257Y585946D01*
X748900Y586059D01*
X749213Y585966D01*
D02*
G37*
G36*
X1068110D02*
X1068110D01*
Y586024D01*
X1078740D01*
Y583268D01*
X1068110Y583325D01*
X1067797Y583232D01*
X1067155Y583346D01*
X1066631Y583736D01*
X1066339Y584319D01*
Y584646D01*
Y584972D01*
X1066631Y585555D01*
X1067155Y585946D01*
X1067797Y586059D01*
X1068110Y585966D01*
D02*
G37*
G36*
X1387008D02*
X1387008D01*
Y586024D01*
X1397638D01*
Y583268D01*
X1387008Y583325D01*
X1386695Y583232D01*
X1386052Y583346D01*
X1385529Y583736D01*
X1385236Y584319D01*
Y584646D01*
Y584972D01*
X1385529Y585555D01*
X1386052Y585946D01*
X1386695Y586059D01*
X1387008Y585966D01*
D02*
G37*
G36*
X1280709D02*
X1280709D01*
Y586024D01*
X1291339D01*
Y583268D01*
X1280709Y583325D01*
X1280396Y583232D01*
X1279753Y583346D01*
X1279230Y583736D01*
X1278937Y584319D01*
Y584646D01*
Y584972D01*
X1279230Y585555D01*
X1279753Y585946D01*
X1280396Y586059D01*
X1280709Y585966D01*
D02*
G37*
G36*
X1174409D02*
X1174409D01*
Y586024D01*
X1185039D01*
Y583268D01*
X1174409Y583325D01*
X1174097Y583232D01*
X1173454Y583346D01*
X1172931Y583736D01*
X1172638Y584319D01*
Y584646D01*
Y584972D01*
X1172931Y585555D01*
X1173454Y585946D01*
X1174097Y586059D01*
X1174409Y585966D01*
D02*
G37*
G36*
X642913D02*
X642913D01*
Y586024D01*
X653543D01*
Y583268D01*
X642913Y583325D01*
X642601Y583232D01*
X641958Y583346D01*
X641434Y583736D01*
X641142Y584319D01*
Y584646D01*
Y584972D01*
X641434Y585555D01*
X641958Y585946D01*
X642601Y586059D01*
X642913Y585966D01*
D02*
G37*
G36*
X111417D02*
X111417D01*
Y586024D01*
X122047D01*
Y583268D01*
X111417Y583325D01*
X111105Y583232D01*
X110462Y583346D01*
X109938Y583736D01*
X109646Y584319D01*
Y584646D01*
Y584972D01*
X109938Y585555D01*
X110462Y585946D01*
X111105Y586059D01*
X111417Y585966D01*
D02*
G37*
G36*
X5118D02*
X5118D01*
Y586024D01*
X15748D01*
Y583268D01*
X5118Y583325D01*
X4805Y583232D01*
X4163Y583346D01*
X3639Y583736D01*
X3347Y584319D01*
Y584646D01*
Y584972D01*
X3639Y585555D01*
X4163Y585946D01*
X4805Y586059D01*
X5118Y585966D01*
D02*
G37*
G36*
X1649016Y620079D02*
X1683071D01*
Y549213D01*
X1612205D01*
Y620079D01*
X1646260D01*
Y624016D01*
X1649016D01*
Y620079D01*
D02*
G37*
G36*
X217717Y585966D02*
X217717D01*
Y586024D01*
X228346D01*
Y583268D01*
X217717Y583325D01*
X217404Y583232D01*
X216761Y583346D01*
X216238Y583736D01*
X215945Y584319D01*
Y584646D01*
Y584972D01*
X216238Y585555D01*
X216761Y585946D01*
X217404Y586059D01*
X217717Y585966D01*
D02*
G37*
G36*
X536614D02*
X536614D01*
Y586024D01*
X547244D01*
Y583268D01*
X536614Y583325D01*
X536301Y583232D01*
X535659Y583346D01*
X535135Y583736D01*
X534842Y584319D01*
Y584646D01*
Y584972D01*
X535135Y585555D01*
X535659Y585946D01*
X536301Y586059D01*
X536614Y585966D01*
D02*
G37*
G36*
X430315D02*
X430315D01*
Y586024D01*
X440945D01*
Y583268D01*
X430315Y583325D01*
X430002Y583232D01*
X429359Y583346D01*
X428836Y583736D01*
X428543Y584319D01*
Y584646D01*
Y584972D01*
X428836Y585555D01*
X429359Y585946D01*
X430002Y586059D01*
X430315Y585966D01*
D02*
G37*
G36*
X324016D02*
X324016D01*
Y586024D01*
X334646D01*
Y583268D01*
X324016Y583325D01*
X323703Y583232D01*
X323060Y583346D01*
X322537Y583736D01*
X322244Y584319D01*
Y584646D01*
Y584972D01*
X322537Y585555D01*
X323060Y585946D01*
X323703Y586059D01*
X324016Y585966D01*
D02*
G37*
G36*
X479724Y832677D02*
X513779D01*
Y761811D01*
X442913D01*
Y832677D01*
X476968D01*
Y836614D01*
X479724D01*
Y832677D01*
D02*
G37*
G36*
X373425D02*
X407480D01*
Y761811D01*
X336614D01*
Y832677D01*
X370669D01*
Y836614D01*
X373425D01*
Y832677D01*
D02*
G37*
G36*
X267126D02*
X301181D01*
Y761811D01*
X230315D01*
Y832677D01*
X264370D01*
Y836614D01*
X267126D01*
Y832677D01*
D02*
G37*
G36*
X586024D02*
X620079D01*
Y761811D01*
X549213D01*
Y832677D01*
X583268D01*
Y836614D01*
X586024D01*
Y832677D01*
D02*
G37*
G36*
X904921D02*
X938976D01*
Y761811D01*
X868110D01*
Y832677D01*
X902165D01*
Y836614D01*
X904921D01*
Y832677D01*
D02*
G37*
G36*
X798622D02*
X832677D01*
Y761811D01*
X761811D01*
Y832677D01*
X795866D01*
Y836614D01*
X798622D01*
Y832677D01*
D02*
G37*
G36*
X692323D02*
X726378D01*
Y761811D01*
X655512D01*
Y832677D01*
X689567D01*
Y836614D01*
X692323D01*
Y832677D01*
D02*
G37*
G36*
X160827D02*
X194882D01*
Y761811D01*
X124016D01*
Y832677D01*
X158071D01*
Y836614D01*
X160827D01*
Y832677D01*
D02*
G37*
G36*
X1329521Y740932D02*
X1329908Y740544D01*
X1330118Y740038D01*
Y739764D01*
Y731890D01*
X1327362D01*
Y739764D01*
X1327362Y740038D01*
X1327572Y740544D01*
X1327960Y740932D01*
X1328466Y741142D01*
X1328740Y741142D01*
X1329014Y741142D01*
X1329521Y740932D01*
D02*
G37*
G36*
X1223221D02*
X1223609Y740544D01*
X1223819Y740038D01*
Y739764D01*
Y731890D01*
X1221063D01*
Y739764D01*
X1221063Y740038D01*
X1221273Y740544D01*
X1221660Y740932D01*
X1222167Y741142D01*
X1222441Y741142D01*
X1222715Y741142D01*
X1223221Y740932D01*
D02*
G37*
G36*
X1116922D02*
X1117310Y740544D01*
X1117520Y740038D01*
Y739764D01*
Y731890D01*
X1114764D01*
Y739764D01*
X1114764Y740038D01*
X1114974Y740544D01*
X1115361Y740932D01*
X1115868Y741142D01*
X1116142Y741142D01*
X1116416Y741142D01*
X1116922Y740932D01*
D02*
G37*
G36*
X1435820D02*
X1436207Y740544D01*
X1436417Y740038D01*
Y739764D01*
Y731890D01*
X1433661D01*
Y739764D01*
X1433661Y740038D01*
X1433871Y740544D01*
X1434259Y740932D01*
X1434765Y741142D01*
X1435039Y741142D01*
X1435314Y741142D01*
X1435820Y740932D01*
D02*
G37*
G36*
X54528Y832677D02*
X88583D01*
Y761811D01*
X17717D01*
Y832677D01*
X51772D01*
Y836614D01*
X54528D01*
Y832677D01*
D02*
G37*
G36*
X1648418Y740932D02*
X1648806Y740544D01*
X1649016Y740038D01*
Y739764D01*
Y731890D01*
X1646260D01*
Y739764D01*
X1646260Y740038D01*
X1646470Y740544D01*
X1646857Y740932D01*
X1647364Y741142D01*
X1647638Y741142D01*
X1647912Y741142D01*
X1648418Y740932D01*
D02*
G37*
G36*
X1542119D02*
X1542507Y740544D01*
X1542717Y740038D01*
Y739764D01*
Y731890D01*
X1539961D01*
Y739764D01*
X1539961Y740038D01*
X1540170Y740544D01*
X1540558Y740932D01*
X1541064Y741142D01*
X1541339Y741142D01*
X1541613Y741142D01*
X1542119Y740932D01*
D02*
G37*
G36*
X324016Y798565D02*
X324016D01*
Y798622D01*
X334646D01*
Y795866D01*
X324016Y795924D01*
X323703Y795830D01*
X323060Y795944D01*
X322537Y796334D01*
X322244Y796918D01*
Y797244D01*
Y797571D01*
X322537Y798154D01*
X323060Y798544D01*
X323703Y798658D01*
X324016Y798565D01*
D02*
G37*
G36*
X217717D02*
X217717D01*
Y798622D01*
X228346D01*
Y795866D01*
X217717Y795924D01*
X217404Y795830D01*
X216761Y795944D01*
X216238Y796334D01*
X215945Y796918D01*
Y797244D01*
Y797571D01*
X216238Y798154D01*
X216761Y798544D01*
X217404Y798658D01*
X217717Y798565D01*
D02*
G37*
G36*
X111417D02*
X111417D01*
Y798622D01*
X122047D01*
Y795866D01*
X111417Y795924D01*
X111105Y795830D01*
X110462Y795944D01*
X109938Y796334D01*
X109646Y796918D01*
Y797244D01*
Y797571D01*
X109938Y798154D01*
X110462Y798544D01*
X111105Y798658D01*
X111417Y798565D01*
D02*
G37*
G36*
X430315D02*
X430315D01*
Y798622D01*
X440945D01*
Y795866D01*
X430315Y795924D01*
X430002Y795830D01*
X429359Y795944D01*
X428836Y796334D01*
X428543Y796918D01*
Y797244D01*
Y797571D01*
X428836Y798154D01*
X429359Y798544D01*
X430002Y798658D01*
X430315Y798565D01*
D02*
G37*
G36*
X749213D02*
X749213D01*
Y798622D01*
X759842D01*
Y795866D01*
X749213Y795924D01*
X748900Y795830D01*
X748257Y795944D01*
X747734Y796334D01*
X747441Y796918D01*
Y797244D01*
Y797571D01*
X747734Y798154D01*
X748257Y798544D01*
X748900Y798658D01*
X749213Y798565D01*
D02*
G37*
G36*
X642913D02*
X642913D01*
Y798622D01*
X653543D01*
Y795866D01*
X642913Y795924D01*
X642601Y795830D01*
X641958Y795944D01*
X641434Y796334D01*
X641142Y796918D01*
Y797244D01*
Y797571D01*
X641434Y798154D01*
X641958Y798544D01*
X642601Y798658D01*
X642913Y798565D01*
D02*
G37*
G36*
X536614D02*
X536614D01*
Y798622D01*
X547244D01*
Y795866D01*
X536614Y795924D01*
X536301Y795830D01*
X535659Y795944D01*
X535135Y796334D01*
X534842Y796918D01*
Y797244D01*
Y797571D01*
X535135Y798154D01*
X535659Y798544D01*
X536301Y798658D01*
X536614Y798565D01*
D02*
G37*
G36*
X5118D02*
X5118D01*
Y798622D01*
X15748D01*
Y795866D01*
X5118Y795924D01*
X4805Y795830D01*
X4163Y795944D01*
X3639Y796334D01*
X3347Y796918D01*
Y797244D01*
Y797571D01*
X3639Y798154D01*
X4163Y798544D01*
X4805Y798658D01*
X5118Y798565D01*
D02*
G37*
G36*
X1223819Y832677D02*
X1257874D01*
Y761811D01*
X1187008D01*
Y832677D01*
X1221063D01*
Y836614D01*
X1223819D01*
Y832677D01*
D02*
G37*
G36*
X1117520D02*
X1151575D01*
Y761811D01*
X1080709D01*
Y832677D01*
X1114764D01*
Y836614D01*
X1117520D01*
Y832677D01*
D02*
G37*
G36*
X1011220D02*
X1045276D01*
Y761811D01*
X974409D01*
Y832677D01*
X1008465D01*
Y836614D01*
X1011220D01*
Y832677D01*
D02*
G37*
G36*
X1330118D02*
X1364173D01*
Y761811D01*
X1293307D01*
Y832677D01*
X1327362D01*
Y836614D01*
X1330118D01*
Y832677D01*
D02*
G37*
G36*
X1649016D02*
X1683071D01*
Y761811D01*
X1612205D01*
Y832677D01*
X1646260D01*
Y836614D01*
X1649016D01*
Y832677D01*
D02*
G37*
G36*
X1542717D02*
X1576772D01*
Y761811D01*
X1505906D01*
Y832677D01*
X1539961D01*
Y836614D01*
X1542717D01*
Y832677D01*
D02*
G37*
G36*
X1436417D02*
X1470472D01*
Y761811D01*
X1399606D01*
Y832677D01*
X1433661D01*
Y836614D01*
X1436417D01*
Y832677D01*
D02*
G37*
G36*
X642913Y692265D02*
X642913D01*
Y692323D01*
X653543D01*
Y689567D01*
X642913Y689624D01*
X642601Y689531D01*
X641958Y689645D01*
X641434Y690035D01*
X641142Y690619D01*
Y690945D01*
Y691271D01*
X641434Y691855D01*
X641958Y692245D01*
X642601Y692359D01*
X642913Y692265D01*
D02*
G37*
G36*
X536614D02*
X536614D01*
Y692323D01*
X547244D01*
Y689567D01*
X536614Y689624D01*
X536301Y689531D01*
X535659Y689645D01*
X535135Y690035D01*
X534842Y690619D01*
Y690945D01*
Y691271D01*
X535135Y691855D01*
X535659Y692245D01*
X536301Y692359D01*
X536614Y692265D01*
D02*
G37*
G36*
X430315D02*
X430315D01*
Y692323D01*
X440945D01*
Y689567D01*
X430315Y689624D01*
X430002Y689531D01*
X429359Y689645D01*
X428836Y690035D01*
X428543Y690619D01*
Y690945D01*
Y691271D01*
X428836Y691855D01*
X429359Y692245D01*
X430002Y692359D01*
X430315Y692265D01*
D02*
G37*
G36*
X749213D02*
X749213D01*
Y692323D01*
X759842D01*
Y689567D01*
X749213Y689624D01*
X748900Y689531D01*
X748257Y689645D01*
X747734Y690035D01*
X747441Y690619D01*
Y690945D01*
Y691271D01*
X747734Y691855D01*
X748257Y692245D01*
X748900Y692359D01*
X749213Y692265D01*
D02*
G37*
G36*
X1068110D02*
X1068110D01*
Y692323D01*
X1078740D01*
Y689567D01*
X1068110Y689624D01*
X1067797Y689531D01*
X1067155Y689645D01*
X1066631Y690035D01*
X1066339Y690619D01*
Y690945D01*
Y691271D01*
X1066631Y691855D01*
X1067155Y692245D01*
X1067797Y692359D01*
X1068110Y692265D01*
D02*
G37*
G36*
X961811D02*
X961811D01*
Y692323D01*
X972441D01*
Y689567D01*
X961811Y689624D01*
X961498Y689531D01*
X960855Y689645D01*
X960332Y690035D01*
X960039Y690619D01*
Y690945D01*
Y691271D01*
X960332Y691855D01*
X960855Y692245D01*
X961498Y692359D01*
X961811Y692265D01*
D02*
G37*
G36*
X855512D02*
X855512D01*
Y692323D01*
X866142D01*
Y689567D01*
X855512Y689624D01*
X855199Y689531D01*
X854556Y689645D01*
X854033Y690035D01*
X853740Y690619D01*
Y690945D01*
Y691271D01*
X854033Y691855D01*
X854556Y692245D01*
X855199Y692359D01*
X855512Y692265D01*
D02*
G37*
G36*
X324016D02*
X324016D01*
Y692323D01*
X334646D01*
Y689567D01*
X324016Y689624D01*
X323703Y689531D01*
X323060Y689645D01*
X322537Y690035D01*
X322244Y690619D01*
Y690945D01*
Y691271D01*
X322537Y691855D01*
X323060Y692245D01*
X323703Y692359D01*
X324016Y692265D01*
D02*
G37*
G36*
X1542717Y726378D02*
X1576772D01*
Y655512D01*
X1505906D01*
Y726378D01*
X1539961D01*
Y730315D01*
X1542717D01*
Y726378D01*
D02*
G37*
G36*
X1436417D02*
X1470472D01*
Y655512D01*
X1399606D01*
Y726378D01*
X1433661D01*
Y730315D01*
X1436417D01*
Y726378D01*
D02*
G37*
G36*
X1330118D02*
X1364173D01*
Y655512D01*
X1293307D01*
Y726378D01*
X1327362D01*
Y730315D01*
X1330118D01*
Y726378D01*
D02*
G37*
G36*
X1649016D02*
X1683071D01*
Y655512D01*
X1612205D01*
Y726378D01*
X1646260D01*
Y730315D01*
X1649016D01*
Y726378D01*
D02*
G37*
G36*
X217717Y692265D02*
X217717D01*
Y692323D01*
X228346D01*
Y689567D01*
X217717Y689624D01*
X217404Y689531D01*
X216761Y689645D01*
X216238Y690035D01*
X215945Y690619D01*
Y690945D01*
Y691271D01*
X216238Y691855D01*
X216761Y692245D01*
X217404Y692359D01*
X217717Y692265D01*
D02*
G37*
G36*
X111417D02*
X111417D01*
Y692323D01*
X122047D01*
Y689567D01*
X111417Y689624D01*
X111105Y689531D01*
X110462Y689645D01*
X109938Y690035D01*
X109646Y690619D01*
Y690945D01*
Y691271D01*
X109938Y691855D01*
X110462Y692245D01*
X111105Y692359D01*
X111417Y692265D01*
D02*
G37*
G36*
X5118D02*
X5118D01*
Y692323D01*
X15748D01*
Y689567D01*
X5118Y689624D01*
X4805Y689531D01*
X4163Y689645D01*
X3639Y690035D01*
X3347Y690619D01*
Y690945D01*
Y691271D01*
X3639Y691855D01*
X4163Y692245D01*
X4805Y692359D01*
X5118Y692265D01*
D02*
G37*
G36*
X585426Y740932D02*
X585814Y740544D01*
X586024Y740038D01*
Y739764D01*
Y731890D01*
X583268D01*
Y739764D01*
X583268Y740038D01*
X583477Y740544D01*
X583865Y740932D01*
X584372Y741142D01*
X584646Y741142D01*
X584920Y741142D01*
X585426Y740932D01*
D02*
G37*
G36*
X479127D02*
X479515Y740544D01*
X479724Y740038D01*
Y739764D01*
Y731890D01*
X476968D01*
Y739764D01*
X476968Y740038D01*
X477178Y740544D01*
X477566Y740932D01*
X478072Y741142D01*
X478346Y741142D01*
X478621Y741142D01*
X479127Y740932D01*
D02*
G37*
G36*
X372828D02*
X373215Y740544D01*
X373425Y740038D01*
Y739764D01*
Y731890D01*
X370669D01*
Y739764D01*
X370669Y740038D01*
X370879Y740544D01*
X371267Y740932D01*
X371773Y741142D01*
X372047Y741142D01*
X372321Y741142D01*
X372828Y740932D01*
D02*
G37*
G36*
X691725D02*
X692113Y740544D01*
X692323Y740038D01*
Y739764D01*
Y731890D01*
X689567D01*
Y739764D01*
X689567Y740038D01*
X689777Y740544D01*
X690164Y740932D01*
X690671Y741142D01*
X690945Y741142D01*
X691219Y741142D01*
X691725Y740932D01*
D02*
G37*
G36*
X1010623D02*
X1011011Y740544D01*
X1011220Y740038D01*
Y739764D01*
Y731890D01*
X1008465D01*
Y739764D01*
X1008465Y740038D01*
X1008674Y740544D01*
X1009062Y740932D01*
X1009568Y741142D01*
X1009842Y741142D01*
X1010117Y741142D01*
X1010623Y740932D01*
D02*
G37*
G36*
X904324D02*
X904712Y740544D01*
X904921Y740038D01*
Y739764D01*
Y731890D01*
X902165D01*
Y739764D01*
X902165Y740038D01*
X902375Y740544D01*
X902763Y740932D01*
X903269Y741142D01*
X903543Y741142D01*
X903817Y741142D01*
X904324Y740932D01*
D02*
G37*
G36*
X798025D02*
X798412Y740544D01*
X798622Y740038D01*
Y739764D01*
Y731890D01*
X795866D01*
Y739764D01*
X795866Y740038D01*
X796076Y740544D01*
X796464Y740932D01*
X796970Y741142D01*
X797244Y741142D01*
X797518Y741142D01*
X798025Y740932D01*
D02*
G37*
G36*
X266529D02*
X266916Y740544D01*
X267126Y740038D01*
Y739764D01*
Y731890D01*
X264370D01*
Y739764D01*
X264370Y740038D01*
X264580Y740544D01*
X264967Y740932D01*
X265474Y741142D01*
X265748Y741142D01*
X266022Y741142D01*
X266529Y740932D01*
D02*
G37*
G36*
X1387008Y692265D02*
X1387008D01*
Y692323D01*
X1397638D01*
Y689567D01*
X1387008Y689624D01*
X1386695Y689531D01*
X1386052Y689645D01*
X1385529Y690035D01*
X1385236Y690619D01*
Y690945D01*
Y691271D01*
X1385529Y691855D01*
X1386052Y692245D01*
X1386695Y692359D01*
X1387008Y692265D01*
D02*
G37*
G36*
X1280709D02*
X1280709D01*
Y692323D01*
X1291339D01*
Y689567D01*
X1280709Y689624D01*
X1280396Y689531D01*
X1279753Y689645D01*
X1279230Y690035D01*
X1278937Y690619D01*
Y690945D01*
Y691271D01*
X1279230Y691855D01*
X1279753Y692245D01*
X1280396Y692359D01*
X1280709Y692265D01*
D02*
G37*
G36*
X1174409D02*
X1174409D01*
Y692323D01*
X1185039D01*
Y689567D01*
X1174409Y689624D01*
X1174097Y689531D01*
X1173454Y689645D01*
X1172931Y690035D01*
X1172638Y690619D01*
Y690945D01*
Y691271D01*
X1172931Y691855D01*
X1173454Y692245D01*
X1174097Y692359D01*
X1174409Y692265D01*
D02*
G37*
G36*
X1493307D02*
X1493307D01*
Y692323D01*
X1503937D01*
Y689567D01*
X1493307Y689624D01*
X1492994Y689531D01*
X1492352Y689645D01*
X1491828Y690035D01*
X1491535Y690619D01*
Y690945D01*
Y691271D01*
X1491828Y691855D01*
X1492352Y692245D01*
X1492994Y692359D01*
X1493307Y692265D01*
D02*
G37*
G36*
X160229Y740932D02*
X160617Y740544D01*
X160827Y740038D01*
Y739764D01*
Y731890D01*
X158071D01*
Y739764D01*
X158071Y740038D01*
X158281Y740544D01*
X158668Y740932D01*
X159175Y741142D01*
X159449Y741142D01*
X159723Y741142D01*
X160229Y740932D01*
D02*
G37*
G36*
X53930D02*
X54318Y740544D01*
X54528Y740038D01*
Y739764D01*
Y731890D01*
X51772D01*
Y739764D01*
X51772Y740038D01*
X51981Y740544D01*
X52369Y740932D01*
X52876Y741142D01*
X53150Y741142D01*
X53424Y741142D01*
X53930Y740932D01*
D02*
G37*
G36*
X1599606Y692265D02*
X1599606D01*
Y692323D01*
X1610236D01*
Y689567D01*
X1599606Y689624D01*
X1599294Y689531D01*
X1598651Y689645D01*
X1598127Y690035D01*
X1597835Y690619D01*
Y690945D01*
Y691271D01*
X1598127Y691855D01*
X1598651Y692245D01*
X1599294Y692359D01*
X1599606Y692265D01*
D02*
G37*
D10*
X14000Y1009900D02*
D03*
X20183D02*
D03*
X14000Y903601D02*
D03*
X20183D02*
D03*
X14000Y797302D02*
D03*
X20183D02*
D03*
X14000Y691002D02*
D03*
X20183D02*
D03*
X14000Y584703D02*
D03*
X20183D02*
D03*
X14000Y478404D02*
D03*
X20183D02*
D03*
X14000Y372105D02*
D03*
X20183D02*
D03*
X14000Y265806D02*
D03*
X20183D02*
D03*
X14000Y159506D02*
D03*
X20183D02*
D03*
X14000Y53207D02*
D03*
X20183D02*
D03*
X120299D02*
D03*
X126482D02*
D03*
X120299Y159506D02*
D03*
X126482D02*
D03*
X120299Y265806D02*
D03*
X126482D02*
D03*
X120299Y372105D02*
D03*
X126482D02*
D03*
X120299Y478404D02*
D03*
X126482D02*
D03*
X120299Y584703D02*
D03*
X126482D02*
D03*
X120299Y691002D02*
D03*
X126482D02*
D03*
X120299Y797302D02*
D03*
X126482D02*
D03*
X120299Y903601D02*
D03*
X126482D02*
D03*
X120299Y1009900D02*
D03*
X126482D02*
D03*
X226598Y53207D02*
D03*
X232781D02*
D03*
X226598Y159506D02*
D03*
X232781D02*
D03*
X226598Y265806D02*
D03*
X232781D02*
D03*
X226598Y372105D02*
D03*
X232781D02*
D03*
X226598Y478404D02*
D03*
X232781D02*
D03*
X226598Y584703D02*
D03*
X232781D02*
D03*
X226598Y691002D02*
D03*
X232781D02*
D03*
X226598Y797302D02*
D03*
X232781D02*
D03*
X226598Y903601D02*
D03*
X232781D02*
D03*
X226598Y1009900D02*
D03*
X232781D02*
D03*
X332898Y53207D02*
D03*
X339080D02*
D03*
X332898Y159506D02*
D03*
X339080D02*
D03*
X332898Y265806D02*
D03*
X339080D02*
D03*
X332898Y372105D02*
D03*
X339080D02*
D03*
X332898Y478404D02*
D03*
X339080D02*
D03*
X332898Y584703D02*
D03*
X339080D02*
D03*
X332898Y691002D02*
D03*
X339080D02*
D03*
X332898Y797302D02*
D03*
X339080D02*
D03*
X332898Y903601D02*
D03*
X339080D02*
D03*
X332898Y1009900D02*
D03*
X339080D02*
D03*
X439197Y53207D02*
D03*
X445380D02*
D03*
X439197Y159506D02*
D03*
X445380D02*
D03*
X439197Y265806D02*
D03*
X445380D02*
D03*
X439197Y372105D02*
D03*
X445380D02*
D03*
X439197Y478404D02*
D03*
X445380D02*
D03*
X439197Y584703D02*
D03*
X445380D02*
D03*
X439197Y691002D02*
D03*
X445380D02*
D03*
X439197Y797302D02*
D03*
X445380D02*
D03*
X439197Y903601D02*
D03*
X445380D02*
D03*
X439197Y1009900D02*
D03*
X445380D02*
D03*
X545496Y53207D02*
D03*
X551679D02*
D03*
X545496Y159506D02*
D03*
X551679D02*
D03*
X545496Y265806D02*
D03*
X551679D02*
D03*
X545496Y372105D02*
D03*
X551679D02*
D03*
X545496Y478404D02*
D03*
X551679D02*
D03*
X545496Y584703D02*
D03*
X551679D02*
D03*
X545496Y691002D02*
D03*
X551679D02*
D03*
X545496Y797302D02*
D03*
X551679D02*
D03*
X545496Y903601D02*
D03*
X551679D02*
D03*
X545496Y1009900D02*
D03*
X551679D02*
D03*
X651795Y53207D02*
D03*
X657978D02*
D03*
X651795Y159506D02*
D03*
X657978D02*
D03*
X651795Y265806D02*
D03*
X657978D02*
D03*
X651795Y372105D02*
D03*
X657978D02*
D03*
X651795Y478404D02*
D03*
X657978D02*
D03*
X651795Y584703D02*
D03*
X657978D02*
D03*
X651795Y691002D02*
D03*
X657978D02*
D03*
X651795Y797302D02*
D03*
X657978D02*
D03*
X651795Y903601D02*
D03*
X657978D02*
D03*
X651795Y1009900D02*
D03*
X657978D02*
D03*
X758095Y53207D02*
D03*
X764277D02*
D03*
X758095Y159506D02*
D03*
X764277D02*
D03*
X758095Y265806D02*
D03*
X764277D02*
D03*
X758095Y372105D02*
D03*
X764277D02*
D03*
X758095Y478404D02*
D03*
X764277D02*
D03*
X758095Y584703D02*
D03*
X764277D02*
D03*
X758095Y691002D02*
D03*
X764277D02*
D03*
X758095Y797302D02*
D03*
X764277D02*
D03*
X758095Y903601D02*
D03*
X764277D02*
D03*
X758095Y1009900D02*
D03*
X764277D02*
D03*
X864394Y53207D02*
D03*
X870576D02*
D03*
X864394Y159506D02*
D03*
X870576D02*
D03*
X864394Y265806D02*
D03*
X870576D02*
D03*
X864394Y372105D02*
D03*
X870576D02*
D03*
X864394Y478404D02*
D03*
X870576D02*
D03*
X864394Y584703D02*
D03*
X870576D02*
D03*
X864394Y691002D02*
D03*
X870576D02*
D03*
X864394Y797302D02*
D03*
X870576D02*
D03*
X864394Y903601D02*
D03*
X870576D02*
D03*
X864394Y1009900D02*
D03*
X870576D02*
D03*
X970693Y53207D02*
D03*
X976876D02*
D03*
X970693Y159506D02*
D03*
X976876D02*
D03*
X970693Y265806D02*
D03*
X976876D02*
D03*
X970693Y372105D02*
D03*
X976876D02*
D03*
X970693Y478404D02*
D03*
X976876D02*
D03*
X970693Y584703D02*
D03*
X976876D02*
D03*
X970693Y691002D02*
D03*
X976876D02*
D03*
X970693Y797302D02*
D03*
X976876D02*
D03*
X970693Y903601D02*
D03*
X976876D02*
D03*
X970693Y1009900D02*
D03*
X976876D02*
D03*
X1076992Y53207D02*
D03*
X1083175D02*
D03*
X1076992Y159506D02*
D03*
X1083175D02*
D03*
X1076992Y265806D02*
D03*
X1083175D02*
D03*
X1076992Y372105D02*
D03*
X1083175D02*
D03*
X1076992Y478404D02*
D03*
X1083175D02*
D03*
X1076992Y584703D02*
D03*
X1083175D02*
D03*
X1076992Y691002D02*
D03*
X1083175D02*
D03*
X1076992Y797302D02*
D03*
X1083175D02*
D03*
X1076992Y903601D02*
D03*
X1083175D02*
D03*
X1076992Y1009900D02*
D03*
X1083175D02*
D03*
X1183291Y53207D02*
D03*
X1189474D02*
D03*
X1183291Y159506D02*
D03*
X1189474D02*
D03*
X1183291Y265806D02*
D03*
X1189474D02*
D03*
X1183291Y372105D02*
D03*
X1189474D02*
D03*
X1183291Y478404D02*
D03*
X1189474D02*
D03*
X1183291Y584703D02*
D03*
X1189474D02*
D03*
X1183291Y691002D02*
D03*
X1189474D02*
D03*
X1183291Y797302D02*
D03*
X1189474D02*
D03*
X1183291Y903601D02*
D03*
X1189474D02*
D03*
X1183291Y1009900D02*
D03*
X1189474D02*
D03*
X1289591Y53207D02*
D03*
X1295773D02*
D03*
X1289591Y159506D02*
D03*
X1295773D02*
D03*
X1289591Y265806D02*
D03*
X1295773D02*
D03*
X1289591Y372105D02*
D03*
X1295773D02*
D03*
X1289591Y478404D02*
D03*
X1295773D02*
D03*
X1289591Y584703D02*
D03*
X1295773D02*
D03*
X1289591Y691002D02*
D03*
X1295773D02*
D03*
X1289591Y797302D02*
D03*
X1295773D02*
D03*
X1289591Y903601D02*
D03*
X1295773D02*
D03*
X1289591Y1009900D02*
D03*
X1295773D02*
D03*
X1395890Y53207D02*
D03*
X1402073D02*
D03*
X1395890Y159506D02*
D03*
X1402073D02*
D03*
X1395890Y265806D02*
D03*
X1402073D02*
D03*
X1395890Y372105D02*
D03*
X1402073D02*
D03*
X1395890Y478404D02*
D03*
X1402073D02*
D03*
X1395890Y584703D02*
D03*
X1402073D02*
D03*
X1395890Y691002D02*
D03*
X1402073D02*
D03*
X1395890Y797302D02*
D03*
X1402073D02*
D03*
X1395890Y903601D02*
D03*
X1402073D02*
D03*
X1395890Y1009900D02*
D03*
X1402073D02*
D03*
X1502189Y53207D02*
D03*
X1508372D02*
D03*
X1502189Y159506D02*
D03*
X1508372D02*
D03*
X1502189Y265806D02*
D03*
X1508372D02*
D03*
X1502189Y372105D02*
D03*
X1508372D02*
D03*
X1502189Y478404D02*
D03*
X1508372D02*
D03*
X1502189Y584703D02*
D03*
X1508372D02*
D03*
X1502189Y691002D02*
D03*
X1508372D02*
D03*
X1502189Y797302D02*
D03*
X1508372D02*
D03*
X1502189Y903601D02*
D03*
X1508372D02*
D03*
X1502189Y1009900D02*
D03*
X1508372D02*
D03*
X1608488Y53207D02*
D03*
X1614671D02*
D03*
X1608488Y159506D02*
D03*
X1614671D02*
D03*
X1608488Y265806D02*
D03*
X1614671D02*
D03*
X1608488Y372105D02*
D03*
X1614671D02*
D03*
X1608488Y478404D02*
D03*
X1614671D02*
D03*
X1608488Y584703D02*
D03*
X1614671D02*
D03*
X1608488Y691002D02*
D03*
X1614671D02*
D03*
X1608488Y797302D02*
D03*
X1614671D02*
D03*
X1608488Y903601D02*
D03*
X1614671D02*
D03*
X1608488Y1009900D02*
D03*
X1614671D02*
D03*
D11*
X53084Y941549D02*
D03*
Y945841D02*
D03*
Y835250D02*
D03*
Y839542D02*
D03*
Y728951D02*
D03*
Y733243D02*
D03*
Y622651D02*
D03*
Y626943D02*
D03*
Y516352D02*
D03*
Y520644D02*
D03*
Y410053D02*
D03*
Y414345D02*
D03*
Y303754D02*
D03*
Y308046D02*
D03*
Y197455D02*
D03*
Y201747D02*
D03*
Y91155D02*
D03*
Y95447D02*
D03*
X159383Y91155D02*
D03*
Y95447D02*
D03*
Y197455D02*
D03*
Y201747D02*
D03*
Y303754D02*
D03*
Y308046D02*
D03*
Y410053D02*
D03*
Y414345D02*
D03*
Y516352D02*
D03*
Y520644D02*
D03*
Y622651D02*
D03*
Y626943D02*
D03*
Y728951D02*
D03*
Y733243D02*
D03*
Y835250D02*
D03*
Y839542D02*
D03*
Y941549D02*
D03*
Y945841D02*
D03*
Y1047848D02*
D03*
Y1052140D02*
D03*
X265683Y91155D02*
D03*
Y95447D02*
D03*
Y197455D02*
D03*
Y201747D02*
D03*
Y303754D02*
D03*
Y308046D02*
D03*
Y410053D02*
D03*
Y414345D02*
D03*
Y516352D02*
D03*
Y520644D02*
D03*
Y622651D02*
D03*
Y626943D02*
D03*
Y728951D02*
D03*
Y733243D02*
D03*
Y835250D02*
D03*
Y839542D02*
D03*
Y941549D02*
D03*
Y945841D02*
D03*
Y1047848D02*
D03*
Y1052140D02*
D03*
X371982Y91155D02*
D03*
Y95447D02*
D03*
Y197455D02*
D03*
Y201747D02*
D03*
Y303754D02*
D03*
Y308046D02*
D03*
Y410053D02*
D03*
Y414345D02*
D03*
Y516352D02*
D03*
Y520644D02*
D03*
Y622651D02*
D03*
Y626943D02*
D03*
Y728951D02*
D03*
Y733243D02*
D03*
Y835250D02*
D03*
Y839542D02*
D03*
Y941549D02*
D03*
Y945841D02*
D03*
Y1047848D02*
D03*
Y1052140D02*
D03*
X478281Y91155D02*
D03*
Y95447D02*
D03*
Y197455D02*
D03*
Y201747D02*
D03*
Y303754D02*
D03*
Y308046D02*
D03*
Y410053D02*
D03*
Y414345D02*
D03*
Y516352D02*
D03*
Y520644D02*
D03*
Y622651D02*
D03*
Y626943D02*
D03*
Y728951D02*
D03*
Y733243D02*
D03*
Y835250D02*
D03*
Y839542D02*
D03*
Y941549D02*
D03*
Y945841D02*
D03*
Y1047848D02*
D03*
Y1052140D02*
D03*
X584580Y91155D02*
D03*
Y95447D02*
D03*
Y197455D02*
D03*
Y201747D02*
D03*
Y303754D02*
D03*
Y308046D02*
D03*
Y410053D02*
D03*
Y414345D02*
D03*
Y516352D02*
D03*
Y520644D02*
D03*
Y622651D02*
D03*
Y626943D02*
D03*
Y728951D02*
D03*
Y733243D02*
D03*
Y835250D02*
D03*
Y839542D02*
D03*
Y941549D02*
D03*
Y945841D02*
D03*
Y1047848D02*
D03*
Y1052140D02*
D03*
X690879Y91155D02*
D03*
Y95447D02*
D03*
Y197455D02*
D03*
Y201747D02*
D03*
Y303754D02*
D03*
Y308046D02*
D03*
Y410053D02*
D03*
Y414345D02*
D03*
Y516352D02*
D03*
Y520644D02*
D03*
Y622651D02*
D03*
Y626943D02*
D03*
Y728951D02*
D03*
Y733243D02*
D03*
Y835250D02*
D03*
Y839542D02*
D03*
Y941549D02*
D03*
Y945841D02*
D03*
Y1047848D02*
D03*
Y1052140D02*
D03*
X797179Y91155D02*
D03*
Y95447D02*
D03*
Y197455D02*
D03*
Y201747D02*
D03*
Y303754D02*
D03*
Y308046D02*
D03*
Y410053D02*
D03*
Y414345D02*
D03*
Y516352D02*
D03*
Y520644D02*
D03*
Y622651D02*
D03*
Y626943D02*
D03*
Y728951D02*
D03*
Y733243D02*
D03*
Y835250D02*
D03*
Y839542D02*
D03*
Y941549D02*
D03*
Y945841D02*
D03*
Y1047848D02*
D03*
Y1052140D02*
D03*
X903478Y91155D02*
D03*
Y95447D02*
D03*
Y197455D02*
D03*
Y201747D02*
D03*
Y303754D02*
D03*
Y308046D02*
D03*
Y410053D02*
D03*
Y414345D02*
D03*
Y516352D02*
D03*
Y520644D02*
D03*
Y622651D02*
D03*
Y626943D02*
D03*
Y728951D02*
D03*
Y733243D02*
D03*
Y835250D02*
D03*
Y839542D02*
D03*
Y941549D02*
D03*
Y945841D02*
D03*
Y1047848D02*
D03*
Y1052140D02*
D03*
X1009777Y91155D02*
D03*
Y95447D02*
D03*
Y197455D02*
D03*
Y201747D02*
D03*
Y303754D02*
D03*
Y308046D02*
D03*
Y410053D02*
D03*
Y414345D02*
D03*
Y516352D02*
D03*
Y520644D02*
D03*
Y622651D02*
D03*
Y626943D02*
D03*
Y728951D02*
D03*
Y733243D02*
D03*
Y835250D02*
D03*
Y839542D02*
D03*
Y941549D02*
D03*
Y945841D02*
D03*
Y1047848D02*
D03*
Y1052140D02*
D03*
X1116076Y91155D02*
D03*
Y95447D02*
D03*
Y197455D02*
D03*
Y201747D02*
D03*
Y303754D02*
D03*
Y308046D02*
D03*
Y410053D02*
D03*
Y414345D02*
D03*
Y516352D02*
D03*
Y520644D02*
D03*
Y622651D02*
D03*
Y626943D02*
D03*
Y728951D02*
D03*
Y733243D02*
D03*
Y835250D02*
D03*
Y839542D02*
D03*
Y941549D02*
D03*
Y945841D02*
D03*
Y1047848D02*
D03*
Y1052140D02*
D03*
X1222376Y91155D02*
D03*
Y95447D02*
D03*
Y197455D02*
D03*
Y201747D02*
D03*
Y303754D02*
D03*
Y308046D02*
D03*
Y410053D02*
D03*
Y414345D02*
D03*
Y516352D02*
D03*
Y520644D02*
D03*
Y622651D02*
D03*
Y626943D02*
D03*
Y728951D02*
D03*
Y733243D02*
D03*
Y835250D02*
D03*
Y839542D02*
D03*
Y941549D02*
D03*
Y945841D02*
D03*
Y1047848D02*
D03*
Y1052140D02*
D03*
X1328675Y91155D02*
D03*
Y95447D02*
D03*
Y197455D02*
D03*
Y201747D02*
D03*
Y303754D02*
D03*
Y308046D02*
D03*
Y410053D02*
D03*
Y414345D02*
D03*
Y516352D02*
D03*
Y520644D02*
D03*
Y622651D02*
D03*
Y626943D02*
D03*
Y728951D02*
D03*
Y733243D02*
D03*
Y835250D02*
D03*
Y839542D02*
D03*
Y941549D02*
D03*
Y945841D02*
D03*
Y1047848D02*
D03*
Y1052140D02*
D03*
X1434974Y91155D02*
D03*
Y95447D02*
D03*
Y197455D02*
D03*
Y201747D02*
D03*
Y303754D02*
D03*
Y308046D02*
D03*
Y410053D02*
D03*
Y414345D02*
D03*
Y516352D02*
D03*
Y520644D02*
D03*
Y622651D02*
D03*
Y626943D02*
D03*
Y728951D02*
D03*
Y733243D02*
D03*
Y835250D02*
D03*
Y839542D02*
D03*
Y941549D02*
D03*
Y945841D02*
D03*
Y1047848D02*
D03*
Y1052140D02*
D03*
X1541273Y91155D02*
D03*
Y95447D02*
D03*
Y197455D02*
D03*
Y201747D02*
D03*
Y303754D02*
D03*
Y308046D02*
D03*
Y410053D02*
D03*
Y414345D02*
D03*
Y516352D02*
D03*
Y520644D02*
D03*
Y622651D02*
D03*
Y626943D02*
D03*
Y728951D02*
D03*
Y733243D02*
D03*
Y835250D02*
D03*
Y839542D02*
D03*
Y941549D02*
D03*
Y945841D02*
D03*
Y1047848D02*
D03*
Y1052140D02*
D03*
X1647572Y91155D02*
D03*
Y95447D02*
D03*
Y197455D02*
D03*
Y201747D02*
D03*
Y303754D02*
D03*
Y308046D02*
D03*
Y410053D02*
D03*
Y414345D02*
D03*
Y516352D02*
D03*
Y520644D02*
D03*
Y622651D02*
D03*
Y626943D02*
D03*
Y728951D02*
D03*
Y733243D02*
D03*
Y835250D02*
D03*
Y839542D02*
D03*
Y941549D02*
D03*
Y945841D02*
D03*
Y1047848D02*
D03*
Y1052140D02*
D03*
X53084Y1047848D02*
D03*
Y1052140D02*
D03*
D12*
X143410Y1101220D02*
D03*
Y1111220D02*
D03*
X133410Y1101220D02*
D03*
Y1111220D02*
D03*
X123410Y1101220D02*
D03*
Y1111220D02*
D03*
X113410Y1101220D02*
D03*
Y1111220D02*
D03*
X103410Y1101220D02*
D03*
Y1111220D02*
D03*
X93410Y1101220D02*
D03*
Y1111220D02*
D03*
X83410Y1101220D02*
D03*
X53410D02*
D03*
X63410D02*
D03*
Y1111220D02*
D03*
X73410D02*
D03*
Y1101220D02*
D03*
X163410Y1111220D02*
D03*
X153410D02*
D03*
Y1101220D02*
D03*
X83410Y1111220D02*
D03*
X53410D02*
D03*
X356008Y1101220D02*
D03*
Y1111220D02*
D03*
X346008Y1101220D02*
D03*
Y1111220D02*
D03*
X336008Y1101220D02*
D03*
Y1111220D02*
D03*
X326008Y1101220D02*
D03*
Y1111220D02*
D03*
X316008Y1101220D02*
D03*
Y1111220D02*
D03*
X306008Y1101220D02*
D03*
Y1111220D02*
D03*
X296008Y1101220D02*
D03*
X266008D02*
D03*
X276008D02*
D03*
Y1111220D02*
D03*
X286008D02*
D03*
Y1101220D02*
D03*
X376008Y1111220D02*
D03*
X366008D02*
D03*
Y1101220D02*
D03*
X296008Y1111220D02*
D03*
X266008D02*
D03*
X568607Y1101220D02*
D03*
Y1111220D02*
D03*
X558607Y1101220D02*
D03*
Y1111220D02*
D03*
X548607Y1101220D02*
D03*
Y1111220D02*
D03*
X538607Y1101220D02*
D03*
Y1111220D02*
D03*
X528607Y1101220D02*
D03*
Y1111220D02*
D03*
X518607Y1101220D02*
D03*
Y1111220D02*
D03*
X508607Y1101220D02*
D03*
X478607D02*
D03*
X488607D02*
D03*
Y1111220D02*
D03*
X498607D02*
D03*
Y1101220D02*
D03*
X588607Y1111220D02*
D03*
X578607D02*
D03*
Y1101220D02*
D03*
X508607Y1111220D02*
D03*
X478607D02*
D03*
X781205Y1101220D02*
D03*
Y1111220D02*
D03*
X771205Y1101220D02*
D03*
Y1111220D02*
D03*
X761205Y1101220D02*
D03*
Y1111220D02*
D03*
X751205Y1101220D02*
D03*
Y1111220D02*
D03*
X741205Y1101220D02*
D03*
Y1111220D02*
D03*
X731205Y1101220D02*
D03*
Y1111220D02*
D03*
X721205Y1101220D02*
D03*
X691205D02*
D03*
X701205D02*
D03*
Y1111220D02*
D03*
X711205D02*
D03*
Y1101220D02*
D03*
X801205Y1111220D02*
D03*
X791205D02*
D03*
Y1101220D02*
D03*
X721205Y1111220D02*
D03*
X691205D02*
D03*
X993804Y1101220D02*
D03*
Y1111220D02*
D03*
X983804Y1101220D02*
D03*
Y1111220D02*
D03*
X973804Y1101220D02*
D03*
Y1111220D02*
D03*
X963804Y1101220D02*
D03*
Y1111220D02*
D03*
X953804Y1101220D02*
D03*
Y1111220D02*
D03*
X943804Y1101220D02*
D03*
Y1111220D02*
D03*
X933804Y1101220D02*
D03*
X903804D02*
D03*
X913804D02*
D03*
Y1111220D02*
D03*
X923804D02*
D03*
Y1101220D02*
D03*
X1013804Y1111220D02*
D03*
X1003804D02*
D03*
Y1101220D02*
D03*
X933804Y1111220D02*
D03*
X903804D02*
D03*
X1206402Y1101220D02*
D03*
Y1111220D02*
D03*
X1196402Y1101220D02*
D03*
Y1111220D02*
D03*
X1186402Y1101220D02*
D03*
Y1111220D02*
D03*
X1176402Y1101220D02*
D03*
Y1111220D02*
D03*
X1166402Y1101220D02*
D03*
Y1111220D02*
D03*
X1156402Y1101220D02*
D03*
Y1111220D02*
D03*
X1146402Y1101220D02*
D03*
X1116402D02*
D03*
X1126402D02*
D03*
Y1111220D02*
D03*
X1136402D02*
D03*
Y1101220D02*
D03*
X1226402Y1111220D02*
D03*
X1216402D02*
D03*
Y1101220D02*
D03*
X1146402Y1111220D02*
D03*
X1116402D02*
D03*
X1419001Y1101220D02*
D03*
Y1111220D02*
D03*
X1409000Y1101220D02*
D03*
Y1111220D02*
D03*
X1399000Y1101220D02*
D03*
Y1111220D02*
D03*
X1389001Y1101220D02*
D03*
Y1111220D02*
D03*
X1379000Y1101220D02*
D03*
Y1111220D02*
D03*
X1369001Y1101220D02*
D03*
Y1111220D02*
D03*
X1359000Y1101220D02*
D03*
X1329000D02*
D03*
X1339001D02*
D03*
Y1111220D02*
D03*
X1349000D02*
D03*
Y1101220D02*
D03*
X1439001Y1111220D02*
D03*
X1429000D02*
D03*
Y1101220D02*
D03*
X1359000Y1111220D02*
D03*
X1329000D02*
D03*
X1631599Y1101220D02*
D03*
Y1111220D02*
D03*
X1621599Y1101220D02*
D03*
Y1111220D02*
D03*
X1611599Y1101220D02*
D03*
Y1111220D02*
D03*
X1601599Y1101220D02*
D03*
Y1111220D02*
D03*
X1591599Y1101220D02*
D03*
Y1111220D02*
D03*
X1581599Y1101220D02*
D03*
Y1111220D02*
D03*
X1571599Y1101220D02*
D03*
X1541599D02*
D03*
X1551599D02*
D03*
Y1111220D02*
D03*
X1561599D02*
D03*
Y1101220D02*
D03*
X1651599Y1111220D02*
D03*
X1641599D02*
D03*
Y1101220D02*
D03*
X1571599Y1111220D02*
D03*
X1541599D02*
D03*
D13*
X163410Y1101220D02*
D03*
X376008D02*
D03*
X588607D02*
D03*
X801205D02*
D03*
X1013804D02*
D03*
X1226402D02*
D03*
X1439001D02*
D03*
X1651599D02*
D03*
D14*
X4724Y1009842D02*
D03*
X53150Y1058661D02*
D03*
Y952362D02*
D03*
X4724Y903543D02*
D03*
X53150Y846063D02*
D03*
X4724Y797244D02*
D03*
X53150Y739764D02*
D03*
X4724Y690945D02*
D03*
X53150Y633465D02*
D03*
X4724Y584646D02*
D03*
X53150Y527165D02*
D03*
X4724Y478346D02*
D03*
X53150Y420866D02*
D03*
X4724Y372047D02*
D03*
X53150Y314567D02*
D03*
X4724Y265748D02*
D03*
X53150Y208268D02*
D03*
X4724Y159449D02*
D03*
X53150Y101969D02*
D03*
X4724Y53150D02*
D03*
X111024D02*
D03*
X159449Y101969D02*
D03*
X111024Y159449D02*
D03*
X159449Y208268D02*
D03*
X111024Y265748D02*
D03*
X159449Y314567D02*
D03*
X111024Y372047D02*
D03*
X159449Y420866D02*
D03*
X111024Y478346D02*
D03*
X159449Y527165D02*
D03*
X111024Y584646D02*
D03*
X159449Y633465D02*
D03*
X111024Y690945D02*
D03*
X159449Y739764D02*
D03*
X111024Y797244D02*
D03*
X159449Y846063D02*
D03*
X111024Y903543D02*
D03*
X159449Y952362D02*
D03*
Y1058661D02*
D03*
X111024Y1009842D02*
D03*
X217323Y53150D02*
D03*
X265748Y101969D02*
D03*
X217323Y159449D02*
D03*
X265748Y208268D02*
D03*
X217323Y265748D02*
D03*
X265748Y314567D02*
D03*
X217323Y372047D02*
D03*
X265748Y420866D02*
D03*
X217323Y478346D02*
D03*
X265748Y527165D02*
D03*
X217323Y584646D02*
D03*
X265748Y633465D02*
D03*
X217323Y690945D02*
D03*
X265748Y739764D02*
D03*
X217323Y797244D02*
D03*
X265748Y846063D02*
D03*
X217323Y903543D02*
D03*
X265748Y952362D02*
D03*
Y1058661D02*
D03*
X217323Y1009842D02*
D03*
X323622Y53150D02*
D03*
X372047Y101969D02*
D03*
X323622Y159449D02*
D03*
X372047Y208268D02*
D03*
X323622Y265748D02*
D03*
X372047Y314567D02*
D03*
X323622Y372047D02*
D03*
X372047Y420866D02*
D03*
X323622Y478346D02*
D03*
X372047Y527165D02*
D03*
X323622Y584646D02*
D03*
X372047Y633465D02*
D03*
X323622Y690945D02*
D03*
X372047Y739764D02*
D03*
X323622Y797244D02*
D03*
X372047Y846063D02*
D03*
X323622Y903543D02*
D03*
X372047Y952362D02*
D03*
Y1058661D02*
D03*
X323622Y1009842D02*
D03*
X429921Y53150D02*
D03*
X478346Y101969D02*
D03*
X429921Y159449D02*
D03*
X478346Y208268D02*
D03*
X429921Y265748D02*
D03*
X478346Y314567D02*
D03*
X429921Y372047D02*
D03*
X478346Y420866D02*
D03*
X429921Y478346D02*
D03*
X478346Y527165D02*
D03*
X429921Y584646D02*
D03*
X478346Y633465D02*
D03*
X429921Y690945D02*
D03*
X478346Y739764D02*
D03*
X429921Y797244D02*
D03*
X478346Y846063D02*
D03*
X429921Y903543D02*
D03*
X478346Y952362D02*
D03*
Y1058661D02*
D03*
X429921Y1009842D02*
D03*
X536221Y53150D02*
D03*
X584646Y101969D02*
D03*
X536221Y159449D02*
D03*
X584646Y208268D02*
D03*
X536221Y265748D02*
D03*
X584646Y314567D02*
D03*
X536221Y372047D02*
D03*
X584646Y420866D02*
D03*
X536221Y478346D02*
D03*
X584646Y527165D02*
D03*
X536221Y584646D02*
D03*
X584646Y633465D02*
D03*
X536221Y690945D02*
D03*
X584646Y739764D02*
D03*
X536221Y797244D02*
D03*
X584646Y846063D02*
D03*
X536221Y903543D02*
D03*
X584646Y952362D02*
D03*
Y1058661D02*
D03*
X536221Y1009842D02*
D03*
X642520Y53150D02*
D03*
X690945Y101969D02*
D03*
X642520Y159449D02*
D03*
X690945Y208268D02*
D03*
X642520Y265748D02*
D03*
X690945Y314567D02*
D03*
X642520Y372047D02*
D03*
X690945Y420866D02*
D03*
X642520Y478346D02*
D03*
X690945Y527165D02*
D03*
X642520Y584646D02*
D03*
X690945Y633465D02*
D03*
X642520Y690945D02*
D03*
X690945Y739764D02*
D03*
X642520Y797244D02*
D03*
X690945Y846063D02*
D03*
X642520Y903543D02*
D03*
X690945Y952362D02*
D03*
Y1058661D02*
D03*
X642520Y1009842D02*
D03*
X748819Y53150D02*
D03*
X797244Y101969D02*
D03*
X748819Y159449D02*
D03*
X797244Y208268D02*
D03*
X748819Y265748D02*
D03*
X797244Y314567D02*
D03*
X748819Y372047D02*
D03*
X797244Y420866D02*
D03*
X748819Y478346D02*
D03*
X797244Y527165D02*
D03*
X748819Y584646D02*
D03*
X797244Y633465D02*
D03*
X748819Y690945D02*
D03*
X797244Y739764D02*
D03*
X748819Y797244D02*
D03*
X797244Y846063D02*
D03*
X748819Y903543D02*
D03*
X797244Y952362D02*
D03*
Y1058661D02*
D03*
X748819Y1009842D02*
D03*
X855118Y53150D02*
D03*
X903543Y101969D02*
D03*
X855118Y159449D02*
D03*
X903543Y208268D02*
D03*
X855118Y265748D02*
D03*
X903543Y314567D02*
D03*
X855118Y372047D02*
D03*
X903543Y420866D02*
D03*
X855118Y478346D02*
D03*
X903543Y527165D02*
D03*
X855118Y584646D02*
D03*
X903543Y633465D02*
D03*
X855118Y690945D02*
D03*
X903543Y739764D02*
D03*
X855118Y797244D02*
D03*
X903543Y846063D02*
D03*
X855118Y903543D02*
D03*
X903543Y952362D02*
D03*
Y1058661D02*
D03*
X855118Y1009842D02*
D03*
X961417Y53150D02*
D03*
X1009842Y101969D02*
D03*
X961417Y159449D02*
D03*
X1009842Y208268D02*
D03*
X961417Y265748D02*
D03*
X1009842Y314567D02*
D03*
X961417Y372047D02*
D03*
X1009842Y420866D02*
D03*
X961417Y478346D02*
D03*
X1009842Y527165D02*
D03*
X961417Y584646D02*
D03*
X1009842Y633465D02*
D03*
X961417Y690945D02*
D03*
X1009842Y739764D02*
D03*
X961417Y797244D02*
D03*
X1009842Y846063D02*
D03*
X961417Y903543D02*
D03*
X1009842Y952362D02*
D03*
Y1058661D02*
D03*
X961417Y1009842D02*
D03*
X1067717Y53150D02*
D03*
X1116142Y101969D02*
D03*
X1067717Y159449D02*
D03*
X1116142Y208268D02*
D03*
X1067717Y265748D02*
D03*
X1116142Y314567D02*
D03*
X1067717Y372047D02*
D03*
X1116142Y420866D02*
D03*
X1067717Y478346D02*
D03*
X1116142Y527165D02*
D03*
X1067717Y584646D02*
D03*
X1116142Y633465D02*
D03*
X1067717Y690945D02*
D03*
X1116142Y739764D02*
D03*
X1067717Y797244D02*
D03*
X1116142Y846063D02*
D03*
X1067717Y903543D02*
D03*
X1116142Y952362D02*
D03*
Y1058661D02*
D03*
X1067717Y1009842D02*
D03*
X1174016Y53150D02*
D03*
X1222441Y101969D02*
D03*
X1174016Y159449D02*
D03*
X1222441Y208268D02*
D03*
X1174016Y265748D02*
D03*
X1222441Y314567D02*
D03*
X1174016Y372047D02*
D03*
X1222441Y420866D02*
D03*
X1174016Y478346D02*
D03*
X1222441Y527165D02*
D03*
X1174016Y584646D02*
D03*
X1222441Y633465D02*
D03*
X1174016Y690945D02*
D03*
X1222441Y739764D02*
D03*
X1174016Y797244D02*
D03*
X1222441Y846063D02*
D03*
X1174016Y903543D02*
D03*
X1222441Y952362D02*
D03*
Y1058661D02*
D03*
X1174016Y1009842D02*
D03*
X1280315Y53150D02*
D03*
X1328740Y101969D02*
D03*
X1280315Y159449D02*
D03*
X1328740Y208268D02*
D03*
X1280315Y265748D02*
D03*
X1328740Y314567D02*
D03*
X1280315Y372047D02*
D03*
X1328740Y420866D02*
D03*
X1280315Y478346D02*
D03*
X1328740Y527165D02*
D03*
X1280315Y584646D02*
D03*
X1328740Y633465D02*
D03*
X1280315Y690945D02*
D03*
X1328740Y739764D02*
D03*
X1280315Y797244D02*
D03*
X1328740Y846063D02*
D03*
X1280315Y903543D02*
D03*
X1328740Y952362D02*
D03*
Y1058661D02*
D03*
X1280315Y1009842D02*
D03*
X1386614Y53150D02*
D03*
X1435039Y101969D02*
D03*
X1386614Y159449D02*
D03*
X1435039Y208268D02*
D03*
X1386614Y265748D02*
D03*
X1435039Y314567D02*
D03*
X1386614Y372047D02*
D03*
X1435039Y420866D02*
D03*
X1386614Y478346D02*
D03*
X1435039Y527165D02*
D03*
X1386614Y584646D02*
D03*
X1435039Y633465D02*
D03*
X1386614Y690945D02*
D03*
X1435039Y739764D02*
D03*
X1386614Y797244D02*
D03*
X1435039Y846063D02*
D03*
X1386614Y903543D02*
D03*
X1435039Y952362D02*
D03*
Y1058661D02*
D03*
X1386614Y1009842D02*
D03*
X1492913Y53150D02*
D03*
X1541339Y101969D02*
D03*
X1492913Y159449D02*
D03*
X1541339Y208268D02*
D03*
X1492913Y265748D02*
D03*
X1541339Y314567D02*
D03*
X1492913Y372047D02*
D03*
X1541339Y420866D02*
D03*
X1492913Y478346D02*
D03*
X1541339Y527165D02*
D03*
X1492913Y584646D02*
D03*
X1541339Y633465D02*
D03*
X1492913Y690945D02*
D03*
X1541339Y739764D02*
D03*
X1492913Y797244D02*
D03*
X1541339Y846063D02*
D03*
X1492913Y903543D02*
D03*
X1541339Y952362D02*
D03*
Y1058661D02*
D03*
X1492913Y1009842D02*
D03*
X1599213Y53150D02*
D03*
X1647638Y101969D02*
D03*
X1599213Y159449D02*
D03*
X1647638Y208268D02*
D03*
X1599213Y265748D02*
D03*
X1647638Y314567D02*
D03*
X1599213Y372047D02*
D03*
X1647638Y420866D02*
D03*
X1599213Y478346D02*
D03*
X1647638Y527165D02*
D03*
X1599213Y584646D02*
D03*
X1647638Y633465D02*
D03*
X1599213Y690945D02*
D03*
X1647638Y739764D02*
D03*
X1599213Y797244D02*
D03*
X1647638Y846063D02*
D03*
X1599213Y903543D02*
D03*
X1647638Y952362D02*
D03*
Y1058661D02*
D03*
X1599213Y1009842D02*
D03*
M02*
