G04 Layer_Color=255*
%FSLAX25Y25*%
%MOIN*%
G70*
G01*
G75*
%ADD10R,0.02480X0.01417*%
%ADD11R,0.02126X0.03111*%
%ADD12C,0.05906*%
%ADD13P,0.06392X8X202.5*%
D10*
X14000Y1009900D02*
D03*
X20183D02*
D03*
X14000Y903601D02*
D03*
X20183D02*
D03*
X14000Y797302D02*
D03*
X20183D02*
D03*
X14000Y691002D02*
D03*
X20183D02*
D03*
X14000Y584703D02*
D03*
X20183D02*
D03*
X14000Y478404D02*
D03*
X20183D02*
D03*
X14000Y372105D02*
D03*
X20183D02*
D03*
X14000Y265806D02*
D03*
X20183D02*
D03*
X14000Y159506D02*
D03*
X20183D02*
D03*
X14000Y53207D02*
D03*
X20183D02*
D03*
X120299D02*
D03*
X126482D02*
D03*
X120299Y159506D02*
D03*
X126482D02*
D03*
X120299Y265806D02*
D03*
X126482D02*
D03*
X120299Y372105D02*
D03*
X126482D02*
D03*
X120299Y478404D02*
D03*
X126482D02*
D03*
X120299Y584703D02*
D03*
X126482D02*
D03*
X120299Y691002D02*
D03*
X126482D02*
D03*
X120299Y797302D02*
D03*
X126482D02*
D03*
X120299Y903601D02*
D03*
X126482D02*
D03*
X120299Y1009900D02*
D03*
X126482D02*
D03*
X226598Y53207D02*
D03*
X232781D02*
D03*
X226598Y159506D02*
D03*
X232781D02*
D03*
X226598Y265806D02*
D03*
X232781D02*
D03*
X226598Y372105D02*
D03*
X232781D02*
D03*
X226598Y478404D02*
D03*
X232781D02*
D03*
X226598Y584703D02*
D03*
X232781D02*
D03*
X226598Y691002D02*
D03*
X232781D02*
D03*
X226598Y797302D02*
D03*
X232781D02*
D03*
X226598Y903601D02*
D03*
X232781D02*
D03*
X226598Y1009900D02*
D03*
X232781D02*
D03*
X332898Y53207D02*
D03*
X339080D02*
D03*
X332898Y159506D02*
D03*
X339080D02*
D03*
X332898Y265806D02*
D03*
X339080D02*
D03*
X332898Y372105D02*
D03*
X339080D02*
D03*
X332898Y478404D02*
D03*
X339080D02*
D03*
X332898Y584703D02*
D03*
X339080D02*
D03*
X332898Y691002D02*
D03*
X339080D02*
D03*
X332898Y797302D02*
D03*
X339080D02*
D03*
X332898Y903601D02*
D03*
X339080D02*
D03*
X332898Y1009900D02*
D03*
X339080D02*
D03*
X439197Y53207D02*
D03*
X445380D02*
D03*
X439197Y159506D02*
D03*
X445380D02*
D03*
X439197Y265806D02*
D03*
X445380D02*
D03*
X439197Y372105D02*
D03*
X445380D02*
D03*
X439197Y478404D02*
D03*
X445380D02*
D03*
X439197Y584703D02*
D03*
X445380D02*
D03*
X439197Y691002D02*
D03*
X445380D02*
D03*
X439197Y797302D02*
D03*
X445380D02*
D03*
X439197Y903601D02*
D03*
X445380D02*
D03*
X439197Y1009900D02*
D03*
X445380D02*
D03*
X545496Y53207D02*
D03*
X551679D02*
D03*
X545496Y159506D02*
D03*
X551679D02*
D03*
X545496Y265806D02*
D03*
X551679D02*
D03*
X545496Y372105D02*
D03*
X551679D02*
D03*
X545496Y478404D02*
D03*
X551679D02*
D03*
X545496Y584703D02*
D03*
X551679D02*
D03*
X545496Y691002D02*
D03*
X551679D02*
D03*
X545496Y797302D02*
D03*
X551679D02*
D03*
X545496Y903601D02*
D03*
X551679D02*
D03*
X545496Y1009900D02*
D03*
X551679D02*
D03*
X651795Y53207D02*
D03*
X657978D02*
D03*
X651795Y159506D02*
D03*
X657978D02*
D03*
X651795Y265806D02*
D03*
X657978D02*
D03*
X651795Y372105D02*
D03*
X657978D02*
D03*
X651795Y478404D02*
D03*
X657978D02*
D03*
X651795Y584703D02*
D03*
X657978D02*
D03*
X651795Y691002D02*
D03*
X657978D02*
D03*
X651795Y797302D02*
D03*
X657978D02*
D03*
X651795Y903601D02*
D03*
X657978D02*
D03*
X651795Y1009900D02*
D03*
X657978D02*
D03*
X758095Y53207D02*
D03*
X764277D02*
D03*
X758095Y159506D02*
D03*
X764277D02*
D03*
X758095Y265806D02*
D03*
X764277D02*
D03*
X758095Y372105D02*
D03*
X764277D02*
D03*
X758095Y478404D02*
D03*
X764277D02*
D03*
X758095Y584703D02*
D03*
X764277D02*
D03*
X758095Y691002D02*
D03*
X764277D02*
D03*
X758095Y797302D02*
D03*
X764277D02*
D03*
X758095Y903601D02*
D03*
X764277D02*
D03*
X758095Y1009900D02*
D03*
X764277D02*
D03*
X864394Y53207D02*
D03*
X870576D02*
D03*
X864394Y159506D02*
D03*
X870576D02*
D03*
X864394Y265806D02*
D03*
X870576D02*
D03*
X864394Y372105D02*
D03*
X870576D02*
D03*
X864394Y478404D02*
D03*
X870576D02*
D03*
X864394Y584703D02*
D03*
X870576D02*
D03*
X864394Y691002D02*
D03*
X870576D02*
D03*
X864394Y797302D02*
D03*
X870576D02*
D03*
X864394Y903601D02*
D03*
X870576D02*
D03*
X864394Y1009900D02*
D03*
X870576D02*
D03*
X970693Y53207D02*
D03*
X976876D02*
D03*
X970693Y159506D02*
D03*
X976876D02*
D03*
X970693Y265806D02*
D03*
X976876D02*
D03*
X970693Y372105D02*
D03*
X976876D02*
D03*
X970693Y478404D02*
D03*
X976876D02*
D03*
X970693Y584703D02*
D03*
X976876D02*
D03*
X970693Y691002D02*
D03*
X976876D02*
D03*
X970693Y797302D02*
D03*
X976876D02*
D03*
X970693Y903601D02*
D03*
X976876D02*
D03*
X970693Y1009900D02*
D03*
X976876D02*
D03*
X1076992Y53207D02*
D03*
X1083175D02*
D03*
X1076992Y159506D02*
D03*
X1083175D02*
D03*
X1076992Y265806D02*
D03*
X1083175D02*
D03*
X1076992Y372105D02*
D03*
X1083175D02*
D03*
X1076992Y478404D02*
D03*
X1083175D02*
D03*
X1076992Y584703D02*
D03*
X1083175D02*
D03*
X1076992Y691002D02*
D03*
X1083175D02*
D03*
X1076992Y797302D02*
D03*
X1083175D02*
D03*
X1076992Y903601D02*
D03*
X1083175D02*
D03*
X1076992Y1009900D02*
D03*
X1083175D02*
D03*
X1183291Y53207D02*
D03*
X1189474D02*
D03*
X1183291Y159506D02*
D03*
X1189474D02*
D03*
X1183291Y265806D02*
D03*
X1189474D02*
D03*
X1183291Y372105D02*
D03*
X1189474D02*
D03*
X1183291Y478404D02*
D03*
X1189474D02*
D03*
X1183291Y584703D02*
D03*
X1189474D02*
D03*
X1183291Y691002D02*
D03*
X1189474D02*
D03*
X1183291Y797302D02*
D03*
X1189474D02*
D03*
X1183291Y903601D02*
D03*
X1189474D02*
D03*
X1183291Y1009900D02*
D03*
X1189474D02*
D03*
X1289591Y53207D02*
D03*
X1295773D02*
D03*
X1289591Y159506D02*
D03*
X1295773D02*
D03*
X1289591Y265806D02*
D03*
X1295773D02*
D03*
X1289591Y372105D02*
D03*
X1295773D02*
D03*
X1289591Y478404D02*
D03*
X1295773D02*
D03*
X1289591Y584703D02*
D03*
X1295773D02*
D03*
X1289591Y691002D02*
D03*
X1295773D02*
D03*
X1289591Y797302D02*
D03*
X1295773D02*
D03*
X1289591Y903601D02*
D03*
X1295773D02*
D03*
X1289591Y1009900D02*
D03*
X1295773D02*
D03*
X1395890Y53207D02*
D03*
X1402073D02*
D03*
X1395890Y159506D02*
D03*
X1402073D02*
D03*
X1395890Y265806D02*
D03*
X1402073D02*
D03*
X1395890Y372105D02*
D03*
X1402073D02*
D03*
X1395890Y478404D02*
D03*
X1402073D02*
D03*
X1395890Y584703D02*
D03*
X1402073D02*
D03*
X1395890Y691002D02*
D03*
X1402073D02*
D03*
X1395890Y797302D02*
D03*
X1402073D02*
D03*
X1395890Y903601D02*
D03*
X1402073D02*
D03*
X1395890Y1009900D02*
D03*
X1402073D02*
D03*
X1502189Y53207D02*
D03*
X1508372D02*
D03*
X1502189Y159506D02*
D03*
X1508372D02*
D03*
X1502189Y265806D02*
D03*
X1508372D02*
D03*
X1502189Y372105D02*
D03*
X1508372D02*
D03*
X1502189Y478404D02*
D03*
X1508372D02*
D03*
X1502189Y584703D02*
D03*
X1508372D02*
D03*
X1502189Y691002D02*
D03*
X1508372D02*
D03*
X1502189Y797302D02*
D03*
X1508372D02*
D03*
X1502189Y903601D02*
D03*
X1508372D02*
D03*
X1502189Y1009900D02*
D03*
X1508372D02*
D03*
X1608488Y53207D02*
D03*
X1614671D02*
D03*
X1608488Y159506D02*
D03*
X1614671D02*
D03*
X1608488Y265806D02*
D03*
X1614671D02*
D03*
X1608488Y372105D02*
D03*
X1614671D02*
D03*
X1608488Y478404D02*
D03*
X1614671D02*
D03*
X1608488Y584703D02*
D03*
X1614671D02*
D03*
X1608488Y691002D02*
D03*
X1614671D02*
D03*
X1608488Y797302D02*
D03*
X1614671D02*
D03*
X1608488Y903601D02*
D03*
X1614671D02*
D03*
X1608488Y1009900D02*
D03*
X1614671D02*
D03*
D11*
X53084Y941549D02*
D03*
Y945841D02*
D03*
Y835250D02*
D03*
Y839542D02*
D03*
Y728951D02*
D03*
Y733243D02*
D03*
Y622651D02*
D03*
Y626943D02*
D03*
Y516352D02*
D03*
Y520644D02*
D03*
Y410053D02*
D03*
Y414345D02*
D03*
Y303754D02*
D03*
Y308046D02*
D03*
Y197455D02*
D03*
Y201747D02*
D03*
Y91155D02*
D03*
Y95447D02*
D03*
X159383Y91155D02*
D03*
Y95447D02*
D03*
Y197455D02*
D03*
Y201747D02*
D03*
Y303754D02*
D03*
Y308046D02*
D03*
Y410053D02*
D03*
Y414345D02*
D03*
Y516352D02*
D03*
Y520644D02*
D03*
Y622651D02*
D03*
Y626943D02*
D03*
Y728951D02*
D03*
Y733243D02*
D03*
Y835250D02*
D03*
Y839542D02*
D03*
Y941549D02*
D03*
Y945841D02*
D03*
Y1047848D02*
D03*
Y1052140D02*
D03*
X265683Y91155D02*
D03*
Y95447D02*
D03*
Y197455D02*
D03*
Y201747D02*
D03*
Y303754D02*
D03*
Y308046D02*
D03*
Y410053D02*
D03*
Y414345D02*
D03*
Y516352D02*
D03*
Y520644D02*
D03*
Y622651D02*
D03*
Y626943D02*
D03*
Y728951D02*
D03*
Y733243D02*
D03*
Y835250D02*
D03*
Y839542D02*
D03*
Y941549D02*
D03*
Y945841D02*
D03*
Y1047848D02*
D03*
Y1052140D02*
D03*
X371982Y91155D02*
D03*
Y95447D02*
D03*
Y197455D02*
D03*
Y201747D02*
D03*
Y303754D02*
D03*
Y308046D02*
D03*
Y410053D02*
D03*
Y414345D02*
D03*
Y516352D02*
D03*
Y520644D02*
D03*
Y622651D02*
D03*
Y626943D02*
D03*
Y728951D02*
D03*
Y733243D02*
D03*
Y835250D02*
D03*
Y839542D02*
D03*
Y941549D02*
D03*
Y945841D02*
D03*
Y1047848D02*
D03*
Y1052140D02*
D03*
X478281Y91155D02*
D03*
Y95447D02*
D03*
Y197455D02*
D03*
Y201747D02*
D03*
Y303754D02*
D03*
Y308046D02*
D03*
Y410053D02*
D03*
Y414345D02*
D03*
Y516352D02*
D03*
Y520644D02*
D03*
Y622651D02*
D03*
Y626943D02*
D03*
Y728951D02*
D03*
Y733243D02*
D03*
Y835250D02*
D03*
Y839542D02*
D03*
Y941549D02*
D03*
Y945841D02*
D03*
Y1047848D02*
D03*
Y1052140D02*
D03*
X584580Y91155D02*
D03*
Y95447D02*
D03*
Y197455D02*
D03*
Y201747D02*
D03*
Y303754D02*
D03*
Y308046D02*
D03*
Y410053D02*
D03*
Y414345D02*
D03*
Y516352D02*
D03*
Y520644D02*
D03*
Y622651D02*
D03*
Y626943D02*
D03*
Y728951D02*
D03*
Y733243D02*
D03*
Y835250D02*
D03*
Y839542D02*
D03*
Y941549D02*
D03*
Y945841D02*
D03*
Y1047848D02*
D03*
Y1052140D02*
D03*
X690879Y91155D02*
D03*
Y95447D02*
D03*
Y197455D02*
D03*
Y201747D02*
D03*
Y303754D02*
D03*
Y308046D02*
D03*
Y410053D02*
D03*
Y414345D02*
D03*
Y516352D02*
D03*
Y520644D02*
D03*
Y622651D02*
D03*
Y626943D02*
D03*
Y728951D02*
D03*
Y733243D02*
D03*
Y835250D02*
D03*
Y839542D02*
D03*
Y941549D02*
D03*
Y945841D02*
D03*
Y1047848D02*
D03*
Y1052140D02*
D03*
X797179Y91155D02*
D03*
Y95447D02*
D03*
Y197455D02*
D03*
Y201747D02*
D03*
Y303754D02*
D03*
Y308046D02*
D03*
Y410053D02*
D03*
Y414345D02*
D03*
Y516352D02*
D03*
Y520644D02*
D03*
Y622651D02*
D03*
Y626943D02*
D03*
Y728951D02*
D03*
Y733243D02*
D03*
Y835250D02*
D03*
Y839542D02*
D03*
Y941549D02*
D03*
Y945841D02*
D03*
Y1047848D02*
D03*
Y1052140D02*
D03*
X903478Y91155D02*
D03*
Y95447D02*
D03*
Y197455D02*
D03*
Y201747D02*
D03*
Y303754D02*
D03*
Y308046D02*
D03*
Y410053D02*
D03*
Y414345D02*
D03*
Y516352D02*
D03*
Y520644D02*
D03*
Y622651D02*
D03*
Y626943D02*
D03*
Y728951D02*
D03*
Y733243D02*
D03*
Y835250D02*
D03*
Y839542D02*
D03*
Y941549D02*
D03*
Y945841D02*
D03*
Y1047848D02*
D03*
Y1052140D02*
D03*
X1009777Y91155D02*
D03*
Y95447D02*
D03*
Y197455D02*
D03*
Y201747D02*
D03*
Y303754D02*
D03*
Y308046D02*
D03*
Y410053D02*
D03*
Y414345D02*
D03*
Y516352D02*
D03*
Y520644D02*
D03*
Y622651D02*
D03*
Y626943D02*
D03*
Y728951D02*
D03*
Y733243D02*
D03*
Y835250D02*
D03*
Y839542D02*
D03*
Y941549D02*
D03*
Y945841D02*
D03*
Y1047848D02*
D03*
Y1052140D02*
D03*
X1116076Y91155D02*
D03*
Y95447D02*
D03*
Y197455D02*
D03*
Y201747D02*
D03*
Y303754D02*
D03*
Y308046D02*
D03*
Y410053D02*
D03*
Y414345D02*
D03*
Y516352D02*
D03*
Y520644D02*
D03*
Y622651D02*
D03*
Y626943D02*
D03*
Y728951D02*
D03*
Y733243D02*
D03*
Y835250D02*
D03*
Y839542D02*
D03*
Y941549D02*
D03*
Y945841D02*
D03*
Y1047848D02*
D03*
Y1052140D02*
D03*
X1222376Y91155D02*
D03*
Y95447D02*
D03*
Y197455D02*
D03*
Y201747D02*
D03*
Y303754D02*
D03*
Y308046D02*
D03*
Y410053D02*
D03*
Y414345D02*
D03*
Y516352D02*
D03*
Y520644D02*
D03*
Y622651D02*
D03*
Y626943D02*
D03*
Y728951D02*
D03*
Y733243D02*
D03*
Y835250D02*
D03*
Y839542D02*
D03*
Y941549D02*
D03*
Y945841D02*
D03*
Y1047848D02*
D03*
Y1052140D02*
D03*
X1328675Y91155D02*
D03*
Y95447D02*
D03*
Y197455D02*
D03*
Y201747D02*
D03*
Y303754D02*
D03*
Y308046D02*
D03*
Y410053D02*
D03*
Y414345D02*
D03*
Y516352D02*
D03*
Y520644D02*
D03*
Y622651D02*
D03*
Y626943D02*
D03*
Y728951D02*
D03*
Y733243D02*
D03*
Y835250D02*
D03*
Y839542D02*
D03*
Y941549D02*
D03*
Y945841D02*
D03*
Y1047848D02*
D03*
Y1052140D02*
D03*
X1434974Y91155D02*
D03*
Y95447D02*
D03*
Y197455D02*
D03*
Y201747D02*
D03*
Y303754D02*
D03*
Y308046D02*
D03*
Y410053D02*
D03*
Y414345D02*
D03*
Y516352D02*
D03*
Y520644D02*
D03*
Y622651D02*
D03*
Y626943D02*
D03*
Y728951D02*
D03*
Y733243D02*
D03*
Y835250D02*
D03*
Y839542D02*
D03*
Y941549D02*
D03*
Y945841D02*
D03*
Y1047848D02*
D03*
Y1052140D02*
D03*
X1541273Y91155D02*
D03*
Y95447D02*
D03*
Y197455D02*
D03*
Y201747D02*
D03*
Y303754D02*
D03*
Y308046D02*
D03*
Y410053D02*
D03*
Y414345D02*
D03*
Y516352D02*
D03*
Y520644D02*
D03*
Y622651D02*
D03*
Y626943D02*
D03*
Y728951D02*
D03*
Y733243D02*
D03*
Y835250D02*
D03*
Y839542D02*
D03*
Y941549D02*
D03*
Y945841D02*
D03*
Y1047848D02*
D03*
Y1052140D02*
D03*
X1647572Y91155D02*
D03*
Y95447D02*
D03*
Y197455D02*
D03*
Y201747D02*
D03*
Y303754D02*
D03*
Y308046D02*
D03*
Y410053D02*
D03*
Y414345D02*
D03*
Y516352D02*
D03*
Y520644D02*
D03*
Y622651D02*
D03*
Y626943D02*
D03*
Y728951D02*
D03*
Y733243D02*
D03*
Y835250D02*
D03*
Y839542D02*
D03*
Y941549D02*
D03*
Y945841D02*
D03*
Y1047848D02*
D03*
Y1052140D02*
D03*
X53084Y1047848D02*
D03*
Y1052140D02*
D03*
D12*
X143410Y1101220D02*
D03*
Y1111220D02*
D03*
X133410Y1101220D02*
D03*
Y1111220D02*
D03*
X123410Y1101220D02*
D03*
Y1111220D02*
D03*
X113410Y1101220D02*
D03*
Y1111220D02*
D03*
X103410Y1101220D02*
D03*
Y1111220D02*
D03*
X93410Y1101220D02*
D03*
Y1111220D02*
D03*
X83410Y1101220D02*
D03*
X53410D02*
D03*
X63410D02*
D03*
Y1111220D02*
D03*
X73410D02*
D03*
Y1101220D02*
D03*
X163410Y1111220D02*
D03*
X153410D02*
D03*
Y1101220D02*
D03*
X83410Y1111220D02*
D03*
X53410D02*
D03*
X356008Y1101220D02*
D03*
Y1111220D02*
D03*
X346008Y1101220D02*
D03*
Y1111220D02*
D03*
X336008Y1101220D02*
D03*
Y1111220D02*
D03*
X326008Y1101220D02*
D03*
Y1111220D02*
D03*
X316008Y1101220D02*
D03*
Y1111220D02*
D03*
X306008Y1101220D02*
D03*
Y1111220D02*
D03*
X296008Y1101220D02*
D03*
X266008D02*
D03*
X276008D02*
D03*
Y1111220D02*
D03*
X286008D02*
D03*
Y1101220D02*
D03*
X376008Y1111220D02*
D03*
X366008D02*
D03*
Y1101220D02*
D03*
X296008Y1111220D02*
D03*
X266008D02*
D03*
X568607Y1101220D02*
D03*
Y1111220D02*
D03*
X558607Y1101220D02*
D03*
Y1111220D02*
D03*
X548607Y1101220D02*
D03*
Y1111220D02*
D03*
X538607Y1101220D02*
D03*
Y1111220D02*
D03*
X528607Y1101220D02*
D03*
Y1111220D02*
D03*
X518607Y1101220D02*
D03*
Y1111220D02*
D03*
X508607Y1101220D02*
D03*
X478607D02*
D03*
X488607D02*
D03*
Y1111220D02*
D03*
X498607D02*
D03*
Y1101220D02*
D03*
X588607Y1111220D02*
D03*
X578607D02*
D03*
Y1101220D02*
D03*
X508607Y1111220D02*
D03*
X478607D02*
D03*
X781205Y1101220D02*
D03*
Y1111220D02*
D03*
X771205Y1101220D02*
D03*
Y1111220D02*
D03*
X761205Y1101220D02*
D03*
Y1111220D02*
D03*
X751205Y1101220D02*
D03*
Y1111220D02*
D03*
X741205Y1101220D02*
D03*
Y1111220D02*
D03*
X731205Y1101220D02*
D03*
Y1111220D02*
D03*
X721205Y1101220D02*
D03*
X691205D02*
D03*
X701205D02*
D03*
Y1111220D02*
D03*
X711205D02*
D03*
Y1101220D02*
D03*
X801205Y1111220D02*
D03*
X791205D02*
D03*
Y1101220D02*
D03*
X721205Y1111220D02*
D03*
X691205D02*
D03*
X993804Y1101220D02*
D03*
Y1111220D02*
D03*
X983804Y1101220D02*
D03*
Y1111220D02*
D03*
X973804Y1101220D02*
D03*
Y1111220D02*
D03*
X963804Y1101220D02*
D03*
Y1111220D02*
D03*
X953804Y1101220D02*
D03*
Y1111220D02*
D03*
X943804Y1101220D02*
D03*
Y1111220D02*
D03*
X933804Y1101220D02*
D03*
X903804D02*
D03*
X913804D02*
D03*
Y1111220D02*
D03*
X923804D02*
D03*
Y1101220D02*
D03*
X1013804Y1111220D02*
D03*
X1003804D02*
D03*
Y1101220D02*
D03*
X933804Y1111220D02*
D03*
X903804D02*
D03*
X1206402Y1101220D02*
D03*
Y1111220D02*
D03*
X1196402Y1101220D02*
D03*
Y1111220D02*
D03*
X1186402Y1101220D02*
D03*
Y1111220D02*
D03*
X1176402Y1101220D02*
D03*
Y1111220D02*
D03*
X1166402Y1101220D02*
D03*
Y1111220D02*
D03*
X1156402Y1101220D02*
D03*
Y1111220D02*
D03*
X1146402Y1101220D02*
D03*
X1116402D02*
D03*
X1126402D02*
D03*
Y1111220D02*
D03*
X1136402D02*
D03*
Y1101220D02*
D03*
X1226402Y1111220D02*
D03*
X1216402D02*
D03*
Y1101220D02*
D03*
X1146402Y1111220D02*
D03*
X1116402D02*
D03*
X1419001Y1101220D02*
D03*
Y1111220D02*
D03*
X1409000Y1101220D02*
D03*
Y1111220D02*
D03*
X1399000Y1101220D02*
D03*
Y1111220D02*
D03*
X1389001Y1101220D02*
D03*
Y1111220D02*
D03*
X1379000Y1101220D02*
D03*
Y1111220D02*
D03*
X1369001Y1101220D02*
D03*
Y1111220D02*
D03*
X1359000Y1101220D02*
D03*
X1329000D02*
D03*
X1339001D02*
D03*
Y1111220D02*
D03*
X1349000D02*
D03*
Y1101220D02*
D03*
X1439001Y1111220D02*
D03*
X1429000D02*
D03*
Y1101220D02*
D03*
X1359000Y1111220D02*
D03*
X1329000D02*
D03*
X1631599Y1101220D02*
D03*
Y1111220D02*
D03*
X1621599Y1101220D02*
D03*
Y1111220D02*
D03*
X1611599Y1101220D02*
D03*
Y1111220D02*
D03*
X1601599Y1101220D02*
D03*
Y1111220D02*
D03*
X1591599Y1101220D02*
D03*
Y1111220D02*
D03*
X1581599Y1101220D02*
D03*
Y1111220D02*
D03*
X1571599Y1101220D02*
D03*
X1541599D02*
D03*
X1551599D02*
D03*
Y1111220D02*
D03*
X1561599D02*
D03*
Y1101220D02*
D03*
X1651599Y1111220D02*
D03*
X1641599D02*
D03*
Y1101220D02*
D03*
X1571599Y1111220D02*
D03*
X1541599D02*
D03*
D13*
X163410Y1101220D02*
D03*
X376008D02*
D03*
X588607D02*
D03*
X801205D02*
D03*
X1013804D02*
D03*
X1226402D02*
D03*
X1439001D02*
D03*
X1651599D02*
D03*
M02*
