G04 Layer_Color=16711935*
%FSLAX25Y25*%
%MOIN*%
G70*
G01*
G75*
%ADD22R,0.02926X0.03911*%
%ADD23C,0.06706*%
%ADD24P,0.07258X8X202.5*%
D22*
X53098Y1047854D02*
D03*
Y1052146D02*
D03*
X53100Y941555D02*
D03*
Y945847D02*
D03*
Y835256D02*
D03*
Y839548D02*
D03*
Y728957D02*
D03*
Y733248D02*
D03*
Y622657D02*
D03*
Y626949D02*
D03*
Y516358D02*
D03*
Y520650D02*
D03*
Y410059D02*
D03*
Y414351D02*
D03*
Y303760D02*
D03*
Y308051D02*
D03*
Y197460D02*
D03*
Y201752D02*
D03*
Y91161D02*
D03*
Y95453D02*
D03*
X159399Y91161D02*
D03*
Y95453D02*
D03*
Y197460D02*
D03*
Y201752D02*
D03*
Y303760D02*
D03*
Y308051D02*
D03*
Y410059D02*
D03*
Y414351D02*
D03*
Y516358D02*
D03*
Y520650D02*
D03*
Y622657D02*
D03*
Y626949D02*
D03*
Y728957D02*
D03*
Y733248D02*
D03*
Y835256D02*
D03*
Y839548D02*
D03*
Y941555D02*
D03*
Y945847D02*
D03*
Y1047854D02*
D03*
Y1052146D02*
D03*
X265698Y91161D02*
D03*
Y95453D02*
D03*
Y197460D02*
D03*
Y201752D02*
D03*
Y303760D02*
D03*
Y308051D02*
D03*
Y410059D02*
D03*
Y414351D02*
D03*
Y516358D02*
D03*
Y520650D02*
D03*
Y622657D02*
D03*
Y626949D02*
D03*
Y728957D02*
D03*
Y733248D02*
D03*
Y835256D02*
D03*
Y839548D02*
D03*
Y941555D02*
D03*
Y945847D02*
D03*
Y1047854D02*
D03*
Y1052146D02*
D03*
X371998Y91161D02*
D03*
Y95453D02*
D03*
Y197460D02*
D03*
Y201752D02*
D03*
Y303760D02*
D03*
Y308051D02*
D03*
Y410059D02*
D03*
Y414351D02*
D03*
Y516358D02*
D03*
Y520650D02*
D03*
Y622657D02*
D03*
Y626949D02*
D03*
Y728957D02*
D03*
Y733248D02*
D03*
Y835256D02*
D03*
Y839548D02*
D03*
Y941555D02*
D03*
Y945847D02*
D03*
Y1047854D02*
D03*
Y1052146D02*
D03*
X478297Y91161D02*
D03*
Y95453D02*
D03*
Y197460D02*
D03*
Y201752D02*
D03*
Y303760D02*
D03*
Y308051D02*
D03*
Y410059D02*
D03*
Y414351D02*
D03*
Y516358D02*
D03*
Y520650D02*
D03*
Y622657D02*
D03*
Y626949D02*
D03*
Y728957D02*
D03*
Y733248D02*
D03*
Y835256D02*
D03*
Y839548D02*
D03*
Y941555D02*
D03*
Y945847D02*
D03*
Y1047854D02*
D03*
Y1052146D02*
D03*
X584596Y91161D02*
D03*
Y95453D02*
D03*
Y197460D02*
D03*
Y201752D02*
D03*
Y303760D02*
D03*
Y308051D02*
D03*
Y410059D02*
D03*
Y414351D02*
D03*
Y516358D02*
D03*
Y520650D02*
D03*
Y622657D02*
D03*
Y626949D02*
D03*
Y728957D02*
D03*
Y733248D02*
D03*
Y835256D02*
D03*
Y839548D02*
D03*
Y941555D02*
D03*
Y945847D02*
D03*
Y1047854D02*
D03*
Y1052146D02*
D03*
X690895Y91161D02*
D03*
Y95453D02*
D03*
Y197460D02*
D03*
Y201752D02*
D03*
Y303760D02*
D03*
Y308051D02*
D03*
Y410059D02*
D03*
Y414351D02*
D03*
Y516358D02*
D03*
Y520650D02*
D03*
Y622657D02*
D03*
Y626949D02*
D03*
Y728957D02*
D03*
Y733248D02*
D03*
Y835256D02*
D03*
Y839548D02*
D03*
Y941555D02*
D03*
Y945847D02*
D03*
Y1047854D02*
D03*
Y1052146D02*
D03*
X797194Y91161D02*
D03*
Y95453D02*
D03*
Y197460D02*
D03*
Y201752D02*
D03*
Y303760D02*
D03*
Y308051D02*
D03*
Y410059D02*
D03*
Y414351D02*
D03*
Y516358D02*
D03*
Y520650D02*
D03*
Y622657D02*
D03*
Y626949D02*
D03*
Y728957D02*
D03*
Y733248D02*
D03*
Y835256D02*
D03*
Y839548D02*
D03*
Y941555D02*
D03*
Y945847D02*
D03*
Y1047854D02*
D03*
Y1052146D02*
D03*
X903494Y91161D02*
D03*
Y95453D02*
D03*
Y197460D02*
D03*
Y201752D02*
D03*
Y303760D02*
D03*
Y308051D02*
D03*
Y410059D02*
D03*
Y414351D02*
D03*
Y516358D02*
D03*
Y520650D02*
D03*
Y622657D02*
D03*
Y626949D02*
D03*
Y728957D02*
D03*
Y733248D02*
D03*
Y835256D02*
D03*
Y839548D02*
D03*
Y941555D02*
D03*
Y945847D02*
D03*
Y1047854D02*
D03*
Y1052146D02*
D03*
X1009793Y91161D02*
D03*
Y95453D02*
D03*
Y197460D02*
D03*
Y201752D02*
D03*
Y303760D02*
D03*
Y308051D02*
D03*
Y410059D02*
D03*
Y414351D02*
D03*
Y516358D02*
D03*
Y520650D02*
D03*
Y622657D02*
D03*
Y626949D02*
D03*
Y728957D02*
D03*
Y733248D02*
D03*
Y835256D02*
D03*
Y839548D02*
D03*
Y941555D02*
D03*
Y945847D02*
D03*
Y1047854D02*
D03*
Y1052146D02*
D03*
X1116092Y91161D02*
D03*
Y95453D02*
D03*
Y197460D02*
D03*
Y201752D02*
D03*
Y303760D02*
D03*
Y308051D02*
D03*
Y410059D02*
D03*
Y414351D02*
D03*
Y516358D02*
D03*
Y520650D02*
D03*
Y622657D02*
D03*
Y626949D02*
D03*
Y728957D02*
D03*
Y733248D02*
D03*
Y835256D02*
D03*
Y839548D02*
D03*
Y941555D02*
D03*
Y945847D02*
D03*
Y1047854D02*
D03*
Y1052146D02*
D03*
X1222391Y91161D02*
D03*
Y95453D02*
D03*
Y197460D02*
D03*
Y201752D02*
D03*
Y303760D02*
D03*
Y308051D02*
D03*
Y410059D02*
D03*
Y414351D02*
D03*
Y516358D02*
D03*
Y520650D02*
D03*
Y622657D02*
D03*
Y626949D02*
D03*
Y728957D02*
D03*
Y733248D02*
D03*
Y835256D02*
D03*
Y839548D02*
D03*
Y941555D02*
D03*
Y945847D02*
D03*
Y1047854D02*
D03*
Y1052146D02*
D03*
X1328691Y91161D02*
D03*
Y95453D02*
D03*
Y197460D02*
D03*
Y201752D02*
D03*
Y303760D02*
D03*
Y308051D02*
D03*
Y410059D02*
D03*
Y414351D02*
D03*
Y516358D02*
D03*
Y520650D02*
D03*
Y622657D02*
D03*
Y626949D02*
D03*
Y728957D02*
D03*
Y733248D02*
D03*
Y835256D02*
D03*
Y839548D02*
D03*
Y941555D02*
D03*
Y945847D02*
D03*
Y1047854D02*
D03*
Y1052146D02*
D03*
X1434990Y91161D02*
D03*
Y95453D02*
D03*
Y197460D02*
D03*
Y201752D02*
D03*
Y303760D02*
D03*
Y308051D02*
D03*
Y410059D02*
D03*
Y414351D02*
D03*
Y516358D02*
D03*
Y520650D02*
D03*
Y622657D02*
D03*
Y626949D02*
D03*
Y728957D02*
D03*
Y733248D02*
D03*
Y835256D02*
D03*
Y839548D02*
D03*
Y941555D02*
D03*
Y945847D02*
D03*
Y1047854D02*
D03*
Y1052146D02*
D03*
X1541289Y91161D02*
D03*
Y95453D02*
D03*
Y197460D02*
D03*
Y201752D02*
D03*
Y303760D02*
D03*
Y308051D02*
D03*
Y410059D02*
D03*
Y414351D02*
D03*
Y516358D02*
D03*
Y520650D02*
D03*
Y622657D02*
D03*
Y626949D02*
D03*
Y728957D02*
D03*
Y733248D02*
D03*
Y835256D02*
D03*
Y839548D02*
D03*
Y941555D02*
D03*
Y945847D02*
D03*
Y1047854D02*
D03*
Y1052146D02*
D03*
X1647588Y91161D02*
D03*
Y95453D02*
D03*
Y197460D02*
D03*
Y201752D02*
D03*
Y303760D02*
D03*
Y308051D02*
D03*
Y410059D02*
D03*
Y414351D02*
D03*
Y516358D02*
D03*
Y520650D02*
D03*
Y622657D02*
D03*
Y626949D02*
D03*
Y728957D02*
D03*
Y733248D02*
D03*
Y835256D02*
D03*
Y839548D02*
D03*
Y941555D02*
D03*
Y945847D02*
D03*
Y1047854D02*
D03*
Y1052146D02*
D03*
D23*
X143410Y1101220D02*
D03*
Y1111220D02*
D03*
X133410Y1101220D02*
D03*
Y1111220D02*
D03*
X123410Y1101220D02*
D03*
Y1111220D02*
D03*
X113410Y1101220D02*
D03*
Y1111220D02*
D03*
X103410Y1101220D02*
D03*
Y1111220D02*
D03*
X93410Y1101220D02*
D03*
Y1111220D02*
D03*
X83410Y1101220D02*
D03*
X53410D02*
D03*
X63410D02*
D03*
Y1111220D02*
D03*
X73410D02*
D03*
Y1101220D02*
D03*
X163410Y1111220D02*
D03*
X153410D02*
D03*
Y1101220D02*
D03*
X83410Y1111220D02*
D03*
X53410D02*
D03*
X356008Y1101220D02*
D03*
Y1111220D02*
D03*
X346008Y1101220D02*
D03*
Y1111220D02*
D03*
X336008Y1101220D02*
D03*
Y1111220D02*
D03*
X326008Y1101220D02*
D03*
Y1111220D02*
D03*
X316008Y1101220D02*
D03*
Y1111220D02*
D03*
X306008Y1101220D02*
D03*
Y1111220D02*
D03*
X296008Y1101220D02*
D03*
X266008D02*
D03*
X276008D02*
D03*
Y1111220D02*
D03*
X286008D02*
D03*
Y1101220D02*
D03*
X376008Y1111220D02*
D03*
X366008D02*
D03*
Y1101220D02*
D03*
X296008Y1111220D02*
D03*
X266008D02*
D03*
X568607Y1101220D02*
D03*
Y1111220D02*
D03*
X558607Y1101220D02*
D03*
Y1111220D02*
D03*
X548607Y1101220D02*
D03*
Y1111220D02*
D03*
X538607Y1101220D02*
D03*
Y1111220D02*
D03*
X528607Y1101220D02*
D03*
Y1111220D02*
D03*
X518607Y1101220D02*
D03*
Y1111220D02*
D03*
X508607Y1101220D02*
D03*
X478607D02*
D03*
X488607D02*
D03*
Y1111220D02*
D03*
X498607D02*
D03*
Y1101220D02*
D03*
X588607Y1111220D02*
D03*
X578607D02*
D03*
Y1101220D02*
D03*
X508607Y1111220D02*
D03*
X478607D02*
D03*
X781205Y1101220D02*
D03*
Y1111220D02*
D03*
X771205Y1101220D02*
D03*
Y1111220D02*
D03*
X761205Y1101220D02*
D03*
Y1111220D02*
D03*
X751205Y1101220D02*
D03*
Y1111220D02*
D03*
X741205Y1101220D02*
D03*
Y1111220D02*
D03*
X731205Y1101220D02*
D03*
Y1111220D02*
D03*
X721205Y1101220D02*
D03*
X691205D02*
D03*
X701205D02*
D03*
Y1111220D02*
D03*
X711205D02*
D03*
Y1101220D02*
D03*
X801205Y1111220D02*
D03*
X791205D02*
D03*
Y1101220D02*
D03*
X721205Y1111220D02*
D03*
X691205D02*
D03*
X993804Y1101220D02*
D03*
Y1111220D02*
D03*
X983804Y1101220D02*
D03*
Y1111220D02*
D03*
X973804Y1101220D02*
D03*
Y1111220D02*
D03*
X963804Y1101220D02*
D03*
Y1111220D02*
D03*
X953804Y1101220D02*
D03*
Y1111220D02*
D03*
X943804Y1101220D02*
D03*
Y1111220D02*
D03*
X933804Y1101220D02*
D03*
X903804D02*
D03*
X913804D02*
D03*
Y1111220D02*
D03*
X923804D02*
D03*
Y1101220D02*
D03*
X1013804Y1111220D02*
D03*
X1003804D02*
D03*
Y1101220D02*
D03*
X933804Y1111220D02*
D03*
X903804D02*
D03*
X1206402Y1101220D02*
D03*
Y1111220D02*
D03*
X1196402Y1101220D02*
D03*
Y1111220D02*
D03*
X1186402Y1101220D02*
D03*
Y1111220D02*
D03*
X1176402Y1101220D02*
D03*
Y1111220D02*
D03*
X1166402Y1101220D02*
D03*
Y1111220D02*
D03*
X1156402Y1101220D02*
D03*
Y1111220D02*
D03*
X1146402Y1101220D02*
D03*
X1116402D02*
D03*
X1126402D02*
D03*
Y1111220D02*
D03*
X1136402D02*
D03*
Y1101220D02*
D03*
X1226402Y1111220D02*
D03*
X1216402D02*
D03*
Y1101220D02*
D03*
X1146402Y1111220D02*
D03*
X1116402D02*
D03*
X1419001Y1101220D02*
D03*
Y1111220D02*
D03*
X1409000Y1101220D02*
D03*
Y1111220D02*
D03*
X1399000Y1101220D02*
D03*
Y1111220D02*
D03*
X1389001Y1101220D02*
D03*
Y1111220D02*
D03*
X1379000Y1101220D02*
D03*
Y1111220D02*
D03*
X1369001Y1101220D02*
D03*
Y1111220D02*
D03*
X1359000Y1101220D02*
D03*
X1329000D02*
D03*
X1339001D02*
D03*
Y1111220D02*
D03*
X1349000D02*
D03*
Y1101220D02*
D03*
X1439001Y1111220D02*
D03*
X1429000D02*
D03*
Y1101220D02*
D03*
X1359000Y1111220D02*
D03*
X1329000D02*
D03*
X1631599Y1101220D02*
D03*
Y1111220D02*
D03*
X1621599Y1101220D02*
D03*
Y1111220D02*
D03*
X1611599Y1101220D02*
D03*
Y1111220D02*
D03*
X1601599Y1101220D02*
D03*
Y1111220D02*
D03*
X1591599Y1101220D02*
D03*
Y1111220D02*
D03*
X1581599Y1101220D02*
D03*
Y1111220D02*
D03*
X1571599Y1101220D02*
D03*
X1541599D02*
D03*
X1551599D02*
D03*
Y1111220D02*
D03*
X1561599D02*
D03*
Y1101220D02*
D03*
X1651599Y1111220D02*
D03*
X1641599D02*
D03*
Y1101220D02*
D03*
X1571599Y1111220D02*
D03*
X1541599D02*
D03*
D24*
X163410Y1101220D02*
D03*
X376008D02*
D03*
X588607D02*
D03*
X801205D02*
D03*
X1013804D02*
D03*
X1226402D02*
D03*
X1439001D02*
D03*
X1651599D02*
D03*
M02*
