G04 Layer_Color=128*
%FSLAX25Y25*%
%MOIN*%
G70*
G01*
G75*
%ADD11R,0.02126X0.03111*%
G36*
X1117155Y410616D02*
Y408661D01*
X1116998Y408503D01*
X1115187D01*
X1115029Y408661D01*
Y410616D01*
X1115752Y411673D01*
X1116432D01*
X1117155Y410616D01*
D02*
G37*
G36*
X1010856D02*
Y408661D01*
X1010698Y408503D01*
X1008887D01*
X1008730Y408661D01*
Y410616D01*
X1009453Y411673D01*
X1010133D01*
X1010856Y410616D01*
D02*
G37*
G36*
X1223454D02*
Y408661D01*
X1223297Y408503D01*
X1221486D01*
X1221328Y408661D01*
Y410616D01*
X1222051Y411673D01*
X1222731D01*
X1223454Y410616D01*
D02*
G37*
G36*
X1436053D02*
Y408661D01*
X1435895Y408503D01*
X1434084D01*
X1433927Y408661D01*
Y410616D01*
X1434650Y411673D01*
X1435330D01*
X1436053Y410616D01*
D02*
G37*
G36*
X1329753D02*
Y408661D01*
X1329596Y408503D01*
X1327785D01*
X1327627Y408661D01*
Y410616D01*
X1328350Y411673D01*
X1329031D01*
X1329753Y410616D01*
D02*
G37*
G36*
X585659D02*
Y408661D01*
X585502Y408503D01*
X583691D01*
X583533Y408661D01*
Y410616D01*
X584256Y411673D01*
X584936D01*
X585659Y410616D01*
D02*
G37*
G36*
X479360D02*
Y408661D01*
X479202Y408503D01*
X477391D01*
X477234Y408661D01*
Y410616D01*
X477957Y411673D01*
X478637D01*
X479360Y410616D01*
D02*
G37*
G36*
X691958D02*
Y408661D01*
X691801Y408503D01*
X689990D01*
X689832Y408661D01*
Y410616D01*
X690555Y411673D01*
X691235D01*
X691958Y410616D01*
D02*
G37*
G36*
X904557D02*
Y408661D01*
X904399Y408503D01*
X902588D01*
X902431Y408661D01*
Y410616D01*
X903154Y411673D01*
X903834D01*
X904557Y410616D01*
D02*
G37*
G36*
X798257D02*
Y408661D01*
X798100Y408503D01*
X796289D01*
X796132Y408661D01*
Y410616D01*
X796854Y411673D01*
X797535D01*
X798257Y410616D01*
D02*
G37*
G36*
X479360Y415748D02*
Y413794D01*
X478637Y412736D01*
X477957D01*
X477234Y413794D01*
Y415748D01*
X477391Y415906D01*
X479202D01*
X479360Y415748D01*
D02*
G37*
G36*
X373061D02*
Y413794D01*
X372338Y412736D01*
X371657D01*
X370935Y413794D01*
Y415748D01*
X371092Y415906D01*
X372903D01*
X373061Y415748D01*
D02*
G37*
G36*
X585659D02*
Y413794D01*
X584936Y412736D01*
X584256D01*
X583533Y413794D01*
Y415748D01*
X583691Y415906D01*
X585502D01*
X585659Y415748D01*
D02*
G37*
G36*
X798257D02*
Y413794D01*
X797535Y412736D01*
X796854D01*
X796132Y413794D01*
Y415748D01*
X796289Y415906D01*
X798100D01*
X798257Y415748D01*
D02*
G37*
G36*
X691958D02*
Y413794D01*
X691235Y412736D01*
X690555D01*
X689832Y413794D01*
Y415748D01*
X689990Y415906D01*
X691801D01*
X691958Y415748D01*
D02*
G37*
G36*
X1648651Y410616D02*
Y408661D01*
X1648494Y408503D01*
X1646683D01*
X1646525Y408661D01*
Y410616D01*
X1647248Y411673D01*
X1647928D01*
X1648651Y410616D01*
D02*
G37*
G36*
X1542352D02*
Y408661D01*
X1542194Y408503D01*
X1540384D01*
X1540226Y408661D01*
Y410616D01*
X1540949Y411673D01*
X1541629D01*
X1542352Y410616D01*
D02*
G37*
G36*
X54163Y415748D02*
Y413794D01*
X53440Y412736D01*
X52760D01*
X52037Y413794D01*
Y415748D01*
X52194Y415906D01*
X54005D01*
X54163Y415748D01*
D02*
G37*
G36*
X266761D02*
Y413794D01*
X266039Y412736D01*
X265358D01*
X264635Y413794D01*
Y415748D01*
X264793Y415906D01*
X266604D01*
X266761Y415748D01*
D02*
G37*
G36*
X160462D02*
Y413794D01*
X159739Y412736D01*
X159059D01*
X158336Y413794D01*
Y415748D01*
X158494Y415906D01*
X160305D01*
X160462Y415748D01*
D02*
G37*
G36*
X691958Y309449D02*
Y307495D01*
X691235Y306437D01*
X690555D01*
X689832Y307495D01*
Y309449D01*
X689990Y309607D01*
X691801D01*
X691958Y309449D01*
D02*
G37*
G36*
X585659D02*
Y307495D01*
X584936Y306437D01*
X584256D01*
X583533Y307495D01*
Y309449D01*
X583691Y309607D01*
X585502D01*
X585659Y309449D01*
D02*
G37*
G36*
X798257D02*
Y307495D01*
X797535Y306437D01*
X796854D01*
X796132Y307495D01*
Y309449D01*
X796289Y309607D01*
X798100D01*
X798257Y309449D01*
D02*
G37*
G36*
X1010856D02*
Y307495D01*
X1010133Y306437D01*
X1009453D01*
X1008730Y307495D01*
Y309449D01*
X1008887Y309607D01*
X1010698D01*
X1010856Y309449D01*
D02*
G37*
G36*
X904557D02*
Y307495D01*
X903834Y306437D01*
X903154D01*
X902431Y307495D01*
Y309449D01*
X902588Y309607D01*
X904399D01*
X904557Y309449D01*
D02*
G37*
G36*
X160462D02*
Y307495D01*
X159739Y306437D01*
X159059D01*
X158336Y307495D01*
Y309449D01*
X158494Y309607D01*
X160305D01*
X160462Y309449D01*
D02*
G37*
G36*
X54163D02*
Y307495D01*
X53440Y306437D01*
X52760D01*
X52037Y307495D01*
Y309449D01*
X52194Y309607D01*
X54005D01*
X54163Y309449D01*
D02*
G37*
G36*
X266761D02*
Y307495D01*
X266039Y306437D01*
X265358D01*
X264635Y307495D01*
Y309449D01*
X264793Y309607D01*
X266604D01*
X266761Y309449D01*
D02*
G37*
G36*
X479360D02*
Y307495D01*
X478637Y306437D01*
X477957D01*
X477234Y307495D01*
Y309449D01*
X477391Y309607D01*
X479202D01*
X479360Y309449D01*
D02*
G37*
G36*
X373061D02*
Y307495D01*
X372338Y306437D01*
X371657D01*
X370935Y307495D01*
Y309449D01*
X371092Y309607D01*
X372903D01*
X373061Y309449D01*
D02*
G37*
G36*
X54163Y410616D02*
Y408661D01*
X54005Y408503D01*
X52194D01*
X52037Y408661D01*
Y410616D01*
X52760Y411673D01*
X53440D01*
X54163Y410616D01*
D02*
G37*
G36*
X1648651Y309449D02*
Y307495D01*
X1647928Y306437D01*
X1647248D01*
X1646525Y307495D01*
Y309449D01*
X1646683Y309607D01*
X1648494D01*
X1648651Y309449D01*
D02*
G37*
G36*
X160462Y410616D02*
Y408661D01*
X160305Y408503D01*
X158494D01*
X158336Y408661D01*
Y410616D01*
X159059Y411673D01*
X159739D01*
X160462Y410616D01*
D02*
G37*
G36*
X373061D02*
Y408661D01*
X372903Y408503D01*
X371092D01*
X370935Y408661D01*
Y410616D01*
X371657Y411673D01*
X372338D01*
X373061Y410616D01*
D02*
G37*
G36*
X266761D02*
Y408661D01*
X266604Y408503D01*
X264793D01*
X264635Y408661D01*
Y410616D01*
X265358Y411673D01*
X266039D01*
X266761Y410616D01*
D02*
G37*
G36*
X1223454Y309449D02*
Y307495D01*
X1222731Y306437D01*
X1222051D01*
X1221328Y307495D01*
Y309449D01*
X1221486Y309607D01*
X1223297D01*
X1223454Y309449D01*
D02*
G37*
G36*
X1117155D02*
Y307495D01*
X1116432Y306437D01*
X1115752D01*
X1115029Y307495D01*
Y309449D01*
X1115187Y309607D01*
X1116998D01*
X1117155Y309449D01*
D02*
G37*
G36*
X1329753D02*
Y307495D01*
X1329031Y306437D01*
X1328350D01*
X1327627Y307495D01*
Y309449D01*
X1327785Y309607D01*
X1329596D01*
X1329753Y309449D01*
D02*
G37*
G36*
X1542352D02*
Y307495D01*
X1541629Y306437D01*
X1540949D01*
X1540226Y307495D01*
Y309449D01*
X1540384Y309607D01*
X1542194D01*
X1542352Y309449D01*
D02*
G37*
G36*
X1436053D02*
Y307495D01*
X1435330Y306437D01*
X1434650D01*
X1433927Y307495D01*
Y309449D01*
X1434084Y309607D01*
X1435895D01*
X1436053Y309449D01*
D02*
G37*
G36*
X266761Y522048D02*
Y520093D01*
X266039Y519035D01*
X265358D01*
X264635Y520093D01*
Y522048D01*
X264793Y522205D01*
X266604D01*
X266761Y522048D01*
D02*
G37*
G36*
X160462D02*
Y520093D01*
X159739Y519035D01*
X159059D01*
X158336Y520093D01*
Y522048D01*
X158494Y522205D01*
X160305D01*
X160462Y522048D01*
D02*
G37*
G36*
X373061D02*
Y520093D01*
X372338Y519035D01*
X371657D01*
X370935Y520093D01*
Y522048D01*
X371092Y522205D01*
X372903D01*
X373061Y522048D01*
D02*
G37*
G36*
X585659D02*
Y520093D01*
X584936Y519035D01*
X584256D01*
X583533Y520093D01*
Y522048D01*
X583691Y522205D01*
X585502D01*
X585659Y522048D01*
D02*
G37*
G36*
X479360D02*
Y520093D01*
X478637Y519035D01*
X477957D01*
X477234Y520093D01*
Y522048D01*
X477391Y522205D01*
X479202D01*
X479360Y522048D01*
D02*
G37*
G36*
X1436053Y516915D02*
Y514960D01*
X1435895Y514803D01*
X1434084D01*
X1433927Y514960D01*
Y516915D01*
X1434650Y517972D01*
X1435330D01*
X1436053Y516915D01*
D02*
G37*
G36*
X1329753D02*
Y514960D01*
X1329596Y514803D01*
X1327785D01*
X1327627Y514960D01*
Y516915D01*
X1328350Y517972D01*
X1329031D01*
X1329753Y516915D01*
D02*
G37*
G36*
X1542352D02*
Y514960D01*
X1542194Y514803D01*
X1540384D01*
X1540226Y514960D01*
Y516915D01*
X1540949Y517972D01*
X1541629D01*
X1542352Y516915D01*
D02*
G37*
G36*
X54163Y522048D02*
Y520093D01*
X53440Y519035D01*
X52760D01*
X52037Y520093D01*
Y522048D01*
X52194Y522205D01*
X54005D01*
X54163Y522048D01*
D02*
G37*
G36*
X1648651Y516915D02*
Y514960D01*
X1648494Y514803D01*
X1646683D01*
X1646525Y514960D01*
Y516915D01*
X1647248Y517972D01*
X1647928D01*
X1648651Y516915D01*
D02*
G37*
G36*
X1329753Y522048D02*
Y520093D01*
X1329031Y519035D01*
X1328350D01*
X1327627Y520093D01*
Y522048D01*
X1327785Y522205D01*
X1329596D01*
X1329753Y522048D01*
D02*
G37*
G36*
X1223454D02*
Y520093D01*
X1222731Y519035D01*
X1222051D01*
X1221328Y520093D01*
Y522048D01*
X1221486Y522205D01*
X1223297D01*
X1223454Y522048D01*
D02*
G37*
G36*
X1436053D02*
Y520093D01*
X1435330Y519035D01*
X1434650D01*
X1433927Y520093D01*
Y522048D01*
X1434084Y522205D01*
X1435895D01*
X1436053Y522048D01*
D02*
G37*
G36*
X1648651D02*
Y520093D01*
X1647928Y519035D01*
X1647248D01*
X1646525Y520093D01*
Y522048D01*
X1646683Y522205D01*
X1648494D01*
X1648651Y522048D01*
D02*
G37*
G36*
X1542352D02*
Y520093D01*
X1541629Y519035D01*
X1540949D01*
X1540226Y520093D01*
Y522048D01*
X1540384Y522205D01*
X1542194D01*
X1542352Y522048D01*
D02*
G37*
G36*
X798257D02*
Y520093D01*
X797535Y519035D01*
X796854D01*
X796132Y520093D01*
Y522048D01*
X796289Y522205D01*
X798100D01*
X798257Y522048D01*
D02*
G37*
G36*
X691958D02*
Y520093D01*
X691235Y519035D01*
X690555D01*
X689832Y520093D01*
Y522048D01*
X689990Y522205D01*
X691801D01*
X691958Y522048D01*
D02*
G37*
G36*
X904557D02*
Y520093D01*
X903834Y519035D01*
X903154D01*
X902431Y520093D01*
Y522048D01*
X902588Y522205D01*
X904399D01*
X904557Y522048D01*
D02*
G37*
G36*
X1117155D02*
Y520093D01*
X1116432Y519035D01*
X1115752D01*
X1115029Y520093D01*
Y522048D01*
X1115187Y522205D01*
X1116998D01*
X1117155Y522048D01*
D02*
G37*
G36*
X1010856D02*
Y520093D01*
X1010133Y519035D01*
X1009453D01*
X1008730Y520093D01*
Y522048D01*
X1008887Y522205D01*
X1010698D01*
X1010856Y522048D01*
D02*
G37*
G36*
X1542352Y415748D02*
Y413794D01*
X1541629Y412736D01*
X1540949D01*
X1540226Y413794D01*
Y415748D01*
X1540384Y415906D01*
X1542194D01*
X1542352Y415748D01*
D02*
G37*
G36*
X1436053D02*
Y413794D01*
X1435330Y412736D01*
X1434650D01*
X1433927Y413794D01*
Y415748D01*
X1434084Y415906D01*
X1435895D01*
X1436053Y415748D01*
D02*
G37*
G36*
X1648651D02*
Y413794D01*
X1647928Y412736D01*
X1647248D01*
X1646525Y413794D01*
Y415748D01*
X1646683Y415906D01*
X1648494D01*
X1648651Y415748D01*
D02*
G37*
G36*
X160462Y516915D02*
Y514960D01*
X160305Y514803D01*
X158494D01*
X158336Y514960D01*
Y516915D01*
X159059Y517972D01*
X159739D01*
X160462Y516915D01*
D02*
G37*
G36*
X54163D02*
Y514960D01*
X54005Y514803D01*
X52194D01*
X52037Y514960D01*
Y516915D01*
X52760Y517972D01*
X53440D01*
X54163Y516915D01*
D02*
G37*
G36*
X1010856Y415748D02*
Y413794D01*
X1010133Y412736D01*
X1009453D01*
X1008730Y413794D01*
Y415748D01*
X1008887Y415906D01*
X1010698D01*
X1010856Y415748D01*
D02*
G37*
G36*
X904557D02*
Y413794D01*
X903834Y412736D01*
X903154D01*
X902431Y413794D01*
Y415748D01*
X902588Y415906D01*
X904399D01*
X904557Y415748D01*
D02*
G37*
G36*
X1117155D02*
Y413794D01*
X1116432Y412736D01*
X1115752D01*
X1115029Y413794D01*
Y415748D01*
X1115187Y415906D01*
X1116998D01*
X1117155Y415748D01*
D02*
G37*
G36*
X1329753D02*
Y413794D01*
X1329031Y412736D01*
X1328350D01*
X1327627Y413794D01*
Y415748D01*
X1327785Y415906D01*
X1329596D01*
X1329753Y415748D01*
D02*
G37*
G36*
X1223454D02*
Y413794D01*
X1222731Y412736D01*
X1222051D01*
X1221328Y413794D01*
Y415748D01*
X1221486Y415906D01*
X1223297D01*
X1223454Y415748D01*
D02*
G37*
G36*
X904557Y516915D02*
Y514960D01*
X904399Y514803D01*
X902588D01*
X902431Y514960D01*
Y516915D01*
X903154Y517972D01*
X903834D01*
X904557Y516915D01*
D02*
G37*
G36*
X798257D02*
Y514960D01*
X798100Y514803D01*
X796289D01*
X796132Y514960D01*
Y516915D01*
X796854Y517972D01*
X797535D01*
X798257Y516915D01*
D02*
G37*
G36*
X1010856D02*
Y514960D01*
X1010698Y514803D01*
X1008887D01*
X1008730Y514960D01*
Y516915D01*
X1009453Y517972D01*
X1010133D01*
X1010856Y516915D01*
D02*
G37*
G36*
X1223454D02*
Y514960D01*
X1223297Y514803D01*
X1221486D01*
X1221328Y514960D01*
Y516915D01*
X1222051Y517972D01*
X1222731D01*
X1223454Y516915D01*
D02*
G37*
G36*
X1117155D02*
Y514960D01*
X1116998Y514803D01*
X1115187D01*
X1115029Y514960D01*
Y516915D01*
X1115752Y517972D01*
X1116432D01*
X1117155Y516915D01*
D02*
G37*
G36*
X373061D02*
Y514960D01*
X372903Y514803D01*
X371092D01*
X370935Y514960D01*
Y516915D01*
X371657Y517972D01*
X372338D01*
X373061Y516915D01*
D02*
G37*
G36*
X266761D02*
Y514960D01*
X266604Y514803D01*
X264793D01*
X264635Y514960D01*
Y516915D01*
X265358Y517972D01*
X266039D01*
X266761Y516915D01*
D02*
G37*
G36*
X479360D02*
Y514960D01*
X479202Y514803D01*
X477391D01*
X477234Y514960D01*
Y516915D01*
X477957Y517972D01*
X478637D01*
X479360Y516915D01*
D02*
G37*
G36*
X691958D02*
Y514960D01*
X691801Y514803D01*
X689990D01*
X689832Y514960D01*
Y516915D01*
X690555Y517972D01*
X691235D01*
X691958Y516915D01*
D02*
G37*
G36*
X585659D02*
Y514960D01*
X585502Y514803D01*
X583691D01*
X583533Y514960D01*
Y516915D01*
X584256Y517972D01*
X584936D01*
X585659Y516915D01*
D02*
G37*
G36*
X1117155Y96851D02*
Y94896D01*
X1116432Y93839D01*
X1115752D01*
X1115029Y94896D01*
Y96851D01*
X1115187Y97008D01*
X1116998D01*
X1117155Y96851D01*
D02*
G37*
G36*
X1010856D02*
Y94896D01*
X1010133Y93839D01*
X1009453D01*
X1008730Y94896D01*
Y96851D01*
X1008887Y97008D01*
X1010698D01*
X1010856Y96851D01*
D02*
G37*
G36*
X1223454D02*
Y94896D01*
X1222731Y93839D01*
X1222051D01*
X1221328Y94896D01*
Y96851D01*
X1221486Y97008D01*
X1223297D01*
X1223454Y96851D01*
D02*
G37*
G36*
X1436053D02*
Y94896D01*
X1435330Y93839D01*
X1434650D01*
X1433927Y94896D01*
Y96851D01*
X1434084Y97008D01*
X1435895D01*
X1436053Y96851D01*
D02*
G37*
G36*
X1329753D02*
Y94896D01*
X1329031Y93839D01*
X1328350D01*
X1327627Y94896D01*
Y96851D01*
X1327785Y97008D01*
X1329596D01*
X1329753Y96851D01*
D02*
G37*
G36*
X585659D02*
Y94896D01*
X584936Y93839D01*
X584256D01*
X583533Y94896D01*
Y96851D01*
X583691Y97008D01*
X585502D01*
X585659Y96851D01*
D02*
G37*
G36*
X479360D02*
Y94896D01*
X478637Y93839D01*
X477957D01*
X477234Y94896D01*
Y96851D01*
X477391Y97008D01*
X479202D01*
X479360Y96851D01*
D02*
G37*
G36*
X691958D02*
Y94896D01*
X691235Y93839D01*
X690555D01*
X689832Y94896D01*
Y96851D01*
X689990Y97008D01*
X691801D01*
X691958Y96851D01*
D02*
G37*
G36*
X904557D02*
Y94896D01*
X903834Y93839D01*
X903154D01*
X902431Y94896D01*
Y96851D01*
X902588Y97008D01*
X904399D01*
X904557Y96851D01*
D02*
G37*
G36*
X798257D02*
Y94896D01*
X797535Y93839D01*
X796854D01*
X796132Y94896D01*
Y96851D01*
X796289Y97008D01*
X798100D01*
X798257Y96851D01*
D02*
G37*
G36*
X479360Y198017D02*
Y196063D01*
X479202Y195905D01*
X477391D01*
X477234Y196063D01*
Y198017D01*
X477957Y199075D01*
X478637D01*
X479360Y198017D01*
D02*
G37*
G36*
X373061D02*
Y196063D01*
X372903Y195905D01*
X371092D01*
X370935Y196063D01*
Y198017D01*
X371657Y199075D01*
X372338D01*
X373061Y198017D01*
D02*
G37*
G36*
X585659D02*
Y196063D01*
X585502Y195905D01*
X583691D01*
X583533Y196063D01*
Y198017D01*
X584256Y199075D01*
X584936D01*
X585659Y198017D01*
D02*
G37*
G36*
X798257D02*
Y196063D01*
X798100Y195905D01*
X796289D01*
X796132Y196063D01*
Y198017D01*
X796854Y199075D01*
X797535D01*
X798257Y198017D01*
D02*
G37*
G36*
X691958D02*
Y196063D01*
X691801Y195905D01*
X689990D01*
X689832Y196063D01*
Y198017D01*
X690555Y199075D01*
X691235D01*
X691958Y198017D01*
D02*
G37*
G36*
X1648651Y96851D02*
Y94896D01*
X1647928Y93839D01*
X1647248D01*
X1646525Y94896D01*
Y96851D01*
X1646683Y97008D01*
X1648494D01*
X1648651Y96851D01*
D02*
G37*
G36*
X1542352D02*
Y94896D01*
X1541629Y93839D01*
X1540949D01*
X1540226Y94896D01*
Y96851D01*
X1540384Y97008D01*
X1542194D01*
X1542352Y96851D01*
D02*
G37*
G36*
X54163Y198017D02*
Y196063D01*
X54005Y195905D01*
X52194D01*
X52037Y196063D01*
Y198017D01*
X52760Y199075D01*
X53440D01*
X54163Y198017D01*
D02*
G37*
G36*
X266761D02*
Y196063D01*
X266604Y195905D01*
X264793D01*
X264635Y196063D01*
Y198017D01*
X265358Y199075D01*
X266039D01*
X266761Y198017D01*
D02*
G37*
G36*
X160462D02*
Y196063D01*
X160305Y195905D01*
X158494D01*
X158336Y196063D01*
Y198017D01*
X159059Y199075D01*
X159739D01*
X160462Y198017D01*
D02*
G37*
G36*
X691958Y91718D02*
Y89763D01*
X691801Y89606D01*
X689990D01*
X689832Y89763D01*
Y91718D01*
X690555Y92776D01*
X691235D01*
X691958Y91718D01*
D02*
G37*
G36*
X585659D02*
Y89763D01*
X585502Y89606D01*
X583691D01*
X583533Y89763D01*
Y91718D01*
X584256Y92776D01*
X584936D01*
X585659Y91718D01*
D02*
G37*
G36*
X798257D02*
Y89763D01*
X798100Y89606D01*
X796289D01*
X796132Y89763D01*
Y91718D01*
X796854Y92776D01*
X797535D01*
X798257Y91718D01*
D02*
G37*
G36*
X1010856D02*
Y89763D01*
X1010698Y89606D01*
X1008887D01*
X1008730Y89763D01*
Y91718D01*
X1009453Y92776D01*
X1010133D01*
X1010856Y91718D01*
D02*
G37*
G36*
X904557D02*
Y89763D01*
X904399Y89606D01*
X902588D01*
X902431Y89763D01*
Y91718D01*
X903154Y92776D01*
X903834D01*
X904557Y91718D01*
D02*
G37*
G36*
X160462D02*
Y89763D01*
X160305Y89606D01*
X158494D01*
X158336Y89763D01*
Y91718D01*
X159059Y92776D01*
X159739D01*
X160462Y91718D01*
D02*
G37*
G36*
X54163D02*
Y89763D01*
X54005Y89606D01*
X52194D01*
X52037Y89763D01*
Y91718D01*
X52760Y92776D01*
X53440D01*
X54163Y91718D01*
D02*
G37*
G36*
X266761D02*
Y89763D01*
X266604Y89606D01*
X264793D01*
X264635Y89763D01*
Y91718D01*
X265358Y92776D01*
X266039D01*
X266761Y91718D01*
D02*
G37*
G36*
X479360D02*
Y89763D01*
X479202Y89606D01*
X477391D01*
X477234Y89763D01*
Y91718D01*
X477957Y92776D01*
X478637D01*
X479360Y91718D01*
D02*
G37*
G36*
X373061D02*
Y89763D01*
X372903Y89606D01*
X371092D01*
X370935Y89763D01*
Y91718D01*
X371657Y92776D01*
X372338D01*
X373061Y91718D01*
D02*
G37*
G36*
X54163Y96851D02*
Y94896D01*
X53440Y93839D01*
X52760D01*
X52037Y94896D01*
Y96851D01*
X52194Y97008D01*
X54005D01*
X54163Y96851D01*
D02*
G37*
G36*
X1648651Y91718D02*
Y89763D01*
X1648494Y89606D01*
X1646683D01*
X1646525Y89763D01*
Y91718D01*
X1647248Y92776D01*
X1647928D01*
X1648651Y91718D01*
D02*
G37*
G36*
X160462Y96851D02*
Y94896D01*
X159739Y93839D01*
X159059D01*
X158336Y94896D01*
Y96851D01*
X158494Y97008D01*
X160305D01*
X160462Y96851D01*
D02*
G37*
G36*
X373061D02*
Y94896D01*
X372338Y93839D01*
X371657D01*
X370935Y94896D01*
Y96851D01*
X371092Y97008D01*
X372903D01*
X373061Y96851D01*
D02*
G37*
G36*
X266761D02*
Y94896D01*
X266039Y93839D01*
X265358D01*
X264635Y94896D01*
Y96851D01*
X264793Y97008D01*
X266604D01*
X266761Y96851D01*
D02*
G37*
G36*
X1223454Y91718D02*
Y89763D01*
X1223297Y89606D01*
X1221486D01*
X1221328Y89763D01*
Y91718D01*
X1222051Y92776D01*
X1222731D01*
X1223454Y91718D01*
D02*
G37*
G36*
X1117155D02*
Y89763D01*
X1116998Y89606D01*
X1115187D01*
X1115029Y89763D01*
Y91718D01*
X1115752Y92776D01*
X1116432D01*
X1117155Y91718D01*
D02*
G37*
G36*
X1329753D02*
Y89763D01*
X1329596Y89606D01*
X1327785D01*
X1327627Y89763D01*
Y91718D01*
X1328350Y92776D01*
X1329031D01*
X1329753Y91718D01*
D02*
G37*
G36*
X1542352D02*
Y89763D01*
X1542194Y89606D01*
X1540384D01*
X1540226Y89763D01*
Y91718D01*
X1540949Y92776D01*
X1541629D01*
X1542352Y91718D01*
D02*
G37*
G36*
X1436053D02*
Y89763D01*
X1435895Y89606D01*
X1434084D01*
X1433927Y89763D01*
Y91718D01*
X1434650Y92776D01*
X1435330D01*
X1436053Y91718D01*
D02*
G37*
G36*
X266761Y304316D02*
Y302362D01*
X266604Y302204D01*
X264793D01*
X264635Y302362D01*
Y304316D01*
X265358Y305374D01*
X266039D01*
X266761Y304316D01*
D02*
G37*
G36*
X160462D02*
Y302362D01*
X160305Y302204D01*
X158494D01*
X158336Y302362D01*
Y304316D01*
X159059Y305374D01*
X159739D01*
X160462Y304316D01*
D02*
G37*
G36*
X373061D02*
Y302362D01*
X372903Y302204D01*
X371092D01*
X370935Y302362D01*
Y304316D01*
X371657Y305374D01*
X372338D01*
X373061Y304316D01*
D02*
G37*
G36*
X585659D02*
Y302362D01*
X585502Y302204D01*
X583691D01*
X583533Y302362D01*
Y304316D01*
X584256Y305374D01*
X584936D01*
X585659Y304316D01*
D02*
G37*
G36*
X479360D02*
Y302362D01*
X479202Y302204D01*
X477391D01*
X477234Y302362D01*
Y304316D01*
X477957Y305374D01*
X478637D01*
X479360Y304316D01*
D02*
G37*
G36*
X1436053Y203150D02*
Y201195D01*
X1435330Y200138D01*
X1434650D01*
X1433927Y201195D01*
Y203150D01*
X1434084Y203308D01*
X1435895D01*
X1436053Y203150D01*
D02*
G37*
G36*
X1329753D02*
Y201195D01*
X1329031Y200138D01*
X1328350D01*
X1327627Y201195D01*
Y203150D01*
X1327785Y203308D01*
X1329596D01*
X1329753Y203150D01*
D02*
G37*
G36*
X1542352D02*
Y201195D01*
X1541629Y200138D01*
X1540949D01*
X1540226Y201195D01*
Y203150D01*
X1540384Y203308D01*
X1542194D01*
X1542352Y203150D01*
D02*
G37*
G36*
X54163Y304316D02*
Y302362D01*
X54005Y302204D01*
X52194D01*
X52037Y302362D01*
Y304316D01*
X52760Y305374D01*
X53440D01*
X54163Y304316D01*
D02*
G37*
G36*
X1648651Y203150D02*
Y201195D01*
X1647928Y200138D01*
X1647248D01*
X1646525Y201195D01*
Y203150D01*
X1646683Y203308D01*
X1648494D01*
X1648651Y203150D01*
D02*
G37*
G36*
X1329753Y304316D02*
Y302362D01*
X1329596Y302204D01*
X1327785D01*
X1327627Y302362D01*
Y304316D01*
X1328350Y305374D01*
X1329031D01*
X1329753Y304316D01*
D02*
G37*
G36*
X1223454D02*
Y302362D01*
X1223297Y302204D01*
X1221486D01*
X1221328Y302362D01*
Y304316D01*
X1222051Y305374D01*
X1222731D01*
X1223454Y304316D01*
D02*
G37*
G36*
X1436053D02*
Y302362D01*
X1435895Y302204D01*
X1434084D01*
X1433927Y302362D01*
Y304316D01*
X1434650Y305374D01*
X1435330D01*
X1436053Y304316D01*
D02*
G37*
G36*
X1648651D02*
Y302362D01*
X1648494Y302204D01*
X1646683D01*
X1646525Y302362D01*
Y304316D01*
X1647248Y305374D01*
X1647928D01*
X1648651Y304316D01*
D02*
G37*
G36*
X1542352D02*
Y302362D01*
X1542194Y302204D01*
X1540384D01*
X1540226Y302362D01*
Y304316D01*
X1540949Y305374D01*
X1541629D01*
X1542352Y304316D01*
D02*
G37*
G36*
X798257D02*
Y302362D01*
X798100Y302204D01*
X796289D01*
X796132Y302362D01*
Y304316D01*
X796854Y305374D01*
X797535D01*
X798257Y304316D01*
D02*
G37*
G36*
X691958D02*
Y302362D01*
X691801Y302204D01*
X689990D01*
X689832Y302362D01*
Y304316D01*
X690555Y305374D01*
X691235D01*
X691958Y304316D01*
D02*
G37*
G36*
X904557D02*
Y302362D01*
X904399Y302204D01*
X902588D01*
X902431Y302362D01*
Y304316D01*
X903154Y305374D01*
X903834D01*
X904557Y304316D01*
D02*
G37*
G36*
X1117155D02*
Y302362D01*
X1116998Y302204D01*
X1115187D01*
X1115029Y302362D01*
Y304316D01*
X1115752Y305374D01*
X1116432D01*
X1117155Y304316D01*
D02*
G37*
G36*
X1010856D02*
Y302362D01*
X1010698Y302204D01*
X1008887D01*
X1008730Y302362D01*
Y304316D01*
X1009453Y305374D01*
X1010133D01*
X1010856Y304316D01*
D02*
G37*
G36*
X1542352Y198017D02*
Y196063D01*
X1542194Y195905D01*
X1540384D01*
X1540226Y196063D01*
Y198017D01*
X1540949Y199075D01*
X1541629D01*
X1542352Y198017D01*
D02*
G37*
G36*
X1436053D02*
Y196063D01*
X1435895Y195905D01*
X1434084D01*
X1433927Y196063D01*
Y198017D01*
X1434650Y199075D01*
X1435330D01*
X1436053Y198017D01*
D02*
G37*
G36*
X1648651D02*
Y196063D01*
X1648494Y195905D01*
X1646683D01*
X1646525Y196063D01*
Y198017D01*
X1647248Y199075D01*
X1647928D01*
X1648651Y198017D01*
D02*
G37*
G36*
X160462Y203150D02*
Y201195D01*
X159739Y200138D01*
X159059D01*
X158336Y201195D01*
Y203150D01*
X158494Y203308D01*
X160305D01*
X160462Y203150D01*
D02*
G37*
G36*
X54163D02*
Y201195D01*
X53440Y200138D01*
X52760D01*
X52037Y201195D01*
Y203150D01*
X52194Y203308D01*
X54005D01*
X54163Y203150D01*
D02*
G37*
G36*
X1010856Y198017D02*
Y196063D01*
X1010698Y195905D01*
X1008887D01*
X1008730Y196063D01*
Y198017D01*
X1009453Y199075D01*
X1010133D01*
X1010856Y198017D01*
D02*
G37*
G36*
X904557D02*
Y196063D01*
X904399Y195905D01*
X902588D01*
X902431Y196063D01*
Y198017D01*
X903154Y199075D01*
X903834D01*
X904557Y198017D01*
D02*
G37*
G36*
X1117155D02*
Y196063D01*
X1116998Y195905D01*
X1115187D01*
X1115029Y196063D01*
Y198017D01*
X1115752Y199075D01*
X1116432D01*
X1117155Y198017D01*
D02*
G37*
G36*
X1329753D02*
Y196063D01*
X1329596Y195905D01*
X1327785D01*
X1327627Y196063D01*
Y198017D01*
X1328350Y199075D01*
X1329031D01*
X1329753Y198017D01*
D02*
G37*
G36*
X1223454D02*
Y196063D01*
X1223297Y195905D01*
X1221486D01*
X1221328Y196063D01*
Y198017D01*
X1222051Y199075D01*
X1222731D01*
X1223454Y198017D01*
D02*
G37*
G36*
X904557Y203150D02*
Y201195D01*
X903834Y200138D01*
X903154D01*
X902431Y201195D01*
Y203150D01*
X902588Y203308D01*
X904399D01*
X904557Y203150D01*
D02*
G37*
G36*
X798257D02*
Y201195D01*
X797535Y200138D01*
X796854D01*
X796132Y201195D01*
Y203150D01*
X796289Y203308D01*
X798100D01*
X798257Y203150D01*
D02*
G37*
G36*
X1010856D02*
Y201195D01*
X1010133Y200138D01*
X1009453D01*
X1008730Y201195D01*
Y203150D01*
X1008887Y203308D01*
X1010698D01*
X1010856Y203150D01*
D02*
G37*
G36*
X1223454D02*
Y201195D01*
X1222731Y200138D01*
X1222051D01*
X1221328Y201195D01*
Y203150D01*
X1221486Y203308D01*
X1223297D01*
X1223454Y203150D01*
D02*
G37*
G36*
X1117155D02*
Y201195D01*
X1116432Y200138D01*
X1115752D01*
X1115029Y201195D01*
Y203150D01*
X1115187Y203308D01*
X1116998D01*
X1117155Y203150D01*
D02*
G37*
G36*
X373061D02*
Y201195D01*
X372338Y200138D01*
X371657D01*
X370935Y201195D01*
Y203150D01*
X371092Y203308D01*
X372903D01*
X373061Y203150D01*
D02*
G37*
G36*
X266761D02*
Y201195D01*
X266039Y200138D01*
X265358D01*
X264635Y201195D01*
Y203150D01*
X264793Y203308D01*
X266604D01*
X266761Y203150D01*
D02*
G37*
G36*
X479360D02*
Y201195D01*
X478637Y200138D01*
X477957D01*
X477234Y201195D01*
Y203150D01*
X477391Y203308D01*
X479202D01*
X479360Y203150D01*
D02*
G37*
G36*
X691958D02*
Y201195D01*
X691235Y200138D01*
X690555D01*
X689832Y201195D01*
Y203150D01*
X689990Y203308D01*
X691801D01*
X691958Y203150D01*
D02*
G37*
G36*
X585659D02*
Y201195D01*
X584936Y200138D01*
X584256D01*
X583533Y201195D01*
Y203150D01*
X583691Y203308D01*
X585502D01*
X585659Y203150D01*
D02*
G37*
G36*
X1117155Y942112D02*
Y940157D01*
X1116998Y940000D01*
X1115187D01*
X1115029Y940157D01*
Y942112D01*
X1115752Y943169D01*
X1116432D01*
X1117155Y942112D01*
D02*
G37*
G36*
X1010856D02*
Y940157D01*
X1010698Y940000D01*
X1008887D01*
X1008730Y940157D01*
Y942112D01*
X1009453Y943169D01*
X1010133D01*
X1010856Y942112D01*
D02*
G37*
G36*
X1223454D02*
Y940157D01*
X1223297Y940000D01*
X1221486D01*
X1221328Y940157D01*
Y942112D01*
X1222051Y943169D01*
X1222731D01*
X1223454Y942112D01*
D02*
G37*
G36*
X1436053D02*
Y940157D01*
X1435895Y940000D01*
X1434084D01*
X1433927Y940157D01*
Y942112D01*
X1434650Y943169D01*
X1435330D01*
X1436053Y942112D01*
D02*
G37*
G36*
X1329753D02*
Y940157D01*
X1329596Y940000D01*
X1327785D01*
X1327627Y940157D01*
Y942112D01*
X1328350Y943169D01*
X1329031D01*
X1329753Y942112D01*
D02*
G37*
G36*
X585659D02*
Y940157D01*
X585502Y940000D01*
X583691D01*
X583533Y940157D01*
Y942112D01*
X584256Y943169D01*
X584936D01*
X585659Y942112D01*
D02*
G37*
G36*
X479360D02*
Y940157D01*
X479202Y940000D01*
X477391D01*
X477234Y940157D01*
Y942112D01*
X477957Y943169D01*
X478637D01*
X479360Y942112D01*
D02*
G37*
G36*
X691958D02*
Y940157D01*
X691801Y940000D01*
X689990D01*
X689832Y940157D01*
Y942112D01*
X690555Y943169D01*
X691235D01*
X691958Y942112D01*
D02*
G37*
G36*
X904557D02*
Y940157D01*
X904399Y940000D01*
X902588D01*
X902431Y940157D01*
Y942112D01*
X903154Y943169D01*
X903834D01*
X904557Y942112D01*
D02*
G37*
G36*
X798257D02*
Y940157D01*
X798100Y940000D01*
X796289D01*
X796132Y940157D01*
Y942112D01*
X796854Y943169D01*
X797535D01*
X798257Y942112D01*
D02*
G37*
G36*
X479360Y947244D02*
Y945290D01*
X478637Y944232D01*
X477957D01*
X477234Y945290D01*
Y947244D01*
X477391Y947402D01*
X479202D01*
X479360Y947244D01*
D02*
G37*
G36*
X373061D02*
Y945290D01*
X372338Y944232D01*
X371657D01*
X370935Y945290D01*
Y947244D01*
X371092Y947402D01*
X372903D01*
X373061Y947244D01*
D02*
G37*
G36*
X585659D02*
Y945290D01*
X584936Y944232D01*
X584256D01*
X583533Y945290D01*
Y947244D01*
X583691Y947402D01*
X585502D01*
X585659Y947244D01*
D02*
G37*
G36*
X798257D02*
Y945290D01*
X797535Y944232D01*
X796854D01*
X796132Y945290D01*
Y947244D01*
X796289Y947402D01*
X798100D01*
X798257Y947244D01*
D02*
G37*
G36*
X691958D02*
Y945290D01*
X691235Y944232D01*
X690555D01*
X689832Y945290D01*
Y947244D01*
X689990Y947402D01*
X691801D01*
X691958Y947244D01*
D02*
G37*
G36*
X1648651Y942112D02*
Y940157D01*
X1648494Y940000D01*
X1646683D01*
X1646525Y940157D01*
Y942112D01*
X1647248Y943169D01*
X1647928D01*
X1648651Y942112D01*
D02*
G37*
G36*
X1542352D02*
Y940157D01*
X1542194Y940000D01*
X1540384D01*
X1540226Y940157D01*
Y942112D01*
X1540949Y943169D01*
X1541629D01*
X1542352Y942112D01*
D02*
G37*
G36*
X54163Y947244D02*
Y945290D01*
X53440Y944232D01*
X52760D01*
X52037Y945290D01*
Y947244D01*
X52194Y947402D01*
X54005D01*
X54163Y947244D01*
D02*
G37*
G36*
X266761D02*
Y945290D01*
X266039Y944232D01*
X265358D01*
X264635Y945290D01*
Y947244D01*
X264793Y947402D01*
X266604D01*
X266761Y947244D01*
D02*
G37*
G36*
X160462D02*
Y945290D01*
X159739Y944232D01*
X159059D01*
X158336Y945290D01*
Y947244D01*
X158494Y947402D01*
X160305D01*
X160462Y947244D01*
D02*
G37*
G36*
X691958Y840945D02*
Y838991D01*
X691235Y837933D01*
X690555D01*
X689832Y838991D01*
Y840945D01*
X689990Y841103D01*
X691801D01*
X691958Y840945D01*
D02*
G37*
G36*
X585659D02*
Y838991D01*
X584936Y837933D01*
X584256D01*
X583533Y838991D01*
Y840945D01*
X583691Y841103D01*
X585502D01*
X585659Y840945D01*
D02*
G37*
G36*
X798257D02*
Y838991D01*
X797535Y837933D01*
X796854D01*
X796132Y838991D01*
Y840945D01*
X796289Y841103D01*
X798100D01*
X798257Y840945D01*
D02*
G37*
G36*
X1010856D02*
Y838991D01*
X1010133Y837933D01*
X1009453D01*
X1008730Y838991D01*
Y840945D01*
X1008887Y841103D01*
X1010698D01*
X1010856Y840945D01*
D02*
G37*
G36*
X904557D02*
Y838991D01*
X903834Y837933D01*
X903154D01*
X902431Y838991D01*
Y840945D01*
X902588Y841103D01*
X904399D01*
X904557Y840945D01*
D02*
G37*
G36*
X160462D02*
Y838991D01*
X159739Y837933D01*
X159059D01*
X158336Y838991D01*
Y840945D01*
X158494Y841103D01*
X160305D01*
X160462Y840945D01*
D02*
G37*
G36*
X54163D02*
Y838991D01*
X53440Y837933D01*
X52760D01*
X52037Y838991D01*
Y840945D01*
X52194Y841103D01*
X54005D01*
X54163Y840945D01*
D02*
G37*
G36*
X266761D02*
Y838991D01*
X266039Y837933D01*
X265358D01*
X264635Y838991D01*
Y840945D01*
X264793Y841103D01*
X266604D01*
X266761Y840945D01*
D02*
G37*
G36*
X479360D02*
Y838991D01*
X478637Y837933D01*
X477957D01*
X477234Y838991D01*
Y840945D01*
X477391Y841103D01*
X479202D01*
X479360Y840945D01*
D02*
G37*
G36*
X373061D02*
Y838991D01*
X372338Y837933D01*
X371657D01*
X370935Y838991D01*
Y840945D01*
X371092Y841103D01*
X372903D01*
X373061Y840945D01*
D02*
G37*
G36*
X54163Y942112D02*
Y940157D01*
X54005Y940000D01*
X52194D01*
X52037Y940157D01*
Y942112D01*
X52760Y943169D01*
X53440D01*
X54163Y942112D01*
D02*
G37*
G36*
X1648651Y840945D02*
Y838991D01*
X1647928Y837933D01*
X1647248D01*
X1646525Y838991D01*
Y840945D01*
X1646683Y841103D01*
X1648494D01*
X1648651Y840945D01*
D02*
G37*
G36*
X160462Y942112D02*
Y940157D01*
X160305Y940000D01*
X158494D01*
X158336Y940157D01*
Y942112D01*
X159059Y943169D01*
X159739D01*
X160462Y942112D01*
D02*
G37*
G36*
X373061D02*
Y940157D01*
X372903Y940000D01*
X371092D01*
X370935Y940157D01*
Y942112D01*
X371657Y943169D01*
X372338D01*
X373061Y942112D01*
D02*
G37*
G36*
X266761D02*
Y940157D01*
X266604Y940000D01*
X264793D01*
X264635Y940157D01*
Y942112D01*
X265358Y943169D01*
X266039D01*
X266761Y942112D01*
D02*
G37*
G36*
X1223454Y840945D02*
Y838991D01*
X1222731Y837933D01*
X1222051D01*
X1221328Y838991D01*
Y840945D01*
X1221486Y841103D01*
X1223297D01*
X1223454Y840945D01*
D02*
G37*
G36*
X1117155D02*
Y838991D01*
X1116432Y837933D01*
X1115752D01*
X1115029Y838991D01*
Y840945D01*
X1115187Y841103D01*
X1116998D01*
X1117155Y840945D01*
D02*
G37*
G36*
X1329753D02*
Y838991D01*
X1329031Y837933D01*
X1328350D01*
X1327627Y838991D01*
Y840945D01*
X1327785Y841103D01*
X1329596D01*
X1329753Y840945D01*
D02*
G37*
G36*
X1542352D02*
Y838991D01*
X1541629Y837933D01*
X1540949D01*
X1540226Y838991D01*
Y840945D01*
X1540384Y841103D01*
X1542194D01*
X1542352Y840945D01*
D02*
G37*
G36*
X1436053D02*
Y838991D01*
X1435330Y837933D01*
X1434650D01*
X1433927Y838991D01*
Y840945D01*
X1434084Y841103D01*
X1435895D01*
X1436053Y840945D01*
D02*
G37*
G36*
X266761Y1053544D02*
Y1051589D01*
X266039Y1050531D01*
X265358D01*
X264635Y1051589D01*
Y1053544D01*
X264793Y1053701D01*
X266604D01*
X266761Y1053544D01*
D02*
G37*
G36*
X160462D02*
Y1051589D01*
X159739Y1050531D01*
X159059D01*
X158336Y1051589D01*
Y1053544D01*
X158494Y1053701D01*
X160305D01*
X160462Y1053544D01*
D02*
G37*
G36*
X373061D02*
Y1051589D01*
X372338Y1050531D01*
X371657D01*
X370935Y1051589D01*
Y1053544D01*
X371092Y1053701D01*
X372903D01*
X373061Y1053544D01*
D02*
G37*
G36*
X585659D02*
Y1051589D01*
X584936Y1050531D01*
X584256D01*
X583533Y1051589D01*
Y1053544D01*
X583691Y1053701D01*
X585502D01*
X585659Y1053544D01*
D02*
G37*
G36*
X479360D02*
Y1051589D01*
X478637Y1050531D01*
X477957D01*
X477234Y1051589D01*
Y1053544D01*
X477391Y1053701D01*
X479202D01*
X479360Y1053544D01*
D02*
G37*
G36*
X1436053Y1048411D02*
Y1046456D01*
X1435895Y1046299D01*
X1434084D01*
X1433927Y1046456D01*
Y1048411D01*
X1434650Y1049469D01*
X1435330D01*
X1436053Y1048411D01*
D02*
G37*
G36*
X1329753D02*
Y1046456D01*
X1329596Y1046299D01*
X1327785D01*
X1327627Y1046456D01*
Y1048411D01*
X1328350Y1049469D01*
X1329031D01*
X1329753Y1048411D01*
D02*
G37*
G36*
X1542352D02*
Y1046456D01*
X1542194Y1046299D01*
X1540384D01*
X1540226Y1046456D01*
Y1048411D01*
X1540949Y1049469D01*
X1541629D01*
X1542352Y1048411D01*
D02*
G37*
G36*
X54161Y1053544D02*
Y1051589D01*
X53439Y1050531D01*
X52758D01*
X52035Y1051589D01*
Y1053544D01*
X52193Y1053701D01*
X54004D01*
X54161Y1053544D01*
D02*
G37*
G36*
X1648651Y1048411D02*
Y1046456D01*
X1648494Y1046299D01*
X1646683D01*
X1646525Y1046456D01*
Y1048411D01*
X1647248Y1049469D01*
X1647928D01*
X1648651Y1048411D01*
D02*
G37*
G36*
X1329753Y1053544D02*
Y1051589D01*
X1329031Y1050531D01*
X1328350D01*
X1327627Y1051589D01*
Y1053544D01*
X1327785Y1053701D01*
X1329596D01*
X1329753Y1053544D01*
D02*
G37*
G36*
X1223454D02*
Y1051589D01*
X1222731Y1050531D01*
X1222051D01*
X1221328Y1051589D01*
Y1053544D01*
X1221486Y1053701D01*
X1223297D01*
X1223454Y1053544D01*
D02*
G37*
G36*
X1436053D02*
Y1051589D01*
X1435330Y1050531D01*
X1434650D01*
X1433927Y1051589D01*
Y1053544D01*
X1434084Y1053701D01*
X1435895D01*
X1436053Y1053544D01*
D02*
G37*
G36*
X1648651D02*
Y1051589D01*
X1647928Y1050531D01*
X1647248D01*
X1646525Y1051589D01*
Y1053544D01*
X1646683Y1053701D01*
X1648494D01*
X1648651Y1053544D01*
D02*
G37*
G36*
X1542352D02*
Y1051589D01*
X1541629Y1050531D01*
X1540949D01*
X1540226Y1051589D01*
Y1053544D01*
X1540384Y1053701D01*
X1542194D01*
X1542352Y1053544D01*
D02*
G37*
G36*
X798257D02*
Y1051589D01*
X797535Y1050531D01*
X796854D01*
X796132Y1051589D01*
Y1053544D01*
X796289Y1053701D01*
X798100D01*
X798257Y1053544D01*
D02*
G37*
G36*
X691958D02*
Y1051589D01*
X691235Y1050531D01*
X690555D01*
X689832Y1051589D01*
Y1053544D01*
X689990Y1053701D01*
X691801D01*
X691958Y1053544D01*
D02*
G37*
G36*
X904557D02*
Y1051589D01*
X903834Y1050531D01*
X903154D01*
X902431Y1051589D01*
Y1053544D01*
X902588Y1053701D01*
X904399D01*
X904557Y1053544D01*
D02*
G37*
G36*
X1117155D02*
Y1051589D01*
X1116432Y1050531D01*
X1115752D01*
X1115029Y1051589D01*
Y1053544D01*
X1115187Y1053701D01*
X1116998D01*
X1117155Y1053544D01*
D02*
G37*
G36*
X1010856D02*
Y1051589D01*
X1010133Y1050531D01*
X1009453D01*
X1008730Y1051589D01*
Y1053544D01*
X1008887Y1053701D01*
X1010698D01*
X1010856Y1053544D01*
D02*
G37*
G36*
X1542352Y947244D02*
Y945290D01*
X1541629Y944232D01*
X1540949D01*
X1540226Y945290D01*
Y947244D01*
X1540384Y947402D01*
X1542194D01*
X1542352Y947244D01*
D02*
G37*
G36*
X1436053D02*
Y945290D01*
X1435330Y944232D01*
X1434650D01*
X1433927Y945290D01*
Y947244D01*
X1434084Y947402D01*
X1435895D01*
X1436053Y947244D01*
D02*
G37*
G36*
X1648651D02*
Y945290D01*
X1647928Y944232D01*
X1647248D01*
X1646525Y945290D01*
Y947244D01*
X1646683Y947402D01*
X1648494D01*
X1648651Y947244D01*
D02*
G37*
G36*
X160462Y1048411D02*
Y1046456D01*
X160305Y1046299D01*
X158494D01*
X158336Y1046456D01*
Y1048411D01*
X159059Y1049469D01*
X159739D01*
X160462Y1048411D01*
D02*
G37*
G36*
X54161D02*
Y1046456D01*
X54004Y1046299D01*
X52193D01*
X52035Y1046456D01*
Y1048411D01*
X52758Y1049469D01*
X53439D01*
X54161Y1048411D01*
D02*
G37*
G36*
X1010856Y947244D02*
Y945290D01*
X1010133Y944232D01*
X1009453D01*
X1008730Y945290D01*
Y947244D01*
X1008887Y947402D01*
X1010698D01*
X1010856Y947244D01*
D02*
G37*
G36*
X904557D02*
Y945290D01*
X903834Y944232D01*
X903154D01*
X902431Y945290D01*
Y947244D01*
X902588Y947402D01*
X904399D01*
X904557Y947244D01*
D02*
G37*
G36*
X1117155D02*
Y945290D01*
X1116432Y944232D01*
X1115752D01*
X1115029Y945290D01*
Y947244D01*
X1115187Y947402D01*
X1116998D01*
X1117155Y947244D01*
D02*
G37*
G36*
X1329753D02*
Y945290D01*
X1329031Y944232D01*
X1328350D01*
X1327627Y945290D01*
Y947244D01*
X1327785Y947402D01*
X1329596D01*
X1329753Y947244D01*
D02*
G37*
G36*
X1223454D02*
Y945290D01*
X1222731Y944232D01*
X1222051D01*
X1221328Y945290D01*
Y947244D01*
X1221486Y947402D01*
X1223297D01*
X1223454Y947244D01*
D02*
G37*
G36*
X904557Y1048411D02*
Y1046456D01*
X904399Y1046299D01*
X902588D01*
X902431Y1046456D01*
Y1048411D01*
X903154Y1049469D01*
X903834D01*
X904557Y1048411D01*
D02*
G37*
G36*
X798257D02*
Y1046456D01*
X798100Y1046299D01*
X796289D01*
X796132Y1046456D01*
Y1048411D01*
X796854Y1049469D01*
X797535D01*
X798257Y1048411D01*
D02*
G37*
G36*
X1010856D02*
Y1046456D01*
X1010698Y1046299D01*
X1008887D01*
X1008730Y1046456D01*
Y1048411D01*
X1009453Y1049469D01*
X1010133D01*
X1010856Y1048411D01*
D02*
G37*
G36*
X1223454D02*
Y1046456D01*
X1223297Y1046299D01*
X1221486D01*
X1221328Y1046456D01*
Y1048411D01*
X1222051Y1049469D01*
X1222731D01*
X1223454Y1048411D01*
D02*
G37*
G36*
X1117155D02*
Y1046456D01*
X1116998Y1046299D01*
X1115187D01*
X1115029Y1046456D01*
Y1048411D01*
X1115752Y1049469D01*
X1116432D01*
X1117155Y1048411D01*
D02*
G37*
G36*
X373061D02*
Y1046456D01*
X372903Y1046299D01*
X371092D01*
X370935Y1046456D01*
Y1048411D01*
X371657Y1049469D01*
X372338D01*
X373061Y1048411D01*
D02*
G37*
G36*
X266761D02*
Y1046456D01*
X266604Y1046299D01*
X264793D01*
X264635Y1046456D01*
Y1048411D01*
X265358Y1049469D01*
X266039D01*
X266761Y1048411D01*
D02*
G37*
G36*
X479360D02*
Y1046456D01*
X479202Y1046299D01*
X477391D01*
X477234Y1046456D01*
Y1048411D01*
X477957Y1049469D01*
X478637D01*
X479360Y1048411D01*
D02*
G37*
G36*
X691958D02*
Y1046456D01*
X691801Y1046299D01*
X689990D01*
X689832Y1046456D01*
Y1048411D01*
X690555Y1049469D01*
X691235D01*
X691958Y1048411D01*
D02*
G37*
G36*
X585659D02*
Y1046456D01*
X585502Y1046299D01*
X583691D01*
X583533Y1046456D01*
Y1048411D01*
X584256Y1049469D01*
X584936D01*
X585659Y1048411D01*
D02*
G37*
G36*
X1117155Y628347D02*
Y626392D01*
X1116432Y625335D01*
X1115752D01*
X1115029Y626392D01*
Y628347D01*
X1115187Y628504D01*
X1116998D01*
X1117155Y628347D01*
D02*
G37*
G36*
X1010856D02*
Y626392D01*
X1010133Y625335D01*
X1009453D01*
X1008730Y626392D01*
Y628347D01*
X1008887Y628504D01*
X1010698D01*
X1010856Y628347D01*
D02*
G37*
G36*
X1223454D02*
Y626392D01*
X1222731Y625335D01*
X1222051D01*
X1221328Y626392D01*
Y628347D01*
X1221486Y628504D01*
X1223297D01*
X1223454Y628347D01*
D02*
G37*
G36*
X1436053D02*
Y626392D01*
X1435330Y625335D01*
X1434650D01*
X1433927Y626392D01*
Y628347D01*
X1434084Y628504D01*
X1435895D01*
X1436053Y628347D01*
D02*
G37*
G36*
X1329753D02*
Y626392D01*
X1329031Y625335D01*
X1328350D01*
X1327627Y626392D01*
Y628347D01*
X1327785Y628504D01*
X1329596D01*
X1329753Y628347D01*
D02*
G37*
G36*
X585659D02*
Y626392D01*
X584936Y625335D01*
X584256D01*
X583533Y626392D01*
Y628347D01*
X583691Y628504D01*
X585502D01*
X585659Y628347D01*
D02*
G37*
G36*
X479360D02*
Y626392D01*
X478637Y625335D01*
X477957D01*
X477234Y626392D01*
Y628347D01*
X477391Y628504D01*
X479202D01*
X479360Y628347D01*
D02*
G37*
G36*
X691958D02*
Y626392D01*
X691235Y625335D01*
X690555D01*
X689832Y626392D01*
Y628347D01*
X689990Y628504D01*
X691801D01*
X691958Y628347D01*
D02*
G37*
G36*
X904557D02*
Y626392D01*
X903834Y625335D01*
X903154D01*
X902431Y626392D01*
Y628347D01*
X902588Y628504D01*
X904399D01*
X904557Y628347D01*
D02*
G37*
G36*
X798257D02*
Y626392D01*
X797535Y625335D01*
X796854D01*
X796132Y626392D01*
Y628347D01*
X796289Y628504D01*
X798100D01*
X798257Y628347D01*
D02*
G37*
G36*
X479360Y729513D02*
Y727559D01*
X479202Y727401D01*
X477391D01*
X477234Y727559D01*
Y729513D01*
X477957Y730571D01*
X478637D01*
X479360Y729513D01*
D02*
G37*
G36*
X373061D02*
Y727559D01*
X372903Y727401D01*
X371092D01*
X370935Y727559D01*
Y729513D01*
X371657Y730571D01*
X372338D01*
X373061Y729513D01*
D02*
G37*
G36*
X585659D02*
Y727559D01*
X585502Y727401D01*
X583691D01*
X583533Y727559D01*
Y729513D01*
X584256Y730571D01*
X584936D01*
X585659Y729513D01*
D02*
G37*
G36*
X798257D02*
Y727559D01*
X798100Y727401D01*
X796289D01*
X796132Y727559D01*
Y729513D01*
X796854Y730571D01*
X797535D01*
X798257Y729513D01*
D02*
G37*
G36*
X691958D02*
Y727559D01*
X691801Y727401D01*
X689990D01*
X689832Y727559D01*
Y729513D01*
X690555Y730571D01*
X691235D01*
X691958Y729513D01*
D02*
G37*
G36*
X1648651Y628347D02*
Y626392D01*
X1647928Y625335D01*
X1647248D01*
X1646525Y626392D01*
Y628347D01*
X1646683Y628504D01*
X1648494D01*
X1648651Y628347D01*
D02*
G37*
G36*
X1542352D02*
Y626392D01*
X1541629Y625335D01*
X1540949D01*
X1540226Y626392D01*
Y628347D01*
X1540384Y628504D01*
X1542194D01*
X1542352Y628347D01*
D02*
G37*
G36*
X54163Y729513D02*
Y727559D01*
X54005Y727401D01*
X52194D01*
X52037Y727559D01*
Y729513D01*
X52760Y730571D01*
X53440D01*
X54163Y729513D01*
D02*
G37*
G36*
X266761D02*
Y727559D01*
X266604Y727401D01*
X264793D01*
X264635Y727559D01*
Y729513D01*
X265358Y730571D01*
X266039D01*
X266761Y729513D01*
D02*
G37*
G36*
X160462D02*
Y727559D01*
X160305Y727401D01*
X158494D01*
X158336Y727559D01*
Y729513D01*
X159059Y730571D01*
X159739D01*
X160462Y729513D01*
D02*
G37*
G36*
X691958Y623214D02*
Y621259D01*
X691801Y621102D01*
X689990D01*
X689832Y621259D01*
Y623214D01*
X690555Y624272D01*
X691235D01*
X691958Y623214D01*
D02*
G37*
G36*
X585659D02*
Y621259D01*
X585502Y621102D01*
X583691D01*
X583533Y621259D01*
Y623214D01*
X584256Y624272D01*
X584936D01*
X585659Y623214D01*
D02*
G37*
G36*
X798257D02*
Y621259D01*
X798100Y621102D01*
X796289D01*
X796132Y621259D01*
Y623214D01*
X796854Y624272D01*
X797535D01*
X798257Y623214D01*
D02*
G37*
G36*
X1010856D02*
Y621259D01*
X1010698Y621102D01*
X1008887D01*
X1008730Y621259D01*
Y623214D01*
X1009453Y624272D01*
X1010133D01*
X1010856Y623214D01*
D02*
G37*
G36*
X904557D02*
Y621259D01*
X904399Y621102D01*
X902588D01*
X902431Y621259D01*
Y623214D01*
X903154Y624272D01*
X903834D01*
X904557Y623214D01*
D02*
G37*
G36*
X160462D02*
Y621259D01*
X160305Y621102D01*
X158494D01*
X158336Y621259D01*
Y623214D01*
X159059Y624272D01*
X159739D01*
X160462Y623214D01*
D02*
G37*
G36*
X54163D02*
Y621259D01*
X54005Y621102D01*
X52194D01*
X52037Y621259D01*
Y623214D01*
X52760Y624272D01*
X53440D01*
X54163Y623214D01*
D02*
G37*
G36*
X266761D02*
Y621259D01*
X266604Y621102D01*
X264793D01*
X264635Y621259D01*
Y623214D01*
X265358Y624272D01*
X266039D01*
X266761Y623214D01*
D02*
G37*
G36*
X479360D02*
Y621259D01*
X479202Y621102D01*
X477391D01*
X477234Y621259D01*
Y623214D01*
X477957Y624272D01*
X478637D01*
X479360Y623214D01*
D02*
G37*
G36*
X373061D02*
Y621259D01*
X372903Y621102D01*
X371092D01*
X370935Y621259D01*
Y623214D01*
X371657Y624272D01*
X372338D01*
X373061Y623214D01*
D02*
G37*
G36*
X54163Y628347D02*
Y626392D01*
X53440Y625335D01*
X52760D01*
X52037Y626392D01*
Y628347D01*
X52194Y628504D01*
X54005D01*
X54163Y628347D01*
D02*
G37*
G36*
X1648651Y623214D02*
Y621259D01*
X1648494Y621102D01*
X1646683D01*
X1646525Y621259D01*
Y623214D01*
X1647248Y624272D01*
X1647928D01*
X1648651Y623214D01*
D02*
G37*
G36*
X160462Y628347D02*
Y626392D01*
X159739Y625335D01*
X159059D01*
X158336Y626392D01*
Y628347D01*
X158494Y628504D01*
X160305D01*
X160462Y628347D01*
D02*
G37*
G36*
X373061D02*
Y626392D01*
X372338Y625335D01*
X371657D01*
X370935Y626392D01*
Y628347D01*
X371092Y628504D01*
X372903D01*
X373061Y628347D01*
D02*
G37*
G36*
X266761D02*
Y626392D01*
X266039Y625335D01*
X265358D01*
X264635Y626392D01*
Y628347D01*
X264793Y628504D01*
X266604D01*
X266761Y628347D01*
D02*
G37*
G36*
X1223454Y623214D02*
Y621259D01*
X1223297Y621102D01*
X1221486D01*
X1221328Y621259D01*
Y623214D01*
X1222051Y624272D01*
X1222731D01*
X1223454Y623214D01*
D02*
G37*
G36*
X1117155D02*
Y621259D01*
X1116998Y621102D01*
X1115187D01*
X1115029Y621259D01*
Y623214D01*
X1115752Y624272D01*
X1116432D01*
X1117155Y623214D01*
D02*
G37*
G36*
X1329753D02*
Y621259D01*
X1329596Y621102D01*
X1327785D01*
X1327627Y621259D01*
Y623214D01*
X1328350Y624272D01*
X1329031D01*
X1329753Y623214D01*
D02*
G37*
G36*
X1542352D02*
Y621259D01*
X1542194Y621102D01*
X1540384D01*
X1540226Y621259D01*
Y623214D01*
X1540949Y624272D01*
X1541629D01*
X1542352Y623214D01*
D02*
G37*
G36*
X1436053D02*
Y621259D01*
X1435895Y621102D01*
X1434084D01*
X1433927Y621259D01*
Y623214D01*
X1434650Y624272D01*
X1435330D01*
X1436053Y623214D01*
D02*
G37*
G36*
X266761Y835812D02*
Y833858D01*
X266604Y833700D01*
X264793D01*
X264635Y833858D01*
Y835812D01*
X265358Y836870D01*
X266039D01*
X266761Y835812D01*
D02*
G37*
G36*
X160462D02*
Y833858D01*
X160305Y833700D01*
X158494D01*
X158336Y833858D01*
Y835812D01*
X159059Y836870D01*
X159739D01*
X160462Y835812D01*
D02*
G37*
G36*
X373061D02*
Y833858D01*
X372903Y833700D01*
X371092D01*
X370935Y833858D01*
Y835812D01*
X371657Y836870D01*
X372338D01*
X373061Y835812D01*
D02*
G37*
G36*
X585659D02*
Y833858D01*
X585502Y833700D01*
X583691D01*
X583533Y833858D01*
Y835812D01*
X584256Y836870D01*
X584936D01*
X585659Y835812D01*
D02*
G37*
G36*
X479360D02*
Y833858D01*
X479202Y833700D01*
X477391D01*
X477234Y833858D01*
Y835812D01*
X477957Y836870D01*
X478637D01*
X479360Y835812D01*
D02*
G37*
G36*
X1436053Y734646D02*
Y732691D01*
X1435330Y731634D01*
X1434650D01*
X1433927Y732691D01*
Y734646D01*
X1434084Y734804D01*
X1435895D01*
X1436053Y734646D01*
D02*
G37*
G36*
X1329753D02*
Y732691D01*
X1329031Y731634D01*
X1328350D01*
X1327627Y732691D01*
Y734646D01*
X1327785Y734804D01*
X1329596D01*
X1329753Y734646D01*
D02*
G37*
G36*
X1542352D02*
Y732691D01*
X1541629Y731634D01*
X1540949D01*
X1540226Y732691D01*
Y734646D01*
X1540384Y734804D01*
X1542194D01*
X1542352Y734646D01*
D02*
G37*
G36*
X54163Y835812D02*
Y833858D01*
X54005Y833700D01*
X52194D01*
X52037Y833858D01*
Y835812D01*
X52760Y836870D01*
X53440D01*
X54163Y835812D01*
D02*
G37*
G36*
X1648651Y734646D02*
Y732691D01*
X1647928Y731634D01*
X1647248D01*
X1646525Y732691D01*
Y734646D01*
X1646683Y734804D01*
X1648494D01*
X1648651Y734646D01*
D02*
G37*
G36*
X1329753Y835812D02*
Y833858D01*
X1329596Y833700D01*
X1327785D01*
X1327627Y833858D01*
Y835812D01*
X1328350Y836870D01*
X1329031D01*
X1329753Y835812D01*
D02*
G37*
G36*
X1223454D02*
Y833858D01*
X1223297Y833700D01*
X1221486D01*
X1221328Y833858D01*
Y835812D01*
X1222051Y836870D01*
X1222731D01*
X1223454Y835812D01*
D02*
G37*
G36*
X1436053D02*
Y833858D01*
X1435895Y833700D01*
X1434084D01*
X1433927Y833858D01*
Y835812D01*
X1434650Y836870D01*
X1435330D01*
X1436053Y835812D01*
D02*
G37*
G36*
X1648651D02*
Y833858D01*
X1648494Y833700D01*
X1646683D01*
X1646525Y833858D01*
Y835812D01*
X1647248Y836870D01*
X1647928D01*
X1648651Y835812D01*
D02*
G37*
G36*
X1542352D02*
Y833858D01*
X1542194Y833700D01*
X1540384D01*
X1540226Y833858D01*
Y835812D01*
X1540949Y836870D01*
X1541629D01*
X1542352Y835812D01*
D02*
G37*
G36*
X798257D02*
Y833858D01*
X798100Y833700D01*
X796289D01*
X796132Y833858D01*
Y835812D01*
X796854Y836870D01*
X797535D01*
X798257Y835812D01*
D02*
G37*
G36*
X691958D02*
Y833858D01*
X691801Y833700D01*
X689990D01*
X689832Y833858D01*
Y835812D01*
X690555Y836870D01*
X691235D01*
X691958Y835812D01*
D02*
G37*
G36*
X904557D02*
Y833858D01*
X904399Y833700D01*
X902588D01*
X902431Y833858D01*
Y835812D01*
X903154Y836870D01*
X903834D01*
X904557Y835812D01*
D02*
G37*
G36*
X1117155D02*
Y833858D01*
X1116998Y833700D01*
X1115187D01*
X1115029Y833858D01*
Y835812D01*
X1115752Y836870D01*
X1116432D01*
X1117155Y835812D01*
D02*
G37*
G36*
X1010856D02*
Y833858D01*
X1010698Y833700D01*
X1008887D01*
X1008730Y833858D01*
Y835812D01*
X1009453Y836870D01*
X1010133D01*
X1010856Y835812D01*
D02*
G37*
G36*
X1542352Y729513D02*
Y727559D01*
X1542194Y727401D01*
X1540384D01*
X1540226Y727559D01*
Y729513D01*
X1540949Y730571D01*
X1541629D01*
X1542352Y729513D01*
D02*
G37*
G36*
X1436053D02*
Y727559D01*
X1435895Y727401D01*
X1434084D01*
X1433927Y727559D01*
Y729513D01*
X1434650Y730571D01*
X1435330D01*
X1436053Y729513D01*
D02*
G37*
G36*
X1648651D02*
Y727559D01*
X1648494Y727401D01*
X1646683D01*
X1646525Y727559D01*
Y729513D01*
X1647248Y730571D01*
X1647928D01*
X1648651Y729513D01*
D02*
G37*
G36*
X160462Y734646D02*
Y732691D01*
X159739Y731634D01*
X159059D01*
X158336Y732691D01*
Y734646D01*
X158494Y734804D01*
X160305D01*
X160462Y734646D01*
D02*
G37*
G36*
X54163D02*
Y732691D01*
X53440Y731634D01*
X52760D01*
X52037Y732691D01*
Y734646D01*
X52194Y734804D01*
X54005D01*
X54163Y734646D01*
D02*
G37*
G36*
X1010856Y729513D02*
Y727559D01*
X1010698Y727401D01*
X1008887D01*
X1008730Y727559D01*
Y729513D01*
X1009453Y730571D01*
X1010133D01*
X1010856Y729513D01*
D02*
G37*
G36*
X904557D02*
Y727559D01*
X904399Y727401D01*
X902588D01*
X902431Y727559D01*
Y729513D01*
X903154Y730571D01*
X903834D01*
X904557Y729513D01*
D02*
G37*
G36*
X1117155D02*
Y727559D01*
X1116998Y727401D01*
X1115187D01*
X1115029Y727559D01*
Y729513D01*
X1115752Y730571D01*
X1116432D01*
X1117155Y729513D01*
D02*
G37*
G36*
X1329753D02*
Y727559D01*
X1329596Y727401D01*
X1327785D01*
X1327627Y727559D01*
Y729513D01*
X1328350Y730571D01*
X1329031D01*
X1329753Y729513D01*
D02*
G37*
G36*
X1223454D02*
Y727559D01*
X1223297Y727401D01*
X1221486D01*
X1221328Y727559D01*
Y729513D01*
X1222051Y730571D01*
X1222731D01*
X1223454Y729513D01*
D02*
G37*
G36*
X904557Y734646D02*
Y732691D01*
X903834Y731634D01*
X903154D01*
X902431Y732691D01*
Y734646D01*
X902588Y734804D01*
X904399D01*
X904557Y734646D01*
D02*
G37*
G36*
X798257D02*
Y732691D01*
X797535Y731634D01*
X796854D01*
X796132Y732691D01*
Y734646D01*
X796289Y734804D01*
X798100D01*
X798257Y734646D01*
D02*
G37*
G36*
X1010856D02*
Y732691D01*
X1010133Y731634D01*
X1009453D01*
X1008730Y732691D01*
Y734646D01*
X1008887Y734804D01*
X1010698D01*
X1010856Y734646D01*
D02*
G37*
G36*
X1223454D02*
Y732691D01*
X1222731Y731634D01*
X1222051D01*
X1221328Y732691D01*
Y734646D01*
X1221486Y734804D01*
X1223297D01*
X1223454Y734646D01*
D02*
G37*
G36*
X1117155D02*
Y732691D01*
X1116432Y731634D01*
X1115752D01*
X1115029Y732691D01*
Y734646D01*
X1115187Y734804D01*
X1116998D01*
X1117155Y734646D01*
D02*
G37*
G36*
X373061D02*
Y732691D01*
X372338Y731634D01*
X371657D01*
X370935Y732691D01*
Y734646D01*
X371092Y734804D01*
X372903D01*
X373061Y734646D01*
D02*
G37*
G36*
X266761D02*
Y732691D01*
X266039Y731634D01*
X265358D01*
X264635Y732691D01*
Y734646D01*
X264793Y734804D01*
X266604D01*
X266761Y734646D01*
D02*
G37*
G36*
X479360D02*
Y732691D01*
X478637Y731634D01*
X477957D01*
X477234Y732691D01*
Y734646D01*
X477391Y734804D01*
X479202D01*
X479360Y734646D01*
D02*
G37*
G36*
X691958D02*
Y732691D01*
X691235Y731634D01*
X690555D01*
X689832Y732691D01*
Y734646D01*
X689990Y734804D01*
X691801D01*
X691958Y734646D01*
D02*
G37*
G36*
X585659D02*
Y732691D01*
X584936Y731634D01*
X584256D01*
X583533Y732691D01*
Y734646D01*
X583691Y734804D01*
X585502D01*
X585659Y734646D01*
D02*
G37*
D11*
X53098Y1047854D02*
D03*
Y1052146D02*
D03*
X53100Y941555D02*
D03*
Y945847D02*
D03*
Y835256D02*
D03*
Y839548D02*
D03*
Y728957D02*
D03*
Y733248D02*
D03*
Y622657D02*
D03*
Y626949D02*
D03*
Y516358D02*
D03*
Y520650D02*
D03*
Y410059D02*
D03*
Y414351D02*
D03*
Y303760D02*
D03*
Y308051D02*
D03*
Y197460D02*
D03*
Y201752D02*
D03*
Y91161D02*
D03*
Y95453D02*
D03*
X159399Y91161D02*
D03*
Y95453D02*
D03*
Y197460D02*
D03*
Y201752D02*
D03*
Y303760D02*
D03*
Y308051D02*
D03*
Y410059D02*
D03*
Y414351D02*
D03*
Y516358D02*
D03*
Y520650D02*
D03*
Y622657D02*
D03*
Y626949D02*
D03*
Y728957D02*
D03*
Y733248D02*
D03*
Y835256D02*
D03*
Y839548D02*
D03*
Y941555D02*
D03*
Y945847D02*
D03*
Y1047854D02*
D03*
Y1052146D02*
D03*
X265698Y91161D02*
D03*
Y95453D02*
D03*
Y197460D02*
D03*
Y201752D02*
D03*
Y303760D02*
D03*
Y308051D02*
D03*
Y410059D02*
D03*
Y414351D02*
D03*
Y516358D02*
D03*
Y520650D02*
D03*
Y622657D02*
D03*
Y626949D02*
D03*
Y728957D02*
D03*
Y733248D02*
D03*
Y835256D02*
D03*
Y839548D02*
D03*
Y941555D02*
D03*
Y945847D02*
D03*
Y1047854D02*
D03*
Y1052146D02*
D03*
X371998Y91161D02*
D03*
Y95453D02*
D03*
Y197460D02*
D03*
Y201752D02*
D03*
Y303760D02*
D03*
Y308051D02*
D03*
Y410059D02*
D03*
Y414351D02*
D03*
Y516358D02*
D03*
Y520650D02*
D03*
Y622657D02*
D03*
Y626949D02*
D03*
Y728957D02*
D03*
Y733248D02*
D03*
Y835256D02*
D03*
Y839548D02*
D03*
Y941555D02*
D03*
Y945847D02*
D03*
Y1047854D02*
D03*
Y1052146D02*
D03*
X478297Y91161D02*
D03*
Y95453D02*
D03*
Y197460D02*
D03*
Y201752D02*
D03*
Y303760D02*
D03*
Y308051D02*
D03*
Y410059D02*
D03*
Y414351D02*
D03*
Y516358D02*
D03*
Y520650D02*
D03*
Y622657D02*
D03*
Y626949D02*
D03*
Y728957D02*
D03*
Y733248D02*
D03*
Y835256D02*
D03*
Y839548D02*
D03*
Y941555D02*
D03*
Y945847D02*
D03*
Y1047854D02*
D03*
Y1052146D02*
D03*
X584596Y91161D02*
D03*
Y95453D02*
D03*
Y197460D02*
D03*
Y201752D02*
D03*
Y303760D02*
D03*
Y308051D02*
D03*
Y410059D02*
D03*
Y414351D02*
D03*
Y516358D02*
D03*
Y520650D02*
D03*
Y622657D02*
D03*
Y626949D02*
D03*
Y728957D02*
D03*
Y733248D02*
D03*
Y835256D02*
D03*
Y839548D02*
D03*
Y941555D02*
D03*
Y945847D02*
D03*
Y1047854D02*
D03*
Y1052146D02*
D03*
X690895Y91161D02*
D03*
Y95453D02*
D03*
Y197460D02*
D03*
Y201752D02*
D03*
Y303760D02*
D03*
Y308051D02*
D03*
Y410059D02*
D03*
Y414351D02*
D03*
Y516358D02*
D03*
Y520650D02*
D03*
Y622657D02*
D03*
Y626949D02*
D03*
Y728957D02*
D03*
Y733248D02*
D03*
Y835256D02*
D03*
Y839548D02*
D03*
Y941555D02*
D03*
Y945847D02*
D03*
Y1047854D02*
D03*
Y1052146D02*
D03*
X797194Y91161D02*
D03*
Y95453D02*
D03*
Y197460D02*
D03*
Y201752D02*
D03*
Y303760D02*
D03*
Y308051D02*
D03*
Y410059D02*
D03*
Y414351D02*
D03*
Y516358D02*
D03*
Y520650D02*
D03*
Y622657D02*
D03*
Y626949D02*
D03*
Y728957D02*
D03*
Y733248D02*
D03*
Y835256D02*
D03*
Y839548D02*
D03*
Y941555D02*
D03*
Y945847D02*
D03*
Y1047854D02*
D03*
Y1052146D02*
D03*
X903494Y91161D02*
D03*
Y95453D02*
D03*
Y197460D02*
D03*
Y201752D02*
D03*
Y303760D02*
D03*
Y308051D02*
D03*
Y410059D02*
D03*
Y414351D02*
D03*
Y516358D02*
D03*
Y520650D02*
D03*
Y622657D02*
D03*
Y626949D02*
D03*
Y728957D02*
D03*
Y733248D02*
D03*
Y835256D02*
D03*
Y839548D02*
D03*
Y941555D02*
D03*
Y945847D02*
D03*
Y1047854D02*
D03*
Y1052146D02*
D03*
X1009793Y91161D02*
D03*
Y95453D02*
D03*
Y197460D02*
D03*
Y201752D02*
D03*
Y303760D02*
D03*
Y308051D02*
D03*
Y410059D02*
D03*
Y414351D02*
D03*
Y516358D02*
D03*
Y520650D02*
D03*
Y622657D02*
D03*
Y626949D02*
D03*
Y728957D02*
D03*
Y733248D02*
D03*
Y835256D02*
D03*
Y839548D02*
D03*
Y941555D02*
D03*
Y945847D02*
D03*
Y1047854D02*
D03*
Y1052146D02*
D03*
X1116092Y91161D02*
D03*
Y95453D02*
D03*
Y197460D02*
D03*
Y201752D02*
D03*
Y303760D02*
D03*
Y308051D02*
D03*
Y410059D02*
D03*
Y414351D02*
D03*
Y516358D02*
D03*
Y520650D02*
D03*
Y622657D02*
D03*
Y626949D02*
D03*
Y728957D02*
D03*
Y733248D02*
D03*
Y835256D02*
D03*
Y839548D02*
D03*
Y941555D02*
D03*
Y945847D02*
D03*
Y1047854D02*
D03*
Y1052146D02*
D03*
X1222391Y91161D02*
D03*
Y95453D02*
D03*
Y197460D02*
D03*
Y201752D02*
D03*
Y303760D02*
D03*
Y308051D02*
D03*
Y410059D02*
D03*
Y414351D02*
D03*
Y516358D02*
D03*
Y520650D02*
D03*
Y622657D02*
D03*
Y626949D02*
D03*
Y728957D02*
D03*
Y733248D02*
D03*
Y835256D02*
D03*
Y839548D02*
D03*
Y941555D02*
D03*
Y945847D02*
D03*
Y1047854D02*
D03*
Y1052146D02*
D03*
X1328691Y91161D02*
D03*
Y95453D02*
D03*
Y197460D02*
D03*
Y201752D02*
D03*
Y303760D02*
D03*
Y308051D02*
D03*
Y410059D02*
D03*
Y414351D02*
D03*
Y516358D02*
D03*
Y520650D02*
D03*
Y622657D02*
D03*
Y626949D02*
D03*
Y728957D02*
D03*
Y733248D02*
D03*
Y835256D02*
D03*
Y839548D02*
D03*
Y941555D02*
D03*
Y945847D02*
D03*
Y1047854D02*
D03*
Y1052146D02*
D03*
X1434990Y91161D02*
D03*
Y95453D02*
D03*
Y197460D02*
D03*
Y201752D02*
D03*
Y303760D02*
D03*
Y308051D02*
D03*
Y410059D02*
D03*
Y414351D02*
D03*
Y516358D02*
D03*
Y520650D02*
D03*
Y622657D02*
D03*
Y626949D02*
D03*
Y728957D02*
D03*
Y733248D02*
D03*
Y835256D02*
D03*
Y839548D02*
D03*
Y941555D02*
D03*
Y945847D02*
D03*
Y1047854D02*
D03*
Y1052146D02*
D03*
X1541289Y91161D02*
D03*
Y95453D02*
D03*
Y197460D02*
D03*
Y201752D02*
D03*
Y303760D02*
D03*
Y308051D02*
D03*
Y410059D02*
D03*
Y414351D02*
D03*
Y516358D02*
D03*
Y520650D02*
D03*
Y622657D02*
D03*
Y626949D02*
D03*
Y728957D02*
D03*
Y733248D02*
D03*
Y835256D02*
D03*
Y839548D02*
D03*
Y941555D02*
D03*
Y945847D02*
D03*
Y1047854D02*
D03*
Y1052146D02*
D03*
X1647588Y91161D02*
D03*
Y95453D02*
D03*
Y197460D02*
D03*
Y201752D02*
D03*
Y303760D02*
D03*
Y308051D02*
D03*
Y410059D02*
D03*
Y414351D02*
D03*
Y516358D02*
D03*
Y520650D02*
D03*
Y622657D02*
D03*
Y626949D02*
D03*
Y728957D02*
D03*
Y733248D02*
D03*
Y835256D02*
D03*
Y839548D02*
D03*
Y941555D02*
D03*
Y945847D02*
D03*
Y1047854D02*
D03*
Y1052146D02*
D03*
M02*
