G04 Layer_Physical_Order=2*
G04 Layer_Color=36540*
%FSLAX25Y25*%
%MOIN*%
G70*
G01*
G75*
%ADD12C,0.05906*%
%ADD13P,0.06392X8X202.5*%
%ADD14C,0.01969*%
G36*
X1694246Y1144797D02*
X1695528Y1144408D01*
X1696709Y1143777D01*
X1697744Y1142927D01*
X1698594Y1141892D01*
X1699225Y1140710D01*
X1699614Y1139429D01*
X1699744Y1138106D01*
X1699742Y1138096D01*
Y7874D01*
X1699744Y7864D01*
X1699614Y6541D01*
X1699225Y5260D01*
X1698594Y4078D01*
X1697744Y3043D01*
X1696709Y2193D01*
X1695528Y1562D01*
X1694246Y1173D01*
X1692923Y1043D01*
X1692913Y1045D01*
X7874D01*
X7864Y1043D01*
X6541Y1173D01*
X5260Y1562D01*
X4078Y2193D01*
X3043Y3043D01*
X2193Y4078D01*
X1562Y5260D01*
X1173Y6541D01*
X1043Y7864D01*
X1045Y7874D01*
Y1138096D01*
X1043Y1138106D01*
X1173Y1139429D01*
X1562Y1140710D01*
X2193Y1141892D01*
X3043Y1142927D01*
X4078Y1143777D01*
X5260Y1144408D01*
X6541Y1144797D01*
X7864Y1144927D01*
X7874Y1144925D01*
X1692913D01*
X1692923Y1144927D01*
X1694246Y1144797D01*
D02*
G37*
%LPC*%
G36*
X1116142Y741169D02*
X1115604Y741062D01*
X1115148Y740757D01*
X1114844Y740301D01*
X1114737Y739764D01*
X1114844Y739226D01*
X1115148Y738770D01*
X1115604Y738466D01*
X1116142Y738359D01*
X1116679Y738466D01*
X1117135Y738770D01*
X1117440Y739226D01*
X1117547Y739764D01*
X1117440Y740301D01*
X1117135Y740757D01*
X1116679Y741062D01*
X1116142Y741169D01*
D02*
G37*
G36*
X1009842D02*
X1009305Y741062D01*
X1008849Y740757D01*
X1008545Y740301D01*
X1008438Y739764D01*
X1008545Y739226D01*
X1008849Y738770D01*
X1009305Y738466D01*
X1009842Y738359D01*
X1010380Y738466D01*
X1010836Y738770D01*
X1011141Y739226D01*
X1011248Y739764D01*
X1011141Y740301D01*
X1010836Y740757D01*
X1010380Y741062D01*
X1009842Y741169D01*
D02*
G37*
G36*
X1222441D02*
X1221903Y741062D01*
X1221447Y740757D01*
X1221143Y740301D01*
X1221036Y739764D01*
X1221143Y739226D01*
X1221447Y738770D01*
X1221903Y738466D01*
X1222441Y738359D01*
X1222979Y738466D01*
X1223434Y738770D01*
X1223739Y739226D01*
X1223846Y739764D01*
X1223739Y740301D01*
X1223434Y740757D01*
X1222979Y741062D01*
X1222441Y741169D01*
D02*
G37*
G36*
X1435039D02*
X1434502Y741062D01*
X1434046Y740757D01*
X1433741Y740301D01*
X1433634Y739764D01*
X1433741Y739226D01*
X1434046Y738770D01*
X1434502Y738466D01*
X1435039Y738359D01*
X1435577Y738466D01*
X1436033Y738770D01*
X1436337Y739226D01*
X1436444Y739764D01*
X1436337Y740301D01*
X1436033Y740757D01*
X1435577Y741062D01*
X1435039Y741169D01*
D02*
G37*
G36*
X1328740D02*
X1328203Y741062D01*
X1327747Y740757D01*
X1327442Y740301D01*
X1327335Y739764D01*
X1327442Y739226D01*
X1327747Y738770D01*
X1328203Y738466D01*
X1328740Y738359D01*
X1329278Y738466D01*
X1329734Y738770D01*
X1330038Y739226D01*
X1330145Y739764D01*
X1330038Y740301D01*
X1329734Y740757D01*
X1329278Y741062D01*
X1328740Y741169D01*
D02*
G37*
G36*
X584646D02*
X584108Y741062D01*
X583652Y740757D01*
X583348Y740301D01*
X583241Y739764D01*
X583348Y739226D01*
X583652Y738770D01*
X584108Y738466D01*
X584646Y738359D01*
X585183Y738466D01*
X585639Y738770D01*
X585944Y739226D01*
X586051Y739764D01*
X585944Y740301D01*
X585639Y740757D01*
X585183Y741062D01*
X584646Y741169D01*
D02*
G37*
G36*
X478346D02*
X477809Y741062D01*
X477353Y740757D01*
X477048Y740301D01*
X476941Y739764D01*
X477048Y739226D01*
X477353Y738770D01*
X477809Y738466D01*
X478346Y738359D01*
X478884Y738466D01*
X479340Y738770D01*
X479644Y739226D01*
X479751Y739764D01*
X479644Y740301D01*
X479340Y740757D01*
X478884Y741062D01*
X478346Y741169D01*
D02*
G37*
G36*
X690945D02*
X690407Y741062D01*
X689951Y740757D01*
X689647Y740301D01*
X689540Y739764D01*
X689647Y739226D01*
X689951Y738770D01*
X690407Y738466D01*
X690945Y738359D01*
X691482Y738466D01*
X691938Y738770D01*
X692243Y739226D01*
X692350Y739764D01*
X692243Y740301D01*
X691938Y740757D01*
X691482Y741062D01*
X690945Y741169D01*
D02*
G37*
G36*
X903543D02*
X903006Y741062D01*
X902550Y740757D01*
X902245Y740301D01*
X902138Y739764D01*
X902245Y739226D01*
X902550Y738770D01*
X903006Y738466D01*
X903543Y738359D01*
X904081Y738466D01*
X904537Y738770D01*
X904841Y739226D01*
X904948Y739764D01*
X904841Y740301D01*
X904537Y740757D01*
X904081Y741062D01*
X903543Y741169D01*
D02*
G37*
G36*
X797244D02*
X796706Y741062D01*
X796251Y740757D01*
X795946Y740301D01*
X795839Y739764D01*
X795946Y739226D01*
X796251Y738770D01*
X796706Y738466D01*
X797244Y738359D01*
X797782Y738466D01*
X798238Y738770D01*
X798542Y739226D01*
X798649Y739764D01*
X798542Y740301D01*
X798238Y740757D01*
X797782Y741062D01*
X797244Y741169D01*
D02*
G37*
G36*
X478346Y847468D02*
X477809Y847361D01*
X477353Y847056D01*
X477048Y846601D01*
X476941Y846063D01*
X477048Y845525D01*
X477353Y845070D01*
X477809Y844765D01*
X478346Y844658D01*
X478884Y844765D01*
X479340Y845070D01*
X479644Y845525D01*
X479751Y846063D01*
X479644Y846601D01*
X479340Y847056D01*
X478884Y847361D01*
X478346Y847468D01*
D02*
G37*
G36*
X372047D02*
X371510Y847361D01*
X371054Y847056D01*
X370749Y846601D01*
X370642Y846063D01*
X370749Y845525D01*
X371054Y845070D01*
X371510Y844765D01*
X372047Y844658D01*
X372585Y844765D01*
X373041Y845070D01*
X373345Y845525D01*
X373452Y846063D01*
X373345Y846601D01*
X373041Y847056D01*
X372585Y847361D01*
X372047Y847468D01*
D02*
G37*
G36*
X584646D02*
X584108Y847361D01*
X583652Y847056D01*
X583348Y846601D01*
X583241Y846063D01*
X583348Y845525D01*
X583652Y845070D01*
X584108Y844765D01*
X584646Y844658D01*
X585183Y844765D01*
X585639Y845070D01*
X585944Y845525D01*
X586051Y846063D01*
X585944Y846601D01*
X585639Y847056D01*
X585183Y847361D01*
X584646Y847468D01*
D02*
G37*
G36*
X797244D02*
X796706Y847361D01*
X796251Y847056D01*
X795946Y846601D01*
X795839Y846063D01*
X795946Y845525D01*
X796251Y845070D01*
X796706Y844765D01*
X797244Y844658D01*
X797782Y844765D01*
X798238Y845070D01*
X798542Y845525D01*
X798649Y846063D01*
X798542Y846601D01*
X798238Y847056D01*
X797782Y847361D01*
X797244Y847468D01*
D02*
G37*
G36*
X690945D02*
X690407Y847361D01*
X689951Y847056D01*
X689647Y846601D01*
X689540Y846063D01*
X689647Y845525D01*
X689951Y845070D01*
X690407Y844765D01*
X690945Y844658D01*
X691482Y844765D01*
X691938Y845070D01*
X692243Y845525D01*
X692350Y846063D01*
X692243Y846601D01*
X691938Y847056D01*
X691482Y847361D01*
X690945Y847468D01*
D02*
G37*
G36*
X1647638Y741169D02*
X1647100Y741062D01*
X1646644Y740757D01*
X1646340Y740301D01*
X1646233Y739764D01*
X1646340Y739226D01*
X1646644Y738770D01*
X1647100Y738466D01*
X1647638Y738359D01*
X1648175Y738466D01*
X1648631Y738770D01*
X1648936Y739226D01*
X1649043Y739764D01*
X1648936Y740301D01*
X1648631Y740757D01*
X1648175Y741062D01*
X1647638Y741169D01*
D02*
G37*
G36*
X1541339D02*
X1540801Y741062D01*
X1540345Y740757D01*
X1540041Y740301D01*
X1539934Y739764D01*
X1540041Y739226D01*
X1540345Y738770D01*
X1540801Y738466D01*
X1541339Y738359D01*
X1541876Y738466D01*
X1542332Y738770D01*
X1542637Y739226D01*
X1542743Y739764D01*
X1542637Y740301D01*
X1542332Y740757D01*
X1541876Y741062D01*
X1541339Y741169D01*
D02*
G37*
G36*
X53150Y847468D02*
X52612Y847361D01*
X52156Y847056D01*
X51852Y846601D01*
X51745Y846063D01*
X51852Y845525D01*
X52156Y845070D01*
X52612Y844765D01*
X53150Y844658D01*
X53687Y844765D01*
X54143Y845070D01*
X54448Y845525D01*
X54555Y846063D01*
X54448Y846601D01*
X54143Y847056D01*
X53687Y847361D01*
X53150Y847468D01*
D02*
G37*
G36*
X265748D02*
X265210Y847361D01*
X264755Y847056D01*
X264450Y846601D01*
X264343Y846063D01*
X264450Y845525D01*
X264755Y845070D01*
X265210Y844765D01*
X265748Y844658D01*
X266286Y844765D01*
X266741Y845070D01*
X267046Y845525D01*
X267153Y846063D01*
X267046Y846601D01*
X266741Y847056D01*
X266286Y847361D01*
X265748Y847468D01*
D02*
G37*
G36*
X159449D02*
X158911Y847361D01*
X158455Y847056D01*
X158151Y846601D01*
X158044Y846063D01*
X158151Y845525D01*
X158455Y845070D01*
X158911Y844765D01*
X159449Y844658D01*
X159986Y844765D01*
X160442Y845070D01*
X160747Y845525D01*
X160854Y846063D01*
X160747Y846601D01*
X160442Y847056D01*
X159986Y847361D01*
X159449Y847468D01*
D02*
G37*
G36*
X690945Y634869D02*
X690407Y634763D01*
X689951Y634458D01*
X689647Y634002D01*
X689540Y633465D01*
X689647Y632927D01*
X689951Y632471D01*
X690407Y632167D01*
X690945Y632060D01*
X691482Y632167D01*
X691938Y632471D01*
X692243Y632927D01*
X692350Y633465D01*
X692243Y634002D01*
X691938Y634458D01*
X691482Y634763D01*
X690945Y634869D01*
D02*
G37*
G36*
X584646D02*
X584108Y634763D01*
X583652Y634458D01*
X583348Y634002D01*
X583241Y633465D01*
X583348Y632927D01*
X583652Y632471D01*
X584108Y632167D01*
X584646Y632060D01*
X585183Y632167D01*
X585639Y632471D01*
X585944Y632927D01*
X586051Y633465D01*
X585944Y634002D01*
X585639Y634458D01*
X585183Y634763D01*
X584646Y634869D01*
D02*
G37*
G36*
X797244D02*
X796706Y634763D01*
X796251Y634458D01*
X795946Y634002D01*
X795839Y633465D01*
X795946Y632927D01*
X796251Y632471D01*
X796706Y632167D01*
X797244Y632060D01*
X797782Y632167D01*
X798238Y632471D01*
X798542Y632927D01*
X798649Y633465D01*
X798542Y634002D01*
X798238Y634458D01*
X797782Y634763D01*
X797244Y634869D01*
D02*
G37*
G36*
X1009842D02*
X1009305Y634763D01*
X1008849Y634458D01*
X1008545Y634002D01*
X1008438Y633465D01*
X1008545Y632927D01*
X1008849Y632471D01*
X1009305Y632167D01*
X1009842Y632060D01*
X1010380Y632167D01*
X1010836Y632471D01*
X1011141Y632927D01*
X1011248Y633465D01*
X1011141Y634002D01*
X1010836Y634458D01*
X1010380Y634763D01*
X1009842Y634869D01*
D02*
G37*
G36*
X903543D02*
X903006Y634763D01*
X902550Y634458D01*
X902245Y634002D01*
X902138Y633465D01*
X902245Y632927D01*
X902550Y632471D01*
X903006Y632167D01*
X903543Y632060D01*
X904081Y632167D01*
X904537Y632471D01*
X904841Y632927D01*
X904948Y633465D01*
X904841Y634002D01*
X904537Y634458D01*
X904081Y634763D01*
X903543Y634869D01*
D02*
G37*
G36*
X159449D02*
X158911Y634763D01*
X158455Y634458D01*
X158151Y634002D01*
X158044Y633465D01*
X158151Y632927D01*
X158455Y632471D01*
X158911Y632167D01*
X159449Y632060D01*
X159986Y632167D01*
X160442Y632471D01*
X160747Y632927D01*
X160854Y633465D01*
X160747Y634002D01*
X160442Y634458D01*
X159986Y634763D01*
X159449Y634869D01*
D02*
G37*
G36*
X53150D02*
X52612Y634763D01*
X52156Y634458D01*
X51852Y634002D01*
X51745Y633465D01*
X51852Y632927D01*
X52156Y632471D01*
X52612Y632167D01*
X53150Y632060D01*
X53687Y632167D01*
X54143Y632471D01*
X54448Y632927D01*
X54555Y633465D01*
X54448Y634002D01*
X54143Y634458D01*
X53687Y634763D01*
X53150Y634869D01*
D02*
G37*
G36*
X265748D02*
X265210Y634763D01*
X264755Y634458D01*
X264450Y634002D01*
X264343Y633465D01*
X264450Y632927D01*
X264755Y632471D01*
X265210Y632167D01*
X265748Y632060D01*
X266286Y632167D01*
X266741Y632471D01*
X267046Y632927D01*
X267153Y633465D01*
X267046Y634002D01*
X266741Y634458D01*
X266286Y634763D01*
X265748Y634869D01*
D02*
G37*
G36*
X478346D02*
X477809Y634763D01*
X477353Y634458D01*
X477048Y634002D01*
X476941Y633465D01*
X477048Y632927D01*
X477353Y632471D01*
X477809Y632167D01*
X478346Y632060D01*
X478884Y632167D01*
X479340Y632471D01*
X479644Y632927D01*
X479751Y633465D01*
X479644Y634002D01*
X479340Y634458D01*
X478884Y634763D01*
X478346Y634869D01*
D02*
G37*
G36*
X372047D02*
X371510Y634763D01*
X371054Y634458D01*
X370749Y634002D01*
X370642Y633465D01*
X370749Y632927D01*
X371054Y632471D01*
X371510Y632167D01*
X372047Y632060D01*
X372585Y632167D01*
X373041Y632471D01*
X373345Y632927D01*
X373452Y633465D01*
X373345Y634002D01*
X373041Y634458D01*
X372585Y634763D01*
X372047Y634869D01*
D02*
G37*
G36*
X53150Y741169D02*
X52612Y741062D01*
X52156Y740757D01*
X51852Y740301D01*
X51745Y739764D01*
X51852Y739226D01*
X52156Y738770D01*
X52612Y738466D01*
X53150Y738359D01*
X53687Y738466D01*
X54143Y738770D01*
X54448Y739226D01*
X54555Y739764D01*
X54448Y740301D01*
X54143Y740757D01*
X53687Y741062D01*
X53150Y741169D01*
D02*
G37*
G36*
X1647638Y634869D02*
X1647100Y634763D01*
X1646644Y634458D01*
X1646340Y634002D01*
X1646233Y633465D01*
X1646340Y632927D01*
X1646644Y632471D01*
X1647100Y632167D01*
X1647638Y632060D01*
X1648175Y632167D01*
X1648631Y632471D01*
X1648936Y632927D01*
X1649043Y633465D01*
X1648936Y634002D01*
X1648631Y634458D01*
X1648175Y634763D01*
X1647638Y634869D01*
D02*
G37*
G36*
X159449Y741169D02*
X158911Y741062D01*
X158455Y740757D01*
X158151Y740301D01*
X158044Y739764D01*
X158151Y739226D01*
X158455Y738770D01*
X158911Y738466D01*
X159449Y738359D01*
X159986Y738466D01*
X160442Y738770D01*
X160747Y739226D01*
X160854Y739764D01*
X160747Y740301D01*
X160442Y740757D01*
X159986Y741062D01*
X159449Y741169D01*
D02*
G37*
G36*
X372047D02*
X371510Y741062D01*
X371054Y740757D01*
X370749Y740301D01*
X370642Y739764D01*
X370749Y739226D01*
X371054Y738770D01*
X371510Y738466D01*
X372047Y738359D01*
X372585Y738466D01*
X373041Y738770D01*
X373345Y739226D01*
X373452Y739764D01*
X373345Y740301D01*
X373041Y740757D01*
X372585Y741062D01*
X372047Y741169D01*
D02*
G37*
G36*
X265748D02*
X265210Y741062D01*
X264755Y740757D01*
X264450Y740301D01*
X264343Y739764D01*
X264450Y739226D01*
X264755Y738770D01*
X265210Y738466D01*
X265748Y738359D01*
X266286Y738466D01*
X266741Y738770D01*
X267046Y739226D01*
X267153Y739764D01*
X267046Y740301D01*
X266741Y740757D01*
X266286Y741062D01*
X265748Y741169D01*
D02*
G37*
G36*
X1222441Y634869D02*
X1221903Y634763D01*
X1221447Y634458D01*
X1221143Y634002D01*
X1221036Y633465D01*
X1221143Y632927D01*
X1221447Y632471D01*
X1221903Y632167D01*
X1222441Y632060D01*
X1222979Y632167D01*
X1223434Y632471D01*
X1223739Y632927D01*
X1223846Y633465D01*
X1223739Y634002D01*
X1223434Y634458D01*
X1222979Y634763D01*
X1222441Y634869D01*
D02*
G37*
G36*
X1116142D02*
X1115604Y634763D01*
X1115148Y634458D01*
X1114844Y634002D01*
X1114737Y633465D01*
X1114844Y632927D01*
X1115148Y632471D01*
X1115604Y632167D01*
X1116142Y632060D01*
X1116679Y632167D01*
X1117135Y632471D01*
X1117440Y632927D01*
X1117547Y633465D01*
X1117440Y634002D01*
X1117135Y634458D01*
X1116679Y634763D01*
X1116142Y634869D01*
D02*
G37*
G36*
X1328740D02*
X1328203Y634763D01*
X1327747Y634458D01*
X1327442Y634002D01*
X1327335Y633465D01*
X1327442Y632927D01*
X1327747Y632471D01*
X1328203Y632167D01*
X1328740Y632060D01*
X1329278Y632167D01*
X1329734Y632471D01*
X1330038Y632927D01*
X1330145Y633465D01*
X1330038Y634002D01*
X1329734Y634458D01*
X1329278Y634763D01*
X1328740Y634869D01*
D02*
G37*
G36*
X1541339D02*
X1540801Y634763D01*
X1540345Y634458D01*
X1540041Y634002D01*
X1539934Y633465D01*
X1540041Y632927D01*
X1540345Y632471D01*
X1540801Y632167D01*
X1541339Y632060D01*
X1541876Y632167D01*
X1542332Y632471D01*
X1542637Y632927D01*
X1542743Y633465D01*
X1542637Y634002D01*
X1542332Y634458D01*
X1541876Y634763D01*
X1541339Y634869D01*
D02*
G37*
G36*
X1435039D02*
X1434502Y634763D01*
X1434046Y634458D01*
X1433741Y634002D01*
X1433634Y633465D01*
X1433741Y632927D01*
X1434046Y632471D01*
X1434502Y632167D01*
X1435039Y632060D01*
X1435577Y632167D01*
X1436033Y632471D01*
X1436337Y632927D01*
X1436444Y633465D01*
X1436337Y634002D01*
X1436033Y634458D01*
X1435577Y634763D01*
X1435039Y634869D01*
D02*
G37*
G36*
X903543Y847468D02*
X903006Y847361D01*
X902550Y847056D01*
X902245Y846601D01*
X902138Y846063D01*
X902245Y845525D01*
X902550Y845070D01*
X903006Y844765D01*
X903543Y844658D01*
X904081Y844765D01*
X904537Y845070D01*
X904841Y845525D01*
X904948Y846063D01*
X904841Y846601D01*
X904537Y847056D01*
X904081Y847361D01*
X903543Y847468D01*
D02*
G37*
G36*
X372047Y1060066D02*
X371510Y1059959D01*
X371054Y1059655D01*
X370749Y1059199D01*
X370642Y1058661D01*
X370749Y1058124D01*
X371054Y1057668D01*
X371510Y1057363D01*
X372047Y1057257D01*
X372585Y1057363D01*
X373041Y1057668D01*
X373345Y1058124D01*
X373452Y1058661D01*
X373345Y1059199D01*
X373041Y1059655D01*
X372585Y1059959D01*
X372047Y1060066D01*
D02*
G37*
G36*
X265748D02*
X265210Y1059959D01*
X264755Y1059655D01*
X264450Y1059199D01*
X264343Y1058661D01*
X264450Y1058124D01*
X264755Y1057668D01*
X265210Y1057363D01*
X265748Y1057257D01*
X266286Y1057363D01*
X266741Y1057668D01*
X267046Y1058124D01*
X267153Y1058661D01*
X267046Y1059199D01*
X266741Y1059655D01*
X266286Y1059959D01*
X265748Y1060066D01*
D02*
G37*
G36*
X478346D02*
X477809Y1059959D01*
X477353Y1059655D01*
X477048Y1059199D01*
X476941Y1058661D01*
X477048Y1058124D01*
X477353Y1057668D01*
X477809Y1057363D01*
X478346Y1057257D01*
X478884Y1057363D01*
X479340Y1057668D01*
X479644Y1058124D01*
X479751Y1058661D01*
X479644Y1059199D01*
X479340Y1059655D01*
X478884Y1059959D01*
X478346Y1060066D01*
D02*
G37*
G36*
X690945D02*
X690407Y1059959D01*
X689951Y1059655D01*
X689647Y1059199D01*
X689540Y1058661D01*
X689647Y1058124D01*
X689951Y1057668D01*
X690407Y1057363D01*
X690945Y1057257D01*
X691482Y1057363D01*
X691938Y1057668D01*
X692243Y1058124D01*
X692350Y1058661D01*
X692243Y1059199D01*
X691938Y1059655D01*
X691482Y1059959D01*
X690945Y1060066D01*
D02*
G37*
G36*
X584646D02*
X584108Y1059959D01*
X583652Y1059655D01*
X583348Y1059199D01*
X583241Y1058661D01*
X583348Y1058124D01*
X583652Y1057668D01*
X584108Y1057363D01*
X584646Y1057257D01*
X585183Y1057363D01*
X585639Y1057668D01*
X585944Y1058124D01*
X586051Y1058661D01*
X585944Y1059199D01*
X585639Y1059655D01*
X585183Y1059959D01*
X584646Y1060066D01*
D02*
G37*
G36*
X1541339Y953767D02*
X1540801Y953660D01*
X1540345Y953356D01*
X1540041Y952900D01*
X1539934Y952362D01*
X1540041Y951825D01*
X1540345Y951369D01*
X1540801Y951064D01*
X1541339Y950957D01*
X1541876Y951064D01*
X1542332Y951369D01*
X1542637Y951825D01*
X1542743Y952362D01*
X1542637Y952900D01*
X1542332Y953356D01*
X1541876Y953660D01*
X1541339Y953767D01*
D02*
G37*
G36*
X1435039D02*
X1434502Y953660D01*
X1434046Y953356D01*
X1433741Y952900D01*
X1433634Y952362D01*
X1433741Y951825D01*
X1434046Y951369D01*
X1434502Y951064D01*
X1435039Y950957D01*
X1435577Y951064D01*
X1436033Y951369D01*
X1436337Y951825D01*
X1436444Y952362D01*
X1436337Y952900D01*
X1436033Y953356D01*
X1435577Y953660D01*
X1435039Y953767D01*
D02*
G37*
G36*
X1647638D02*
X1647100Y953660D01*
X1646644Y953356D01*
X1646340Y952900D01*
X1646233Y952362D01*
X1646340Y951825D01*
X1646644Y951369D01*
X1647100Y951064D01*
X1647638Y950957D01*
X1648175Y951064D01*
X1648631Y951369D01*
X1648936Y951825D01*
X1649043Y952362D01*
X1648936Y952900D01*
X1648631Y953356D01*
X1648175Y953660D01*
X1647638Y953767D01*
D02*
G37*
G36*
X159449Y1060066D02*
X158911Y1059959D01*
X158455Y1059655D01*
X158151Y1059199D01*
X158044Y1058661D01*
X158151Y1058124D01*
X158455Y1057668D01*
X158911Y1057363D01*
X159449Y1057257D01*
X159986Y1057363D01*
X160442Y1057668D01*
X160747Y1058124D01*
X160854Y1058661D01*
X160747Y1059199D01*
X160442Y1059655D01*
X159986Y1059959D01*
X159449Y1060066D01*
D02*
G37*
G36*
X53150D02*
X52612Y1059959D01*
X52156Y1059655D01*
X51852Y1059199D01*
X51745Y1058661D01*
X51852Y1058124D01*
X52156Y1057668D01*
X52612Y1057363D01*
X53150Y1057257D01*
X53687Y1057363D01*
X54143Y1057668D01*
X54448Y1058124D01*
X54555Y1058661D01*
X54448Y1059199D01*
X54143Y1059655D01*
X53687Y1059959D01*
X53150Y1060066D01*
D02*
G37*
G36*
X1435039D02*
X1434502Y1059959D01*
X1434046Y1059655D01*
X1433741Y1059199D01*
X1433634Y1058661D01*
X1433741Y1058124D01*
X1434046Y1057668D01*
X1434502Y1057363D01*
X1435039Y1057257D01*
X1435577Y1057363D01*
X1436033Y1057668D01*
X1436337Y1058124D01*
X1436444Y1058661D01*
X1436337Y1059199D01*
X1436033Y1059655D01*
X1435577Y1059959D01*
X1435039Y1060066D01*
D02*
G37*
G36*
X1328740D02*
X1328203Y1059959D01*
X1327747Y1059655D01*
X1327442Y1059199D01*
X1327335Y1058661D01*
X1327442Y1058124D01*
X1327747Y1057668D01*
X1328203Y1057363D01*
X1328740Y1057257D01*
X1329278Y1057363D01*
X1329734Y1057668D01*
X1330038Y1058124D01*
X1330145Y1058661D01*
X1330038Y1059199D01*
X1329734Y1059655D01*
X1329278Y1059959D01*
X1328740Y1060066D01*
D02*
G37*
G36*
X1541339D02*
X1540801Y1059959D01*
X1540345Y1059655D01*
X1540041Y1059199D01*
X1539934Y1058661D01*
X1540041Y1058124D01*
X1540345Y1057668D01*
X1540801Y1057363D01*
X1541339Y1057257D01*
X1541876Y1057363D01*
X1542332Y1057668D01*
X1542637Y1058124D01*
X1542743Y1058661D01*
X1542637Y1059199D01*
X1542332Y1059655D01*
X1541876Y1059959D01*
X1541339Y1060066D01*
D02*
G37*
G36*
X53410Y1105207D02*
X52378Y1105071D01*
X51417Y1104673D01*
X50591Y1104039D01*
X49957Y1103213D01*
X49559Y1102252D01*
X49423Y1101220D01*
X49559Y1100188D01*
X49957Y1099227D01*
X50591Y1098401D01*
X51417Y1097767D01*
X52378Y1097369D01*
X53410Y1097233D01*
X54442Y1097369D01*
X55403Y1097767D01*
X56229Y1098401D01*
X56863Y1099227D01*
X57261Y1100188D01*
X57397Y1101220D01*
X57261Y1102252D01*
X56863Y1103213D01*
X56229Y1104039D01*
X55403Y1104673D01*
X54442Y1105071D01*
X53410Y1105207D01*
D02*
G37*
G36*
X1647638Y1060066D02*
X1647100Y1059959D01*
X1646644Y1059655D01*
X1646340Y1059199D01*
X1646233Y1058661D01*
X1646340Y1058124D01*
X1646644Y1057668D01*
X1647100Y1057363D01*
X1647638Y1057257D01*
X1648175Y1057363D01*
X1648631Y1057668D01*
X1648936Y1058124D01*
X1649043Y1058661D01*
X1648936Y1059199D01*
X1648631Y1059655D01*
X1648175Y1059959D01*
X1647638Y1060066D01*
D02*
G37*
G36*
X903543D02*
X903006Y1059959D01*
X902550Y1059655D01*
X902245Y1059199D01*
X902138Y1058661D01*
X902245Y1058124D01*
X902550Y1057668D01*
X903006Y1057363D01*
X903543Y1057257D01*
X904081Y1057363D01*
X904537Y1057668D01*
X904841Y1058124D01*
X904948Y1058661D01*
X904841Y1059199D01*
X904537Y1059655D01*
X904081Y1059959D01*
X903543Y1060066D01*
D02*
G37*
G36*
X797244D02*
X796706Y1059959D01*
X796251Y1059655D01*
X795946Y1059199D01*
X795839Y1058661D01*
X795946Y1058124D01*
X796251Y1057668D01*
X796706Y1057363D01*
X797244Y1057257D01*
X797782Y1057363D01*
X798238Y1057668D01*
X798542Y1058124D01*
X798649Y1058661D01*
X798542Y1059199D01*
X798238Y1059655D01*
X797782Y1059959D01*
X797244Y1060066D01*
D02*
G37*
G36*
X1009842D02*
X1009305Y1059959D01*
X1008849Y1059655D01*
X1008545Y1059199D01*
X1008438Y1058661D01*
X1008545Y1058124D01*
X1008849Y1057668D01*
X1009305Y1057363D01*
X1009842Y1057257D01*
X1010380Y1057363D01*
X1010836Y1057668D01*
X1011141Y1058124D01*
X1011248Y1058661D01*
X1011141Y1059199D01*
X1010836Y1059655D01*
X1010380Y1059959D01*
X1009842Y1060066D01*
D02*
G37*
G36*
X1222441D02*
X1221903Y1059959D01*
X1221447Y1059655D01*
X1221143Y1059199D01*
X1221036Y1058661D01*
X1221143Y1058124D01*
X1221447Y1057668D01*
X1221903Y1057363D01*
X1222441Y1057257D01*
X1222979Y1057363D01*
X1223434Y1057668D01*
X1223739Y1058124D01*
X1223846Y1058661D01*
X1223739Y1059199D01*
X1223434Y1059655D01*
X1222979Y1059959D01*
X1222441Y1060066D01*
D02*
G37*
G36*
X1116142D02*
X1115604Y1059959D01*
X1115148Y1059655D01*
X1114844Y1059199D01*
X1114737Y1058661D01*
X1114844Y1058124D01*
X1115148Y1057668D01*
X1115604Y1057363D01*
X1116142Y1057257D01*
X1116679Y1057363D01*
X1117135Y1057668D01*
X1117440Y1058124D01*
X1117547Y1058661D01*
X1117440Y1059199D01*
X1117135Y1059655D01*
X1116679Y1059959D01*
X1116142Y1060066D01*
D02*
G37*
G36*
X1647638Y847468D02*
X1647100Y847361D01*
X1646644Y847056D01*
X1646340Y846601D01*
X1646233Y846063D01*
X1646340Y845525D01*
X1646644Y845070D01*
X1647100Y844765D01*
X1647638Y844658D01*
X1648175Y844765D01*
X1648631Y845070D01*
X1648936Y845525D01*
X1649043Y846063D01*
X1648936Y846601D01*
X1648631Y847056D01*
X1648175Y847361D01*
X1647638Y847468D01*
D02*
G37*
G36*
X1541339D02*
X1540801Y847361D01*
X1540345Y847056D01*
X1540041Y846601D01*
X1539934Y846063D01*
X1540041Y845525D01*
X1540345Y845070D01*
X1540801Y844765D01*
X1541339Y844658D01*
X1541876Y844765D01*
X1542332Y845070D01*
X1542637Y845525D01*
X1542743Y846063D01*
X1542637Y846601D01*
X1542332Y847056D01*
X1541876Y847361D01*
X1541339Y847468D01*
D02*
G37*
G36*
X53150Y953767D02*
X52612Y953660D01*
X52156Y953356D01*
X51852Y952900D01*
X51745Y952362D01*
X51852Y951825D01*
X52156Y951369D01*
X52612Y951064D01*
X53150Y950957D01*
X53687Y951064D01*
X54143Y951369D01*
X54448Y951825D01*
X54555Y952362D01*
X54448Y952900D01*
X54143Y953356D01*
X53687Y953660D01*
X53150Y953767D01*
D02*
G37*
G36*
X265748D02*
X265210Y953660D01*
X264755Y953356D01*
X264450Y952900D01*
X264343Y952362D01*
X264450Y951825D01*
X264755Y951369D01*
X265210Y951064D01*
X265748Y950957D01*
X266286Y951064D01*
X266741Y951369D01*
X267046Y951825D01*
X267153Y952362D01*
X267046Y952900D01*
X266741Y953356D01*
X266286Y953660D01*
X265748Y953767D01*
D02*
G37*
G36*
X159449D02*
X158911Y953660D01*
X158455Y953356D01*
X158151Y952900D01*
X158044Y952362D01*
X158151Y951825D01*
X158455Y951369D01*
X158911Y951064D01*
X159449Y950957D01*
X159986Y951064D01*
X160442Y951369D01*
X160747Y951825D01*
X160854Y952362D01*
X160747Y952900D01*
X160442Y953356D01*
X159986Y953660D01*
X159449Y953767D01*
D02*
G37*
G36*
X1116142Y847468D02*
X1115604Y847361D01*
X1115148Y847056D01*
X1114844Y846601D01*
X1114737Y846063D01*
X1114844Y845525D01*
X1115148Y845070D01*
X1115604Y844765D01*
X1116142Y844658D01*
X1116679Y844765D01*
X1117135Y845070D01*
X1117440Y845525D01*
X1117547Y846063D01*
X1117440Y846601D01*
X1117135Y847056D01*
X1116679Y847361D01*
X1116142Y847468D01*
D02*
G37*
G36*
X1009842D02*
X1009305Y847361D01*
X1008849Y847056D01*
X1008545Y846601D01*
X1008438Y846063D01*
X1008545Y845525D01*
X1008849Y845070D01*
X1009305Y844765D01*
X1009842Y844658D01*
X1010380Y844765D01*
X1010836Y845070D01*
X1011141Y845525D01*
X1011248Y846063D01*
X1011141Y846601D01*
X1010836Y847056D01*
X1010380Y847361D01*
X1009842Y847468D01*
D02*
G37*
G36*
X1222441D02*
X1221903Y847361D01*
X1221447Y847056D01*
X1221143Y846601D01*
X1221036Y846063D01*
X1221143Y845525D01*
X1221447Y845070D01*
X1221903Y844765D01*
X1222441Y844658D01*
X1222979Y844765D01*
X1223434Y845070D01*
X1223739Y845525D01*
X1223846Y846063D01*
X1223739Y846601D01*
X1223434Y847056D01*
X1222979Y847361D01*
X1222441Y847468D01*
D02*
G37*
G36*
X1435039D02*
X1434502Y847361D01*
X1434046Y847056D01*
X1433741Y846601D01*
X1433634Y846063D01*
X1433741Y845525D01*
X1434046Y845070D01*
X1434502Y844765D01*
X1435039Y844658D01*
X1435577Y844765D01*
X1436033Y845070D01*
X1436337Y845525D01*
X1436444Y846063D01*
X1436337Y846601D01*
X1436033Y847056D01*
X1435577Y847361D01*
X1435039Y847468D01*
D02*
G37*
G36*
X1328740D02*
X1328203Y847361D01*
X1327747Y847056D01*
X1327442Y846601D01*
X1327335Y846063D01*
X1327442Y845525D01*
X1327747Y845070D01*
X1328203Y844765D01*
X1328740Y844658D01*
X1329278Y844765D01*
X1329734Y845070D01*
X1330038Y845525D01*
X1330145Y846063D01*
X1330038Y846601D01*
X1329734Y847056D01*
X1329278Y847361D01*
X1328740Y847468D01*
D02*
G37*
G36*
X1009842Y953767D02*
X1009305Y953660D01*
X1008849Y953356D01*
X1008545Y952900D01*
X1008438Y952362D01*
X1008545Y951825D01*
X1008849Y951369D01*
X1009305Y951064D01*
X1009842Y950957D01*
X1010380Y951064D01*
X1010836Y951369D01*
X1011141Y951825D01*
X1011248Y952362D01*
X1011141Y952900D01*
X1010836Y953356D01*
X1010380Y953660D01*
X1009842Y953767D01*
D02*
G37*
G36*
X903543D02*
X903006Y953660D01*
X902550Y953356D01*
X902245Y952900D01*
X902138Y952362D01*
X902245Y951825D01*
X902550Y951369D01*
X903006Y951064D01*
X903543Y950957D01*
X904081Y951064D01*
X904537Y951369D01*
X904841Y951825D01*
X904948Y952362D01*
X904841Y952900D01*
X904537Y953356D01*
X904081Y953660D01*
X903543Y953767D01*
D02*
G37*
G36*
X1116142D02*
X1115604Y953660D01*
X1115148Y953356D01*
X1114844Y952900D01*
X1114737Y952362D01*
X1114844Y951825D01*
X1115148Y951369D01*
X1115604Y951064D01*
X1116142Y950957D01*
X1116679Y951064D01*
X1117135Y951369D01*
X1117440Y951825D01*
X1117547Y952362D01*
X1117440Y952900D01*
X1117135Y953356D01*
X1116679Y953660D01*
X1116142Y953767D01*
D02*
G37*
G36*
X1328740D02*
X1328203Y953660D01*
X1327747Y953356D01*
X1327442Y952900D01*
X1327335Y952362D01*
X1327442Y951825D01*
X1327747Y951369D01*
X1328203Y951064D01*
X1328740Y950957D01*
X1329278Y951064D01*
X1329734Y951369D01*
X1330038Y951825D01*
X1330145Y952362D01*
X1330038Y952900D01*
X1329734Y953356D01*
X1329278Y953660D01*
X1328740Y953767D01*
D02*
G37*
G36*
X1222441D02*
X1221903Y953660D01*
X1221447Y953356D01*
X1221143Y952900D01*
X1221036Y952362D01*
X1221143Y951825D01*
X1221447Y951369D01*
X1221903Y951064D01*
X1222441Y950957D01*
X1222979Y951064D01*
X1223434Y951369D01*
X1223739Y951825D01*
X1223846Y952362D01*
X1223739Y952900D01*
X1223434Y953356D01*
X1222979Y953660D01*
X1222441Y953767D01*
D02*
G37*
G36*
X478346D02*
X477809Y953660D01*
X477353Y953356D01*
X477048Y952900D01*
X476941Y952362D01*
X477048Y951825D01*
X477353Y951369D01*
X477809Y951064D01*
X478346Y950957D01*
X478884Y951064D01*
X479340Y951369D01*
X479644Y951825D01*
X479751Y952362D01*
X479644Y952900D01*
X479340Y953356D01*
X478884Y953660D01*
X478346Y953767D01*
D02*
G37*
G36*
X372047D02*
X371510Y953660D01*
X371054Y953356D01*
X370749Y952900D01*
X370642Y952362D01*
X370749Y951825D01*
X371054Y951369D01*
X371510Y951064D01*
X372047Y950957D01*
X372585Y951064D01*
X373041Y951369D01*
X373345Y951825D01*
X373452Y952362D01*
X373345Y952900D01*
X373041Y953356D01*
X372585Y953660D01*
X372047Y953767D01*
D02*
G37*
G36*
X584646D02*
X584108Y953660D01*
X583652Y953356D01*
X583348Y952900D01*
X583241Y952362D01*
X583348Y951825D01*
X583652Y951369D01*
X584108Y951064D01*
X584646Y950957D01*
X585183Y951064D01*
X585639Y951369D01*
X585944Y951825D01*
X586051Y952362D01*
X585944Y952900D01*
X585639Y953356D01*
X585183Y953660D01*
X584646Y953767D01*
D02*
G37*
G36*
X797244D02*
X796706Y953660D01*
X796251Y953356D01*
X795946Y952900D01*
X795839Y952362D01*
X795946Y951825D01*
X796251Y951369D01*
X796706Y951064D01*
X797244Y950957D01*
X797782Y951064D01*
X798238Y951369D01*
X798542Y951825D01*
X798649Y952362D01*
X798542Y952900D01*
X798238Y953356D01*
X797782Y953660D01*
X797244Y953767D01*
D02*
G37*
G36*
X690945D02*
X690407Y953660D01*
X689951Y953356D01*
X689647Y952900D01*
X689540Y952362D01*
X689647Y951825D01*
X689951Y951369D01*
X690407Y951064D01*
X690945Y950957D01*
X691482Y951064D01*
X691938Y951369D01*
X692243Y951825D01*
X692350Y952362D01*
X692243Y952900D01*
X691938Y953356D01*
X691482Y953660D01*
X690945Y953767D01*
D02*
G37*
G36*
X1647638Y528570D02*
X1647100Y528463D01*
X1646644Y528159D01*
X1646340Y527703D01*
X1646233Y527165D01*
X1646340Y526628D01*
X1646644Y526172D01*
X1647100Y525867D01*
X1647638Y525760D01*
X1648175Y525867D01*
X1648631Y526172D01*
X1648936Y526628D01*
X1649043Y527165D01*
X1648936Y527703D01*
X1648631Y528159D01*
X1648175Y528463D01*
X1647638Y528570D01*
D02*
G37*
G36*
X903543Y209673D02*
X903006Y209566D01*
X902550Y209261D01*
X902245Y208805D01*
X902138Y208268D01*
X902245Y207730D01*
X902550Y207274D01*
X903006Y206970D01*
X903543Y206863D01*
X904081Y206970D01*
X904537Y207274D01*
X904841Y207730D01*
X904948Y208268D01*
X904841Y208805D01*
X904537Y209261D01*
X904081Y209566D01*
X903543Y209673D01*
D02*
G37*
G36*
X797244D02*
X796706Y209566D01*
X796251Y209261D01*
X795946Y208805D01*
X795839Y208268D01*
X795946Y207730D01*
X796251Y207274D01*
X796706Y206970D01*
X797244Y206863D01*
X797782Y206970D01*
X798238Y207274D01*
X798542Y207730D01*
X798649Y208268D01*
X798542Y208805D01*
X798238Y209261D01*
X797782Y209566D01*
X797244Y209673D01*
D02*
G37*
G36*
X1009842D02*
X1009305Y209566D01*
X1008849Y209261D01*
X1008545Y208805D01*
X1008438Y208268D01*
X1008545Y207730D01*
X1008849Y207274D01*
X1009305Y206970D01*
X1009842Y206863D01*
X1010380Y206970D01*
X1010836Y207274D01*
X1011141Y207730D01*
X1011248Y208268D01*
X1011141Y208805D01*
X1010836Y209261D01*
X1010380Y209566D01*
X1009842Y209673D01*
D02*
G37*
G36*
X1222441D02*
X1221903Y209566D01*
X1221447Y209261D01*
X1221143Y208805D01*
X1221036Y208268D01*
X1221143Y207730D01*
X1221447Y207274D01*
X1221903Y206970D01*
X1222441Y206863D01*
X1222979Y206970D01*
X1223434Y207274D01*
X1223739Y207730D01*
X1223846Y208268D01*
X1223739Y208805D01*
X1223434Y209261D01*
X1222979Y209566D01*
X1222441Y209673D01*
D02*
G37*
G36*
X1116142D02*
X1115604Y209566D01*
X1115148Y209261D01*
X1114844Y208805D01*
X1114737Y208268D01*
X1114844Y207730D01*
X1115148Y207274D01*
X1115604Y206970D01*
X1116142Y206863D01*
X1116679Y206970D01*
X1117135Y207274D01*
X1117440Y207730D01*
X1117547Y208268D01*
X1117440Y208805D01*
X1117135Y209261D01*
X1116679Y209566D01*
X1116142Y209673D01*
D02*
G37*
G36*
X372047D02*
X371510Y209566D01*
X371054Y209261D01*
X370749Y208805D01*
X370642Y208268D01*
X370749Y207730D01*
X371054Y207274D01*
X371510Y206970D01*
X372047Y206863D01*
X372585Y206970D01*
X373041Y207274D01*
X373345Y207730D01*
X373452Y208268D01*
X373345Y208805D01*
X373041Y209261D01*
X372585Y209566D01*
X372047Y209673D01*
D02*
G37*
G36*
X265748D02*
X265210Y209566D01*
X264755Y209261D01*
X264450Y208805D01*
X264343Y208268D01*
X264450Y207730D01*
X264755Y207274D01*
X265210Y206970D01*
X265748Y206863D01*
X266286Y206970D01*
X266741Y207274D01*
X267046Y207730D01*
X267153Y208268D01*
X267046Y208805D01*
X266741Y209261D01*
X266286Y209566D01*
X265748Y209673D01*
D02*
G37*
G36*
X478346D02*
X477809Y209566D01*
X477353Y209261D01*
X477048Y208805D01*
X476941Y208268D01*
X477048Y207730D01*
X477353Y207274D01*
X477809Y206970D01*
X478346Y206863D01*
X478884Y206970D01*
X479340Y207274D01*
X479644Y207730D01*
X479751Y208268D01*
X479644Y208805D01*
X479340Y209261D01*
X478884Y209566D01*
X478346Y209673D01*
D02*
G37*
G36*
X690945D02*
X690407Y209566D01*
X689951Y209261D01*
X689647Y208805D01*
X689540Y208268D01*
X689647Y207730D01*
X689951Y207274D01*
X690407Y206970D01*
X690945Y206863D01*
X691482Y206970D01*
X691938Y207274D01*
X692243Y207730D01*
X692350Y208268D01*
X692243Y208805D01*
X691938Y209261D01*
X691482Y209566D01*
X690945Y209673D01*
D02*
G37*
G36*
X584646D02*
X584108Y209566D01*
X583652Y209261D01*
X583348Y208805D01*
X583241Y208268D01*
X583348Y207730D01*
X583652Y207274D01*
X584108Y206970D01*
X584646Y206863D01*
X585183Y206970D01*
X585639Y207274D01*
X585944Y207730D01*
X586051Y208268D01*
X585944Y208805D01*
X585639Y209261D01*
X585183Y209566D01*
X584646Y209673D01*
D02*
G37*
G36*
X265748Y315972D02*
X265210Y315865D01*
X264755Y315560D01*
X264450Y315105D01*
X264343Y314567D01*
X264450Y314029D01*
X264755Y313574D01*
X265210Y313269D01*
X265748Y313162D01*
X266286Y313269D01*
X266741Y313574D01*
X267046Y314029D01*
X267153Y314567D01*
X267046Y315105D01*
X266741Y315560D01*
X266286Y315865D01*
X265748Y315972D01*
D02*
G37*
G36*
X159449D02*
X158911Y315865D01*
X158455Y315560D01*
X158151Y315105D01*
X158044Y314567D01*
X158151Y314029D01*
X158455Y313574D01*
X158911Y313269D01*
X159449Y313162D01*
X159986Y313269D01*
X160442Y313574D01*
X160747Y314029D01*
X160854Y314567D01*
X160747Y315105D01*
X160442Y315560D01*
X159986Y315865D01*
X159449Y315972D01*
D02*
G37*
G36*
X372047D02*
X371510Y315865D01*
X371054Y315560D01*
X370749Y315105D01*
X370642Y314567D01*
X370749Y314029D01*
X371054Y313574D01*
X371510Y313269D01*
X372047Y313162D01*
X372585Y313269D01*
X373041Y313574D01*
X373345Y314029D01*
X373452Y314567D01*
X373345Y315105D01*
X373041Y315560D01*
X372585Y315865D01*
X372047Y315972D01*
D02*
G37*
G36*
X584646D02*
X584108Y315865D01*
X583652Y315560D01*
X583348Y315105D01*
X583241Y314567D01*
X583348Y314029D01*
X583652Y313574D01*
X584108Y313269D01*
X584646Y313162D01*
X585183Y313269D01*
X585639Y313574D01*
X585944Y314029D01*
X586051Y314567D01*
X585944Y315105D01*
X585639Y315560D01*
X585183Y315865D01*
X584646Y315972D01*
D02*
G37*
G36*
X478346D02*
X477809Y315865D01*
X477353Y315560D01*
X477048Y315105D01*
X476941Y314567D01*
X477048Y314029D01*
X477353Y313574D01*
X477809Y313269D01*
X478346Y313162D01*
X478884Y313269D01*
X479340Y313574D01*
X479644Y314029D01*
X479751Y314567D01*
X479644Y315105D01*
X479340Y315560D01*
X478884Y315865D01*
X478346Y315972D01*
D02*
G37*
G36*
X1435039Y209673D02*
X1434502Y209566D01*
X1434046Y209261D01*
X1433741Y208805D01*
X1433634Y208268D01*
X1433741Y207730D01*
X1434046Y207274D01*
X1434502Y206970D01*
X1435039Y206863D01*
X1435577Y206970D01*
X1436033Y207274D01*
X1436337Y207730D01*
X1436444Y208268D01*
X1436337Y208805D01*
X1436033Y209261D01*
X1435577Y209566D01*
X1435039Y209673D01*
D02*
G37*
G36*
X1328740D02*
X1328203Y209566D01*
X1327747Y209261D01*
X1327442Y208805D01*
X1327335Y208268D01*
X1327442Y207730D01*
X1327747Y207274D01*
X1328203Y206970D01*
X1328740Y206863D01*
X1329278Y206970D01*
X1329734Y207274D01*
X1330038Y207730D01*
X1330145Y208268D01*
X1330038Y208805D01*
X1329734Y209261D01*
X1329278Y209566D01*
X1328740Y209673D01*
D02*
G37*
G36*
X1541339D02*
X1540801Y209566D01*
X1540345Y209261D01*
X1540041Y208805D01*
X1539934Y208268D01*
X1540041Y207730D01*
X1540345Y207274D01*
X1540801Y206970D01*
X1541339Y206863D01*
X1541876Y206970D01*
X1542332Y207274D01*
X1542637Y207730D01*
X1542743Y208268D01*
X1542637Y208805D01*
X1542332Y209261D01*
X1541876Y209566D01*
X1541339Y209673D01*
D02*
G37*
G36*
X53150Y315972D02*
X52612Y315865D01*
X52156Y315560D01*
X51852Y315105D01*
X51745Y314567D01*
X51852Y314029D01*
X52156Y313574D01*
X52612Y313269D01*
X53150Y313162D01*
X53687Y313269D01*
X54143Y313574D01*
X54448Y314029D01*
X54555Y314567D01*
X54448Y315105D01*
X54143Y315560D01*
X53687Y315865D01*
X53150Y315972D01*
D02*
G37*
G36*
X1647638Y209673D02*
X1647100Y209566D01*
X1646644Y209261D01*
X1646340Y208805D01*
X1646233Y208268D01*
X1646340Y207730D01*
X1646644Y207274D01*
X1647100Y206970D01*
X1647638Y206863D01*
X1648175Y206970D01*
X1648631Y207274D01*
X1648936Y207730D01*
X1649043Y208268D01*
X1648936Y208805D01*
X1648631Y209261D01*
X1648175Y209566D01*
X1647638Y209673D01*
D02*
G37*
G36*
X478346Y103374D02*
X477809Y103267D01*
X477353Y102962D01*
X477048Y102506D01*
X476941Y101969D01*
X477048Y101431D01*
X477353Y100975D01*
X477809Y100671D01*
X478346Y100564D01*
X478884Y100671D01*
X479340Y100975D01*
X479644Y101431D01*
X479751Y101969D01*
X479644Y102506D01*
X479340Y102962D01*
X478884Y103267D01*
X478346Y103374D01*
D02*
G37*
G36*
X372047D02*
X371510Y103267D01*
X371054Y102962D01*
X370749Y102506D01*
X370642Y101969D01*
X370749Y101431D01*
X371054Y100975D01*
X371510Y100671D01*
X372047Y100564D01*
X372585Y100671D01*
X373041Y100975D01*
X373345Y101431D01*
X373452Y101969D01*
X373345Y102506D01*
X373041Y102962D01*
X372585Y103267D01*
X372047Y103374D01*
D02*
G37*
G36*
X584646D02*
X584108Y103267D01*
X583652Y102962D01*
X583348Y102506D01*
X583241Y101969D01*
X583348Y101431D01*
X583652Y100975D01*
X584108Y100671D01*
X584646Y100564D01*
X585183Y100671D01*
X585639Y100975D01*
X585944Y101431D01*
X586051Y101969D01*
X585944Y102506D01*
X585639Y102962D01*
X585183Y103267D01*
X584646Y103374D01*
D02*
G37*
G36*
X797244D02*
X796706Y103267D01*
X796251Y102962D01*
X795946Y102506D01*
X795839Y101969D01*
X795946Y101431D01*
X796251Y100975D01*
X796706Y100671D01*
X797244Y100564D01*
X797782Y100671D01*
X798238Y100975D01*
X798542Y101431D01*
X798649Y101969D01*
X798542Y102506D01*
X798238Y102962D01*
X797782Y103267D01*
X797244Y103374D01*
D02*
G37*
G36*
X690945D02*
X690407Y103267D01*
X689951Y102962D01*
X689647Y102506D01*
X689540Y101969D01*
X689647Y101431D01*
X689951Y100975D01*
X690407Y100671D01*
X690945Y100564D01*
X691482Y100671D01*
X691938Y100975D01*
X692243Y101431D01*
X692350Y101969D01*
X692243Y102506D01*
X691938Y102962D01*
X691482Y103267D01*
X690945Y103374D01*
D02*
G37*
G36*
X12195Y17656D02*
X10793Y17471D01*
X9487Y16930D01*
X8365Y16069D01*
X7504Y14947D01*
X6963Y13641D01*
X6779Y12239D01*
X6963Y10837D01*
X7504Y9531D01*
X8365Y8409D01*
X9487Y7548D01*
X10793Y7007D01*
X12195Y6823D01*
X13597Y7007D01*
X14903Y7548D01*
X16025Y8409D01*
X16886Y9531D01*
X17427Y10837D01*
X17612Y12239D01*
X17427Y13641D01*
X16886Y14947D01*
X16025Y16069D01*
X14903Y16930D01*
X13597Y17471D01*
X12195Y17656D01*
D02*
G37*
G36*
X1688528Y17612D02*
X1687126Y17427D01*
X1685820Y16886D01*
X1684698Y16025D01*
X1683837Y14903D01*
X1683296Y13597D01*
X1683112Y12195D01*
X1683296Y10793D01*
X1683837Y9487D01*
X1684698Y8365D01*
X1685820Y7504D01*
X1687126Y6963D01*
X1688528Y6779D01*
X1689930Y6963D01*
X1691236Y7504D01*
X1692358Y8365D01*
X1693219Y9487D01*
X1693760Y10793D01*
X1693945Y12195D01*
X1693760Y13597D01*
X1693219Y14903D01*
X1692358Y16025D01*
X1691236Y16886D01*
X1689930Y17427D01*
X1688528Y17612D01*
D02*
G37*
G36*
X53150Y103374D02*
X52612Y103267D01*
X52156Y102962D01*
X51852Y102506D01*
X51745Y101969D01*
X51852Y101431D01*
X52156Y100975D01*
X52612Y100671D01*
X53150Y100564D01*
X53687Y100671D01*
X54143Y100975D01*
X54448Y101431D01*
X54555Y101969D01*
X54448Y102506D01*
X54143Y102962D01*
X53687Y103267D01*
X53150Y103374D01*
D02*
G37*
G36*
X265748D02*
X265210Y103267D01*
X264755Y102962D01*
X264450Y102506D01*
X264343Y101969D01*
X264450Y101431D01*
X264755Y100975D01*
X265210Y100671D01*
X265748Y100564D01*
X266286Y100671D01*
X266741Y100975D01*
X267046Y101431D01*
X267153Y101969D01*
X267046Y102506D01*
X266741Y102962D01*
X266286Y103267D01*
X265748Y103374D01*
D02*
G37*
G36*
X159449D02*
X158911Y103267D01*
X158455Y102962D01*
X158151Y102506D01*
X158044Y101969D01*
X158151Y101431D01*
X158455Y100975D01*
X158911Y100671D01*
X159449Y100564D01*
X159986Y100671D01*
X160442Y100975D01*
X160747Y101431D01*
X160854Y101969D01*
X160747Y102506D01*
X160442Y102962D01*
X159986Y103267D01*
X159449Y103374D01*
D02*
G37*
G36*
X1541339D02*
X1540801Y103267D01*
X1540345Y102962D01*
X1540041Y102506D01*
X1539934Y101969D01*
X1540041Y101431D01*
X1540345Y100975D01*
X1540801Y100671D01*
X1541339Y100564D01*
X1541876Y100671D01*
X1542332Y100975D01*
X1542637Y101431D01*
X1542743Y101969D01*
X1542637Y102506D01*
X1542332Y102962D01*
X1541876Y103267D01*
X1541339Y103374D01*
D02*
G37*
G36*
X1435039D02*
X1434502Y103267D01*
X1434046Y102962D01*
X1433741Y102506D01*
X1433634Y101969D01*
X1433741Y101431D01*
X1434046Y100975D01*
X1434502Y100671D01*
X1435039Y100564D01*
X1435577Y100671D01*
X1436033Y100975D01*
X1436337Y101431D01*
X1436444Y101969D01*
X1436337Y102506D01*
X1436033Y102962D01*
X1435577Y103267D01*
X1435039Y103374D01*
D02*
G37*
G36*
X1647638D02*
X1647100Y103267D01*
X1646644Y102962D01*
X1646340Y102506D01*
X1646233Y101969D01*
X1646340Y101431D01*
X1646644Y100975D01*
X1647100Y100671D01*
X1647638Y100564D01*
X1648175Y100671D01*
X1648631Y100975D01*
X1648936Y101431D01*
X1649043Y101969D01*
X1648936Y102506D01*
X1648631Y102962D01*
X1648175Y103267D01*
X1647638Y103374D01*
D02*
G37*
G36*
X159449Y209673D02*
X158911Y209566D01*
X158455Y209261D01*
X158151Y208805D01*
X158044Y208268D01*
X158151Y207730D01*
X158455Y207274D01*
X158911Y206970D01*
X159449Y206863D01*
X159986Y206970D01*
X160442Y207274D01*
X160747Y207730D01*
X160854Y208268D01*
X160747Y208805D01*
X160442Y209261D01*
X159986Y209566D01*
X159449Y209673D01*
D02*
G37*
G36*
X53150D02*
X52612Y209566D01*
X52156Y209261D01*
X51852Y208805D01*
X51745Y208268D01*
X51852Y207730D01*
X52156Y207274D01*
X52612Y206970D01*
X53150Y206863D01*
X53687Y206970D01*
X54143Y207274D01*
X54448Y207730D01*
X54555Y208268D01*
X54448Y208805D01*
X54143Y209261D01*
X53687Y209566D01*
X53150Y209673D01*
D02*
G37*
G36*
X1009842Y103374D02*
X1009305Y103267D01*
X1008849Y102962D01*
X1008545Y102506D01*
X1008438Y101969D01*
X1008545Y101431D01*
X1008849Y100975D01*
X1009305Y100671D01*
X1009842Y100564D01*
X1010380Y100671D01*
X1010836Y100975D01*
X1011141Y101431D01*
X1011248Y101969D01*
X1011141Y102506D01*
X1010836Y102962D01*
X1010380Y103267D01*
X1009842Y103374D01*
D02*
G37*
G36*
X903543D02*
X903006Y103267D01*
X902550Y102962D01*
X902245Y102506D01*
X902138Y101969D01*
X902245Y101431D01*
X902550Y100975D01*
X903006Y100671D01*
X903543Y100564D01*
X904081Y100671D01*
X904537Y100975D01*
X904841Y101431D01*
X904948Y101969D01*
X904841Y102506D01*
X904537Y102962D01*
X904081Y103267D01*
X903543Y103374D01*
D02*
G37*
G36*
X1116142D02*
X1115604Y103267D01*
X1115148Y102962D01*
X1114844Y102506D01*
X1114737Y101969D01*
X1114844Y101431D01*
X1115148Y100975D01*
X1115604Y100671D01*
X1116142Y100564D01*
X1116679Y100671D01*
X1117135Y100975D01*
X1117440Y101431D01*
X1117547Y101969D01*
X1117440Y102506D01*
X1117135Y102962D01*
X1116679Y103267D01*
X1116142Y103374D01*
D02*
G37*
G36*
X1328740D02*
X1328203Y103267D01*
X1327747Y102962D01*
X1327442Y102506D01*
X1327335Y101969D01*
X1327442Y101431D01*
X1327747Y100975D01*
X1328203Y100671D01*
X1328740Y100564D01*
X1329278Y100671D01*
X1329734Y100975D01*
X1330038Y101431D01*
X1330145Y101969D01*
X1330038Y102506D01*
X1329734Y102962D01*
X1329278Y103267D01*
X1328740Y103374D01*
D02*
G37*
G36*
X1222441D02*
X1221903Y103267D01*
X1221447Y102962D01*
X1221143Y102506D01*
X1221036Y101969D01*
X1221143Y101431D01*
X1221447Y100975D01*
X1221903Y100671D01*
X1222441Y100564D01*
X1222979Y100671D01*
X1223434Y100975D01*
X1223739Y101431D01*
X1223846Y101969D01*
X1223739Y102506D01*
X1223434Y102962D01*
X1222979Y103267D01*
X1222441Y103374D01*
D02*
G37*
G36*
X690945Y315972D02*
X690407Y315865D01*
X689951Y315560D01*
X689647Y315105D01*
X689540Y314567D01*
X689647Y314029D01*
X689951Y313574D01*
X690407Y313269D01*
X690945Y313162D01*
X691482Y313269D01*
X691938Y313574D01*
X692243Y314029D01*
X692350Y314567D01*
X692243Y315105D01*
X691938Y315560D01*
X691482Y315865D01*
X690945Y315972D01*
D02*
G37*
G36*
X159449Y528570D02*
X158911Y528463D01*
X158455Y528159D01*
X158151Y527703D01*
X158044Y527165D01*
X158151Y526628D01*
X158455Y526172D01*
X158911Y525867D01*
X159449Y525760D01*
X159986Y525867D01*
X160442Y526172D01*
X160747Y526628D01*
X160854Y527165D01*
X160747Y527703D01*
X160442Y528159D01*
X159986Y528463D01*
X159449Y528570D01*
D02*
G37*
G36*
X53150D02*
X52612Y528463D01*
X52156Y528159D01*
X51852Y527703D01*
X51745Y527165D01*
X51852Y526628D01*
X52156Y526172D01*
X52612Y525867D01*
X53150Y525760D01*
X53687Y525867D01*
X54143Y526172D01*
X54448Y526628D01*
X54555Y527165D01*
X54448Y527703D01*
X54143Y528159D01*
X53687Y528463D01*
X53150Y528570D01*
D02*
G37*
G36*
X265748D02*
X265210Y528463D01*
X264755Y528159D01*
X264450Y527703D01*
X264343Y527165D01*
X264450Y526628D01*
X264755Y526172D01*
X265210Y525867D01*
X265748Y525760D01*
X266286Y525867D01*
X266741Y526172D01*
X267046Y526628D01*
X267153Y527165D01*
X267046Y527703D01*
X266741Y528159D01*
X266286Y528463D01*
X265748Y528570D01*
D02*
G37*
G36*
X478346D02*
X477809Y528463D01*
X477353Y528159D01*
X477048Y527703D01*
X476941Y527165D01*
X477048Y526628D01*
X477353Y526172D01*
X477809Y525867D01*
X478346Y525760D01*
X478884Y525867D01*
X479340Y526172D01*
X479644Y526628D01*
X479751Y527165D01*
X479644Y527703D01*
X479340Y528159D01*
X478884Y528463D01*
X478346Y528570D01*
D02*
G37*
G36*
X372047D02*
X371510Y528463D01*
X371054Y528159D01*
X370749Y527703D01*
X370642Y527165D01*
X370749Y526628D01*
X371054Y526172D01*
X371510Y525867D01*
X372047Y525760D01*
X372585Y525867D01*
X373041Y526172D01*
X373345Y526628D01*
X373452Y527165D01*
X373345Y527703D01*
X373041Y528159D01*
X372585Y528463D01*
X372047Y528570D01*
D02*
G37*
G36*
X1328740Y422271D02*
X1328203Y422164D01*
X1327747Y421860D01*
X1327442Y421404D01*
X1327335Y420866D01*
X1327442Y420329D01*
X1327747Y419873D01*
X1328203Y419568D01*
X1328740Y419461D01*
X1329278Y419568D01*
X1329734Y419873D01*
X1330038Y420329D01*
X1330145Y420866D01*
X1330038Y421404D01*
X1329734Y421860D01*
X1329278Y422164D01*
X1328740Y422271D01*
D02*
G37*
G36*
X1222441D02*
X1221903Y422164D01*
X1221447Y421860D01*
X1221143Y421404D01*
X1221036Y420866D01*
X1221143Y420329D01*
X1221447Y419873D01*
X1221903Y419568D01*
X1222441Y419461D01*
X1222979Y419568D01*
X1223434Y419873D01*
X1223739Y420329D01*
X1223846Y420866D01*
X1223739Y421404D01*
X1223434Y421860D01*
X1222979Y422164D01*
X1222441Y422271D01*
D02*
G37*
G36*
X1435039D02*
X1434502Y422164D01*
X1434046Y421860D01*
X1433741Y421404D01*
X1433634Y420866D01*
X1433741Y420329D01*
X1434046Y419873D01*
X1434502Y419568D01*
X1435039Y419461D01*
X1435577Y419568D01*
X1436033Y419873D01*
X1436337Y420329D01*
X1436444Y420866D01*
X1436337Y421404D01*
X1436033Y421860D01*
X1435577Y422164D01*
X1435039Y422271D01*
D02*
G37*
G36*
X1647638D02*
X1647100Y422164D01*
X1646644Y421860D01*
X1646340Y421404D01*
X1646233Y420866D01*
X1646340Y420329D01*
X1646644Y419873D01*
X1647100Y419568D01*
X1647638Y419461D01*
X1648175Y419568D01*
X1648631Y419873D01*
X1648936Y420329D01*
X1649043Y420866D01*
X1648936Y421404D01*
X1648631Y421860D01*
X1648175Y422164D01*
X1647638Y422271D01*
D02*
G37*
G36*
X1541339D02*
X1540801Y422164D01*
X1540345Y421860D01*
X1540041Y421404D01*
X1539934Y420866D01*
X1540041Y420329D01*
X1540345Y419873D01*
X1540801Y419568D01*
X1541339Y419461D01*
X1541876Y419568D01*
X1542332Y419873D01*
X1542637Y420329D01*
X1542743Y420866D01*
X1542637Y421404D01*
X1542332Y421860D01*
X1541876Y422164D01*
X1541339Y422271D01*
D02*
G37*
G36*
X1222441Y528570D02*
X1221903Y528463D01*
X1221447Y528159D01*
X1221143Y527703D01*
X1221036Y527165D01*
X1221143Y526628D01*
X1221447Y526172D01*
X1221903Y525867D01*
X1222441Y525760D01*
X1222979Y525867D01*
X1223434Y526172D01*
X1223739Y526628D01*
X1223846Y527165D01*
X1223739Y527703D01*
X1223434Y528159D01*
X1222979Y528463D01*
X1222441Y528570D01*
D02*
G37*
G36*
X1116142D02*
X1115604Y528463D01*
X1115148Y528159D01*
X1114844Y527703D01*
X1114737Y527165D01*
X1114844Y526628D01*
X1115148Y526172D01*
X1115604Y525867D01*
X1116142Y525760D01*
X1116679Y525867D01*
X1117135Y526172D01*
X1117440Y526628D01*
X1117547Y527165D01*
X1117440Y527703D01*
X1117135Y528159D01*
X1116679Y528463D01*
X1116142Y528570D01*
D02*
G37*
G36*
X1328740D02*
X1328203Y528463D01*
X1327747Y528159D01*
X1327442Y527703D01*
X1327335Y527165D01*
X1327442Y526628D01*
X1327747Y526172D01*
X1328203Y525867D01*
X1328740Y525760D01*
X1329278Y525867D01*
X1329734Y526172D01*
X1330038Y526628D01*
X1330145Y527165D01*
X1330038Y527703D01*
X1329734Y528159D01*
X1329278Y528463D01*
X1328740Y528570D01*
D02*
G37*
G36*
X1541339D02*
X1540801Y528463D01*
X1540345Y528159D01*
X1540041Y527703D01*
X1539934Y527165D01*
X1540041Y526628D01*
X1540345Y526172D01*
X1540801Y525867D01*
X1541339Y525760D01*
X1541876Y525867D01*
X1542332Y526172D01*
X1542637Y526628D01*
X1542743Y527165D01*
X1542637Y527703D01*
X1542332Y528159D01*
X1541876Y528463D01*
X1541339Y528570D01*
D02*
G37*
G36*
X1435039D02*
X1434502Y528463D01*
X1434046Y528159D01*
X1433741Y527703D01*
X1433634Y527165D01*
X1433741Y526628D01*
X1434046Y526172D01*
X1434502Y525867D01*
X1435039Y525760D01*
X1435577Y525867D01*
X1436033Y526172D01*
X1436337Y526628D01*
X1436444Y527165D01*
X1436337Y527703D01*
X1436033Y528159D01*
X1435577Y528463D01*
X1435039Y528570D01*
D02*
G37*
G36*
X690945D02*
X690407Y528463D01*
X689951Y528159D01*
X689647Y527703D01*
X689540Y527165D01*
X689647Y526628D01*
X689951Y526172D01*
X690407Y525867D01*
X690945Y525760D01*
X691482Y525867D01*
X691938Y526172D01*
X692243Y526628D01*
X692350Y527165D01*
X692243Y527703D01*
X691938Y528159D01*
X691482Y528463D01*
X690945Y528570D01*
D02*
G37*
G36*
X584646D02*
X584108Y528463D01*
X583652Y528159D01*
X583348Y527703D01*
X583241Y527165D01*
X583348Y526628D01*
X583652Y526172D01*
X584108Y525867D01*
X584646Y525760D01*
X585183Y525867D01*
X585639Y526172D01*
X585944Y526628D01*
X586051Y527165D01*
X585944Y527703D01*
X585639Y528159D01*
X585183Y528463D01*
X584646Y528570D01*
D02*
G37*
G36*
X797244D02*
X796706Y528463D01*
X796251Y528159D01*
X795946Y527703D01*
X795839Y527165D01*
X795946Y526628D01*
X796251Y526172D01*
X796706Y525867D01*
X797244Y525760D01*
X797782Y525867D01*
X798238Y526172D01*
X798542Y526628D01*
X798649Y527165D01*
X798542Y527703D01*
X798238Y528159D01*
X797782Y528463D01*
X797244Y528570D01*
D02*
G37*
G36*
X1009842D02*
X1009305Y528463D01*
X1008849Y528159D01*
X1008545Y527703D01*
X1008438Y527165D01*
X1008545Y526628D01*
X1008849Y526172D01*
X1009305Y525867D01*
X1009842Y525760D01*
X1010380Y525867D01*
X1010836Y526172D01*
X1011141Y526628D01*
X1011248Y527165D01*
X1011141Y527703D01*
X1010836Y528159D01*
X1010380Y528463D01*
X1009842Y528570D01*
D02*
G37*
G36*
X903543D02*
X903006Y528463D01*
X902550Y528159D01*
X902245Y527703D01*
X902138Y527165D01*
X902245Y526628D01*
X902550Y526172D01*
X903006Y525867D01*
X903543Y525760D01*
X904081Y525867D01*
X904537Y526172D01*
X904841Y526628D01*
X904948Y527165D01*
X904841Y527703D01*
X904537Y528159D01*
X904081Y528463D01*
X903543Y528570D01*
D02*
G37*
G36*
X1435039Y315972D02*
X1434502Y315865D01*
X1434046Y315560D01*
X1433741Y315105D01*
X1433634Y314567D01*
X1433741Y314029D01*
X1434046Y313574D01*
X1434502Y313269D01*
X1435039Y313162D01*
X1435577Y313269D01*
X1436033Y313574D01*
X1436337Y314029D01*
X1436444Y314567D01*
X1436337Y315105D01*
X1436033Y315560D01*
X1435577Y315865D01*
X1435039Y315972D01*
D02*
G37*
G36*
X1328740D02*
X1328203Y315865D01*
X1327747Y315560D01*
X1327442Y315105D01*
X1327335Y314567D01*
X1327442Y314029D01*
X1327747Y313574D01*
X1328203Y313269D01*
X1328740Y313162D01*
X1329278Y313269D01*
X1329734Y313574D01*
X1330038Y314029D01*
X1330145Y314567D01*
X1330038Y315105D01*
X1329734Y315560D01*
X1329278Y315865D01*
X1328740Y315972D01*
D02*
G37*
G36*
X1541339D02*
X1540801Y315865D01*
X1540345Y315560D01*
X1540041Y315105D01*
X1539934Y314567D01*
X1540041Y314029D01*
X1540345Y313574D01*
X1540801Y313269D01*
X1541339Y313162D01*
X1541876Y313269D01*
X1542332Y313574D01*
X1542637Y314029D01*
X1542743Y314567D01*
X1542637Y315105D01*
X1542332Y315560D01*
X1541876Y315865D01*
X1541339Y315972D01*
D02*
G37*
G36*
X53150Y422271D02*
X52612Y422164D01*
X52156Y421860D01*
X51852Y421404D01*
X51745Y420866D01*
X51852Y420329D01*
X52156Y419873D01*
X52612Y419568D01*
X53150Y419461D01*
X53687Y419568D01*
X54143Y419873D01*
X54448Y420329D01*
X54555Y420866D01*
X54448Y421404D01*
X54143Y421860D01*
X53687Y422164D01*
X53150Y422271D01*
D02*
G37*
G36*
X1647638Y315972D02*
X1647100Y315865D01*
X1646644Y315560D01*
X1646340Y315105D01*
X1646233Y314567D01*
X1646340Y314029D01*
X1646644Y313574D01*
X1647100Y313269D01*
X1647638Y313162D01*
X1648175Y313269D01*
X1648631Y313574D01*
X1648936Y314029D01*
X1649043Y314567D01*
X1648936Y315105D01*
X1648631Y315560D01*
X1648175Y315865D01*
X1647638Y315972D01*
D02*
G37*
G36*
X903543D02*
X903006Y315865D01*
X902550Y315560D01*
X902245Y315105D01*
X902138Y314567D01*
X902245Y314029D01*
X902550Y313574D01*
X903006Y313269D01*
X903543Y313162D01*
X904081Y313269D01*
X904537Y313574D01*
X904841Y314029D01*
X904948Y314567D01*
X904841Y315105D01*
X904537Y315560D01*
X904081Y315865D01*
X903543Y315972D01*
D02*
G37*
G36*
X797244D02*
X796706Y315865D01*
X796251Y315560D01*
X795946Y315105D01*
X795839Y314567D01*
X795946Y314029D01*
X796251Y313574D01*
X796706Y313269D01*
X797244Y313162D01*
X797782Y313269D01*
X798238Y313574D01*
X798542Y314029D01*
X798649Y314567D01*
X798542Y315105D01*
X798238Y315560D01*
X797782Y315865D01*
X797244Y315972D01*
D02*
G37*
G36*
X1009842D02*
X1009305Y315865D01*
X1008849Y315560D01*
X1008545Y315105D01*
X1008438Y314567D01*
X1008545Y314029D01*
X1008849Y313574D01*
X1009305Y313269D01*
X1009842Y313162D01*
X1010380Y313269D01*
X1010836Y313574D01*
X1011141Y314029D01*
X1011248Y314567D01*
X1011141Y315105D01*
X1010836Y315560D01*
X1010380Y315865D01*
X1009842Y315972D01*
D02*
G37*
G36*
X1222441D02*
X1221903Y315865D01*
X1221447Y315560D01*
X1221143Y315105D01*
X1221036Y314567D01*
X1221143Y314029D01*
X1221447Y313574D01*
X1221903Y313269D01*
X1222441Y313162D01*
X1222979Y313269D01*
X1223434Y313574D01*
X1223739Y314029D01*
X1223846Y314567D01*
X1223739Y315105D01*
X1223434Y315560D01*
X1222979Y315865D01*
X1222441Y315972D01*
D02*
G37*
G36*
X1116142D02*
X1115604Y315865D01*
X1115148Y315560D01*
X1114844Y315105D01*
X1114737Y314567D01*
X1114844Y314029D01*
X1115148Y313574D01*
X1115604Y313269D01*
X1116142Y313162D01*
X1116679Y313269D01*
X1117135Y313574D01*
X1117440Y314029D01*
X1117547Y314567D01*
X1117440Y315105D01*
X1117135Y315560D01*
X1116679Y315865D01*
X1116142Y315972D01*
D02*
G37*
G36*
X797244Y422271D02*
X796706Y422164D01*
X796251Y421860D01*
X795946Y421404D01*
X795839Y420866D01*
X795946Y420329D01*
X796251Y419873D01*
X796706Y419568D01*
X797244Y419461D01*
X797782Y419568D01*
X798238Y419873D01*
X798542Y420329D01*
X798649Y420866D01*
X798542Y421404D01*
X798238Y421860D01*
X797782Y422164D01*
X797244Y422271D01*
D02*
G37*
G36*
X690945D02*
X690407Y422164D01*
X689951Y421860D01*
X689647Y421404D01*
X689540Y420866D01*
X689647Y420329D01*
X689951Y419873D01*
X690407Y419568D01*
X690945Y419461D01*
X691482Y419568D01*
X691938Y419873D01*
X692243Y420329D01*
X692350Y420866D01*
X692243Y421404D01*
X691938Y421860D01*
X691482Y422164D01*
X690945Y422271D01*
D02*
G37*
G36*
X903543D02*
X903006Y422164D01*
X902550Y421860D01*
X902245Y421404D01*
X902138Y420866D01*
X902245Y420329D01*
X902550Y419873D01*
X903006Y419568D01*
X903543Y419461D01*
X904081Y419568D01*
X904537Y419873D01*
X904841Y420329D01*
X904948Y420866D01*
X904841Y421404D01*
X904537Y421860D01*
X904081Y422164D01*
X903543Y422271D01*
D02*
G37*
G36*
X1116142D02*
X1115604Y422164D01*
X1115148Y421860D01*
X1114844Y421404D01*
X1114737Y420866D01*
X1114844Y420329D01*
X1115148Y419873D01*
X1115604Y419568D01*
X1116142Y419461D01*
X1116679Y419568D01*
X1117135Y419873D01*
X1117440Y420329D01*
X1117547Y420866D01*
X1117440Y421404D01*
X1117135Y421860D01*
X1116679Y422164D01*
X1116142Y422271D01*
D02*
G37*
G36*
X1009842D02*
X1009305Y422164D01*
X1008849Y421860D01*
X1008545Y421404D01*
X1008438Y420866D01*
X1008545Y420329D01*
X1008849Y419873D01*
X1009305Y419568D01*
X1009842Y419461D01*
X1010380Y419568D01*
X1010836Y419873D01*
X1011141Y420329D01*
X1011248Y420866D01*
X1011141Y421404D01*
X1010836Y421860D01*
X1010380Y422164D01*
X1009842Y422271D01*
D02*
G37*
G36*
X265748D02*
X265210Y422164D01*
X264755Y421860D01*
X264450Y421404D01*
X264343Y420866D01*
X264450Y420329D01*
X264755Y419873D01*
X265210Y419568D01*
X265748Y419461D01*
X266286Y419568D01*
X266741Y419873D01*
X267046Y420329D01*
X267153Y420866D01*
X267046Y421404D01*
X266741Y421860D01*
X266286Y422164D01*
X265748Y422271D01*
D02*
G37*
G36*
X159449D02*
X158911Y422164D01*
X158455Y421860D01*
X158151Y421404D01*
X158044Y420866D01*
X158151Y420329D01*
X158455Y419873D01*
X158911Y419568D01*
X159449Y419461D01*
X159986Y419568D01*
X160442Y419873D01*
X160747Y420329D01*
X160854Y420866D01*
X160747Y421404D01*
X160442Y421860D01*
X159986Y422164D01*
X159449Y422271D01*
D02*
G37*
G36*
X372047D02*
X371510Y422164D01*
X371054Y421860D01*
X370749Y421404D01*
X370642Y420866D01*
X370749Y420329D01*
X371054Y419873D01*
X371510Y419568D01*
X372047Y419461D01*
X372585Y419568D01*
X373041Y419873D01*
X373345Y420329D01*
X373452Y420866D01*
X373345Y421404D01*
X373041Y421860D01*
X372585Y422164D01*
X372047Y422271D01*
D02*
G37*
G36*
X584646D02*
X584108Y422164D01*
X583652Y421860D01*
X583348Y421404D01*
X583241Y420866D01*
X583348Y420329D01*
X583652Y419873D01*
X584108Y419568D01*
X584646Y419461D01*
X585183Y419568D01*
X585639Y419873D01*
X585944Y420329D01*
X586051Y420866D01*
X585944Y421404D01*
X585639Y421860D01*
X585183Y422164D01*
X584646Y422271D01*
D02*
G37*
G36*
X478346D02*
X477809Y422164D01*
X477353Y421860D01*
X477048Y421404D01*
X476941Y420866D01*
X477048Y420329D01*
X477353Y419873D01*
X477809Y419568D01*
X478346Y419461D01*
X478884Y419568D01*
X479340Y419873D01*
X479644Y420329D01*
X479751Y420866D01*
X479644Y421404D01*
X479340Y421860D01*
X478884Y422164D01*
X478346Y422271D01*
D02*
G37*
G36*
X568607Y1115207D02*
X567575Y1115071D01*
X566613Y1114673D01*
X565788Y1114039D01*
X565154Y1113213D01*
X564756Y1112252D01*
X564620Y1111220D01*
X564756Y1110188D01*
X565154Y1109227D01*
X565788Y1108401D01*
X566613Y1107767D01*
X567575Y1107369D01*
X568607Y1107233D01*
X569639Y1107369D01*
X570600Y1107767D01*
X571426Y1108401D01*
X572060Y1109227D01*
X572458Y1110188D01*
X572594Y1111220D01*
X572458Y1112252D01*
X572060Y1113213D01*
X571426Y1114039D01*
X570600Y1114673D01*
X569639Y1115071D01*
X568607Y1115207D01*
D02*
G37*
G36*
X558607D02*
X557575Y1115071D01*
X556613Y1114673D01*
X555788Y1114039D01*
X555154Y1113213D01*
X554756Y1112252D01*
X554620Y1111220D01*
X554756Y1110188D01*
X555154Y1109227D01*
X555788Y1108401D01*
X556613Y1107767D01*
X557575Y1107369D01*
X558607Y1107233D01*
X559639Y1107369D01*
X560600Y1107767D01*
X561426Y1108401D01*
X562060Y1109227D01*
X562458Y1110188D01*
X562594Y1111220D01*
X562458Y1112252D01*
X562060Y1113213D01*
X561426Y1114039D01*
X560600Y1114673D01*
X559639Y1115071D01*
X558607Y1115207D01*
D02*
G37*
G36*
X691205D02*
X690173Y1115071D01*
X689212Y1114673D01*
X688386Y1114039D01*
X687753Y1113213D01*
X687354Y1112252D01*
X687218Y1111220D01*
X687354Y1110188D01*
X687753Y1109227D01*
X688386Y1108401D01*
X689212Y1107767D01*
X690173Y1107369D01*
X691205Y1107233D01*
X692237Y1107369D01*
X693199Y1107767D01*
X694024Y1108401D01*
X694658Y1109227D01*
X695056Y1110188D01*
X695192Y1111220D01*
X695056Y1112252D01*
X694658Y1113213D01*
X694024Y1114039D01*
X693199Y1114673D01*
X692237Y1115071D01*
X691205Y1115207D01*
D02*
G37*
G36*
X711205D02*
X710173Y1115071D01*
X709212Y1114673D01*
X708386Y1114039D01*
X707753Y1113213D01*
X707354Y1112252D01*
X707218Y1111220D01*
X707354Y1110188D01*
X707753Y1109227D01*
X708386Y1108401D01*
X709212Y1107767D01*
X710173Y1107369D01*
X711205Y1107233D01*
X712237Y1107369D01*
X713199Y1107767D01*
X714024Y1108401D01*
X714658Y1109227D01*
X715056Y1110188D01*
X715192Y1111220D01*
X715056Y1112252D01*
X714658Y1113213D01*
X714024Y1114039D01*
X713199Y1114673D01*
X712237Y1115071D01*
X711205Y1115207D01*
D02*
G37*
G36*
X701205D02*
X700173Y1115071D01*
X699212Y1114673D01*
X698386Y1114039D01*
X697753Y1113213D01*
X697354Y1112252D01*
X697218Y1111220D01*
X697354Y1110188D01*
X697753Y1109227D01*
X698386Y1108401D01*
X699212Y1107767D01*
X700173Y1107369D01*
X701205Y1107233D01*
X702237Y1107369D01*
X703199Y1107767D01*
X704024Y1108401D01*
X704658Y1109227D01*
X705056Y1110188D01*
X705192Y1111220D01*
X705056Y1112252D01*
X704658Y1113213D01*
X704024Y1114039D01*
X703199Y1114673D01*
X702237Y1115071D01*
X701205Y1115207D01*
D02*
G37*
G36*
X518607D02*
X517575Y1115071D01*
X516613Y1114673D01*
X515788Y1114039D01*
X515154Y1113213D01*
X514756Y1112252D01*
X514620Y1111220D01*
X514756Y1110188D01*
X515154Y1109227D01*
X515788Y1108401D01*
X516613Y1107767D01*
X517575Y1107369D01*
X518607Y1107233D01*
X519639Y1107369D01*
X520600Y1107767D01*
X521426Y1108401D01*
X522060Y1109227D01*
X522458Y1110188D01*
X522594Y1111220D01*
X522458Y1112252D01*
X522060Y1113213D01*
X521426Y1114039D01*
X520600Y1114673D01*
X519639Y1115071D01*
X518607Y1115207D01*
D02*
G37*
G36*
X508607D02*
X507575Y1115071D01*
X506613Y1114673D01*
X505788Y1114039D01*
X505154Y1113213D01*
X504756Y1112252D01*
X504620Y1111220D01*
X504756Y1110188D01*
X505154Y1109227D01*
X505788Y1108401D01*
X506613Y1107767D01*
X507575Y1107369D01*
X508607Y1107233D01*
X509639Y1107369D01*
X510600Y1107767D01*
X511426Y1108401D01*
X512060Y1109227D01*
X512458Y1110188D01*
X512594Y1111220D01*
X512458Y1112252D01*
X512060Y1113213D01*
X511426Y1114039D01*
X510600Y1114673D01*
X509639Y1115071D01*
X508607Y1115207D01*
D02*
G37*
G36*
X528607D02*
X527575Y1115071D01*
X526613Y1114673D01*
X525788Y1114039D01*
X525154Y1113213D01*
X524756Y1112252D01*
X524620Y1111220D01*
X524756Y1110188D01*
X525154Y1109227D01*
X525788Y1108401D01*
X526613Y1107767D01*
X527575Y1107369D01*
X528607Y1107233D01*
X529639Y1107369D01*
X530600Y1107767D01*
X531426Y1108401D01*
X532060Y1109227D01*
X532458Y1110188D01*
X532594Y1111220D01*
X532458Y1112252D01*
X532060Y1113213D01*
X531426Y1114039D01*
X530600Y1114673D01*
X529639Y1115071D01*
X528607Y1115207D01*
D02*
G37*
G36*
X548607D02*
X547575Y1115071D01*
X546613Y1114673D01*
X545788Y1114039D01*
X545154Y1113213D01*
X544756Y1112252D01*
X544620Y1111220D01*
X544756Y1110188D01*
X545154Y1109227D01*
X545788Y1108401D01*
X546613Y1107767D01*
X547575Y1107369D01*
X548607Y1107233D01*
X549639Y1107369D01*
X550600Y1107767D01*
X551426Y1108401D01*
X552060Y1109227D01*
X552458Y1110188D01*
X552594Y1111220D01*
X552458Y1112252D01*
X552060Y1113213D01*
X551426Y1114039D01*
X550600Y1114673D01*
X549639Y1115071D01*
X548607Y1115207D01*
D02*
G37*
G36*
X538607D02*
X537575Y1115071D01*
X536613Y1114673D01*
X535788Y1114039D01*
X535154Y1113213D01*
X534756Y1112252D01*
X534620Y1111220D01*
X534756Y1110188D01*
X535154Y1109227D01*
X535788Y1108401D01*
X536613Y1107767D01*
X537575Y1107369D01*
X538607Y1107233D01*
X539639Y1107369D01*
X540600Y1107767D01*
X541426Y1108401D01*
X542060Y1109227D01*
X542458Y1110188D01*
X542594Y1111220D01*
X542458Y1112252D01*
X542060Y1113213D01*
X541426Y1114039D01*
X540600Y1114673D01*
X539639Y1115071D01*
X538607Y1115207D01*
D02*
G37*
G36*
X781205D02*
X780173Y1115071D01*
X779212Y1114673D01*
X778386Y1114039D01*
X777753Y1113213D01*
X777354Y1112252D01*
X777218Y1111220D01*
X777354Y1110188D01*
X777753Y1109227D01*
X778386Y1108401D01*
X779212Y1107767D01*
X780173Y1107369D01*
X781205Y1107233D01*
X782237Y1107369D01*
X783199Y1107767D01*
X784024Y1108401D01*
X784658Y1109227D01*
X785056Y1110188D01*
X785192Y1111220D01*
X785056Y1112252D01*
X784658Y1113213D01*
X784024Y1114039D01*
X783199Y1114673D01*
X782237Y1115071D01*
X781205Y1115207D01*
D02*
G37*
G36*
X771205D02*
X770173Y1115071D01*
X769212Y1114673D01*
X768386Y1114039D01*
X767753Y1113213D01*
X767354Y1112252D01*
X767218Y1111220D01*
X767354Y1110188D01*
X767753Y1109227D01*
X768386Y1108401D01*
X769212Y1107767D01*
X770173Y1107369D01*
X771205Y1107233D01*
X772237Y1107369D01*
X773199Y1107767D01*
X774024Y1108401D01*
X774658Y1109227D01*
X775056Y1110188D01*
X775192Y1111220D01*
X775056Y1112252D01*
X774658Y1113213D01*
X774024Y1114039D01*
X773199Y1114673D01*
X772237Y1115071D01*
X771205Y1115207D01*
D02*
G37*
G36*
X903804D02*
X902772Y1115071D01*
X901810Y1114673D01*
X900985Y1114039D01*
X900351Y1113213D01*
X899953Y1112252D01*
X899817Y1111220D01*
X899953Y1110188D01*
X900351Y1109227D01*
X900985Y1108401D01*
X901810Y1107767D01*
X902772Y1107369D01*
X903804Y1107233D01*
X904836Y1107369D01*
X905797Y1107767D01*
X906623Y1108401D01*
X907256Y1109227D01*
X907655Y1110188D01*
X907791Y1111220D01*
X907655Y1112252D01*
X907256Y1113213D01*
X906623Y1114039D01*
X905797Y1114673D01*
X904836Y1115071D01*
X903804Y1115207D01*
D02*
G37*
G36*
X923804D02*
X922772Y1115071D01*
X921810Y1114673D01*
X920985Y1114039D01*
X920351Y1113213D01*
X919953Y1112252D01*
X919817Y1111220D01*
X919953Y1110188D01*
X920351Y1109227D01*
X920985Y1108401D01*
X921810Y1107767D01*
X922772Y1107369D01*
X923804Y1107233D01*
X924836Y1107369D01*
X925797Y1107767D01*
X926623Y1108401D01*
X927256Y1109227D01*
X927655Y1110188D01*
X927791Y1111220D01*
X927655Y1112252D01*
X927256Y1113213D01*
X926623Y1114039D01*
X925797Y1114673D01*
X924836Y1115071D01*
X923804Y1115207D01*
D02*
G37*
G36*
X913804D02*
X912772Y1115071D01*
X911810Y1114673D01*
X910985Y1114039D01*
X910351Y1113213D01*
X909953Y1112252D01*
X909817Y1111220D01*
X909953Y1110188D01*
X910351Y1109227D01*
X910985Y1108401D01*
X911810Y1107767D01*
X912772Y1107369D01*
X913804Y1107233D01*
X914836Y1107369D01*
X915797Y1107767D01*
X916623Y1108401D01*
X917256Y1109227D01*
X917655Y1110188D01*
X917791Y1111220D01*
X917655Y1112252D01*
X917256Y1113213D01*
X916623Y1114039D01*
X915797Y1114673D01*
X914836Y1115071D01*
X913804Y1115207D01*
D02*
G37*
G36*
X731205D02*
X730173Y1115071D01*
X729212Y1114673D01*
X728386Y1114039D01*
X727753Y1113213D01*
X727354Y1112252D01*
X727218Y1111220D01*
X727354Y1110188D01*
X727753Y1109227D01*
X728386Y1108401D01*
X729212Y1107767D01*
X730173Y1107369D01*
X731205Y1107233D01*
X732237Y1107369D01*
X733199Y1107767D01*
X734024Y1108401D01*
X734658Y1109227D01*
X735056Y1110188D01*
X735192Y1111220D01*
X735056Y1112252D01*
X734658Y1113213D01*
X734024Y1114039D01*
X733199Y1114673D01*
X732237Y1115071D01*
X731205Y1115207D01*
D02*
G37*
G36*
X721205D02*
X720173Y1115071D01*
X719212Y1114673D01*
X718386Y1114039D01*
X717753Y1113213D01*
X717354Y1112252D01*
X717218Y1111220D01*
X717354Y1110188D01*
X717753Y1109227D01*
X718386Y1108401D01*
X719212Y1107767D01*
X720173Y1107369D01*
X721205Y1107233D01*
X722237Y1107369D01*
X723199Y1107767D01*
X724024Y1108401D01*
X724658Y1109227D01*
X725056Y1110188D01*
X725192Y1111220D01*
X725056Y1112252D01*
X724658Y1113213D01*
X724024Y1114039D01*
X723199Y1114673D01*
X722237Y1115071D01*
X721205Y1115207D01*
D02*
G37*
G36*
X741205D02*
X740173Y1115071D01*
X739212Y1114673D01*
X738386Y1114039D01*
X737753Y1113213D01*
X737354Y1112252D01*
X737218Y1111220D01*
X737354Y1110188D01*
X737753Y1109227D01*
X738386Y1108401D01*
X739212Y1107767D01*
X740173Y1107369D01*
X741205Y1107233D01*
X742237Y1107369D01*
X743199Y1107767D01*
X744024Y1108401D01*
X744658Y1109227D01*
X745056Y1110188D01*
X745192Y1111220D01*
X745056Y1112252D01*
X744658Y1113213D01*
X744024Y1114039D01*
X743199Y1114673D01*
X742237Y1115071D01*
X741205Y1115207D01*
D02*
G37*
G36*
X761205D02*
X760173Y1115071D01*
X759212Y1114673D01*
X758386Y1114039D01*
X757753Y1113213D01*
X757354Y1112252D01*
X757218Y1111220D01*
X757354Y1110188D01*
X757753Y1109227D01*
X758386Y1108401D01*
X759212Y1107767D01*
X760173Y1107369D01*
X761205Y1107233D01*
X762237Y1107369D01*
X763199Y1107767D01*
X764024Y1108401D01*
X764658Y1109227D01*
X765056Y1110188D01*
X765192Y1111220D01*
X765056Y1112252D01*
X764658Y1113213D01*
X764024Y1114039D01*
X763199Y1114673D01*
X762237Y1115071D01*
X761205Y1115207D01*
D02*
G37*
G36*
X751205D02*
X750173Y1115071D01*
X749212Y1114673D01*
X748386Y1114039D01*
X747753Y1113213D01*
X747354Y1112252D01*
X747218Y1111220D01*
X747354Y1110188D01*
X747753Y1109227D01*
X748386Y1108401D01*
X749212Y1107767D01*
X750173Y1107369D01*
X751205Y1107233D01*
X752237Y1107369D01*
X753199Y1107767D01*
X754024Y1108401D01*
X754658Y1109227D01*
X755056Y1110188D01*
X755192Y1111220D01*
X755056Y1112252D01*
X754658Y1113213D01*
X754024Y1114039D01*
X753199Y1114673D01*
X752237Y1115071D01*
X751205Y1115207D01*
D02*
G37*
G36*
X143410D02*
X142378Y1115071D01*
X141417Y1114673D01*
X140591Y1114039D01*
X139957Y1113213D01*
X139559Y1112252D01*
X139423Y1111220D01*
X139559Y1110188D01*
X139957Y1109227D01*
X140591Y1108401D01*
X141417Y1107767D01*
X142378Y1107369D01*
X143410Y1107233D01*
X144442Y1107369D01*
X145403Y1107767D01*
X146229Y1108401D01*
X146863Y1109227D01*
X147261Y1110188D01*
X147397Y1111220D01*
X147261Y1112252D01*
X146863Y1113213D01*
X146229Y1114039D01*
X145403Y1114673D01*
X144442Y1115071D01*
X143410Y1115207D01*
D02*
G37*
G36*
X133410D02*
X132378Y1115071D01*
X131417Y1114673D01*
X130591Y1114039D01*
X129957Y1113213D01*
X129559Y1112252D01*
X129423Y1111220D01*
X129559Y1110188D01*
X129957Y1109227D01*
X130591Y1108401D01*
X131417Y1107767D01*
X132378Y1107369D01*
X133410Y1107233D01*
X134442Y1107369D01*
X135403Y1107767D01*
X136229Y1108401D01*
X136863Y1109227D01*
X137261Y1110188D01*
X137397Y1111220D01*
X137261Y1112252D01*
X136863Y1113213D01*
X136229Y1114039D01*
X135403Y1114673D01*
X134442Y1115071D01*
X133410Y1115207D01*
D02*
G37*
G36*
X266008D02*
X264977Y1115071D01*
X264015Y1114673D01*
X263189Y1114039D01*
X262556Y1113213D01*
X262157Y1112252D01*
X262022Y1111220D01*
X262157Y1110188D01*
X262556Y1109227D01*
X263189Y1108401D01*
X264015Y1107767D01*
X264977Y1107369D01*
X266008Y1107233D01*
X267040Y1107369D01*
X268002Y1107767D01*
X268828Y1108401D01*
X269461Y1109227D01*
X269859Y1110188D01*
X269995Y1111220D01*
X269859Y1112252D01*
X269461Y1113213D01*
X268828Y1114039D01*
X268002Y1114673D01*
X267040Y1115071D01*
X266008Y1115207D01*
D02*
G37*
G36*
X286008D02*
X284977Y1115071D01*
X284015Y1114673D01*
X283189Y1114039D01*
X282556Y1113213D01*
X282157Y1112252D01*
X282022Y1111220D01*
X282157Y1110188D01*
X282556Y1109227D01*
X283189Y1108401D01*
X284015Y1107767D01*
X284977Y1107369D01*
X286008Y1107233D01*
X287040Y1107369D01*
X288002Y1107767D01*
X288828Y1108401D01*
X289461Y1109227D01*
X289859Y1110188D01*
X289995Y1111220D01*
X289859Y1112252D01*
X289461Y1113213D01*
X288828Y1114039D01*
X288002Y1114673D01*
X287040Y1115071D01*
X286008Y1115207D01*
D02*
G37*
G36*
X276008D02*
X274976Y1115071D01*
X274015Y1114673D01*
X273189Y1114039D01*
X272556Y1113213D01*
X272157Y1112252D01*
X272022Y1111220D01*
X272157Y1110188D01*
X272556Y1109227D01*
X273189Y1108401D01*
X274015Y1107767D01*
X274976Y1107369D01*
X276008Y1107233D01*
X277040Y1107369D01*
X278002Y1107767D01*
X278828Y1108401D01*
X279461Y1109227D01*
X279859Y1110188D01*
X279995Y1111220D01*
X279859Y1112252D01*
X279461Y1113213D01*
X278828Y1114039D01*
X278002Y1114673D01*
X277040Y1115071D01*
X276008Y1115207D01*
D02*
G37*
G36*
X93410D02*
X92378Y1115071D01*
X91417Y1114673D01*
X90591Y1114039D01*
X89957Y1113213D01*
X89559Y1112252D01*
X89423Y1111220D01*
X89559Y1110188D01*
X89957Y1109227D01*
X90591Y1108401D01*
X91417Y1107767D01*
X92378Y1107369D01*
X93410Y1107233D01*
X94442Y1107369D01*
X95403Y1107767D01*
X96229Y1108401D01*
X96863Y1109227D01*
X97261Y1110188D01*
X97397Y1111220D01*
X97261Y1112252D01*
X96863Y1113213D01*
X96229Y1114039D01*
X95403Y1114673D01*
X94442Y1115071D01*
X93410Y1115207D01*
D02*
G37*
G36*
X83410D02*
X82378Y1115071D01*
X81417Y1114673D01*
X80591Y1114039D01*
X79957Y1113213D01*
X79559Y1112252D01*
X79423Y1111220D01*
X79559Y1110188D01*
X79957Y1109227D01*
X80591Y1108401D01*
X81417Y1107767D01*
X82378Y1107369D01*
X83410Y1107233D01*
X84442Y1107369D01*
X85403Y1107767D01*
X86229Y1108401D01*
X86863Y1109227D01*
X87261Y1110188D01*
X87397Y1111220D01*
X87261Y1112252D01*
X86863Y1113213D01*
X86229Y1114039D01*
X85403Y1114673D01*
X84442Y1115071D01*
X83410Y1115207D01*
D02*
G37*
G36*
X103410D02*
X102378Y1115071D01*
X101417Y1114673D01*
X100591Y1114039D01*
X99957Y1113213D01*
X99559Y1112252D01*
X99423Y1111220D01*
X99559Y1110188D01*
X99957Y1109227D01*
X100591Y1108401D01*
X101417Y1107767D01*
X102378Y1107369D01*
X103410Y1107233D01*
X104442Y1107369D01*
X105403Y1107767D01*
X106229Y1108401D01*
X106863Y1109227D01*
X107261Y1110188D01*
X107397Y1111220D01*
X107261Y1112252D01*
X106863Y1113213D01*
X106229Y1114039D01*
X105403Y1114673D01*
X104442Y1115071D01*
X103410Y1115207D01*
D02*
G37*
G36*
X123410D02*
X122378Y1115071D01*
X121417Y1114673D01*
X120591Y1114039D01*
X119957Y1113213D01*
X119559Y1112252D01*
X119423Y1111220D01*
X119559Y1110188D01*
X119957Y1109227D01*
X120591Y1108401D01*
X121417Y1107767D01*
X122378Y1107369D01*
X123410Y1107233D01*
X124442Y1107369D01*
X125403Y1107767D01*
X126229Y1108401D01*
X126863Y1109227D01*
X127261Y1110188D01*
X127397Y1111220D01*
X127261Y1112252D01*
X126863Y1113213D01*
X126229Y1114039D01*
X125403Y1114673D01*
X124442Y1115071D01*
X123410Y1115207D01*
D02*
G37*
G36*
X113410D02*
X112378Y1115071D01*
X111417Y1114673D01*
X110591Y1114039D01*
X109957Y1113213D01*
X109559Y1112252D01*
X109423Y1111220D01*
X109559Y1110188D01*
X109957Y1109227D01*
X110591Y1108401D01*
X111417Y1107767D01*
X112378Y1107369D01*
X113410Y1107233D01*
X114442Y1107369D01*
X115403Y1107767D01*
X116229Y1108401D01*
X116863Y1109227D01*
X117261Y1110188D01*
X117397Y1111220D01*
X117261Y1112252D01*
X116863Y1113213D01*
X116229Y1114039D01*
X115403Y1114673D01*
X114442Y1115071D01*
X113410Y1115207D01*
D02*
G37*
G36*
X356008D02*
X354977Y1115071D01*
X354015Y1114673D01*
X353189Y1114039D01*
X352556Y1113213D01*
X352157Y1112252D01*
X352022Y1111220D01*
X352157Y1110188D01*
X352556Y1109227D01*
X353189Y1108401D01*
X354015Y1107767D01*
X354977Y1107369D01*
X356008Y1107233D01*
X357040Y1107369D01*
X358002Y1107767D01*
X358828Y1108401D01*
X359461Y1109227D01*
X359859Y1110188D01*
X359995Y1111220D01*
X359859Y1112252D01*
X359461Y1113213D01*
X358828Y1114039D01*
X358002Y1114673D01*
X357040Y1115071D01*
X356008Y1115207D01*
D02*
G37*
G36*
X346008D02*
X344976Y1115071D01*
X344015Y1114673D01*
X343189Y1114039D01*
X342556Y1113213D01*
X342157Y1112252D01*
X342022Y1111220D01*
X342157Y1110188D01*
X342556Y1109227D01*
X343189Y1108401D01*
X344015Y1107767D01*
X344976Y1107369D01*
X346008Y1107233D01*
X347040Y1107369D01*
X348002Y1107767D01*
X348828Y1108401D01*
X349461Y1109227D01*
X349859Y1110188D01*
X349995Y1111220D01*
X349859Y1112252D01*
X349461Y1113213D01*
X348828Y1114039D01*
X348002Y1114673D01*
X347040Y1115071D01*
X346008Y1115207D01*
D02*
G37*
G36*
X478607D02*
X477575Y1115071D01*
X476613Y1114673D01*
X475788Y1114039D01*
X475154Y1113213D01*
X474756Y1112252D01*
X474620Y1111220D01*
X474756Y1110188D01*
X475154Y1109227D01*
X475788Y1108401D01*
X476613Y1107767D01*
X477575Y1107369D01*
X478607Y1107233D01*
X479639Y1107369D01*
X480600Y1107767D01*
X481426Y1108401D01*
X482060Y1109227D01*
X482458Y1110188D01*
X482594Y1111220D01*
X482458Y1112252D01*
X482060Y1113213D01*
X481426Y1114039D01*
X480600Y1114673D01*
X479639Y1115071D01*
X478607Y1115207D01*
D02*
G37*
G36*
X498607D02*
X497575Y1115071D01*
X496613Y1114673D01*
X495788Y1114039D01*
X495154Y1113213D01*
X494756Y1112252D01*
X494620Y1111220D01*
X494756Y1110188D01*
X495154Y1109227D01*
X495788Y1108401D01*
X496613Y1107767D01*
X497575Y1107369D01*
X498607Y1107233D01*
X499639Y1107369D01*
X500600Y1107767D01*
X501426Y1108401D01*
X502060Y1109227D01*
X502458Y1110188D01*
X502594Y1111220D01*
X502458Y1112252D01*
X502060Y1113213D01*
X501426Y1114039D01*
X500600Y1114673D01*
X499639Y1115071D01*
X498607Y1115207D01*
D02*
G37*
G36*
X488607D02*
X487575Y1115071D01*
X486613Y1114673D01*
X485788Y1114039D01*
X485154Y1113213D01*
X484756Y1112252D01*
X484620Y1111220D01*
X484756Y1110188D01*
X485154Y1109227D01*
X485788Y1108401D01*
X486613Y1107767D01*
X487575Y1107369D01*
X488607Y1107233D01*
X489639Y1107369D01*
X490600Y1107767D01*
X491426Y1108401D01*
X492060Y1109227D01*
X492458Y1110188D01*
X492594Y1111220D01*
X492458Y1112252D01*
X492060Y1113213D01*
X491426Y1114039D01*
X490600Y1114673D01*
X489639Y1115071D01*
X488607Y1115207D01*
D02*
G37*
G36*
X306008D02*
X304977Y1115071D01*
X304015Y1114673D01*
X303189Y1114039D01*
X302556Y1113213D01*
X302157Y1112252D01*
X302022Y1111220D01*
X302157Y1110188D01*
X302556Y1109227D01*
X303189Y1108401D01*
X304015Y1107767D01*
X304977Y1107369D01*
X306008Y1107233D01*
X307040Y1107369D01*
X308002Y1107767D01*
X308828Y1108401D01*
X309461Y1109227D01*
X309859Y1110188D01*
X309995Y1111220D01*
X309859Y1112252D01*
X309461Y1113213D01*
X308828Y1114039D01*
X308002Y1114673D01*
X307040Y1115071D01*
X306008Y1115207D01*
D02*
G37*
G36*
X296008D02*
X294976Y1115071D01*
X294015Y1114673D01*
X293189Y1114039D01*
X292556Y1113213D01*
X292157Y1112252D01*
X292022Y1111220D01*
X292157Y1110188D01*
X292556Y1109227D01*
X293189Y1108401D01*
X294015Y1107767D01*
X294976Y1107369D01*
X296008Y1107233D01*
X297040Y1107369D01*
X298002Y1107767D01*
X298828Y1108401D01*
X299461Y1109227D01*
X299859Y1110188D01*
X299995Y1111220D01*
X299859Y1112252D01*
X299461Y1113213D01*
X298828Y1114039D01*
X298002Y1114673D01*
X297040Y1115071D01*
X296008Y1115207D01*
D02*
G37*
G36*
X316008D02*
X314977Y1115071D01*
X314015Y1114673D01*
X313189Y1114039D01*
X312556Y1113213D01*
X312157Y1112252D01*
X312022Y1111220D01*
X312157Y1110188D01*
X312556Y1109227D01*
X313189Y1108401D01*
X314015Y1107767D01*
X314977Y1107369D01*
X316008Y1107233D01*
X317040Y1107369D01*
X318002Y1107767D01*
X318828Y1108401D01*
X319461Y1109227D01*
X319859Y1110188D01*
X319995Y1111220D01*
X319859Y1112252D01*
X319461Y1113213D01*
X318828Y1114039D01*
X318002Y1114673D01*
X317040Y1115071D01*
X316008Y1115207D01*
D02*
G37*
G36*
X336008D02*
X334977Y1115071D01*
X334015Y1114673D01*
X333189Y1114039D01*
X332556Y1113213D01*
X332157Y1112252D01*
X332022Y1111220D01*
X332157Y1110188D01*
X332556Y1109227D01*
X333189Y1108401D01*
X334015Y1107767D01*
X334977Y1107369D01*
X336008Y1107233D01*
X337040Y1107369D01*
X338002Y1107767D01*
X338828Y1108401D01*
X339461Y1109227D01*
X339859Y1110188D01*
X339995Y1111220D01*
X339859Y1112252D01*
X339461Y1113213D01*
X338828Y1114039D01*
X338002Y1114673D01*
X337040Y1115071D01*
X336008Y1115207D01*
D02*
G37*
G36*
X326008D02*
X324976Y1115071D01*
X324015Y1114673D01*
X323189Y1114039D01*
X322556Y1113213D01*
X322157Y1112252D01*
X322022Y1111220D01*
X322157Y1110188D01*
X322556Y1109227D01*
X323189Y1108401D01*
X324015Y1107767D01*
X324976Y1107369D01*
X326008Y1107233D01*
X327040Y1107369D01*
X328002Y1107767D01*
X328828Y1108401D01*
X329461Y1109227D01*
X329859Y1110188D01*
X329995Y1111220D01*
X329859Y1112252D01*
X329461Y1113213D01*
X328828Y1114039D01*
X328002Y1114673D01*
X327040Y1115071D01*
X326008Y1115207D01*
D02*
G37*
G36*
X933804D02*
X932772Y1115071D01*
X931810Y1114673D01*
X930985Y1114039D01*
X930351Y1113213D01*
X929953Y1112252D01*
X929817Y1111220D01*
X929953Y1110188D01*
X930351Y1109227D01*
X930985Y1108401D01*
X931810Y1107767D01*
X932772Y1107369D01*
X933804Y1107233D01*
X934836Y1107369D01*
X935797Y1107767D01*
X936623Y1108401D01*
X937256Y1109227D01*
X937655Y1110188D01*
X937791Y1111220D01*
X937655Y1112252D01*
X937256Y1113213D01*
X936623Y1114039D01*
X935797Y1114673D01*
X934836Y1115071D01*
X933804Y1115207D01*
D02*
G37*
G36*
X1541599D02*
X1540567Y1115071D01*
X1539606Y1114673D01*
X1538780Y1114039D01*
X1538146Y1113213D01*
X1537748Y1112252D01*
X1537612Y1111220D01*
X1537748Y1110188D01*
X1538146Y1109227D01*
X1538780Y1108401D01*
X1539606Y1107767D01*
X1540567Y1107369D01*
X1541599Y1107233D01*
X1542631Y1107369D01*
X1543592Y1107767D01*
X1544418Y1108401D01*
X1545052Y1109227D01*
X1545450Y1110188D01*
X1545586Y1111220D01*
X1545450Y1112252D01*
X1545052Y1113213D01*
X1544418Y1114039D01*
X1543592Y1114673D01*
X1542631Y1115071D01*
X1541599Y1115207D01*
D02*
G37*
G36*
X1419001D02*
X1417969Y1115071D01*
X1417007Y1114673D01*
X1416181Y1114039D01*
X1415548Y1113213D01*
X1415149Y1112252D01*
X1415014Y1111220D01*
X1415149Y1110188D01*
X1415548Y1109227D01*
X1416181Y1108401D01*
X1417007Y1107767D01*
X1417969Y1107369D01*
X1419001Y1107233D01*
X1420032Y1107369D01*
X1420994Y1107767D01*
X1421820Y1108401D01*
X1422453Y1109227D01*
X1422852Y1110188D01*
X1422987Y1111220D01*
X1422852Y1112252D01*
X1422453Y1113213D01*
X1421820Y1114039D01*
X1420994Y1114673D01*
X1420032Y1115071D01*
X1419001Y1115207D01*
D02*
G37*
G36*
X1551599D02*
X1550567Y1115071D01*
X1549606Y1114673D01*
X1548780Y1114039D01*
X1548146Y1113213D01*
X1547748Y1112252D01*
X1547612Y1111220D01*
X1547748Y1110188D01*
X1548146Y1109227D01*
X1548780Y1108401D01*
X1549606Y1107767D01*
X1550567Y1107369D01*
X1551599Y1107233D01*
X1552631Y1107369D01*
X1553592Y1107767D01*
X1554418Y1108401D01*
X1555052Y1109227D01*
X1555450Y1110188D01*
X1555586Y1111220D01*
X1555450Y1112252D01*
X1555052Y1113213D01*
X1554418Y1114039D01*
X1553592Y1114673D01*
X1552631Y1115071D01*
X1551599Y1115207D01*
D02*
G37*
G36*
X1571599D02*
X1570567Y1115071D01*
X1569606Y1114673D01*
X1568780Y1114039D01*
X1568146Y1113213D01*
X1567748Y1112252D01*
X1567612Y1111220D01*
X1567748Y1110188D01*
X1568146Y1109227D01*
X1568780Y1108401D01*
X1569606Y1107767D01*
X1570567Y1107369D01*
X1571599Y1107233D01*
X1572631Y1107369D01*
X1573592Y1107767D01*
X1574418Y1108401D01*
X1575052Y1109227D01*
X1575450Y1110188D01*
X1575586Y1111220D01*
X1575450Y1112252D01*
X1575052Y1113213D01*
X1574418Y1114039D01*
X1573592Y1114673D01*
X1572631Y1115071D01*
X1571599Y1115207D01*
D02*
G37*
G36*
X1561599D02*
X1560567Y1115071D01*
X1559606Y1114673D01*
X1558780Y1114039D01*
X1558146Y1113213D01*
X1557748Y1112252D01*
X1557612Y1111220D01*
X1557748Y1110188D01*
X1558146Y1109227D01*
X1558780Y1108401D01*
X1559606Y1107767D01*
X1560567Y1107369D01*
X1561599Y1107233D01*
X1562631Y1107369D01*
X1563592Y1107767D01*
X1564418Y1108401D01*
X1565052Y1109227D01*
X1565450Y1110188D01*
X1565586Y1111220D01*
X1565450Y1112252D01*
X1565052Y1113213D01*
X1564418Y1114039D01*
X1563592Y1114673D01*
X1562631Y1115071D01*
X1561599Y1115207D01*
D02*
G37*
G36*
X1379000D02*
X1377969Y1115071D01*
X1377007Y1114673D01*
X1376181Y1114039D01*
X1375548Y1113213D01*
X1375150Y1112252D01*
X1375014Y1111220D01*
X1375150Y1110188D01*
X1375548Y1109227D01*
X1376181Y1108401D01*
X1377007Y1107767D01*
X1377969Y1107369D01*
X1379000Y1107233D01*
X1380032Y1107369D01*
X1380994Y1107767D01*
X1381820Y1108401D01*
X1382453Y1109227D01*
X1382852Y1110188D01*
X1382987Y1111220D01*
X1382852Y1112252D01*
X1382453Y1113213D01*
X1381820Y1114039D01*
X1380994Y1114673D01*
X1380032Y1115071D01*
X1379000Y1115207D01*
D02*
G37*
G36*
X1369001D02*
X1367969Y1115071D01*
X1367007Y1114673D01*
X1366181Y1114039D01*
X1365548Y1113213D01*
X1365149Y1112252D01*
X1365014Y1111220D01*
X1365149Y1110188D01*
X1365548Y1109227D01*
X1366181Y1108401D01*
X1367007Y1107767D01*
X1367969Y1107369D01*
X1369001Y1107233D01*
X1370032Y1107369D01*
X1370994Y1107767D01*
X1371820Y1108401D01*
X1372453Y1109227D01*
X1372852Y1110188D01*
X1372987Y1111220D01*
X1372852Y1112252D01*
X1372453Y1113213D01*
X1371820Y1114039D01*
X1370994Y1114673D01*
X1370032Y1115071D01*
X1369001Y1115207D01*
D02*
G37*
G36*
X1389001D02*
X1387969Y1115071D01*
X1387007Y1114673D01*
X1386181Y1114039D01*
X1385548Y1113213D01*
X1385149Y1112252D01*
X1385014Y1111220D01*
X1385149Y1110188D01*
X1385548Y1109227D01*
X1386181Y1108401D01*
X1387007Y1107767D01*
X1387969Y1107369D01*
X1389001Y1107233D01*
X1390032Y1107369D01*
X1390994Y1107767D01*
X1391820Y1108401D01*
X1392453Y1109227D01*
X1392852Y1110188D01*
X1392987Y1111220D01*
X1392852Y1112252D01*
X1392453Y1113213D01*
X1391820Y1114039D01*
X1390994Y1114673D01*
X1390032Y1115071D01*
X1389001Y1115207D01*
D02*
G37*
G36*
X1409000D02*
X1407969Y1115071D01*
X1407007Y1114673D01*
X1406181Y1114039D01*
X1405548Y1113213D01*
X1405149Y1112252D01*
X1405014Y1111220D01*
X1405149Y1110188D01*
X1405548Y1109227D01*
X1406181Y1108401D01*
X1407007Y1107767D01*
X1407969Y1107369D01*
X1409000Y1107233D01*
X1410032Y1107369D01*
X1410994Y1107767D01*
X1411820Y1108401D01*
X1412453Y1109227D01*
X1412852Y1110188D01*
X1412987Y1111220D01*
X1412852Y1112252D01*
X1412453Y1113213D01*
X1411820Y1114039D01*
X1410994Y1114673D01*
X1410032Y1115071D01*
X1409000Y1115207D01*
D02*
G37*
G36*
X1399000D02*
X1397969Y1115071D01*
X1397007Y1114673D01*
X1396181Y1114039D01*
X1395548Y1113213D01*
X1395150Y1112252D01*
X1395014Y1111220D01*
X1395150Y1110188D01*
X1395548Y1109227D01*
X1396181Y1108401D01*
X1397007Y1107767D01*
X1397969Y1107369D01*
X1399000Y1107233D01*
X1400032Y1107369D01*
X1400994Y1107767D01*
X1401820Y1108401D01*
X1402453Y1109227D01*
X1402852Y1110188D01*
X1402987Y1111220D01*
X1402852Y1112252D01*
X1402453Y1113213D01*
X1401820Y1114039D01*
X1400994Y1114673D01*
X1400032Y1115071D01*
X1399000Y1115207D01*
D02*
G37*
G36*
X1688592Y1139127D02*
X1687190Y1138943D01*
X1685884Y1138402D01*
X1684762Y1137541D01*
X1683901Y1136419D01*
X1683360Y1135113D01*
X1683176Y1133711D01*
X1683360Y1132309D01*
X1683901Y1131003D01*
X1684762Y1129881D01*
X1685884Y1129020D01*
X1687190Y1128479D01*
X1688592Y1128294D01*
X1689994Y1128479D01*
X1691301Y1129020D01*
X1692422Y1129881D01*
X1693283Y1131003D01*
X1693824Y1132309D01*
X1694009Y1133711D01*
X1693824Y1135113D01*
X1693283Y1136419D01*
X1692422Y1137541D01*
X1691301Y1138402D01*
X1689994Y1138943D01*
X1688592Y1139127D01*
D02*
G37*
G36*
X1631599Y1115207D02*
X1630567Y1115071D01*
X1629606Y1114673D01*
X1628780Y1114039D01*
X1628146Y1113213D01*
X1627748Y1112252D01*
X1627612Y1111220D01*
X1627748Y1110188D01*
X1628146Y1109227D01*
X1628780Y1108401D01*
X1629606Y1107767D01*
X1630567Y1107369D01*
X1631599Y1107233D01*
X1632631Y1107369D01*
X1633592Y1107767D01*
X1634418Y1108401D01*
X1635052Y1109227D01*
X1635450Y1110188D01*
X1635586Y1111220D01*
X1635450Y1112252D01*
X1635052Y1113213D01*
X1634418Y1114039D01*
X1633592Y1114673D01*
X1632631Y1115071D01*
X1631599Y1115207D01*
D02*
G37*
G36*
X1063749Y1139137D02*
X1062347Y1138952D01*
X1061041Y1138411D01*
X1059919Y1137550D01*
X1059058Y1136428D01*
X1058517Y1135122D01*
X1058333Y1133720D01*
X1058517Y1132318D01*
X1059058Y1131012D01*
X1059919Y1129890D01*
X1061041Y1129029D01*
X1062347Y1128488D01*
X1063749Y1128304D01*
X1065151Y1128488D01*
X1066457Y1129029D01*
X1067579Y1129890D01*
X1068440Y1131012D01*
X1068981Y1132318D01*
X1069166Y1133720D01*
X1068981Y1135122D01*
X1068440Y1136428D01*
X1067579Y1137550D01*
X1066457Y1138411D01*
X1065151Y1138952D01*
X1063749Y1139137D01*
D02*
G37*
G36*
X12259Y1139191D02*
X10857Y1139007D01*
X9551Y1138466D01*
X8429Y1137605D01*
X7569Y1136483D01*
X7027Y1135177D01*
X6843Y1133775D01*
X7027Y1132373D01*
X7569Y1131067D01*
X8429Y1129945D01*
X9551Y1129084D01*
X10857Y1128543D01*
X12259Y1128358D01*
X13661Y1128543D01*
X14967Y1129084D01*
X16089Y1129945D01*
X16950Y1131067D01*
X17491Y1132373D01*
X17676Y1133775D01*
X17491Y1135177D01*
X16950Y1136483D01*
X16089Y1137605D01*
X14967Y1138466D01*
X13661Y1139007D01*
X12259Y1139191D01*
D02*
G37*
G36*
X638749Y1139177D02*
X637347Y1138992D01*
X636041Y1138451D01*
X634919Y1137590D01*
X634059Y1136468D01*
X633517Y1135162D01*
X633333Y1133760D01*
X633517Y1132358D01*
X634059Y1131052D01*
X634919Y1129930D01*
X636041Y1129069D01*
X637347Y1128528D01*
X638749Y1128344D01*
X640151Y1128528D01*
X641457Y1129069D01*
X642579Y1129930D01*
X643440Y1131052D01*
X643981Y1132358D01*
X644166Y1133760D01*
X643981Y1135162D01*
X643440Y1136468D01*
X642579Y1137590D01*
X641457Y1138451D01*
X640151Y1138992D01*
X638749Y1139177D01*
D02*
G37*
G36*
X1591599Y1115207D02*
X1590567Y1115071D01*
X1589606Y1114673D01*
X1588780Y1114039D01*
X1588146Y1113213D01*
X1587748Y1112252D01*
X1587612Y1111220D01*
X1587748Y1110188D01*
X1588146Y1109227D01*
X1588780Y1108401D01*
X1589606Y1107767D01*
X1590567Y1107369D01*
X1591599Y1107233D01*
X1592631Y1107369D01*
X1593592Y1107767D01*
X1594418Y1108401D01*
X1595052Y1109227D01*
X1595450Y1110188D01*
X1595586Y1111220D01*
X1595450Y1112252D01*
X1595052Y1113213D01*
X1594418Y1114039D01*
X1593592Y1114673D01*
X1592631Y1115071D01*
X1591599Y1115207D01*
D02*
G37*
G36*
X1581599D02*
X1580567Y1115071D01*
X1579606Y1114673D01*
X1578780Y1114039D01*
X1578146Y1113213D01*
X1577748Y1112252D01*
X1577612Y1111220D01*
X1577748Y1110188D01*
X1578146Y1109227D01*
X1578780Y1108401D01*
X1579606Y1107767D01*
X1580567Y1107369D01*
X1581599Y1107233D01*
X1582631Y1107369D01*
X1583592Y1107767D01*
X1584418Y1108401D01*
X1585052Y1109227D01*
X1585450Y1110188D01*
X1585586Y1111220D01*
X1585450Y1112252D01*
X1585052Y1113213D01*
X1584418Y1114039D01*
X1583592Y1114673D01*
X1582631Y1115071D01*
X1581599Y1115207D01*
D02*
G37*
G36*
X1601599D02*
X1600567Y1115071D01*
X1599606Y1114673D01*
X1598780Y1114039D01*
X1598146Y1113213D01*
X1597748Y1112252D01*
X1597612Y1111220D01*
X1597748Y1110188D01*
X1598146Y1109227D01*
X1598780Y1108401D01*
X1599606Y1107767D01*
X1600567Y1107369D01*
X1601599Y1107233D01*
X1602631Y1107369D01*
X1603592Y1107767D01*
X1604418Y1108401D01*
X1605052Y1109227D01*
X1605450Y1110188D01*
X1605586Y1111220D01*
X1605450Y1112252D01*
X1605052Y1113213D01*
X1604418Y1114039D01*
X1603592Y1114673D01*
X1602631Y1115071D01*
X1601599Y1115207D01*
D02*
G37*
G36*
X1621599D02*
X1620567Y1115071D01*
X1619606Y1114673D01*
X1618780Y1114039D01*
X1618146Y1113213D01*
X1617748Y1112252D01*
X1617612Y1111220D01*
X1617748Y1110188D01*
X1618146Y1109227D01*
X1618780Y1108401D01*
X1619606Y1107767D01*
X1620567Y1107369D01*
X1621599Y1107233D01*
X1622631Y1107369D01*
X1623592Y1107767D01*
X1624418Y1108401D01*
X1625052Y1109227D01*
X1625450Y1110188D01*
X1625586Y1111220D01*
X1625450Y1112252D01*
X1625052Y1113213D01*
X1624418Y1114039D01*
X1623592Y1114673D01*
X1622631Y1115071D01*
X1621599Y1115207D01*
D02*
G37*
G36*
X1611599D02*
X1610567Y1115071D01*
X1609606Y1114673D01*
X1608780Y1114039D01*
X1608146Y1113213D01*
X1607748Y1112252D01*
X1607612Y1111220D01*
X1607748Y1110188D01*
X1608146Y1109227D01*
X1608780Y1108401D01*
X1609606Y1107767D01*
X1610567Y1107369D01*
X1611599Y1107233D01*
X1612631Y1107369D01*
X1613592Y1107767D01*
X1614418Y1108401D01*
X1615052Y1109227D01*
X1615450Y1110188D01*
X1615586Y1111220D01*
X1615450Y1112252D01*
X1615052Y1113213D01*
X1614418Y1114039D01*
X1613592Y1114673D01*
X1612631Y1115071D01*
X1611599Y1115207D01*
D02*
G37*
G36*
X1116402D02*
X1115370Y1115071D01*
X1114409Y1114673D01*
X1113583Y1114039D01*
X1112949Y1113213D01*
X1112551Y1112252D01*
X1112415Y1111220D01*
X1112551Y1110188D01*
X1112949Y1109227D01*
X1113583Y1108401D01*
X1114409Y1107767D01*
X1115370Y1107369D01*
X1116402Y1107233D01*
X1117434Y1107369D01*
X1118396Y1107767D01*
X1119221Y1108401D01*
X1119855Y1109227D01*
X1120253Y1110188D01*
X1120389Y1111220D01*
X1120253Y1112252D01*
X1119855Y1113213D01*
X1119221Y1114039D01*
X1118396Y1114673D01*
X1117434Y1115071D01*
X1116402Y1115207D01*
D02*
G37*
G36*
X993804D02*
X992772Y1115071D01*
X991810Y1114673D01*
X990985Y1114039D01*
X990351Y1113213D01*
X989953Y1112252D01*
X989817Y1111220D01*
X989953Y1110188D01*
X990351Y1109227D01*
X990985Y1108401D01*
X991810Y1107767D01*
X992772Y1107369D01*
X993804Y1107233D01*
X994836Y1107369D01*
X995797Y1107767D01*
X996623Y1108401D01*
X997256Y1109227D01*
X997655Y1110188D01*
X997791Y1111220D01*
X997655Y1112252D01*
X997256Y1113213D01*
X996623Y1114039D01*
X995797Y1114673D01*
X994836Y1115071D01*
X993804Y1115207D01*
D02*
G37*
G36*
X1126402D02*
X1125370Y1115071D01*
X1124409Y1114673D01*
X1123583Y1114039D01*
X1122949Y1113213D01*
X1122551Y1112252D01*
X1122415Y1111220D01*
X1122551Y1110188D01*
X1122949Y1109227D01*
X1123583Y1108401D01*
X1124409Y1107767D01*
X1125370Y1107369D01*
X1126402Y1107233D01*
X1127434Y1107369D01*
X1128396Y1107767D01*
X1129221Y1108401D01*
X1129855Y1109227D01*
X1130253Y1110188D01*
X1130389Y1111220D01*
X1130253Y1112252D01*
X1129855Y1113213D01*
X1129221Y1114039D01*
X1128396Y1114673D01*
X1127434Y1115071D01*
X1126402Y1115207D01*
D02*
G37*
G36*
X1146402D02*
X1145370Y1115071D01*
X1144409Y1114673D01*
X1143583Y1114039D01*
X1142949Y1113213D01*
X1142551Y1112252D01*
X1142415Y1111220D01*
X1142551Y1110188D01*
X1142949Y1109227D01*
X1143583Y1108401D01*
X1144409Y1107767D01*
X1145370Y1107369D01*
X1146402Y1107233D01*
X1147434Y1107369D01*
X1148396Y1107767D01*
X1149221Y1108401D01*
X1149855Y1109227D01*
X1150253Y1110188D01*
X1150389Y1111220D01*
X1150253Y1112252D01*
X1149855Y1113213D01*
X1149221Y1114039D01*
X1148396Y1114673D01*
X1147434Y1115071D01*
X1146402Y1115207D01*
D02*
G37*
G36*
X1136402D02*
X1135370Y1115071D01*
X1134409Y1114673D01*
X1133583Y1114039D01*
X1132949Y1113213D01*
X1132551Y1112252D01*
X1132415Y1111220D01*
X1132551Y1110188D01*
X1132949Y1109227D01*
X1133583Y1108401D01*
X1134409Y1107767D01*
X1135370Y1107369D01*
X1136402Y1107233D01*
X1137434Y1107369D01*
X1138396Y1107767D01*
X1139221Y1108401D01*
X1139855Y1109227D01*
X1140253Y1110188D01*
X1140389Y1111220D01*
X1140253Y1112252D01*
X1139855Y1113213D01*
X1139221Y1114039D01*
X1138396Y1114673D01*
X1137434Y1115071D01*
X1136402Y1115207D01*
D02*
G37*
G36*
X953804D02*
X952772Y1115071D01*
X951810Y1114673D01*
X950985Y1114039D01*
X950351Y1113213D01*
X949953Y1112252D01*
X949817Y1111220D01*
X949953Y1110188D01*
X950351Y1109227D01*
X950985Y1108401D01*
X951810Y1107767D01*
X952772Y1107369D01*
X953804Y1107233D01*
X954836Y1107369D01*
X955797Y1107767D01*
X956623Y1108401D01*
X957256Y1109227D01*
X957655Y1110188D01*
X957791Y1111220D01*
X957655Y1112252D01*
X957256Y1113213D01*
X956623Y1114039D01*
X955797Y1114673D01*
X954836Y1115071D01*
X953804Y1115207D01*
D02*
G37*
G36*
X943804D02*
X942772Y1115071D01*
X941810Y1114673D01*
X940985Y1114039D01*
X940351Y1113213D01*
X939953Y1112252D01*
X939817Y1111220D01*
X939953Y1110188D01*
X940351Y1109227D01*
X940985Y1108401D01*
X941810Y1107767D01*
X942772Y1107369D01*
X943804Y1107233D01*
X944836Y1107369D01*
X945797Y1107767D01*
X946623Y1108401D01*
X947256Y1109227D01*
X947655Y1110188D01*
X947791Y1111220D01*
X947655Y1112252D01*
X947256Y1113213D01*
X946623Y1114039D01*
X945797Y1114673D01*
X944836Y1115071D01*
X943804Y1115207D01*
D02*
G37*
G36*
X963804D02*
X962772Y1115071D01*
X961810Y1114673D01*
X960985Y1114039D01*
X960351Y1113213D01*
X959953Y1112252D01*
X959817Y1111220D01*
X959953Y1110188D01*
X960351Y1109227D01*
X960985Y1108401D01*
X961810Y1107767D01*
X962772Y1107369D01*
X963804Y1107233D01*
X964836Y1107369D01*
X965797Y1107767D01*
X966623Y1108401D01*
X967256Y1109227D01*
X967655Y1110188D01*
X967791Y1111220D01*
X967655Y1112252D01*
X967256Y1113213D01*
X966623Y1114039D01*
X965797Y1114673D01*
X964836Y1115071D01*
X963804Y1115207D01*
D02*
G37*
G36*
X983804D02*
X982772Y1115071D01*
X981810Y1114673D01*
X980985Y1114039D01*
X980351Y1113213D01*
X979953Y1112252D01*
X979817Y1111220D01*
X979953Y1110188D01*
X980351Y1109227D01*
X980985Y1108401D01*
X981810Y1107767D01*
X982772Y1107369D01*
X983804Y1107233D01*
X984836Y1107369D01*
X985797Y1107767D01*
X986623Y1108401D01*
X987256Y1109227D01*
X987655Y1110188D01*
X987791Y1111220D01*
X987655Y1112252D01*
X987256Y1113213D01*
X986623Y1114039D01*
X985797Y1114673D01*
X984836Y1115071D01*
X983804Y1115207D01*
D02*
G37*
G36*
X973804D02*
X972772Y1115071D01*
X971810Y1114673D01*
X970985Y1114039D01*
X970351Y1113213D01*
X969953Y1112252D01*
X969817Y1111220D01*
X969953Y1110188D01*
X970351Y1109227D01*
X970985Y1108401D01*
X971810Y1107767D01*
X972772Y1107369D01*
X973804Y1107233D01*
X974836Y1107369D01*
X975797Y1107767D01*
X976623Y1108401D01*
X977256Y1109227D01*
X977655Y1110188D01*
X977791Y1111220D01*
X977655Y1112252D01*
X977256Y1113213D01*
X976623Y1114039D01*
X975797Y1114673D01*
X974836Y1115071D01*
X973804Y1115207D01*
D02*
G37*
G36*
X1329000D02*
X1327969Y1115071D01*
X1327007Y1114673D01*
X1326181Y1114039D01*
X1325548Y1113213D01*
X1325150Y1112252D01*
X1325014Y1111220D01*
X1325150Y1110188D01*
X1325548Y1109227D01*
X1326181Y1108401D01*
X1327007Y1107767D01*
X1327969Y1107369D01*
X1329000Y1107233D01*
X1330032Y1107369D01*
X1330994Y1107767D01*
X1331820Y1108401D01*
X1332453Y1109227D01*
X1332852Y1110188D01*
X1332987Y1111220D01*
X1332852Y1112252D01*
X1332453Y1113213D01*
X1331820Y1114039D01*
X1330994Y1114673D01*
X1330032Y1115071D01*
X1329000Y1115207D01*
D02*
G37*
G36*
X1206402D02*
X1205370Y1115071D01*
X1204409Y1114673D01*
X1203583Y1114039D01*
X1202949Y1113213D01*
X1202551Y1112252D01*
X1202415Y1111220D01*
X1202551Y1110188D01*
X1202949Y1109227D01*
X1203583Y1108401D01*
X1204409Y1107767D01*
X1205370Y1107369D01*
X1206402Y1107233D01*
X1207434Y1107369D01*
X1208396Y1107767D01*
X1209221Y1108401D01*
X1209855Y1109227D01*
X1210253Y1110188D01*
X1210389Y1111220D01*
X1210253Y1112252D01*
X1209855Y1113213D01*
X1209221Y1114039D01*
X1208396Y1114673D01*
X1207434Y1115071D01*
X1206402Y1115207D01*
D02*
G37*
G36*
X1339001D02*
X1337969Y1115071D01*
X1337007Y1114673D01*
X1336181Y1114039D01*
X1335548Y1113213D01*
X1335149Y1112252D01*
X1335014Y1111220D01*
X1335149Y1110188D01*
X1335548Y1109227D01*
X1336181Y1108401D01*
X1337007Y1107767D01*
X1337969Y1107369D01*
X1339001Y1107233D01*
X1340032Y1107369D01*
X1340994Y1107767D01*
X1341820Y1108401D01*
X1342453Y1109227D01*
X1342852Y1110188D01*
X1342987Y1111220D01*
X1342852Y1112252D01*
X1342453Y1113213D01*
X1341820Y1114039D01*
X1340994Y1114673D01*
X1340032Y1115071D01*
X1339001Y1115207D01*
D02*
G37*
G36*
X1359000D02*
X1357969Y1115071D01*
X1357007Y1114673D01*
X1356181Y1114039D01*
X1355548Y1113213D01*
X1355149Y1112252D01*
X1355014Y1111220D01*
X1355149Y1110188D01*
X1355548Y1109227D01*
X1356181Y1108401D01*
X1357007Y1107767D01*
X1357969Y1107369D01*
X1359000Y1107233D01*
X1360032Y1107369D01*
X1360994Y1107767D01*
X1361820Y1108401D01*
X1362453Y1109227D01*
X1362852Y1110188D01*
X1362987Y1111220D01*
X1362852Y1112252D01*
X1362453Y1113213D01*
X1361820Y1114039D01*
X1360994Y1114673D01*
X1360032Y1115071D01*
X1359000Y1115207D01*
D02*
G37*
G36*
X1349000D02*
X1347969Y1115071D01*
X1347007Y1114673D01*
X1346181Y1114039D01*
X1345548Y1113213D01*
X1345150Y1112252D01*
X1345014Y1111220D01*
X1345150Y1110188D01*
X1345548Y1109227D01*
X1346181Y1108401D01*
X1347007Y1107767D01*
X1347969Y1107369D01*
X1349000Y1107233D01*
X1350032Y1107369D01*
X1350994Y1107767D01*
X1351820Y1108401D01*
X1352453Y1109227D01*
X1352852Y1110188D01*
X1352987Y1111220D01*
X1352852Y1112252D01*
X1352453Y1113213D01*
X1351820Y1114039D01*
X1350994Y1114673D01*
X1350032Y1115071D01*
X1349000Y1115207D01*
D02*
G37*
G36*
X1166402D02*
X1165370Y1115071D01*
X1164409Y1114673D01*
X1163583Y1114039D01*
X1162949Y1113213D01*
X1162551Y1112252D01*
X1162415Y1111220D01*
X1162551Y1110188D01*
X1162949Y1109227D01*
X1163583Y1108401D01*
X1164409Y1107767D01*
X1165370Y1107369D01*
X1166402Y1107233D01*
X1167434Y1107369D01*
X1168396Y1107767D01*
X1169221Y1108401D01*
X1169855Y1109227D01*
X1170253Y1110188D01*
X1170389Y1111220D01*
X1170253Y1112252D01*
X1169855Y1113213D01*
X1169221Y1114039D01*
X1168396Y1114673D01*
X1167434Y1115071D01*
X1166402Y1115207D01*
D02*
G37*
G36*
X1156402D02*
X1155370Y1115071D01*
X1154409Y1114673D01*
X1153583Y1114039D01*
X1152949Y1113213D01*
X1152551Y1112252D01*
X1152415Y1111220D01*
X1152551Y1110188D01*
X1152949Y1109227D01*
X1153583Y1108401D01*
X1154409Y1107767D01*
X1155370Y1107369D01*
X1156402Y1107233D01*
X1157434Y1107369D01*
X1158396Y1107767D01*
X1159221Y1108401D01*
X1159855Y1109227D01*
X1160253Y1110188D01*
X1160389Y1111220D01*
X1160253Y1112252D01*
X1159855Y1113213D01*
X1159221Y1114039D01*
X1158396Y1114673D01*
X1157434Y1115071D01*
X1156402Y1115207D01*
D02*
G37*
G36*
X1176402D02*
X1175370Y1115071D01*
X1174409Y1114673D01*
X1173583Y1114039D01*
X1172949Y1113213D01*
X1172551Y1112252D01*
X1172415Y1111220D01*
X1172551Y1110188D01*
X1172949Y1109227D01*
X1173583Y1108401D01*
X1174409Y1107767D01*
X1175370Y1107369D01*
X1176402Y1107233D01*
X1177434Y1107369D01*
X1178396Y1107767D01*
X1179221Y1108401D01*
X1179855Y1109227D01*
X1180253Y1110188D01*
X1180389Y1111220D01*
X1180253Y1112252D01*
X1179855Y1113213D01*
X1179221Y1114039D01*
X1178396Y1114673D01*
X1177434Y1115071D01*
X1176402Y1115207D01*
D02*
G37*
G36*
X1196402D02*
X1195370Y1115071D01*
X1194409Y1114673D01*
X1193583Y1114039D01*
X1192949Y1113213D01*
X1192551Y1112252D01*
X1192415Y1111220D01*
X1192551Y1110188D01*
X1192949Y1109227D01*
X1193583Y1108401D01*
X1194409Y1107767D01*
X1195370Y1107369D01*
X1196402Y1107233D01*
X1197434Y1107369D01*
X1198396Y1107767D01*
X1199221Y1108401D01*
X1199855Y1109227D01*
X1200253Y1110188D01*
X1200389Y1111220D01*
X1200253Y1112252D01*
X1199855Y1113213D01*
X1199221Y1114039D01*
X1198396Y1114673D01*
X1197434Y1115071D01*
X1196402Y1115207D01*
D02*
G37*
G36*
X1186402D02*
X1185370Y1115071D01*
X1184409Y1114673D01*
X1183583Y1114039D01*
X1182949Y1113213D01*
X1182551Y1112252D01*
X1182415Y1111220D01*
X1182551Y1110188D01*
X1182949Y1109227D01*
X1183583Y1108401D01*
X1184409Y1107767D01*
X1185370Y1107369D01*
X1186402Y1107233D01*
X1187434Y1107369D01*
X1188396Y1107767D01*
X1189221Y1108401D01*
X1189855Y1109227D01*
X1190253Y1110188D01*
X1190389Y1111220D01*
X1190253Y1112252D01*
X1189855Y1113213D01*
X1189221Y1114039D01*
X1188396Y1114673D01*
X1187434Y1115071D01*
X1186402Y1115207D01*
D02*
G37*
G36*
X73410D02*
X72378Y1115071D01*
X71417Y1114673D01*
X70591Y1114039D01*
X69957Y1113213D01*
X69559Y1112252D01*
X69423Y1111220D01*
X69559Y1110188D01*
X69957Y1109227D01*
X70591Y1108401D01*
X71417Y1107767D01*
X72378Y1107369D01*
X73410Y1107233D01*
X74442Y1107369D01*
X75403Y1107767D01*
X76229Y1108401D01*
X76863Y1109227D01*
X77261Y1110188D01*
X77397Y1111220D01*
X77261Y1112252D01*
X76863Y1113213D01*
X76229Y1114039D01*
X75403Y1114673D01*
X74442Y1115071D01*
X73410Y1115207D01*
D02*
G37*
G36*
X548607Y1105207D02*
X547575Y1105071D01*
X546613Y1104673D01*
X545788Y1104039D01*
X545154Y1103213D01*
X544756Y1102252D01*
X544620Y1101220D01*
X544756Y1100188D01*
X545154Y1099227D01*
X545788Y1098401D01*
X546613Y1097767D01*
X547575Y1097369D01*
X548607Y1097233D01*
X549639Y1097369D01*
X550600Y1097767D01*
X551426Y1098401D01*
X552060Y1099227D01*
X552458Y1100188D01*
X552594Y1101220D01*
X552458Y1102252D01*
X552060Y1103213D01*
X551426Y1104039D01*
X550600Y1104673D01*
X549639Y1105071D01*
X548607Y1105207D01*
D02*
G37*
G36*
X538607D02*
X537575Y1105071D01*
X536613Y1104673D01*
X535788Y1104039D01*
X535154Y1103213D01*
X534756Y1102252D01*
X534620Y1101220D01*
X534756Y1100188D01*
X535154Y1099227D01*
X535788Y1098401D01*
X536613Y1097767D01*
X537575Y1097369D01*
X538607Y1097233D01*
X539639Y1097369D01*
X540600Y1097767D01*
X541426Y1098401D01*
X542060Y1099227D01*
X542458Y1100188D01*
X542594Y1101220D01*
X542458Y1102252D01*
X542060Y1103213D01*
X541426Y1104039D01*
X540600Y1104673D01*
X539639Y1105071D01*
X538607Y1105207D01*
D02*
G37*
G36*
X558607D02*
X557575Y1105071D01*
X556613Y1104673D01*
X555788Y1104039D01*
X555154Y1103213D01*
X554756Y1102252D01*
X554620Y1101220D01*
X554756Y1100188D01*
X555154Y1099227D01*
X555788Y1098401D01*
X556613Y1097767D01*
X557575Y1097369D01*
X558607Y1097233D01*
X559639Y1097369D01*
X560600Y1097767D01*
X561426Y1098401D01*
X562060Y1099227D01*
X562458Y1100188D01*
X562594Y1101220D01*
X562458Y1102252D01*
X562060Y1103213D01*
X561426Y1104039D01*
X560600Y1104673D01*
X559639Y1105071D01*
X558607Y1105207D01*
D02*
G37*
G36*
X691205D02*
X690173Y1105071D01*
X689212Y1104673D01*
X688386Y1104039D01*
X687753Y1103213D01*
X687354Y1102252D01*
X687218Y1101220D01*
X687354Y1100188D01*
X687753Y1099227D01*
X688386Y1098401D01*
X689212Y1097767D01*
X690173Y1097369D01*
X691205Y1097233D01*
X692237Y1097369D01*
X693199Y1097767D01*
X694024Y1098401D01*
X694658Y1099227D01*
X695056Y1100188D01*
X695192Y1101220D01*
X695056Y1102252D01*
X694658Y1103213D01*
X694024Y1104039D01*
X693199Y1104673D01*
X692237Y1105071D01*
X691205Y1105207D01*
D02*
G37*
G36*
X568607D02*
X567575Y1105071D01*
X566613Y1104673D01*
X565788Y1104039D01*
X565154Y1103213D01*
X564756Y1102252D01*
X564620Y1101220D01*
X564756Y1100188D01*
X565154Y1099227D01*
X565788Y1098401D01*
X566613Y1097767D01*
X567575Y1097369D01*
X568607Y1097233D01*
X569639Y1097369D01*
X570600Y1097767D01*
X571426Y1098401D01*
X572060Y1099227D01*
X572458Y1100188D01*
X572594Y1101220D01*
X572458Y1102252D01*
X572060Y1103213D01*
X571426Y1104039D01*
X570600Y1104673D01*
X569639Y1105071D01*
X568607Y1105207D01*
D02*
G37*
G36*
X498607D02*
X497575Y1105071D01*
X496613Y1104673D01*
X495788Y1104039D01*
X495154Y1103213D01*
X494756Y1102252D01*
X494620Y1101220D01*
X494756Y1100188D01*
X495154Y1099227D01*
X495788Y1098401D01*
X496613Y1097767D01*
X497575Y1097369D01*
X498607Y1097233D01*
X499639Y1097369D01*
X500600Y1097767D01*
X501426Y1098401D01*
X502060Y1099227D01*
X502458Y1100188D01*
X502594Y1101220D01*
X502458Y1102252D01*
X502060Y1103213D01*
X501426Y1104039D01*
X500600Y1104673D01*
X499639Y1105071D01*
X498607Y1105207D01*
D02*
G37*
G36*
X488607D02*
X487575Y1105071D01*
X486613Y1104673D01*
X485788Y1104039D01*
X485154Y1103213D01*
X484756Y1102252D01*
X484620Y1101220D01*
X484756Y1100188D01*
X485154Y1099227D01*
X485788Y1098401D01*
X486613Y1097767D01*
X487575Y1097369D01*
X488607Y1097233D01*
X489639Y1097369D01*
X490600Y1097767D01*
X491426Y1098401D01*
X492060Y1099227D01*
X492458Y1100188D01*
X492594Y1101220D01*
X492458Y1102252D01*
X492060Y1103213D01*
X491426Y1104039D01*
X490600Y1104673D01*
X489639Y1105071D01*
X488607Y1105207D01*
D02*
G37*
G36*
X508607D02*
X507575Y1105071D01*
X506613Y1104673D01*
X505788Y1104039D01*
X505154Y1103213D01*
X504756Y1102252D01*
X504620Y1101220D01*
X504756Y1100188D01*
X505154Y1099227D01*
X505788Y1098401D01*
X506613Y1097767D01*
X507575Y1097369D01*
X508607Y1097233D01*
X509639Y1097369D01*
X510600Y1097767D01*
X511426Y1098401D01*
X512060Y1099227D01*
X512458Y1100188D01*
X512594Y1101220D01*
X512458Y1102252D01*
X512060Y1103213D01*
X511426Y1104039D01*
X510600Y1104673D01*
X509639Y1105071D01*
X508607Y1105207D01*
D02*
G37*
G36*
X528607D02*
X527575Y1105071D01*
X526613Y1104673D01*
X525788Y1104039D01*
X525154Y1103213D01*
X524756Y1102252D01*
X524620Y1101220D01*
X524756Y1100188D01*
X525154Y1099227D01*
X525788Y1098401D01*
X526613Y1097767D01*
X527575Y1097369D01*
X528607Y1097233D01*
X529639Y1097369D01*
X530600Y1097767D01*
X531426Y1098401D01*
X532060Y1099227D01*
X532458Y1100188D01*
X532594Y1101220D01*
X532458Y1102252D01*
X532060Y1103213D01*
X531426Y1104039D01*
X530600Y1104673D01*
X529639Y1105071D01*
X528607Y1105207D01*
D02*
G37*
G36*
X518607D02*
X517575Y1105071D01*
X516613Y1104673D01*
X515788Y1104039D01*
X515154Y1103213D01*
X514756Y1102252D01*
X514620Y1101220D01*
X514756Y1100188D01*
X515154Y1099227D01*
X515788Y1098401D01*
X516613Y1097767D01*
X517575Y1097369D01*
X518607Y1097233D01*
X519639Y1097369D01*
X520600Y1097767D01*
X521426Y1098401D01*
X522060Y1099227D01*
X522458Y1100188D01*
X522594Y1101220D01*
X522458Y1102252D01*
X522060Y1103213D01*
X521426Y1104039D01*
X520600Y1104673D01*
X519639Y1105071D01*
X518607Y1105207D01*
D02*
G37*
G36*
X761205D02*
X760173Y1105071D01*
X759212Y1104673D01*
X758386Y1104039D01*
X757753Y1103213D01*
X757354Y1102252D01*
X757218Y1101220D01*
X757354Y1100188D01*
X757753Y1099227D01*
X758386Y1098401D01*
X759212Y1097767D01*
X760173Y1097369D01*
X761205Y1097233D01*
X762237Y1097369D01*
X763199Y1097767D01*
X764024Y1098401D01*
X764658Y1099227D01*
X765056Y1100188D01*
X765192Y1101220D01*
X765056Y1102252D01*
X764658Y1103213D01*
X764024Y1104039D01*
X763199Y1104673D01*
X762237Y1105071D01*
X761205Y1105207D01*
D02*
G37*
G36*
X751205D02*
X750173Y1105071D01*
X749212Y1104673D01*
X748386Y1104039D01*
X747753Y1103213D01*
X747354Y1102252D01*
X747218Y1101220D01*
X747354Y1100188D01*
X747753Y1099227D01*
X748386Y1098401D01*
X749212Y1097767D01*
X750173Y1097369D01*
X751205Y1097233D01*
X752237Y1097369D01*
X753199Y1097767D01*
X754024Y1098401D01*
X754658Y1099227D01*
X755056Y1100188D01*
X755192Y1101220D01*
X755056Y1102252D01*
X754658Y1103213D01*
X754024Y1104039D01*
X753199Y1104673D01*
X752237Y1105071D01*
X751205Y1105207D01*
D02*
G37*
G36*
X771205D02*
X770173Y1105071D01*
X769212Y1104673D01*
X768386Y1104039D01*
X767753Y1103213D01*
X767354Y1102252D01*
X767218Y1101220D01*
X767354Y1100188D01*
X767753Y1099227D01*
X768386Y1098401D01*
X769212Y1097767D01*
X770173Y1097369D01*
X771205Y1097233D01*
X772237Y1097369D01*
X773199Y1097767D01*
X774024Y1098401D01*
X774658Y1099227D01*
X775056Y1100188D01*
X775192Y1101220D01*
X775056Y1102252D01*
X774658Y1103213D01*
X774024Y1104039D01*
X773199Y1104673D01*
X772237Y1105071D01*
X771205Y1105207D01*
D02*
G37*
G36*
X903804D02*
X902772Y1105071D01*
X901810Y1104673D01*
X900985Y1104039D01*
X900351Y1103213D01*
X899953Y1102252D01*
X899817Y1101220D01*
X899953Y1100188D01*
X900351Y1099227D01*
X900985Y1098401D01*
X901810Y1097767D01*
X902772Y1097369D01*
X903804Y1097233D01*
X904836Y1097369D01*
X905797Y1097767D01*
X906623Y1098401D01*
X907256Y1099227D01*
X907655Y1100188D01*
X907791Y1101220D01*
X907655Y1102252D01*
X907256Y1103213D01*
X906623Y1104039D01*
X905797Y1104673D01*
X904836Y1105071D01*
X903804Y1105207D01*
D02*
G37*
G36*
X781205D02*
X780173Y1105071D01*
X779212Y1104673D01*
X778386Y1104039D01*
X777753Y1103213D01*
X777354Y1102252D01*
X777218Y1101220D01*
X777354Y1100188D01*
X777753Y1099227D01*
X778386Y1098401D01*
X779212Y1097767D01*
X780173Y1097369D01*
X781205Y1097233D01*
X782237Y1097369D01*
X783199Y1097767D01*
X784024Y1098401D01*
X784658Y1099227D01*
X785056Y1100188D01*
X785192Y1101220D01*
X785056Y1102252D01*
X784658Y1103213D01*
X784024Y1104039D01*
X783199Y1104673D01*
X782237Y1105071D01*
X781205Y1105207D01*
D02*
G37*
G36*
X711205D02*
X710173Y1105071D01*
X709212Y1104673D01*
X708386Y1104039D01*
X707753Y1103213D01*
X707354Y1102252D01*
X707218Y1101220D01*
X707354Y1100188D01*
X707753Y1099227D01*
X708386Y1098401D01*
X709212Y1097767D01*
X710173Y1097369D01*
X711205Y1097233D01*
X712237Y1097369D01*
X713199Y1097767D01*
X714024Y1098401D01*
X714658Y1099227D01*
X715056Y1100188D01*
X715192Y1101220D01*
X715056Y1102252D01*
X714658Y1103213D01*
X714024Y1104039D01*
X713199Y1104673D01*
X712237Y1105071D01*
X711205Y1105207D01*
D02*
G37*
G36*
X701205D02*
X700173Y1105071D01*
X699212Y1104673D01*
X698386Y1104039D01*
X697753Y1103213D01*
X697354Y1102252D01*
X697218Y1101220D01*
X697354Y1100188D01*
X697753Y1099227D01*
X698386Y1098401D01*
X699212Y1097767D01*
X700173Y1097369D01*
X701205Y1097233D01*
X702237Y1097369D01*
X703199Y1097767D01*
X704024Y1098401D01*
X704658Y1099227D01*
X705056Y1100188D01*
X705192Y1101220D01*
X705056Y1102252D01*
X704658Y1103213D01*
X704024Y1104039D01*
X703199Y1104673D01*
X702237Y1105071D01*
X701205Y1105207D01*
D02*
G37*
G36*
X721205D02*
X720173Y1105071D01*
X719212Y1104673D01*
X718386Y1104039D01*
X717753Y1103213D01*
X717354Y1102252D01*
X717218Y1101220D01*
X717354Y1100188D01*
X717753Y1099227D01*
X718386Y1098401D01*
X719212Y1097767D01*
X720173Y1097369D01*
X721205Y1097233D01*
X722237Y1097369D01*
X723199Y1097767D01*
X724024Y1098401D01*
X724658Y1099227D01*
X725056Y1100188D01*
X725192Y1101220D01*
X725056Y1102252D01*
X724658Y1103213D01*
X724024Y1104039D01*
X723199Y1104673D01*
X722237Y1105071D01*
X721205Y1105207D01*
D02*
G37*
G36*
X741205D02*
X740173Y1105071D01*
X739212Y1104673D01*
X738386Y1104039D01*
X737753Y1103213D01*
X737354Y1102252D01*
X737218Y1101220D01*
X737354Y1100188D01*
X737753Y1099227D01*
X738386Y1098401D01*
X739212Y1097767D01*
X740173Y1097369D01*
X741205Y1097233D01*
X742237Y1097369D01*
X743199Y1097767D01*
X744024Y1098401D01*
X744658Y1099227D01*
X745056Y1100188D01*
X745192Y1101220D01*
X745056Y1102252D01*
X744658Y1103213D01*
X744024Y1104039D01*
X743199Y1104673D01*
X742237Y1105071D01*
X741205Y1105207D01*
D02*
G37*
G36*
X731205D02*
X730173Y1105071D01*
X729212Y1104673D01*
X728386Y1104039D01*
X727753Y1103213D01*
X727354Y1102252D01*
X727218Y1101220D01*
X727354Y1100188D01*
X727753Y1099227D01*
X728386Y1098401D01*
X729212Y1097767D01*
X730173Y1097369D01*
X731205Y1097233D01*
X732237Y1097369D01*
X733199Y1097767D01*
X734024Y1098401D01*
X734658Y1099227D01*
X735056Y1100188D01*
X735192Y1101220D01*
X735056Y1102252D01*
X734658Y1103213D01*
X734024Y1104039D01*
X733199Y1104673D01*
X732237Y1105071D01*
X731205Y1105207D01*
D02*
G37*
G36*
X123410D02*
X122378Y1105071D01*
X121417Y1104673D01*
X120591Y1104039D01*
X119957Y1103213D01*
X119559Y1102252D01*
X119423Y1101220D01*
X119559Y1100188D01*
X119957Y1099227D01*
X120591Y1098401D01*
X121417Y1097767D01*
X122378Y1097369D01*
X123410Y1097233D01*
X124442Y1097369D01*
X125403Y1097767D01*
X126229Y1098401D01*
X126863Y1099227D01*
X127261Y1100188D01*
X127397Y1101220D01*
X127261Y1102252D01*
X126863Y1103213D01*
X126229Y1104039D01*
X125403Y1104673D01*
X124442Y1105071D01*
X123410Y1105207D01*
D02*
G37*
G36*
X113410D02*
X112378Y1105071D01*
X111417Y1104673D01*
X110591Y1104039D01*
X109957Y1103213D01*
X109559Y1102252D01*
X109423Y1101220D01*
X109559Y1100188D01*
X109957Y1099227D01*
X110591Y1098401D01*
X111417Y1097767D01*
X112378Y1097369D01*
X113410Y1097233D01*
X114442Y1097369D01*
X115403Y1097767D01*
X116229Y1098401D01*
X116863Y1099227D01*
X117261Y1100188D01*
X117397Y1101220D01*
X117261Y1102252D01*
X116863Y1103213D01*
X116229Y1104039D01*
X115403Y1104673D01*
X114442Y1105071D01*
X113410Y1105207D01*
D02*
G37*
G36*
X133410D02*
X132378Y1105071D01*
X131417Y1104673D01*
X130591Y1104039D01*
X129957Y1103213D01*
X129559Y1102252D01*
X129423Y1101220D01*
X129559Y1100188D01*
X129957Y1099227D01*
X130591Y1098401D01*
X131417Y1097767D01*
X132378Y1097369D01*
X133410Y1097233D01*
X134442Y1097369D01*
X135403Y1097767D01*
X136229Y1098401D01*
X136863Y1099227D01*
X137261Y1100188D01*
X137397Y1101220D01*
X137261Y1102252D01*
X136863Y1103213D01*
X136229Y1104039D01*
X135403Y1104673D01*
X134442Y1105071D01*
X133410Y1105207D01*
D02*
G37*
G36*
X266008D02*
X264977Y1105071D01*
X264015Y1104673D01*
X263189Y1104039D01*
X262556Y1103213D01*
X262157Y1102252D01*
X262022Y1101220D01*
X262157Y1100188D01*
X262556Y1099227D01*
X263189Y1098401D01*
X264015Y1097767D01*
X264977Y1097369D01*
X266008Y1097233D01*
X267040Y1097369D01*
X268002Y1097767D01*
X268828Y1098401D01*
X269461Y1099227D01*
X269859Y1100188D01*
X269995Y1101220D01*
X269859Y1102252D01*
X269461Y1103213D01*
X268828Y1104039D01*
X268002Y1104673D01*
X267040Y1105071D01*
X266008Y1105207D01*
D02*
G37*
G36*
X143410D02*
X142378Y1105071D01*
X141417Y1104673D01*
X140591Y1104039D01*
X139957Y1103213D01*
X139559Y1102252D01*
X139423Y1101220D01*
X139559Y1100188D01*
X139957Y1099227D01*
X140591Y1098401D01*
X141417Y1097767D01*
X142378Y1097369D01*
X143410Y1097233D01*
X144442Y1097369D01*
X145403Y1097767D01*
X146229Y1098401D01*
X146863Y1099227D01*
X147261Y1100188D01*
X147397Y1101220D01*
X147261Y1102252D01*
X146863Y1103213D01*
X146229Y1104039D01*
X145403Y1104673D01*
X144442Y1105071D01*
X143410Y1105207D01*
D02*
G37*
G36*
X73410D02*
X72378Y1105071D01*
X71417Y1104673D01*
X70591Y1104039D01*
X69957Y1103213D01*
X69559Y1102252D01*
X69423Y1101220D01*
X69559Y1100188D01*
X69957Y1099227D01*
X70591Y1098401D01*
X71417Y1097767D01*
X72378Y1097369D01*
X73410Y1097233D01*
X74442Y1097369D01*
X75403Y1097767D01*
X76229Y1098401D01*
X76863Y1099227D01*
X77261Y1100188D01*
X77397Y1101220D01*
X77261Y1102252D01*
X76863Y1103213D01*
X76229Y1104039D01*
X75403Y1104673D01*
X74442Y1105071D01*
X73410Y1105207D01*
D02*
G37*
G36*
X63410D02*
X62378Y1105071D01*
X61417Y1104673D01*
X60591Y1104039D01*
X59957Y1103213D01*
X59559Y1102252D01*
X59423Y1101220D01*
X59559Y1100188D01*
X59957Y1099227D01*
X60591Y1098401D01*
X61417Y1097767D01*
X62378Y1097369D01*
X63410Y1097233D01*
X64442Y1097369D01*
X65403Y1097767D01*
X66229Y1098401D01*
X66863Y1099227D01*
X67261Y1100188D01*
X67397Y1101220D01*
X67261Y1102252D01*
X66863Y1103213D01*
X66229Y1104039D01*
X65403Y1104673D01*
X64442Y1105071D01*
X63410Y1105207D01*
D02*
G37*
G36*
X83410D02*
X82378Y1105071D01*
X81417Y1104673D01*
X80591Y1104039D01*
X79957Y1103213D01*
X79559Y1102252D01*
X79423Y1101220D01*
X79559Y1100188D01*
X79957Y1099227D01*
X80591Y1098401D01*
X81417Y1097767D01*
X82378Y1097369D01*
X83410Y1097233D01*
X84442Y1097369D01*
X85403Y1097767D01*
X86229Y1098401D01*
X86863Y1099227D01*
X87261Y1100188D01*
X87397Y1101220D01*
X87261Y1102252D01*
X86863Y1103213D01*
X86229Y1104039D01*
X85403Y1104673D01*
X84442Y1105071D01*
X83410Y1105207D01*
D02*
G37*
G36*
X103410D02*
X102378Y1105071D01*
X101417Y1104673D01*
X100591Y1104039D01*
X99957Y1103213D01*
X99559Y1102252D01*
X99423Y1101220D01*
X99559Y1100188D01*
X99957Y1099227D01*
X100591Y1098401D01*
X101417Y1097767D01*
X102378Y1097369D01*
X103410Y1097233D01*
X104442Y1097369D01*
X105403Y1097767D01*
X106229Y1098401D01*
X106863Y1099227D01*
X107261Y1100188D01*
X107397Y1101220D01*
X107261Y1102252D01*
X106863Y1103213D01*
X106229Y1104039D01*
X105403Y1104673D01*
X104442Y1105071D01*
X103410Y1105207D01*
D02*
G37*
G36*
X93410D02*
X92378Y1105071D01*
X91417Y1104673D01*
X90591Y1104039D01*
X89957Y1103213D01*
X89559Y1102252D01*
X89423Y1101220D01*
X89559Y1100188D01*
X89957Y1099227D01*
X90591Y1098401D01*
X91417Y1097767D01*
X92378Y1097369D01*
X93410Y1097233D01*
X94442Y1097369D01*
X95403Y1097767D01*
X96229Y1098401D01*
X96863Y1099227D01*
X97261Y1100188D01*
X97397Y1101220D01*
X97261Y1102252D01*
X96863Y1103213D01*
X96229Y1104039D01*
X95403Y1104673D01*
X94442Y1105071D01*
X93410Y1105207D01*
D02*
G37*
G36*
X336008D02*
X334977Y1105071D01*
X334015Y1104673D01*
X333189Y1104039D01*
X332556Y1103213D01*
X332157Y1102252D01*
X332022Y1101220D01*
X332157Y1100188D01*
X332556Y1099227D01*
X333189Y1098401D01*
X334015Y1097767D01*
X334977Y1097369D01*
X336008Y1097233D01*
X337040Y1097369D01*
X338002Y1097767D01*
X338828Y1098401D01*
X339461Y1099227D01*
X339859Y1100188D01*
X339995Y1101220D01*
X339859Y1102252D01*
X339461Y1103213D01*
X338828Y1104039D01*
X338002Y1104673D01*
X337040Y1105071D01*
X336008Y1105207D01*
D02*
G37*
G36*
X326008D02*
X324976Y1105071D01*
X324015Y1104673D01*
X323189Y1104039D01*
X322556Y1103213D01*
X322157Y1102252D01*
X322022Y1101220D01*
X322157Y1100188D01*
X322556Y1099227D01*
X323189Y1098401D01*
X324015Y1097767D01*
X324976Y1097369D01*
X326008Y1097233D01*
X327040Y1097369D01*
X328002Y1097767D01*
X328828Y1098401D01*
X329461Y1099227D01*
X329859Y1100188D01*
X329995Y1101220D01*
X329859Y1102252D01*
X329461Y1103213D01*
X328828Y1104039D01*
X328002Y1104673D01*
X327040Y1105071D01*
X326008Y1105207D01*
D02*
G37*
G36*
X346008D02*
X344976Y1105071D01*
X344015Y1104673D01*
X343189Y1104039D01*
X342556Y1103213D01*
X342157Y1102252D01*
X342022Y1101220D01*
X342157Y1100188D01*
X342556Y1099227D01*
X343189Y1098401D01*
X344015Y1097767D01*
X344976Y1097369D01*
X346008Y1097233D01*
X347040Y1097369D01*
X348002Y1097767D01*
X348828Y1098401D01*
X349461Y1099227D01*
X349859Y1100188D01*
X349995Y1101220D01*
X349859Y1102252D01*
X349461Y1103213D01*
X348828Y1104039D01*
X348002Y1104673D01*
X347040Y1105071D01*
X346008Y1105207D01*
D02*
G37*
G36*
X478607D02*
X477575Y1105071D01*
X476613Y1104673D01*
X475788Y1104039D01*
X475154Y1103213D01*
X474756Y1102252D01*
X474620Y1101220D01*
X474756Y1100188D01*
X475154Y1099227D01*
X475788Y1098401D01*
X476613Y1097767D01*
X477575Y1097369D01*
X478607Y1097233D01*
X479639Y1097369D01*
X480600Y1097767D01*
X481426Y1098401D01*
X482060Y1099227D01*
X482458Y1100188D01*
X482594Y1101220D01*
X482458Y1102252D01*
X482060Y1103213D01*
X481426Y1104039D01*
X480600Y1104673D01*
X479639Y1105071D01*
X478607Y1105207D01*
D02*
G37*
G36*
X356008D02*
X354977Y1105071D01*
X354015Y1104673D01*
X353189Y1104039D01*
X352556Y1103213D01*
X352157Y1102252D01*
X352022Y1101220D01*
X352157Y1100188D01*
X352556Y1099227D01*
X353189Y1098401D01*
X354015Y1097767D01*
X354977Y1097369D01*
X356008Y1097233D01*
X357040Y1097369D01*
X358002Y1097767D01*
X358828Y1098401D01*
X359461Y1099227D01*
X359859Y1100188D01*
X359995Y1101220D01*
X359859Y1102252D01*
X359461Y1103213D01*
X358828Y1104039D01*
X358002Y1104673D01*
X357040Y1105071D01*
X356008Y1105207D01*
D02*
G37*
G36*
X286008D02*
X284977Y1105071D01*
X284015Y1104673D01*
X283189Y1104039D01*
X282556Y1103213D01*
X282157Y1102252D01*
X282022Y1101220D01*
X282157Y1100188D01*
X282556Y1099227D01*
X283189Y1098401D01*
X284015Y1097767D01*
X284977Y1097369D01*
X286008Y1097233D01*
X287040Y1097369D01*
X288002Y1097767D01*
X288828Y1098401D01*
X289461Y1099227D01*
X289859Y1100188D01*
X289995Y1101220D01*
X289859Y1102252D01*
X289461Y1103213D01*
X288828Y1104039D01*
X288002Y1104673D01*
X287040Y1105071D01*
X286008Y1105207D01*
D02*
G37*
G36*
X276008D02*
X274976Y1105071D01*
X274015Y1104673D01*
X273189Y1104039D01*
X272556Y1103213D01*
X272157Y1102252D01*
X272022Y1101220D01*
X272157Y1100188D01*
X272556Y1099227D01*
X273189Y1098401D01*
X274015Y1097767D01*
X274976Y1097369D01*
X276008Y1097233D01*
X277040Y1097369D01*
X278002Y1097767D01*
X278828Y1098401D01*
X279461Y1099227D01*
X279859Y1100188D01*
X279995Y1101220D01*
X279859Y1102252D01*
X279461Y1103213D01*
X278828Y1104039D01*
X278002Y1104673D01*
X277040Y1105071D01*
X276008Y1105207D01*
D02*
G37*
G36*
X296008D02*
X294976Y1105071D01*
X294015Y1104673D01*
X293189Y1104039D01*
X292556Y1103213D01*
X292157Y1102252D01*
X292022Y1101220D01*
X292157Y1100188D01*
X292556Y1099227D01*
X293189Y1098401D01*
X294015Y1097767D01*
X294976Y1097369D01*
X296008Y1097233D01*
X297040Y1097369D01*
X298002Y1097767D01*
X298828Y1098401D01*
X299461Y1099227D01*
X299859Y1100188D01*
X299995Y1101220D01*
X299859Y1102252D01*
X299461Y1103213D01*
X298828Y1104039D01*
X298002Y1104673D01*
X297040Y1105071D01*
X296008Y1105207D01*
D02*
G37*
G36*
X316008D02*
X314977Y1105071D01*
X314015Y1104673D01*
X313189Y1104039D01*
X312556Y1103213D01*
X312157Y1102252D01*
X312022Y1101220D01*
X312157Y1100188D01*
X312556Y1099227D01*
X313189Y1098401D01*
X314015Y1097767D01*
X314977Y1097369D01*
X316008Y1097233D01*
X317040Y1097369D01*
X318002Y1097767D01*
X318828Y1098401D01*
X319461Y1099227D01*
X319859Y1100188D01*
X319995Y1101220D01*
X319859Y1102252D01*
X319461Y1103213D01*
X318828Y1104039D01*
X318002Y1104673D01*
X317040Y1105071D01*
X316008Y1105207D01*
D02*
G37*
G36*
X306008D02*
X304977Y1105071D01*
X304015Y1104673D01*
X303189Y1104039D01*
X302556Y1103213D01*
X302157Y1102252D01*
X302022Y1101220D01*
X302157Y1100188D01*
X302556Y1099227D01*
X303189Y1098401D01*
X304015Y1097767D01*
X304977Y1097369D01*
X306008Y1097233D01*
X307040Y1097369D01*
X308002Y1097767D01*
X308828Y1098401D01*
X309461Y1099227D01*
X309859Y1100188D01*
X309995Y1101220D01*
X309859Y1102252D01*
X309461Y1103213D01*
X308828Y1104039D01*
X308002Y1104673D01*
X307040Y1105071D01*
X306008Y1105207D01*
D02*
G37*
G36*
X913804D02*
X912772Y1105071D01*
X911810Y1104673D01*
X910985Y1104039D01*
X910351Y1103213D01*
X909953Y1102252D01*
X909817Y1101220D01*
X909953Y1100188D01*
X910351Y1099227D01*
X910985Y1098401D01*
X911810Y1097767D01*
X912772Y1097369D01*
X913804Y1097233D01*
X914836Y1097369D01*
X915797Y1097767D01*
X916623Y1098401D01*
X917256Y1099227D01*
X917655Y1100188D01*
X917791Y1101220D01*
X917655Y1102252D01*
X917256Y1103213D01*
X916623Y1104039D01*
X915797Y1104673D01*
X914836Y1105071D01*
X913804Y1105207D01*
D02*
G37*
G36*
X1409000D02*
X1407969Y1105071D01*
X1407007Y1104673D01*
X1406181Y1104039D01*
X1405548Y1103213D01*
X1405149Y1102252D01*
X1405014Y1101220D01*
X1405149Y1100188D01*
X1405548Y1099227D01*
X1406181Y1098401D01*
X1407007Y1097767D01*
X1407969Y1097369D01*
X1409000Y1097233D01*
X1410032Y1097369D01*
X1410994Y1097767D01*
X1411820Y1098401D01*
X1412453Y1099227D01*
X1412852Y1100188D01*
X1412987Y1101220D01*
X1412852Y1102252D01*
X1412453Y1103213D01*
X1411820Y1104039D01*
X1410994Y1104673D01*
X1410032Y1105071D01*
X1409000Y1105207D01*
D02*
G37*
G36*
X1399000D02*
X1397969Y1105071D01*
X1397007Y1104673D01*
X1396181Y1104039D01*
X1395548Y1103213D01*
X1395150Y1102252D01*
X1395014Y1101220D01*
X1395150Y1100188D01*
X1395548Y1099227D01*
X1396181Y1098401D01*
X1397007Y1097767D01*
X1397969Y1097369D01*
X1399000Y1097233D01*
X1400032Y1097369D01*
X1400994Y1097767D01*
X1401820Y1098401D01*
X1402453Y1099227D01*
X1402852Y1100188D01*
X1402987Y1101220D01*
X1402852Y1102252D01*
X1402453Y1103213D01*
X1401820Y1104039D01*
X1400994Y1104673D01*
X1400032Y1105071D01*
X1399000Y1105207D01*
D02*
G37*
G36*
X1419001D02*
X1417969Y1105071D01*
X1417007Y1104673D01*
X1416181Y1104039D01*
X1415548Y1103213D01*
X1415149Y1102252D01*
X1415014Y1101220D01*
X1415149Y1100188D01*
X1415548Y1099227D01*
X1416181Y1098401D01*
X1417007Y1097767D01*
X1417969Y1097369D01*
X1419001Y1097233D01*
X1420032Y1097369D01*
X1420994Y1097767D01*
X1421820Y1098401D01*
X1422453Y1099227D01*
X1422852Y1100188D01*
X1422987Y1101220D01*
X1422852Y1102252D01*
X1422453Y1103213D01*
X1421820Y1104039D01*
X1420994Y1104673D01*
X1420032Y1105071D01*
X1419001Y1105207D01*
D02*
G37*
G36*
X1551599D02*
X1550567Y1105071D01*
X1549606Y1104673D01*
X1548780Y1104039D01*
X1548146Y1103213D01*
X1547748Y1102252D01*
X1547612Y1101220D01*
X1547748Y1100188D01*
X1548146Y1099227D01*
X1548780Y1098401D01*
X1549606Y1097767D01*
X1550567Y1097369D01*
X1551599Y1097233D01*
X1552631Y1097369D01*
X1553592Y1097767D01*
X1554418Y1098401D01*
X1555052Y1099227D01*
X1555450Y1100188D01*
X1555586Y1101220D01*
X1555450Y1102252D01*
X1555052Y1103213D01*
X1554418Y1104039D01*
X1553592Y1104673D01*
X1552631Y1105071D01*
X1551599Y1105207D01*
D02*
G37*
G36*
X1541599D02*
X1540567Y1105071D01*
X1539606Y1104673D01*
X1538780Y1104039D01*
X1538146Y1103213D01*
X1537748Y1102252D01*
X1537612Y1101220D01*
X1537748Y1100188D01*
X1538146Y1099227D01*
X1538780Y1098401D01*
X1539606Y1097767D01*
X1540567Y1097369D01*
X1541599Y1097233D01*
X1542631Y1097369D01*
X1543592Y1097767D01*
X1544418Y1098401D01*
X1545052Y1099227D01*
X1545450Y1100188D01*
X1545586Y1101220D01*
X1545450Y1102252D01*
X1545052Y1103213D01*
X1544418Y1104039D01*
X1543592Y1104673D01*
X1542631Y1105071D01*
X1541599Y1105207D01*
D02*
G37*
G36*
X1359000D02*
X1357969Y1105071D01*
X1357007Y1104673D01*
X1356181Y1104039D01*
X1355548Y1103213D01*
X1355149Y1102252D01*
X1355014Y1101220D01*
X1355149Y1100188D01*
X1355548Y1099227D01*
X1356181Y1098401D01*
X1357007Y1097767D01*
X1357969Y1097369D01*
X1359000Y1097233D01*
X1360032Y1097369D01*
X1360994Y1097767D01*
X1361820Y1098401D01*
X1362453Y1099227D01*
X1362852Y1100188D01*
X1362987Y1101220D01*
X1362852Y1102252D01*
X1362453Y1103213D01*
X1361820Y1104039D01*
X1360994Y1104673D01*
X1360032Y1105071D01*
X1359000Y1105207D01*
D02*
G37*
G36*
X1349000D02*
X1347969Y1105071D01*
X1347007Y1104673D01*
X1346181Y1104039D01*
X1345548Y1103213D01*
X1345150Y1102252D01*
X1345014Y1101220D01*
X1345150Y1100188D01*
X1345548Y1099227D01*
X1346181Y1098401D01*
X1347007Y1097767D01*
X1347969Y1097369D01*
X1349000Y1097233D01*
X1350032Y1097369D01*
X1350994Y1097767D01*
X1351820Y1098401D01*
X1352453Y1099227D01*
X1352852Y1100188D01*
X1352987Y1101220D01*
X1352852Y1102252D01*
X1352453Y1103213D01*
X1351820Y1104039D01*
X1350994Y1104673D01*
X1350032Y1105071D01*
X1349000Y1105207D01*
D02*
G37*
G36*
X1369001D02*
X1367969Y1105071D01*
X1367007Y1104673D01*
X1366181Y1104039D01*
X1365548Y1103213D01*
X1365149Y1102252D01*
X1365014Y1101220D01*
X1365149Y1100188D01*
X1365548Y1099227D01*
X1366181Y1098401D01*
X1367007Y1097767D01*
X1367969Y1097369D01*
X1369001Y1097233D01*
X1370032Y1097369D01*
X1370994Y1097767D01*
X1371820Y1098401D01*
X1372453Y1099227D01*
X1372852Y1100188D01*
X1372987Y1101220D01*
X1372852Y1102252D01*
X1372453Y1103213D01*
X1371820Y1104039D01*
X1370994Y1104673D01*
X1370032Y1105071D01*
X1369001Y1105207D01*
D02*
G37*
G36*
X1389001D02*
X1387969Y1105071D01*
X1387007Y1104673D01*
X1386181Y1104039D01*
X1385548Y1103213D01*
X1385149Y1102252D01*
X1385014Y1101220D01*
X1385149Y1100188D01*
X1385548Y1099227D01*
X1386181Y1098401D01*
X1387007Y1097767D01*
X1387969Y1097369D01*
X1389001Y1097233D01*
X1390032Y1097369D01*
X1390994Y1097767D01*
X1391820Y1098401D01*
X1392453Y1099227D01*
X1392852Y1100188D01*
X1392987Y1101220D01*
X1392852Y1102252D01*
X1392453Y1103213D01*
X1391820Y1104039D01*
X1390994Y1104673D01*
X1390032Y1105071D01*
X1389001Y1105207D01*
D02*
G37*
G36*
X1379000D02*
X1377969Y1105071D01*
X1377007Y1104673D01*
X1376181Y1104039D01*
X1375548Y1103213D01*
X1375150Y1102252D01*
X1375014Y1101220D01*
X1375150Y1100188D01*
X1375548Y1099227D01*
X1376181Y1098401D01*
X1377007Y1097767D01*
X1377969Y1097369D01*
X1379000Y1097233D01*
X1380032Y1097369D01*
X1380994Y1097767D01*
X1381820Y1098401D01*
X1382453Y1099227D01*
X1382852Y1100188D01*
X1382987Y1101220D01*
X1382852Y1102252D01*
X1382453Y1103213D01*
X1381820Y1104039D01*
X1380994Y1104673D01*
X1380032Y1105071D01*
X1379000Y1105207D01*
D02*
G37*
G36*
X1621599D02*
X1620567Y1105071D01*
X1619606Y1104673D01*
X1618780Y1104039D01*
X1618146Y1103213D01*
X1617748Y1102252D01*
X1617612Y1101220D01*
X1617748Y1100188D01*
X1618146Y1099227D01*
X1618780Y1098401D01*
X1619606Y1097767D01*
X1620567Y1097369D01*
X1621599Y1097233D01*
X1622631Y1097369D01*
X1623592Y1097767D01*
X1624418Y1098401D01*
X1625052Y1099227D01*
X1625450Y1100188D01*
X1625586Y1101220D01*
X1625450Y1102252D01*
X1625052Y1103213D01*
X1624418Y1104039D01*
X1623592Y1104673D01*
X1622631Y1105071D01*
X1621599Y1105207D01*
D02*
G37*
G36*
X1611599D02*
X1610567Y1105071D01*
X1609606Y1104673D01*
X1608780Y1104039D01*
X1608146Y1103213D01*
X1607748Y1102252D01*
X1607612Y1101220D01*
X1607748Y1100188D01*
X1608146Y1099227D01*
X1608780Y1098401D01*
X1609606Y1097767D01*
X1610567Y1097369D01*
X1611599Y1097233D01*
X1612631Y1097369D01*
X1613592Y1097767D01*
X1614418Y1098401D01*
X1615052Y1099227D01*
X1615450Y1100188D01*
X1615586Y1101220D01*
X1615450Y1102252D01*
X1615052Y1103213D01*
X1614418Y1104039D01*
X1613592Y1104673D01*
X1612631Y1105071D01*
X1611599Y1105207D01*
D02*
G37*
G36*
X1631599D02*
X1630567Y1105071D01*
X1629606Y1104673D01*
X1628780Y1104039D01*
X1628146Y1103213D01*
X1627748Y1102252D01*
X1627612Y1101220D01*
X1627748Y1100188D01*
X1628146Y1099227D01*
X1628780Y1098401D01*
X1629606Y1097767D01*
X1630567Y1097369D01*
X1631599Y1097233D01*
X1632631Y1097369D01*
X1633592Y1097767D01*
X1634418Y1098401D01*
X1635052Y1099227D01*
X1635450Y1100188D01*
X1635586Y1101220D01*
X1635450Y1102252D01*
X1635052Y1103213D01*
X1634418Y1104039D01*
X1633592Y1104673D01*
X1632631Y1105071D01*
X1631599Y1105207D01*
D02*
G37*
G36*
X63410Y1115207D02*
X62378Y1115071D01*
X61417Y1114673D01*
X60591Y1114039D01*
X59957Y1113213D01*
X59559Y1112252D01*
X59423Y1111220D01*
X59559Y1110188D01*
X59957Y1109227D01*
X60591Y1108401D01*
X61417Y1107767D01*
X62378Y1107369D01*
X63410Y1107233D01*
X64442Y1107369D01*
X65403Y1107767D01*
X66229Y1108401D01*
X66863Y1109227D01*
X67261Y1110188D01*
X67397Y1111220D01*
X67261Y1112252D01*
X66863Y1113213D01*
X66229Y1114039D01*
X65403Y1114673D01*
X64442Y1115071D01*
X63410Y1115207D01*
D02*
G37*
G36*
X53410D02*
X52378Y1115071D01*
X51417Y1114673D01*
X50591Y1114039D01*
X49957Y1113213D01*
X49559Y1112252D01*
X49423Y1111220D01*
X49559Y1110188D01*
X49957Y1109227D01*
X50591Y1108401D01*
X51417Y1107767D01*
X52378Y1107369D01*
X53410Y1107233D01*
X54442Y1107369D01*
X55403Y1107767D01*
X56229Y1108401D01*
X56863Y1109227D01*
X57261Y1110188D01*
X57397Y1111220D01*
X57261Y1112252D01*
X56863Y1113213D01*
X56229Y1114039D01*
X55403Y1114673D01*
X54442Y1115071D01*
X53410Y1115207D01*
D02*
G37*
G36*
X1571599Y1105207D02*
X1570567Y1105071D01*
X1569606Y1104673D01*
X1568780Y1104039D01*
X1568146Y1103213D01*
X1567748Y1102252D01*
X1567612Y1101220D01*
X1567748Y1100188D01*
X1568146Y1099227D01*
X1568780Y1098401D01*
X1569606Y1097767D01*
X1570567Y1097369D01*
X1571599Y1097233D01*
X1572631Y1097369D01*
X1573592Y1097767D01*
X1574418Y1098401D01*
X1575052Y1099227D01*
X1575450Y1100188D01*
X1575586Y1101220D01*
X1575450Y1102252D01*
X1575052Y1103213D01*
X1574418Y1104039D01*
X1573592Y1104673D01*
X1572631Y1105071D01*
X1571599Y1105207D01*
D02*
G37*
G36*
X1561599D02*
X1560567Y1105071D01*
X1559606Y1104673D01*
X1558780Y1104039D01*
X1558146Y1103213D01*
X1557748Y1102252D01*
X1557612Y1101220D01*
X1557748Y1100188D01*
X1558146Y1099227D01*
X1558780Y1098401D01*
X1559606Y1097767D01*
X1560567Y1097369D01*
X1561599Y1097233D01*
X1562631Y1097369D01*
X1563592Y1097767D01*
X1564418Y1098401D01*
X1565052Y1099227D01*
X1565450Y1100188D01*
X1565586Y1101220D01*
X1565450Y1102252D01*
X1565052Y1103213D01*
X1564418Y1104039D01*
X1563592Y1104673D01*
X1562631Y1105071D01*
X1561599Y1105207D01*
D02*
G37*
G36*
X1581599D02*
X1580567Y1105071D01*
X1579606Y1104673D01*
X1578780Y1104039D01*
X1578146Y1103213D01*
X1577748Y1102252D01*
X1577612Y1101220D01*
X1577748Y1100188D01*
X1578146Y1099227D01*
X1578780Y1098401D01*
X1579606Y1097767D01*
X1580567Y1097369D01*
X1581599Y1097233D01*
X1582631Y1097369D01*
X1583592Y1097767D01*
X1584418Y1098401D01*
X1585052Y1099227D01*
X1585450Y1100188D01*
X1585586Y1101220D01*
X1585450Y1102252D01*
X1585052Y1103213D01*
X1584418Y1104039D01*
X1583592Y1104673D01*
X1582631Y1105071D01*
X1581599Y1105207D01*
D02*
G37*
G36*
X1601599D02*
X1600567Y1105071D01*
X1599606Y1104673D01*
X1598780Y1104039D01*
X1598146Y1103213D01*
X1597748Y1102252D01*
X1597612Y1101220D01*
X1597748Y1100188D01*
X1598146Y1099227D01*
X1598780Y1098401D01*
X1599606Y1097767D01*
X1600567Y1097369D01*
X1601599Y1097233D01*
X1602631Y1097369D01*
X1603592Y1097767D01*
X1604418Y1098401D01*
X1605052Y1099227D01*
X1605450Y1100188D01*
X1605586Y1101220D01*
X1605450Y1102252D01*
X1605052Y1103213D01*
X1604418Y1104039D01*
X1603592Y1104673D01*
X1602631Y1105071D01*
X1601599Y1105207D01*
D02*
G37*
G36*
X1591599D02*
X1590567Y1105071D01*
X1589606Y1104673D01*
X1588780Y1104039D01*
X1588146Y1103213D01*
X1587748Y1102252D01*
X1587612Y1101220D01*
X1587748Y1100188D01*
X1588146Y1099227D01*
X1588780Y1098401D01*
X1589606Y1097767D01*
X1590567Y1097369D01*
X1591599Y1097233D01*
X1592631Y1097369D01*
X1593592Y1097767D01*
X1594418Y1098401D01*
X1595052Y1099227D01*
X1595450Y1100188D01*
X1595586Y1101220D01*
X1595450Y1102252D01*
X1595052Y1103213D01*
X1594418Y1104039D01*
X1593592Y1104673D01*
X1592631Y1105071D01*
X1591599Y1105207D01*
D02*
G37*
G36*
X983804D02*
X982772Y1105071D01*
X981810Y1104673D01*
X980985Y1104039D01*
X980351Y1103213D01*
X979953Y1102252D01*
X979817Y1101220D01*
X979953Y1100188D01*
X980351Y1099227D01*
X980985Y1098401D01*
X981810Y1097767D01*
X982772Y1097369D01*
X983804Y1097233D01*
X984836Y1097369D01*
X985797Y1097767D01*
X986623Y1098401D01*
X987256Y1099227D01*
X987655Y1100188D01*
X987791Y1101220D01*
X987655Y1102252D01*
X987256Y1103213D01*
X986623Y1104039D01*
X985797Y1104673D01*
X984836Y1105071D01*
X983804Y1105207D01*
D02*
G37*
G36*
X973804D02*
X972772Y1105071D01*
X971810Y1104673D01*
X970985Y1104039D01*
X970351Y1103213D01*
X969953Y1102252D01*
X969817Y1101220D01*
X969953Y1100188D01*
X970351Y1099227D01*
X970985Y1098401D01*
X971810Y1097767D01*
X972772Y1097369D01*
X973804Y1097233D01*
X974836Y1097369D01*
X975797Y1097767D01*
X976623Y1098401D01*
X977256Y1099227D01*
X977655Y1100188D01*
X977791Y1101220D01*
X977655Y1102252D01*
X977256Y1103213D01*
X976623Y1104039D01*
X975797Y1104673D01*
X974836Y1105071D01*
X973804Y1105207D01*
D02*
G37*
G36*
X993804D02*
X992772Y1105071D01*
X991810Y1104673D01*
X990985Y1104039D01*
X990351Y1103213D01*
X989953Y1102252D01*
X989817Y1101220D01*
X989953Y1100188D01*
X990351Y1099227D01*
X990985Y1098401D01*
X991810Y1097767D01*
X992772Y1097369D01*
X993804Y1097233D01*
X994836Y1097369D01*
X995797Y1097767D01*
X996623Y1098401D01*
X997256Y1099227D01*
X997655Y1100188D01*
X997791Y1101220D01*
X997655Y1102252D01*
X997256Y1103213D01*
X996623Y1104039D01*
X995797Y1104673D01*
X994836Y1105071D01*
X993804Y1105207D01*
D02*
G37*
G36*
X1126402D02*
X1125370Y1105071D01*
X1124409Y1104673D01*
X1123583Y1104039D01*
X1122949Y1103213D01*
X1122551Y1102252D01*
X1122415Y1101220D01*
X1122551Y1100188D01*
X1122949Y1099227D01*
X1123583Y1098401D01*
X1124409Y1097767D01*
X1125370Y1097369D01*
X1126402Y1097233D01*
X1127434Y1097369D01*
X1128396Y1097767D01*
X1129221Y1098401D01*
X1129855Y1099227D01*
X1130253Y1100188D01*
X1130389Y1101220D01*
X1130253Y1102252D01*
X1129855Y1103213D01*
X1129221Y1104039D01*
X1128396Y1104673D01*
X1127434Y1105071D01*
X1126402Y1105207D01*
D02*
G37*
G36*
X1116402D02*
X1115370Y1105071D01*
X1114409Y1104673D01*
X1113583Y1104039D01*
X1112949Y1103213D01*
X1112551Y1102252D01*
X1112415Y1101220D01*
X1112551Y1100188D01*
X1112949Y1099227D01*
X1113583Y1098401D01*
X1114409Y1097767D01*
X1115370Y1097369D01*
X1116402Y1097233D01*
X1117434Y1097369D01*
X1118396Y1097767D01*
X1119221Y1098401D01*
X1119855Y1099227D01*
X1120253Y1100188D01*
X1120389Y1101220D01*
X1120253Y1102252D01*
X1119855Y1103213D01*
X1119221Y1104039D01*
X1118396Y1104673D01*
X1117434Y1105071D01*
X1116402Y1105207D01*
D02*
G37*
G36*
X933804D02*
X932772Y1105071D01*
X931810Y1104673D01*
X930985Y1104039D01*
X930351Y1103213D01*
X929953Y1102252D01*
X929817Y1101220D01*
X929953Y1100188D01*
X930351Y1099227D01*
X930985Y1098401D01*
X931810Y1097767D01*
X932772Y1097369D01*
X933804Y1097233D01*
X934836Y1097369D01*
X935797Y1097767D01*
X936623Y1098401D01*
X937256Y1099227D01*
X937655Y1100188D01*
X937791Y1101220D01*
X937655Y1102252D01*
X937256Y1103213D01*
X936623Y1104039D01*
X935797Y1104673D01*
X934836Y1105071D01*
X933804Y1105207D01*
D02*
G37*
G36*
X923804D02*
X922772Y1105071D01*
X921810Y1104673D01*
X920985Y1104039D01*
X920351Y1103213D01*
X919953Y1102252D01*
X919817Y1101220D01*
X919953Y1100188D01*
X920351Y1099227D01*
X920985Y1098401D01*
X921810Y1097767D01*
X922772Y1097369D01*
X923804Y1097233D01*
X924836Y1097369D01*
X925797Y1097767D01*
X926623Y1098401D01*
X927256Y1099227D01*
X927655Y1100188D01*
X927791Y1101220D01*
X927655Y1102252D01*
X927256Y1103213D01*
X926623Y1104039D01*
X925797Y1104673D01*
X924836Y1105071D01*
X923804Y1105207D01*
D02*
G37*
G36*
X943804D02*
X942772Y1105071D01*
X941810Y1104673D01*
X940985Y1104039D01*
X940351Y1103213D01*
X939953Y1102252D01*
X939817Y1101220D01*
X939953Y1100188D01*
X940351Y1099227D01*
X940985Y1098401D01*
X941810Y1097767D01*
X942772Y1097369D01*
X943804Y1097233D01*
X944836Y1097369D01*
X945797Y1097767D01*
X946623Y1098401D01*
X947256Y1099227D01*
X947655Y1100188D01*
X947791Y1101220D01*
X947655Y1102252D01*
X947256Y1103213D01*
X946623Y1104039D01*
X945797Y1104673D01*
X944836Y1105071D01*
X943804Y1105207D01*
D02*
G37*
G36*
X963804D02*
X962772Y1105071D01*
X961810Y1104673D01*
X960985Y1104039D01*
X960351Y1103213D01*
X959953Y1102252D01*
X959817Y1101220D01*
X959953Y1100188D01*
X960351Y1099227D01*
X960985Y1098401D01*
X961810Y1097767D01*
X962772Y1097369D01*
X963804Y1097233D01*
X964836Y1097369D01*
X965797Y1097767D01*
X966623Y1098401D01*
X967256Y1099227D01*
X967655Y1100188D01*
X967791Y1101220D01*
X967655Y1102252D01*
X967256Y1103213D01*
X966623Y1104039D01*
X965797Y1104673D01*
X964836Y1105071D01*
X963804Y1105207D01*
D02*
G37*
G36*
X953804D02*
X952772Y1105071D01*
X951810Y1104673D01*
X950985Y1104039D01*
X950351Y1103213D01*
X949953Y1102252D01*
X949817Y1101220D01*
X949953Y1100188D01*
X950351Y1099227D01*
X950985Y1098401D01*
X951810Y1097767D01*
X952772Y1097369D01*
X953804Y1097233D01*
X954836Y1097369D01*
X955797Y1097767D01*
X956623Y1098401D01*
X957256Y1099227D01*
X957655Y1100188D01*
X957791Y1101220D01*
X957655Y1102252D01*
X957256Y1103213D01*
X956623Y1104039D01*
X955797Y1104673D01*
X954836Y1105071D01*
X953804Y1105207D01*
D02*
G37*
G36*
X1196402D02*
X1195370Y1105071D01*
X1194409Y1104673D01*
X1193583Y1104039D01*
X1192949Y1103213D01*
X1192551Y1102252D01*
X1192415Y1101220D01*
X1192551Y1100188D01*
X1192949Y1099227D01*
X1193583Y1098401D01*
X1194409Y1097767D01*
X1195370Y1097369D01*
X1196402Y1097233D01*
X1197434Y1097369D01*
X1198396Y1097767D01*
X1199221Y1098401D01*
X1199855Y1099227D01*
X1200253Y1100188D01*
X1200389Y1101220D01*
X1200253Y1102252D01*
X1199855Y1103213D01*
X1199221Y1104039D01*
X1198396Y1104673D01*
X1197434Y1105071D01*
X1196402Y1105207D01*
D02*
G37*
G36*
X1186402D02*
X1185370Y1105071D01*
X1184409Y1104673D01*
X1183583Y1104039D01*
X1182949Y1103213D01*
X1182551Y1102252D01*
X1182415Y1101220D01*
X1182551Y1100188D01*
X1182949Y1099227D01*
X1183583Y1098401D01*
X1184409Y1097767D01*
X1185370Y1097369D01*
X1186402Y1097233D01*
X1187434Y1097369D01*
X1188396Y1097767D01*
X1189221Y1098401D01*
X1189855Y1099227D01*
X1190253Y1100188D01*
X1190389Y1101220D01*
X1190253Y1102252D01*
X1189855Y1103213D01*
X1189221Y1104039D01*
X1188396Y1104673D01*
X1187434Y1105071D01*
X1186402Y1105207D01*
D02*
G37*
G36*
X1206402D02*
X1205370Y1105071D01*
X1204409Y1104673D01*
X1203583Y1104039D01*
X1202949Y1103213D01*
X1202551Y1102252D01*
X1202415Y1101220D01*
X1202551Y1100188D01*
X1202949Y1099227D01*
X1203583Y1098401D01*
X1204409Y1097767D01*
X1205370Y1097369D01*
X1206402Y1097233D01*
X1207434Y1097369D01*
X1208396Y1097767D01*
X1209221Y1098401D01*
X1209855Y1099227D01*
X1210253Y1100188D01*
X1210389Y1101220D01*
X1210253Y1102252D01*
X1209855Y1103213D01*
X1209221Y1104039D01*
X1208396Y1104673D01*
X1207434Y1105071D01*
X1206402Y1105207D01*
D02*
G37*
G36*
X1339001D02*
X1337969Y1105071D01*
X1337007Y1104673D01*
X1336181Y1104039D01*
X1335548Y1103213D01*
X1335149Y1102252D01*
X1335014Y1101220D01*
X1335149Y1100188D01*
X1335548Y1099227D01*
X1336181Y1098401D01*
X1337007Y1097767D01*
X1337969Y1097369D01*
X1339001Y1097233D01*
X1340032Y1097369D01*
X1340994Y1097767D01*
X1341820Y1098401D01*
X1342453Y1099227D01*
X1342852Y1100188D01*
X1342987Y1101220D01*
X1342852Y1102252D01*
X1342453Y1103213D01*
X1341820Y1104039D01*
X1340994Y1104673D01*
X1340032Y1105071D01*
X1339001Y1105207D01*
D02*
G37*
G36*
X1329000D02*
X1327969Y1105071D01*
X1327007Y1104673D01*
X1326181Y1104039D01*
X1325548Y1103213D01*
X1325150Y1102252D01*
X1325014Y1101220D01*
X1325150Y1100188D01*
X1325548Y1099227D01*
X1326181Y1098401D01*
X1327007Y1097767D01*
X1327969Y1097369D01*
X1329000Y1097233D01*
X1330032Y1097369D01*
X1330994Y1097767D01*
X1331820Y1098401D01*
X1332453Y1099227D01*
X1332852Y1100188D01*
X1332987Y1101220D01*
X1332852Y1102252D01*
X1332453Y1103213D01*
X1331820Y1104039D01*
X1330994Y1104673D01*
X1330032Y1105071D01*
X1329000Y1105207D01*
D02*
G37*
G36*
X1146402D02*
X1145370Y1105071D01*
X1144409Y1104673D01*
X1143583Y1104039D01*
X1142949Y1103213D01*
X1142551Y1102252D01*
X1142415Y1101220D01*
X1142551Y1100188D01*
X1142949Y1099227D01*
X1143583Y1098401D01*
X1144409Y1097767D01*
X1145370Y1097369D01*
X1146402Y1097233D01*
X1147434Y1097369D01*
X1148396Y1097767D01*
X1149221Y1098401D01*
X1149855Y1099227D01*
X1150253Y1100188D01*
X1150389Y1101220D01*
X1150253Y1102252D01*
X1149855Y1103213D01*
X1149221Y1104039D01*
X1148396Y1104673D01*
X1147434Y1105071D01*
X1146402Y1105207D01*
D02*
G37*
G36*
X1136402D02*
X1135370Y1105071D01*
X1134409Y1104673D01*
X1133583Y1104039D01*
X1132949Y1103213D01*
X1132551Y1102252D01*
X1132415Y1101220D01*
X1132551Y1100188D01*
X1132949Y1099227D01*
X1133583Y1098401D01*
X1134409Y1097767D01*
X1135370Y1097369D01*
X1136402Y1097233D01*
X1137434Y1097369D01*
X1138396Y1097767D01*
X1139221Y1098401D01*
X1139855Y1099227D01*
X1140253Y1100188D01*
X1140389Y1101220D01*
X1140253Y1102252D01*
X1139855Y1103213D01*
X1139221Y1104039D01*
X1138396Y1104673D01*
X1137434Y1105071D01*
X1136402Y1105207D01*
D02*
G37*
G36*
X1156402D02*
X1155370Y1105071D01*
X1154409Y1104673D01*
X1153583Y1104039D01*
X1152949Y1103213D01*
X1152551Y1102252D01*
X1152415Y1101220D01*
X1152551Y1100188D01*
X1152949Y1099227D01*
X1153583Y1098401D01*
X1154409Y1097767D01*
X1155370Y1097369D01*
X1156402Y1097233D01*
X1157434Y1097369D01*
X1158396Y1097767D01*
X1159221Y1098401D01*
X1159855Y1099227D01*
X1160253Y1100188D01*
X1160389Y1101220D01*
X1160253Y1102252D01*
X1159855Y1103213D01*
X1159221Y1104039D01*
X1158396Y1104673D01*
X1157434Y1105071D01*
X1156402Y1105207D01*
D02*
G37*
G36*
X1176402D02*
X1175370Y1105071D01*
X1174409Y1104673D01*
X1173583Y1104039D01*
X1172949Y1103213D01*
X1172551Y1102252D01*
X1172415Y1101220D01*
X1172551Y1100188D01*
X1172949Y1099227D01*
X1173583Y1098401D01*
X1174409Y1097767D01*
X1175370Y1097369D01*
X1176402Y1097233D01*
X1177434Y1097369D01*
X1178396Y1097767D01*
X1179221Y1098401D01*
X1179855Y1099227D01*
X1180253Y1100188D01*
X1180389Y1101220D01*
X1180253Y1102252D01*
X1179855Y1103213D01*
X1179221Y1104039D01*
X1178396Y1104673D01*
X1177434Y1105071D01*
X1176402Y1105207D01*
D02*
G37*
G36*
X1166402D02*
X1165370Y1105071D01*
X1164409Y1104673D01*
X1163583Y1104039D01*
X1162949Y1103213D01*
X1162551Y1102252D01*
X1162415Y1101220D01*
X1162551Y1100188D01*
X1162949Y1099227D01*
X1163583Y1098401D01*
X1164409Y1097767D01*
X1165370Y1097369D01*
X1166402Y1097233D01*
X1167434Y1097369D01*
X1168396Y1097767D01*
X1169221Y1098401D01*
X1169855Y1099227D01*
X1170253Y1100188D01*
X1170389Y1101220D01*
X1170253Y1102252D01*
X1169855Y1103213D01*
X1169221Y1104039D01*
X1168396Y1104673D01*
X1167434Y1105071D01*
X1166402Y1105207D01*
D02*
G37*
%LPD*%
D12*
X143410Y1101220D02*
D03*
Y1111220D02*
D03*
X133410Y1101220D02*
D03*
Y1111220D02*
D03*
X123410Y1101220D02*
D03*
Y1111220D02*
D03*
X113410Y1101220D02*
D03*
Y1111220D02*
D03*
X103410Y1101220D02*
D03*
Y1111220D02*
D03*
X93410Y1101220D02*
D03*
Y1111220D02*
D03*
X83410Y1101220D02*
D03*
X53410D02*
D03*
X63410D02*
D03*
Y1111220D02*
D03*
X73410D02*
D03*
Y1101220D02*
D03*
X163410Y1111220D02*
D03*
X153410D02*
D03*
Y1101220D02*
D03*
X83410Y1111220D02*
D03*
X53410D02*
D03*
X356008Y1101220D02*
D03*
Y1111220D02*
D03*
X346008Y1101220D02*
D03*
Y1111220D02*
D03*
X336008Y1101220D02*
D03*
Y1111220D02*
D03*
X326008Y1101220D02*
D03*
Y1111220D02*
D03*
X316008Y1101220D02*
D03*
Y1111220D02*
D03*
X306008Y1101220D02*
D03*
Y1111220D02*
D03*
X296008Y1101220D02*
D03*
X266008D02*
D03*
X276008D02*
D03*
Y1111220D02*
D03*
X286008D02*
D03*
Y1101220D02*
D03*
X376008Y1111220D02*
D03*
X366008D02*
D03*
Y1101220D02*
D03*
X296008Y1111220D02*
D03*
X266008D02*
D03*
X568607Y1101220D02*
D03*
Y1111220D02*
D03*
X558607Y1101220D02*
D03*
Y1111220D02*
D03*
X548607Y1101220D02*
D03*
Y1111220D02*
D03*
X538607Y1101220D02*
D03*
Y1111220D02*
D03*
X528607Y1101220D02*
D03*
Y1111220D02*
D03*
X518607Y1101220D02*
D03*
Y1111220D02*
D03*
X508607Y1101220D02*
D03*
X478607D02*
D03*
X488607D02*
D03*
Y1111220D02*
D03*
X498607D02*
D03*
Y1101220D02*
D03*
X588607Y1111220D02*
D03*
X578607D02*
D03*
Y1101220D02*
D03*
X508607Y1111220D02*
D03*
X478607D02*
D03*
X781205Y1101220D02*
D03*
Y1111220D02*
D03*
X771205Y1101220D02*
D03*
Y1111220D02*
D03*
X761205Y1101220D02*
D03*
Y1111220D02*
D03*
X751205Y1101220D02*
D03*
Y1111220D02*
D03*
X741205Y1101220D02*
D03*
Y1111220D02*
D03*
X731205Y1101220D02*
D03*
Y1111220D02*
D03*
X721205Y1101220D02*
D03*
X691205D02*
D03*
X701205D02*
D03*
Y1111220D02*
D03*
X711205D02*
D03*
Y1101220D02*
D03*
X801205Y1111220D02*
D03*
X791205D02*
D03*
Y1101220D02*
D03*
X721205Y1111220D02*
D03*
X691205D02*
D03*
X993804Y1101220D02*
D03*
Y1111220D02*
D03*
X983804Y1101220D02*
D03*
Y1111220D02*
D03*
X973804Y1101220D02*
D03*
Y1111220D02*
D03*
X963804Y1101220D02*
D03*
Y1111220D02*
D03*
X953804Y1101220D02*
D03*
Y1111220D02*
D03*
X943804Y1101220D02*
D03*
Y1111220D02*
D03*
X933804Y1101220D02*
D03*
X903804D02*
D03*
X913804D02*
D03*
Y1111220D02*
D03*
X923804D02*
D03*
Y1101220D02*
D03*
X1013804Y1111220D02*
D03*
X1003804D02*
D03*
Y1101220D02*
D03*
X933804Y1111220D02*
D03*
X903804D02*
D03*
X1206402Y1101220D02*
D03*
Y1111220D02*
D03*
X1196402Y1101220D02*
D03*
Y1111220D02*
D03*
X1186402Y1101220D02*
D03*
Y1111220D02*
D03*
X1176402Y1101220D02*
D03*
Y1111220D02*
D03*
X1166402Y1101220D02*
D03*
Y1111220D02*
D03*
X1156402Y1101220D02*
D03*
Y1111220D02*
D03*
X1146402Y1101220D02*
D03*
X1116402D02*
D03*
X1126402D02*
D03*
Y1111220D02*
D03*
X1136402D02*
D03*
Y1101220D02*
D03*
X1226402Y1111220D02*
D03*
X1216402D02*
D03*
Y1101220D02*
D03*
X1146402Y1111220D02*
D03*
X1116402D02*
D03*
X1419001Y1101220D02*
D03*
Y1111220D02*
D03*
X1409000Y1101220D02*
D03*
Y1111220D02*
D03*
X1399000Y1101220D02*
D03*
Y1111220D02*
D03*
X1389001Y1101220D02*
D03*
Y1111220D02*
D03*
X1379000Y1101220D02*
D03*
Y1111220D02*
D03*
X1369001Y1101220D02*
D03*
Y1111220D02*
D03*
X1359000Y1101220D02*
D03*
X1329000D02*
D03*
X1339001D02*
D03*
Y1111220D02*
D03*
X1349000D02*
D03*
Y1101220D02*
D03*
X1439001Y1111220D02*
D03*
X1429000D02*
D03*
Y1101220D02*
D03*
X1359000Y1111220D02*
D03*
X1329000D02*
D03*
X1631599Y1101220D02*
D03*
Y1111220D02*
D03*
X1621599Y1101220D02*
D03*
Y1111220D02*
D03*
X1611599Y1101220D02*
D03*
Y1111220D02*
D03*
X1601599Y1101220D02*
D03*
Y1111220D02*
D03*
X1591599Y1101220D02*
D03*
Y1111220D02*
D03*
X1581599Y1101220D02*
D03*
Y1111220D02*
D03*
X1571599Y1101220D02*
D03*
X1541599D02*
D03*
X1551599D02*
D03*
Y1111220D02*
D03*
X1561599D02*
D03*
Y1101220D02*
D03*
X1651599Y1111220D02*
D03*
X1641599D02*
D03*
Y1101220D02*
D03*
X1571599Y1111220D02*
D03*
X1541599D02*
D03*
D13*
X163410Y1101220D02*
D03*
X376008D02*
D03*
X588607D02*
D03*
X801205D02*
D03*
X1013804D02*
D03*
X1226402D02*
D03*
X1439001D02*
D03*
X1651599D02*
D03*
D14*
X4724Y1009842D02*
D03*
X53150Y1058661D02*
D03*
Y952362D02*
D03*
X4724Y903543D02*
D03*
X53150Y846063D02*
D03*
X4724Y797244D02*
D03*
X53150Y739764D02*
D03*
X4724Y690945D02*
D03*
X53150Y633465D02*
D03*
X4724Y584646D02*
D03*
X53150Y527165D02*
D03*
X4724Y478346D02*
D03*
X53150Y420866D02*
D03*
X4724Y372047D02*
D03*
X53150Y314567D02*
D03*
X4724Y265748D02*
D03*
X53150Y208268D02*
D03*
X4724Y159449D02*
D03*
X53150Y101969D02*
D03*
X4724Y53150D02*
D03*
X111024D02*
D03*
X159449Y101969D02*
D03*
X111024Y159449D02*
D03*
X159449Y208268D02*
D03*
X111024Y265748D02*
D03*
X159449Y314567D02*
D03*
X111024Y372047D02*
D03*
X159449Y420866D02*
D03*
X111024Y478346D02*
D03*
X159449Y527165D02*
D03*
X111024Y584646D02*
D03*
X159449Y633465D02*
D03*
X111024Y690945D02*
D03*
X159449Y739764D02*
D03*
X111024Y797244D02*
D03*
X159449Y846063D02*
D03*
X111024Y903543D02*
D03*
X159449Y952362D02*
D03*
Y1058661D02*
D03*
X111024Y1009842D02*
D03*
X217323Y53150D02*
D03*
X265748Y101969D02*
D03*
X217323Y159449D02*
D03*
X265748Y208268D02*
D03*
X217323Y265748D02*
D03*
X265748Y314567D02*
D03*
X217323Y372047D02*
D03*
X265748Y420866D02*
D03*
X217323Y478346D02*
D03*
X265748Y527165D02*
D03*
X217323Y584646D02*
D03*
X265748Y633465D02*
D03*
X217323Y690945D02*
D03*
X265748Y739764D02*
D03*
X217323Y797244D02*
D03*
X265748Y846063D02*
D03*
X217323Y903543D02*
D03*
X265748Y952362D02*
D03*
Y1058661D02*
D03*
X217323Y1009842D02*
D03*
X323622Y53150D02*
D03*
X372047Y101969D02*
D03*
X323622Y159449D02*
D03*
X372047Y208268D02*
D03*
X323622Y265748D02*
D03*
X372047Y314567D02*
D03*
X323622Y372047D02*
D03*
X372047Y420866D02*
D03*
X323622Y478346D02*
D03*
X372047Y527165D02*
D03*
X323622Y584646D02*
D03*
X372047Y633465D02*
D03*
X323622Y690945D02*
D03*
X372047Y739764D02*
D03*
X323622Y797244D02*
D03*
X372047Y846063D02*
D03*
X323622Y903543D02*
D03*
X372047Y952362D02*
D03*
Y1058661D02*
D03*
X323622Y1009842D02*
D03*
X429921Y53150D02*
D03*
X478346Y101969D02*
D03*
X429921Y159449D02*
D03*
X478346Y208268D02*
D03*
X429921Y265748D02*
D03*
X478346Y314567D02*
D03*
X429921Y372047D02*
D03*
X478346Y420866D02*
D03*
X429921Y478346D02*
D03*
X478346Y527165D02*
D03*
X429921Y584646D02*
D03*
X478346Y633465D02*
D03*
X429921Y690945D02*
D03*
X478346Y739764D02*
D03*
X429921Y797244D02*
D03*
X478346Y846063D02*
D03*
X429921Y903543D02*
D03*
X478346Y952362D02*
D03*
Y1058661D02*
D03*
X429921Y1009842D02*
D03*
X536221Y53150D02*
D03*
X584646Y101969D02*
D03*
X536221Y159449D02*
D03*
X584646Y208268D02*
D03*
X536221Y265748D02*
D03*
X584646Y314567D02*
D03*
X536221Y372047D02*
D03*
X584646Y420866D02*
D03*
X536221Y478346D02*
D03*
X584646Y527165D02*
D03*
X536221Y584646D02*
D03*
X584646Y633465D02*
D03*
X536221Y690945D02*
D03*
X584646Y739764D02*
D03*
X536221Y797244D02*
D03*
X584646Y846063D02*
D03*
X536221Y903543D02*
D03*
X584646Y952362D02*
D03*
Y1058661D02*
D03*
X536221Y1009842D02*
D03*
X642520Y53150D02*
D03*
X690945Y101969D02*
D03*
X642520Y159449D02*
D03*
X690945Y208268D02*
D03*
X642520Y265748D02*
D03*
X690945Y314567D02*
D03*
X642520Y372047D02*
D03*
X690945Y420866D02*
D03*
X642520Y478346D02*
D03*
X690945Y527165D02*
D03*
X642520Y584646D02*
D03*
X690945Y633465D02*
D03*
X642520Y690945D02*
D03*
X690945Y739764D02*
D03*
X642520Y797244D02*
D03*
X690945Y846063D02*
D03*
X642520Y903543D02*
D03*
X690945Y952362D02*
D03*
Y1058661D02*
D03*
X642520Y1009842D02*
D03*
X748819Y53150D02*
D03*
X797244Y101969D02*
D03*
X748819Y159449D02*
D03*
X797244Y208268D02*
D03*
X748819Y265748D02*
D03*
X797244Y314567D02*
D03*
X748819Y372047D02*
D03*
X797244Y420866D02*
D03*
X748819Y478346D02*
D03*
X797244Y527165D02*
D03*
X748819Y584646D02*
D03*
X797244Y633465D02*
D03*
X748819Y690945D02*
D03*
X797244Y739764D02*
D03*
X748819Y797244D02*
D03*
X797244Y846063D02*
D03*
X748819Y903543D02*
D03*
X797244Y952362D02*
D03*
Y1058661D02*
D03*
X748819Y1009842D02*
D03*
X855118Y53150D02*
D03*
X903543Y101969D02*
D03*
X855118Y159449D02*
D03*
X903543Y208268D02*
D03*
X855118Y265748D02*
D03*
X903543Y314567D02*
D03*
X855118Y372047D02*
D03*
X903543Y420866D02*
D03*
X855118Y478346D02*
D03*
X903543Y527165D02*
D03*
X855118Y584646D02*
D03*
X903543Y633465D02*
D03*
X855118Y690945D02*
D03*
X903543Y739764D02*
D03*
X855118Y797244D02*
D03*
X903543Y846063D02*
D03*
X855118Y903543D02*
D03*
X903543Y952362D02*
D03*
Y1058661D02*
D03*
X855118Y1009842D02*
D03*
X961417Y53150D02*
D03*
X1009842Y101969D02*
D03*
X961417Y159449D02*
D03*
X1009842Y208268D02*
D03*
X961417Y265748D02*
D03*
X1009842Y314567D02*
D03*
X961417Y372047D02*
D03*
X1009842Y420866D02*
D03*
X961417Y478346D02*
D03*
X1009842Y527165D02*
D03*
X961417Y584646D02*
D03*
X1009842Y633465D02*
D03*
X961417Y690945D02*
D03*
X1009842Y739764D02*
D03*
X961417Y797244D02*
D03*
X1009842Y846063D02*
D03*
X961417Y903543D02*
D03*
X1009842Y952362D02*
D03*
Y1058661D02*
D03*
X961417Y1009842D02*
D03*
X1067717Y53150D02*
D03*
X1116142Y101969D02*
D03*
X1067717Y159449D02*
D03*
X1116142Y208268D02*
D03*
X1067717Y265748D02*
D03*
X1116142Y314567D02*
D03*
X1067717Y372047D02*
D03*
X1116142Y420866D02*
D03*
X1067717Y478346D02*
D03*
X1116142Y527165D02*
D03*
X1067717Y584646D02*
D03*
X1116142Y633465D02*
D03*
X1067717Y690945D02*
D03*
X1116142Y739764D02*
D03*
X1067717Y797244D02*
D03*
X1116142Y846063D02*
D03*
X1067717Y903543D02*
D03*
X1116142Y952362D02*
D03*
Y1058661D02*
D03*
X1067717Y1009842D02*
D03*
X1174016Y53150D02*
D03*
X1222441Y101969D02*
D03*
X1174016Y159449D02*
D03*
X1222441Y208268D02*
D03*
X1174016Y265748D02*
D03*
X1222441Y314567D02*
D03*
X1174016Y372047D02*
D03*
X1222441Y420866D02*
D03*
X1174016Y478346D02*
D03*
X1222441Y527165D02*
D03*
X1174016Y584646D02*
D03*
X1222441Y633465D02*
D03*
X1174016Y690945D02*
D03*
X1222441Y739764D02*
D03*
X1174016Y797244D02*
D03*
X1222441Y846063D02*
D03*
X1174016Y903543D02*
D03*
X1222441Y952362D02*
D03*
Y1058661D02*
D03*
X1174016Y1009842D02*
D03*
X1280315Y53150D02*
D03*
X1328740Y101969D02*
D03*
X1280315Y159449D02*
D03*
X1328740Y208268D02*
D03*
X1280315Y265748D02*
D03*
X1328740Y314567D02*
D03*
X1280315Y372047D02*
D03*
X1328740Y420866D02*
D03*
X1280315Y478346D02*
D03*
X1328740Y527165D02*
D03*
X1280315Y584646D02*
D03*
X1328740Y633465D02*
D03*
X1280315Y690945D02*
D03*
X1328740Y739764D02*
D03*
X1280315Y797244D02*
D03*
X1328740Y846063D02*
D03*
X1280315Y903543D02*
D03*
X1328740Y952362D02*
D03*
Y1058661D02*
D03*
X1280315Y1009842D02*
D03*
X1386614Y53150D02*
D03*
X1435039Y101969D02*
D03*
X1386614Y159449D02*
D03*
X1435039Y208268D02*
D03*
X1386614Y265748D02*
D03*
X1435039Y314567D02*
D03*
X1386614Y372047D02*
D03*
X1435039Y420866D02*
D03*
X1386614Y478346D02*
D03*
X1435039Y527165D02*
D03*
X1386614Y584646D02*
D03*
X1435039Y633465D02*
D03*
X1386614Y690945D02*
D03*
X1435039Y739764D02*
D03*
X1386614Y797244D02*
D03*
X1435039Y846063D02*
D03*
X1386614Y903543D02*
D03*
X1435039Y952362D02*
D03*
Y1058661D02*
D03*
X1386614Y1009842D02*
D03*
X1492913Y53150D02*
D03*
X1541339Y101969D02*
D03*
X1492913Y159449D02*
D03*
X1541339Y208268D02*
D03*
X1492913Y265748D02*
D03*
X1541339Y314567D02*
D03*
X1492913Y372047D02*
D03*
X1541339Y420866D02*
D03*
X1492913Y478346D02*
D03*
X1541339Y527165D02*
D03*
X1492913Y584646D02*
D03*
X1541339Y633465D02*
D03*
X1492913Y690945D02*
D03*
X1541339Y739764D02*
D03*
X1492913Y797244D02*
D03*
X1541339Y846063D02*
D03*
X1492913Y903543D02*
D03*
X1541339Y952362D02*
D03*
Y1058661D02*
D03*
X1492913Y1009842D02*
D03*
X1599213Y53150D02*
D03*
X1647638Y101969D02*
D03*
X1599213Y159449D02*
D03*
X1647638Y208268D02*
D03*
X1599213Y265748D02*
D03*
X1647638Y314567D02*
D03*
X1599213Y372047D02*
D03*
X1647638Y420866D02*
D03*
X1599213Y478346D02*
D03*
X1647638Y527165D02*
D03*
X1599213Y584646D02*
D03*
X1647638Y633465D02*
D03*
X1599213Y690945D02*
D03*
X1647638Y739764D02*
D03*
X1599213Y797244D02*
D03*
X1647638Y846063D02*
D03*
X1599213Y903543D02*
D03*
X1647638Y952362D02*
D03*
Y1058661D02*
D03*
X1599213Y1009842D02*
D03*
M02*
