M48
;Layer_Color=9474304
;FILE_FORMAT=2:5
INCH,TZ
;TYPE=PLATED
T1F00S00C0.01181
T2F00S00C0.03937
%
T01
X1599213Y53150
X1647638Y101969
X1599213Y159449
X1492913
X1541339Y101969
X1492913Y53150
X1435039Y101969
X1386614Y53150
X1280315
X1328740Y101969
X1280315Y159449
X1386614
X1174016
X1222441Y101969
X1174016Y53150
X1116142Y101969
X1067717Y53150
X961417
X1009842Y101969
X961417Y159449
X1067717
X855118
X903543Y101969
X855118Y53150
X748819
X797244Y101969
X748819Y159449
X690945Y101969
X642520Y53150
X536221
X584646Y101969
X536221Y159449
X642520
X429921
X478346Y101969
X429921Y53150
X372047Y101969
X323622Y53150
X217323
X265748Y101969
X217323Y159449
X323622
X111024
X159449Y101969
X111024Y53150
X53150Y101969
X4724Y53150
Y159449
Y265748
X53150Y314567
Y208268
X159449
X111024Y265748
X159449Y314567
X265748
X217323Y265748
X265748Y208268
X323622Y265748
X372047Y314567
Y208268
X478346
X429921Y265748
X478346Y314567
X584646
X536221Y265748
X584646Y208268
X642520Y265748
X690945Y314567
Y208268
X797244
X748819Y265748
X797244Y314567
X903543
X855118Y265748
X903543Y208268
X1009842
X961417Y265748
X1009842Y314567
X1067717Y265748
X1116142Y314567
Y208268
X1222441
X1174016Y265748
X1222441Y314567
X1328740
X1280315Y265748
X1328740Y208268
X1386614Y265748
X1435039Y314567
Y208268
X1541339
X1492913Y265748
X1541339Y314567
X1647638
X1599213Y265748
X1647638Y208268
X1599213Y372047
X1647638Y420866
X1599213Y478346
X1492913
X1541339Y420866
X1492913Y372047
X1435039Y420866
X1386614Y372047
X1280315
X1328740Y420866
X1280315Y478346
X1386614
X1174016
X1222441Y420866
X1174016Y372047
X1116142Y420866
X1067717Y372047
Y478346
X961417
X1009842Y420866
X961417Y372047
X855118
X903543Y420866
X855118Y478346
X748819
X797244Y420866
X748819Y372047
X690945Y420866
X642520Y372047
Y478346
X536221
X584646Y420866
X536221Y372047
X429921
X478346Y420866
X429921Y478346
X372047Y420866
X323622Y372047
X217323
X265748Y420866
X217323Y478346
X323622
X111024
X159449Y420866
X111024Y372047
X53150Y420866
X4724Y372047
Y478346
Y584646
X53150Y633465
X159449
X111024Y584646
X159449Y527165
X53150
X265748
X217323Y584646
X265748Y633465
X323622Y584646
X372047Y633465
X478346
X429921Y584646
X478346Y527165
X372047
X584646
X536221Y584646
X584646Y633465
X642520Y584646
X690945Y633465
X797244
X748819Y584646
X797244Y527165
X690945
X903543
X855118Y584646
X903543Y633465
X1009842
X961417Y584646
X1009842Y527165
X1067717Y584646
X1116142Y633465
X1222441
X1174016Y584646
X1222441Y527165
X1116142
X1328740
X1280315Y584646
X1328740Y633465
X1386614Y584646
X1435039Y633465
Y527165
X1541339
X1492913Y584646
X1541339Y633465
X1647638
X1599213Y584646
X1647638Y527165
X1599213Y690945
X1647638Y739764
X1599213Y797244
X1492913
X1541339Y739764
X1492913Y690945
X1435039Y739764
X1386614Y690945
X1280315
X1328740Y739764
X1280315Y797244
X1386614
X1174016
X1222441Y739764
X1174016Y690945
X1116142Y739764
X1067717Y690945
Y797244
X961417
X1009842Y739764
X961417Y690945
X855118
X903543Y739764
X855118Y797244
X748819
X797244Y739764
X748819Y690945
X690945Y739764
X642520Y690945
Y797244
X536221
X584646Y739764
X536221Y690945
X429921
X478346Y739764
X429921Y797244
X372047Y739764
X323622Y690945
X217323
X265748Y739764
X217323Y797244
X323622
X111024
X159449Y739764
X111024Y690945
X53150Y739764
X4724Y690945
Y797244
Y903543
X53150Y952362
Y846063
X159449
X111024Y903543
X159449Y952362
X265748
X217323Y903543
X265748Y846063
X323622Y903543
X372047Y952362
Y846063
X478346
X429921Y903543
X478346Y952362
X584646
X536221Y903543
X584646Y846063
X642520Y903543
X690945Y952362
Y846063
X797244
X748819Y903543
X797244Y952362
X903543
X855118Y903543
X903543Y846063
X1009842
X961417Y903543
X1009842Y952362
X1067717Y903543
X1116142Y952362
Y846063
X1222441
X1174016Y903543
X1222441Y952362
X1328740
X1280315Y903543
X1328740Y846063
X1386614Y903543
X1435039Y952362
Y846063
X1541339
X1492913Y903543
X1541339Y952362
X1647638
X1599213Y903543
X1647638Y846063
X1599213Y1009842
X1647638Y1058661
X1541339
X1492913Y1009842
X1435039Y1058661
X1386614Y1009842
X1280315
X1328740Y1058661
X1222441
X1174016Y1009842
X1116142Y1058661
X1067717Y1009842
X961417
X1009842Y1058661
X903543
X855118Y1009842
X748819
X797244Y1058661
X690945
X642520Y1009842
X536221
X584646Y1058661
X478346
X429921Y1009842
X372047Y1058661
X323622Y1009842
X217323
X265748Y1058661
X159449
X111024Y1009842
X53150Y1058661
X4724Y1009842
T02
X1651599Y1101220
Y1111220
X1641599
X1631599
Y1101220
X1621599
Y1111220
X1611599
Y1101220
X1601599
Y1111220
X1591599
Y1101220
X1641599
X1581599
Y1111220
X1571599
Y1101220
X1561599
X1551599
X1541599
Y1111220
X1551599
X1561599
X1439001
X1429000
Y1101220
X1439001
X1419001
Y1111220
X1409000
Y1101220
X1399000
Y1111220
X1389001
Y1101220
X1379000
Y1111220
X1369001
Y1101220
X1359000
X1349000
X1339001
X1329000
Y1111220
X1339001
X1349000
X1359000
X1226402
X1216402
X1206402
Y1101220
X1196402
Y1111220
X1186402
Y1101220
X1176402
Y1111220
X1166402
Y1101220
X1156402
Y1111220
X1146402
Y1101220
X1136402
X1126402
X1116402
Y1111220
X1126402
X1136402
X1216402Y1101220
X1226402
X1013804
Y1111220
X1003804
X993804
Y1101220
X983804
Y1111220
X973804
Y1101220
X963804
Y1111220
X1003804Y1101220
X953804
Y1111220
X943804
Y1101220
X933804
X923804
X913804
X903804
Y1111220
X913804
X923804
X933804
X801205
Y1101220
X791205
X781205
Y1111220
X771205
Y1101220
X761205
Y1111220
X751205
Y1101220
X741205
Y1111220
X731205
Y1101220
X721205
X711205
X701205
X691205
Y1111220
X701205
X711205
X721205
X791205
X588607
X578607
X568607
Y1101220
X558607
Y1111220
X548607
Y1101220
X538607
Y1111220
X528607
Y1101220
X518607
Y1111220
X508607
Y1101220
X498607
X488607
Y1111220
X498607
X578607Y1101220
X588607
X478607
Y1111220
X376008
X366008
X356008
Y1101220
X346008
Y1111220
X336008
Y1101220
X366008
X376008
X326008
Y1111220
X316008
Y1101220
X306008
Y1111220
X296008
Y1101220
X286008
X276008
X266008
Y1111220
X276008
X286008
X163410
X153410
X143410
Y1101220
X133410
Y1111220
X123410
Y1101220
X113410
Y1111220
X103410
Y1101220
X93410
Y1111220
X83410
Y1101220
X73410
X63410
X53410
Y1111220
X63410
X73410
X153410Y1101220
X163410
M30
