G04 Layer_Color=128*
%FSLAX25Y25*%
%MOIN*%
G70*
G01*
G75*
%ADD27C,0.00200*%
D27*
X141442Y1101220D02*
X145378D01*
X143410Y1099251D02*
Y1103189D01*
X141442Y1111220D02*
X145378D01*
X143410Y1109251D02*
Y1113188D01*
X131441Y1101220D02*
X135379D01*
X133410Y1099251D02*
Y1103189D01*
X131441Y1111220D02*
X135379D01*
X133410Y1109251D02*
Y1113188D01*
X121441Y1101220D02*
X125379D01*
X123410Y1099251D02*
Y1103189D01*
X121441Y1111220D02*
X125379D01*
X123410Y1109251D02*
Y1113188D01*
X111442Y1101220D02*
X115378D01*
X113410Y1099251D02*
Y1103189D01*
X111442Y1111220D02*
X115378D01*
X113410Y1109251D02*
Y1113188D01*
X101442Y1101220D02*
X105378D01*
X103410Y1099251D02*
Y1103189D01*
X101442Y1111220D02*
X105378D01*
X103410Y1109251D02*
Y1113188D01*
X91442Y1101220D02*
X95379D01*
X93410Y1099251D02*
Y1103189D01*
X91442Y1111220D02*
X95379D01*
X93410Y1109251D02*
Y1113188D01*
X81441Y1101220D02*
X85378D01*
X83410Y1099251D02*
Y1103189D01*
X51442Y1101220D02*
X55379D01*
X53410Y1099251D02*
Y1103189D01*
X61441Y1101220D02*
X65378D01*
X63410Y1099251D02*
Y1103189D01*
X61441Y1111220D02*
X65378D01*
X63410Y1109251D02*
Y1113188D01*
X71442Y1111220D02*
X75379D01*
X73410Y1109251D02*
Y1113188D01*
X71442Y1101220D02*
X75379D01*
X73410Y1099251D02*
Y1103189D01*
X161442Y1111220D02*
X165378D01*
X163410Y1109251D02*
Y1113188D01*
X151442Y1111220D02*
X155378D01*
X153410Y1109251D02*
Y1113188D01*
X151442Y1101220D02*
X155378D01*
X153410Y1099251D02*
Y1103189D01*
X81441Y1111220D02*
X85378D01*
X83410Y1109251D02*
Y1113188D01*
X161442Y1101220D02*
X165378D01*
X163410Y1099251D02*
Y1103189D01*
X51442Y1111220D02*
X55379D01*
X53410Y1109251D02*
Y1113188D01*
X354040Y1101220D02*
X357977D01*
X356008Y1099251D02*
Y1103189D01*
X354040Y1111220D02*
X357977D01*
X356008Y1109251D02*
Y1113188D01*
X344040Y1101220D02*
X347977D01*
X346008Y1099251D02*
Y1103189D01*
X344040Y1111220D02*
X347977D01*
X346008Y1109251D02*
Y1113188D01*
X334040Y1101220D02*
X337977D01*
X336008Y1099251D02*
Y1103189D01*
X334040Y1111220D02*
X337977D01*
X336008Y1109251D02*
Y1113188D01*
X324040Y1101220D02*
X327977D01*
X326008Y1099251D02*
Y1103189D01*
X324040Y1111220D02*
X327977D01*
X326008Y1109251D02*
Y1113188D01*
X314040Y1101220D02*
X317977D01*
X316008Y1099251D02*
Y1103189D01*
X314040Y1111220D02*
X317977D01*
X316008Y1109251D02*
Y1113188D01*
X304040Y1101220D02*
X307977D01*
X306008Y1099251D02*
Y1103189D01*
X304040Y1111220D02*
X307977D01*
X306008Y1109251D02*
Y1113188D01*
X294040Y1101220D02*
X297977D01*
X296008Y1099251D02*
Y1103189D01*
X264040Y1101220D02*
X267977D01*
X266008Y1099251D02*
Y1103189D01*
X274040Y1101220D02*
X277977D01*
X276008Y1099251D02*
Y1103189D01*
X274040Y1111220D02*
X277977D01*
X276008Y1109251D02*
Y1113188D01*
X284040Y1111220D02*
X287977D01*
X286008Y1109251D02*
Y1113188D01*
X284040Y1101220D02*
X287977D01*
X286008Y1099251D02*
Y1103189D01*
X374040Y1111220D02*
X377977D01*
X376008Y1109251D02*
Y1113188D01*
X364040Y1111220D02*
X367977D01*
X366008Y1109251D02*
Y1113188D01*
X364040Y1101220D02*
X367977D01*
X366008Y1099251D02*
Y1103189D01*
X294040Y1111220D02*
X297977D01*
X296008Y1109251D02*
Y1113188D01*
X374040Y1101220D02*
X377977D01*
X376008Y1099251D02*
Y1103189D01*
X264040Y1111220D02*
X267977D01*
X266008Y1109251D02*
Y1113188D01*
X566638Y1101220D02*
X570575D01*
X568607Y1099251D02*
Y1103189D01*
X566638Y1111220D02*
X570575D01*
X568607Y1109251D02*
Y1113188D01*
X556638Y1101220D02*
X560575D01*
X558607Y1099251D02*
Y1103189D01*
X556638Y1111220D02*
X560575D01*
X558607Y1109251D02*
Y1113188D01*
X546638Y1101220D02*
X550575D01*
X548607Y1099251D02*
Y1103189D01*
X546638Y1111220D02*
X550575D01*
X548607Y1109251D02*
Y1113188D01*
X536638Y1101220D02*
X540575D01*
X538607Y1099251D02*
Y1103189D01*
X536638Y1111220D02*
X540575D01*
X538607Y1109251D02*
Y1113188D01*
X526638Y1101220D02*
X530575D01*
X528607Y1099251D02*
Y1103189D01*
X526638Y1111220D02*
X530575D01*
X528607Y1109251D02*
Y1113188D01*
X516638Y1101220D02*
X520575D01*
X518607Y1099251D02*
Y1103189D01*
X516638Y1111220D02*
X520575D01*
X518607Y1109251D02*
Y1113188D01*
X506638Y1101220D02*
X510575D01*
X508607Y1099251D02*
Y1103189D01*
X476638Y1101220D02*
X480575D01*
X478607Y1099251D02*
Y1103189D01*
X486638Y1101220D02*
X490575D01*
X488607Y1099251D02*
Y1103189D01*
X486638Y1111220D02*
X490575D01*
X488607Y1109251D02*
Y1113188D01*
X496638Y1111220D02*
X500575D01*
X498607Y1109251D02*
Y1113188D01*
X496638Y1101220D02*
X500575D01*
X498607Y1099251D02*
Y1103189D01*
X586638Y1111220D02*
X590575D01*
X588607Y1109251D02*
Y1113188D01*
X576638Y1111220D02*
X580575D01*
X578607Y1109251D02*
Y1113188D01*
X576638Y1101220D02*
X580575D01*
X578607Y1099251D02*
Y1103189D01*
X506638Y1111220D02*
X510575D01*
X508607Y1109251D02*
Y1113188D01*
X586638Y1101220D02*
X590575D01*
X588607Y1099251D02*
Y1103189D01*
X476638Y1111220D02*
X480575D01*
X478607Y1109251D02*
Y1113188D01*
X779237Y1101220D02*
X783174D01*
X781205Y1099251D02*
Y1103189D01*
X779237Y1111220D02*
X783174D01*
X781205Y1109251D02*
Y1113188D01*
X769237Y1101220D02*
X773174D01*
X771205Y1099251D02*
Y1103189D01*
X769237Y1111220D02*
X773174D01*
X771205Y1109251D02*
Y1113188D01*
X759237Y1101220D02*
X763174D01*
X761205Y1099251D02*
Y1103189D01*
X759237Y1111220D02*
X763174D01*
X761205Y1109251D02*
Y1113188D01*
X749237Y1101220D02*
X753174D01*
X751205Y1099251D02*
Y1103189D01*
X749237Y1111220D02*
X753174D01*
X751205Y1109251D02*
Y1113188D01*
X739237Y1101220D02*
X743174D01*
X741205Y1099251D02*
Y1103189D01*
X739237Y1111220D02*
X743174D01*
X741205Y1109251D02*
Y1113188D01*
X729237Y1101220D02*
X733174D01*
X731205Y1099251D02*
Y1103189D01*
X729237Y1111220D02*
X733174D01*
X731205Y1109251D02*
Y1113188D01*
X719237Y1101220D02*
X723174D01*
X721205Y1099251D02*
Y1103189D01*
X689237Y1101220D02*
X693174D01*
X691205Y1099251D02*
Y1103189D01*
X699237Y1101220D02*
X703174D01*
X701205Y1099251D02*
Y1103189D01*
X699237Y1111220D02*
X703174D01*
X701205Y1109251D02*
Y1113188D01*
X709237Y1111220D02*
X713174D01*
X711205Y1109251D02*
Y1113188D01*
X709237Y1101220D02*
X713174D01*
X711205Y1099251D02*
Y1103189D01*
X799237Y1111220D02*
X803174D01*
X801205Y1109251D02*
Y1113188D01*
X789237Y1111220D02*
X793174D01*
X791205Y1109251D02*
Y1113188D01*
X789237Y1101220D02*
X793174D01*
X791205Y1099251D02*
Y1103189D01*
X719237Y1111220D02*
X723174D01*
X721205Y1109251D02*
Y1113188D01*
X799237Y1101220D02*
X803174D01*
X801205Y1099251D02*
Y1103189D01*
X689237Y1111220D02*
X693174D01*
X691205Y1109251D02*
Y1113188D01*
X991835Y1101220D02*
X995772D01*
X993804Y1099251D02*
Y1103189D01*
X991835Y1111220D02*
X995772D01*
X993804Y1109251D02*
Y1113188D01*
X981835Y1101220D02*
X985772D01*
X983804Y1099251D02*
Y1103189D01*
X981835Y1111220D02*
X985772D01*
X983804Y1109251D02*
Y1113188D01*
X971835Y1101220D02*
X975772D01*
X973804Y1099251D02*
Y1103189D01*
X971835Y1111220D02*
X975772D01*
X973804Y1109251D02*
Y1113188D01*
X961835Y1101220D02*
X965772D01*
X963804Y1099251D02*
Y1103189D01*
X961835Y1111220D02*
X965772D01*
X963804Y1109251D02*
Y1113188D01*
X951835Y1101220D02*
X955772D01*
X953804Y1099251D02*
Y1103189D01*
X951835Y1111220D02*
X955772D01*
X953804Y1109251D02*
Y1113188D01*
X941835Y1101220D02*
X945772D01*
X943804Y1099251D02*
Y1103189D01*
X941835Y1111220D02*
X945772D01*
X943804Y1109251D02*
Y1113188D01*
X931835Y1101220D02*
X935772D01*
X933804Y1099251D02*
Y1103189D01*
X901835Y1101220D02*
X905772D01*
X903804Y1099251D02*
Y1103189D01*
X911835Y1101220D02*
X915772D01*
X913804Y1099251D02*
Y1103189D01*
X911835Y1111220D02*
X915772D01*
X913804Y1109251D02*
Y1113188D01*
X921835Y1111220D02*
X925772D01*
X923804Y1109251D02*
Y1113188D01*
X921835Y1101220D02*
X925772D01*
X923804Y1099251D02*
Y1103189D01*
X1011835Y1111220D02*
X1015772D01*
X1013804Y1109251D02*
Y1113188D01*
X1001835Y1111220D02*
X1005772D01*
X1003804Y1109251D02*
Y1113188D01*
X1001835Y1101220D02*
X1005772D01*
X1003804Y1099251D02*
Y1103189D01*
X931835Y1111220D02*
X935772D01*
X933804Y1109251D02*
Y1113188D01*
X1011835Y1101220D02*
X1015772D01*
X1013804Y1099251D02*
Y1103189D01*
X901835Y1111220D02*
X905772D01*
X903804Y1109251D02*
Y1113188D01*
X1204434Y1101220D02*
X1208371D01*
X1206402Y1099251D02*
Y1103189D01*
X1204434Y1111220D02*
X1208371D01*
X1206402Y1109251D02*
Y1113188D01*
X1194434Y1101220D02*
X1198371D01*
X1196402Y1099251D02*
Y1103189D01*
X1194434Y1111220D02*
X1198371D01*
X1196402Y1109251D02*
Y1113188D01*
X1184434Y1101220D02*
X1188371D01*
X1186402Y1099251D02*
Y1103189D01*
X1184434Y1111220D02*
X1188371D01*
X1186402Y1109251D02*
Y1113188D01*
X1174434Y1101220D02*
X1178371D01*
X1176402Y1099251D02*
Y1103189D01*
X1174434Y1111220D02*
X1178371D01*
X1176402Y1109251D02*
Y1113188D01*
X1164434Y1101220D02*
X1168371D01*
X1166402Y1099251D02*
Y1103189D01*
X1164434Y1111220D02*
X1168371D01*
X1166402Y1109251D02*
Y1113188D01*
X1154434Y1101220D02*
X1158371D01*
X1156402Y1099251D02*
Y1103189D01*
X1154434Y1111220D02*
X1158371D01*
X1156402Y1109251D02*
Y1113188D01*
X1144434Y1101220D02*
X1148371D01*
X1146402Y1099251D02*
Y1103189D01*
X1114434Y1101220D02*
X1118371D01*
X1116402Y1099251D02*
Y1103189D01*
X1124434Y1101220D02*
X1128371D01*
X1126402Y1099251D02*
Y1103189D01*
X1124434Y1111220D02*
X1128371D01*
X1126402Y1109251D02*
Y1113188D01*
X1134434Y1111220D02*
X1138371D01*
X1136402Y1109251D02*
Y1113188D01*
X1134434Y1101220D02*
X1138371D01*
X1136402Y1099251D02*
Y1103189D01*
X1224434Y1111220D02*
X1228371D01*
X1226402Y1109251D02*
Y1113188D01*
X1214434Y1111220D02*
X1218371D01*
X1216402Y1109251D02*
Y1113188D01*
X1214434Y1101220D02*
X1218371D01*
X1216402Y1099251D02*
Y1103189D01*
X1144434Y1111220D02*
X1148371D01*
X1146402Y1109251D02*
Y1113188D01*
X1224434Y1101220D02*
X1228371D01*
X1226402Y1099251D02*
Y1103189D01*
X1114434Y1111220D02*
X1118371D01*
X1116402Y1109251D02*
Y1113188D01*
X1417032Y1101220D02*
X1420969D01*
X1419001Y1099251D02*
Y1103189D01*
X1417032Y1111220D02*
X1420969D01*
X1419001Y1109251D02*
Y1113188D01*
X1407032Y1101220D02*
X1410969D01*
X1409000Y1099251D02*
Y1103189D01*
X1407032Y1111220D02*
X1410969D01*
X1409000Y1109251D02*
Y1113188D01*
X1397032Y1101220D02*
X1400969D01*
X1399000Y1099251D02*
Y1103189D01*
X1397032Y1111220D02*
X1400969D01*
X1399000Y1109251D02*
Y1113188D01*
X1387032Y1101220D02*
X1390969D01*
X1389001Y1099251D02*
Y1103189D01*
X1387032Y1111220D02*
X1390969D01*
X1389001Y1109251D02*
Y1113188D01*
X1377032Y1101220D02*
X1380969D01*
X1379000Y1099251D02*
Y1103189D01*
X1377032Y1111220D02*
X1380969D01*
X1379000Y1109251D02*
Y1113188D01*
X1367032Y1101220D02*
X1370969D01*
X1369001Y1099251D02*
Y1103189D01*
X1367032Y1111220D02*
X1370969D01*
X1369001Y1109251D02*
Y1113188D01*
X1357032Y1101220D02*
X1360969D01*
X1359000Y1099251D02*
Y1103189D01*
X1327032Y1101220D02*
X1330969D01*
X1329000Y1099251D02*
Y1103189D01*
X1337032Y1101220D02*
X1340969D01*
X1339001Y1099251D02*
Y1103189D01*
X1337032Y1111220D02*
X1340969D01*
X1339001Y1109251D02*
Y1113188D01*
X1347032Y1111220D02*
X1350969D01*
X1349000Y1109251D02*
Y1113188D01*
X1347032Y1101220D02*
X1350969D01*
X1349000Y1099251D02*
Y1103189D01*
X1437032Y1111220D02*
X1440969D01*
X1439001Y1109251D02*
Y1113188D01*
X1427032Y1111220D02*
X1430969D01*
X1429000Y1109251D02*
Y1113188D01*
X1427032Y1101220D02*
X1430969D01*
X1429000Y1099251D02*
Y1103189D01*
X1357032Y1111220D02*
X1360969D01*
X1359000Y1109251D02*
Y1113188D01*
X1437032Y1101220D02*
X1440969D01*
X1439001Y1099251D02*
Y1103189D01*
X1327032Y1111220D02*
X1330969D01*
X1329000Y1109251D02*
Y1113188D01*
X1629630Y1101220D02*
X1633567D01*
X1631599Y1099251D02*
Y1103189D01*
X1629630Y1111220D02*
X1633567D01*
X1631599Y1109251D02*
Y1113188D01*
X1619630Y1101220D02*
X1623568D01*
X1621599Y1099251D02*
Y1103189D01*
X1619630Y1111220D02*
X1623568D01*
X1621599Y1109251D02*
Y1113188D01*
X1609631Y1101220D02*
X1613568D01*
X1611599Y1099251D02*
Y1103189D01*
X1609631Y1111220D02*
X1613568D01*
X1611599Y1109251D02*
Y1113188D01*
X1599631Y1101220D02*
X1603568D01*
X1601599Y1099251D02*
Y1103189D01*
X1599631Y1111220D02*
X1603568D01*
X1601599Y1109251D02*
Y1113188D01*
X1589631Y1101220D02*
X1593567D01*
X1591599Y1099251D02*
Y1103189D01*
X1589631Y1111220D02*
X1593567D01*
X1591599Y1109251D02*
Y1113188D01*
X1579630Y1101220D02*
X1583568D01*
X1581599Y1099251D02*
Y1103189D01*
X1579630Y1111220D02*
X1583568D01*
X1581599Y1109251D02*
Y1113188D01*
X1569631Y1101220D02*
X1573567D01*
X1571599Y1099251D02*
Y1103189D01*
X1539631Y1101220D02*
X1543567D01*
X1541599Y1099251D02*
Y1103189D01*
X1549631Y1101220D02*
X1553568D01*
X1551599Y1099251D02*
Y1103189D01*
X1549631Y1111220D02*
X1553568D01*
X1551599Y1109251D02*
Y1113188D01*
X1559630Y1111220D02*
X1563568D01*
X1561599Y1109251D02*
Y1113188D01*
X1559630Y1101220D02*
X1563568D01*
X1561599Y1099251D02*
Y1103189D01*
X1649631Y1111220D02*
X1653568D01*
X1651599Y1109251D02*
Y1113188D01*
X1639631Y1111220D02*
X1643567D01*
X1641599Y1109251D02*
Y1113188D01*
X1639631Y1101220D02*
X1643567D01*
X1641599Y1099251D02*
Y1103189D01*
X1569631Y1111220D02*
X1573567D01*
X1571599Y1109251D02*
Y1113188D01*
X1649631Y1101220D02*
X1653568D01*
X1651599Y1099251D02*
Y1103189D01*
X1539631Y1111220D02*
X1543567D01*
X1541599Y1109251D02*
Y1113188D01*
X4134Y1009842D02*
X5315D01*
X4724Y1009252D02*
Y1010433D01*
X52559Y1058661D02*
X53740D01*
X53150Y1058071D02*
Y1059252D01*
X52559Y952362D02*
X53740D01*
X53150Y951772D02*
Y952953D01*
X4134Y903543D02*
X5315D01*
X4724Y902953D02*
Y904134D01*
X52559Y846063D02*
X53740D01*
X53150Y845472D02*
Y846653D01*
X4134Y797244D02*
X5315D01*
X4724Y796654D02*
Y797835D01*
X52559Y739764D02*
X53740D01*
X53150Y739173D02*
Y740354D01*
X4134Y690945D02*
X5315D01*
X4724Y690354D02*
Y691535D01*
X52559Y633465D02*
X53740D01*
X53150Y632874D02*
Y634055D01*
X4134Y584646D02*
X5315D01*
X4724Y584055D02*
Y585236D01*
X52559Y527165D02*
X53740D01*
X53150Y526575D02*
Y527756D01*
X4134Y478346D02*
X5315D01*
X4724Y477756D02*
Y478937D01*
X52559Y420866D02*
X53740D01*
X53150Y420276D02*
Y421457D01*
X4134Y372047D02*
X5315D01*
X4724Y371457D02*
Y372638D01*
X52559Y314567D02*
X53740D01*
X53150Y313976D02*
Y315158D01*
X4134Y265748D02*
X5315D01*
X4724Y265158D02*
Y266339D01*
X52559Y208268D02*
X53740D01*
X53150Y207677D02*
Y208858D01*
X4134Y159449D02*
X5315D01*
X4724Y158858D02*
Y160039D01*
X52559Y101969D02*
X53740D01*
X53150Y101378D02*
Y102559D01*
X4134Y53150D02*
X5315D01*
X4724Y52559D02*
Y53740D01*
X110433Y53150D02*
X111614D01*
X111024Y52559D02*
Y53740D01*
X158858Y101969D02*
X160039D01*
X159449Y101378D02*
Y102559D01*
X110433Y159449D02*
X111614D01*
X111024Y158858D02*
Y160039D01*
X158858Y208268D02*
X160039D01*
X159449Y207677D02*
Y208858D01*
X110433Y265748D02*
X111614D01*
X111024Y265158D02*
Y266339D01*
X158858Y314567D02*
X160039D01*
X159449Y313976D02*
Y315158D01*
X110433Y372047D02*
X111614D01*
X111024Y371457D02*
Y372638D01*
X158858Y420866D02*
X160039D01*
X159449Y420276D02*
Y421457D01*
X110433Y478346D02*
X111614D01*
X111024Y477756D02*
Y478937D01*
X158858Y527165D02*
X160039D01*
X159449Y526575D02*
Y527756D01*
X110433Y584646D02*
X111614D01*
X111024Y584055D02*
Y585236D01*
X158858Y633465D02*
X160039D01*
X159449Y632874D02*
Y634055D01*
X110433Y690945D02*
X111614D01*
X111024Y690354D02*
Y691535D01*
X158858Y739764D02*
X160039D01*
X159449Y739173D02*
Y740354D01*
X110433Y797244D02*
X111614D01*
X111024Y796654D02*
Y797835D01*
X158858Y846063D02*
X160039D01*
X159449Y845472D02*
Y846653D01*
X110433Y903543D02*
X111614D01*
X111024Y902953D02*
Y904134D01*
X158858Y952362D02*
X160039D01*
X159449Y951772D02*
Y952953D01*
X158858Y1058661D02*
X160039D01*
X159449Y1058071D02*
Y1059252D01*
X110433Y1009842D02*
X111614D01*
X111024Y1009252D02*
Y1010433D01*
X216732Y53150D02*
X217913D01*
X217323Y52559D02*
Y53740D01*
X265158Y101969D02*
X266339D01*
X265748Y101378D02*
Y102559D01*
X216732Y159449D02*
X217913D01*
X217323Y158858D02*
Y160039D01*
X265158Y208268D02*
X266339D01*
X265748Y207677D02*
Y208858D01*
X216732Y265748D02*
X217913D01*
X217323Y265158D02*
Y266339D01*
X265158Y314567D02*
X266339D01*
X265748Y313976D02*
Y315158D01*
X216732Y372047D02*
X217913D01*
X217323Y371457D02*
Y372638D01*
X265158Y420866D02*
X266339D01*
X265748Y420276D02*
Y421457D01*
X216732Y478346D02*
X217913D01*
X217323Y477756D02*
Y478937D01*
X265158Y527165D02*
X266339D01*
X265748Y526575D02*
Y527756D01*
X216732Y584646D02*
X217913D01*
X217323Y584055D02*
Y585236D01*
X265158Y633465D02*
X266339D01*
X265748Y632874D02*
Y634055D01*
X216732Y690945D02*
X217913D01*
X217323Y690354D02*
Y691535D01*
X265158Y739764D02*
X266339D01*
X265748Y739173D02*
Y740354D01*
X216732Y797244D02*
X217913D01*
X217323Y796654D02*
Y797835D01*
X265158Y846063D02*
X266339D01*
X265748Y845472D02*
Y846653D01*
X216732Y903543D02*
X217913D01*
X217323Y902953D02*
Y904134D01*
X265158Y952362D02*
X266339D01*
X265748Y951772D02*
Y952953D01*
X265158Y1058661D02*
X266339D01*
X265748Y1058071D02*
Y1059252D01*
X216732Y1009842D02*
X217913D01*
X217323Y1009252D02*
Y1010433D01*
X323031Y53150D02*
X324213D01*
X323622Y52559D02*
Y53740D01*
X371457Y101969D02*
X372638D01*
X372047Y101378D02*
Y102559D01*
X323031Y159449D02*
X324213D01*
X323622Y158858D02*
Y160039D01*
X371457Y208268D02*
X372638D01*
X372047Y207677D02*
Y208858D01*
X323031Y265748D02*
X324213D01*
X323622Y265158D02*
Y266339D01*
X371457Y314567D02*
X372638D01*
X372047Y313976D02*
Y315158D01*
X323031Y372047D02*
X324213D01*
X323622Y371457D02*
Y372638D01*
X371457Y420866D02*
X372638D01*
X372047Y420276D02*
Y421457D01*
X323031Y478346D02*
X324213D01*
X323622Y477756D02*
Y478937D01*
X371457Y527165D02*
X372638D01*
X372047Y526575D02*
Y527756D01*
X323031Y584646D02*
X324213D01*
X323622Y584055D02*
Y585236D01*
X371457Y633465D02*
X372638D01*
X372047Y632874D02*
Y634055D01*
X323031Y690945D02*
X324213D01*
X323622Y690354D02*
Y691535D01*
X371457Y739764D02*
X372638D01*
X372047Y739173D02*
Y740354D01*
X323031Y797244D02*
X324213D01*
X323622Y796654D02*
Y797835D01*
X371457Y846063D02*
X372638D01*
X372047Y845472D02*
Y846653D01*
X323031Y903543D02*
X324213D01*
X323622Y902953D02*
Y904134D01*
X371457Y952362D02*
X372638D01*
X372047Y951772D02*
Y952953D01*
X371457Y1058661D02*
X372638D01*
X372047Y1058071D02*
Y1059252D01*
X323031Y1009842D02*
X324213D01*
X323622Y1009252D02*
Y1010433D01*
X429331Y53150D02*
X430512D01*
X429921Y52559D02*
Y53740D01*
X477756Y101969D02*
X478937D01*
X478346Y101378D02*
Y102559D01*
X429331Y159449D02*
X430512D01*
X429921Y158858D02*
Y160039D01*
X477756Y208268D02*
X478937D01*
X478346Y207677D02*
Y208858D01*
X429331Y265748D02*
X430512D01*
X429921Y265158D02*
Y266339D01*
X477756Y314567D02*
X478937D01*
X478346Y313976D02*
Y315158D01*
X429331Y372047D02*
X430512D01*
X429921Y371457D02*
Y372638D01*
X477756Y420866D02*
X478937D01*
X478346Y420276D02*
Y421457D01*
X429331Y478346D02*
X430512D01*
X429921Y477756D02*
Y478937D01*
X477756Y527165D02*
X478937D01*
X478346Y526575D02*
Y527756D01*
X429331Y584646D02*
X430512D01*
X429921Y584055D02*
Y585236D01*
X477756Y633465D02*
X478937D01*
X478346Y632874D02*
Y634055D01*
X429331Y690945D02*
X430512D01*
X429921Y690354D02*
Y691535D01*
X477756Y739764D02*
X478937D01*
X478346Y739173D02*
Y740354D01*
X429331Y797244D02*
X430512D01*
X429921Y796654D02*
Y797835D01*
X477756Y846063D02*
X478937D01*
X478346Y845472D02*
Y846653D01*
X429331Y903543D02*
X430512D01*
X429921Y902953D02*
Y904134D01*
X477756Y952362D02*
X478937D01*
X478346Y951772D02*
Y952953D01*
X477756Y1058661D02*
X478937D01*
X478346Y1058071D02*
Y1059252D01*
X429331Y1009842D02*
X430512D01*
X429921Y1009252D02*
Y1010433D01*
X535630Y53150D02*
X536811D01*
X536221Y52559D02*
Y53740D01*
X584055Y101969D02*
X585236D01*
X584646Y101378D02*
Y102559D01*
X535630Y159449D02*
X536811D01*
X536221Y158858D02*
Y160039D01*
X584055Y208268D02*
X585236D01*
X584646Y207677D02*
Y208858D01*
X535630Y265748D02*
X536811D01*
X536221Y265158D02*
Y266339D01*
X584055Y314567D02*
X585236D01*
X584646Y313976D02*
Y315158D01*
X535630Y372047D02*
X536811D01*
X536221Y371457D02*
Y372638D01*
X584055Y420866D02*
X585236D01*
X584646Y420276D02*
Y421457D01*
X535630Y478346D02*
X536811D01*
X536221Y477756D02*
Y478937D01*
X584055Y527165D02*
X585236D01*
X584646Y526575D02*
Y527756D01*
X535630Y584646D02*
X536811D01*
X536221Y584055D02*
Y585236D01*
X584055Y633465D02*
X585236D01*
X584646Y632874D02*
Y634055D01*
X535630Y690945D02*
X536811D01*
X536221Y690354D02*
Y691535D01*
X584055Y739764D02*
X585236D01*
X584646Y739173D02*
Y740354D01*
X535630Y797244D02*
X536811D01*
X536221Y796654D02*
Y797835D01*
X584055Y846063D02*
X585236D01*
X584646Y845472D02*
Y846653D01*
X535630Y903543D02*
X536811D01*
X536221Y902953D02*
Y904134D01*
X584055Y952362D02*
X585236D01*
X584646Y951772D02*
Y952953D01*
X584055Y1058661D02*
X585236D01*
X584646Y1058071D02*
Y1059252D01*
X535630Y1009842D02*
X536811D01*
X536221Y1009252D02*
Y1010433D01*
X641929Y53150D02*
X643110D01*
X642520Y52559D02*
Y53740D01*
X690354Y101969D02*
X691535D01*
X690945Y101378D02*
Y102559D01*
X641929Y159449D02*
X643110D01*
X642520Y158858D02*
Y160039D01*
X690354Y208268D02*
X691535D01*
X690945Y207677D02*
Y208858D01*
X641929Y265748D02*
X643110D01*
X642520Y265158D02*
Y266339D01*
X690354Y314567D02*
X691535D01*
X690945Y313976D02*
Y315158D01*
X641929Y372047D02*
X643110D01*
X642520Y371457D02*
Y372638D01*
X690354Y420866D02*
X691535D01*
X690945Y420276D02*
Y421457D01*
X641929Y478346D02*
X643110D01*
X642520Y477756D02*
Y478937D01*
X690354Y527165D02*
X691535D01*
X690945Y526575D02*
Y527756D01*
X641929Y584646D02*
X643110D01*
X642520Y584055D02*
Y585236D01*
X690354Y633465D02*
X691535D01*
X690945Y632874D02*
Y634055D01*
X641929Y690945D02*
X643110D01*
X642520Y690354D02*
Y691535D01*
X690354Y739764D02*
X691535D01*
X690945Y739173D02*
Y740354D01*
X641929Y797244D02*
X643110D01*
X642520Y796654D02*
Y797835D01*
X690354Y846063D02*
X691535D01*
X690945Y845472D02*
Y846653D01*
X641929Y903543D02*
X643110D01*
X642520Y902953D02*
Y904134D01*
X690354Y952362D02*
X691535D01*
X690945Y951772D02*
Y952953D01*
X690354Y1058661D02*
X691535D01*
X690945Y1058071D02*
Y1059252D01*
X641929Y1009842D02*
X643110D01*
X642520Y1009252D02*
Y1010433D01*
X748228Y53150D02*
X749409D01*
X748819Y52559D02*
Y53740D01*
X796654Y101969D02*
X797835D01*
X797244Y101378D02*
Y102559D01*
X748228Y159449D02*
X749409D01*
X748819Y158858D02*
Y160039D01*
X796654Y208268D02*
X797835D01*
X797244Y207677D02*
Y208858D01*
X748228Y265748D02*
X749409D01*
X748819Y265158D02*
Y266339D01*
X796654Y314567D02*
X797835D01*
X797244Y313976D02*
Y315158D01*
X748228Y372047D02*
X749409D01*
X748819Y371457D02*
Y372638D01*
X796654Y420866D02*
X797835D01*
X797244Y420276D02*
Y421457D01*
X748228Y478346D02*
X749409D01*
X748819Y477756D02*
Y478937D01*
X796654Y527165D02*
X797835D01*
X797244Y526575D02*
Y527756D01*
X748228Y584646D02*
X749409D01*
X748819Y584055D02*
Y585236D01*
X796654Y633465D02*
X797835D01*
X797244Y632874D02*
Y634055D01*
X748228Y690945D02*
X749409D01*
X748819Y690354D02*
Y691535D01*
X796654Y739764D02*
X797835D01*
X797244Y739173D02*
Y740354D01*
X748228Y797244D02*
X749409D01*
X748819Y796654D02*
Y797835D01*
X796654Y846063D02*
X797835D01*
X797244Y845472D02*
Y846653D01*
X748228Y903543D02*
X749409D01*
X748819Y902953D02*
Y904134D01*
X796654Y952362D02*
X797835D01*
X797244Y951772D02*
Y952953D01*
X796654Y1058661D02*
X797835D01*
X797244Y1058071D02*
Y1059252D01*
X748228Y1009842D02*
X749409D01*
X748819Y1009252D02*
Y1010433D01*
X854528Y53150D02*
X855709D01*
X855118Y52559D02*
Y53740D01*
X902953Y101969D02*
X904134D01*
X903543Y101378D02*
Y102559D01*
X854528Y159449D02*
X855709D01*
X855118Y158858D02*
Y160039D01*
X902953Y208268D02*
X904134D01*
X903543Y207677D02*
Y208858D01*
X854528Y265748D02*
X855709D01*
X855118Y265158D02*
Y266339D01*
X902953Y314567D02*
X904134D01*
X903543Y313976D02*
Y315158D01*
X854528Y372047D02*
X855709D01*
X855118Y371457D02*
Y372638D01*
X902953Y420866D02*
X904134D01*
X903543Y420276D02*
Y421457D01*
X854528Y478346D02*
X855709D01*
X855118Y477756D02*
Y478937D01*
X902953Y527165D02*
X904134D01*
X903543Y526575D02*
Y527756D01*
X854528Y584646D02*
X855709D01*
X855118Y584055D02*
Y585236D01*
X902953Y633465D02*
X904134D01*
X903543Y632874D02*
Y634055D01*
X854528Y690945D02*
X855709D01*
X855118Y690354D02*
Y691535D01*
X902953Y739764D02*
X904134D01*
X903543Y739173D02*
Y740354D01*
X854528Y797244D02*
X855709D01*
X855118Y796654D02*
Y797835D01*
X902953Y846063D02*
X904134D01*
X903543Y845472D02*
Y846653D01*
X854528Y903543D02*
X855709D01*
X855118Y902953D02*
Y904134D01*
X902953Y952362D02*
X904134D01*
X903543Y951772D02*
Y952953D01*
X902953Y1058661D02*
X904134D01*
X903543Y1058071D02*
Y1059252D01*
X854528Y1009842D02*
X855709D01*
X855118Y1009252D02*
Y1010433D01*
X960827Y53150D02*
X962008D01*
X961417Y52559D02*
Y53740D01*
X1009252Y101969D02*
X1010433D01*
X1009842Y101378D02*
Y102559D01*
X960827Y159449D02*
X962008D01*
X961417Y158858D02*
Y160039D01*
X1009252Y208268D02*
X1010433D01*
X1009842Y207677D02*
Y208858D01*
X960827Y265748D02*
X962008D01*
X961417Y265158D02*
Y266339D01*
X1009252Y314567D02*
X1010433D01*
X1009842Y313976D02*
Y315158D01*
X960827Y372047D02*
X962008D01*
X961417Y371457D02*
Y372638D01*
X1009252Y420866D02*
X1010433D01*
X1009842Y420276D02*
Y421457D01*
X960827Y478346D02*
X962008D01*
X961417Y477756D02*
Y478937D01*
X1009252Y527165D02*
X1010433D01*
X1009842Y526575D02*
Y527756D01*
X960827Y584646D02*
X962008D01*
X961417Y584055D02*
Y585236D01*
X1009252Y633465D02*
X1010433D01*
X1009842Y632874D02*
Y634055D01*
X960827Y690945D02*
X962008D01*
X961417Y690354D02*
Y691535D01*
X1009252Y739764D02*
X1010433D01*
X1009842Y739173D02*
Y740354D01*
X960827Y797244D02*
X962008D01*
X961417Y796654D02*
Y797835D01*
X1009252Y846063D02*
X1010433D01*
X1009842Y845472D02*
Y846653D01*
X960827Y903543D02*
X962008D01*
X961417Y902953D02*
Y904134D01*
X1009252Y952362D02*
X1010433D01*
X1009842Y951772D02*
Y952953D01*
X1009252Y1058661D02*
X1010433D01*
X1009842Y1058071D02*
Y1059252D01*
X960827Y1009842D02*
X962008D01*
X961417Y1009252D02*
Y1010433D01*
X1067126Y53150D02*
X1068307D01*
X1067717Y52559D02*
Y53740D01*
X1115551Y101969D02*
X1116732D01*
X1116142Y101378D02*
Y102559D01*
X1067126Y159449D02*
X1068307D01*
X1067717Y158858D02*
Y160039D01*
X1115551Y208268D02*
X1116732D01*
X1116142Y207677D02*
Y208858D01*
X1067126Y265748D02*
X1068307D01*
X1067717Y265158D02*
Y266339D01*
X1115551Y314567D02*
X1116732D01*
X1116142Y313976D02*
Y315158D01*
X1067126Y372047D02*
X1068307D01*
X1067717Y371457D02*
Y372638D01*
X1115551Y420866D02*
X1116732D01*
X1116142Y420276D02*
Y421457D01*
X1067126Y478346D02*
X1068307D01*
X1067717Y477756D02*
Y478937D01*
X1115551Y527165D02*
X1116732D01*
X1116142Y526575D02*
Y527756D01*
X1067126Y584646D02*
X1068307D01*
X1067717Y584055D02*
Y585236D01*
X1115551Y633465D02*
X1116732D01*
X1116142Y632874D02*
Y634055D01*
X1067126Y690945D02*
X1068307D01*
X1067717Y690354D02*
Y691535D01*
X1115551Y739764D02*
X1116732D01*
X1116142Y739173D02*
Y740354D01*
X1067126Y797244D02*
X1068307D01*
X1067717Y796654D02*
Y797835D01*
X1115551Y846063D02*
X1116732D01*
X1116142Y845472D02*
Y846653D01*
X1067126Y903543D02*
X1068307D01*
X1067717Y902953D02*
Y904134D01*
X1115551Y952362D02*
X1116732D01*
X1116142Y951772D02*
Y952953D01*
X1115551Y1058661D02*
X1116732D01*
X1116142Y1058071D02*
Y1059252D01*
X1067126Y1009842D02*
X1068307D01*
X1067717Y1009252D02*
Y1010433D01*
X1173425Y53150D02*
X1174606D01*
X1174016Y52559D02*
Y53740D01*
X1221850Y101969D02*
X1223032D01*
X1222441Y101378D02*
Y102559D01*
X1173425Y159449D02*
X1174606D01*
X1174016Y158858D02*
Y160039D01*
X1221850Y208268D02*
X1223032D01*
X1222441Y207677D02*
Y208858D01*
X1173425Y265748D02*
X1174606D01*
X1174016Y265158D02*
Y266339D01*
X1221850Y314567D02*
X1223032D01*
X1222441Y313976D02*
Y315158D01*
X1173425Y372047D02*
X1174606D01*
X1174016Y371457D02*
Y372638D01*
X1221850Y420866D02*
X1223032D01*
X1222441Y420276D02*
Y421457D01*
X1173425Y478346D02*
X1174606D01*
X1174016Y477756D02*
Y478937D01*
X1221850Y527165D02*
X1223032D01*
X1222441Y526575D02*
Y527756D01*
X1173425Y584646D02*
X1174606D01*
X1174016Y584055D02*
Y585236D01*
X1221850Y633465D02*
X1223032D01*
X1222441Y632874D02*
Y634055D01*
X1173425Y690945D02*
X1174606D01*
X1174016Y690354D02*
Y691535D01*
X1221850Y739764D02*
X1223032D01*
X1222441Y739173D02*
Y740354D01*
X1173425Y797244D02*
X1174606D01*
X1174016Y796654D02*
Y797835D01*
X1221850Y846063D02*
X1223032D01*
X1222441Y845472D02*
Y846653D01*
X1173425Y903543D02*
X1174606D01*
X1174016Y902953D02*
Y904134D01*
X1221850Y952362D02*
X1223032D01*
X1222441Y951772D02*
Y952953D01*
X1221850Y1058661D02*
X1223032D01*
X1222441Y1058071D02*
Y1059252D01*
X1173425Y1009842D02*
X1174606D01*
X1174016Y1009252D02*
Y1010433D01*
X1279724Y53150D02*
X1280906D01*
X1280315Y52559D02*
Y53740D01*
X1328150Y101969D02*
X1329331D01*
X1328740Y101378D02*
Y102559D01*
X1279724Y159449D02*
X1280906D01*
X1280315Y158858D02*
Y160039D01*
X1328150Y208268D02*
X1329331D01*
X1328740Y207677D02*
Y208858D01*
X1279724Y265748D02*
X1280906D01*
X1280315Y265158D02*
Y266339D01*
X1328150Y314567D02*
X1329331D01*
X1328740Y313976D02*
Y315158D01*
X1279724Y372047D02*
X1280906D01*
X1280315Y371457D02*
Y372638D01*
X1328150Y420866D02*
X1329331D01*
X1328740Y420276D02*
Y421457D01*
X1279724Y478346D02*
X1280906D01*
X1280315Y477756D02*
Y478937D01*
X1328150Y527165D02*
X1329331D01*
X1328740Y526575D02*
Y527756D01*
X1279724Y584646D02*
X1280906D01*
X1280315Y584055D02*
Y585236D01*
X1328150Y633465D02*
X1329331D01*
X1328740Y632874D02*
Y634055D01*
X1279724Y690945D02*
X1280906D01*
X1280315Y690354D02*
Y691535D01*
X1328150Y739764D02*
X1329331D01*
X1328740Y739173D02*
Y740354D01*
X1279724Y797244D02*
X1280906D01*
X1280315Y796654D02*
Y797835D01*
X1328150Y846063D02*
X1329331D01*
X1328740Y845472D02*
Y846653D01*
X1279724Y903543D02*
X1280906D01*
X1280315Y902953D02*
Y904134D01*
X1328150Y952362D02*
X1329331D01*
X1328740Y951772D02*
Y952953D01*
X1328150Y1058661D02*
X1329331D01*
X1328740Y1058071D02*
Y1059252D01*
X1279724Y1009842D02*
X1280906D01*
X1280315Y1009252D02*
Y1010433D01*
X1386024Y53150D02*
X1387205D01*
X1386614Y52559D02*
Y53740D01*
X1434449Y101969D02*
X1435630D01*
X1435039Y101378D02*
Y102559D01*
X1386024Y159449D02*
X1387205D01*
X1386614Y158858D02*
Y160039D01*
X1434449Y208268D02*
X1435630D01*
X1435039Y207677D02*
Y208858D01*
X1386024Y265748D02*
X1387205D01*
X1386614Y265158D02*
Y266339D01*
X1434449Y314567D02*
X1435630D01*
X1435039Y313976D02*
Y315158D01*
X1386024Y372047D02*
X1387205D01*
X1386614Y371457D02*
Y372638D01*
X1434449Y420866D02*
X1435630D01*
X1435039Y420276D02*
Y421457D01*
X1386024Y478346D02*
X1387205D01*
X1386614Y477756D02*
Y478937D01*
X1434449Y527165D02*
X1435630D01*
X1435039Y526575D02*
Y527756D01*
X1386024Y584646D02*
X1387205D01*
X1386614Y584055D02*
Y585236D01*
X1434449Y633465D02*
X1435630D01*
X1435039Y632874D02*
Y634055D01*
X1386024Y690945D02*
X1387205D01*
X1386614Y690354D02*
Y691535D01*
X1434449Y739764D02*
X1435630D01*
X1435039Y739173D02*
Y740354D01*
X1386024Y797244D02*
X1387205D01*
X1386614Y796654D02*
Y797835D01*
X1434449Y846063D02*
X1435630D01*
X1435039Y845472D02*
Y846653D01*
X1386024Y903543D02*
X1387205D01*
X1386614Y902953D02*
Y904134D01*
X1434449Y952362D02*
X1435630D01*
X1435039Y951772D02*
Y952953D01*
X1434449Y1058661D02*
X1435630D01*
X1435039Y1058071D02*
Y1059252D01*
X1386024Y1009842D02*
X1387205D01*
X1386614Y1009252D02*
Y1010433D01*
X1492323Y53150D02*
X1493504D01*
X1492913Y52559D02*
Y53740D01*
X1540748Y101969D02*
X1541929D01*
X1541339Y101378D02*
Y102559D01*
X1492323Y159449D02*
X1493504D01*
X1492913Y158858D02*
Y160039D01*
X1540748Y208268D02*
X1541929D01*
X1541339Y207677D02*
Y208858D01*
X1492323Y265748D02*
X1493504D01*
X1492913Y265158D02*
Y266339D01*
X1540748Y314567D02*
X1541929D01*
X1541339Y313976D02*
Y315158D01*
X1492323Y372047D02*
X1493504D01*
X1492913Y371457D02*
Y372638D01*
X1540748Y420866D02*
X1541929D01*
X1541339Y420276D02*
Y421457D01*
X1492323Y478346D02*
X1493504D01*
X1492913Y477756D02*
Y478937D01*
X1540748Y527165D02*
X1541929D01*
X1541339Y526575D02*
Y527756D01*
X1492323Y584646D02*
X1493504D01*
X1492913Y584055D02*
Y585236D01*
X1540748Y633465D02*
X1541929D01*
X1541339Y632874D02*
Y634055D01*
X1492323Y690945D02*
X1493504D01*
X1492913Y690354D02*
Y691535D01*
X1540748Y739764D02*
X1541929D01*
X1541339Y739173D02*
Y740354D01*
X1492323Y797244D02*
X1493504D01*
X1492913Y796654D02*
Y797835D01*
X1540748Y846063D02*
X1541929D01*
X1541339Y845472D02*
Y846653D01*
X1492323Y903543D02*
X1493504D01*
X1492913Y902953D02*
Y904134D01*
X1540748Y952362D02*
X1541929D01*
X1541339Y951772D02*
Y952953D01*
X1540748Y1058661D02*
X1541929D01*
X1541339Y1058071D02*
Y1059252D01*
X1492323Y1009842D02*
X1493504D01*
X1492913Y1009252D02*
Y1010433D01*
X1598622Y53150D02*
X1599803D01*
X1599213Y52559D02*
Y53740D01*
X1647047Y101969D02*
X1648228D01*
X1647638Y101378D02*
Y102559D01*
X1598622Y159449D02*
X1599803D01*
X1599213Y158858D02*
Y160039D01*
X1647047Y208268D02*
X1648228D01*
X1647638Y207677D02*
Y208858D01*
X1598622Y265748D02*
X1599803D01*
X1599213Y265158D02*
Y266339D01*
X1647047Y314567D02*
X1648228D01*
X1647638Y313976D02*
Y315158D01*
X1598622Y372047D02*
X1599803D01*
X1599213Y371457D02*
Y372638D01*
X1647047Y420866D02*
X1648228D01*
X1647638Y420276D02*
Y421457D01*
X1598622Y478346D02*
X1599803D01*
X1599213Y477756D02*
Y478937D01*
X1647047Y527165D02*
X1648228D01*
X1647638Y526575D02*
Y527756D01*
X1598622Y584646D02*
X1599803D01*
X1599213Y584055D02*
Y585236D01*
X1647047Y633465D02*
X1648228D01*
X1647638Y632874D02*
Y634055D01*
X1598622Y690945D02*
X1599803D01*
X1599213Y690354D02*
Y691535D01*
X1647047Y739764D02*
X1648228D01*
X1647638Y739173D02*
Y740354D01*
X1598622Y797244D02*
X1599803D01*
X1599213Y796654D02*
Y797835D01*
X1647047Y846063D02*
X1648228D01*
X1647638Y845472D02*
Y846653D01*
X1598622Y903543D02*
X1599803D01*
X1599213Y902953D02*
Y904134D01*
X1647047Y952362D02*
X1648228D01*
X1647638Y951772D02*
Y952953D01*
X1647047Y1058661D02*
X1648228D01*
X1647638Y1058071D02*
Y1059252D01*
X1598622Y1009842D02*
X1599803D01*
X1599213Y1009252D02*
Y1010433D01*
M02*
