G04 Layer_Physical_Order=3*
G04 Layer_Color=16440176*
%FSLAX25Y25*%
%MOIN*%
G70*
G01*
G75*
%ADD12O,0.04330X0.07870*%
%ADD13O,0.04720X0.07090*%
%ADD14R,0.07087X0.07087*%
%ADD15C,0.07087*%
%ADD16C,0.05906*%
%ADD17C,0.01969*%
%ADD18C,0.01772*%
%ADD19C,0.01772*%
%ADD20C,0.02362*%
%ADD21C,0.01500*%
%ADD22C,0.01000*%
%ADD23C,0.03937*%
%ADD24C,0.01969*%
%ADD25C,0.07874*%
D12*
X3047350Y1746440D02*
D03*
X3081370D02*
D03*
D13*
Y1762970D02*
D03*
X3047350D02*
D03*
D14*
X2950640Y1744140D02*
D03*
D15*
Y1734140D02*
D03*
D16*
X2874810Y1735754D02*
D03*
Y1727880D02*
D03*
Y1720006D02*
D03*
X2857094D02*
D03*
Y1727880D02*
D03*
Y1735754D02*
D03*
D17*
X2531889Y1595700D02*
D03*
X2598424D02*
D03*
X2664960D02*
D03*
Y1438220D02*
D03*
X2598424D02*
D03*
X2531889D02*
D03*
X2664960Y1280739D02*
D03*
X2598424D02*
D03*
X2531889D02*
D03*
X2664960Y1123259D02*
D03*
X2598424D02*
D03*
X2531889D02*
D03*
X2664960Y965779D02*
D03*
X2598424D02*
D03*
X2531889D02*
D03*
X2664960Y808298D02*
D03*
X2598424D02*
D03*
X2531889D02*
D03*
X2664960Y650818D02*
D03*
X2598424D02*
D03*
X2531889D02*
D03*
X2664960Y493338D02*
D03*
X2598424D02*
D03*
X2531889D02*
D03*
X2664960Y335858D02*
D03*
X2598424D02*
D03*
X2531889D02*
D03*
X2664960Y178377D02*
D03*
X2598424D02*
D03*
X2531889D02*
D03*
X2689369D02*
D03*
X2755905D02*
D03*
X2822440D02*
D03*
X2689369Y335858D02*
D03*
X2755905D02*
D03*
X2822440D02*
D03*
X2689369Y493338D02*
D03*
X2755905D02*
D03*
X2822440D02*
D03*
X2689369Y650818D02*
D03*
X2755905D02*
D03*
X2822440D02*
D03*
X2689369Y808298D02*
D03*
X2755905D02*
D03*
X2822440D02*
D03*
X2689369Y965779D02*
D03*
X2755905D02*
D03*
X2822440D02*
D03*
X2689369Y1123259D02*
D03*
X2755905D02*
D03*
X2822440D02*
D03*
X2689369Y1280739D02*
D03*
X2755905D02*
D03*
X2822440D02*
D03*
X2689369Y1438220D02*
D03*
X2755905D02*
D03*
X2822440D02*
D03*
Y1595700D02*
D03*
X2755905D02*
D03*
X2689369D02*
D03*
X2846850Y178377D02*
D03*
X2913385D02*
D03*
X2979921D02*
D03*
X2846850Y335858D02*
D03*
X2913385D02*
D03*
X2979921D02*
D03*
X2846850Y493338D02*
D03*
X2913385D02*
D03*
X2979921D02*
D03*
X2846850Y650818D02*
D03*
X2913385D02*
D03*
X2979921D02*
D03*
X2846850Y808298D02*
D03*
X2913385D02*
D03*
X2979921D02*
D03*
X2846850Y965779D02*
D03*
X2913385D02*
D03*
X2979921D02*
D03*
X2846850Y1123259D02*
D03*
X2913385D02*
D03*
X2979921D02*
D03*
X2846850Y1280739D02*
D03*
X2913385D02*
D03*
X2979921D02*
D03*
X2846850Y1438220D02*
D03*
X2913385D02*
D03*
X2979921D02*
D03*
Y1595700D02*
D03*
X2913385D02*
D03*
X2846850D02*
D03*
X3004330Y178377D02*
D03*
X3070865D02*
D03*
X3137401D02*
D03*
X3004330Y335858D02*
D03*
X3070865D02*
D03*
X3137401D02*
D03*
X3004330Y493338D02*
D03*
X3070865D02*
D03*
X3137401D02*
D03*
X3004330Y650818D02*
D03*
X3070865D02*
D03*
X3137401D02*
D03*
X3004330Y808298D02*
D03*
X3070865D02*
D03*
X3137401D02*
D03*
X3004330Y965779D02*
D03*
X3070865D02*
D03*
X3137401D02*
D03*
X3004330Y1123259D02*
D03*
X3070865D02*
D03*
X3137401D02*
D03*
X3004330Y1280739D02*
D03*
X3070865D02*
D03*
X3137401D02*
D03*
X3004330Y1438220D02*
D03*
X3070865D02*
D03*
X3137401D02*
D03*
X3070865Y1595700D02*
D03*
X3004330D02*
D03*
X1901968D02*
D03*
X1968503D02*
D03*
X2035039D02*
D03*
Y1438220D02*
D03*
X1968503D02*
D03*
X1901968D02*
D03*
X2035039Y1280739D02*
D03*
X1968503D02*
D03*
X1901968D02*
D03*
X2035039Y1123259D02*
D03*
X1968503D02*
D03*
X1901968D02*
D03*
X2035039Y965779D02*
D03*
X1968503D02*
D03*
X1901968D02*
D03*
X2035039Y808298D02*
D03*
X1968503D02*
D03*
X1901968D02*
D03*
X2035039Y650818D02*
D03*
X1968503D02*
D03*
X1901968D02*
D03*
X2035039Y493338D02*
D03*
X1968503D02*
D03*
X1901968D02*
D03*
X2035039Y335858D02*
D03*
X1968503D02*
D03*
X1901968D02*
D03*
X2035039Y178377D02*
D03*
X1968503D02*
D03*
X1901968D02*
D03*
X2059448D02*
D03*
X2125983D02*
D03*
X2192519D02*
D03*
X2059448Y335858D02*
D03*
X2125983D02*
D03*
X2192519D02*
D03*
X2059448Y493338D02*
D03*
X2125983D02*
D03*
X2192519D02*
D03*
X2059448Y650818D02*
D03*
X2125983D02*
D03*
X2192519D02*
D03*
X2059448Y808298D02*
D03*
X2125983D02*
D03*
X2192519D02*
D03*
X2059448Y965779D02*
D03*
X2125983D02*
D03*
X2192519D02*
D03*
X2059448Y1123259D02*
D03*
X2125983D02*
D03*
X2192519D02*
D03*
X2059448Y1280739D02*
D03*
X2125983D02*
D03*
X2192519D02*
D03*
X2059448Y1438220D02*
D03*
X2125983D02*
D03*
X2192519D02*
D03*
Y1595700D02*
D03*
X2125983D02*
D03*
X2059448D02*
D03*
X2216928Y178377D02*
D03*
X2283464D02*
D03*
X2349999D02*
D03*
X2216928Y335858D02*
D03*
X2283464D02*
D03*
X2349999D02*
D03*
X2216928Y493338D02*
D03*
X2283464D02*
D03*
X2349999D02*
D03*
X2216928Y650818D02*
D03*
X2283464D02*
D03*
X2349999D02*
D03*
X2216928Y808298D02*
D03*
X2283464D02*
D03*
X2349999D02*
D03*
X2216928Y965779D02*
D03*
X2283464D02*
D03*
X2349999D02*
D03*
X2216928Y1123259D02*
D03*
X2283464D02*
D03*
X2349999D02*
D03*
X2216928Y1280739D02*
D03*
X2283464D02*
D03*
X2349999D02*
D03*
X2216928Y1438220D02*
D03*
X2283464D02*
D03*
X2349999D02*
D03*
Y1595700D02*
D03*
X2283464D02*
D03*
X2216928D02*
D03*
X2374409Y178377D02*
D03*
X2440944D02*
D03*
X2507479D02*
D03*
X2374409Y335858D02*
D03*
X2440944D02*
D03*
X2507479D02*
D03*
X2374409Y493338D02*
D03*
X2440944D02*
D03*
X2507479D02*
D03*
X2374409Y650818D02*
D03*
X2440944D02*
D03*
X2507479D02*
D03*
X2374409Y808298D02*
D03*
X2440944D02*
D03*
X2507479D02*
D03*
X2374409Y965779D02*
D03*
X2440944D02*
D03*
X2507479D02*
D03*
X2374409Y1123259D02*
D03*
X2440944D02*
D03*
X2507479D02*
D03*
X2374409Y1280739D02*
D03*
X2440944D02*
D03*
X2507479D02*
D03*
X2374409Y1438220D02*
D03*
X2440944D02*
D03*
X2507479D02*
D03*
Y1595700D02*
D03*
X2440944D02*
D03*
X2374409D02*
D03*
X1272046D02*
D03*
X1338582D02*
D03*
X1405117D02*
D03*
Y1438220D02*
D03*
X1338582D02*
D03*
X1272046D02*
D03*
X1405117Y1280739D02*
D03*
X1338582D02*
D03*
X1272046D02*
D03*
X1405117Y1123259D02*
D03*
X1338582D02*
D03*
X1272046D02*
D03*
X1405117Y965779D02*
D03*
X1338582D02*
D03*
X1272046D02*
D03*
X1405117Y808298D02*
D03*
X1338582D02*
D03*
X1272046D02*
D03*
X1405117Y650818D02*
D03*
X1338582D02*
D03*
X1272046D02*
D03*
X1405117Y493338D02*
D03*
X1338582D02*
D03*
X1272046D02*
D03*
X1405117Y335858D02*
D03*
X1338582D02*
D03*
X1272046D02*
D03*
X1405117Y178377D02*
D03*
X1338582D02*
D03*
X1272046D02*
D03*
X1429527D02*
D03*
X1496062D02*
D03*
X1562598D02*
D03*
X1429527Y335858D02*
D03*
X1496062D02*
D03*
X1562598D02*
D03*
X1429527Y493338D02*
D03*
X1496062D02*
D03*
X1562598D02*
D03*
X1429527Y650818D02*
D03*
X1496062D02*
D03*
X1562598D02*
D03*
X1429527Y808298D02*
D03*
X1496062D02*
D03*
X1562598D02*
D03*
X1429527Y965779D02*
D03*
X1496062D02*
D03*
X1562598D02*
D03*
X1429527Y1123259D02*
D03*
X1496062D02*
D03*
X1562598D02*
D03*
X1429527Y1280739D02*
D03*
X1496062D02*
D03*
X1562598D02*
D03*
X1429527Y1438220D02*
D03*
X1496062D02*
D03*
X1562598D02*
D03*
Y1595700D02*
D03*
X1496062D02*
D03*
X1429527D02*
D03*
X1587007Y178377D02*
D03*
X1653543D02*
D03*
X1720078D02*
D03*
X1587007Y335858D02*
D03*
X1653543D02*
D03*
X1720078D02*
D03*
X1587007Y493338D02*
D03*
X1653543D02*
D03*
X1720078D02*
D03*
X1587007Y650818D02*
D03*
X1653543D02*
D03*
X1720078D02*
D03*
X1587007Y808298D02*
D03*
X1653543D02*
D03*
X1720078D02*
D03*
X1587007Y965779D02*
D03*
X1653543D02*
D03*
X1720078D02*
D03*
X1587007Y1123259D02*
D03*
X1653543D02*
D03*
X1720078D02*
D03*
X1587007Y1280739D02*
D03*
X1653543D02*
D03*
X1720078D02*
D03*
X1587007Y1438220D02*
D03*
X1653543D02*
D03*
X1720078D02*
D03*
Y1595700D02*
D03*
X1653543D02*
D03*
X1587007D02*
D03*
X1744487Y178377D02*
D03*
X1811023D02*
D03*
X1877558D02*
D03*
X1744487Y335858D02*
D03*
X1811023D02*
D03*
X1877558D02*
D03*
X1744487Y493338D02*
D03*
X1811023D02*
D03*
X1877558D02*
D03*
X1744487Y650818D02*
D03*
X1811023D02*
D03*
X1877558D02*
D03*
X1744487Y808298D02*
D03*
X1811023D02*
D03*
X1877558D02*
D03*
X1744487Y965779D02*
D03*
X1811023D02*
D03*
X1877558D02*
D03*
X1744487Y1123259D02*
D03*
X1811023D02*
D03*
X1877558D02*
D03*
X1744487Y1280739D02*
D03*
X1811023D02*
D03*
X1877558D02*
D03*
X1744487Y1438220D02*
D03*
X1811023D02*
D03*
X1877558D02*
D03*
Y1595700D02*
D03*
X1811023D02*
D03*
X1744487D02*
D03*
X642125D02*
D03*
X708661D02*
D03*
X775196D02*
D03*
Y1438220D02*
D03*
X708661D02*
D03*
X642125D02*
D03*
X775196Y1280739D02*
D03*
X708661D02*
D03*
X642125D02*
D03*
X775196Y1123259D02*
D03*
X708661D02*
D03*
X642125D02*
D03*
X775196Y965779D02*
D03*
X708661D02*
D03*
X642125D02*
D03*
X775196Y808298D02*
D03*
X708661D02*
D03*
X642125D02*
D03*
X775196Y650818D02*
D03*
X708661D02*
D03*
X642125D02*
D03*
X775196Y493338D02*
D03*
X708661D02*
D03*
X642125D02*
D03*
X775196Y335858D02*
D03*
X708661D02*
D03*
X642125D02*
D03*
X775196Y178377D02*
D03*
X708661D02*
D03*
X642125D02*
D03*
X799606D02*
D03*
X866141D02*
D03*
X932676D02*
D03*
X799606Y335858D02*
D03*
X866141D02*
D03*
X932676D02*
D03*
X799606Y493338D02*
D03*
X866141D02*
D03*
X932676D02*
D03*
X799606Y650818D02*
D03*
X866141D02*
D03*
X932676D02*
D03*
X799606Y808298D02*
D03*
X866141D02*
D03*
X932676D02*
D03*
X799606Y965779D02*
D03*
X866141D02*
D03*
X932676D02*
D03*
X799606Y1123259D02*
D03*
X866141D02*
D03*
X932676D02*
D03*
X799606Y1280739D02*
D03*
X866141D02*
D03*
X932676D02*
D03*
X799606Y1438220D02*
D03*
X866141D02*
D03*
X932676D02*
D03*
Y1595700D02*
D03*
X866141D02*
D03*
X799606D02*
D03*
X957086Y178377D02*
D03*
X1023621D02*
D03*
X1090157D02*
D03*
X957086Y335858D02*
D03*
X1023621D02*
D03*
X1090157D02*
D03*
X957086Y493338D02*
D03*
X1023621D02*
D03*
X1090157D02*
D03*
X957086Y650818D02*
D03*
X1023621D02*
D03*
X1090157D02*
D03*
X957086Y808298D02*
D03*
X1023621D02*
D03*
X1090157D02*
D03*
X957086Y965779D02*
D03*
X1023621D02*
D03*
X1090157D02*
D03*
X957086Y1123259D02*
D03*
X1023621D02*
D03*
X1090157D02*
D03*
X957086Y1280739D02*
D03*
X1023621D02*
D03*
X1090157D02*
D03*
X957086Y1438220D02*
D03*
X1023621D02*
D03*
X1090157D02*
D03*
Y1595700D02*
D03*
X1023621D02*
D03*
X957086D02*
D03*
X1114566Y178377D02*
D03*
X1181102D02*
D03*
X1247637D02*
D03*
X1114566Y335858D02*
D03*
X1181102D02*
D03*
X1247637D02*
D03*
X1114566Y493338D02*
D03*
X1181102D02*
D03*
X1247637D02*
D03*
X1114566Y650818D02*
D03*
X1181102D02*
D03*
X1247637D02*
D03*
X1114566Y808298D02*
D03*
X1181102D02*
D03*
X1247637D02*
D03*
X1114566Y965779D02*
D03*
X1181102D02*
D03*
X1247637D02*
D03*
X1114566Y1123259D02*
D03*
X1181102D02*
D03*
X1247637D02*
D03*
X1114566Y1280739D02*
D03*
X1181102D02*
D03*
X1247637D02*
D03*
X1114566Y1438220D02*
D03*
X1181102D02*
D03*
X1247637D02*
D03*
Y1595700D02*
D03*
X1181102D02*
D03*
X1114566D02*
D03*
X484645D02*
D03*
X551180D02*
D03*
X617716D02*
D03*
Y1438220D02*
D03*
X551180D02*
D03*
X484645D02*
D03*
X617716Y1280739D02*
D03*
X551180D02*
D03*
X484645D02*
D03*
X617716Y1123259D02*
D03*
X551180D02*
D03*
X484645D02*
D03*
X617716Y965779D02*
D03*
X551180D02*
D03*
X484645D02*
D03*
X617716Y808298D02*
D03*
X551180D02*
D03*
X484645D02*
D03*
X617716Y650818D02*
D03*
X551180D02*
D03*
X484645D02*
D03*
X617716Y493338D02*
D03*
X551180D02*
D03*
X484645D02*
D03*
X617716Y335858D02*
D03*
X551180D02*
D03*
X484645D02*
D03*
X617716Y178377D02*
D03*
X551180D02*
D03*
X484645D02*
D03*
X327165Y1595700D02*
D03*
X393700D02*
D03*
X460235D02*
D03*
Y1438220D02*
D03*
X393700D02*
D03*
X327165D02*
D03*
X460235Y1280739D02*
D03*
X393700D02*
D03*
X327165D02*
D03*
X460235Y1123259D02*
D03*
X393700D02*
D03*
X327165D02*
D03*
X460235Y965779D02*
D03*
X393700D02*
D03*
X327165D02*
D03*
X460235Y808298D02*
D03*
X393700D02*
D03*
X327165D02*
D03*
X460235Y650818D02*
D03*
X393700D02*
D03*
X327165D02*
D03*
X460235Y493338D02*
D03*
X393700D02*
D03*
X327165D02*
D03*
X460235Y335858D02*
D03*
X393700D02*
D03*
X327165D02*
D03*
X460235Y178377D02*
D03*
X393700D02*
D03*
X327165D02*
D03*
X169684Y1595700D02*
D03*
X236220D02*
D03*
X302755D02*
D03*
Y1438220D02*
D03*
X236220D02*
D03*
X169684D02*
D03*
X302755Y1280739D02*
D03*
X236220D02*
D03*
X169684D02*
D03*
X302755Y1123259D02*
D03*
X236220D02*
D03*
X169684D02*
D03*
X302755Y965779D02*
D03*
X236220D02*
D03*
X169684D02*
D03*
X302755Y808298D02*
D03*
X236220D02*
D03*
X169684D02*
D03*
X302755Y650818D02*
D03*
X236220D02*
D03*
X169684D02*
D03*
X302755Y493338D02*
D03*
X236220D02*
D03*
X169684D02*
D03*
X302755Y335858D02*
D03*
X236220D02*
D03*
X169684D02*
D03*
X302755Y178377D02*
D03*
X236220D02*
D03*
X169684D02*
D03*
X12204D02*
D03*
Y335858D02*
D03*
Y493338D02*
D03*
Y650818D02*
D03*
Y808298D02*
D03*
Y965779D02*
D03*
Y1123259D02*
D03*
Y1280739D02*
D03*
Y1438220D02*
D03*
Y1595700D02*
D03*
X78739Y178377D02*
D03*
X145275D02*
D03*
X78739Y335858D02*
D03*
X145275D02*
D03*
X78739Y493338D02*
D03*
X145275D02*
D03*
X78739Y650818D02*
D03*
X145275D02*
D03*
X78739Y808298D02*
D03*
X145275D02*
D03*
X78739Y965779D02*
D03*
X145275D02*
D03*
X78739Y1123259D02*
D03*
X145275D02*
D03*
X78739Y1280739D02*
D03*
X145275D02*
D03*
X78739Y1438220D02*
D03*
X145275D02*
D03*
Y1595700D02*
D03*
X78739D02*
D03*
X2875970Y1747450D02*
D03*
X2868810Y1746330D02*
D03*
X2831150Y1732320D02*
D03*
X2868810Y1707760D02*
D03*
X2786620Y1699740D02*
D03*
X3009873Y1695260D02*
D03*
X3053210Y1736360D02*
D03*
X3073790Y1736320D02*
D03*
X2746874Y1700950D02*
D03*
X2998980Y1735850D02*
D03*
X2735180Y1742150D02*
D03*
X2863370Y1695770D02*
D03*
X3137401Y1595700D02*
D03*
D18*
X2884080Y1742775D02*
D03*
X2886180Y1725200D02*
D03*
X2931690Y1743220D02*
D03*
X2910940Y1728810D02*
D03*
X3052210Y1728069D02*
D03*
X3047210D02*
D03*
X2751540Y1724440D02*
D03*
X2771690Y1732320D02*
D03*
Y1740190D02*
D03*
X2831150Y1692950D02*
D03*
Y1700820D02*
D03*
Y1708690D02*
D03*
Y1716570D02*
D03*
X2827800Y1505230D02*
D03*
X2832800D02*
D03*
X2837800D02*
D03*
X2842800D02*
D03*
X2847800D02*
D03*
X2852800Y1526770D02*
D03*
X2817800Y1505230D02*
D03*
X2187879Y1505230D02*
D03*
X2222879Y1526770D02*
D03*
X2217879Y1505230D02*
D03*
X2212879D02*
D03*
X2207879D02*
D03*
X2202879D02*
D03*
X2197879D02*
D03*
X1557957D02*
D03*
X1592957Y1526770D02*
D03*
X1587957Y1505230D02*
D03*
X1582957D02*
D03*
X1577958D02*
D03*
X1572958D02*
D03*
X928036D02*
D03*
X963036Y1526770D02*
D03*
X958036Y1505230D02*
D03*
X953036D02*
D03*
X948036D02*
D03*
X943036D02*
D03*
X938036D02*
D03*
X298115D02*
D03*
X333115Y1526770D02*
D03*
X328115Y1505230D02*
D03*
X323115D02*
D03*
X318115D02*
D03*
X313115D02*
D03*
X308115D02*
D03*
X313115Y1347750D02*
D03*
X318115D02*
D03*
X323115D02*
D03*
X328115D02*
D03*
X333115Y1369290D02*
D03*
X298115Y1347750D02*
D03*
X938036D02*
D03*
X943036D02*
D03*
X948036D02*
D03*
X953036D02*
D03*
X958036D02*
D03*
X963036Y1369290D02*
D03*
X928036Y1347750D02*
D03*
X1572958D02*
D03*
X1577958D02*
D03*
X1582957D02*
D03*
X1587957D02*
D03*
X1592957Y1369290D02*
D03*
X1557957Y1347750D02*
D03*
X2197879D02*
D03*
X2202879D02*
D03*
X2207879D02*
D03*
X2212879D02*
D03*
X2217879D02*
D03*
X2222879Y1369290D02*
D03*
X2187879Y1347750D02*
D03*
X2817800Y1347750D02*
D03*
X2852800Y1369290D02*
D03*
X2847800Y1347750D02*
D03*
X2842800D02*
D03*
X2837800D02*
D03*
X2832800D02*
D03*
X313115Y1190269D02*
D03*
X318115D02*
D03*
X323115D02*
D03*
X328115D02*
D03*
X333115Y1211809D02*
D03*
X298115Y1190269D02*
D03*
X938036D02*
D03*
X943036D02*
D03*
X948036D02*
D03*
X953036D02*
D03*
X958036D02*
D03*
X963036Y1211809D02*
D03*
X928036Y1190269D02*
D03*
X1572958D02*
D03*
X1577958D02*
D03*
X1582957D02*
D03*
X1587957D02*
D03*
X1592957Y1211809D02*
D03*
X1557957Y1190269D02*
D03*
X2197879D02*
D03*
X2202879D02*
D03*
X2207879D02*
D03*
X2212879D02*
D03*
X2217879D02*
D03*
X2222879Y1211809D02*
D03*
X2187879Y1190269D02*
D03*
X2817800Y1190269D02*
D03*
X2852800Y1211809D02*
D03*
X2847800Y1190269D02*
D03*
X2842800D02*
D03*
X2837800D02*
D03*
X2832800D02*
D03*
X313115Y1032789D02*
D03*
X318115D02*
D03*
X323115D02*
D03*
X328115D02*
D03*
X333115Y1054329D02*
D03*
X298115Y1032789D02*
D03*
X943036D02*
D03*
X948036D02*
D03*
X953036D02*
D03*
X958036D02*
D03*
X963036Y1054329D02*
D03*
X928036Y1032789D02*
D03*
X1572958D02*
D03*
X1577958D02*
D03*
X1582957D02*
D03*
X1587957D02*
D03*
X1592957Y1054329D02*
D03*
X1557957Y1032789D02*
D03*
X2197879D02*
D03*
X2202879D02*
D03*
X2207879D02*
D03*
X2212879D02*
D03*
X2217879D02*
D03*
X2222879Y1054329D02*
D03*
X2187879Y1032789D02*
D03*
X2817800Y1032789D02*
D03*
X2852800Y1054329D02*
D03*
X2847800Y1032789D02*
D03*
X2842800D02*
D03*
X2837800D02*
D03*
X2832800D02*
D03*
X313115Y875309D02*
D03*
X318115D02*
D03*
X323115D02*
D03*
X328115D02*
D03*
X333115Y896849D02*
D03*
X298115Y875309D02*
D03*
X943036D02*
D03*
X948036D02*
D03*
X953036D02*
D03*
X958036D02*
D03*
X963036Y896849D02*
D03*
X928036Y875309D02*
D03*
X1572958D02*
D03*
X1577958D02*
D03*
X1582957D02*
D03*
X1587957D02*
D03*
X1592957Y896849D02*
D03*
X1557957Y875309D02*
D03*
X2202879D02*
D03*
X2207879D02*
D03*
X2212879D02*
D03*
X2217879D02*
D03*
X2222879Y896849D02*
D03*
X2187879Y875309D02*
D03*
X2817800Y875309D02*
D03*
X2852800Y896849D02*
D03*
X2847800Y875309D02*
D03*
X2842800D02*
D03*
X2837800D02*
D03*
X2832800D02*
D03*
X313115Y717828D02*
D03*
X318115D02*
D03*
X323115D02*
D03*
X328115D02*
D03*
X333115Y739368D02*
D03*
X298115Y717828D02*
D03*
X943036D02*
D03*
X948036D02*
D03*
X953036D02*
D03*
X958036D02*
D03*
X963036Y739368D02*
D03*
X928036Y717828D02*
D03*
X1572958D02*
D03*
X1577958D02*
D03*
X1582957D02*
D03*
X1587957D02*
D03*
X1592957Y739368D02*
D03*
X1557957Y717828D02*
D03*
X2202879D02*
D03*
X2207879D02*
D03*
X2212879D02*
D03*
X2217879D02*
D03*
X2222879Y739368D02*
D03*
X2187879Y717828D02*
D03*
X2817800Y717828D02*
D03*
X2852800Y739368D02*
D03*
X2847800Y717828D02*
D03*
X2842800D02*
D03*
X2837800D02*
D03*
X2832800D02*
D03*
X313115Y560348D02*
D03*
X318115D02*
D03*
X323115D02*
D03*
X328115D02*
D03*
X333115Y581888D02*
D03*
X298115Y560348D02*
D03*
X943036D02*
D03*
X948036D02*
D03*
X953036D02*
D03*
X958036D02*
D03*
X963036Y581888D02*
D03*
X928036Y560348D02*
D03*
X1572958D02*
D03*
X1577958D02*
D03*
X1582957D02*
D03*
X1587957D02*
D03*
X1592957Y581888D02*
D03*
X1557957Y560348D02*
D03*
X2202879D02*
D03*
X2207879D02*
D03*
X2212879D02*
D03*
X2217879D02*
D03*
X2222879Y581888D02*
D03*
X2187879Y560348D02*
D03*
X2817800Y560348D02*
D03*
X2852800Y581888D02*
D03*
X2847800Y560348D02*
D03*
X2842800D02*
D03*
X2837800D02*
D03*
X2832800D02*
D03*
X313115Y402868D02*
D03*
X318115D02*
D03*
X323115D02*
D03*
X328115D02*
D03*
X333115Y424408D02*
D03*
X298115Y402868D02*
D03*
X943036D02*
D03*
X948036D02*
D03*
X953036D02*
D03*
X958036D02*
D03*
X963036Y424408D02*
D03*
X928036Y402868D02*
D03*
X1572958D02*
D03*
X1577958D02*
D03*
X1582957D02*
D03*
X1587957D02*
D03*
X1592957Y424408D02*
D03*
X1557957Y402868D02*
D03*
X2202879D02*
D03*
X2207879D02*
D03*
X2212879D02*
D03*
X2217879D02*
D03*
X2222879Y424408D02*
D03*
X2187879Y402868D02*
D03*
X2817800Y402868D02*
D03*
X2852800Y424408D02*
D03*
X2847800Y402868D02*
D03*
X2842800D02*
D03*
X2837800D02*
D03*
X2832800D02*
D03*
X313115Y245388D02*
D03*
X318115D02*
D03*
X323115D02*
D03*
X328115D02*
D03*
X333115Y266928D02*
D03*
X298115Y245388D02*
D03*
X943036D02*
D03*
X948036D02*
D03*
X953036D02*
D03*
X958036D02*
D03*
X963036Y266928D02*
D03*
X928036Y245388D02*
D03*
X1572958D02*
D03*
X1577958D02*
D03*
X1582957D02*
D03*
X1587957D02*
D03*
X1592957Y266928D02*
D03*
X1557957Y245388D02*
D03*
X2202879D02*
D03*
X2207879D02*
D03*
X2212879D02*
D03*
X2217879D02*
D03*
X2222879Y266928D02*
D03*
X2187879Y245388D02*
D03*
X2817800Y245388D02*
D03*
X2852800Y266928D02*
D03*
X2847800Y245388D02*
D03*
X2842800D02*
D03*
X2837800D02*
D03*
X2832800D02*
D03*
X313115Y87907D02*
D03*
X318115D02*
D03*
X323115D02*
D03*
X328115D02*
D03*
X333115Y109447D02*
D03*
X298115Y87907D02*
D03*
X938036D02*
D03*
X943036D02*
D03*
X948036D02*
D03*
X953036D02*
D03*
X958036D02*
D03*
X963036Y109447D02*
D03*
X928036Y87907D02*
D03*
X1572958D02*
D03*
X1577958D02*
D03*
X1582957D02*
D03*
X1587957D02*
D03*
X1592957Y109447D02*
D03*
X1557957Y87907D02*
D03*
X2202879D02*
D03*
X2207879D02*
D03*
X2212879D02*
D03*
X2217879D02*
D03*
X2222879Y109447D02*
D03*
X2187879Y87907D02*
D03*
X2817800Y87907D02*
D03*
X2852800Y109447D02*
D03*
X2847800Y87907D02*
D03*
X2842800D02*
D03*
X2837800D02*
D03*
X2832800D02*
D03*
X2197500Y1015100D02*
D03*
X2222879Y1032789D02*
D03*
X2222200Y1045500D02*
D03*
X2198000Y1172800D02*
D03*
Y1330280D02*
D03*
X2222200Y1202980D02*
D03*
X2222879Y1190269D02*
D03*
X2198000Y1487761D02*
D03*
X2222200Y1360461D02*
D03*
X2222879Y1347750D02*
D03*
Y1505230D02*
D03*
X938036Y1011564D02*
D03*
X963036Y1032789D02*
D03*
X938036Y1171764D02*
D03*
X961300Y1046700D02*
D03*
Y1204180D02*
D03*
X938036Y1329244D02*
D03*
X963036Y1190269D02*
D03*
X961300Y1361661D02*
D03*
X938036Y1486724D02*
D03*
X963036Y1347750D02*
D03*
Y1505230D02*
D03*
X938036Y1032789D02*
D03*
X2845964Y1700430D02*
D03*
Y1692670D02*
D03*
X1567957Y1505230D02*
D03*
X2876379Y1763590D02*
D03*
D19*
X3060160Y1736390D02*
D03*
X3067980Y1736450D02*
D03*
X3050960Y1695506D02*
D03*
X3017747Y1691520D02*
D03*
D20*
X909900Y1524900D02*
D03*
X909700Y1512200D02*
D03*
X2169600Y1511400D02*
D03*
X2166600Y1524600D02*
D03*
D21*
X3023789Y1751490D02*
X3047210Y1728069D01*
X2867780Y1751490D02*
X3023789D01*
X2781135Y1741765D02*
X2854866D01*
X2771690Y1732320D02*
X2781135Y1741765D01*
X2854866D02*
X2855111Y1742010D01*
X2858300D02*
X2867780Y1751490D01*
X2855111Y1742010D02*
X2858300D01*
X2863555Y1753990D02*
X3026289D01*
X2853830Y1744265D02*
X2863555Y1753990D01*
X2775765Y1744265D02*
X2853830D01*
X2771690Y1740190D02*
X2775765Y1744265D01*
X3026289Y1753990D02*
X3052210Y1728069D01*
D22*
X2884080Y1727300D02*
Y1742775D01*
Y1727300D02*
X2886180Y1725200D01*
X2917280Y1728810D02*
X2931690Y1743220D01*
X2910940Y1728810D02*
X2917280D01*
X2868810Y1707760D02*
Y1746330D01*
X2874870Y1748550D02*
X2875970Y1747450D01*
X2867950Y1748550D02*
X2874870D01*
X2859340Y1739940D02*
X2867950Y1748550D01*
X2851950Y1739940D02*
X2859340D01*
X2844330Y1732320D02*
X2851950Y1739940D01*
X2831150Y1732320D02*
X2844330D01*
X3060160Y1736390D02*
X3067920D01*
X3073790Y1735680D02*
Y1736320D01*
X3071140Y1733030D02*
X3073790Y1735680D01*
X3056540Y1733030D02*
X3071140D01*
X3053210Y1736360D02*
X3056540Y1733030D01*
X3050924Y1695470D02*
X3050960Y1695506D01*
X3034530Y1695470D02*
X3050924D01*
X3030580Y1691520D02*
X3034530Y1695470D01*
X3017747Y1691520D02*
X3030580D01*
X2847800Y1453000D02*
Y1505230D01*
X2847800Y1347750D02*
Y1426000D01*
X2842800Y1456500D02*
Y1505230D01*
X2839800Y1453500D02*
X2842800Y1456500D01*
X2842800Y1347750D02*
Y1353400D01*
X2837800Y1347750D02*
Y1505230D01*
Y1347750D02*
X2837800Y1347750D01*
X2832800Y1347750D02*
Y1505230D01*
X2842900Y1430900D02*
X2847800Y1426000D01*
X2842900Y1430900D02*
Y1448100D01*
X2847800Y1453000D01*
X2839800Y1427300D02*
Y1453500D01*
Y1427300D02*
X2842800Y1424300D01*
Y1347750D02*
Y1424300D01*
X2212879Y1347750D02*
Y1424300D01*
X2209879Y1427300D02*
X2212879Y1424300D01*
X2209879Y1427300D02*
Y1453500D01*
X2212979Y1448100D02*
X2217879Y1453000D01*
X2212979Y1430900D02*
Y1448100D01*
Y1430900D02*
X2217879Y1426000D01*
X2202879Y1347750D02*
Y1505230D01*
X2207879Y1347750D02*
Y1505230D01*
X2209879Y1453500D02*
X2212879Y1456500D01*
Y1505230D01*
X2217879Y1347750D02*
Y1426000D01*
X2217879Y1453000D02*
Y1505230D01*
X1582957Y1347750D02*
Y1424300D01*
X1579957Y1427300D02*
X1582957Y1424300D01*
X1579957Y1427300D02*
Y1453500D01*
X1583057Y1448100D02*
X1587957Y1453000D01*
X1583057Y1430900D02*
Y1448100D01*
Y1430900D02*
X1587957Y1426000D01*
X1572958Y1347750D02*
Y1505230D01*
X1577958Y1347750D02*
Y1505230D01*
X1579957Y1453500D02*
X1582957Y1456500D01*
Y1505230D01*
X1587957Y1347750D02*
Y1426000D01*
X1587957Y1453000D02*
Y1505230D01*
X953036Y1347750D02*
Y1424300D01*
X950036Y1427300D02*
X953036Y1424300D01*
X950036Y1427300D02*
Y1453500D01*
X953136Y1448100D02*
X958036Y1453000D01*
X953136Y1430900D02*
Y1448100D01*
Y1430900D02*
X958036Y1426000D01*
X943036Y1347750D02*
Y1505230D01*
X948036Y1347750D02*
Y1505230D01*
X950036Y1453500D02*
X953036Y1456500D01*
Y1505230D01*
X958036Y1347750D02*
Y1426000D01*
X958036Y1453000D02*
Y1505230D01*
X323115Y1347750D02*
Y1424300D01*
X320115Y1427300D02*
X323115Y1424300D01*
X320115Y1427300D02*
Y1453500D01*
X323215Y1448100D02*
X328115Y1453000D01*
X323215Y1430900D02*
Y1448100D01*
Y1430900D02*
X328115Y1426000D01*
X313115Y1347750D02*
Y1505230D01*
X318115Y1347750D02*
Y1505230D01*
X320115Y1453500D02*
X323115Y1456500D01*
Y1505230D01*
X328115Y1347750D02*
Y1426000D01*
X328115Y1453000D02*
Y1505230D01*
X323115Y1141539D02*
Y1266820D01*
X320115Y1269820D02*
X323115Y1266820D01*
X320115Y1269820D02*
Y1296020D01*
X323215Y1290620D02*
X328115Y1295520D01*
X323215Y1273420D02*
Y1290620D01*
Y1273420D02*
X328115Y1268520D01*
X313115Y1190269D02*
Y1347750D01*
X318115Y1190269D02*
Y1347750D01*
X320115Y1296020D02*
X323115Y1299020D01*
Y1347750D01*
X328115Y1138039D02*
Y1268520D01*
X328115Y1295520D02*
Y1347750D01*
X323115Y1032789D02*
Y1109339D01*
X320115Y1112339D02*
X323115Y1109339D01*
X320115Y1112339D02*
Y1138539D01*
X323215Y1133139D02*
X328115Y1138039D01*
X323215Y1115939D02*
Y1133139D01*
Y1115939D02*
X328115Y1111039D01*
X313115Y1032789D02*
Y1190269D01*
X318115Y1032789D02*
Y1190269D01*
X320115Y1138539D02*
X323115Y1141539D01*
X328115Y1032789D02*
Y1111039D01*
X323115Y875309D02*
Y951859D01*
X320115Y954859D02*
X323115Y951859D01*
X320115Y954859D02*
Y981059D01*
X323215Y975659D02*
X328115Y980559D01*
X323215Y958459D02*
Y975659D01*
Y958459D02*
X328115Y953559D01*
X313115Y875309D02*
Y1032789D01*
X318115Y875309D02*
Y1032789D01*
X320115Y981059D02*
X323115Y984059D01*
Y1032789D01*
X328115Y875309D02*
Y953559D01*
X328115Y980559D02*
Y1032789D01*
X323115Y717829D02*
Y794379D01*
X320115Y797379D02*
X323115Y794379D01*
X320115Y797379D02*
Y823579D01*
X323215Y818179D02*
X328115Y823079D01*
X323215Y800979D02*
Y818179D01*
Y800979D02*
X328115Y796079D01*
X313115Y717829D02*
Y875309D01*
X318115Y717829D02*
Y875309D01*
X320115Y823579D02*
X323115Y826579D01*
Y875309D01*
X328115Y717829D02*
Y796079D01*
X328115Y823079D02*
Y875309D01*
X323115Y560348D02*
Y636898D01*
X320115Y639898D02*
X323115Y636898D01*
X320115Y639898D02*
Y666098D01*
X323215Y660698D02*
X328115Y665598D01*
X323215Y643498D02*
Y660698D01*
Y643498D02*
X328115Y638598D01*
X313115Y560348D02*
Y717828D01*
X318115Y560348D02*
Y717828D01*
X320115Y666098D02*
X323115Y669098D01*
Y717828D01*
X328115Y560348D02*
Y638598D01*
X328115Y665598D02*
Y717828D01*
X323115Y402868D02*
Y479418D01*
X320115Y482418D02*
X323115Y479418D01*
X320115Y482418D02*
Y508618D01*
X323215Y503218D02*
X328115Y508118D01*
X323215Y486018D02*
Y503218D01*
Y486018D02*
X328115Y481118D01*
X313115Y402868D02*
Y560348D01*
X318115Y402868D02*
Y560348D01*
X320115Y508618D02*
X323115Y511618D01*
Y560348D01*
X328115Y402868D02*
Y481118D01*
X328115Y508118D02*
Y560348D01*
X323115Y196658D02*
Y321938D01*
X320115Y324938D02*
X323115Y321938D01*
X320115Y324938D02*
Y351138D01*
X323215Y345738D02*
X328115Y350638D01*
X323215Y328538D02*
Y345738D01*
Y328538D02*
X328115Y323638D01*
X313115Y245388D02*
Y402868D01*
X318115Y245388D02*
Y402868D01*
X320115Y351138D02*
X323115Y354138D01*
Y402868D01*
X328115Y193157D02*
Y323638D01*
X328115Y350638D02*
Y402868D01*
X323115Y87907D02*
Y164457D01*
X320115Y167457D02*
X323115Y164457D01*
X320115Y167457D02*
Y193658D01*
X323215Y188258D02*
X328115Y193157D01*
X323215Y171057D02*
Y188258D01*
Y171057D02*
X328115Y166157D01*
X313115Y87907D02*
Y245388D01*
X318115Y87907D02*
Y245388D01*
X320115Y193658D02*
X323115Y196658D01*
X328115Y87907D02*
Y166157D01*
X953036Y1190269D02*
Y1266820D01*
X950036Y1269820D02*
X953036Y1266820D01*
X950036Y1269820D02*
Y1296020D01*
X953136Y1290620D02*
X958036Y1295520D01*
X953136Y1273420D02*
Y1290620D01*
Y1273420D02*
X958036Y1268520D01*
X943036Y1190269D02*
Y1347750D01*
X948036Y1190269D02*
Y1347750D01*
X950036Y1296020D02*
X953036Y1299020D01*
Y1347750D01*
X958036Y1190269D02*
Y1268520D01*
X958036Y1295520D02*
Y1347750D01*
X953036Y984059D02*
Y1109339D01*
X950036Y1112339D02*
X953036Y1109339D01*
X950036Y1112339D02*
Y1138539D01*
X953136Y1133139D02*
X958036Y1138039D01*
X953136Y1115939D02*
Y1133139D01*
Y1115939D02*
X958036Y1111039D01*
X943036Y1032789D02*
Y1190269D01*
X948036Y1032789D02*
Y1190269D01*
X950036Y1138539D02*
X953036Y1141539D01*
Y1190269D01*
X958036Y980559D02*
Y1111039D01*
X958036Y1138039D02*
Y1190269D01*
X953036Y826579D02*
Y951859D01*
X950036Y954859D02*
X953036Y951859D01*
X950036Y954859D02*
Y981059D01*
X953136Y975659D02*
X958036Y980559D01*
X953136Y958459D02*
Y975659D01*
Y958459D02*
X958036Y953559D01*
X943036Y875309D02*
Y1032789D01*
X948036Y875309D02*
Y1032789D01*
X950036Y981059D02*
X953036Y984059D01*
X958036Y823079D02*
Y953559D01*
X953036Y717829D02*
Y794379D01*
X950036Y797379D02*
X953036Y794379D01*
X950036Y797379D02*
Y823579D01*
X953136Y818179D02*
X958036Y823079D01*
X953136Y800979D02*
Y818179D01*
Y800979D02*
X958036Y796079D01*
X943036Y717829D02*
Y875309D01*
X948036Y717829D02*
Y875309D01*
X950036Y823579D02*
X953036Y826579D01*
X958036Y717829D02*
Y796079D01*
X953036Y560348D02*
Y636898D01*
X950036Y639898D02*
X953036Y636898D01*
X950036Y639898D02*
Y666098D01*
X953136Y660698D02*
X958036Y665598D01*
X953136Y643498D02*
Y660698D01*
Y643498D02*
X958036Y638598D01*
X943036Y560348D02*
Y717828D01*
X948036Y560348D02*
Y717828D01*
X950036Y666098D02*
X953036Y669098D01*
Y717828D01*
X958036Y560348D02*
Y638598D01*
X958036Y665598D02*
Y717828D01*
X953036Y402868D02*
Y479418D01*
X950036Y482418D02*
X953036Y479418D01*
X950036Y482418D02*
Y508618D01*
X953136Y503218D02*
X958036Y508118D01*
X953136Y486018D02*
Y503218D01*
Y486018D02*
X958036Y481118D01*
X943036Y402868D02*
Y560348D01*
X948036Y402868D02*
Y560348D01*
X950036Y508618D02*
X953036Y511618D01*
Y560348D01*
X958036Y402868D02*
Y481118D01*
X958036Y508118D02*
Y560348D01*
X953036Y245388D02*
Y321938D01*
X950036Y324938D02*
X953036Y321938D01*
X950036Y324938D02*
Y351138D01*
X953136Y345738D02*
X958036Y350638D01*
X953136Y328538D02*
Y345738D01*
Y328538D02*
X958036Y323638D01*
X943036Y245388D02*
Y402868D01*
X948036Y245388D02*
Y402868D01*
X950036Y351138D02*
X953036Y354138D01*
Y402868D01*
X958036Y245388D02*
Y323638D01*
X958036Y350638D02*
Y402868D01*
X953036Y87907D02*
Y164457D01*
X950036Y167457D02*
X953036Y164457D01*
X950036Y167457D02*
Y193658D01*
X953136Y188258D02*
X958036Y193157D01*
X953136Y171057D02*
Y188258D01*
Y171057D02*
X958036Y166157D01*
X943036Y87907D02*
Y245388D01*
X948036Y87907D02*
Y245388D01*
X950036Y193658D02*
X953036Y196658D01*
Y245388D01*
X958036Y87907D02*
Y166157D01*
X958036Y193157D02*
Y245388D01*
X1582957Y1190269D02*
Y1266820D01*
X1579957Y1269820D02*
X1582957Y1266820D01*
X1579957Y1269820D02*
Y1296020D01*
X1583057Y1290620D02*
X1587957Y1295520D01*
X1583057Y1273420D02*
Y1290620D01*
Y1273420D02*
X1587957Y1268520D01*
X1572958Y1190269D02*
Y1347750D01*
X1577958Y1190269D02*
Y1347750D01*
X1579957Y1296020D02*
X1582957Y1299020D01*
Y1347750D01*
X1587957Y1190269D02*
Y1268520D01*
X1587957Y1295520D02*
Y1347750D01*
X1582957Y1032789D02*
Y1109339D01*
X1579957Y1112339D02*
X1582957Y1109339D01*
X1579957Y1112339D02*
Y1138539D01*
X1583057Y1133139D02*
X1587957Y1138039D01*
X1583057Y1115939D02*
Y1133139D01*
Y1115939D02*
X1587957Y1111039D01*
X1572958Y1032789D02*
Y1190269D01*
X1577958Y1032789D02*
Y1190269D01*
X1579957Y1138539D02*
X1582957Y1141539D01*
Y1190269D01*
X1587957Y1032789D02*
Y1111039D01*
X1587957Y1138039D02*
Y1190269D01*
X1582957Y875309D02*
Y951859D01*
X1579957Y954859D02*
X1582957Y951859D01*
X1579957Y954859D02*
Y981059D01*
X1583057Y975659D02*
X1587957Y980559D01*
X1583057Y958459D02*
Y975659D01*
Y958459D02*
X1587957Y953559D01*
X1572958Y875309D02*
Y1032789D01*
X1577958Y875309D02*
Y1032789D01*
X1579957Y981059D02*
X1582957Y984059D01*
Y1032789D01*
X1587957Y875309D02*
Y953559D01*
X1587957Y980559D02*
Y1032789D01*
X1582957Y717829D02*
Y794379D01*
X1579957Y797379D02*
X1582957Y794379D01*
X1579957Y797379D02*
Y823579D01*
X1583057Y818179D02*
X1587957Y823079D01*
X1583057Y800979D02*
Y818179D01*
Y800979D02*
X1587957Y796079D01*
X1572958Y717829D02*
Y875309D01*
X1577958Y717829D02*
Y875309D01*
X1579957Y823579D02*
X1582957Y826579D01*
Y875309D01*
X1587957Y717829D02*
Y796079D01*
X1587957Y823079D02*
Y875309D01*
X1582957Y560348D02*
Y636898D01*
X1579957Y639898D02*
X1582957Y636898D01*
X1579957Y639898D02*
Y666098D01*
X1583057Y660698D02*
X1587957Y665598D01*
X1583057Y643498D02*
Y660698D01*
Y643498D02*
X1587957Y638598D01*
X1572958Y560348D02*
Y717828D01*
X1577958Y560348D02*
Y717828D01*
X1579957Y666098D02*
X1582957Y669098D01*
Y717828D01*
X1587957Y560348D02*
Y638598D01*
X1587957Y665598D02*
Y717828D01*
X1582957Y402868D02*
Y479418D01*
X1579957Y482418D02*
X1582957Y479418D01*
X1579957Y482418D02*
Y508618D01*
X1583057Y503218D02*
X1587957Y508118D01*
X1583057Y486018D02*
Y503218D01*
Y486018D02*
X1587957Y481118D01*
X1572958Y402868D02*
Y560348D01*
X1577958Y402868D02*
Y560348D01*
X1579957Y508618D02*
X1582957Y511618D01*
Y560348D01*
X1587957Y402868D02*
Y481118D01*
X1587957Y508118D02*
Y560348D01*
X1582957Y245388D02*
Y321938D01*
X1579957Y324938D02*
X1582957Y321938D01*
X1579957Y324938D02*
Y351138D01*
X1583057Y345738D02*
X1587957Y350638D01*
X1583057Y328538D02*
Y345738D01*
Y328538D02*
X1587957Y323638D01*
X1572958Y245388D02*
Y402868D01*
X1577958Y245388D02*
Y402868D01*
X1579957Y351138D02*
X1582957Y354138D01*
Y402868D01*
X1587957Y245388D02*
Y323638D01*
X1587957Y350638D02*
Y402868D01*
X1582957Y87907D02*
Y164457D01*
X1579957Y167457D02*
X1582957Y164457D01*
X1579957Y167457D02*
Y193658D01*
X1583057Y188258D02*
X1587957Y193157D01*
X1583057Y171057D02*
Y188258D01*
Y171057D02*
X1587957Y166157D01*
X1572958Y87907D02*
Y245388D01*
X1577958Y87907D02*
Y245388D01*
X1579957Y193658D02*
X1582957Y196658D01*
Y245388D01*
X1587957Y87907D02*
Y166157D01*
X1587957Y193157D02*
Y245388D01*
X2212879Y1190269D02*
Y1266820D01*
X2209879Y1269820D02*
X2212879Y1266820D01*
X2209879Y1269820D02*
Y1296020D01*
X2212979Y1290620D02*
X2217879Y1295520D01*
X2212979Y1273420D02*
Y1290620D01*
Y1273420D02*
X2217879Y1268520D01*
X2202879Y1190269D02*
Y1347750D01*
X2207879Y1190269D02*
Y1347750D01*
X2209879Y1296020D02*
X2212879Y1299020D01*
Y1347750D01*
X2217879Y1190269D02*
Y1268520D01*
X2217879Y1295520D02*
Y1347750D01*
X2212879Y984059D02*
Y1109339D01*
X2209879Y1112339D02*
X2212879Y1109339D01*
X2209879Y1112339D02*
Y1138539D01*
X2212979Y1133139D02*
X2217879Y1138039D01*
X2212979Y1115939D02*
Y1133139D01*
Y1115939D02*
X2217879Y1111039D01*
X2202879Y1032789D02*
Y1190269D01*
X2207879Y1032789D02*
Y1190269D01*
X2209879Y1138539D02*
X2212879Y1141539D01*
Y1190269D01*
X2217879Y980559D02*
Y1111039D01*
X2217879Y1138039D02*
Y1190269D01*
X2212879Y826579D02*
Y951859D01*
X2209879Y954859D02*
X2212879Y951859D01*
X2209879Y954859D02*
Y981059D01*
X2212979Y975659D02*
X2217879Y980559D01*
X2212979Y958459D02*
Y975659D01*
Y958459D02*
X2217879Y953559D01*
X2202879Y875309D02*
Y1032789D01*
X2207879Y875309D02*
Y1032789D01*
X2209879Y981059D02*
X2212879Y984059D01*
X2217879Y823079D02*
Y953559D01*
X2209879Y797379D02*
X2212879Y794379D01*
X2209879Y797379D02*
Y823579D01*
X2212979Y818179D02*
X2217879Y823079D01*
X2212979Y800979D02*
Y818179D01*
Y800979D02*
X2217879Y796079D01*
X2202879Y717829D02*
Y875309D01*
X2207879Y717829D02*
Y875309D01*
X2209879Y823579D02*
X2212879Y826579D01*
X2217879Y665598D02*
Y796079D01*
X2212879Y511618D02*
Y636899D01*
X2209879Y639898D02*
X2212879Y636899D01*
X2209879Y639898D02*
Y666098D01*
X2212979Y660699D02*
X2217879Y665598D01*
X2212979Y643499D02*
Y660699D01*
Y643499D02*
X2217879Y638598D01*
X2202879Y560348D02*
Y717829D01*
X2207879Y560348D02*
Y717829D01*
X2209879Y666098D02*
X2212879Y669099D01*
Y794379D01*
X2217879Y508118D02*
Y638598D01*
X2212879Y402868D02*
Y479418D01*
X2209879Y482418D02*
X2212879Y479418D01*
X2209879Y482418D02*
Y508618D01*
X2212979Y503218D02*
X2217879Y508118D01*
X2212979Y486018D02*
Y503218D01*
Y486018D02*
X2217879Y481118D01*
X2202879Y402868D02*
Y560348D01*
X2207879Y402868D02*
Y560348D01*
X2209879Y508618D02*
X2212879Y511618D01*
X2217879Y402868D02*
Y481118D01*
X2212879Y245388D02*
Y321938D01*
X2209879Y324938D02*
X2212879Y321938D01*
X2209879Y324938D02*
Y351138D01*
X2212979Y345738D02*
X2217879Y350638D01*
X2212979Y328538D02*
Y345738D01*
Y328538D02*
X2217879Y323638D01*
X2202879Y245388D02*
Y402868D01*
X2207879Y245388D02*
Y402868D01*
X2209879Y351138D02*
X2212879Y354138D01*
Y402868D01*
X2217879Y245388D02*
Y323638D01*
X2217879Y350638D02*
Y402868D01*
X2212600Y88720D02*
Y165270D01*
X2209600Y168270D02*
X2212600Y165270D01*
X2209600Y168270D02*
Y194470D01*
X2212700Y189070D02*
X2217600Y193970D01*
X2212700Y171870D02*
Y189070D01*
Y171870D02*
X2217600Y166970D01*
X2202600Y88720D02*
Y246200D01*
X2207600Y88720D02*
Y246200D01*
X2209600Y194470D02*
X2212600Y197470D01*
Y246200D01*
X2217600Y88720D02*
Y166970D01*
X2217600Y193970D02*
Y246200D01*
X2842800Y1141539D02*
Y1266820D01*
X2839800Y1269820D02*
X2842800Y1266820D01*
X2839800Y1269820D02*
Y1296020D01*
X2842900Y1290620D02*
X2847800Y1295520D01*
X2842900Y1273420D02*
Y1290620D01*
Y1273420D02*
X2847800Y1268520D01*
X2832800Y1190269D02*
Y1347750D01*
X2837800Y1190269D02*
Y1347750D01*
X2839800Y1296020D02*
X2842800Y1299020D01*
Y1347750D01*
X2847800Y1138039D02*
Y1268520D01*
X2847800Y1295520D02*
Y1347750D01*
X2842800Y1032789D02*
Y1109339D01*
X2839800Y1112339D02*
X2842800Y1109339D01*
X2839800Y1112339D02*
Y1138539D01*
X2842900Y1133139D02*
X2847800Y1138039D01*
X2842900Y1115939D02*
Y1133139D01*
Y1115939D02*
X2847800Y1111039D01*
X2832800Y1032789D02*
Y1190269D01*
X2837800Y1032789D02*
Y1190269D01*
X2839800Y1138539D02*
X2842800Y1141539D01*
X2847800Y1032789D02*
Y1111039D01*
X2842800Y826579D02*
Y951859D01*
X2839800Y954859D02*
X2842800Y951859D01*
X2839800Y954859D02*
Y981059D01*
X2842900Y975659D02*
X2847800Y980559D01*
X2842900Y958459D02*
Y975659D01*
Y958459D02*
X2847800Y953559D01*
X2832800Y875309D02*
Y1032789D01*
X2837800Y875309D02*
Y1032789D01*
X2839800Y981059D02*
X2842800Y984059D01*
Y1032789D01*
X2847800Y980559D02*
Y1032789D01*
X2842800Y717829D02*
Y794379D01*
X2839800Y797379D02*
X2842800Y794379D01*
X2839800Y797379D02*
Y823579D01*
X2842900Y818179D02*
X2847800Y823079D01*
X2842900Y800979D02*
Y818179D01*
Y800979D02*
X2847800Y796079D01*
X2832800Y717829D02*
Y875309D01*
X2837800Y717829D02*
Y875309D01*
X2839800Y823579D02*
X2842800Y826579D01*
X2847800Y717829D02*
Y796079D01*
X2847800Y823079D02*
Y953559D01*
X2842800Y511618D02*
Y636898D01*
X2839800Y639898D02*
X2842800Y636898D01*
X2839800Y639898D02*
Y666098D01*
X2842900Y660698D02*
X2847800Y665598D01*
X2842900Y643498D02*
Y660698D01*
Y643498D02*
X2847800Y638598D01*
X2832800Y560348D02*
Y717828D01*
X2837800Y560348D02*
Y717828D01*
X2839800Y666098D02*
X2842800Y669098D01*
Y717828D01*
X2847800Y508118D02*
Y638598D01*
X2847800Y665598D02*
Y717828D01*
X2839800Y482418D02*
X2842800Y479418D01*
X2839800Y482418D02*
Y508618D01*
X2842900Y503218D02*
X2847800Y508118D01*
X2842900Y486018D02*
Y503218D01*
Y486018D02*
X2847800Y481118D01*
X2832800Y402868D02*
Y560348D01*
X2837800Y402868D02*
Y560348D01*
X2839800Y508618D02*
X2842800Y511618D01*
X2842800Y196658D02*
Y321938D01*
X2839800Y324938D02*
X2842800Y321938D01*
X2839800Y324938D02*
Y351138D01*
X2842900Y345738D02*
X2847800Y350638D01*
X2842900Y328538D02*
Y345738D01*
Y328538D02*
X2847800Y323638D01*
X2832800Y245388D02*
Y402868D01*
X2837800Y245388D02*
Y402868D01*
X2839800Y351138D02*
X2842800Y354138D01*
Y479418D01*
X2847800Y193157D02*
Y323638D01*
X2847800Y350638D02*
Y481118D01*
X2842800Y87907D02*
Y164457D01*
X2839800Y167457D02*
X2842800Y164457D01*
X2839800Y167457D02*
Y193658D01*
X2842900Y188258D02*
X2847800Y193157D01*
X2842900Y171057D02*
Y188258D01*
Y171057D02*
X2847800Y166157D01*
X2832800Y87907D02*
Y245388D01*
X2837800Y87907D02*
Y245388D01*
X2839800Y193658D02*
X2842800Y196658D01*
X2847800Y87907D02*
Y166157D01*
X2831150Y1518050D02*
Y1692950D01*
Y1518050D02*
X2832800Y1516400D01*
Y1505230D02*
Y1516400D01*
X2831150Y1700820D02*
X2836280D01*
X2840000Y1697100D01*
Y1515200D02*
Y1697100D01*
X2837600Y1512800D02*
X2840000Y1515200D01*
X2837600Y1505430D02*
Y1512800D01*
Y1505430D02*
X2837800Y1505230D01*
X2831150Y1708690D02*
X2836210D01*
X2831150Y1716570D02*
X2834430D01*
X2827800Y1505230D02*
Y1631300D01*
X2788500Y1670600D02*
X2827800Y1631300D01*
X2755000Y1670600D02*
X2788500D01*
X2733300Y1692300D02*
X2755000Y1670600D01*
X2737440Y1724440D02*
X2751540D01*
X2733300Y1720300D02*
X2737440Y1724440D01*
X2733300Y1692300D02*
Y1720300D01*
X2197500Y1015100D02*
Y1032410D01*
X2197879Y1032789D01*
X2222879Y1032789D02*
Y1044821D01*
X2222200Y1045500D02*
X2222879Y1044821D01*
X2198000Y1172800D02*
Y1190148D01*
X2197879Y1190269D02*
X2198000Y1190148D01*
Y1330280D02*
Y1347628D01*
X2222200Y1202980D02*
X2222879Y1202302D01*
Y1190269D02*
Y1202302D01*
X2198000Y1487761D02*
Y1505109D01*
X2222200Y1360461D02*
X2222879Y1359782D01*
Y1347750D02*
Y1359782D01*
Y1505230D02*
Y1512821D01*
X2217500Y1518200D02*
X2222879Y1512821D01*
X1571900Y1518200D02*
X2217500D01*
X1567957Y1514258D02*
X1571900Y1518200D01*
X1567957Y1505230D02*
Y1514258D01*
X938036Y1011564D02*
Y1032789D01*
X963036Y1032789D02*
Y1044964D01*
X961300Y1046700D02*
X963036Y1044964D01*
X938036Y1171764D02*
Y1190269D01*
Y1329244D02*
Y1347750D01*
X961300Y1204180D02*
X963036Y1202444D01*
Y1190269D02*
Y1202444D01*
X938036Y1486724D02*
Y1505230D01*
X961300Y1361661D02*
X963036Y1359924D01*
Y1347750D02*
Y1359924D01*
Y1505230D02*
Y1513364D01*
X959200Y1517200D02*
X963036Y1513364D01*
X312700Y1517200D02*
X959200D01*
X308115Y1512615D02*
X312700Y1517200D01*
X308115Y1505230D02*
Y1512615D01*
X2863370Y1695770D02*
Y1695930D01*
X2839100Y1720200D02*
X2863370Y1695930D01*
X2807080Y1720200D02*
X2839100D01*
X2786620Y1699740D02*
X2807080Y1720200D01*
X2842800Y1505230D02*
Y1702100D01*
X2836210Y1708690D02*
X2842800Y1702100D01*
X2847800Y1505230D02*
X2850300Y1507730D01*
Y1700700D01*
X2834430Y1716570D02*
X2850300Y1700700D01*
D23*
X2840990Y1725140D02*
X2846124Y1720006D01*
X2857094D01*
X2763550Y1725140D02*
X2840990D01*
X2746520Y1742170D02*
X2763550Y1725140D01*
D24*
X2817800Y1347750D02*
Y1505230D01*
Y1347750D02*
X2817800Y1347750D01*
Y87907D02*
Y1347750D01*
X2187879Y87907D02*
Y1505230D01*
Y87907D02*
X2187879Y87907D01*
X1557957Y87907D02*
Y1505230D01*
X928036Y87907D02*
Y1505230D01*
X298115Y87907D02*
Y1505230D01*
X927770D02*
X928036D01*
X920500Y1512500D02*
X927770Y1505230D01*
X910000Y1512500D02*
X920500D01*
X909700Y1512200D02*
X910000Y1512500D01*
X909900Y1524900D02*
Y1688800D01*
X928036Y1706936D01*
X2183609Y1509500D02*
X2187879Y1505230D01*
X2171500Y1509500D02*
X2183609D01*
X2169600Y1511400D02*
X2171500Y1509500D01*
X2166600Y1524600D02*
Y1685658D01*
X2187879Y1706936D01*
D25*
X347770Y1742170D02*
X2746520D01*
X298115Y1692515D02*
X347770Y1742170D01*
X298115Y1505230D02*
Y1692515D01*
X928036Y1706936D02*
X963050Y1741950D01*
X1557957Y1706936D02*
X1592971Y1741950D01*
X1557957Y1505230D02*
Y1706936D01*
X2187879D02*
X2222893Y1741950D01*
X2692600Y1630430D02*
X2817800Y1505230D01*
X2692600Y1630430D02*
Y1741900D01*
M02*
