G04 Layer_Color=8421504*
%FSLAX25Y25*%
%MOIN*%
G70*
G01*
G75*
%ADD10R,0.02480X0.01417*%
%ADD11R,0.02362X0.01969*%
D10*
X3022935Y1595698D02*
D03*
X3029117D02*
D03*
X3022935Y1438218D02*
D03*
X3029117D02*
D03*
X3022935Y1280738D02*
D03*
X3029117D02*
D03*
X3022935Y1123258D02*
D03*
X3029117D02*
D03*
X3022935Y965777D02*
D03*
X3029117D02*
D03*
X3022935Y808297D02*
D03*
X3029117D02*
D03*
X3022935Y650816D02*
D03*
X3029117D02*
D03*
X3022935Y493336D02*
D03*
X3029117D02*
D03*
X3022935Y335856D02*
D03*
X3029117D02*
D03*
X3022935Y178376D02*
D03*
X3029117D02*
D03*
X3118796Y1595702D02*
D03*
X3112613D02*
D03*
X3118796Y1438221D02*
D03*
X3112613D02*
D03*
X3118796Y1280741D02*
D03*
X3112613D02*
D03*
X3118796Y1123261D02*
D03*
X3112613D02*
D03*
X3118796Y965780D02*
D03*
X3112613D02*
D03*
X3118796Y808300D02*
D03*
X3112613D02*
D03*
X3118796Y650820D02*
D03*
X3112613D02*
D03*
X3118796Y493339D02*
D03*
X3112613D02*
D03*
X3118796Y335859D02*
D03*
X3112613D02*
D03*
X3118796Y178379D02*
D03*
X3112613D02*
D03*
X2865454Y1595698D02*
D03*
X2871637D02*
D03*
X2865454Y1438218D02*
D03*
X2871637D02*
D03*
X2865454Y1280738D02*
D03*
X2871637D02*
D03*
X2865454Y1123258D02*
D03*
X2871637D02*
D03*
X2865454Y965777D02*
D03*
X2871637D02*
D03*
X2865454Y808297D02*
D03*
X2871637D02*
D03*
X2865454Y650816D02*
D03*
X2871637D02*
D03*
X2865454Y493336D02*
D03*
X2871637D02*
D03*
X2865454Y335856D02*
D03*
X2871637D02*
D03*
X2865454Y178376D02*
D03*
X2871637D02*
D03*
X2961316Y1595702D02*
D03*
X2955133D02*
D03*
X2961316Y1438221D02*
D03*
X2955133D02*
D03*
X2961316Y1280741D02*
D03*
X2955133D02*
D03*
X2961316Y1123261D02*
D03*
X2955133D02*
D03*
X2961316Y965780D02*
D03*
X2955133D02*
D03*
X2961316Y808300D02*
D03*
X2955133D02*
D03*
X2961316Y650820D02*
D03*
X2955133D02*
D03*
X2961316Y493339D02*
D03*
X2955133D02*
D03*
X2961316Y335859D02*
D03*
X2955133D02*
D03*
X2961316Y178379D02*
D03*
X2955133D02*
D03*
X2707974Y1595698D02*
D03*
X2714157D02*
D03*
X2707974Y1438218D02*
D03*
X2714157D02*
D03*
X2707974Y1280738D02*
D03*
X2714157D02*
D03*
X2707974Y1123258D02*
D03*
X2714157D02*
D03*
X2707974Y965777D02*
D03*
X2714157D02*
D03*
X2707974Y808297D02*
D03*
X2714157D02*
D03*
X2707974Y650816D02*
D03*
X2714157D02*
D03*
X2707974Y493336D02*
D03*
X2714157D02*
D03*
X2707974Y335856D02*
D03*
X2714157D02*
D03*
X2707974Y178376D02*
D03*
X2714157D02*
D03*
X2803835Y1595702D02*
D03*
X2797653D02*
D03*
X2803835Y1438221D02*
D03*
X2797653D02*
D03*
X2803835Y1280741D02*
D03*
X2797653D02*
D03*
X2803835Y1123261D02*
D03*
X2797653D02*
D03*
X2803835Y965780D02*
D03*
X2797653D02*
D03*
X2803835Y808300D02*
D03*
X2797653D02*
D03*
X2803835Y650820D02*
D03*
X2797653D02*
D03*
X2803835Y493339D02*
D03*
X2797653D02*
D03*
X2803835Y335859D02*
D03*
X2797653D02*
D03*
X2803835Y178379D02*
D03*
X2797653D02*
D03*
X2550494Y1595698D02*
D03*
X2556676D02*
D03*
X2550494Y1438218D02*
D03*
X2556676D02*
D03*
X2550494Y1280738D02*
D03*
X2556676D02*
D03*
X2550494Y1123258D02*
D03*
X2556676D02*
D03*
X2550494Y965777D02*
D03*
X2556676D02*
D03*
X2550494Y808297D02*
D03*
X2556676D02*
D03*
X2550494Y650816D02*
D03*
X2556676D02*
D03*
X2550494Y493336D02*
D03*
X2556676D02*
D03*
X2550494Y335856D02*
D03*
X2556676D02*
D03*
X2550494Y178376D02*
D03*
X2556676D02*
D03*
X2646355Y1595702D02*
D03*
X2640172D02*
D03*
X2646355Y1438221D02*
D03*
X2640172D02*
D03*
X2646355Y1280741D02*
D03*
X2640172D02*
D03*
X2646355Y1123261D02*
D03*
X2640172D02*
D03*
X2646355Y965780D02*
D03*
X2640172D02*
D03*
X2646355Y808300D02*
D03*
X2640172D02*
D03*
X2646355Y650820D02*
D03*
X2640172D02*
D03*
X2646355Y493339D02*
D03*
X2640172D02*
D03*
X2646355Y335859D02*
D03*
X2640172D02*
D03*
X2646355Y178379D02*
D03*
X2640172D02*
D03*
X2393013Y1595698D02*
D03*
X2399196D02*
D03*
X2393013Y1438218D02*
D03*
X2399196D02*
D03*
X2393013Y1280738D02*
D03*
X2399196D02*
D03*
X2393013Y1123258D02*
D03*
X2399196D02*
D03*
X2393013Y965777D02*
D03*
X2399196D02*
D03*
X2393013Y808297D02*
D03*
X2399196D02*
D03*
X2393013Y650816D02*
D03*
X2399196D02*
D03*
X2393013Y493336D02*
D03*
X2399196D02*
D03*
X2393013Y335856D02*
D03*
X2399196D02*
D03*
X2393013Y178376D02*
D03*
X2399196D02*
D03*
X2488875Y1595702D02*
D03*
X2482692D02*
D03*
X2488875Y1438221D02*
D03*
X2482692D02*
D03*
X2488875Y1280741D02*
D03*
X2482692D02*
D03*
X2488875Y1123261D02*
D03*
X2482692D02*
D03*
X2488875Y965780D02*
D03*
X2482692D02*
D03*
X2488875Y808300D02*
D03*
X2482692D02*
D03*
X2488875Y650820D02*
D03*
X2482692D02*
D03*
X2488875Y493339D02*
D03*
X2482692D02*
D03*
X2488875Y335859D02*
D03*
X2482692D02*
D03*
X2488875Y178379D02*
D03*
X2482692D02*
D03*
X2235533Y1595698D02*
D03*
X2241716D02*
D03*
X2235533Y1438218D02*
D03*
X2241716D02*
D03*
X2235533Y1280738D02*
D03*
X2241716D02*
D03*
X2235533Y1123258D02*
D03*
X2241716D02*
D03*
X2235533Y965777D02*
D03*
X2241716D02*
D03*
X2235533Y808297D02*
D03*
X2241716D02*
D03*
X2235533Y650816D02*
D03*
X2241716D02*
D03*
X2235533Y493336D02*
D03*
X2241716D02*
D03*
X2235533Y335856D02*
D03*
X2241716D02*
D03*
X2235533Y178376D02*
D03*
X2241716D02*
D03*
X2331395Y1595702D02*
D03*
X2325212D02*
D03*
X2331395Y1438221D02*
D03*
X2325212D02*
D03*
X2331395Y1280741D02*
D03*
X2325212D02*
D03*
X2331395Y1123261D02*
D03*
X2325212D02*
D03*
X2331395Y965780D02*
D03*
X2325212D02*
D03*
X2331395Y808300D02*
D03*
X2325212D02*
D03*
X2331395Y650820D02*
D03*
X2325212D02*
D03*
X2331395Y493339D02*
D03*
X2325212D02*
D03*
X2331395Y335859D02*
D03*
X2325212D02*
D03*
X2331395Y178379D02*
D03*
X2325212D02*
D03*
X2078053Y1595698D02*
D03*
X2084236D02*
D03*
X2078053Y1438218D02*
D03*
X2084236D02*
D03*
X2078053Y1280738D02*
D03*
X2084236D02*
D03*
X2078053Y1123258D02*
D03*
X2084236D02*
D03*
X2078053Y965777D02*
D03*
X2084236D02*
D03*
X2078053Y808297D02*
D03*
X2084236D02*
D03*
X2078053Y650816D02*
D03*
X2084236D02*
D03*
X2078053Y493336D02*
D03*
X2084236D02*
D03*
X2078053Y335856D02*
D03*
X2084236D02*
D03*
X2078053Y178376D02*
D03*
X2084236D02*
D03*
X2173914Y1595702D02*
D03*
X2167731D02*
D03*
X2173914Y1438221D02*
D03*
X2167731D02*
D03*
X2173914Y1280741D02*
D03*
X2167731D02*
D03*
X2173914Y1123261D02*
D03*
X2167731D02*
D03*
X2173914Y965780D02*
D03*
X2167731D02*
D03*
X2173914Y808300D02*
D03*
X2167731D02*
D03*
X2173914Y650820D02*
D03*
X2167731D02*
D03*
X2173914Y493339D02*
D03*
X2167731D02*
D03*
X2173914Y335859D02*
D03*
X2167731D02*
D03*
X2173914Y178379D02*
D03*
X2167731D02*
D03*
X1920572Y1595698D02*
D03*
X1926755D02*
D03*
X1920572Y1438218D02*
D03*
X1926755D02*
D03*
X1920572Y1280738D02*
D03*
X1926755D02*
D03*
X1920572Y1123258D02*
D03*
X1926755D02*
D03*
X1920572Y965777D02*
D03*
X1926755D02*
D03*
X1920572Y808297D02*
D03*
X1926755D02*
D03*
X1920572Y650816D02*
D03*
X1926755D02*
D03*
X1920572Y493336D02*
D03*
X1926755D02*
D03*
X1920572Y335856D02*
D03*
X1926755D02*
D03*
X1920572Y178376D02*
D03*
X1926755D02*
D03*
X2016434Y1595702D02*
D03*
X2010251D02*
D03*
X2016434Y1438221D02*
D03*
X2010251D02*
D03*
X2016434Y1280741D02*
D03*
X2010251D02*
D03*
X2016434Y1123261D02*
D03*
X2010251D02*
D03*
X2016434Y965780D02*
D03*
X2010251D02*
D03*
X2016434Y808300D02*
D03*
X2010251D02*
D03*
X2016434Y650820D02*
D03*
X2010251D02*
D03*
X2016434Y493339D02*
D03*
X2010251D02*
D03*
X2016434Y335859D02*
D03*
X2010251D02*
D03*
X2016434Y178379D02*
D03*
X2010251D02*
D03*
X1763092Y1595698D02*
D03*
X1769275D02*
D03*
X1763092Y1438218D02*
D03*
X1769275D02*
D03*
X1763092Y1280738D02*
D03*
X1769275D02*
D03*
X1763092Y1123258D02*
D03*
X1769275D02*
D03*
X1763092Y965777D02*
D03*
X1769275D02*
D03*
X1763092Y808297D02*
D03*
X1769275D02*
D03*
X1763092Y650816D02*
D03*
X1769275D02*
D03*
X1763092Y493336D02*
D03*
X1769275D02*
D03*
X1763092Y335856D02*
D03*
X1769275D02*
D03*
X1763092Y178376D02*
D03*
X1769275D02*
D03*
X1858954Y1595702D02*
D03*
X1852771D02*
D03*
X1858954Y1438221D02*
D03*
X1852771D02*
D03*
X1858954Y1280741D02*
D03*
X1852771D02*
D03*
X1858954Y1123261D02*
D03*
X1852771D02*
D03*
X1858954Y965780D02*
D03*
X1852771D02*
D03*
X1858954Y808300D02*
D03*
X1852771D02*
D03*
X1858954Y650820D02*
D03*
X1852771D02*
D03*
X1858954Y493339D02*
D03*
X1852771D02*
D03*
X1858954Y335859D02*
D03*
X1852771D02*
D03*
X1858954Y178379D02*
D03*
X1852771D02*
D03*
X1605612Y1595698D02*
D03*
X1611794D02*
D03*
X1605612Y1438218D02*
D03*
X1611794D02*
D03*
X1605612Y1280738D02*
D03*
X1611794D02*
D03*
X1605612Y1123258D02*
D03*
X1611794D02*
D03*
X1605612Y965777D02*
D03*
X1611794D02*
D03*
X1605612Y808297D02*
D03*
X1611794D02*
D03*
X1605612Y650816D02*
D03*
X1611794D02*
D03*
X1605612Y493336D02*
D03*
X1611794D02*
D03*
X1605612Y335856D02*
D03*
X1611794D02*
D03*
X1605612Y178376D02*
D03*
X1611794D02*
D03*
X1701473Y1595702D02*
D03*
X1695291D02*
D03*
X1701473Y1438221D02*
D03*
X1695291D02*
D03*
X1701473Y1280741D02*
D03*
X1695291D02*
D03*
X1701473Y1123261D02*
D03*
X1695291D02*
D03*
X1701473Y965780D02*
D03*
X1695291D02*
D03*
X1701473Y808300D02*
D03*
X1695291D02*
D03*
X1701473Y650820D02*
D03*
X1695291D02*
D03*
X1701473Y493339D02*
D03*
X1695291D02*
D03*
X1701473Y335859D02*
D03*
X1695291D02*
D03*
X1701473Y178379D02*
D03*
X1695291D02*
D03*
X1448131Y1595698D02*
D03*
X1454314D02*
D03*
X1448131Y1438218D02*
D03*
X1454314D02*
D03*
X1448131Y1280738D02*
D03*
X1454314D02*
D03*
X1448131Y1123258D02*
D03*
X1454314D02*
D03*
X1448131Y965777D02*
D03*
X1454314D02*
D03*
X1448131Y808297D02*
D03*
X1454314D02*
D03*
X1448131Y650816D02*
D03*
X1454314D02*
D03*
X1448131Y493336D02*
D03*
X1454314D02*
D03*
X1448131Y335856D02*
D03*
X1454314D02*
D03*
X1448131Y178376D02*
D03*
X1454314D02*
D03*
X1543993Y1595702D02*
D03*
X1537810D02*
D03*
X1543993Y1438221D02*
D03*
X1537810D02*
D03*
X1543993Y1280741D02*
D03*
X1537810D02*
D03*
X1543993Y1123261D02*
D03*
X1537810D02*
D03*
X1543993Y965780D02*
D03*
X1537810D02*
D03*
X1543993Y808300D02*
D03*
X1537810D02*
D03*
X1543993Y650820D02*
D03*
X1537810D02*
D03*
X1543993Y493339D02*
D03*
X1537810D02*
D03*
X1543993Y335859D02*
D03*
X1537810D02*
D03*
X1543993Y178379D02*
D03*
X1537810D02*
D03*
X1290651Y1595698D02*
D03*
X1296834D02*
D03*
X1290651Y1438218D02*
D03*
X1296834D02*
D03*
X1290651Y1280738D02*
D03*
X1296834D02*
D03*
X1290651Y1123258D02*
D03*
X1296834D02*
D03*
X1290651Y965777D02*
D03*
X1296834D02*
D03*
X1290651Y808297D02*
D03*
X1296834D02*
D03*
X1290651Y650816D02*
D03*
X1296834D02*
D03*
X1290651Y493336D02*
D03*
X1296834D02*
D03*
X1290651Y335856D02*
D03*
X1296834D02*
D03*
X1290651Y178376D02*
D03*
X1296834D02*
D03*
X1386513Y1595702D02*
D03*
X1380330D02*
D03*
X1386513Y1438221D02*
D03*
X1380330D02*
D03*
X1386513Y1280741D02*
D03*
X1380330D02*
D03*
X1386513Y1123261D02*
D03*
X1380330D02*
D03*
X1386513Y965780D02*
D03*
X1380330D02*
D03*
X1386513Y808300D02*
D03*
X1380330D02*
D03*
X1386513Y650820D02*
D03*
X1380330D02*
D03*
X1386513Y493339D02*
D03*
X1380330D02*
D03*
X1386513Y335859D02*
D03*
X1380330D02*
D03*
X1386513Y178379D02*
D03*
X1380330D02*
D03*
X1133171Y1595698D02*
D03*
X1139354D02*
D03*
X1133171Y1438218D02*
D03*
X1139354D02*
D03*
X1133171Y1280738D02*
D03*
X1139354D02*
D03*
X1133171Y1123258D02*
D03*
X1139354D02*
D03*
X1133171Y965777D02*
D03*
X1139354D02*
D03*
X1133171Y808297D02*
D03*
X1139354D02*
D03*
X1133171Y650816D02*
D03*
X1139354D02*
D03*
X1133171Y493336D02*
D03*
X1139354D02*
D03*
X1133171Y335856D02*
D03*
X1139354D02*
D03*
X1133171Y178376D02*
D03*
X1139354D02*
D03*
X1229032Y1595702D02*
D03*
X1222849D02*
D03*
X1229032Y1438221D02*
D03*
X1222849D02*
D03*
X1229032Y1280741D02*
D03*
X1222849D02*
D03*
X1229032Y1123261D02*
D03*
X1222849D02*
D03*
X1229032Y965780D02*
D03*
X1222849D02*
D03*
X1229032Y808300D02*
D03*
X1222849D02*
D03*
X1229032Y650820D02*
D03*
X1222849D02*
D03*
X1229032Y493339D02*
D03*
X1222849D02*
D03*
X1229032Y335859D02*
D03*
X1222849D02*
D03*
X1229032Y178379D02*
D03*
X1222849D02*
D03*
X975690Y1595698D02*
D03*
X981873D02*
D03*
X975690Y1438218D02*
D03*
X981873D02*
D03*
X975690Y1280738D02*
D03*
X981873D02*
D03*
X975690Y1123258D02*
D03*
X981873D02*
D03*
X975690Y965777D02*
D03*
X981873D02*
D03*
X975690Y808297D02*
D03*
X981873D02*
D03*
X975690Y650816D02*
D03*
X981873D02*
D03*
X975690Y493336D02*
D03*
X981873D02*
D03*
X975690Y335856D02*
D03*
X981873D02*
D03*
X975690Y178376D02*
D03*
X981873D02*
D03*
X1071552Y1595702D02*
D03*
X1065369D02*
D03*
X1071552Y1438221D02*
D03*
X1065369D02*
D03*
X1071552Y1280741D02*
D03*
X1065369D02*
D03*
X1071552Y1123261D02*
D03*
X1065369D02*
D03*
X1071552Y965780D02*
D03*
X1065369D02*
D03*
X1071552Y808300D02*
D03*
X1065369D02*
D03*
X1071552Y650820D02*
D03*
X1065369D02*
D03*
X1071552Y493339D02*
D03*
X1065369D02*
D03*
X1071552Y335859D02*
D03*
X1065369D02*
D03*
X1071552Y178379D02*
D03*
X1065369D02*
D03*
X818210Y1595698D02*
D03*
X824393D02*
D03*
X818210Y1438218D02*
D03*
X824393D02*
D03*
X818210Y1280738D02*
D03*
X824393D02*
D03*
X818210Y1123258D02*
D03*
X824393D02*
D03*
X818210Y965777D02*
D03*
X824393D02*
D03*
X818210Y808297D02*
D03*
X824393D02*
D03*
X818210Y650816D02*
D03*
X824393D02*
D03*
X818210Y493336D02*
D03*
X824393D02*
D03*
X818210Y335856D02*
D03*
X824393D02*
D03*
X818210Y178376D02*
D03*
X824393D02*
D03*
X914072Y1595702D02*
D03*
X907889D02*
D03*
X914072Y1438221D02*
D03*
X907889D02*
D03*
X914072Y1280741D02*
D03*
X907889D02*
D03*
X914072Y1123261D02*
D03*
X907889D02*
D03*
X914072Y965780D02*
D03*
X907889D02*
D03*
X914072Y808300D02*
D03*
X907889D02*
D03*
X914072Y650820D02*
D03*
X907889D02*
D03*
X914072Y493339D02*
D03*
X907889D02*
D03*
X914072Y335859D02*
D03*
X907889D02*
D03*
X914072Y178379D02*
D03*
X907889D02*
D03*
X660730Y1595698D02*
D03*
X666913D02*
D03*
X660730Y1438218D02*
D03*
X666913D02*
D03*
X660730Y1280738D02*
D03*
X666913D02*
D03*
X660730Y1123258D02*
D03*
X666913D02*
D03*
X660730Y965777D02*
D03*
X666913D02*
D03*
X660730Y808297D02*
D03*
X666913D02*
D03*
X660730Y650816D02*
D03*
X666913D02*
D03*
X660730Y493336D02*
D03*
X666913D02*
D03*
X660730Y335856D02*
D03*
X666913D02*
D03*
X660730Y178376D02*
D03*
X666913D02*
D03*
X756591Y1595702D02*
D03*
X750409D02*
D03*
X756591Y1438221D02*
D03*
X750409D02*
D03*
X756591Y1280741D02*
D03*
X750409D02*
D03*
X756591Y1123261D02*
D03*
X750409D02*
D03*
X756591Y965780D02*
D03*
X750409D02*
D03*
X756591Y808300D02*
D03*
X750409D02*
D03*
X756591Y650820D02*
D03*
X750409D02*
D03*
X756591Y493339D02*
D03*
X750409D02*
D03*
X756591Y335859D02*
D03*
X750409D02*
D03*
X756591Y178379D02*
D03*
X750409D02*
D03*
X503250Y1595698D02*
D03*
X509432D02*
D03*
X503250Y1438218D02*
D03*
X509432D02*
D03*
X503250Y1280738D02*
D03*
X509432D02*
D03*
X503250Y1123258D02*
D03*
X509432D02*
D03*
X503250Y965777D02*
D03*
X509432D02*
D03*
X503250Y808297D02*
D03*
X509432D02*
D03*
X503250Y650816D02*
D03*
X509432D02*
D03*
X503250Y493336D02*
D03*
X509432D02*
D03*
X503250Y335856D02*
D03*
X509432D02*
D03*
X503250Y178376D02*
D03*
X509432D02*
D03*
X599111Y1595702D02*
D03*
X592928D02*
D03*
X599111Y1438221D02*
D03*
X592928D02*
D03*
X599111Y1280741D02*
D03*
X592928D02*
D03*
X599111Y1123261D02*
D03*
X592928D02*
D03*
X599111Y965780D02*
D03*
X592928D02*
D03*
X599111Y808300D02*
D03*
X592928D02*
D03*
X599111Y650820D02*
D03*
X592928D02*
D03*
X599111Y493339D02*
D03*
X592928D02*
D03*
X599111Y335859D02*
D03*
X592928D02*
D03*
X599111Y178379D02*
D03*
X592928D02*
D03*
X345769Y1595698D02*
D03*
X351952D02*
D03*
X345769Y1438218D02*
D03*
X351952D02*
D03*
X345769Y1280738D02*
D03*
X351952D02*
D03*
X345769Y1123258D02*
D03*
X351952D02*
D03*
X345769Y965777D02*
D03*
X351952D02*
D03*
X345769Y808297D02*
D03*
X351952D02*
D03*
X345769Y650816D02*
D03*
X351952D02*
D03*
X345769Y493336D02*
D03*
X351952D02*
D03*
X345769Y335856D02*
D03*
X351952D02*
D03*
X345769Y178376D02*
D03*
X351952D02*
D03*
X441631Y1595702D02*
D03*
X435448D02*
D03*
X441631Y1438221D02*
D03*
X435448D02*
D03*
X441631Y1280741D02*
D03*
X435448D02*
D03*
X441631Y1123261D02*
D03*
X435448D02*
D03*
X441631Y965780D02*
D03*
X435448D02*
D03*
X441631Y808300D02*
D03*
X435448D02*
D03*
X441631Y650820D02*
D03*
X435448D02*
D03*
X441631Y493339D02*
D03*
X435448D02*
D03*
X441631Y335859D02*
D03*
X435448D02*
D03*
X441631Y178379D02*
D03*
X435448D02*
D03*
X188289Y1595698D02*
D03*
X194472D02*
D03*
X188289Y1438218D02*
D03*
X194472D02*
D03*
X188289Y1280738D02*
D03*
X194472D02*
D03*
X188289Y1123258D02*
D03*
X194472D02*
D03*
X188289Y965777D02*
D03*
X194472D02*
D03*
X188289Y808297D02*
D03*
X194472D02*
D03*
X188289Y650816D02*
D03*
X194472D02*
D03*
X188289Y493336D02*
D03*
X194472D02*
D03*
X188289Y335856D02*
D03*
X194472D02*
D03*
X188289Y178376D02*
D03*
X194472D02*
D03*
X284151Y1595702D02*
D03*
X277968D02*
D03*
X284151Y1438221D02*
D03*
X277968D02*
D03*
X284151Y1280741D02*
D03*
X277968D02*
D03*
X284151Y1123261D02*
D03*
X277968D02*
D03*
X284151Y965780D02*
D03*
X277968D02*
D03*
X284151Y808300D02*
D03*
X277968D02*
D03*
X284151Y650820D02*
D03*
X277968D02*
D03*
X284151Y493339D02*
D03*
X277968D02*
D03*
X284151Y335859D02*
D03*
X277968D02*
D03*
X284151Y178379D02*
D03*
X277968D02*
D03*
X126670D02*
D03*
X120487D02*
D03*
X126670Y335859D02*
D03*
X120487D02*
D03*
X126670Y493339D02*
D03*
X120487D02*
D03*
X126670Y650820D02*
D03*
X120487D02*
D03*
X126670Y808300D02*
D03*
X120487D02*
D03*
X126670Y965780D02*
D03*
X120487D02*
D03*
X126670Y1123261D02*
D03*
X120487D02*
D03*
X126670Y1280741D02*
D03*
X120487D02*
D03*
X126670Y1438221D02*
D03*
X120487D02*
D03*
X126670Y1595702D02*
D03*
X120487D02*
D03*
X30809Y178376D02*
D03*
X36991D02*
D03*
X30809Y335856D02*
D03*
X36991D02*
D03*
X30809Y493336D02*
D03*
X36991D02*
D03*
X30809Y650816D02*
D03*
X36991D02*
D03*
X30809Y808297D02*
D03*
X36991D02*
D03*
X30809Y965777D02*
D03*
X36991D02*
D03*
X30809Y1123258D02*
D03*
X36991D02*
D03*
X30809Y1280738D02*
D03*
X36991D02*
D03*
X30809Y1438218D02*
D03*
X36991D02*
D03*
X30809Y1595698D02*
D03*
X36991D02*
D03*
D11*
X3012995Y1595698D02*
D03*
X3009057D02*
D03*
X3012995Y1438218D02*
D03*
X3009057D02*
D03*
X3012995Y1280738D02*
D03*
X3009057D02*
D03*
X3012995Y1123258D02*
D03*
X3009057D02*
D03*
X3012995Y965777D02*
D03*
X3009057D02*
D03*
X3012995Y808297D02*
D03*
X3009057D02*
D03*
X3012995Y650816D02*
D03*
X3009057D02*
D03*
X3012995Y493336D02*
D03*
X3009057D02*
D03*
X3012995Y335856D02*
D03*
X3009057D02*
D03*
X3012995Y178376D02*
D03*
X3009057D02*
D03*
X3128736Y1595702D02*
D03*
X3132673D02*
D03*
X3128736Y1438221D02*
D03*
X3132673D02*
D03*
X3128736Y1280741D02*
D03*
X3132673D02*
D03*
X3128736Y1123261D02*
D03*
X3132673D02*
D03*
X3128736Y965780D02*
D03*
X3132673D02*
D03*
X3128736Y808300D02*
D03*
X3132673D02*
D03*
X3128736Y650820D02*
D03*
X3132673D02*
D03*
X3128736Y493339D02*
D03*
X3132673D02*
D03*
X3128736Y335859D02*
D03*
X3132673D02*
D03*
X3128736Y178379D02*
D03*
X3132673D02*
D03*
X2855514Y1595698D02*
D03*
X2851577D02*
D03*
X2855514Y1438218D02*
D03*
X2851577D02*
D03*
X2855514Y1280738D02*
D03*
X2851577D02*
D03*
X2855514Y1123258D02*
D03*
X2851577D02*
D03*
X2855514Y965777D02*
D03*
X2851577D02*
D03*
X2855514Y808297D02*
D03*
X2851577D02*
D03*
X2855514Y650816D02*
D03*
X2851577D02*
D03*
X2855514Y493336D02*
D03*
X2851577D02*
D03*
X2855514Y335856D02*
D03*
X2851577D02*
D03*
X2855514Y178376D02*
D03*
X2851577D02*
D03*
X2971256Y1595702D02*
D03*
X2975193D02*
D03*
X2971256Y1438221D02*
D03*
X2975193D02*
D03*
X2971256Y1280741D02*
D03*
X2975193D02*
D03*
X2971256Y1123261D02*
D03*
X2975193D02*
D03*
X2971256Y965780D02*
D03*
X2975193D02*
D03*
X2971256Y808300D02*
D03*
X2975193D02*
D03*
X2971256Y650820D02*
D03*
X2975193D02*
D03*
X2971256Y493339D02*
D03*
X2975193D02*
D03*
X2971256Y335859D02*
D03*
X2975193D02*
D03*
X2971256Y178379D02*
D03*
X2975193D02*
D03*
X2698034Y1595698D02*
D03*
X2694097D02*
D03*
X2698034Y1438218D02*
D03*
X2694097D02*
D03*
X2698034Y1280738D02*
D03*
X2694097D02*
D03*
X2698034Y1123258D02*
D03*
X2694097D02*
D03*
X2698034Y965777D02*
D03*
X2694097D02*
D03*
X2698034Y808297D02*
D03*
X2694097D02*
D03*
X2698034Y650816D02*
D03*
X2694097D02*
D03*
X2698034Y493336D02*
D03*
X2694097D02*
D03*
X2698034Y335856D02*
D03*
X2694097D02*
D03*
X2698034Y178376D02*
D03*
X2694097D02*
D03*
X2813776Y1595702D02*
D03*
X2817713D02*
D03*
X2813776Y1438221D02*
D03*
X2817713D02*
D03*
X2813776Y1280741D02*
D03*
X2817713D02*
D03*
X2813776Y1123261D02*
D03*
X2817713D02*
D03*
X2813776Y965780D02*
D03*
X2817713D02*
D03*
X2813776Y808300D02*
D03*
X2817713D02*
D03*
X2813776Y650820D02*
D03*
X2817713D02*
D03*
X2813776Y493339D02*
D03*
X2817713D02*
D03*
X2813776Y335859D02*
D03*
X2817713D02*
D03*
X2813776Y178379D02*
D03*
X2817713D02*
D03*
X2540554Y1595698D02*
D03*
X2536617D02*
D03*
X2540554Y1438218D02*
D03*
X2536617D02*
D03*
X2540554Y1280738D02*
D03*
X2536617D02*
D03*
X2540554Y1123258D02*
D03*
X2536617D02*
D03*
X2540554Y965777D02*
D03*
X2536617D02*
D03*
X2540554Y808297D02*
D03*
X2536617D02*
D03*
X2540554Y650816D02*
D03*
X2536617D02*
D03*
X2540554Y493336D02*
D03*
X2536617D02*
D03*
X2540554Y335856D02*
D03*
X2536617D02*
D03*
X2540554Y178376D02*
D03*
X2536617D02*
D03*
X2656295Y1595702D02*
D03*
X2660232D02*
D03*
X2656295Y1438221D02*
D03*
X2660232D02*
D03*
X2656295Y1280741D02*
D03*
X2660232D02*
D03*
X2656295Y1123261D02*
D03*
X2660232D02*
D03*
X2656295Y965780D02*
D03*
X2660232D02*
D03*
X2656295Y808300D02*
D03*
X2660232D02*
D03*
X2656295Y650820D02*
D03*
X2660232D02*
D03*
X2656295Y493339D02*
D03*
X2660232D02*
D03*
X2656295Y335859D02*
D03*
X2660232D02*
D03*
X2656295Y178379D02*
D03*
X2660232D02*
D03*
X2383073Y1595698D02*
D03*
X2379136D02*
D03*
X2383073Y1438218D02*
D03*
X2379136D02*
D03*
X2383073Y1280738D02*
D03*
X2379136D02*
D03*
X2383073Y1123258D02*
D03*
X2379136D02*
D03*
X2383073Y965777D02*
D03*
X2379136D02*
D03*
X2383073Y808297D02*
D03*
X2379136D02*
D03*
X2383073Y650816D02*
D03*
X2379136D02*
D03*
X2383073Y493336D02*
D03*
X2379136D02*
D03*
X2383073Y335856D02*
D03*
X2379136D02*
D03*
X2383073Y178376D02*
D03*
X2379136D02*
D03*
X2498815Y1595702D02*
D03*
X2502752D02*
D03*
X2498815Y1438221D02*
D03*
X2502752D02*
D03*
X2498815Y1280741D02*
D03*
X2502752D02*
D03*
X2498815Y1123261D02*
D03*
X2502752D02*
D03*
X2498815Y965780D02*
D03*
X2502752D02*
D03*
X2498815Y808300D02*
D03*
X2502752D02*
D03*
X2498815Y650820D02*
D03*
X2502752D02*
D03*
X2498815Y493339D02*
D03*
X2502752D02*
D03*
X2498815Y335859D02*
D03*
X2502752D02*
D03*
X2498815Y178379D02*
D03*
X2502752D02*
D03*
X2225593Y1595698D02*
D03*
X2221656D02*
D03*
X2225593Y1438218D02*
D03*
X2221656D02*
D03*
X2225593Y1280738D02*
D03*
X2221656D02*
D03*
X2225593Y1123258D02*
D03*
X2221656D02*
D03*
X2225593Y965777D02*
D03*
X2221656D02*
D03*
X2225593Y808297D02*
D03*
X2221656D02*
D03*
X2225593Y650816D02*
D03*
X2221656D02*
D03*
X2225593Y493336D02*
D03*
X2221656D02*
D03*
X2225593Y335856D02*
D03*
X2221656D02*
D03*
X2225593Y178376D02*
D03*
X2221656D02*
D03*
X2341335Y1595702D02*
D03*
X2345272D02*
D03*
X2341335Y1438221D02*
D03*
X2345272D02*
D03*
X2341335Y1280741D02*
D03*
X2345272D02*
D03*
X2341335Y1123261D02*
D03*
X2345272D02*
D03*
X2341335Y965780D02*
D03*
X2345272D02*
D03*
X2341335Y808300D02*
D03*
X2345272D02*
D03*
X2341335Y650820D02*
D03*
X2345272D02*
D03*
X2341335Y493339D02*
D03*
X2345272D02*
D03*
X2341335Y335859D02*
D03*
X2345272D02*
D03*
X2341335Y178379D02*
D03*
X2345272D02*
D03*
X2068113Y1595698D02*
D03*
X2064176D02*
D03*
X2068113Y1438218D02*
D03*
X2064176D02*
D03*
X2068113Y1280738D02*
D03*
X2064176D02*
D03*
X2068113Y1123258D02*
D03*
X2064176D02*
D03*
X2068113Y965777D02*
D03*
X2064176D02*
D03*
X2068113Y808297D02*
D03*
X2064176D02*
D03*
X2068113Y650816D02*
D03*
X2064176D02*
D03*
X2068113Y493336D02*
D03*
X2064176D02*
D03*
X2068113Y335856D02*
D03*
X2064176D02*
D03*
X2068113Y178376D02*
D03*
X2064176D02*
D03*
X2183854Y1595702D02*
D03*
X2187791D02*
D03*
X2183854Y1438221D02*
D03*
X2187791D02*
D03*
X2183854Y1280741D02*
D03*
X2187791D02*
D03*
X2183854Y1123261D02*
D03*
X2187791D02*
D03*
X2183854Y965780D02*
D03*
X2187791D02*
D03*
X2183854Y808300D02*
D03*
X2187791D02*
D03*
X2183854Y650820D02*
D03*
X2187791D02*
D03*
X2183854Y493339D02*
D03*
X2187791D02*
D03*
X2183854Y335859D02*
D03*
X2187791D02*
D03*
X2183854Y178379D02*
D03*
X2187791D02*
D03*
X1910632Y1595698D02*
D03*
X1906695D02*
D03*
X1910632Y1438218D02*
D03*
X1906695D02*
D03*
X1910632Y1280738D02*
D03*
X1906695D02*
D03*
X1910632Y1123258D02*
D03*
X1906695D02*
D03*
X1910632Y965777D02*
D03*
X1906695D02*
D03*
X1910632Y808297D02*
D03*
X1906695D02*
D03*
X1910632Y650816D02*
D03*
X1906695D02*
D03*
X1910632Y493336D02*
D03*
X1906695D02*
D03*
X1910632Y335856D02*
D03*
X1906695D02*
D03*
X1910632Y178376D02*
D03*
X1906695D02*
D03*
X2026374Y1595702D02*
D03*
X2030311D02*
D03*
X2026374Y1438221D02*
D03*
X2030311D02*
D03*
X2026374Y1280741D02*
D03*
X2030311D02*
D03*
X2026374Y1123261D02*
D03*
X2030311D02*
D03*
X2026374Y965780D02*
D03*
X2030311D02*
D03*
X2026374Y808300D02*
D03*
X2030311D02*
D03*
X2026374Y650820D02*
D03*
X2030311D02*
D03*
X2026374Y493339D02*
D03*
X2030311D02*
D03*
X2026374Y335859D02*
D03*
X2030311D02*
D03*
X2026374Y178379D02*
D03*
X2030311D02*
D03*
X1753152Y1595698D02*
D03*
X1749215D02*
D03*
X1753152Y1438218D02*
D03*
X1749215D02*
D03*
X1753152Y1280738D02*
D03*
X1749215D02*
D03*
X1753152Y1123258D02*
D03*
X1749215D02*
D03*
X1753152Y965777D02*
D03*
X1749215D02*
D03*
X1753152Y808297D02*
D03*
X1749215D02*
D03*
X1753152Y650816D02*
D03*
X1749215D02*
D03*
X1753152Y493336D02*
D03*
X1749215D02*
D03*
X1753152Y335856D02*
D03*
X1749215D02*
D03*
X1753152Y178376D02*
D03*
X1749215D02*
D03*
X1868894Y1595702D02*
D03*
X1872831D02*
D03*
X1868894Y1438221D02*
D03*
X1872831D02*
D03*
X1868894Y1280741D02*
D03*
X1872831D02*
D03*
X1868894Y1123261D02*
D03*
X1872831D02*
D03*
X1868894Y965780D02*
D03*
X1872831D02*
D03*
X1868894Y808300D02*
D03*
X1872831D02*
D03*
X1868894Y650820D02*
D03*
X1872831D02*
D03*
X1868894Y493339D02*
D03*
X1872831D02*
D03*
X1868894Y335859D02*
D03*
X1872831D02*
D03*
X1868894Y178379D02*
D03*
X1872831D02*
D03*
X1595672Y1595698D02*
D03*
X1591735D02*
D03*
X1595672Y1438218D02*
D03*
X1591735D02*
D03*
X1595672Y1280738D02*
D03*
X1591735D02*
D03*
X1595672Y1123258D02*
D03*
X1591735D02*
D03*
X1595672Y965777D02*
D03*
X1591735D02*
D03*
X1595672Y808297D02*
D03*
X1591735D02*
D03*
X1595672Y650816D02*
D03*
X1591735D02*
D03*
X1595672Y493336D02*
D03*
X1591735D02*
D03*
X1595672Y335856D02*
D03*
X1591735D02*
D03*
X1595672Y178376D02*
D03*
X1591735D02*
D03*
X1711413Y1595702D02*
D03*
X1715350D02*
D03*
X1711413Y1438221D02*
D03*
X1715350D02*
D03*
X1711413Y1280741D02*
D03*
X1715350D02*
D03*
X1711413Y1123261D02*
D03*
X1715350D02*
D03*
X1711413Y965780D02*
D03*
X1715350D02*
D03*
X1711413Y808300D02*
D03*
X1715350D02*
D03*
X1711413Y650820D02*
D03*
X1715350D02*
D03*
X1711413Y493339D02*
D03*
X1715350D02*
D03*
X1711413Y335859D02*
D03*
X1715350D02*
D03*
X1711413Y178379D02*
D03*
X1715350D02*
D03*
X1438191Y1595698D02*
D03*
X1434254D02*
D03*
X1438191Y1438218D02*
D03*
X1434254D02*
D03*
X1438191Y1280738D02*
D03*
X1434254D02*
D03*
X1438191Y1123258D02*
D03*
X1434254D02*
D03*
X1438191Y965777D02*
D03*
X1434254D02*
D03*
X1438191Y808297D02*
D03*
X1434254D02*
D03*
X1438191Y650816D02*
D03*
X1434254D02*
D03*
X1438191Y493336D02*
D03*
X1434254D02*
D03*
X1438191Y335856D02*
D03*
X1434254D02*
D03*
X1438191Y178376D02*
D03*
X1434254D02*
D03*
X1553933Y1595702D02*
D03*
X1557870D02*
D03*
X1553933Y1438221D02*
D03*
X1557870D02*
D03*
X1553933Y1280741D02*
D03*
X1557870D02*
D03*
X1553933Y1123261D02*
D03*
X1557870D02*
D03*
X1553933Y965780D02*
D03*
X1557870D02*
D03*
X1553933Y808300D02*
D03*
X1557870D02*
D03*
X1553933Y650820D02*
D03*
X1557870D02*
D03*
X1553933Y493339D02*
D03*
X1557870D02*
D03*
X1553933Y335859D02*
D03*
X1557870D02*
D03*
X1553933Y178379D02*
D03*
X1557870D02*
D03*
X1280711Y1595698D02*
D03*
X1276774D02*
D03*
X1280711Y1438218D02*
D03*
X1276774D02*
D03*
X1280711Y1280738D02*
D03*
X1276774D02*
D03*
X1280711Y1123258D02*
D03*
X1276774D02*
D03*
X1280711Y965777D02*
D03*
X1276774D02*
D03*
X1280711Y808297D02*
D03*
X1276774D02*
D03*
X1280711Y650816D02*
D03*
X1276774D02*
D03*
X1280711Y493336D02*
D03*
X1276774D02*
D03*
X1280711Y335856D02*
D03*
X1276774D02*
D03*
X1280711Y178376D02*
D03*
X1276774D02*
D03*
X1396453Y1595702D02*
D03*
X1400390D02*
D03*
X1396453Y1438221D02*
D03*
X1400390D02*
D03*
X1396453Y1280741D02*
D03*
X1400390D02*
D03*
X1396453Y1123261D02*
D03*
X1400390D02*
D03*
X1396453Y965780D02*
D03*
X1400390D02*
D03*
X1396453Y808300D02*
D03*
X1400390D02*
D03*
X1396453Y650820D02*
D03*
X1400390D02*
D03*
X1396453Y493339D02*
D03*
X1400390D02*
D03*
X1396453Y335859D02*
D03*
X1400390D02*
D03*
X1396453Y178379D02*
D03*
X1400390D02*
D03*
X1123231Y1595698D02*
D03*
X1119294D02*
D03*
X1123231Y1438218D02*
D03*
X1119294D02*
D03*
X1123231Y1280738D02*
D03*
X1119294D02*
D03*
X1123231Y1123258D02*
D03*
X1119294D02*
D03*
X1123231Y965777D02*
D03*
X1119294D02*
D03*
X1123231Y808297D02*
D03*
X1119294D02*
D03*
X1123231Y650816D02*
D03*
X1119294D02*
D03*
X1123231Y493336D02*
D03*
X1119294D02*
D03*
X1123231Y335856D02*
D03*
X1119294D02*
D03*
X1123231Y178376D02*
D03*
X1119294D02*
D03*
X1238972Y1595702D02*
D03*
X1242909D02*
D03*
X1238972Y1438221D02*
D03*
X1242909D02*
D03*
X1238972Y1280741D02*
D03*
X1242909D02*
D03*
X1238972Y1123261D02*
D03*
X1242909D02*
D03*
X1238972Y965780D02*
D03*
X1242909D02*
D03*
X1238972Y808300D02*
D03*
X1242909D02*
D03*
X1238972Y650820D02*
D03*
X1242909D02*
D03*
X1238972Y493339D02*
D03*
X1242909D02*
D03*
X1238972Y335859D02*
D03*
X1242909D02*
D03*
X1238972Y178379D02*
D03*
X1242909D02*
D03*
X965750Y1595698D02*
D03*
X961813D02*
D03*
X965750Y1438218D02*
D03*
X961813D02*
D03*
X965750Y1280738D02*
D03*
X961813D02*
D03*
X965750Y1123258D02*
D03*
X961813D02*
D03*
X965750Y965777D02*
D03*
X961813D02*
D03*
X965750Y808297D02*
D03*
X961813D02*
D03*
X965750Y650816D02*
D03*
X961813D02*
D03*
X965750Y493336D02*
D03*
X961813D02*
D03*
X965750Y335856D02*
D03*
X961813D02*
D03*
X965750Y178376D02*
D03*
X961813D02*
D03*
X1081492Y1595702D02*
D03*
X1085429D02*
D03*
X1081492Y1438221D02*
D03*
X1085429D02*
D03*
X1081492Y1280741D02*
D03*
X1085429D02*
D03*
X1081492Y1123261D02*
D03*
X1085429D02*
D03*
X1081492Y965780D02*
D03*
X1085429D02*
D03*
X1081492Y808300D02*
D03*
X1085429D02*
D03*
X1081492Y650820D02*
D03*
X1085429D02*
D03*
X1081492Y493339D02*
D03*
X1085429D02*
D03*
X1081492Y335859D02*
D03*
X1085429D02*
D03*
X1081492Y178379D02*
D03*
X1085429D02*
D03*
X808270Y1595698D02*
D03*
X804333D02*
D03*
X808270Y1438218D02*
D03*
X804333D02*
D03*
X808270Y1280738D02*
D03*
X804333D02*
D03*
X808270Y1123258D02*
D03*
X804333D02*
D03*
X808270Y965777D02*
D03*
X804333D02*
D03*
X808270Y808297D02*
D03*
X804333D02*
D03*
X808270Y650816D02*
D03*
X804333D02*
D03*
X808270Y493336D02*
D03*
X804333D02*
D03*
X808270Y335856D02*
D03*
X804333D02*
D03*
X808270Y178376D02*
D03*
X804333D02*
D03*
X924012Y1595702D02*
D03*
X927949D02*
D03*
X924012Y1438221D02*
D03*
X927949D02*
D03*
X924012Y1280741D02*
D03*
X927949D02*
D03*
X924012Y1123261D02*
D03*
X927949D02*
D03*
X924012Y965780D02*
D03*
X927949D02*
D03*
X924012Y808300D02*
D03*
X927949D02*
D03*
X924012Y650820D02*
D03*
X927949D02*
D03*
X924012Y493339D02*
D03*
X927949D02*
D03*
X924012Y335859D02*
D03*
X927949D02*
D03*
X924012Y178379D02*
D03*
X927949D02*
D03*
X650790Y1595698D02*
D03*
X646853D02*
D03*
X650790Y1438218D02*
D03*
X646853D02*
D03*
X650790Y1280738D02*
D03*
X646853D02*
D03*
X650790Y1123258D02*
D03*
X646853D02*
D03*
X650790Y965777D02*
D03*
X646853D02*
D03*
X650790Y808297D02*
D03*
X646853D02*
D03*
X650790Y650816D02*
D03*
X646853D02*
D03*
X650790Y493336D02*
D03*
X646853D02*
D03*
X650790Y335856D02*
D03*
X646853D02*
D03*
X650790Y178376D02*
D03*
X646853D02*
D03*
X766532Y1595702D02*
D03*
X770469D02*
D03*
X766532Y1438221D02*
D03*
X770469D02*
D03*
X766532Y1280741D02*
D03*
X770469D02*
D03*
X766532Y1123261D02*
D03*
X770469D02*
D03*
X766532Y965780D02*
D03*
X770469D02*
D03*
X766532Y808300D02*
D03*
X770469D02*
D03*
X766532Y650820D02*
D03*
X770469D02*
D03*
X766532Y493339D02*
D03*
X770469D02*
D03*
X766532Y335859D02*
D03*
X770469D02*
D03*
X766532Y178379D02*
D03*
X770469D02*
D03*
X493309Y1595698D02*
D03*
X489372D02*
D03*
X493309Y1438218D02*
D03*
X489372D02*
D03*
X493309Y1280738D02*
D03*
X489372D02*
D03*
X493309Y1123258D02*
D03*
X489372D02*
D03*
X493309Y965777D02*
D03*
X489372D02*
D03*
X493309Y808297D02*
D03*
X489372D02*
D03*
X493309Y650816D02*
D03*
X489372D02*
D03*
X493309Y493336D02*
D03*
X489372D02*
D03*
X493309Y335856D02*
D03*
X489372D02*
D03*
X493309Y178376D02*
D03*
X489372D02*
D03*
X609051Y1595702D02*
D03*
X612988D02*
D03*
X609051Y1438221D02*
D03*
X612988D02*
D03*
X609051Y1280741D02*
D03*
X612988D02*
D03*
X609051Y1123261D02*
D03*
X612988D02*
D03*
X609051Y965780D02*
D03*
X612988D02*
D03*
X609051Y808300D02*
D03*
X612988D02*
D03*
X609051Y650820D02*
D03*
X612988D02*
D03*
X609051Y493339D02*
D03*
X612988D02*
D03*
X609051Y335859D02*
D03*
X612988D02*
D03*
X609051Y178379D02*
D03*
X612988D02*
D03*
X335829Y1595698D02*
D03*
X331892D02*
D03*
X335829Y1438218D02*
D03*
X331892D02*
D03*
X335829Y1280738D02*
D03*
X331892D02*
D03*
X335829Y1123258D02*
D03*
X331892D02*
D03*
X335829Y965777D02*
D03*
X331892D02*
D03*
X335829Y808297D02*
D03*
X331892D02*
D03*
X335829Y650816D02*
D03*
X331892D02*
D03*
X335829Y493336D02*
D03*
X331892D02*
D03*
X335829Y335856D02*
D03*
X331892D02*
D03*
X335829Y178376D02*
D03*
X331892D02*
D03*
X451571Y1595702D02*
D03*
X455508D02*
D03*
X451571Y1438221D02*
D03*
X455508D02*
D03*
X451571Y1280741D02*
D03*
X455508D02*
D03*
X451571Y1123261D02*
D03*
X455508D02*
D03*
X451571Y965780D02*
D03*
X455508D02*
D03*
X451571Y808300D02*
D03*
X455508D02*
D03*
X451571Y650820D02*
D03*
X455508D02*
D03*
X451571Y493339D02*
D03*
X455508D02*
D03*
X451571Y335859D02*
D03*
X455508D02*
D03*
X451571Y178379D02*
D03*
X455508D02*
D03*
X178349Y1595698D02*
D03*
X174412D02*
D03*
X178349Y1438218D02*
D03*
X174412D02*
D03*
X178349Y1280738D02*
D03*
X174412D02*
D03*
X178349Y1123258D02*
D03*
X174412D02*
D03*
X178349Y965777D02*
D03*
X174412D02*
D03*
X178349Y808297D02*
D03*
X174412D02*
D03*
X178349Y650816D02*
D03*
X174412D02*
D03*
X178349Y493336D02*
D03*
X174412D02*
D03*
X178349Y335856D02*
D03*
X174412D02*
D03*
X178349Y178376D02*
D03*
X174412D02*
D03*
X294091Y1595702D02*
D03*
X298028D02*
D03*
X294091Y1438221D02*
D03*
X298028D02*
D03*
X294091Y1280741D02*
D03*
X298028D02*
D03*
X294091Y1123261D02*
D03*
X298028D02*
D03*
X294091Y965780D02*
D03*
X298028D02*
D03*
X294091Y808300D02*
D03*
X298028D02*
D03*
X294091Y650820D02*
D03*
X298028D02*
D03*
X294091Y493339D02*
D03*
X298028D02*
D03*
X294091Y335859D02*
D03*
X298028D02*
D03*
X294091Y178379D02*
D03*
X298028D02*
D03*
X136610D02*
D03*
X140547D02*
D03*
X136610Y335859D02*
D03*
X140547D02*
D03*
X136610Y493339D02*
D03*
X140547D02*
D03*
X136610Y650820D02*
D03*
X140547D02*
D03*
X136610Y808300D02*
D03*
X140547D02*
D03*
X136610Y965780D02*
D03*
X140547D02*
D03*
X136610Y1123261D02*
D03*
X140547D02*
D03*
X136610Y1280741D02*
D03*
X140547D02*
D03*
X136610Y1438221D02*
D03*
X140547D02*
D03*
X136610Y1595702D02*
D03*
X140547D02*
D03*
X20868Y178376D02*
D03*
X16931D02*
D03*
X20868Y335856D02*
D03*
X16931D02*
D03*
X20868Y493336D02*
D03*
X16931D02*
D03*
X20868Y650816D02*
D03*
X16931D02*
D03*
X20868Y808297D02*
D03*
X16931D02*
D03*
X20868Y965777D02*
D03*
X16931D02*
D03*
X20868Y1123258D02*
D03*
X16931D02*
D03*
X20868Y1280738D02*
D03*
X16931D02*
D03*
X20868Y1438218D02*
D03*
X16931D02*
D03*
X20868Y1595698D02*
D03*
X16931D02*
D03*
M02*
