G04 Layer_Color=16711935*
%FSLAX25Y25*%
%MOIN*%
G70*
G01*
G75*
%ADD50R,0.03162X0.02769*%
%ADD51O,0.04730X0.08270*%
%ADD52O,0.05120X0.07490*%
%ADD53R,0.07487X0.07487*%
%ADD54C,0.07487*%
%ADD55C,0.06299*%
%ADD56R,0.03943X0.03550*%
%ADD57R,0.02526X0.02627*%
%ADD58R,0.02370X0.05520*%
%ADD59R,0.01500X0.05520*%
%ADD60R,0.07100X0.05150*%
%ADD61R,0.03575X0.03802*%
%ADD62R,0.03550X0.03550*%
%ADD63R,0.14180X0.10240*%
%ADD64R,0.02760X0.05120*%
%ADD65R,0.09660X0.06510*%
%ADD66O,0.01903X0.03891*%
%ADD67R,0.05715X0.05951*%
%ADD68R,0.03550X0.03943*%
%ADD69R,0.05520X0.14970*%
%ADD70R,0.04340X0.03550*%
%ADD71R,0.03802X0.03575*%
%ADD72O,0.02605X0.07270*%
%ADD73R,0.05321X0.03156*%
%ADD74R,0.05715X0.07487*%
%ADD75R,0.10240X0.05910*%
%ADD76R,0.05910X0.07090*%
%ADD77O,0.02770X0.08160*%
D50*
X3128831Y1595700D02*
D03*
X3132768D02*
D03*
X3012899Y1595700D02*
D03*
X3008962D02*
D03*
X2855419D02*
D03*
X2851482D02*
D03*
X2971351Y1595700D02*
D03*
X2975288D02*
D03*
X2697939Y1595700D02*
D03*
X2694002D02*
D03*
X2813871Y1595700D02*
D03*
X2817808D02*
D03*
X2540458Y1595700D02*
D03*
X2536521D02*
D03*
X2656391Y1595700D02*
D03*
X2660328D02*
D03*
X2026469Y1595700D02*
D03*
X2030406D02*
D03*
X1910537Y1595700D02*
D03*
X1906600D02*
D03*
X2183950Y1595700D02*
D03*
X2187887D02*
D03*
X2068017Y1595700D02*
D03*
X2064080D02*
D03*
X2341430Y1595700D02*
D03*
X2345367D02*
D03*
X2225498Y1595700D02*
D03*
X2221561D02*
D03*
X2382978D02*
D03*
X2379041D02*
D03*
X2498910Y1595700D02*
D03*
X2502847D02*
D03*
X1396548D02*
D03*
X1400485D02*
D03*
X1280616Y1595700D02*
D03*
X1276679D02*
D03*
X1554028Y1595700D02*
D03*
X1557965D02*
D03*
X1438096Y1595700D02*
D03*
X1434159D02*
D03*
X1711509Y1595700D02*
D03*
X1715446D02*
D03*
X1595576Y1595700D02*
D03*
X1591639D02*
D03*
X1753057D02*
D03*
X1749120D02*
D03*
X1868989Y1595700D02*
D03*
X1872926D02*
D03*
X766627D02*
D03*
X770564D02*
D03*
X650695Y1595700D02*
D03*
X646758D02*
D03*
X924107Y1595700D02*
D03*
X928044D02*
D03*
X808175Y1595700D02*
D03*
X804238D02*
D03*
X1081587Y1595700D02*
D03*
X1085524D02*
D03*
X965655Y1595700D02*
D03*
X961718D02*
D03*
X1123135D02*
D03*
X1119198D02*
D03*
X1239068Y1595700D02*
D03*
X1243005D02*
D03*
X136706D02*
D03*
X140642D02*
D03*
X20773Y1595700D02*
D03*
X16836D02*
D03*
X294186Y1595700D02*
D03*
X298123D02*
D03*
X178254Y1595700D02*
D03*
X174317D02*
D03*
X451666Y1595700D02*
D03*
X455603D02*
D03*
X335734Y1595700D02*
D03*
X331797D02*
D03*
X493214D02*
D03*
X489277D02*
D03*
X609146Y1595700D02*
D03*
X613084D02*
D03*
X2656391Y1438220D02*
D03*
X2660328D02*
D03*
X2540458Y1438220D02*
D03*
X2536521D02*
D03*
X2813871Y1438220D02*
D03*
X2817808D02*
D03*
X2697939Y1438220D02*
D03*
X2694002D02*
D03*
X2971351Y1438220D02*
D03*
X2975288D02*
D03*
X2855419Y1438220D02*
D03*
X2851482D02*
D03*
X3012899D02*
D03*
X3008962D02*
D03*
X3128831Y1438220D02*
D03*
X3132768D02*
D03*
X2026469D02*
D03*
X2030406D02*
D03*
X1910537Y1438220D02*
D03*
X1906600D02*
D03*
X2183950Y1438220D02*
D03*
X2187887D02*
D03*
X2068017Y1438220D02*
D03*
X2064080D02*
D03*
X2341430Y1438220D02*
D03*
X2345367D02*
D03*
X2225498Y1438220D02*
D03*
X2221561D02*
D03*
X2382978D02*
D03*
X2379041D02*
D03*
X2498910Y1438220D02*
D03*
X2502847D02*
D03*
X1396548D02*
D03*
X1400485D02*
D03*
X1280616Y1438220D02*
D03*
X1276679D02*
D03*
X1554028Y1438220D02*
D03*
X1557965D02*
D03*
X1438096Y1438220D02*
D03*
X1434159D02*
D03*
X1711509Y1438220D02*
D03*
X1715446D02*
D03*
X1595576Y1438220D02*
D03*
X1591639D02*
D03*
X1753057D02*
D03*
X1749120D02*
D03*
X1868989Y1438220D02*
D03*
X1872926D02*
D03*
X766627D02*
D03*
X770564D02*
D03*
X650695Y1438220D02*
D03*
X646758D02*
D03*
X924107Y1438220D02*
D03*
X928044D02*
D03*
X808175Y1438220D02*
D03*
X804238D02*
D03*
X1081587Y1438220D02*
D03*
X1085524D02*
D03*
X965655Y1438220D02*
D03*
X961718D02*
D03*
X1123135D02*
D03*
X1119198D02*
D03*
X1239068Y1438220D02*
D03*
X1243005D02*
D03*
X136706D02*
D03*
X140642D02*
D03*
X20773Y1438220D02*
D03*
X16836D02*
D03*
X294186Y1438220D02*
D03*
X298123D02*
D03*
X178254Y1438220D02*
D03*
X174317D02*
D03*
X451666Y1438220D02*
D03*
X455603D02*
D03*
X335734Y1438220D02*
D03*
X331797D02*
D03*
X493214D02*
D03*
X489277D02*
D03*
X609146Y1438220D02*
D03*
X613084D02*
D03*
X609146Y1280739D02*
D03*
X613084D02*
D03*
X493214Y1280739D02*
D03*
X489277D02*
D03*
X335734D02*
D03*
X331797D02*
D03*
X451666Y1280739D02*
D03*
X455603D02*
D03*
X178254Y1280739D02*
D03*
X174317D02*
D03*
X294186Y1280739D02*
D03*
X298123D02*
D03*
X20773Y1280739D02*
D03*
X16836D02*
D03*
X136706Y1280739D02*
D03*
X140642D02*
D03*
X1239068D02*
D03*
X1243005D02*
D03*
X1123135Y1280739D02*
D03*
X1119198D02*
D03*
X965655D02*
D03*
X961718D02*
D03*
X1081587Y1280739D02*
D03*
X1085524D02*
D03*
X808175Y1280739D02*
D03*
X804238D02*
D03*
X924107Y1280739D02*
D03*
X928044D02*
D03*
X650695Y1280739D02*
D03*
X646758D02*
D03*
X766627Y1280739D02*
D03*
X770564D02*
D03*
X1868989D02*
D03*
X1872926D02*
D03*
X1753057Y1280739D02*
D03*
X1749120D02*
D03*
X1595576D02*
D03*
X1591639D02*
D03*
X1711509Y1280739D02*
D03*
X1715446D02*
D03*
X1438096Y1280739D02*
D03*
X1434159D02*
D03*
X1554028Y1280739D02*
D03*
X1557965D02*
D03*
X1280616Y1280739D02*
D03*
X1276679D02*
D03*
X1396548Y1280739D02*
D03*
X1400485D02*
D03*
X2498910D02*
D03*
X2502847D02*
D03*
X2382978Y1280739D02*
D03*
X2379041D02*
D03*
X2225498D02*
D03*
X2221561D02*
D03*
X2341430Y1280739D02*
D03*
X2345367D02*
D03*
X2068017Y1280739D02*
D03*
X2064080D02*
D03*
X2183950Y1280739D02*
D03*
X2187887D02*
D03*
X1910537Y1280739D02*
D03*
X1906600D02*
D03*
X2026469Y1280739D02*
D03*
X2030406D02*
D03*
X3128831D02*
D03*
X3132768D02*
D03*
X3012899Y1280739D02*
D03*
X3008962D02*
D03*
X2855419D02*
D03*
X2851482D02*
D03*
X2971351Y1280739D02*
D03*
X2975288D02*
D03*
X2697939Y1280739D02*
D03*
X2694002D02*
D03*
X2813871Y1280739D02*
D03*
X2817808D02*
D03*
X2540458Y1280739D02*
D03*
X2536521D02*
D03*
X2656391Y1280739D02*
D03*
X2660328D02*
D03*
X609146Y1123259D02*
D03*
X613084D02*
D03*
X493214Y1123259D02*
D03*
X489277D02*
D03*
X335734D02*
D03*
X331797D02*
D03*
X451666Y1123259D02*
D03*
X455603D02*
D03*
X178254Y1123259D02*
D03*
X174317D02*
D03*
X294186Y1123259D02*
D03*
X298123D02*
D03*
X20773Y1123259D02*
D03*
X16836D02*
D03*
X136706Y1123259D02*
D03*
X140642D02*
D03*
X1239068D02*
D03*
X1243005D02*
D03*
X1123135Y1123259D02*
D03*
X1119198D02*
D03*
X965655D02*
D03*
X961718D02*
D03*
X1081587Y1123259D02*
D03*
X1085524D02*
D03*
X808175Y1123259D02*
D03*
X804238D02*
D03*
X924107Y1123259D02*
D03*
X928044D02*
D03*
X650695Y1123259D02*
D03*
X646758D02*
D03*
X766627Y1123259D02*
D03*
X770564D02*
D03*
X1868989D02*
D03*
X1872926D02*
D03*
X1753057Y1123259D02*
D03*
X1749120D02*
D03*
X1595576D02*
D03*
X1591639D02*
D03*
X1711509Y1123259D02*
D03*
X1715446D02*
D03*
X1438096Y1123259D02*
D03*
X1434159D02*
D03*
X1554028Y1123259D02*
D03*
X1557965D02*
D03*
X1280616Y1123259D02*
D03*
X1276679D02*
D03*
X1396548Y1123259D02*
D03*
X1400485D02*
D03*
X2498910D02*
D03*
X2502847D02*
D03*
X2382978Y1123259D02*
D03*
X2379041D02*
D03*
X2225498D02*
D03*
X2221561D02*
D03*
X2341430Y1123259D02*
D03*
X2345367D02*
D03*
X2068017Y1123259D02*
D03*
X2064080D02*
D03*
X2183950Y1123259D02*
D03*
X2187887D02*
D03*
X1910537Y1123259D02*
D03*
X1906600D02*
D03*
X2026469Y1123259D02*
D03*
X2030406D02*
D03*
X3128831D02*
D03*
X3132768D02*
D03*
X3012899Y1123259D02*
D03*
X3008962D02*
D03*
X2855419D02*
D03*
X2851482D02*
D03*
X2971351Y1123259D02*
D03*
X2975288D02*
D03*
X2697939Y1123259D02*
D03*
X2694002D02*
D03*
X2813871Y1123259D02*
D03*
X2817808D02*
D03*
X2540458Y1123259D02*
D03*
X2536521D02*
D03*
X2656391Y1123259D02*
D03*
X2660328D02*
D03*
X609146Y965779D02*
D03*
X613084D02*
D03*
X493214Y965779D02*
D03*
X489277D02*
D03*
X335734D02*
D03*
X331797D02*
D03*
X451666Y965779D02*
D03*
X455603D02*
D03*
X178254Y965779D02*
D03*
X174317D02*
D03*
X294186Y965779D02*
D03*
X298123D02*
D03*
X20773Y965779D02*
D03*
X16836D02*
D03*
X136706Y965779D02*
D03*
X140642D02*
D03*
X1239068D02*
D03*
X1243005D02*
D03*
X1123135Y965779D02*
D03*
X1119198D02*
D03*
X965655D02*
D03*
X961718D02*
D03*
X1081587Y965779D02*
D03*
X1085524D02*
D03*
X808175Y965779D02*
D03*
X804238D02*
D03*
X924107Y965779D02*
D03*
X928044D02*
D03*
X650695Y965779D02*
D03*
X646758D02*
D03*
X766627Y965779D02*
D03*
X770564D02*
D03*
X1868989D02*
D03*
X1872926D02*
D03*
X1753057Y965779D02*
D03*
X1749120D02*
D03*
X1595576D02*
D03*
X1591639D02*
D03*
X1711509Y965779D02*
D03*
X1715446D02*
D03*
X1438096Y965779D02*
D03*
X1434159D02*
D03*
X1554028Y965779D02*
D03*
X1557965D02*
D03*
X1280616Y965779D02*
D03*
X1276679D02*
D03*
X1396548Y965779D02*
D03*
X1400485D02*
D03*
X2498910D02*
D03*
X2502847D02*
D03*
X2382978Y965779D02*
D03*
X2379041D02*
D03*
X2225498D02*
D03*
X2221561D02*
D03*
X2341430Y965779D02*
D03*
X2345367D02*
D03*
X2068017Y965779D02*
D03*
X2064080D02*
D03*
X2183950Y965779D02*
D03*
X2187887D02*
D03*
X1910537Y965779D02*
D03*
X1906600D02*
D03*
X2026469Y965779D02*
D03*
X2030406D02*
D03*
X3128831D02*
D03*
X3132768D02*
D03*
X3012899Y965779D02*
D03*
X3008962D02*
D03*
X2855419D02*
D03*
X2851482D02*
D03*
X2971351Y965779D02*
D03*
X2975288D02*
D03*
X2697939Y965779D02*
D03*
X2694002D02*
D03*
X2813871Y965779D02*
D03*
X2817808D02*
D03*
X2540458Y965779D02*
D03*
X2536521D02*
D03*
X2656391Y965779D02*
D03*
X2660328D02*
D03*
X609146Y808298D02*
D03*
X613084D02*
D03*
X493214Y808298D02*
D03*
X489277D02*
D03*
X335734D02*
D03*
X331797D02*
D03*
X451666Y808298D02*
D03*
X455603D02*
D03*
X178254Y808298D02*
D03*
X174317D02*
D03*
X294186Y808298D02*
D03*
X298123D02*
D03*
X20773Y808298D02*
D03*
X16836D02*
D03*
X136706Y808298D02*
D03*
X140642D02*
D03*
X1239068D02*
D03*
X1243005D02*
D03*
X1123135Y808298D02*
D03*
X1119198D02*
D03*
X965655D02*
D03*
X961718D02*
D03*
X1081587Y808298D02*
D03*
X1085524D02*
D03*
X808175Y808298D02*
D03*
X804238D02*
D03*
X924107Y808298D02*
D03*
X928044D02*
D03*
X650695Y808298D02*
D03*
X646758D02*
D03*
X766627Y808298D02*
D03*
X770564D02*
D03*
X1868989D02*
D03*
X1872926D02*
D03*
X1753057Y808298D02*
D03*
X1749120D02*
D03*
X1595576D02*
D03*
X1591639D02*
D03*
X1711509Y808298D02*
D03*
X1715446D02*
D03*
X1438096Y808298D02*
D03*
X1434159D02*
D03*
X1554028Y808298D02*
D03*
X1557965D02*
D03*
X1280616Y808298D02*
D03*
X1276679D02*
D03*
X1396548Y808298D02*
D03*
X1400485D02*
D03*
X2498910D02*
D03*
X2502847D02*
D03*
X2382978Y808298D02*
D03*
X2379041D02*
D03*
X2225498D02*
D03*
X2221561D02*
D03*
X2341430Y808298D02*
D03*
X2345367D02*
D03*
X2068017Y808298D02*
D03*
X2064080D02*
D03*
X2183950Y808298D02*
D03*
X2187887D02*
D03*
X1910537Y808298D02*
D03*
X1906600D02*
D03*
X2026469Y808298D02*
D03*
X2030406D02*
D03*
X3128831D02*
D03*
X3132768D02*
D03*
X3012899Y808298D02*
D03*
X3008962D02*
D03*
X2855419D02*
D03*
X2851482D02*
D03*
X2971351Y808298D02*
D03*
X2975288D02*
D03*
X2697939Y808298D02*
D03*
X2694002D02*
D03*
X2813871Y808298D02*
D03*
X2817808D02*
D03*
X2540458Y808298D02*
D03*
X2536521D02*
D03*
X2656391Y808298D02*
D03*
X2660328D02*
D03*
X609146Y650818D02*
D03*
X613084D02*
D03*
X493214Y650818D02*
D03*
X489277D02*
D03*
X335734D02*
D03*
X331797D02*
D03*
X451666Y650818D02*
D03*
X455603D02*
D03*
X178254Y650818D02*
D03*
X174317D02*
D03*
X294186Y650818D02*
D03*
X298123D02*
D03*
X20773Y650818D02*
D03*
X16836D02*
D03*
X136706Y650818D02*
D03*
X140642D02*
D03*
X1239068D02*
D03*
X1243005D02*
D03*
X1123135Y650818D02*
D03*
X1119198D02*
D03*
X965655D02*
D03*
X961718D02*
D03*
X1081587Y650818D02*
D03*
X1085524D02*
D03*
X808175Y650818D02*
D03*
X804238D02*
D03*
X924107Y650818D02*
D03*
X928044D02*
D03*
X650695Y650818D02*
D03*
X646758D02*
D03*
X766627Y650818D02*
D03*
X770564D02*
D03*
X1868989D02*
D03*
X1872926D02*
D03*
X1753057Y650818D02*
D03*
X1749120D02*
D03*
X1595576D02*
D03*
X1591639D02*
D03*
X1711509Y650818D02*
D03*
X1715446D02*
D03*
X1438096Y650818D02*
D03*
X1434159D02*
D03*
X1554028Y650818D02*
D03*
X1557965D02*
D03*
X1280616Y650818D02*
D03*
X1276679D02*
D03*
X1396548Y650818D02*
D03*
X1400485D02*
D03*
X2498910D02*
D03*
X2502847D02*
D03*
X2382978Y650818D02*
D03*
X2379041D02*
D03*
X2225498D02*
D03*
X2221561D02*
D03*
X2341430Y650818D02*
D03*
X2345367D02*
D03*
X2068017Y650818D02*
D03*
X2064080D02*
D03*
X2183950Y650818D02*
D03*
X2187887D02*
D03*
X1910537Y650818D02*
D03*
X1906600D02*
D03*
X2026469Y650818D02*
D03*
X2030406D02*
D03*
X3128831D02*
D03*
X3132768D02*
D03*
X3012899Y650818D02*
D03*
X3008962D02*
D03*
X2855419D02*
D03*
X2851482D02*
D03*
X2971351Y650818D02*
D03*
X2975288D02*
D03*
X2697939Y650818D02*
D03*
X2694002D02*
D03*
X2813871Y650818D02*
D03*
X2817808D02*
D03*
X2540458Y650818D02*
D03*
X2536521D02*
D03*
X2656391Y650818D02*
D03*
X2660328D02*
D03*
X609146Y493338D02*
D03*
X613084D02*
D03*
X493214Y493338D02*
D03*
X489277D02*
D03*
X335734D02*
D03*
X331797D02*
D03*
X451666Y493338D02*
D03*
X455603D02*
D03*
X178254Y493338D02*
D03*
X174317D02*
D03*
X294186Y493338D02*
D03*
X298123D02*
D03*
X20773Y493338D02*
D03*
X16836D02*
D03*
X136706Y493338D02*
D03*
X140642D02*
D03*
X1239068D02*
D03*
X1243005D02*
D03*
X1123135Y493338D02*
D03*
X1119198D02*
D03*
X965655D02*
D03*
X961718D02*
D03*
X1081587Y493338D02*
D03*
X1085524D02*
D03*
X808175Y493338D02*
D03*
X804238D02*
D03*
X924107Y493338D02*
D03*
X928044D02*
D03*
X650695Y493338D02*
D03*
X646758D02*
D03*
X766627Y493338D02*
D03*
X770564D02*
D03*
X1868989D02*
D03*
X1872926D02*
D03*
X1753057Y493338D02*
D03*
X1749120D02*
D03*
X1595576D02*
D03*
X1591639D02*
D03*
X1711509Y493338D02*
D03*
X1715446D02*
D03*
X1438096Y493338D02*
D03*
X1434159D02*
D03*
X1554028Y493338D02*
D03*
X1557965D02*
D03*
X1280616Y493338D02*
D03*
X1276679D02*
D03*
X1396548Y493338D02*
D03*
X1400485D02*
D03*
X2498910D02*
D03*
X2502847D02*
D03*
X2382978Y493338D02*
D03*
X2379041D02*
D03*
X2225498D02*
D03*
X2221561D02*
D03*
X2341430Y493338D02*
D03*
X2345367D02*
D03*
X2068017Y493338D02*
D03*
X2064080D02*
D03*
X2183950Y493338D02*
D03*
X2187887D02*
D03*
X1910537Y493338D02*
D03*
X1906600D02*
D03*
X2026469Y493338D02*
D03*
X2030406D02*
D03*
X3128831D02*
D03*
X3132768D02*
D03*
X3012899Y493338D02*
D03*
X3008962D02*
D03*
X2855419D02*
D03*
X2851482D02*
D03*
X2971351Y493338D02*
D03*
X2975288D02*
D03*
X2697939Y493338D02*
D03*
X2694002D02*
D03*
X2813871Y493338D02*
D03*
X2817808D02*
D03*
X2540458Y493338D02*
D03*
X2536521D02*
D03*
X2656391Y493338D02*
D03*
X2660328D02*
D03*
X609146Y335858D02*
D03*
X613084D02*
D03*
X493214Y335858D02*
D03*
X489277D02*
D03*
X335734D02*
D03*
X331797D02*
D03*
X451666Y335858D02*
D03*
X455603D02*
D03*
X178254Y335858D02*
D03*
X174317D02*
D03*
X294186Y335858D02*
D03*
X298123D02*
D03*
X20773Y335858D02*
D03*
X16836D02*
D03*
X136706Y335858D02*
D03*
X140642D02*
D03*
X1239068D02*
D03*
X1243005D02*
D03*
X1123135Y335858D02*
D03*
X1119198D02*
D03*
X965655D02*
D03*
X961718D02*
D03*
X1081587Y335858D02*
D03*
X1085524D02*
D03*
X808175Y335858D02*
D03*
X804238D02*
D03*
X924107Y335858D02*
D03*
X928044D02*
D03*
X650695Y335858D02*
D03*
X646758D02*
D03*
X766627Y335858D02*
D03*
X770564D02*
D03*
X1868989D02*
D03*
X1872926D02*
D03*
X1753057Y335858D02*
D03*
X1749120D02*
D03*
X1595576D02*
D03*
X1591639D02*
D03*
X1711509Y335858D02*
D03*
X1715446D02*
D03*
X1438096Y335858D02*
D03*
X1434159D02*
D03*
X1554028Y335858D02*
D03*
X1557965D02*
D03*
X1280616Y335858D02*
D03*
X1276679D02*
D03*
X1396548Y335858D02*
D03*
X1400485D02*
D03*
X2498910D02*
D03*
X2502847D02*
D03*
X2382978Y335858D02*
D03*
X2379041D02*
D03*
X2225498D02*
D03*
X2221561D02*
D03*
X2341430Y335858D02*
D03*
X2345367D02*
D03*
X2068017Y335858D02*
D03*
X2064080D02*
D03*
X2183950Y335858D02*
D03*
X2187887D02*
D03*
X1910537Y335858D02*
D03*
X1906600D02*
D03*
X2026469Y335858D02*
D03*
X2030406D02*
D03*
X3128831D02*
D03*
X3132768D02*
D03*
X3012899Y335858D02*
D03*
X3008962D02*
D03*
X2855419D02*
D03*
X2851482D02*
D03*
X2971351Y335858D02*
D03*
X2975288D02*
D03*
X2697939Y335858D02*
D03*
X2694002D02*
D03*
X2813871Y335858D02*
D03*
X2817808D02*
D03*
X2540458Y335858D02*
D03*
X2536521D02*
D03*
X2656391Y335858D02*
D03*
X2660328D02*
D03*
X609146Y178377D02*
D03*
X613084D02*
D03*
X493214Y178377D02*
D03*
X489277D02*
D03*
X335734D02*
D03*
X331797D02*
D03*
X451666Y178377D02*
D03*
X455603D02*
D03*
X178254Y178377D02*
D03*
X174317D02*
D03*
X294186Y178377D02*
D03*
X298123D02*
D03*
X20773Y178377D02*
D03*
X16836D02*
D03*
X136706Y178377D02*
D03*
X140642D02*
D03*
X1239068D02*
D03*
X1243005D02*
D03*
X1123135Y178377D02*
D03*
X1119198D02*
D03*
X965655D02*
D03*
X961718D02*
D03*
X1081587Y178377D02*
D03*
X1085524D02*
D03*
X808175Y178377D02*
D03*
X804238D02*
D03*
X924107Y178377D02*
D03*
X928044D02*
D03*
X650695Y178377D02*
D03*
X646758D02*
D03*
X766627Y178377D02*
D03*
X770564D02*
D03*
X1868989D02*
D03*
X1872926D02*
D03*
X1753057Y178377D02*
D03*
X1749120D02*
D03*
X1595576D02*
D03*
X1591639D02*
D03*
X1711509Y178377D02*
D03*
X1715446D02*
D03*
X1438096Y178377D02*
D03*
X1434159D02*
D03*
X1554028Y178377D02*
D03*
X1557965D02*
D03*
X1280616Y178377D02*
D03*
X1276679D02*
D03*
X1396548Y178377D02*
D03*
X1400485D02*
D03*
X2498910D02*
D03*
X2502847D02*
D03*
X2382978Y178377D02*
D03*
X2379041D02*
D03*
X2225498D02*
D03*
X2221561D02*
D03*
X2341430Y178377D02*
D03*
X2345367D02*
D03*
X2068017Y178377D02*
D03*
X2064080D02*
D03*
X2183950Y178377D02*
D03*
X2187887D02*
D03*
X1910537Y178377D02*
D03*
X1906600D02*
D03*
X2026469Y178377D02*
D03*
X2030406D02*
D03*
X3128831D02*
D03*
X3132768D02*
D03*
X3012899Y178377D02*
D03*
X3008962D02*
D03*
X2855419D02*
D03*
X2851482D02*
D03*
X2971351Y178377D02*
D03*
X2975288D02*
D03*
X2697939Y178377D02*
D03*
X2694002D02*
D03*
X2813871Y178377D02*
D03*
X2817808D02*
D03*
X2540458Y178377D02*
D03*
X2536521D02*
D03*
X2656391Y178377D02*
D03*
X2660328D02*
D03*
D51*
X3047350Y1746440D02*
D03*
X3081370D02*
D03*
D52*
Y1762970D02*
D03*
X3047350D02*
D03*
D53*
X2950640Y1744140D02*
D03*
D54*
Y1734140D02*
D03*
D55*
X2874810Y1735754D02*
D03*
Y1727880D02*
D03*
Y1720006D02*
D03*
X2857094D02*
D03*
Y1727880D02*
D03*
Y1735754D02*
D03*
D56*
X2981500Y1741174D02*
D03*
Y1746686D02*
D03*
X2992610Y1708584D02*
D03*
Y1714096D02*
D03*
X2973650Y1741244D02*
D03*
Y1746756D02*
D03*
X2985170Y1708500D02*
D03*
Y1714012D02*
D03*
D57*
X3040580Y1753986D02*
D03*
Y1757394D02*
D03*
X3087920D02*
D03*
Y1753986D02*
D03*
D58*
X3051760Y1742230D02*
D03*
X3054910D02*
D03*
X3073810D02*
D03*
X3076960D02*
D03*
D59*
X3057470D02*
D03*
X3059440D02*
D03*
X3061410D02*
D03*
X3063380D02*
D03*
X3065340D02*
D03*
X3067310D02*
D03*
X3069280D02*
D03*
X3071250D02*
D03*
D60*
X3022540Y1739900D02*
D03*
Y1728260D02*
D03*
D61*
X3006986Y1714060D02*
D03*
X3001054D02*
D03*
X2994506Y1756430D02*
D03*
X2988574D02*
D03*
X3003204Y1756510D02*
D03*
X3009136D02*
D03*
X2950446Y1765660D02*
D03*
X2944514D02*
D03*
X2964756Y1765480D02*
D03*
X2958824D02*
D03*
X2914648Y1723272D02*
D03*
X2908716D02*
D03*
X2898748Y1716642D02*
D03*
X2892816D02*
D03*
X2898648Y1723272D02*
D03*
X2892716D02*
D03*
X2746904Y1708100D02*
D03*
X2752836D02*
D03*
X2746874Y1700950D02*
D03*
X2752806D02*
D03*
X2849116Y1724240D02*
D03*
X2843184D02*
D03*
X2849056Y1731280D02*
D03*
X2843124D02*
D03*
D62*
X2986940Y1765760D02*
D03*
X2993640D02*
D03*
X3010410Y1765610D02*
D03*
X3003710D02*
D03*
D63*
X2998980Y1735850D02*
D03*
D64*
X3006480Y1747300D02*
D03*
X3001480D02*
D03*
X2996480D02*
D03*
X2991480D02*
D03*
Y1724400D02*
D03*
X2996480D02*
D03*
X3001480D02*
D03*
X3006480D02*
D03*
D65*
X2907260Y1738689D02*
D03*
D66*
X2903320Y1733148D02*
D03*
X2905290D02*
D03*
X2907260D02*
D03*
X2909230D02*
D03*
X2911200D02*
D03*
Y1744230D02*
D03*
X2909230D02*
D03*
X2907260D02*
D03*
X2905290D02*
D03*
X2903320D02*
D03*
D67*
X2884080Y1734665D02*
D03*
Y1742775D02*
D03*
X2893200Y1734635D02*
D03*
Y1742745D02*
D03*
X2921080Y1734115D02*
D03*
Y1742225D02*
D03*
D68*
X2914538Y1716621D02*
D03*
X2909026D02*
D03*
X2845964Y1700430D02*
D03*
X2851476D02*
D03*
X2845964Y1692670D02*
D03*
X2851476D02*
D03*
D69*
X2913600Y1756980D02*
D03*
X2901000D02*
D03*
D70*
X3026130Y1706090D02*
D03*
Y1712390D02*
D03*
X3034150Y1712580D02*
D03*
Y1706280D02*
D03*
D71*
X3050960Y1695506D02*
D03*
Y1689574D02*
D03*
X3058800Y1695366D02*
D03*
Y1689434D02*
D03*
D72*
X3077210Y1705451D02*
D03*
X3072210D02*
D03*
X3067210D02*
D03*
X3062210D02*
D03*
X3057210D02*
D03*
X3052210D02*
D03*
X3047210D02*
D03*
X3042210D02*
D03*
X3077210Y1728069D02*
D03*
X3072210D02*
D03*
X3067210D02*
D03*
X3062210D02*
D03*
X3057210D02*
D03*
X3052210D02*
D03*
X3047210D02*
D03*
X3042210D02*
D03*
D73*
X3009873Y1695260D02*
D03*
X3017747Y1691520D02*
D03*
Y1699000D02*
D03*
X3009803Y1682260D02*
D03*
X3017677Y1678520D02*
D03*
Y1686000D02*
D03*
D74*
X2727681Y1762220D02*
D03*
X2744059D02*
D03*
X2876379Y1763590D02*
D03*
X2860001D02*
D03*
D75*
X2831150Y1740190D02*
D03*
Y1732320D02*
D03*
Y1724440D02*
D03*
Y1716570D02*
D03*
Y1708690D02*
D03*
Y1700820D02*
D03*
Y1692950D02*
D03*
Y1685070D02*
D03*
X2771700D02*
D03*
X2771690Y1692950D02*
D03*
Y1700820D02*
D03*
Y1708690D02*
D03*
X2771700Y1716570D02*
D03*
X2771690Y1724440D02*
D03*
Y1732320D02*
D03*
Y1740190D02*
D03*
D76*
X2821100Y1679950D02*
D03*
X2813240Y1679960D02*
D03*
X2805370Y1679950D02*
D03*
X2797490D02*
D03*
X2789620D02*
D03*
X2781750D02*
D03*
D77*
X2852800Y1505230D02*
D03*
X2847800D02*
D03*
X2842800D02*
D03*
X2837800D02*
D03*
X2832800D02*
D03*
X2827800D02*
D03*
X2822800D02*
D03*
X2817800D02*
D03*
X2852800Y1526770D02*
D03*
X2847800D02*
D03*
X2842800D02*
D03*
X2837800D02*
D03*
X2832800D02*
D03*
X2827800D02*
D03*
X2822800D02*
D03*
X2817800D02*
D03*
X2222879Y1505230D02*
D03*
X2217879D02*
D03*
X2212879D02*
D03*
X2207879D02*
D03*
X2202879D02*
D03*
X2197879D02*
D03*
X2192879D02*
D03*
X2187879D02*
D03*
X2222879Y1526770D02*
D03*
X2217879D02*
D03*
X2212879D02*
D03*
X2207879D02*
D03*
X2202879D02*
D03*
X2197879D02*
D03*
X2192879D02*
D03*
X2187879D02*
D03*
X1592957Y1505230D02*
D03*
X1587957D02*
D03*
X1582957D02*
D03*
X1577958D02*
D03*
X1572958D02*
D03*
X1567957D02*
D03*
X1562957D02*
D03*
X1557957D02*
D03*
X1592957Y1526770D02*
D03*
X1587957D02*
D03*
X1582957D02*
D03*
X1577958D02*
D03*
X1572958D02*
D03*
X1567957D02*
D03*
X1562957D02*
D03*
X1557957D02*
D03*
X963036Y1505230D02*
D03*
X958036D02*
D03*
X953036D02*
D03*
X948036D02*
D03*
X943036D02*
D03*
X938036D02*
D03*
X933036D02*
D03*
X928036D02*
D03*
X963036Y1526770D02*
D03*
X958036D02*
D03*
X953036D02*
D03*
X948036D02*
D03*
X943036D02*
D03*
X938036D02*
D03*
X933036D02*
D03*
X928036D02*
D03*
X333115Y1505230D02*
D03*
X328115D02*
D03*
X323115D02*
D03*
X318115D02*
D03*
X313115D02*
D03*
X308115D02*
D03*
X303115D02*
D03*
X298115D02*
D03*
X333115Y1526770D02*
D03*
X328115D02*
D03*
X323115D02*
D03*
X318115D02*
D03*
X313115D02*
D03*
X308115D02*
D03*
X303115D02*
D03*
X298115D02*
D03*
X2852800Y1347750D02*
D03*
X2847800D02*
D03*
X2842800D02*
D03*
X2837800D02*
D03*
X2832800D02*
D03*
X2827800D02*
D03*
X2822800D02*
D03*
X2817800D02*
D03*
X2852800Y1369290D02*
D03*
X2847800D02*
D03*
X2842800D02*
D03*
X2837800D02*
D03*
X2832800D02*
D03*
X2827800D02*
D03*
X2822800D02*
D03*
X2817800D02*
D03*
X2222879Y1347750D02*
D03*
X2217879D02*
D03*
X2212879D02*
D03*
X2207879D02*
D03*
X2202879D02*
D03*
X2197879D02*
D03*
X2192879D02*
D03*
X2187879D02*
D03*
X2222879Y1369290D02*
D03*
X2217879D02*
D03*
X2212879D02*
D03*
X2207879D02*
D03*
X2202879D02*
D03*
X2197879D02*
D03*
X2192879D02*
D03*
X2187879D02*
D03*
X1592957Y1347750D02*
D03*
X1587957D02*
D03*
X1582957D02*
D03*
X1577958D02*
D03*
X1572958D02*
D03*
X1567957D02*
D03*
X1562957D02*
D03*
X1557957D02*
D03*
X1592957Y1369290D02*
D03*
X1587957D02*
D03*
X1582957D02*
D03*
X1577958D02*
D03*
X1572958D02*
D03*
X1567957D02*
D03*
X1562957D02*
D03*
X1557957D02*
D03*
X963036Y1347750D02*
D03*
X958036D02*
D03*
X953036D02*
D03*
X948036D02*
D03*
X943036D02*
D03*
X938036D02*
D03*
X933036D02*
D03*
X928036D02*
D03*
X963036Y1369290D02*
D03*
X958036D02*
D03*
X953036D02*
D03*
X948036D02*
D03*
X943036D02*
D03*
X938036D02*
D03*
X933036D02*
D03*
X928036D02*
D03*
X333115Y1347750D02*
D03*
X328115D02*
D03*
X323115D02*
D03*
X318115D02*
D03*
X313115D02*
D03*
X308115D02*
D03*
X303115D02*
D03*
X298115D02*
D03*
X333115Y1369290D02*
D03*
X328115D02*
D03*
X323115D02*
D03*
X318115D02*
D03*
X313115D02*
D03*
X308115D02*
D03*
X303115D02*
D03*
X298115D02*
D03*
X333115Y1190269D02*
D03*
X328115D02*
D03*
X323115D02*
D03*
X318115D02*
D03*
X313115D02*
D03*
X308115D02*
D03*
X303115D02*
D03*
X298115D02*
D03*
X333115Y1211809D02*
D03*
X328115D02*
D03*
X323115D02*
D03*
X318115D02*
D03*
X313115D02*
D03*
X308115D02*
D03*
X303115D02*
D03*
X298115D02*
D03*
X963036Y1190269D02*
D03*
X958036D02*
D03*
X953036D02*
D03*
X948036D02*
D03*
X943036D02*
D03*
X938036D02*
D03*
X933036D02*
D03*
X928036D02*
D03*
X963036Y1211809D02*
D03*
X958036D02*
D03*
X953036D02*
D03*
X948036D02*
D03*
X943036D02*
D03*
X938036D02*
D03*
X933036D02*
D03*
X928036D02*
D03*
X1592957Y1190269D02*
D03*
X1587957D02*
D03*
X1582957D02*
D03*
X1577958D02*
D03*
X1572958D02*
D03*
X1567957D02*
D03*
X1562957D02*
D03*
X1557957D02*
D03*
X1592957Y1211809D02*
D03*
X1587957D02*
D03*
X1582957D02*
D03*
X1577958D02*
D03*
X1572958D02*
D03*
X1567957D02*
D03*
X1562957D02*
D03*
X1557957D02*
D03*
X2222879Y1190269D02*
D03*
X2217879D02*
D03*
X2212879D02*
D03*
X2207879D02*
D03*
X2202879D02*
D03*
X2197879D02*
D03*
X2192879D02*
D03*
X2187879D02*
D03*
X2222879Y1211809D02*
D03*
X2217879D02*
D03*
X2212879D02*
D03*
X2207879D02*
D03*
X2202879D02*
D03*
X2197879D02*
D03*
X2192879D02*
D03*
X2187879D02*
D03*
X2852800Y1190269D02*
D03*
X2847800D02*
D03*
X2842800D02*
D03*
X2837800D02*
D03*
X2832800D02*
D03*
X2827800D02*
D03*
X2822800D02*
D03*
X2817800D02*
D03*
X2852800Y1211809D02*
D03*
X2847800D02*
D03*
X2842800D02*
D03*
X2837800D02*
D03*
X2832800D02*
D03*
X2827800D02*
D03*
X2822800D02*
D03*
X2817800D02*
D03*
X333115Y1032789D02*
D03*
X328115D02*
D03*
X323115D02*
D03*
X318115D02*
D03*
X313115D02*
D03*
X308115D02*
D03*
X303115D02*
D03*
X298115D02*
D03*
X333115Y1054329D02*
D03*
X328115D02*
D03*
X323115D02*
D03*
X318115D02*
D03*
X313115D02*
D03*
X308115D02*
D03*
X303115D02*
D03*
X298115D02*
D03*
X963036Y1032789D02*
D03*
X958036D02*
D03*
X953036D02*
D03*
X948036D02*
D03*
X943036D02*
D03*
X938036D02*
D03*
X933036D02*
D03*
X928036D02*
D03*
X963036Y1054329D02*
D03*
X958036D02*
D03*
X953036D02*
D03*
X948036D02*
D03*
X943036D02*
D03*
X938036D02*
D03*
X933036D02*
D03*
X928036D02*
D03*
X1592957Y1032789D02*
D03*
X1587957D02*
D03*
X1582957D02*
D03*
X1577958D02*
D03*
X1572958D02*
D03*
X1567957D02*
D03*
X1562957D02*
D03*
X1557957D02*
D03*
X1592957Y1054329D02*
D03*
X1587957D02*
D03*
X1582957D02*
D03*
X1577958D02*
D03*
X1572958D02*
D03*
X1567957D02*
D03*
X1562957D02*
D03*
X1557957D02*
D03*
X2222879Y1032789D02*
D03*
X2217879D02*
D03*
X2212879D02*
D03*
X2207879D02*
D03*
X2202879D02*
D03*
X2197879D02*
D03*
X2192879D02*
D03*
X2187879D02*
D03*
X2222879Y1054329D02*
D03*
X2217879D02*
D03*
X2212879D02*
D03*
X2207879D02*
D03*
X2202879D02*
D03*
X2197879D02*
D03*
X2192879D02*
D03*
X2187879D02*
D03*
X2852800Y1032789D02*
D03*
X2847800D02*
D03*
X2842800D02*
D03*
X2837800D02*
D03*
X2832800D02*
D03*
X2827800D02*
D03*
X2822800D02*
D03*
X2817800D02*
D03*
X2852800Y1054329D02*
D03*
X2847800D02*
D03*
X2842800D02*
D03*
X2837800D02*
D03*
X2832800D02*
D03*
X2827800D02*
D03*
X2822800D02*
D03*
X2817800D02*
D03*
X333115Y875309D02*
D03*
X328115D02*
D03*
X323115D02*
D03*
X318115D02*
D03*
X313115D02*
D03*
X308115D02*
D03*
X303115D02*
D03*
X298115D02*
D03*
X333115Y896849D02*
D03*
X328115D02*
D03*
X323115D02*
D03*
X318115D02*
D03*
X313115D02*
D03*
X308115D02*
D03*
X303115D02*
D03*
X298115D02*
D03*
X1592957Y875309D02*
D03*
X1587957D02*
D03*
X1582957D02*
D03*
X1577958D02*
D03*
X1572958D02*
D03*
X1567957D02*
D03*
X1562957D02*
D03*
X1557957D02*
D03*
X1592957Y896849D02*
D03*
X1587957D02*
D03*
X1582957D02*
D03*
X1577958D02*
D03*
X1572958D02*
D03*
X1567957D02*
D03*
X1562957D02*
D03*
X1557957D02*
D03*
X2222879Y875309D02*
D03*
X2217879D02*
D03*
X2212879D02*
D03*
X2207879D02*
D03*
X2202879D02*
D03*
X2197879D02*
D03*
X2192879D02*
D03*
X2187879D02*
D03*
X2222879Y896849D02*
D03*
X2217879D02*
D03*
X2212879D02*
D03*
X2207879D02*
D03*
X2202879D02*
D03*
X2197879D02*
D03*
X2192879D02*
D03*
X2187879D02*
D03*
X2852800Y875309D02*
D03*
X2847800D02*
D03*
X2842800D02*
D03*
X2837800D02*
D03*
X2832800D02*
D03*
X2827800D02*
D03*
X2822800D02*
D03*
X2817800D02*
D03*
X2852800Y896849D02*
D03*
X2847800D02*
D03*
X2842800D02*
D03*
X2837800D02*
D03*
X2832800D02*
D03*
X2827800D02*
D03*
X2822800D02*
D03*
X2817800D02*
D03*
X333115Y717828D02*
D03*
X328115D02*
D03*
X323115D02*
D03*
X318115D02*
D03*
X313115D02*
D03*
X308115D02*
D03*
X303115D02*
D03*
X298115D02*
D03*
X333115Y739368D02*
D03*
X328115D02*
D03*
X323115D02*
D03*
X318115D02*
D03*
X313115D02*
D03*
X308115D02*
D03*
X303115D02*
D03*
X298115D02*
D03*
X963036Y717828D02*
D03*
X958036D02*
D03*
X953036D02*
D03*
X948036D02*
D03*
X943036D02*
D03*
X938036D02*
D03*
X933036D02*
D03*
X928036D02*
D03*
X963036Y739368D02*
D03*
X958036D02*
D03*
X953036D02*
D03*
X948036D02*
D03*
X943036D02*
D03*
X938036D02*
D03*
X933036D02*
D03*
X928036D02*
D03*
X1592957Y717828D02*
D03*
X1587957D02*
D03*
X1582957D02*
D03*
X1577958D02*
D03*
X1572958D02*
D03*
X1567957D02*
D03*
X1562957D02*
D03*
X1557957D02*
D03*
X1592957Y739368D02*
D03*
X1587957D02*
D03*
X1582957D02*
D03*
X1577958D02*
D03*
X1572958D02*
D03*
X1567957D02*
D03*
X1562957D02*
D03*
X1557957D02*
D03*
X2222879Y717828D02*
D03*
X2217879D02*
D03*
X2212879D02*
D03*
X2207879D02*
D03*
X2202879D02*
D03*
X2197879D02*
D03*
X2192879D02*
D03*
X2187879D02*
D03*
X2222879Y739368D02*
D03*
X2217879D02*
D03*
X2212879D02*
D03*
X2207879D02*
D03*
X2202879D02*
D03*
X2197879D02*
D03*
X2192879D02*
D03*
X2187879D02*
D03*
X2852800Y717828D02*
D03*
X2847800D02*
D03*
X2842800D02*
D03*
X2837800D02*
D03*
X2832800D02*
D03*
X2827800D02*
D03*
X2822800D02*
D03*
X2817800D02*
D03*
X2852800Y739368D02*
D03*
X2847800D02*
D03*
X2842800D02*
D03*
X2837800D02*
D03*
X2832800D02*
D03*
X2827800D02*
D03*
X2822800D02*
D03*
X2817800D02*
D03*
X333115Y560348D02*
D03*
X328115D02*
D03*
X323115D02*
D03*
X318115D02*
D03*
X313115D02*
D03*
X308115D02*
D03*
X303115D02*
D03*
X298115D02*
D03*
X333115Y581888D02*
D03*
X328115D02*
D03*
X323115D02*
D03*
X318115D02*
D03*
X313115D02*
D03*
X308115D02*
D03*
X303115D02*
D03*
X298115D02*
D03*
X963036Y560348D02*
D03*
X958036D02*
D03*
X953036D02*
D03*
X948036D02*
D03*
X943036D02*
D03*
X938036D02*
D03*
X933036D02*
D03*
X928036D02*
D03*
X963036Y581888D02*
D03*
X958036D02*
D03*
X953036D02*
D03*
X948036D02*
D03*
X943036D02*
D03*
X938036D02*
D03*
X933036D02*
D03*
X928036D02*
D03*
X1592957Y560348D02*
D03*
X1587957D02*
D03*
X1582957D02*
D03*
X1577958D02*
D03*
X1572958D02*
D03*
X1567957D02*
D03*
X1562957D02*
D03*
X1557957D02*
D03*
X1592957Y581888D02*
D03*
X1587957D02*
D03*
X1582957D02*
D03*
X1577958D02*
D03*
X1572958D02*
D03*
X1567957D02*
D03*
X1562957D02*
D03*
X1557957D02*
D03*
X2222879Y560348D02*
D03*
X2217879D02*
D03*
X2212879D02*
D03*
X2207879D02*
D03*
X2202879D02*
D03*
X2197879D02*
D03*
X2192879D02*
D03*
X2187879D02*
D03*
X2222879Y581888D02*
D03*
X2217879D02*
D03*
X2212879D02*
D03*
X2207879D02*
D03*
X2202879D02*
D03*
X2197879D02*
D03*
X2192879D02*
D03*
X2187879D02*
D03*
X2852800Y560348D02*
D03*
X2847800D02*
D03*
X2842800D02*
D03*
X2837800D02*
D03*
X2832800D02*
D03*
X2827800D02*
D03*
X2822800D02*
D03*
X2817800D02*
D03*
X2852800Y581888D02*
D03*
X2847800D02*
D03*
X2842800D02*
D03*
X2837800D02*
D03*
X2832800D02*
D03*
X2827800D02*
D03*
X2822800D02*
D03*
X2817800D02*
D03*
X333115Y402868D02*
D03*
X328115D02*
D03*
X323115D02*
D03*
X318115D02*
D03*
X313115D02*
D03*
X308115D02*
D03*
X303115D02*
D03*
X298115D02*
D03*
X333115Y424408D02*
D03*
X328115D02*
D03*
X323115D02*
D03*
X318115D02*
D03*
X313115D02*
D03*
X308115D02*
D03*
X303115D02*
D03*
X298115D02*
D03*
X963036Y402868D02*
D03*
X958036D02*
D03*
X953036D02*
D03*
X948036D02*
D03*
X943036D02*
D03*
X938036D02*
D03*
X933036D02*
D03*
X928036D02*
D03*
X963036Y424408D02*
D03*
X958036D02*
D03*
X953036D02*
D03*
X948036D02*
D03*
X943036D02*
D03*
X938036D02*
D03*
X933036D02*
D03*
X928036D02*
D03*
X1592957Y402868D02*
D03*
X1587957D02*
D03*
X1582957D02*
D03*
X1577958D02*
D03*
X1572958D02*
D03*
X1567957D02*
D03*
X1562957D02*
D03*
X1557957D02*
D03*
X1592957Y424408D02*
D03*
X1587957D02*
D03*
X1582957D02*
D03*
X1577958D02*
D03*
X1572958D02*
D03*
X1567957D02*
D03*
X1562957D02*
D03*
X1557957D02*
D03*
X2222879Y402868D02*
D03*
X2217879D02*
D03*
X2212879D02*
D03*
X2207879D02*
D03*
X2202879D02*
D03*
X2197879D02*
D03*
X2192879D02*
D03*
X2187879D02*
D03*
X2222879Y424408D02*
D03*
X2217879D02*
D03*
X2212879D02*
D03*
X2207879D02*
D03*
X2202879D02*
D03*
X2197879D02*
D03*
X2192879D02*
D03*
X2187879D02*
D03*
X2852800Y402868D02*
D03*
X2847800D02*
D03*
X2842800D02*
D03*
X2837800D02*
D03*
X2832800D02*
D03*
X2827800D02*
D03*
X2822800D02*
D03*
X2817800D02*
D03*
X2852800Y424408D02*
D03*
X2847800D02*
D03*
X2842800D02*
D03*
X2837800D02*
D03*
X2832800D02*
D03*
X2827800D02*
D03*
X2822800D02*
D03*
X2817800D02*
D03*
X333115Y245388D02*
D03*
X328115D02*
D03*
X323115D02*
D03*
X318115D02*
D03*
X313115D02*
D03*
X308115D02*
D03*
X303115D02*
D03*
X298115D02*
D03*
X333115Y266928D02*
D03*
X328115D02*
D03*
X323115D02*
D03*
X318115D02*
D03*
X313115D02*
D03*
X308115D02*
D03*
X303115D02*
D03*
X298115D02*
D03*
X963036Y245388D02*
D03*
X958036D02*
D03*
X953036D02*
D03*
X948036D02*
D03*
X943036D02*
D03*
X938036D02*
D03*
X933036D02*
D03*
X928036D02*
D03*
X963036Y266928D02*
D03*
X958036D02*
D03*
X953036D02*
D03*
X948036D02*
D03*
X943036D02*
D03*
X938036D02*
D03*
X933036D02*
D03*
X928036D02*
D03*
X1592957Y245388D02*
D03*
X1587957D02*
D03*
X1582957D02*
D03*
X1577958D02*
D03*
X1572958D02*
D03*
X1567957D02*
D03*
X1562957D02*
D03*
X1557957D02*
D03*
X1592957Y266928D02*
D03*
X1587957D02*
D03*
X1582957D02*
D03*
X1577958D02*
D03*
X1572958D02*
D03*
X1567957D02*
D03*
X1562957D02*
D03*
X1557957D02*
D03*
X2222879Y245388D02*
D03*
X2217879D02*
D03*
X2212879D02*
D03*
X2207879D02*
D03*
X2202879D02*
D03*
X2197879D02*
D03*
X2192879D02*
D03*
X2187879D02*
D03*
X2222879Y266928D02*
D03*
X2217879D02*
D03*
X2212879D02*
D03*
X2207879D02*
D03*
X2202879D02*
D03*
X2197879D02*
D03*
X2192879D02*
D03*
X2187879D02*
D03*
X2852800Y245388D02*
D03*
X2847800D02*
D03*
X2842800D02*
D03*
X2837800D02*
D03*
X2832800D02*
D03*
X2827800D02*
D03*
X2822800D02*
D03*
X2817800D02*
D03*
X2852800Y266928D02*
D03*
X2847800D02*
D03*
X2842800D02*
D03*
X2837800D02*
D03*
X2832800D02*
D03*
X2827800D02*
D03*
X2822800D02*
D03*
X2817800D02*
D03*
X333115Y87907D02*
D03*
X328115D02*
D03*
X323115D02*
D03*
X318115D02*
D03*
X313115D02*
D03*
X308115D02*
D03*
X303115D02*
D03*
X298115D02*
D03*
X333115Y109447D02*
D03*
X328115D02*
D03*
X323115D02*
D03*
X318115D02*
D03*
X313115D02*
D03*
X308115D02*
D03*
X303115D02*
D03*
X298115D02*
D03*
X963036Y87907D02*
D03*
X958036D02*
D03*
X953036D02*
D03*
X948036D02*
D03*
X943036D02*
D03*
X938036D02*
D03*
X933036D02*
D03*
X928036D02*
D03*
X963036Y109447D02*
D03*
X958036D02*
D03*
X953036D02*
D03*
X948036D02*
D03*
X943036D02*
D03*
X938036D02*
D03*
X933036D02*
D03*
X928036D02*
D03*
X1592957Y87907D02*
D03*
X1587957D02*
D03*
X1582957D02*
D03*
X1577958D02*
D03*
X1572958D02*
D03*
X1567957D02*
D03*
X1562957D02*
D03*
X1557957D02*
D03*
X1592957Y109447D02*
D03*
X1587957D02*
D03*
X1582957D02*
D03*
X1577958D02*
D03*
X1572958D02*
D03*
X1567957D02*
D03*
X1562957D02*
D03*
X1557957D02*
D03*
X2222879Y87907D02*
D03*
X2217879D02*
D03*
X2212879D02*
D03*
X2207879D02*
D03*
X2202879D02*
D03*
X2197879D02*
D03*
X2192879D02*
D03*
X2187879D02*
D03*
X2222879Y109447D02*
D03*
X2217879D02*
D03*
X2212879D02*
D03*
X2207879D02*
D03*
X2202879D02*
D03*
X2197879D02*
D03*
X2192879D02*
D03*
X2187879D02*
D03*
X2852800Y87907D02*
D03*
X2847800D02*
D03*
X2842800D02*
D03*
X2837800D02*
D03*
X2832800D02*
D03*
X2827800D02*
D03*
X2822800D02*
D03*
X2817800D02*
D03*
X2852800Y109447D02*
D03*
X2847800D02*
D03*
X2842800D02*
D03*
X2837800D02*
D03*
X2832800D02*
D03*
X2827800D02*
D03*
X2822800D02*
D03*
X2817800D02*
D03*
X963036Y875309D02*
D03*
X958036D02*
D03*
X953036D02*
D03*
X948036D02*
D03*
X943036D02*
D03*
X938036D02*
D03*
X933036D02*
D03*
X928036D02*
D03*
X963036Y896849D02*
D03*
X958036D02*
D03*
X953036D02*
D03*
X948036D02*
D03*
X943036D02*
D03*
X938036D02*
D03*
X933036D02*
D03*
X928036D02*
D03*
M02*
