G04 Layer_Color=128*
%FSLAX25Y25*%
%MOIN*%
G70*
G01*
G75*
%ADD11R,0.02362X0.01969*%
%ADD26R,0.03543X0.03150*%
%ADD27R,0.02126X0.02227*%
%ADD28R,0.01970X0.05120*%
%ADD29R,0.01100X0.05120*%
%ADD30R,0.06700X0.04750*%
%ADD31R,0.03175X0.03402*%
%ADD32R,0.03150X0.03150*%
%ADD33R,0.13780X0.09840*%
%ADD34R,0.02360X0.04720*%
%ADD35R,0.08860X0.05710*%
%ADD36O,0.01103X0.03091*%
%ADD37R,0.05315X0.05551*%
%ADD38R,0.03150X0.03543*%
%ADD39R,0.05120X0.14570*%
%ADD40R,0.03940X0.03150*%
%ADD41R,0.03402X0.03175*%
%ADD42O,0.02205X0.06870*%
%ADD43R,0.04921X0.02756*%
%ADD44R,0.05315X0.07087*%
%ADD45R,0.09840X0.05510*%
%ADD46R,0.05510X0.06690*%
%ADD47O,0.02370X0.07760*%
G36*
X3025890Y1730240D02*
Y1726270D01*
X3025490Y1725880D01*
X3019590D01*
X3019190Y1726270D01*
Y1730240D01*
X3019590Y1730640D01*
X3021010D01*
X3021400Y1730240D01*
Y1729410D01*
X3021800Y1729020D01*
X3023280D01*
X3023680Y1729410D01*
Y1730240D01*
X3024070Y1730640D01*
X3025490D01*
X3025890Y1730240D01*
D02*
G37*
G36*
X2844732Y1732855D02*
Y1731957D01*
X2843275D01*
Y1730658D01*
X2844732D01*
Y1729705D01*
X2844535Y1729508D01*
X2841385D01*
X2841188Y1729705D01*
Y1732855D01*
X2841385Y1733052D01*
X2844535D01*
X2844732Y1732855D01*
D02*
G37*
G36*
X2850991D02*
Y1729705D01*
X2850795Y1729508D01*
X2847684D01*
X2847488Y1729705D01*
Y1730658D01*
X2848984D01*
Y1731957D01*
X2847488D01*
Y1732855D01*
X2847684Y1733052D01*
X2850795D01*
X2850991Y1732855D01*
D02*
G37*
G36*
X2851052Y1725815D02*
Y1722665D01*
X2850855Y1722468D01*
X2847744D01*
X2847548Y1722665D01*
Y1723618D01*
X2849044D01*
Y1724917D01*
X2847548D01*
Y1725815D01*
X2847744Y1726012D01*
X2850855D01*
X2851052Y1725815D01*
D02*
G37*
G36*
X2910324Y1724847D02*
Y1723949D01*
X2908867D01*
Y1722650D01*
X2910324D01*
Y1721697D01*
X2910127Y1721500D01*
X2906977D01*
X2906780Y1721697D01*
Y1724847D01*
X2906977Y1725044D01*
X2910127D01*
X2910324Y1724847D01*
D02*
G37*
G36*
X2916584D02*
Y1721697D01*
X2916387Y1721500D01*
X2913277D01*
X2913080Y1721697D01*
Y1722650D01*
X2914576D01*
Y1723949D01*
X2913080D01*
Y1724847D01*
X2913277Y1725044D01*
X2916387D01*
X2916584Y1724847D01*
D02*
G37*
G36*
X2844792Y1725815D02*
Y1724917D01*
X2843335D01*
Y1723618D01*
X2844792D01*
Y1722665D01*
X2844595Y1722468D01*
X2841445D01*
X2841248Y1722665D01*
Y1725815D01*
X2841445Y1726012D01*
X2844595D01*
X2844792Y1725815D01*
D02*
G37*
G36*
X3052750Y1739670D02*
X3050780D01*
Y1744790D01*
X3052750D01*
Y1739670D01*
D02*
G37*
G36*
X3055900D02*
X3053930D01*
Y1744790D01*
X3055900D01*
Y1739670D01*
D02*
G37*
G36*
X3058020D02*
X3056920D01*
Y1744790D01*
X3058020D01*
Y1739670D01*
D02*
G37*
G36*
X3025890Y1741890D02*
Y1737920D01*
X3025490Y1737520D01*
X3024070D01*
X3023680Y1737920D01*
Y1738750D01*
X3023280Y1739140D01*
X3021800D01*
X3021400Y1738750D01*
Y1737920D01*
X3021010Y1737520D01*
X3019590D01*
X3019190Y1737920D01*
Y1741890D01*
X3019590Y1742280D01*
X3025490D01*
X3025890Y1741890D01*
D02*
G37*
G36*
X2923679Y1736497D02*
X2923875Y1736300D01*
Y1731772D01*
X2923679Y1731575D01*
X2918639D01*
X2918442Y1731772D01*
Y1736300D01*
X2918639Y1736497D01*
X2920293Y1736477D01*
Y1734745D01*
X2922064D01*
Y1736517D01*
X2923679Y1736497D01*
D02*
G37*
G36*
X2895798Y1737017D02*
X2895995Y1736820D01*
Y1732292D01*
X2895798Y1732095D01*
X2890759D01*
X2890562Y1732292D01*
Y1736820D01*
X2890759Y1737017D01*
X2892413Y1736997D01*
Y1735265D01*
X2894184D01*
Y1737037D01*
X2895798Y1737017D01*
D02*
G37*
G36*
X2886679Y1737047D02*
X2886875Y1736850D01*
Y1732322D01*
X2886679Y1732125D01*
X2881639D01*
X2881442Y1732322D01*
Y1736850D01*
X2881639Y1737047D01*
X2883293Y1737027D01*
Y1735295D01*
X2885064D01*
Y1737066D01*
X2886679Y1737047D01*
D02*
G37*
G36*
X2748442Y1702525D02*
Y1701572D01*
X2746946D01*
Y1700273D01*
X2748442D01*
Y1699375D01*
X2748246Y1699178D01*
X2745135D01*
X2744938Y1699375D01*
Y1702525D01*
X2745135Y1702722D01*
X2748246D01*
X2748442Y1702525D01*
D02*
G37*
G36*
X2754742D02*
Y1699375D01*
X2754545Y1699178D01*
X2751395D01*
X2751198Y1699375D01*
Y1700273D01*
X2752655D01*
Y1701572D01*
X2751198D01*
Y1702525D01*
X2751395Y1702722D01*
X2754545D01*
X2754742Y1702525D01*
D02*
G37*
G36*
X2748472Y1709675D02*
Y1708722D01*
X2746976D01*
Y1707423D01*
X2748472D01*
Y1706525D01*
X2748276Y1706328D01*
X2745165D01*
X2744968Y1706525D01*
Y1709675D01*
X2745165Y1709872D01*
X2748276D01*
X2748472Y1709675D01*
D02*
G37*
G36*
X3052732Y1697245D02*
Y1694134D01*
X3052535Y1693938D01*
X3051582D01*
Y1695434D01*
X3050283D01*
Y1693938D01*
X3049385D01*
X3049188Y1694134D01*
Y1697245D01*
X3049385Y1697441D01*
X3052535D01*
X3052732Y1697245D01*
D02*
G37*
G36*
X3060572Y1690845D02*
Y1687695D01*
X3060375Y1687498D01*
X3057225D01*
X3057028Y1687695D01*
Y1690845D01*
X3057225Y1691042D01*
X3058123D01*
Y1689585D01*
X3059422D01*
Y1691042D01*
X3060375D01*
X3060572Y1690845D01*
D02*
G37*
G36*
X3052732Y1690985D02*
Y1687835D01*
X3052535Y1687638D01*
X3049385D01*
X3049188Y1687835D01*
Y1690985D01*
X3049385Y1691182D01*
X3050283D01*
Y1689725D01*
X3051582D01*
Y1691182D01*
X3052535D01*
X3052732Y1690985D01*
D02*
G37*
G36*
X3060572Y1697105D02*
Y1693994D01*
X3060375Y1693798D01*
X3059422D01*
Y1695294D01*
X3058123D01*
Y1693798D01*
X3057225D01*
X3057028Y1693994D01*
Y1697105D01*
X3057225Y1697301D01*
X3060375D01*
X3060572Y1697105D01*
D02*
G37*
G36*
X2900684Y1718217D02*
Y1715067D01*
X2900487Y1714870D01*
X2897377D01*
X2897180Y1715067D01*
Y1716020D01*
X2898676D01*
Y1717319D01*
X2897180D01*
Y1718217D01*
X2897377Y1718414D01*
X2900487D01*
X2900684Y1718217D01*
D02*
G37*
G36*
X2894324Y1724847D02*
Y1723949D01*
X2892867D01*
Y1722650D01*
X2894324D01*
Y1721697D01*
X2894127Y1721500D01*
X2890977D01*
X2890780Y1721697D01*
Y1724847D01*
X2890977Y1725044D01*
X2894127D01*
X2894324Y1724847D01*
D02*
G37*
G36*
X2900584D02*
Y1721697D01*
X2900387Y1721500D01*
X2897277D01*
X2897080Y1721697D01*
Y1722650D01*
X2898576D01*
Y1723949D01*
X2897080D01*
Y1724847D01*
X2897277Y1725044D01*
X2900387D01*
X2900584Y1724847D01*
D02*
G37*
G36*
X2894424Y1718217D02*
Y1717319D01*
X2892967D01*
Y1716020D01*
X2894424D01*
Y1715067D01*
X2894227Y1714870D01*
X2891077D01*
X2890881Y1715067D01*
Y1718217D01*
X2891077Y1718414D01*
X2894227D01*
X2894424Y1718217D01*
D02*
G37*
G36*
X2754772Y1709675D02*
Y1706525D01*
X2754575Y1706328D01*
X2751425D01*
X2751228Y1706525D01*
Y1707423D01*
X2752685D01*
Y1708722D01*
X2751228D01*
Y1709675D01*
X2751425Y1709872D01*
X2754575D01*
X2754772Y1709675D01*
D02*
G37*
G36*
X3002662Y1715635D02*
Y1714737D01*
X3001205D01*
Y1713438D01*
X3002662D01*
Y1712485D01*
X3002465Y1712288D01*
X2999315D01*
X2999118Y1712485D01*
Y1715635D01*
X2999315Y1715832D01*
X3002465D01*
X3002662Y1715635D01*
D02*
G37*
G36*
X3008921D02*
Y1712485D01*
X3008725Y1712288D01*
X3005614D01*
X3005418Y1712485D01*
Y1713438D01*
X3006914D01*
Y1714737D01*
X3005418D01*
Y1715635D01*
X3005614Y1715832D01*
X3008725D01*
X3008921Y1715635D01*
D02*
G37*
G36*
X3004772Y1758085D02*
Y1757132D01*
X3003276D01*
Y1755833D01*
X3004772D01*
Y1754935D01*
X3004576Y1754738D01*
X3001465D01*
X3001269Y1754935D01*
Y1758085D01*
X3001465Y1758282D01*
X3004576D01*
X3004772Y1758085D01*
D02*
G37*
G36*
X3011072D02*
Y1754935D01*
X3010875Y1754738D01*
X3007725D01*
X3007528Y1754935D01*
Y1755833D01*
X3008985D01*
Y1757132D01*
X3007528D01*
Y1758085D01*
X3007725Y1758282D01*
X3010875D01*
X3011072Y1758085D01*
D02*
G37*
G36*
X3041643Y1758350D02*
Y1756379D01*
X3041485Y1756222D01*
X3039675D01*
X3039517Y1756379D01*
Y1758350D01*
X3039675Y1758508D01*
X3041485D01*
X3041643Y1758350D01*
D02*
G37*
G36*
X2996441Y1758005D02*
Y1754855D01*
X2996245Y1754658D01*
X2993134D01*
X2992938Y1754855D01*
Y1755808D01*
X2994434D01*
Y1757107D01*
X2992938D01*
Y1758005D01*
X2993134Y1758202D01*
X2996245D01*
X2996441Y1758005D01*
D02*
G37*
G36*
X3041643Y1755001D02*
Y1753030D01*
X3041485Y1752872D01*
X3039675D01*
X3039517Y1753030D01*
Y1755001D01*
X3039675Y1755158D01*
X3041485D01*
X3041643Y1755001D01*
D02*
G37*
G36*
X3088983D02*
Y1753030D01*
X3088825Y1752872D01*
X3087015D01*
X3086857Y1753030D01*
Y1755001D01*
X3087015Y1755158D01*
X3088825D01*
X3088983Y1755001D01*
D02*
G37*
G36*
X2990182Y1758005D02*
Y1757107D01*
X2988725D01*
Y1755808D01*
X2990182D01*
Y1754855D01*
X2989985Y1754658D01*
X2986835D01*
X2986638Y1754855D01*
Y1758005D01*
X2986835Y1758202D01*
X2989985D01*
X2990182Y1758005D01*
D02*
G37*
G36*
X2966692Y1767055D02*
Y1763905D01*
X2966495Y1763708D01*
X2963384D01*
X2963188Y1763905D01*
Y1764858D01*
X2964684D01*
Y1766157D01*
X2963188D01*
Y1767055D01*
X2963384Y1767252D01*
X2966495D01*
X2966692Y1767055D01*
D02*
G37*
G36*
X2946122Y1767235D02*
Y1766337D01*
X2944665D01*
Y1765038D01*
X2946122D01*
Y1764085D01*
X2945925Y1763888D01*
X2942775D01*
X2942578Y1764085D01*
Y1767235D01*
X2942775Y1767432D01*
X2945925D01*
X2946122Y1767235D01*
D02*
G37*
G36*
X2952382D02*
Y1764085D01*
X2952185Y1763888D01*
X2949074D01*
X2948878Y1764085D01*
Y1765038D01*
X2950374D01*
Y1766337D01*
X2948878D01*
Y1767235D01*
X2949074Y1767432D01*
X2952185D01*
X2952382Y1767235D01*
D02*
G37*
G36*
X2960432Y1767055D02*
Y1766157D01*
X2958975D01*
Y1764858D01*
X2960432D01*
Y1763905D01*
X2960235Y1763708D01*
X2957085D01*
X2956888Y1763905D01*
Y1767055D01*
X2957085Y1767252D01*
X2960235D01*
X2960432Y1767055D01*
D02*
G37*
G36*
X3088983Y1758350D02*
Y1756379D01*
X3088825Y1756222D01*
X3087015D01*
X3086857Y1756379D01*
Y1758350D01*
X3087015Y1758508D01*
X3088825D01*
X3088983Y1758350D01*
D02*
G37*
G36*
X3047860Y1766500D02*
X3047970Y1766480D01*
X3048090Y1766450D01*
X3048200Y1766430D01*
X3048320Y1766390D01*
X3048430Y1766350D01*
X3048540Y1766310D01*
X3048640Y1766250D01*
X3048750Y1766200D01*
X3048850Y1766140D01*
X3048940Y1766070D01*
X3049040Y1766000D01*
X3049130Y1765920D01*
X3049210Y1765840D01*
X3049300Y1765760D01*
X3049370Y1765670D01*
X3049450Y1765580D01*
X3049520Y1765480D01*
X3049580Y1765380D01*
X3049640Y1765280D01*
X3049690Y1765180D01*
X3049740Y1765070D01*
X3049780Y1764960D01*
X3049820Y1764850D01*
X3049850Y1764730D01*
X3049880Y1764620D01*
X3049900Y1764500D01*
X3049920Y1764390D01*
Y1764270D01*
X3049930Y1764150D01*
Y1761790D01*
X3049920Y1761670D01*
Y1761550D01*
X3049900Y1761440D01*
X3049880Y1761320D01*
X3049850Y1761210D01*
X3049820Y1761090D01*
X3049780Y1760980D01*
X3049740Y1760870D01*
X3049690Y1760760D01*
X3049640Y1760660D01*
X3049580Y1760560D01*
X3049520Y1760460D01*
X3049450Y1760360D01*
X3049370Y1760270D01*
X3049300Y1760180D01*
X3049210Y1760100D01*
X3049130Y1760020D01*
X3049040Y1759940D01*
X3048940Y1759870D01*
X3048850Y1759810D01*
X3048750Y1759740D01*
X3048640Y1759690D01*
X3048540Y1759640D01*
X3048430Y1759590D01*
X3048320Y1759550D01*
X3048200Y1759520D01*
X3048090Y1759490D01*
X3047970Y1759460D01*
X3047860Y1759450D01*
X3047740Y1759430D01*
X3047390D01*
X3047270Y1759450D01*
X3047150Y1759460D01*
X3047040Y1759490D01*
X3046920Y1759520D01*
X3046810Y1759550D01*
X3046700Y1759590D01*
X3046590Y1759640D01*
X3046490Y1759690D01*
X3046380Y1759740D01*
X3046280Y1759810D01*
X3046190Y1759870D01*
X3046090Y1759940D01*
X3046000Y1760020D01*
X3045920Y1760100D01*
X3045830Y1760180D01*
X3045760Y1760270D01*
X3045680Y1760360D01*
X3045610Y1760460D01*
X3045550Y1760560D01*
X3045490Y1760660D01*
X3045440Y1760760D01*
X3045390Y1760870D01*
X3045340Y1760980D01*
X3045310Y1761090D01*
X3045280Y1761210D01*
X3045250Y1761320D01*
X3045230Y1761440D01*
X3045210Y1761550D01*
Y1761670D01*
X3045200Y1761790D01*
Y1764150D01*
X3045210Y1764270D01*
Y1764390D01*
X3045230Y1764500D01*
X3045250Y1764620D01*
X3045280Y1764730D01*
X3045310Y1764850D01*
X3045340Y1764960D01*
X3045390Y1765070D01*
X3045440Y1765180D01*
X3045490Y1765280D01*
X3045550Y1765380D01*
X3045610Y1765480D01*
X3045680Y1765580D01*
X3045760Y1765670D01*
X3045830Y1765760D01*
X3045920Y1765840D01*
X3046000Y1765920D01*
X3046090Y1766000D01*
X3046190Y1766070D01*
X3046280Y1766140D01*
X3046380Y1766200D01*
X3046490Y1766250D01*
X3046590Y1766310D01*
X3046700Y1766350D01*
X3046810Y1766390D01*
X3046920Y1766430D01*
X3047040Y1766450D01*
X3047150Y1766480D01*
X3047270Y1766500D01*
X3047390Y1766510D01*
X3047740D01*
X3047860Y1766500D01*
D02*
G37*
G36*
X3081660D02*
X3081780Y1766480D01*
X3081890Y1766450D01*
X3082010Y1766430D01*
X3082120Y1766390D01*
X3082230Y1766350D01*
X3082340Y1766300D01*
X3082450Y1766250D01*
X3082550Y1766200D01*
X3082650Y1766140D01*
X3082750Y1766070D01*
X3082840Y1766000D01*
X3082930Y1765920D01*
X3083020Y1765840D01*
X3083100Y1765760D01*
X3083180Y1765670D01*
X3083250Y1765580D01*
X3083320Y1765480D01*
X3083380Y1765380D01*
X3083440Y1765280D01*
X3083500Y1765180D01*
X3083540Y1765070D01*
X3083590Y1764960D01*
X3083630Y1764850D01*
X3083660Y1764730D01*
X3083680Y1764620D01*
X3083700Y1764500D01*
X3083720Y1764390D01*
X3083730Y1764270D01*
Y1764150D01*
Y1761790D01*
Y1761670D01*
X3083720Y1761550D01*
X3083700Y1761440D01*
X3083680Y1761320D01*
X3083660Y1761210D01*
X3083630Y1761090D01*
X3083590Y1760980D01*
X3083540Y1760870D01*
X3083500Y1760760D01*
X3083440Y1760660D01*
X3083380Y1760560D01*
X3083320Y1760460D01*
X3083250Y1760360D01*
X3083180Y1760270D01*
X3083100Y1760180D01*
X3083020Y1760100D01*
X3082930Y1760020D01*
X3082840Y1759940D01*
X3082750Y1759870D01*
X3082650Y1759810D01*
X3082550Y1759740D01*
X3082450Y1759690D01*
X3082340Y1759640D01*
X3082230Y1759590D01*
X3082120Y1759550D01*
X3082010Y1759520D01*
X3081890Y1759490D01*
X3081780Y1759460D01*
X3081660Y1759450D01*
X3081540Y1759430D01*
X3081190D01*
X3081070Y1759450D01*
X3080960Y1759460D01*
X3080840Y1759490D01*
X3080730Y1759520D01*
X3080620Y1759550D01*
X3080510Y1759590D01*
X3080400Y1759640D01*
X3080290Y1759690D01*
X3080190Y1759740D01*
X3080090Y1759810D01*
X3079990Y1759870D01*
X3079900Y1759940D01*
X3079810Y1760020D01*
X3079720Y1760100D01*
X3079640Y1760180D01*
X3079560Y1760270D01*
X3079490Y1760360D01*
X3079420Y1760460D01*
X3079350Y1760560D01*
X3079290Y1760660D01*
X3079240Y1760760D01*
X3079190Y1760870D01*
X3079150Y1760980D01*
X3079110Y1761090D01*
X3079080Y1761210D01*
X3079050Y1761320D01*
X3079030Y1761440D01*
X3079020Y1761550D01*
X3079010Y1761670D01*
Y1761790D01*
Y1764150D01*
Y1764270D01*
X3079020Y1764390D01*
X3079030Y1764500D01*
X3079050Y1764620D01*
X3079080Y1764730D01*
X3079110Y1764850D01*
X3079150Y1764960D01*
X3079190Y1765070D01*
X3079240Y1765180D01*
X3079290Y1765280D01*
X3079350Y1765380D01*
X3079420Y1765480D01*
X3079490Y1765580D01*
X3079560Y1765670D01*
X3079640Y1765760D01*
X3079720Y1765840D01*
X3079810Y1765920D01*
X3079900Y1766000D01*
X3079990Y1766070D01*
X3080090Y1766140D01*
X3080190Y1766200D01*
X3080290Y1766250D01*
X3080400Y1766300D01*
X3080510Y1766350D01*
X3080620Y1766390D01*
X3080730Y1766430D01*
X3080840Y1766450D01*
X3080960Y1766480D01*
X3081070Y1766500D01*
X3081190Y1766510D01*
X3081540D01*
X3081660Y1766500D01*
D02*
G37*
G36*
X3067860Y1739670D02*
X3066760D01*
Y1744790D01*
X3067860D01*
Y1739670D01*
D02*
G37*
G36*
X3069830D02*
X3068730D01*
Y1744790D01*
X3069830D01*
Y1739670D01*
D02*
G37*
G36*
X3071800D02*
X3070700D01*
Y1744790D01*
X3071800D01*
Y1739670D01*
D02*
G37*
G36*
X3065900D02*
X3064790D01*
Y1744790D01*
X3065900D01*
Y1739670D01*
D02*
G37*
G36*
X3059990D02*
X3058890D01*
Y1744790D01*
X3059990D01*
Y1739670D01*
D02*
G37*
G36*
X3061960D02*
X3060860D01*
Y1744790D01*
X3061960D01*
Y1739670D01*
D02*
G37*
G36*
X3063930D02*
X3062820D01*
Y1744790D01*
X3063930D01*
Y1739670D01*
D02*
G37*
G36*
X2886875Y1745314D02*
Y1740787D01*
X2886679Y1740590D01*
X2885064Y1740610D01*
Y1742342D01*
X2883293D01*
Y1740590D01*
X2881639Y1740590D01*
X2881442Y1740787D01*
Y1745314D01*
X2881639Y1745511D01*
X2886679D01*
X2886875Y1745314D01*
D02*
G37*
G36*
X3048640Y1750061D02*
X3049211Y1749490D01*
X3049520Y1748744D01*
Y1748340D01*
Y1747590D01*
Y1744550D01*
Y1744142D01*
X3049208Y1743389D01*
X3048631Y1742812D01*
X3047878Y1742500D01*
X3046814D01*
X3046064Y1742811D01*
X3045491Y1743384D01*
X3045180Y1744134D01*
Y1744540D01*
Y1744650D01*
X3045190Y1748120D01*
Y1748568D01*
X3045532Y1749394D01*
X3046165Y1750027D01*
X3046992Y1750370D01*
X3047894D01*
X3048640Y1750061D01*
D02*
G37*
G36*
X3081913Y1750369D02*
X3082656Y1750059D01*
X3083224Y1749488D01*
X3083531Y1748743D01*
X3083530Y1748340D01*
Y1747590D01*
X3083540Y1744550D01*
Y1744142D01*
X3083228Y1743389D01*
X3082651Y1742812D01*
X3081898Y1742500D01*
X3080834D01*
X3080084Y1742811D01*
X3079511Y1743384D01*
X3079200Y1744134D01*
Y1744540D01*
Y1744650D01*
Y1748120D01*
Y1748568D01*
X3079543Y1749394D01*
X3080176Y1750027D01*
X3081002Y1750370D01*
X3081510D01*
X3081913Y1750369D01*
D02*
G37*
G36*
X2895995Y1745284D02*
Y1740757D01*
X2895798Y1740560D01*
X2894184Y1740580D01*
Y1742312D01*
X2892413D01*
Y1740560D01*
X2890759Y1740560D01*
X2890562Y1740757D01*
Y1745284D01*
X2890759Y1745481D01*
X2895798D01*
X2895995Y1745284D01*
D02*
G37*
G36*
X3074790Y1739670D02*
X3072820D01*
Y1744790D01*
X3074790D01*
Y1739670D01*
D02*
G37*
G36*
X3077940D02*
X3075970D01*
Y1744790D01*
X3077940D01*
Y1739670D01*
D02*
G37*
G36*
X2923875Y1744764D02*
Y1740237D01*
X2923679Y1740040D01*
X2922064Y1740060D01*
Y1741792D01*
X2920293D01*
Y1740040D01*
X2918639Y1740040D01*
X2918442Y1740237D01*
Y1744764D01*
X2918639Y1744961D01*
X2923679D01*
X2923875Y1744764D01*
D02*
G37*
D11*
X3128831Y1595700D02*
D03*
X3132768D02*
D03*
X3012899Y1595700D02*
D03*
X3008962D02*
D03*
X2855419D02*
D03*
X2851482D02*
D03*
X2971351Y1595700D02*
D03*
X2975288D02*
D03*
X2697939Y1595700D02*
D03*
X2694002D02*
D03*
X2813871Y1595700D02*
D03*
X2817808D02*
D03*
X2540458Y1595700D02*
D03*
X2536521D02*
D03*
X2656391Y1595700D02*
D03*
X2660328D02*
D03*
X2026469Y1595700D02*
D03*
X2030406D02*
D03*
X1910537Y1595700D02*
D03*
X1906600D02*
D03*
X2183950Y1595700D02*
D03*
X2187887D02*
D03*
X2068017Y1595700D02*
D03*
X2064080D02*
D03*
X2341430Y1595700D02*
D03*
X2345367D02*
D03*
X2225498Y1595700D02*
D03*
X2221561D02*
D03*
X2382978D02*
D03*
X2379041D02*
D03*
X2498910Y1595700D02*
D03*
X2502847D02*
D03*
X1396548D02*
D03*
X1400485D02*
D03*
X1280616Y1595700D02*
D03*
X1276679D02*
D03*
X1554028Y1595700D02*
D03*
X1557965D02*
D03*
X1438096Y1595700D02*
D03*
X1434159D02*
D03*
X1711509Y1595700D02*
D03*
X1715446D02*
D03*
X1595576Y1595700D02*
D03*
X1591639D02*
D03*
X1753057D02*
D03*
X1749120D02*
D03*
X1868989Y1595700D02*
D03*
X1872926D02*
D03*
X766627D02*
D03*
X770564D02*
D03*
X650695Y1595700D02*
D03*
X646758D02*
D03*
X924107Y1595700D02*
D03*
X928044D02*
D03*
X808175Y1595700D02*
D03*
X804238D02*
D03*
X1081587Y1595700D02*
D03*
X1085524D02*
D03*
X965655Y1595700D02*
D03*
X961718D02*
D03*
X1123135D02*
D03*
X1119198D02*
D03*
X1239068Y1595700D02*
D03*
X1243005D02*
D03*
X136706D02*
D03*
X140642D02*
D03*
X20773Y1595700D02*
D03*
X16836D02*
D03*
X294186Y1595700D02*
D03*
X298123D02*
D03*
X178254Y1595700D02*
D03*
X174317D02*
D03*
X451666Y1595700D02*
D03*
X455603D02*
D03*
X335734Y1595700D02*
D03*
X331797D02*
D03*
X493214D02*
D03*
X489277D02*
D03*
X609146Y1595700D02*
D03*
X613084D02*
D03*
X2656391Y1438220D02*
D03*
X2660328D02*
D03*
X2540458Y1438220D02*
D03*
X2536521D02*
D03*
X2813871Y1438220D02*
D03*
X2817808D02*
D03*
X2697939Y1438220D02*
D03*
X2694002D02*
D03*
X2971351Y1438220D02*
D03*
X2975288D02*
D03*
X2855419Y1438220D02*
D03*
X2851482D02*
D03*
X3012899D02*
D03*
X3008962D02*
D03*
X3128831Y1438220D02*
D03*
X3132768D02*
D03*
X2026469D02*
D03*
X2030406D02*
D03*
X1910537Y1438220D02*
D03*
X1906600D02*
D03*
X2183950Y1438220D02*
D03*
X2187887D02*
D03*
X2068017Y1438220D02*
D03*
X2064080D02*
D03*
X2341430Y1438220D02*
D03*
X2345367D02*
D03*
X2225498Y1438220D02*
D03*
X2221561D02*
D03*
X2382978D02*
D03*
X2379041D02*
D03*
X2498910Y1438220D02*
D03*
X2502847D02*
D03*
X1396548D02*
D03*
X1400485D02*
D03*
X1280616Y1438220D02*
D03*
X1276679D02*
D03*
X1554028Y1438220D02*
D03*
X1557965D02*
D03*
X1438096Y1438220D02*
D03*
X1434159D02*
D03*
X1711509Y1438220D02*
D03*
X1715446D02*
D03*
X1595576Y1438220D02*
D03*
X1591639D02*
D03*
X1753057D02*
D03*
X1749120D02*
D03*
X1868989Y1438220D02*
D03*
X1872926D02*
D03*
X766627D02*
D03*
X770564D02*
D03*
X650695Y1438220D02*
D03*
X646758D02*
D03*
X924107Y1438220D02*
D03*
X928044D02*
D03*
X808175Y1438220D02*
D03*
X804238D02*
D03*
X1081587Y1438220D02*
D03*
X1085524D02*
D03*
X965655Y1438220D02*
D03*
X961718D02*
D03*
X1123135D02*
D03*
X1119198D02*
D03*
X1239068Y1438220D02*
D03*
X1243005D02*
D03*
X136706D02*
D03*
X140642D02*
D03*
X20773Y1438220D02*
D03*
X16836D02*
D03*
X294186Y1438220D02*
D03*
X298123D02*
D03*
X178254Y1438220D02*
D03*
X174317D02*
D03*
X451666Y1438220D02*
D03*
X455603D02*
D03*
X335734Y1438220D02*
D03*
X331797D02*
D03*
X493214D02*
D03*
X489277D02*
D03*
X609146Y1438220D02*
D03*
X613084D02*
D03*
X609146Y1280739D02*
D03*
X613084D02*
D03*
X493214Y1280739D02*
D03*
X489277D02*
D03*
X335734D02*
D03*
X331797D02*
D03*
X451666Y1280739D02*
D03*
X455603D02*
D03*
X178254Y1280739D02*
D03*
X174317D02*
D03*
X294186Y1280739D02*
D03*
X298123D02*
D03*
X20773Y1280739D02*
D03*
X16836D02*
D03*
X136706Y1280739D02*
D03*
X140642D02*
D03*
X1239068D02*
D03*
X1243005D02*
D03*
X1123135Y1280739D02*
D03*
X1119198D02*
D03*
X965655D02*
D03*
X961718D02*
D03*
X1081587Y1280739D02*
D03*
X1085524D02*
D03*
X808175Y1280739D02*
D03*
X804238D02*
D03*
X924107Y1280739D02*
D03*
X928044D02*
D03*
X650695Y1280739D02*
D03*
X646758D02*
D03*
X766627Y1280739D02*
D03*
X770564D02*
D03*
X1868989D02*
D03*
X1872926D02*
D03*
X1753057Y1280739D02*
D03*
X1749120D02*
D03*
X1595576D02*
D03*
X1591639D02*
D03*
X1711509Y1280739D02*
D03*
X1715446D02*
D03*
X1438096Y1280739D02*
D03*
X1434159D02*
D03*
X1554028Y1280739D02*
D03*
X1557965D02*
D03*
X1280616Y1280739D02*
D03*
X1276679D02*
D03*
X1396548Y1280739D02*
D03*
X1400485D02*
D03*
X2498910D02*
D03*
X2502847D02*
D03*
X2382978Y1280739D02*
D03*
X2379041D02*
D03*
X2225498D02*
D03*
X2221561D02*
D03*
X2341430Y1280739D02*
D03*
X2345367D02*
D03*
X2068017Y1280739D02*
D03*
X2064080D02*
D03*
X2183950Y1280739D02*
D03*
X2187887D02*
D03*
X1910537Y1280739D02*
D03*
X1906600D02*
D03*
X2026469Y1280739D02*
D03*
X2030406D02*
D03*
X3128831D02*
D03*
X3132768D02*
D03*
X3012899Y1280739D02*
D03*
X3008962D02*
D03*
X2855419D02*
D03*
X2851482D02*
D03*
X2971351Y1280739D02*
D03*
X2975288D02*
D03*
X2697939Y1280739D02*
D03*
X2694002D02*
D03*
X2813871Y1280739D02*
D03*
X2817808D02*
D03*
X2540458Y1280739D02*
D03*
X2536521D02*
D03*
X2656391Y1280739D02*
D03*
X2660328D02*
D03*
X609146Y1123259D02*
D03*
X613084D02*
D03*
X493214Y1123259D02*
D03*
X489277D02*
D03*
X335734D02*
D03*
X331797D02*
D03*
X451666Y1123259D02*
D03*
X455603D02*
D03*
X178254Y1123259D02*
D03*
X174317D02*
D03*
X294186Y1123259D02*
D03*
X298123D02*
D03*
X20773Y1123259D02*
D03*
X16836D02*
D03*
X136706Y1123259D02*
D03*
X140642D02*
D03*
X1239068D02*
D03*
X1243005D02*
D03*
X1123135Y1123259D02*
D03*
X1119198D02*
D03*
X965655D02*
D03*
X961718D02*
D03*
X1081587Y1123259D02*
D03*
X1085524D02*
D03*
X808175Y1123259D02*
D03*
X804238D02*
D03*
X924107Y1123259D02*
D03*
X928044D02*
D03*
X650695Y1123259D02*
D03*
X646758D02*
D03*
X766627Y1123259D02*
D03*
X770564D02*
D03*
X1868989D02*
D03*
X1872926D02*
D03*
X1753057Y1123259D02*
D03*
X1749120D02*
D03*
X1595576D02*
D03*
X1591639D02*
D03*
X1711509Y1123259D02*
D03*
X1715446D02*
D03*
X1438096Y1123259D02*
D03*
X1434159D02*
D03*
X1554028Y1123259D02*
D03*
X1557965D02*
D03*
X1280616Y1123259D02*
D03*
X1276679D02*
D03*
X1396548Y1123259D02*
D03*
X1400485D02*
D03*
X2498910D02*
D03*
X2502847D02*
D03*
X2382978Y1123259D02*
D03*
X2379041D02*
D03*
X2225498D02*
D03*
X2221561D02*
D03*
X2341430Y1123259D02*
D03*
X2345367D02*
D03*
X2068017Y1123259D02*
D03*
X2064080D02*
D03*
X2183950Y1123259D02*
D03*
X2187887D02*
D03*
X1910537Y1123259D02*
D03*
X1906600D02*
D03*
X2026469Y1123259D02*
D03*
X2030406D02*
D03*
X3128831D02*
D03*
X3132768D02*
D03*
X3012899Y1123259D02*
D03*
X3008962D02*
D03*
X2855419D02*
D03*
X2851482D02*
D03*
X2971351Y1123259D02*
D03*
X2975288D02*
D03*
X2697939Y1123259D02*
D03*
X2694002D02*
D03*
X2813871Y1123259D02*
D03*
X2817808D02*
D03*
X2540458Y1123259D02*
D03*
X2536521D02*
D03*
X2656391Y1123259D02*
D03*
X2660328D02*
D03*
X609146Y965779D02*
D03*
X613084D02*
D03*
X493214Y965779D02*
D03*
X489277D02*
D03*
X335734D02*
D03*
X331797D02*
D03*
X451666Y965779D02*
D03*
X455603D02*
D03*
X178254Y965779D02*
D03*
X174317D02*
D03*
X294186Y965779D02*
D03*
X298123D02*
D03*
X20773Y965779D02*
D03*
X16836D02*
D03*
X136706Y965779D02*
D03*
X140642D02*
D03*
X1239068D02*
D03*
X1243005D02*
D03*
X1123135Y965779D02*
D03*
X1119198D02*
D03*
X965655D02*
D03*
X961718D02*
D03*
X1081587Y965779D02*
D03*
X1085524D02*
D03*
X808175Y965779D02*
D03*
X804238D02*
D03*
X924107Y965779D02*
D03*
X928044D02*
D03*
X650695Y965779D02*
D03*
X646758D02*
D03*
X766627Y965779D02*
D03*
X770564D02*
D03*
X1868989D02*
D03*
X1872926D02*
D03*
X1753057Y965779D02*
D03*
X1749120D02*
D03*
X1595576D02*
D03*
X1591639D02*
D03*
X1711509Y965779D02*
D03*
X1715446D02*
D03*
X1438096Y965779D02*
D03*
X1434159D02*
D03*
X1554028Y965779D02*
D03*
X1557965D02*
D03*
X1280616Y965779D02*
D03*
X1276679D02*
D03*
X1396548Y965779D02*
D03*
X1400485D02*
D03*
X2498910D02*
D03*
X2502847D02*
D03*
X2382978Y965779D02*
D03*
X2379041D02*
D03*
X2225498D02*
D03*
X2221561D02*
D03*
X2341430Y965779D02*
D03*
X2345367D02*
D03*
X2068017Y965779D02*
D03*
X2064080D02*
D03*
X2183950Y965779D02*
D03*
X2187887D02*
D03*
X1910537Y965779D02*
D03*
X1906600D02*
D03*
X2026469Y965779D02*
D03*
X2030406D02*
D03*
X3128831D02*
D03*
X3132768D02*
D03*
X3012899Y965779D02*
D03*
X3008962D02*
D03*
X2855419D02*
D03*
X2851482D02*
D03*
X2971351Y965779D02*
D03*
X2975288D02*
D03*
X2697939Y965779D02*
D03*
X2694002D02*
D03*
X2813871Y965779D02*
D03*
X2817808D02*
D03*
X2540458Y965779D02*
D03*
X2536521D02*
D03*
X2656391Y965779D02*
D03*
X2660328D02*
D03*
X609146Y808298D02*
D03*
X613084D02*
D03*
X493214Y808298D02*
D03*
X489277D02*
D03*
X335734D02*
D03*
X331797D02*
D03*
X451666Y808298D02*
D03*
X455603D02*
D03*
X178254Y808298D02*
D03*
X174317D02*
D03*
X294186Y808298D02*
D03*
X298123D02*
D03*
X20773Y808298D02*
D03*
X16836D02*
D03*
X136706Y808298D02*
D03*
X140642D02*
D03*
X1239068D02*
D03*
X1243005D02*
D03*
X1123135Y808298D02*
D03*
X1119198D02*
D03*
X965655D02*
D03*
X961718D02*
D03*
X1081587Y808298D02*
D03*
X1085524D02*
D03*
X808175Y808298D02*
D03*
X804238D02*
D03*
X924107Y808298D02*
D03*
X928044D02*
D03*
X650695Y808298D02*
D03*
X646758D02*
D03*
X766627Y808298D02*
D03*
X770564D02*
D03*
X1868989D02*
D03*
X1872926D02*
D03*
X1753057Y808298D02*
D03*
X1749120D02*
D03*
X1595576D02*
D03*
X1591639D02*
D03*
X1711509Y808298D02*
D03*
X1715446D02*
D03*
X1438096Y808298D02*
D03*
X1434159D02*
D03*
X1554028Y808298D02*
D03*
X1557965D02*
D03*
X1280616Y808298D02*
D03*
X1276679D02*
D03*
X1396548Y808298D02*
D03*
X1400485D02*
D03*
X2498910D02*
D03*
X2502847D02*
D03*
X2382978Y808298D02*
D03*
X2379041D02*
D03*
X2225498D02*
D03*
X2221561D02*
D03*
X2341430Y808298D02*
D03*
X2345367D02*
D03*
X2068017Y808298D02*
D03*
X2064080D02*
D03*
X2183950Y808298D02*
D03*
X2187887D02*
D03*
X1910537Y808298D02*
D03*
X1906600D02*
D03*
X2026469Y808298D02*
D03*
X2030406D02*
D03*
X3128831D02*
D03*
X3132768D02*
D03*
X3012899Y808298D02*
D03*
X3008962D02*
D03*
X2855419D02*
D03*
X2851482D02*
D03*
X2971351Y808298D02*
D03*
X2975288D02*
D03*
X2697939Y808298D02*
D03*
X2694002D02*
D03*
X2813871Y808298D02*
D03*
X2817808D02*
D03*
X2540458Y808298D02*
D03*
X2536521D02*
D03*
X2656391Y808298D02*
D03*
X2660328D02*
D03*
X609146Y650818D02*
D03*
X613084D02*
D03*
X493214Y650818D02*
D03*
X489277D02*
D03*
X335734D02*
D03*
X331797D02*
D03*
X451666Y650818D02*
D03*
X455603D02*
D03*
X178254Y650818D02*
D03*
X174317D02*
D03*
X294186Y650818D02*
D03*
X298123D02*
D03*
X20773Y650818D02*
D03*
X16836D02*
D03*
X136706Y650818D02*
D03*
X140642D02*
D03*
X1239068D02*
D03*
X1243005D02*
D03*
X1123135Y650818D02*
D03*
X1119198D02*
D03*
X965655D02*
D03*
X961718D02*
D03*
X1081587Y650818D02*
D03*
X1085524D02*
D03*
X808175Y650818D02*
D03*
X804238D02*
D03*
X924107Y650818D02*
D03*
X928044D02*
D03*
X650695Y650818D02*
D03*
X646758D02*
D03*
X766627Y650818D02*
D03*
X770564D02*
D03*
X1868989D02*
D03*
X1872926D02*
D03*
X1753057Y650818D02*
D03*
X1749120D02*
D03*
X1595576D02*
D03*
X1591639D02*
D03*
X1711509Y650818D02*
D03*
X1715446D02*
D03*
X1438096Y650818D02*
D03*
X1434159D02*
D03*
X1554028Y650818D02*
D03*
X1557965D02*
D03*
X1280616Y650818D02*
D03*
X1276679D02*
D03*
X1396548Y650818D02*
D03*
X1400485D02*
D03*
X2498910D02*
D03*
X2502847D02*
D03*
X2382978Y650818D02*
D03*
X2379041D02*
D03*
X2225498D02*
D03*
X2221561D02*
D03*
X2341430Y650818D02*
D03*
X2345367D02*
D03*
X2068017Y650818D02*
D03*
X2064080D02*
D03*
X2183950Y650818D02*
D03*
X2187887D02*
D03*
X1910537Y650818D02*
D03*
X1906600D02*
D03*
X2026469Y650818D02*
D03*
X2030406D02*
D03*
X3128831D02*
D03*
X3132768D02*
D03*
X3012899Y650818D02*
D03*
X3008962D02*
D03*
X2855419D02*
D03*
X2851482D02*
D03*
X2971351Y650818D02*
D03*
X2975288D02*
D03*
X2697939Y650818D02*
D03*
X2694002D02*
D03*
X2813871Y650818D02*
D03*
X2817808D02*
D03*
X2540458Y650818D02*
D03*
X2536521D02*
D03*
X2656391Y650818D02*
D03*
X2660328D02*
D03*
X609146Y493338D02*
D03*
X613084D02*
D03*
X493214Y493338D02*
D03*
X489277D02*
D03*
X335734D02*
D03*
X331797D02*
D03*
X451666Y493338D02*
D03*
X455603D02*
D03*
X178254Y493338D02*
D03*
X174317D02*
D03*
X294186Y493338D02*
D03*
X298123D02*
D03*
X20773Y493338D02*
D03*
X16836D02*
D03*
X136706Y493338D02*
D03*
X140642D02*
D03*
X1239068D02*
D03*
X1243005D02*
D03*
X1123135Y493338D02*
D03*
X1119198D02*
D03*
X965655D02*
D03*
X961718D02*
D03*
X1081587Y493338D02*
D03*
X1085524D02*
D03*
X808175Y493338D02*
D03*
X804238D02*
D03*
X924107Y493338D02*
D03*
X928044D02*
D03*
X650695Y493338D02*
D03*
X646758D02*
D03*
X766627Y493338D02*
D03*
X770564D02*
D03*
X1868989D02*
D03*
X1872926D02*
D03*
X1753057Y493338D02*
D03*
X1749120D02*
D03*
X1595576D02*
D03*
X1591639D02*
D03*
X1711509Y493338D02*
D03*
X1715446D02*
D03*
X1438096Y493338D02*
D03*
X1434159D02*
D03*
X1554028Y493338D02*
D03*
X1557965D02*
D03*
X1280616Y493338D02*
D03*
X1276679D02*
D03*
X1396548Y493338D02*
D03*
X1400485D02*
D03*
X2498910D02*
D03*
X2502847D02*
D03*
X2382978Y493338D02*
D03*
X2379041D02*
D03*
X2225498D02*
D03*
X2221561D02*
D03*
X2341430Y493338D02*
D03*
X2345367D02*
D03*
X2068017Y493338D02*
D03*
X2064080D02*
D03*
X2183950Y493338D02*
D03*
X2187887D02*
D03*
X1910537Y493338D02*
D03*
X1906600D02*
D03*
X2026469Y493338D02*
D03*
X2030406D02*
D03*
X3128831D02*
D03*
X3132768D02*
D03*
X3012899Y493338D02*
D03*
X3008962D02*
D03*
X2855419D02*
D03*
X2851482D02*
D03*
X2971351Y493338D02*
D03*
X2975288D02*
D03*
X2697939Y493338D02*
D03*
X2694002D02*
D03*
X2813871Y493338D02*
D03*
X2817808D02*
D03*
X2540458Y493338D02*
D03*
X2536521D02*
D03*
X2656391Y493338D02*
D03*
X2660328D02*
D03*
X609146Y335858D02*
D03*
X613084D02*
D03*
X493214Y335858D02*
D03*
X489277D02*
D03*
X335734D02*
D03*
X331797D02*
D03*
X451666Y335858D02*
D03*
X455603D02*
D03*
X178254Y335858D02*
D03*
X174317D02*
D03*
X294186Y335858D02*
D03*
X298123D02*
D03*
X20773Y335858D02*
D03*
X16836D02*
D03*
X136706Y335858D02*
D03*
X140642D02*
D03*
X1239068D02*
D03*
X1243005D02*
D03*
X1123135Y335858D02*
D03*
X1119198D02*
D03*
X965655D02*
D03*
X961718D02*
D03*
X1081587Y335858D02*
D03*
X1085524D02*
D03*
X808175Y335858D02*
D03*
X804238D02*
D03*
X924107Y335858D02*
D03*
X928044D02*
D03*
X650695Y335858D02*
D03*
X646758D02*
D03*
X766627Y335858D02*
D03*
X770564D02*
D03*
X1868989D02*
D03*
X1872926D02*
D03*
X1753057Y335858D02*
D03*
X1749120D02*
D03*
X1595576D02*
D03*
X1591639D02*
D03*
X1711509Y335858D02*
D03*
X1715446D02*
D03*
X1438096Y335858D02*
D03*
X1434159D02*
D03*
X1554028Y335858D02*
D03*
X1557965D02*
D03*
X1280616Y335858D02*
D03*
X1276679D02*
D03*
X1396548Y335858D02*
D03*
X1400485D02*
D03*
X2498910D02*
D03*
X2502847D02*
D03*
X2382978Y335858D02*
D03*
X2379041D02*
D03*
X2225498D02*
D03*
X2221561D02*
D03*
X2341430Y335858D02*
D03*
X2345367D02*
D03*
X2068017Y335858D02*
D03*
X2064080D02*
D03*
X2183950Y335858D02*
D03*
X2187887D02*
D03*
X1910537Y335858D02*
D03*
X1906600D02*
D03*
X2026469Y335858D02*
D03*
X2030406D02*
D03*
X3128831D02*
D03*
X3132768D02*
D03*
X3012899Y335858D02*
D03*
X3008962D02*
D03*
X2855419D02*
D03*
X2851482D02*
D03*
X2971351Y335858D02*
D03*
X2975288D02*
D03*
X2697939Y335858D02*
D03*
X2694002D02*
D03*
X2813871Y335858D02*
D03*
X2817808D02*
D03*
X2540458Y335858D02*
D03*
X2536521D02*
D03*
X2656391Y335858D02*
D03*
X2660328D02*
D03*
X609146Y178377D02*
D03*
X613084D02*
D03*
X493214Y178377D02*
D03*
X489277D02*
D03*
X335734D02*
D03*
X331797D02*
D03*
X451666Y178377D02*
D03*
X455603D02*
D03*
X178254Y178377D02*
D03*
X174317D02*
D03*
X294186Y178377D02*
D03*
X298123D02*
D03*
X20773Y178377D02*
D03*
X16836D02*
D03*
X136706Y178377D02*
D03*
X140642D02*
D03*
X1239068D02*
D03*
X1243005D02*
D03*
X1123135Y178377D02*
D03*
X1119198D02*
D03*
X965655D02*
D03*
X961718D02*
D03*
X1081587Y178377D02*
D03*
X1085524D02*
D03*
X808175Y178377D02*
D03*
X804238D02*
D03*
X924107Y178377D02*
D03*
X928044D02*
D03*
X650695Y178377D02*
D03*
X646758D02*
D03*
X766627Y178377D02*
D03*
X770564D02*
D03*
X1868989D02*
D03*
X1872926D02*
D03*
X1753057Y178377D02*
D03*
X1749120D02*
D03*
X1595576D02*
D03*
X1591639D02*
D03*
X1711509Y178377D02*
D03*
X1715446D02*
D03*
X1438096Y178377D02*
D03*
X1434159D02*
D03*
X1554028Y178377D02*
D03*
X1557965D02*
D03*
X1280616Y178377D02*
D03*
X1276679D02*
D03*
X1396548Y178377D02*
D03*
X1400485D02*
D03*
X2498910D02*
D03*
X2502847D02*
D03*
X2382978Y178377D02*
D03*
X2379041D02*
D03*
X2225498D02*
D03*
X2221561D02*
D03*
X2341430Y178377D02*
D03*
X2345367D02*
D03*
X2068017Y178377D02*
D03*
X2064080D02*
D03*
X2183950Y178377D02*
D03*
X2187887D02*
D03*
X1910537Y178377D02*
D03*
X1906600D02*
D03*
X2026469Y178377D02*
D03*
X2030406D02*
D03*
X3128831D02*
D03*
X3132768D02*
D03*
X3012899Y178377D02*
D03*
X3008962D02*
D03*
X2855419D02*
D03*
X2851482D02*
D03*
X2971351Y178377D02*
D03*
X2975288D02*
D03*
X2697939Y178377D02*
D03*
X2694002D02*
D03*
X2813871Y178377D02*
D03*
X2817808D02*
D03*
X2540458Y178377D02*
D03*
X2536521D02*
D03*
X2656391Y178377D02*
D03*
X2660328D02*
D03*
D26*
X2981500Y1741174D02*
D03*
Y1746686D02*
D03*
X2992610Y1708584D02*
D03*
Y1714096D02*
D03*
X2973650Y1741244D02*
D03*
Y1746756D02*
D03*
X2985170Y1708500D02*
D03*
Y1714012D02*
D03*
D27*
X3040580Y1753986D02*
D03*
Y1757394D02*
D03*
X3087920D02*
D03*
Y1753986D02*
D03*
D28*
X3051760Y1742230D02*
D03*
X3054910D02*
D03*
X3073810D02*
D03*
X3076960D02*
D03*
D29*
X3057470D02*
D03*
X3059440D02*
D03*
X3061410D02*
D03*
X3063380D02*
D03*
X3065340D02*
D03*
X3067310D02*
D03*
X3069280D02*
D03*
X3071250D02*
D03*
D30*
X3022540Y1739900D02*
D03*
Y1728260D02*
D03*
D31*
X3006986Y1714060D02*
D03*
X3001054D02*
D03*
X2994506Y1756430D02*
D03*
X2988574D02*
D03*
X3003204Y1756510D02*
D03*
X3009136D02*
D03*
X2950446Y1765660D02*
D03*
X2944514D02*
D03*
X2964756Y1765480D02*
D03*
X2958824D02*
D03*
X2914648Y1723272D02*
D03*
X2908716D02*
D03*
X2898748Y1716642D02*
D03*
X2892816D02*
D03*
X2898648Y1723272D02*
D03*
X2892716D02*
D03*
X2746904Y1708100D02*
D03*
X2752836D02*
D03*
X2746874Y1700950D02*
D03*
X2752806D02*
D03*
X2849116Y1724240D02*
D03*
X2843184D02*
D03*
X2849056Y1731280D02*
D03*
X2843124D02*
D03*
D32*
X2986940Y1765760D02*
D03*
X2993640D02*
D03*
X3010410Y1765610D02*
D03*
X3003710D02*
D03*
D33*
X2998980Y1735850D02*
D03*
D34*
X3006480Y1747300D02*
D03*
X3001480D02*
D03*
X2996480D02*
D03*
X2991480D02*
D03*
Y1724400D02*
D03*
X2996480D02*
D03*
X3001480D02*
D03*
X3006480D02*
D03*
D35*
X2907260Y1738689D02*
D03*
D36*
X2903320Y1733148D02*
D03*
X2905290D02*
D03*
X2907260D02*
D03*
X2909230D02*
D03*
X2911200D02*
D03*
Y1744230D02*
D03*
X2909230D02*
D03*
X2907260D02*
D03*
X2905290D02*
D03*
X2903320D02*
D03*
D37*
X2884080Y1734665D02*
D03*
Y1742775D02*
D03*
X2893200Y1734635D02*
D03*
Y1742745D02*
D03*
X2921080Y1734115D02*
D03*
Y1742225D02*
D03*
D38*
X2914538Y1716621D02*
D03*
X2909026D02*
D03*
X2845964Y1700430D02*
D03*
X2851476D02*
D03*
X2845964Y1692670D02*
D03*
X2851476D02*
D03*
D39*
X2913600Y1756980D02*
D03*
X2901000D02*
D03*
D40*
X3026130Y1706090D02*
D03*
Y1712390D02*
D03*
X3034150Y1712580D02*
D03*
Y1706280D02*
D03*
D41*
X3050960Y1695506D02*
D03*
Y1689574D02*
D03*
X3058800Y1695366D02*
D03*
Y1689434D02*
D03*
D42*
X3077210Y1705451D02*
D03*
X3072210D02*
D03*
X3067210D02*
D03*
X3062210D02*
D03*
X3057210D02*
D03*
X3052210D02*
D03*
X3047210D02*
D03*
X3042210D02*
D03*
X3077210Y1728069D02*
D03*
X3072210D02*
D03*
X3067210D02*
D03*
X3062210D02*
D03*
X3057210D02*
D03*
X3052210D02*
D03*
X3047210D02*
D03*
X3042210D02*
D03*
D43*
X3009873Y1695260D02*
D03*
X3017747Y1691520D02*
D03*
Y1699000D02*
D03*
X3009803Y1682260D02*
D03*
X3017677Y1678520D02*
D03*
Y1686000D02*
D03*
D44*
X2727681Y1762220D02*
D03*
X2744059D02*
D03*
X2876379Y1763590D02*
D03*
X2860001D02*
D03*
D45*
X2831150Y1740190D02*
D03*
Y1732320D02*
D03*
Y1724440D02*
D03*
Y1716570D02*
D03*
Y1708690D02*
D03*
Y1700820D02*
D03*
Y1692950D02*
D03*
Y1685070D02*
D03*
X2771700D02*
D03*
X2771690Y1692950D02*
D03*
Y1700820D02*
D03*
Y1708690D02*
D03*
X2771700Y1716570D02*
D03*
X2771690Y1724440D02*
D03*
Y1732320D02*
D03*
Y1740190D02*
D03*
D46*
X2821100Y1679950D02*
D03*
X2813240Y1679960D02*
D03*
X2805370Y1679950D02*
D03*
X2797490D02*
D03*
X2789620D02*
D03*
X2781750D02*
D03*
D47*
X2852800Y1505230D02*
D03*
X2847800D02*
D03*
X2842800D02*
D03*
X2837800D02*
D03*
X2832800D02*
D03*
X2827800D02*
D03*
X2822800D02*
D03*
X2817800D02*
D03*
X2852800Y1526770D02*
D03*
X2847800D02*
D03*
X2842800D02*
D03*
X2837800D02*
D03*
X2832800D02*
D03*
X2827800D02*
D03*
X2822800D02*
D03*
X2817800D02*
D03*
X2222879Y1505230D02*
D03*
X2217879D02*
D03*
X2212879D02*
D03*
X2207879D02*
D03*
X2202879D02*
D03*
X2197879D02*
D03*
X2192879D02*
D03*
X2187879D02*
D03*
X2222879Y1526770D02*
D03*
X2217879D02*
D03*
X2212879D02*
D03*
X2207879D02*
D03*
X2202879D02*
D03*
X2197879D02*
D03*
X2192879D02*
D03*
X2187879D02*
D03*
X1592957Y1505230D02*
D03*
X1587957D02*
D03*
X1582957D02*
D03*
X1577958D02*
D03*
X1572958D02*
D03*
X1567957D02*
D03*
X1562957D02*
D03*
X1557957D02*
D03*
X1592957Y1526770D02*
D03*
X1587957D02*
D03*
X1582957D02*
D03*
X1577958D02*
D03*
X1572958D02*
D03*
X1567957D02*
D03*
X1562957D02*
D03*
X1557957D02*
D03*
X963036Y1505230D02*
D03*
X958036D02*
D03*
X953036D02*
D03*
X948036D02*
D03*
X943036D02*
D03*
X938036D02*
D03*
X933036D02*
D03*
X928036D02*
D03*
X963036Y1526770D02*
D03*
X958036D02*
D03*
X953036D02*
D03*
X948036D02*
D03*
X943036D02*
D03*
X938036D02*
D03*
X933036D02*
D03*
X928036D02*
D03*
X333115Y1505230D02*
D03*
X328115D02*
D03*
X323115D02*
D03*
X318115D02*
D03*
X313115D02*
D03*
X308115D02*
D03*
X303115D02*
D03*
X298115D02*
D03*
X333115Y1526770D02*
D03*
X328115D02*
D03*
X323115D02*
D03*
X318115D02*
D03*
X313115D02*
D03*
X308115D02*
D03*
X303115D02*
D03*
X298115D02*
D03*
X2852800Y1347750D02*
D03*
X2847800D02*
D03*
X2842800D02*
D03*
X2837800D02*
D03*
X2832800D02*
D03*
X2827800D02*
D03*
X2822800D02*
D03*
X2817800D02*
D03*
X2852800Y1369290D02*
D03*
X2847800D02*
D03*
X2842800D02*
D03*
X2837800D02*
D03*
X2832800D02*
D03*
X2827800D02*
D03*
X2822800D02*
D03*
X2817800D02*
D03*
X2222879Y1347750D02*
D03*
X2217879D02*
D03*
X2212879D02*
D03*
X2207879D02*
D03*
X2202879D02*
D03*
X2197879D02*
D03*
X2192879D02*
D03*
X2187879D02*
D03*
X2222879Y1369290D02*
D03*
X2217879D02*
D03*
X2212879D02*
D03*
X2207879D02*
D03*
X2202879D02*
D03*
X2197879D02*
D03*
X2192879D02*
D03*
X2187879D02*
D03*
X1592957Y1347750D02*
D03*
X1587957D02*
D03*
X1582957D02*
D03*
X1577958D02*
D03*
X1572958D02*
D03*
X1567957D02*
D03*
X1562957D02*
D03*
X1557957D02*
D03*
X1592957Y1369290D02*
D03*
X1587957D02*
D03*
X1582957D02*
D03*
X1577958D02*
D03*
X1572958D02*
D03*
X1567957D02*
D03*
X1562957D02*
D03*
X1557957D02*
D03*
X963036Y1347750D02*
D03*
X958036D02*
D03*
X953036D02*
D03*
X948036D02*
D03*
X943036D02*
D03*
X938036D02*
D03*
X933036D02*
D03*
X928036D02*
D03*
X963036Y1369290D02*
D03*
X958036D02*
D03*
X953036D02*
D03*
X948036D02*
D03*
X943036D02*
D03*
X938036D02*
D03*
X933036D02*
D03*
X928036D02*
D03*
X333115Y1347750D02*
D03*
X328115D02*
D03*
X323115D02*
D03*
X318115D02*
D03*
X313115D02*
D03*
X308115D02*
D03*
X303115D02*
D03*
X298115D02*
D03*
X333115Y1369290D02*
D03*
X328115D02*
D03*
X323115D02*
D03*
X318115D02*
D03*
X313115D02*
D03*
X308115D02*
D03*
X303115D02*
D03*
X298115D02*
D03*
X333115Y1190269D02*
D03*
X328115D02*
D03*
X323115D02*
D03*
X318115D02*
D03*
X313115D02*
D03*
X308115D02*
D03*
X303115D02*
D03*
X298115D02*
D03*
X333115Y1211809D02*
D03*
X328115D02*
D03*
X323115D02*
D03*
X318115D02*
D03*
X313115D02*
D03*
X308115D02*
D03*
X303115D02*
D03*
X298115D02*
D03*
X963036Y1190269D02*
D03*
X958036D02*
D03*
X953036D02*
D03*
X948036D02*
D03*
X943036D02*
D03*
X938036D02*
D03*
X933036D02*
D03*
X928036D02*
D03*
X963036Y1211809D02*
D03*
X958036D02*
D03*
X953036D02*
D03*
X948036D02*
D03*
X943036D02*
D03*
X938036D02*
D03*
X933036D02*
D03*
X928036D02*
D03*
X1592957Y1190269D02*
D03*
X1587957D02*
D03*
X1582957D02*
D03*
X1577958D02*
D03*
X1572958D02*
D03*
X1567957D02*
D03*
X1562957D02*
D03*
X1557957D02*
D03*
X1592957Y1211809D02*
D03*
X1587957D02*
D03*
X1582957D02*
D03*
X1577958D02*
D03*
X1572958D02*
D03*
X1567957D02*
D03*
X1562957D02*
D03*
X1557957D02*
D03*
X2222879Y1190269D02*
D03*
X2217879D02*
D03*
X2212879D02*
D03*
X2207879D02*
D03*
X2202879D02*
D03*
X2197879D02*
D03*
X2192879D02*
D03*
X2187879D02*
D03*
X2222879Y1211809D02*
D03*
X2217879D02*
D03*
X2212879D02*
D03*
X2207879D02*
D03*
X2202879D02*
D03*
X2197879D02*
D03*
X2192879D02*
D03*
X2187879D02*
D03*
X2852800Y1190269D02*
D03*
X2847800D02*
D03*
X2842800D02*
D03*
X2837800D02*
D03*
X2832800D02*
D03*
X2827800D02*
D03*
X2822800D02*
D03*
X2817800D02*
D03*
X2852800Y1211809D02*
D03*
X2847800D02*
D03*
X2842800D02*
D03*
X2837800D02*
D03*
X2832800D02*
D03*
X2827800D02*
D03*
X2822800D02*
D03*
X2817800D02*
D03*
X333115Y1032789D02*
D03*
X328115D02*
D03*
X323115D02*
D03*
X318115D02*
D03*
X313115D02*
D03*
X308115D02*
D03*
X303115D02*
D03*
X298115D02*
D03*
X333115Y1054329D02*
D03*
X328115D02*
D03*
X323115D02*
D03*
X318115D02*
D03*
X313115D02*
D03*
X308115D02*
D03*
X303115D02*
D03*
X298115D02*
D03*
X963036Y1032789D02*
D03*
X958036D02*
D03*
X953036D02*
D03*
X948036D02*
D03*
X943036D02*
D03*
X938036D02*
D03*
X933036D02*
D03*
X928036D02*
D03*
X963036Y1054329D02*
D03*
X958036D02*
D03*
X953036D02*
D03*
X948036D02*
D03*
X943036D02*
D03*
X938036D02*
D03*
X933036D02*
D03*
X928036D02*
D03*
X1592957Y1032789D02*
D03*
X1587957D02*
D03*
X1582957D02*
D03*
X1577958D02*
D03*
X1572958D02*
D03*
X1567957D02*
D03*
X1562957D02*
D03*
X1557957D02*
D03*
X1592957Y1054329D02*
D03*
X1587957D02*
D03*
X1582957D02*
D03*
X1577958D02*
D03*
X1572958D02*
D03*
X1567957D02*
D03*
X1562957D02*
D03*
X1557957D02*
D03*
X2222879Y1032789D02*
D03*
X2217879D02*
D03*
X2212879D02*
D03*
X2207879D02*
D03*
X2202879D02*
D03*
X2197879D02*
D03*
X2192879D02*
D03*
X2187879D02*
D03*
X2222879Y1054329D02*
D03*
X2217879D02*
D03*
X2212879D02*
D03*
X2207879D02*
D03*
X2202879D02*
D03*
X2197879D02*
D03*
X2192879D02*
D03*
X2187879D02*
D03*
X2852800Y1032789D02*
D03*
X2847800D02*
D03*
X2842800D02*
D03*
X2837800D02*
D03*
X2832800D02*
D03*
X2827800D02*
D03*
X2822800D02*
D03*
X2817800D02*
D03*
X2852800Y1054329D02*
D03*
X2847800D02*
D03*
X2842800D02*
D03*
X2837800D02*
D03*
X2832800D02*
D03*
X2827800D02*
D03*
X2822800D02*
D03*
X2817800D02*
D03*
X333115Y875309D02*
D03*
X328115D02*
D03*
X323115D02*
D03*
X318115D02*
D03*
X313115D02*
D03*
X308115D02*
D03*
X303115D02*
D03*
X298115D02*
D03*
X333115Y896849D02*
D03*
X328115D02*
D03*
X323115D02*
D03*
X318115D02*
D03*
X313115D02*
D03*
X308115D02*
D03*
X303115D02*
D03*
X298115D02*
D03*
X1592957Y875309D02*
D03*
X1587957D02*
D03*
X1582957D02*
D03*
X1577958D02*
D03*
X1572958D02*
D03*
X1567957D02*
D03*
X1562957D02*
D03*
X1557957D02*
D03*
X1592957Y896849D02*
D03*
X1587957D02*
D03*
X1582957D02*
D03*
X1577958D02*
D03*
X1572958D02*
D03*
X1567957D02*
D03*
X1562957D02*
D03*
X1557957D02*
D03*
X2222879Y875309D02*
D03*
X2217879D02*
D03*
X2212879D02*
D03*
X2207879D02*
D03*
X2202879D02*
D03*
X2197879D02*
D03*
X2192879D02*
D03*
X2187879D02*
D03*
X2222879Y896849D02*
D03*
X2217879D02*
D03*
X2212879D02*
D03*
X2207879D02*
D03*
X2202879D02*
D03*
X2197879D02*
D03*
X2192879D02*
D03*
X2187879D02*
D03*
X2852800Y875309D02*
D03*
X2847800D02*
D03*
X2842800D02*
D03*
X2837800D02*
D03*
X2832800D02*
D03*
X2827800D02*
D03*
X2822800D02*
D03*
X2817800D02*
D03*
X2852800Y896849D02*
D03*
X2847800D02*
D03*
X2842800D02*
D03*
X2837800D02*
D03*
X2832800D02*
D03*
X2827800D02*
D03*
X2822800D02*
D03*
X2817800D02*
D03*
X333115Y717828D02*
D03*
X328115D02*
D03*
X323115D02*
D03*
X318115D02*
D03*
X313115D02*
D03*
X308115D02*
D03*
X303115D02*
D03*
X298115D02*
D03*
X333115Y739368D02*
D03*
X328115D02*
D03*
X323115D02*
D03*
X318115D02*
D03*
X313115D02*
D03*
X308115D02*
D03*
X303115D02*
D03*
X298115D02*
D03*
X963036Y717828D02*
D03*
X958036D02*
D03*
X953036D02*
D03*
X948036D02*
D03*
X943036D02*
D03*
X938036D02*
D03*
X933036D02*
D03*
X928036D02*
D03*
X963036Y739368D02*
D03*
X958036D02*
D03*
X953036D02*
D03*
X948036D02*
D03*
X943036D02*
D03*
X938036D02*
D03*
X933036D02*
D03*
X928036D02*
D03*
X1592957Y717828D02*
D03*
X1587957D02*
D03*
X1582957D02*
D03*
X1577958D02*
D03*
X1572958D02*
D03*
X1567957D02*
D03*
X1562957D02*
D03*
X1557957D02*
D03*
X1592957Y739368D02*
D03*
X1587957D02*
D03*
X1582957D02*
D03*
X1577958D02*
D03*
X1572958D02*
D03*
X1567957D02*
D03*
X1562957D02*
D03*
X1557957D02*
D03*
X2222879Y717828D02*
D03*
X2217879D02*
D03*
X2212879D02*
D03*
X2207879D02*
D03*
X2202879D02*
D03*
X2197879D02*
D03*
X2192879D02*
D03*
X2187879D02*
D03*
X2222879Y739368D02*
D03*
X2217879D02*
D03*
X2212879D02*
D03*
X2207879D02*
D03*
X2202879D02*
D03*
X2197879D02*
D03*
X2192879D02*
D03*
X2187879D02*
D03*
X2852800Y717828D02*
D03*
X2847800D02*
D03*
X2842800D02*
D03*
X2837800D02*
D03*
X2832800D02*
D03*
X2827800D02*
D03*
X2822800D02*
D03*
X2817800D02*
D03*
X2852800Y739368D02*
D03*
X2847800D02*
D03*
X2842800D02*
D03*
X2837800D02*
D03*
X2832800D02*
D03*
X2827800D02*
D03*
X2822800D02*
D03*
X2817800D02*
D03*
X333115Y560348D02*
D03*
X328115D02*
D03*
X323115D02*
D03*
X318115D02*
D03*
X313115D02*
D03*
X308115D02*
D03*
X303115D02*
D03*
X298115D02*
D03*
X333115Y581888D02*
D03*
X328115D02*
D03*
X323115D02*
D03*
X318115D02*
D03*
X313115D02*
D03*
X308115D02*
D03*
X303115D02*
D03*
X298115D02*
D03*
X963036Y560348D02*
D03*
X958036D02*
D03*
X953036D02*
D03*
X948036D02*
D03*
X943036D02*
D03*
X938036D02*
D03*
X933036D02*
D03*
X928036D02*
D03*
X963036Y581888D02*
D03*
X958036D02*
D03*
X953036D02*
D03*
X948036D02*
D03*
X943036D02*
D03*
X938036D02*
D03*
X933036D02*
D03*
X928036D02*
D03*
X1592957Y560348D02*
D03*
X1587957D02*
D03*
X1582957D02*
D03*
X1577958D02*
D03*
X1572958D02*
D03*
X1567957D02*
D03*
X1562957D02*
D03*
X1557957D02*
D03*
X1592957Y581888D02*
D03*
X1587957D02*
D03*
X1582957D02*
D03*
X1577958D02*
D03*
X1572958D02*
D03*
X1567957D02*
D03*
X1562957D02*
D03*
X1557957D02*
D03*
X2222879Y560348D02*
D03*
X2217879D02*
D03*
X2212879D02*
D03*
X2207879D02*
D03*
X2202879D02*
D03*
X2197879D02*
D03*
X2192879D02*
D03*
X2187879D02*
D03*
X2222879Y581888D02*
D03*
X2217879D02*
D03*
X2212879D02*
D03*
X2207879D02*
D03*
X2202879D02*
D03*
X2197879D02*
D03*
X2192879D02*
D03*
X2187879D02*
D03*
X2852800Y560348D02*
D03*
X2847800D02*
D03*
X2842800D02*
D03*
X2837800D02*
D03*
X2832800D02*
D03*
X2827800D02*
D03*
X2822800D02*
D03*
X2817800D02*
D03*
X2852800Y581888D02*
D03*
X2847800D02*
D03*
X2842800D02*
D03*
X2837800D02*
D03*
X2832800D02*
D03*
X2827800D02*
D03*
X2822800D02*
D03*
X2817800D02*
D03*
X333115Y402868D02*
D03*
X328115D02*
D03*
X323115D02*
D03*
X318115D02*
D03*
X313115D02*
D03*
X308115D02*
D03*
X303115D02*
D03*
X298115D02*
D03*
X333115Y424408D02*
D03*
X328115D02*
D03*
X323115D02*
D03*
X318115D02*
D03*
X313115D02*
D03*
X308115D02*
D03*
X303115D02*
D03*
X298115D02*
D03*
X963036Y402868D02*
D03*
X958036D02*
D03*
X953036D02*
D03*
X948036D02*
D03*
X943036D02*
D03*
X938036D02*
D03*
X933036D02*
D03*
X928036D02*
D03*
X963036Y424408D02*
D03*
X958036D02*
D03*
X953036D02*
D03*
X948036D02*
D03*
X943036D02*
D03*
X938036D02*
D03*
X933036D02*
D03*
X928036D02*
D03*
X1592957Y402868D02*
D03*
X1587957D02*
D03*
X1582957D02*
D03*
X1577958D02*
D03*
X1572958D02*
D03*
X1567957D02*
D03*
X1562957D02*
D03*
X1557957D02*
D03*
X1592957Y424408D02*
D03*
X1587957D02*
D03*
X1582957D02*
D03*
X1577958D02*
D03*
X1572958D02*
D03*
X1567957D02*
D03*
X1562957D02*
D03*
X1557957D02*
D03*
X2222879Y402868D02*
D03*
X2217879D02*
D03*
X2212879D02*
D03*
X2207879D02*
D03*
X2202879D02*
D03*
X2197879D02*
D03*
X2192879D02*
D03*
X2187879D02*
D03*
X2222879Y424408D02*
D03*
X2217879D02*
D03*
X2212879D02*
D03*
X2207879D02*
D03*
X2202879D02*
D03*
X2197879D02*
D03*
X2192879D02*
D03*
X2187879D02*
D03*
X2852800Y402868D02*
D03*
X2847800D02*
D03*
X2842800D02*
D03*
X2837800D02*
D03*
X2832800D02*
D03*
X2827800D02*
D03*
X2822800D02*
D03*
X2817800D02*
D03*
X2852800Y424408D02*
D03*
X2847800D02*
D03*
X2842800D02*
D03*
X2837800D02*
D03*
X2832800D02*
D03*
X2827800D02*
D03*
X2822800D02*
D03*
X2817800D02*
D03*
X333115Y245388D02*
D03*
X328115D02*
D03*
X323115D02*
D03*
X318115D02*
D03*
X313115D02*
D03*
X308115D02*
D03*
X303115D02*
D03*
X298115D02*
D03*
X333115Y266928D02*
D03*
X328115D02*
D03*
X323115D02*
D03*
X318115D02*
D03*
X313115D02*
D03*
X308115D02*
D03*
X303115D02*
D03*
X298115D02*
D03*
X963036Y245388D02*
D03*
X958036D02*
D03*
X953036D02*
D03*
X948036D02*
D03*
X943036D02*
D03*
X938036D02*
D03*
X933036D02*
D03*
X928036D02*
D03*
X963036Y266928D02*
D03*
X958036D02*
D03*
X953036D02*
D03*
X948036D02*
D03*
X943036D02*
D03*
X938036D02*
D03*
X933036D02*
D03*
X928036D02*
D03*
X1592957Y245388D02*
D03*
X1587957D02*
D03*
X1582957D02*
D03*
X1577958D02*
D03*
X1572958D02*
D03*
X1567957D02*
D03*
X1562957D02*
D03*
X1557957D02*
D03*
X1592957Y266928D02*
D03*
X1587957D02*
D03*
X1582957D02*
D03*
X1577958D02*
D03*
X1572958D02*
D03*
X1567957D02*
D03*
X1562957D02*
D03*
X1557957D02*
D03*
X2222879Y245388D02*
D03*
X2217879D02*
D03*
X2212879D02*
D03*
X2207879D02*
D03*
X2202879D02*
D03*
X2197879D02*
D03*
X2192879D02*
D03*
X2187879D02*
D03*
X2222879Y266928D02*
D03*
X2217879D02*
D03*
X2212879D02*
D03*
X2207879D02*
D03*
X2202879D02*
D03*
X2197879D02*
D03*
X2192879D02*
D03*
X2187879D02*
D03*
X2852800Y245388D02*
D03*
X2847800D02*
D03*
X2842800D02*
D03*
X2837800D02*
D03*
X2832800D02*
D03*
X2827800D02*
D03*
X2822800D02*
D03*
X2817800D02*
D03*
X2852800Y266928D02*
D03*
X2847800D02*
D03*
X2842800D02*
D03*
X2837800D02*
D03*
X2832800D02*
D03*
X2827800D02*
D03*
X2822800D02*
D03*
X2817800D02*
D03*
X333115Y87907D02*
D03*
X328115D02*
D03*
X323115D02*
D03*
X318115D02*
D03*
X313115D02*
D03*
X308115D02*
D03*
X303115D02*
D03*
X298115D02*
D03*
X333115Y109447D02*
D03*
X328115D02*
D03*
X323115D02*
D03*
X318115D02*
D03*
X313115D02*
D03*
X308115D02*
D03*
X303115D02*
D03*
X298115D02*
D03*
X963036Y87907D02*
D03*
X958036D02*
D03*
X953036D02*
D03*
X948036D02*
D03*
X943036D02*
D03*
X938036D02*
D03*
X933036D02*
D03*
X928036D02*
D03*
X963036Y109447D02*
D03*
X958036D02*
D03*
X953036D02*
D03*
X948036D02*
D03*
X943036D02*
D03*
X938036D02*
D03*
X933036D02*
D03*
X928036D02*
D03*
X1592957Y87907D02*
D03*
X1587957D02*
D03*
X1582957D02*
D03*
X1577958D02*
D03*
X1572958D02*
D03*
X1567957D02*
D03*
X1562957D02*
D03*
X1557957D02*
D03*
X1592957Y109447D02*
D03*
X1587957D02*
D03*
X1582957D02*
D03*
X1577958D02*
D03*
X1572958D02*
D03*
X1567957D02*
D03*
X1562957D02*
D03*
X1557957D02*
D03*
X2222879Y87907D02*
D03*
X2217879D02*
D03*
X2212879D02*
D03*
X2207879D02*
D03*
X2202879D02*
D03*
X2197879D02*
D03*
X2192879D02*
D03*
X2187879D02*
D03*
X2222879Y109447D02*
D03*
X2217879D02*
D03*
X2212879D02*
D03*
X2207879D02*
D03*
X2202879D02*
D03*
X2197879D02*
D03*
X2192879D02*
D03*
X2187879D02*
D03*
X2852800Y87907D02*
D03*
X2847800D02*
D03*
X2842800D02*
D03*
X2837800D02*
D03*
X2832800D02*
D03*
X2827800D02*
D03*
X2822800D02*
D03*
X2817800D02*
D03*
X2852800Y109447D02*
D03*
X2847800D02*
D03*
X2842800D02*
D03*
X2837800D02*
D03*
X2832800D02*
D03*
X2827800D02*
D03*
X2822800D02*
D03*
X2817800D02*
D03*
X963036Y875309D02*
D03*
X958036D02*
D03*
X953036D02*
D03*
X948036D02*
D03*
X943036D02*
D03*
X938036D02*
D03*
X933036D02*
D03*
X928036D02*
D03*
X963036Y896849D02*
D03*
X958036D02*
D03*
X953036D02*
D03*
X948036D02*
D03*
X943036D02*
D03*
X938036D02*
D03*
X933036D02*
D03*
X928036D02*
D03*
M02*
