M48
;Layer_Color=9474304
;FILE_FORMAT=2:5
INCH,TZ
;TYPE=PLATED
T1F00S00C0.01181
T2F00S00C0.01575
T4F00S00C0.03543
T5F00S00C0.03937
%
T01
X3137401Y178377
X3070865
X3004330
X2979921
X2913385
X2846850
X2822440
X2817800Y87907
X2832800
X2837800
X2842800
X2847800
X2852800Y109447
X2755905Y178377
X2689369
X2664960
X2598424
X2531889
X2507479
X2440944
X2374409
X2349999
X2283464
X2216928
X2192519
X2222879Y109447
X2217879Y87907
X2212879
X2207879
X2202879
X2187879
X2125983Y178377
X2059448
X2035039
X1968503
X1901968
X1877558
X1811023
X1744487
X1720078
X1653543
X1587007
X1592957Y109447
X1587957Y87907
X1582957
X1577958
X1572958
X1557957
X1562598Y178377
X1496062
X1429527
X1405117
X1338582
X1272046
X1247637
X1181102
X1114566
X1090157
X1023621
X957086
X963036Y109447
X958036Y87907
X953036
X948036
X943036
X938036
X928036
X932676Y178377
X866141
X799606
X775196
X708661
X642125
X617716
X551180
X484645
X460235
X393700
X327165
X333115Y109447
X328115Y87907
X323115
X318115
X313115
X298115
X302755Y178377
X236220
X169684
X145275
X78739
X12204
Y335858
X78739
X145275
X169684
X236220
X302755
X298115Y245388
X313115
X318115
X323115
X328115
X333115Y266928
X327165Y335858
X393700
X460235
X484645
X551180
X617716
X642125
X708661
X775196
X799606
X866141
X932676
X928036Y245388
X943036
X948036
X953036
X958036
X963036Y266928
X957086Y335858
X1023621
X1090157
X1114566
X1181102
X1247637
X1272046
X1338582
X1405117
X1429527
X1496062
X1562598
X1557957Y245388
X1572958
X1577958
X1582957
X1587957
X1592957Y266928
X1587007Y335858
X1653543
X1720078
X1744487
X1811023
X1877558
X1901968
X1968503
X2035039
X2059448
X2125983
X2187879Y245388
X2202879
X2207879
X2212879
X2217879
X2222879Y266928
X2216928Y335858
X2192519
X2283464
X2349999
X2374409
X2440944
X2507479
X2531889
X2598424
X2664960
X2689369
X2755905
X2822440
X2846850
X2913385
X2852800Y266928
X2847800Y245388
X2842800
X2837800
X2832800
X2817800
X2979921Y335858
X3004330
X3070865
X3137401
Y493338
X3070865
X3004330
X2979921
X2913385
X2846850
X2822440
X2817800Y402868
X2832800
X2837800
X2842800
X2847800
X2852800Y424408
X2755905Y493338
X2689369
X2664960
X2598424
X2531889
X2507479
X2440944
X2374409
X2349999
X2283464
X2216928
X2192519
X2222879Y424408
X2217879Y402868
X2212879
X2207879
X2202879
X2187879
X2125983Y493338
X2059448
X2035039
X1968503
X1901968
X1877558
X1811023
X1744487
X1720078
X1653543
X1587007
X1592957Y424408
X1587957Y402868
X1582957
X1577958
X1572958
X1557957
X1562598Y493338
X1496062
X1429527
X1405117
X1338582
X1272046
X1247637
X1181102
X1114566
X1090157
X1023621
X957086
X963036Y424408
X958036Y402868
X953036
X948036
X943036
X928036
X932676Y493338
X866141
X799606
X775196
X708661
X642125
X617716
X551180
X484645
X460235
X393700
X327165
X333115Y424408
X328115Y402868
X323115
X318115
X313115
X298115
X302755Y493338
X236220
X169684
X145275
X78739
X12204
Y650818
X78739
X145275
X169684
X236220
X302755
X298115Y560348
X313115
X318115
X323115
X328115
X333115Y581888
X327165Y650818
X393700
X460235
X484645
X551180
X617716
X642125
X708661
X775196
X799606
X866141
X932676
X928036Y560348
X943036
X948036
X953036
X958036
X963036Y581888
X957086Y650818
X1023621
X1090157
X1114566
X1181102
X1247637
X1272046
X1338582
X1405117
X1429527
X1496062
X1562598
X1557957Y560348
X1572958
X1577958
X1582957
X1587957
X1592957Y581888
X1587007Y650818
X1653543
X1720078
X1744487
X1811023
X1877558
X1901968
X1968503
X2035039
X2059448
X2125983
X2187879Y560348
X2202879
X2207879
X2212879
X2217879
X2222879Y581888
X2216928Y650818
X2192519
X2283464
X2349999
X2374409
X2440944
X2507479
X2531889
X2598424
X2664960
X2689369
X2755905
X2822440
X2846850
X2913385
X2852800Y581888
X2847800Y560348
X2842800
X2837800
X2832800
X2817800
X2979921Y650818
X3004330
X3070865
X3137401
Y808298
X3070865
X3004330
X2979921
X2913385
X2846850
X2822440
X2817800Y717828
X2832800
X2837800
X2842800
X2847800
X2852800Y739368
X2755905Y808298
X2689369
X2664960
X2598424
X2531889
X2507479
X2440944
X2374409
X2349999
X2283464
X2216928
X2192519
X2222879Y739368
X2217879Y717828
X2212879
X2207879
X2202879
X2187879
X2125983Y808298
X2059448
X2035039
X1968503
X1901968
X1877558
X1811023
X1744487
X1720078
X1653543
X1587007
X1592957Y739368
X1587957Y717828
X1582957
X1577958
X1572958
X1557957
X1562598Y808298
X1496062
X1429527
X1405117
X1338582
X1272046
X1247637
X1181102
X1114566
X1090157
X1023621
X957086
X963036Y739368
X958036Y717828
X953036
X948036
X943036
X928036
X932676Y808298
X866141
X799606
X775196
X708661
X642125
X617716
X551180
X484645
X460235
X393700
X327165
X333115Y739368
X328115Y717828
X323115
X318115
X313115
X298115
X302755Y808298
X236220
X169684
X145275
X78739
X12204
Y965779
X78739
X145275
X169684
X236220
X302755
X298115Y875309
X313115
X318115
X323115
X328115
X333115Y896849
X327165Y965779
X393700
X460235
X484645
X551180
X617716
X642125
X708661
X775196
X799606
X866141
X932676
X928036Y875309
X943036
X948036
X953036
X958036
X963036Y896849
X957086Y965779
X1023621
X1090157
X1114566
X1181102
X1247637
X1272046
X1338582
X1405117
X1429527
X1496062
X1562598
X1557957Y875309
X1572958
X1577958
X1582957
X1587957
X1592957Y896849
X1587007Y965779
X1653543
X1720078
X1744487
X1811023
X1877558
X1901968
X1968503
X2035039
X2059448
X2125983
X2187879Y875309
X2202879
X2207879
X2212879
X2217879
X2222879Y896849
X2216928Y965779
X2192519
X2283464
X2349999
X2374409
X2440944
X2507479
X2531889
X2598424
X2664960
X2689369
X2755905
X2822440
X2846850
X2913385
X2852800Y896849
X2847800Y875309
X2842800
X2837800
X2832800
X2817800
X2979921Y965779
X3004330
X3070865
X3137401
Y1123259
X3070865
X3004330
X2979921
X2913385
X2846850
X2822440
X2817800Y1032789
X2832800
X2837800
X2842800
X2847800
X2852800Y1054329
X2755905Y1123259
X2689369
X2664960
X2598424
X2531889
X2507479
X2440944
X2374409
X2349999
X2283464
X2216928
X2192519
X2197879Y1032789
X2202879
X2207879
X2212879
X2217879
X2222879Y1032789
X2222200Y1045500
X2222879Y1054329
X2197500Y1015100
X2187879Y1032789
X2125983Y1123259
X2059448
X2035039
X1968503
X1901968
X1877558
X1811023
X1744487
X1720078
X1653543
X1587007
X1592957Y1054329
X1587957Y1032789
X1582957
X1577958
X1572958
X1557957
X1562598Y1123259
X1496062
X1429527
X1405117
X1338582
X1272046
X1247637
X1181102
X1114566
X1090157
X1023621
X957086
X963036Y1054329
X961300Y1046700
X963036Y1032789
X958036Y1032789
X953036
X948036
X943036
X938036
X928036
X938036Y1011564
X932676Y1123259
X866141
X799606
X775196
X708661
X642125
X617716
X551180
X484645
X460235
X393700
X327165
X333115Y1054329
X328115Y1032789
X323115
X318115
X313115
X298115
X302755Y1123259
X236220
X169684
X145275
X78739
X12204
X298115Y1190269
X313115
X318115
X323115
X328115
X333115Y1211809
X928036Y1190269
X938036
Y1171764
X943036Y1190269
X948036
X953036
X958036
X963036Y1190269
X961300Y1204180
X963036Y1211809
X1557957Y1190269
X1572958
X1577958
X1582957
X1587957
X1592957Y1211809
X2187879Y1190269
X2197879
X2202879
X2207879
X2212879
X2217879
X2222879Y1190269
X2222200Y1202980
X2222879Y1211809
X2198000Y1172800
X2817800Y1190269
X2832800
X2837800
X2842800
X2847800
X2852800Y1211809
X3137401Y1280739
X3070865
X3004330
X2979921
X2913385
X2846850
X2822440
X2817800Y1347750
X2832800
X2837800
X2842800
X2847800
X2852800Y1369290
X2755905Y1280739
X2689369
X2664960
X2598424
X2531889
X2507479
X2440944
X2374409
X2349999
X2283464
X2216928
X2192519
X2198000Y1330280
X2197879Y1347750
X2202879
X2207879
X2212879
X2217879
X2222879Y1347750
X2222200Y1360461
X2222879Y1369290
X2187879Y1347750
X2125983Y1280739
X2059448
X2035039
X1968503
X1901968
X1877558
X1811023
X1744487
X1720078
X1653543
X1587007
X1587957Y1347750
X1582957
X1577958
X1572958
X1592957Y1369290
X1557957Y1347750
X1562598Y1280739
X1496062
X1429527
X1405117
X1338582
X1272046
X1247637
X1181102
X1114566
X1090157
X1023621
X957086
X958036Y1347750
X953036
X948036
X943036
X963036Y1347750
X961300Y1361661
X963036Y1369290
X938036Y1347750
X928036
X938036Y1329244
X932676Y1280739
X866141
X799606
X775196
X708661
X642125
X617716
X551180
X484645
X460235
X393700
X327165
X328115Y1347750
X323115
X318115
X333115Y1369290
X313115Y1347750
X298115
X302755Y1280739
X236220
X169684
X145275
X78739
X12204
Y1438220
X78739
X145275
X169684
X236220
X302755
X298115Y1505230
X308115
X313115
X318115
X323115
X328115
X333115Y1526770
X327165Y1438220
X393700
X460235
X484645
X551180
X617716
X642125
X708661
X775196
X799606
X866141
X932676
X938036Y1486724
X938036Y1505230
X928036
X943036
X948036
X953036
X958036
X963036
Y1526770
X957086Y1438220
X1023621
X1090157
X1114566
X1181102
X1247637
X1272046
X1338582
X1405117
X1429527
X1496062
X1562598
X1557957Y1505230
X1567957
X1572958
X1577958
X1582957
X1587957
X1592957Y1526770
X1587007Y1438220
X1653543
X1720078
X1744487
X1811023
X1877558
X1901968
X1968503
X2035039
X2059448
X2125983
X2187879Y1505230
X2197879
X2202879
X2207879
X2212879
X2217879
X2222879
Y1526770
X2198000Y1487761
X2192519Y1438220
X2216928
X2283464
X2349999
X2374409
X2440944
X2507479
X2531889
X2598424
X2664960
X2689369
X2755905
X2822440
X2846850
X2913385
X2847800Y1505230
X2842800
X2837800
X2832800
X2827800
X2817800
X2852800Y1526770
X2979921Y1438220
X3004330
X3070865
X3137401
Y1595700
X3070865
X3004330
X2979921
X3009873Y1695260
X3017747Y1691520
X3050960Y1695506
X3052210Y1728069
X3047210
X3053210Y1736360
X3060160Y1736390
X3067980Y1736450
X3073790Y1736320
X2998980Y1735850
X2931690Y1743220
X2910940Y1728810
X2886180Y1725200
X2884080Y1742775
X2875970Y1747450
X2868810Y1746330
Y1707760
X2863370Y1695770
X2845964Y1692670
Y1700430
X2831150Y1700820
Y1692950
Y1708690
Y1716570
Y1732320
X2822440Y1595700
X2846850
X2913385
X2755905
X2689369
X2664960
X2746874Y1700950
X2751540Y1724440
X2771690Y1732320
Y1740190
X2735180Y1742150
X2786620Y1699740
X2598424Y1595700
X2531889
X2507479
X2440944
X2374409
X2349999
X2283464
X2216928
X2192519
X2125983
X2059448
X2035039
X1968503
X1901968
X1877558
X1811023
X1744487
X1720078
X1653543
X1587007
X1562598
X1496062
X1429527
X1405117
X1338582
X1272046
X1247637
X1181102
X1114566
X1090157
X1023621
X957086
X932676
X866141
X799606
X775196
X708661
X642125
X617716
X551180
X484645
X460235
X393700
X327165
X302755
X236220
X169684
X145275
X78739
X12204
X2876379Y1763590
T02
X909900Y1524900
X909700Y1512200
X2169600Y1511400
X2166600Y1524600
T04
X2874810Y1735754
Y1727880
Y1720006
X2857094
Y1727880
Y1735754
T05
X2950640Y1744140
Y1734140
M30
